<svg width="920" height="755" viewBox="0 0 920 755" fill="none" xmlns="http://www.w3.org/2000/svg">
<path d="M576.083 34.47L575.903 35.8765L574.171 35.6541L575.825 33.8107C575.905 33.7186 575.982 33.6234 576.055 33.5251C576.128 33.4243 576.196 33.3254 576.258 33.2283L576.289 33.2323C576.279 33.294 576.265 33.3723 576.247 33.4672C576.23 33.5595 576.212 33.6608 576.193 33.7713C576.173 33.8817 576.153 33.9972 576.132 34.118C576.115 34.2364 576.098 34.3538 576.083 34.47Z" fill="#59BB49"/>
<path d="M580.743 35.0683L580.563 36.4747L578.831 36.2524L580.485 34.409C580.565 34.3169 580.642 34.2217 580.715 34.1234C580.788 34.0226 580.856 33.9236 580.918 33.8266L580.949 33.8306C580.939 33.8922 580.925 33.9705 580.907 34.0654C580.89 34.1578 580.872 34.2591 580.853 34.3695C580.833 34.4799 580.813 34.5955 580.792 34.7162C580.774 34.8347 580.758 34.9521 580.743 35.0683Z" fill="#59BB49"/>
<path d="M563 26.5L591.5 30L590 42L561 38.5L563 26.5ZM572.55 33.7132C572.678 33.5379 572.758 33.3224 572.791 33.0667C572.845 32.6483 572.73 32.2948 572.447 32.0064C572.164 31.7154 571.732 31.5326 571.15 31.458C570.755 31.4073 570.402 31.4183 570.091 31.4913C569.779 31.5642 569.506 31.667 569.271 31.7996L569.628 32.4874C569.757 32.4251 569.891 32.3689 570.032 32.3186C570.172 32.2684 570.323 32.2313 570.483 32.2072C570.646 32.1836 570.824 32.184 571.015 32.2085C571.325 32.2483 571.55 32.3468 571.69 32.5039C571.83 32.6585 571.884 32.8571 571.853 33.0999C571.829 33.2859 571.763 33.4428 571.655 33.5707C571.549 33.6989 571.392 33.7903 571.183 33.8448C570.974 33.8968 570.705 33.9017 570.377 33.8596L569.874 33.7949L569.78 34.5272L570.279 34.5913C570.623 34.6354 570.899 34.7037 571.108 34.7961C571.319 34.8889 571.468 35.0065 571.555 35.1489C571.644 35.2917 571.676 35.4638 571.65 35.6652C571.61 35.9778 571.478 36.2102 571.253 36.3626C571.029 36.5124 570.681 36.5569 570.208 36.4962C569.965 36.465 569.713 36.3998 569.45 36.3004C569.187 36.201 568.943 36.0764 568.718 35.9268L568.614 36.7365C568.835 36.8752 569.073 36.9858 569.327 37.0684C569.585 37.1513 569.867 37.2125 570.174 37.2519C570.686 37.3176 571.114 37.2977 571.458 37.1923C571.802 37.0868 572.07 36.9164 572.26 36.6809C572.451 36.4428 572.567 36.1597 572.609 35.8317C572.657 35.4572 572.58 35.1413 572.376 34.8842C572.176 34.6274 571.853 34.4415 571.408 34.3267L571.412 34.2996C571.653 34.2781 571.871 34.2194 572.065 34.1234C572.261 34.0253 572.423 33.8885 572.55 33.7132ZM576.705 36.7474L577.472 36.8459L577.569 36.0904L576.802 35.9919L577.274 32.3111L576.387 32.1972L573.318 35.6115L573.229 36.3012L575.806 36.632L575.646 37.8757L576.545 37.9911L576.705 36.7474ZM581.364 37.3457L582.132 37.4441L582.229 36.6886L581.461 36.5901L581.934 32.9094L581.047 32.7955L577.978 36.2098L577.889 36.8995L580.466 37.2303L580.306 38.4739L581.205 38.5894L581.364 37.3457Z" fill="#59BB49"/>
</svg>
