<svg width="920" height="755" viewBox="0 0 920 755" fill="none" xmlns="http://www.w3.org/2000/svg">
<path d="M574.083 46.47L573.903 47.8765L572.171 47.6541L573.825 45.8107C573.905 45.7186 573.982 45.6234 574.055 45.5251C574.128 45.4243 574.196 45.3254 574.258 45.2283L574.289 45.2323C574.279 45.294 574.265 45.3723 574.247 45.4672C574.23 45.5595 574.212 45.6608 574.193 45.7713C574.173 45.8817 574.153 45.9972 574.132 46.118C574.115 46.2364 574.098 46.3538 574.083 46.47Z" fill="#59BB49"/>
<path d="M561 39L590 42.5L588 55L559 51.5L561 39ZM570.55 45.7132C570.678 45.5379 570.758 45.3224 570.791 45.0667C570.845 44.6483 570.73 44.2948 570.447 44.0064C570.164 43.7154 569.732 43.5326 569.15 43.458C568.755 43.4073 568.402 43.4183 568.091 43.4913C567.779 43.5642 567.506 43.667 567.271 43.7996L567.628 44.4874C567.757 44.4251 567.891 44.3689 568.032 44.3186C568.172 44.2684 568.323 44.2313 568.483 44.2072C568.646 44.1836 568.824 44.184 569.015 44.2085C569.325 44.2483 569.55 44.3468 569.69 44.5039C569.83 44.6585 569.884 44.8571 569.853 45.0999C569.829 45.2859 569.763 45.4428 569.655 45.5707C569.549 45.6989 569.392 45.7903 569.183 45.8448C568.974 45.8968 568.705 45.9017 568.377 45.8596L567.874 45.7949L567.78 46.5272L568.279 46.5913C568.623 46.6354 568.899 46.7037 569.108 46.7961C569.319 46.8889 569.468 47.0065 569.555 47.1489C569.644 47.2917 569.676 47.4638 569.65 47.6652C569.61 47.9778 569.478 48.2102 569.253 48.3626C569.029 48.5124 568.681 48.5569 568.208 48.4962C567.965 48.465 567.713 48.3998 567.45 48.3004C567.187 48.201 566.943 48.0764 566.718 47.9268L566.614 48.7365C566.835 48.8752 567.073 48.9858 567.327 49.0684C567.585 49.1513 567.867 49.2125 568.174 49.2519C568.686 49.3176 569.114 49.2977 569.458 49.1923C569.802 49.0868 570.07 48.9164 570.26 48.6809C570.451 48.4428 570.567 48.1597 570.609 47.8317C570.657 47.4572 570.58 47.1413 570.376 46.8842C570.176 46.6274 569.853 46.4415 569.408 46.3267L569.412 46.2996C569.653 46.2781 569.871 46.2194 570.065 46.1234C570.261 46.0253 570.423 45.8885 570.55 45.7132ZM574.705 48.7474L575.472 48.8459L575.569 48.0904L574.802 47.9919L575.274 44.3111L574.387 44.1972L571.318 47.6115L571.229 48.3012L573.806 48.632L573.646 49.8757L574.545 49.9911L574.705 48.7474ZM579.247 47.196C578.987 47.0287 578.675 46.9218 578.311 46.875C578.12 46.8505 577.959 46.8402 577.827 46.8443C577.695 46.8458 577.582 46.8509 577.486 46.8597L577.791 45.4653L579.934 45.7403L580.037 44.9383L577.092 44.5603L576.523 47.3032L576.892 47.5907C577.012 47.5747 577.161 47.5648 577.337 47.5612C577.516 47.5554 577.683 47.5624 577.838 47.5823C578.28 47.639 578.593 47.7697 578.776 47.9745C578.963 48.177 579.036 48.4409 578.994 48.7664C578.962 49.0118 578.885 49.2079 578.761 49.3548C578.639 49.502 578.48 49.6022 578.281 49.6555C578.083 49.7088 577.852 49.7185 577.588 49.6847C577.34 49.6529 577.085 49.586 576.822 49.484C576.56 49.3794 576.339 49.2605 576.159 49.1271L576.054 49.9485C576.226 50.0757 576.437 50.1815 576.686 50.266C576.938 50.3508 577.212 50.4123 577.509 50.4505C577.977 50.5105 578.383 50.4839 578.729 50.3707C579.074 50.2575 579.349 50.0683 579.554 49.8032C579.759 49.5354 579.887 49.2027 579.938 48.8049C579.985 48.4407 579.947 48.1234 579.824 47.8529C579.701 47.5799 579.509 47.3609 579.247 47.196Z" fill="#59BB49"/>
</svg>
