<svg width="920" height="755" viewBox="0 0 920 755" fill="none" xmlns="http://www.w3.org/2000/svg">
<path d="M572.083 59.47L571.903 60.8765L570.171 60.6541L571.825 58.8107C571.905 58.7186 571.982 58.6234 572.055 58.5251C572.128 58.4243 572.196 58.3254 572.258 58.2283L572.289 58.2323C572.279 58.294 572.265 58.3723 572.247 58.4672C572.23 58.5595 572.212 58.6608 572.193 58.7713C572.173 58.8817 572.153 58.9972 572.132 59.118C572.115 59.2364 572.098 59.3538 572.083 59.47Z" fill="#59BB49"/>
<path d="M576.747 62.5539C576.544 62.7221 576.296 62.7874 576.001 62.7496C575.826 62.727 575.677 62.6685 575.555 62.5741C575.433 62.4797 575.337 62.3636 575.265 62.2258C575.194 62.0853 575.146 61.9361 575.122 61.7781C575.097 61.62 575.095 61.4661 575.114 61.3163C575.133 61.1691 575.195 61.0301 575.301 60.8993C575.41 60.7688 575.552 60.6676 575.726 60.5955C575.901 60.5234 576.097 60.5012 576.314 60.5291C576.632 60.5699 576.857 60.6947 576.99 60.9035C577.126 61.1126 577.174 61.3786 577.132 61.7014C577.081 62.0992 576.953 62.3834 576.747 62.5539Z" fill="#59BB49"/>
<path d="M559 52L588 55.5L586 68L557 64.5L559 52ZM568.55 58.7132C568.678 58.5379 568.758 58.3224 568.791 58.0667C568.845 57.6483 568.73 57.2948 568.447 57.0064C568.164 56.7154 567.732 56.5326 567.15 56.458C566.755 56.4073 566.402 56.4183 566.091 56.4913C565.779 56.5642 565.506 56.667 565.271 56.7996L565.628 57.4874C565.757 57.4251 565.891 57.3689 566.032 57.3186C566.172 57.2684 566.323 57.2313 566.483 57.2072C566.646 57.1836 566.824 57.184 567.015 57.2085C567.325 57.2483 567.55 57.3468 567.69 57.5039C567.83 57.6585 567.884 57.8571 567.853 58.0999C567.829 58.2859 567.763 58.4428 567.655 58.5707C567.549 58.6989 567.392 58.7903 567.183 58.8448C566.974 58.8968 566.705 58.9017 566.377 58.8596L565.874 58.7949L565.78 59.5272L566.279 59.5913C566.623 59.6354 566.899 59.7037 567.108 59.7961C567.319 59.8889 567.468 60.0065 567.555 60.1489C567.644 60.2917 567.676 60.4638 567.65 60.6652C567.61 60.9778 567.478 61.2102 567.253 61.3626C567.029 61.5124 566.681 61.5569 566.208 61.4962C565.965 61.465 565.713 61.3998 565.45 61.3004C565.187 61.201 564.943 61.0764 564.718 60.9268L564.614 61.7365C564.835 61.8752 565.073 61.9858 565.327 62.0684C565.585 62.1513 565.867 62.2125 566.174 62.2519C566.686 62.3176 567.114 62.2977 567.458 62.1923C567.802 62.0868 568.07 61.9164 568.26 61.6809C568.451 61.4428 568.567 61.1597 568.609 60.8317C568.657 60.4572 568.58 60.1413 568.376 59.8842C568.176 59.6274 567.853 59.4415 567.408 59.3267L567.412 59.2996C567.653 59.2781 567.871 59.2194 568.065 59.1234C568.261 59.0253 568.423 58.8885 568.55 58.7132ZM572.705 61.7474L573.472 61.8459L573.569 61.0904L572.802 60.9919L573.274 57.3111L572.387 57.1972L569.318 60.6115L569.229 61.3012L571.806 61.632L571.646 62.8757L572.545 62.9911L572.705 61.7474ZM574.445 59.7811C574.357 60.098 574.291 60.423 574.249 60.7562C574.195 61.1747 574.198 61.5466 574.259 61.8721C574.32 62.195 574.427 62.4714 574.582 62.7012C574.736 62.9311 574.927 63.1131 575.154 63.2472C575.383 63.3817 575.639 63.467 575.92 63.5032C576.302 63.5523 576.642 63.5171 576.938 63.3976C577.237 63.2784 577.48 63.0838 577.667 62.8137C577.856 62.544 577.977 62.209 578.028 61.8086C578.076 61.4367 578.049 61.1116 577.949 60.8335C577.85 60.5557 577.687 60.3326 577.459 60.1642C577.232 59.9932 576.953 59.8865 576.622 59.8441C576.4 59.8155 576.201 59.8215 576.025 59.8619C575.85 59.8998 575.697 59.9616 575.568 60.0474C575.439 60.1332 575.328 60.2358 575.233 60.355L575.187 60.349C575.256 59.9509 575.368 59.6042 575.521 59.3089C575.675 59.0109 575.896 58.7899 576.185 58.6459C576.475 58.4992 576.857 58.4564 577.332 58.5174C577.451 58.5327 577.569 58.5557 577.686 58.5864C577.805 58.6175 577.913 58.6537 578.01 58.6951L578.107 57.9395C578.017 57.9044 577.902 57.8725 577.761 57.8439C577.621 57.8153 577.493 57.7938 577.38 57.7792C576.941 57.7228 576.557 57.7365 576.228 57.8204C575.9 57.9017 575.619 58.0362 575.385 58.2241C575.153 58.4123 574.961 58.6397 574.809 58.9063C574.657 59.1729 574.535 59.4645 574.445 59.7811Z" fill="#59BB49"/>
</svg>
