<svg width="920" height="755" viewBox="0 0 920 755" fill="none" xmlns="http://www.w3.org/2000/svg">
<path d="M571.083 72.47L570.903 73.8765L569.171 73.6541L570.825 71.8107C570.905 71.7186 570.982 71.6234 571.055 71.5251C571.128 71.4243 571.196 71.3254 571.258 71.2283L571.289 71.2323C571.279 71.294 571.265 71.3723 571.247 71.4672C571.23 71.5595 571.212 71.6608 571.193 71.7713C571.173 71.8817 571.153 71.9972 571.132 72.118C571.115 72.2364 571.098 72.3538 571.083 72.47Z" fill="#59BB49"/>
<path d="M557 65L586 68.5L584 81.5L555 77.5L557 65ZM567.55 71.7132C567.678 71.5379 567.758 71.3224 567.791 71.0667C567.845 70.6483 567.73 70.2948 567.447 70.0064C567.164 69.7154 566.732 69.5326 566.15 69.458C565.755 69.4073 565.402 69.4183 565.091 69.4913C564.779 69.5642 564.506 69.667 564.271 69.7996L564.628 70.4874C564.757 70.4251 564.891 70.3689 565.032 70.3186C565.172 70.2684 565.323 70.2313 565.483 70.2072C565.646 70.1836 565.824 70.184 566.015 70.2085C566.325 70.2483 566.55 70.3468 566.69 70.5039C566.83 70.6585 566.884 70.8571 566.853 71.0999C566.829 71.2859 566.763 71.4428 566.655 71.5707C566.549 71.6989 566.392 71.7903 566.183 71.8448C565.974 71.8968 565.705 71.9017 565.377 71.8596L564.874 71.7949L564.78 72.5272L565.279 72.5913C565.623 72.6354 565.899 72.7037 566.108 72.7961C566.319 72.8889 566.468 73.0065 566.555 73.1489C566.644 73.2917 566.676 73.4638 566.65 73.6652C566.61 73.9778 566.478 74.2102 566.253 74.3626C566.029 74.5124 565.681 74.5569 565.208 74.4962C564.965 74.465 564.713 74.3998 564.45 74.3004C564.187 74.201 563.943 74.0764 563.718 73.9268L563.614 74.7365C563.835 74.8752 564.073 74.9858 564.327 75.0684C564.585 75.1513 564.867 75.2125 565.174 75.2519C565.686 75.3176 566.114 75.2977 566.458 75.1923C566.802 75.0868 567.07 74.9164 567.26 74.6809C567.451 74.4428 567.567 74.1597 567.609 73.8317C567.657 73.4572 567.58 73.1413 567.376 72.8842C567.176 72.6274 566.853 72.4415 566.408 72.3267L566.412 72.2996C566.653 72.2781 566.871 72.2194 567.065 72.1234C567.261 72.0253 567.423 71.8885 567.55 71.7132ZM571.705 74.7474L572.472 74.8459L572.569 74.0904L571.802 73.9919L572.274 70.3111L571.387 70.1972L568.318 73.6115L568.229 74.3012L570.806 74.632L570.646 75.8757L571.545 75.9911L571.705 74.7474ZM576.427 71.6713L573.578 76.2521L574.558 76.3779L577.429 71.6228L577.509 70.999L573.588 70.4956L573.486 71.2938L576.427 71.6713Z" fill="#59BB49"/>
</svg>
