<svg width="920" height="755" viewBox="0 0 920 755" fill="none" xmlns="http://www.w3.org/2000/svg">
<path d="M569.083 85.47L568.903 86.8765L567.171 86.6541L568.825 84.8107C568.905 84.7186 568.982 84.6234 569.055 84.5251C569.128 84.4243 569.196 84.3254 569.258 84.2283L569.289 84.2323C569.279 84.294 569.265 84.3723 569.247 84.4672C569.23 84.5595 569.212 84.6608 569.193 84.7713C569.173 84.8817 569.153 84.9972 569.132 85.118C569.115 85.2364 569.098 85.3538 569.083 85.47Z" fill="#59BB49"/>
<path d="M572.157 88.4522C572.002 88.2695 571.94 88.0541 571.972 87.8062C571.995 87.6331 572.053 87.4844 572.148 87.36C572.245 87.236 572.373 87.1303 572.531 87.043C572.69 86.9531 572.875 86.8784 573.088 86.8191L573.205 86.8853C573.38 86.9945 573.537 87.1092 573.677 87.2295C573.819 87.3475 573.927 87.4756 574.002 87.6138C574.078 87.7523 574.106 87.9042 574.085 88.0695C574.052 88.3278 573.935 88.5241 573.734 88.6585C573.533 88.7928 573.259 88.8378 572.913 88.7934C572.564 88.7486 572.312 88.6349 572.157 88.4522Z" fill="#59BB49"/>
<path d="M572.837 84.479C573.015 84.3759 573.23 84.3404 573.48 84.3726C573.739 84.4058 573.94 84.4946 574.084 84.6392C574.231 84.7815 574.29 84.9662 574.261 85.1935C574.24 85.3589 574.183 85.4959 574.09 85.6048C574 85.7114 573.885 85.7991 573.745 85.8677C573.608 85.9341 573.456 85.9921 573.29 86.0416C573.136 85.9484 572.998 85.8518 572.874 85.7519C572.751 85.6494 572.656 85.535 572.591 85.4084C572.529 85.2823 572.508 85.1378 572.529 84.9751C572.558 84.7452 572.661 84.5798 572.837 84.479Z" fill="#59BB49"/>
<path d="M555 78L584 82L582.5 94.5L553 90.5L555 78ZM565.55 84.7132C565.678 84.5379 565.758 84.3224 565.791 84.0667C565.845 83.6483 565.73 83.2948 565.447 83.0064C565.164 82.7154 564.732 82.5326 564.15 82.458C563.755 82.4073 563.402 82.4183 563.091 82.4913C562.779 82.5642 562.506 82.667 562.271 82.7996L562.628 83.4874C562.757 83.4251 562.891 83.3689 563.032 83.3186C563.172 83.2684 563.323 83.2313 563.483 83.2072C563.646 83.1836 563.824 83.184 564.015 83.2085C564.325 83.2483 564.55 83.3468 564.69 83.5039C564.83 83.6585 564.884 83.8571 564.853 84.0999C564.829 84.2859 564.763 84.4428 564.655 84.5707C564.549 84.6989 564.392 84.7903 564.183 84.8448C563.974 84.8968 563.705 84.9017 563.377 84.8596L562.874 84.7949L562.78 85.5272L563.279 85.5913C563.623 85.6354 563.899 85.7037 564.108 85.7961C564.319 85.8889 564.468 86.0065 564.555 86.1489C564.644 86.2917 564.676 86.4638 564.65 86.6652C564.61 86.9778 564.478 87.2102 564.253 87.3626C564.029 87.5124 563.681 87.5569 563.208 87.4962C562.965 87.465 562.713 87.3998 562.45 87.3004C562.187 87.201 561.943 87.0764 561.718 86.9268L561.614 87.7365C561.835 87.8752 562.073 87.9858 562.327 88.0684C562.585 88.1513 562.867 88.2125 563.174 88.2519C563.686 88.3176 564.114 88.2977 564.458 88.1923C564.802 88.0868 565.07 87.9164 565.26 87.6809C565.451 87.4428 565.567 87.1597 565.609 86.8317C565.657 86.4572 565.58 86.1413 565.376 85.8842C565.176 85.6274 564.853 85.4415 564.408 85.3267L564.412 85.2996C564.653 85.2781 564.871 85.2194 565.065 85.1234C565.261 85.0253 565.423 84.8885 565.55 84.7132ZM569.705 87.7474L570.472 87.8459L570.569 87.0904L569.802 86.9919L570.274 83.3111L569.387 83.1972L566.318 86.6115L566.229 87.3012L568.806 87.632L568.646 88.8757L569.545 88.9911L569.705 87.7474ZM574.446 83.9412C574.195 83.8041 573.906 83.7144 573.578 83.6723C573.258 83.6312 572.958 83.6452 572.679 83.7144C572.402 83.7839 572.172 83.9092 571.989 84.0905C571.805 84.2691 571.695 84.5057 571.657 84.8002C571.628 85.0301 571.644 85.2383 571.707 85.4249C571.773 85.6092 571.87 85.778 572 85.9312C572.131 86.0818 572.278 86.2215 572.443 86.3503C572.221 86.419 572.014 86.5118 571.82 86.6288C571.629 86.746 571.47 86.8936 571.342 87.0715C571.214 87.2494 571.133 87.4687 571.1 87.7296C571.059 88.0447 571.1 88.3256 571.22 88.5721C571.341 88.8161 571.538 89.0173 571.812 89.1758C572.086 89.3344 572.428 89.44 572.839 89.4927C573.221 89.5418 573.564 89.5228 573.866 89.4356C574.169 89.3458 574.415 89.1963 574.605 88.987C574.798 88.7754 574.914 88.5108 574.955 88.1931C574.988 87.9399 574.958 87.7116 574.866 87.5081C574.776 87.305 574.646 87.1216 574.476 86.9579C574.308 86.792 574.12 86.6405 573.912 86.5035C574.123 86.4309 574.317 86.3415 574.494 86.2355C574.67 86.127 574.816 85.9934 574.931 85.8349C575.048 85.6766 575.122 85.4826 575.151 85.2527C575.19 84.9557 575.144 84.6965 575.015 84.4751C574.886 84.2537 574.696 84.0758 574.446 83.9412Z" fill="#59BB49"/>
</svg>
