<svg width="920" height="755" viewBox="0 0 920 755" fill="none" xmlns="http://www.w3.org/2000/svg">
<path d="M567.083 98.47L566.903 99.8765L565.171 99.6541L566.825 97.8107C566.905 97.7186 566.982 97.6234 567.055 97.5251C567.128 97.4243 567.196 97.3254 567.258 97.2283L567.289 97.2323C567.279 97.294 567.265 97.3723 567.247 97.4672C567.23 97.5595 567.212 97.6608 567.193 97.7713C567.173 97.8817 567.153 97.9972 567.132 98.118C567.115 98.2364 567.098 98.3538 567.083 98.47Z" fill="#59BB49"/>
<path d="M570.677 97.6199C570.882 97.4494 571.129 97.3826 571.415 97.4194C571.594 97.4423 571.743 97.5022 571.865 97.5992C571.989 97.6939 572.087 97.8102 572.159 97.948C572.23 98.0859 572.277 98.2337 572.299 98.3914C572.323 98.5494 572.325 98.7046 572.306 98.857C572.287 99.0042 572.223 99.1431 572.115 99.2735C572.009 99.4043 571.868 99.5058 571.693 99.5779C571.522 99.6477 571.325 99.6684 571.103 99.6398C570.782 99.5987 570.557 99.4739 570.426 99.2655C570.295 99.057 570.251 98.7914 570.292 98.4685C570.343 98.0707 570.471 97.7879 570.677 97.6199Z" fill="#59BB49"/>
<path d="M553 91L582.5 95L580.5 107.5L551 104L553 91ZM563.55 97.7132C563.678 97.5379 563.758 97.3224 563.791 97.0667C563.845 96.6483 563.73 96.2948 563.447 96.0064C563.164 95.7154 562.732 95.5326 562.15 95.458C561.755 95.4073 561.402 95.4183 561.091 95.4913C560.779 95.5642 560.506 95.667 560.271 95.7996L560.628 96.4874C560.757 96.4251 560.891 96.3689 561.032 96.3186C561.172 96.2684 561.323 96.2313 561.483 96.2072C561.646 96.1836 561.824 96.184 562.015 96.2085C562.325 96.2483 562.55 96.3468 562.69 96.5039C562.83 96.6585 562.884 96.8571 562.853 97.0999C562.829 97.2859 562.763 97.4428 562.655 97.5707C562.549 97.6989 562.392 97.7903 562.183 97.8448C561.974 97.8968 561.705 97.9017 561.377 97.8596L560.874 97.7949L560.78 98.5272L561.279 98.5913C561.623 98.6354 561.899 98.7037 562.108 98.7961C562.319 98.8889 562.468 99.0065 562.555 99.1489C562.644 99.2917 562.676 99.4638 562.65 99.6652C562.61 99.9778 562.478 100.21 562.253 100.363C562.029 100.512 561.681 100.557 561.208 100.496C560.965 100.465 560.713 100.4 560.45 100.3C560.187 100.201 559.943 100.076 559.718 99.9268L559.614 100.737C559.835 100.875 560.073 100.986 560.327 101.068C560.585 101.151 560.867 101.212 561.174 101.252C561.686 101.318 562.114 101.298 562.458 101.192C562.802 101.087 563.07 100.916 563.26 100.681C563.451 100.443 563.567 100.16 563.609 99.8317C563.657 99.4572 563.58 99.1413 563.376 98.8842C563.176 98.6274 562.853 98.4415 562.408 98.3267L562.412 98.2996C562.653 98.2781 562.871 98.2194 563.065 98.1234C563.261 98.0253 563.423 97.8885 563.55 97.7132ZM567.705 100.747L568.472 100.846L568.569 100.09L567.802 99.9919L568.274 96.3111L567.387 96.1972L564.318 99.6115L564.229 100.301L566.806 100.632L566.646 101.876L567.545 101.991L567.705 100.747ZM572.976 100.388C573.066 100.072 573.133 99.7456 573.176 99.4098C573.23 98.994 573.226 98.6246 573.165 98.3017C573.104 97.9762 572.997 97.6986 572.843 97.4687C572.689 97.2363 572.497 97.0541 572.267 96.9222C572.04 96.788 571.784 96.7027 571.5 96.6662C571.123 96.6178 570.785 96.6545 570.486 96.7762C570.187 96.8954 569.943 97.0899 569.753 97.3596C569.564 97.6293 569.443 97.9643 569.392 98.3647C569.344 98.7341 569.37 99.0589 569.467 99.3393C569.568 99.6174 569.73 99.8404 569.953 100.008C570.178 100.176 570.453 100.281 570.779 100.323C571.019 100.354 571.227 100.35 571.402 100.312C571.578 100.272 571.729 100.209 571.856 100.123C571.983 100.034 572.092 99.9322 572.183 99.8179L572.229 99.8238C572.162 100.22 572.052 100.566 571.899 100.864C571.747 101.163 571.526 101.384 571.234 101.527C570.946 101.672 570.562 101.713 570.084 101.652C569.963 101.636 569.841 101.612 569.719 101.581C569.6 101.547 569.493 101.51 569.399 101.469L569.301 102.228C569.392 102.261 569.509 102.292 569.652 102.321C569.797 102.352 569.926 102.376 570.037 102.39C570.478 102.446 570.863 102.434 571.191 102.353C571.52 102.272 571.799 102.137 572.031 101.949C572.266 101.758 572.459 101.53 572.611 101.263C572.766 100.997 572.888 100.705 572.976 100.388Z" fill="#59BB49"/>
</svg>
