<svg width="920" height="755" viewBox="0 0 920 755" fill="none" xmlns="http://www.w3.org/2000/svg">
<path d="M568.141 114.658C568.12 114.33 568.14 113.927 568.202 113.449C568.263 112.974 568.345 112.58 568.448 112.268C568.554 111.956 568.689 111.729 568.854 111.588C569.022 111.444 569.23 111.388 569.478 111.42C569.726 111.451 569.913 111.558 570.04 111.74C570.166 111.919 570.241 112.173 570.265 112.501C570.288 112.83 570.27 113.232 570.209 113.707C570.147 114.187 570.062 114.583 569.954 114.895C569.848 115.207 569.711 115.432 569.544 115.571C569.376 115.71 569.17 115.763 568.925 115.732C568.679 115.7 568.493 115.596 568.366 115.42C568.239 115.241 568.164 114.987 568.141 114.658Z" fill="#59BB49"/>
<path d="M551 104.5L580.5 108L578.5 121L549 117L551 104.5ZM561.55 111.713C561.678 111.538 561.758 111.322 561.791 111.067C561.845 110.648 561.73 110.295 561.447 110.006C561.164 109.715 560.732 109.533 560.15 109.458C559.755 109.407 559.402 109.418 559.091 109.491C558.779 109.564 558.506 109.667 558.271 109.8L558.628 110.487C558.757 110.425 558.891 110.369 559.032 110.319C559.172 110.268 559.323 110.231 559.483 110.207C559.646 110.184 559.824 110.184 560.015 110.209C560.325 110.248 560.55 110.347 560.69 110.504C560.83 110.658 560.884 110.857 560.853 111.1C560.829 111.286 560.763 111.443 560.655 111.571C560.549 111.699 560.392 111.79 560.183 111.845C559.974 111.897 559.705 111.902 559.377 111.86L558.874 111.795L558.78 112.527L559.279 112.591C559.623 112.635 559.899 112.704 560.108 112.796C560.319 112.889 560.468 113.006 560.555 113.149C560.644 113.292 560.676 113.464 560.65 113.665C560.61 113.978 560.478 114.21 560.253 114.363C560.029 114.512 559.681 114.557 559.208 114.496C558.965 114.465 558.713 114.4 558.45 114.3C558.187 114.201 557.943 114.076 557.718 113.927L557.614 114.737C557.835 114.875 558.073 114.986 558.327 115.068C558.585 115.151 558.867 115.212 559.174 115.252C559.686 115.318 560.114 115.298 560.458 115.192C560.802 115.087 561.07 114.916 561.26 114.681C561.451 114.443 561.567 114.16 561.609 113.832C561.657 113.457 561.58 113.141 561.376 112.884C561.176 112.627 560.853 112.442 560.408 112.327L560.412 112.3C560.653 112.278 560.871 112.219 561.065 112.123C561.261 112.025 561.423 111.889 561.55 111.713ZM565.587 112.598C565.327 112.43 565.015 112.323 564.651 112.277C564.46 112.252 564.299 112.242 564.167 112.246C564.035 112.248 563.922 112.253 563.826 112.261L564.131 110.867L566.274 111.142L566.377 110.34L563.432 109.962L562.863 112.705L563.232 112.992C563.352 112.976 563.501 112.967 563.677 112.963C563.856 112.957 564.023 112.964 564.178 112.984C564.62 113.041 564.933 113.171 565.117 113.376C565.303 113.579 565.376 113.843 565.334 114.168C565.302 114.414 565.225 114.61 565.101 114.757C564.98 114.904 564.82 115.004 564.621 115.057C564.423 115.111 564.192 115.12 563.928 115.086C563.68 115.055 563.425 114.988 563.162 114.886C562.9 114.781 562.679 114.662 562.499 114.529L562.394 115.35C562.567 115.477 562.777 115.583 563.027 115.668C563.278 115.753 563.553 115.814 563.85 115.852C564.317 115.912 564.724 115.886 565.069 115.772C565.414 115.659 565.689 115.47 565.894 115.205C566.099 114.937 566.227 114.604 566.278 114.207C566.325 113.842 566.287 113.525 566.164 113.255C566.042 112.982 565.849 112.763 565.587 112.598ZM570.865 115.04C570.983 114.687 571.072 114.283 571.131 113.825C571.209 113.213 571.207 112.681 571.123 112.229C571.042 111.775 570.873 111.415 570.616 111.148C570.362 110.879 570.015 110.717 569.576 110.66C569.111 110.601 568.723 110.669 568.411 110.865C568.1 111.061 567.853 111.37 567.67 111.79C567.491 112.208 567.362 112.722 567.283 113.331C567.205 113.941 567.206 114.473 567.287 114.927C567.368 115.378 567.536 115.739 567.79 116.008C568.045 116.274 568.391 116.435 568.827 116.491C569.176 116.536 569.481 116.508 569.744 116.408C570.006 116.308 570.229 116.142 570.414 115.911C570.599 115.68 570.749 115.39 570.865 115.04Z" fill="#59BB49"/>
</svg>
