<svg width="920" height="755" viewBox="0 0 920 755" fill="none" xmlns="http://www.w3.org/2000/svg">
<path d="M549 117.5L578 121.5L577 131L575.5 134L547 129.5L549 117.5ZM558.55 124.713C558.678 124.538 558.758 124.322 558.791 124.067C558.845 123.648 558.73 123.295 558.447 123.006C558.164 122.715 557.732 122.533 557.15 122.458C556.755 122.407 556.402 122.418 556.091 122.491C555.779 122.564 555.506 122.667 555.271 122.8L555.628 123.487C555.757 123.425 555.891 123.369 556.032 123.319C556.172 123.268 556.323 123.231 556.483 123.207C556.646 123.184 556.824 123.184 557.015 123.209C557.325 123.248 557.55 123.347 557.69 123.504C557.83 123.658 557.884 123.857 557.853 124.1C557.829 124.286 557.763 124.443 557.655 124.571C557.549 124.699 557.392 124.79 557.183 124.845C556.974 124.897 556.705 124.902 556.377 124.86L555.874 124.795L555.78 125.527L556.279 125.591C556.623 125.635 556.899 125.704 557.108 125.796C557.319 125.889 557.468 126.006 557.555 126.149C557.644 126.292 557.676 126.464 557.65 126.665C557.61 126.978 557.478 127.21 557.253 127.363C557.029 127.512 556.681 127.557 556.208 127.496C555.965 127.465 555.713 127.4 555.45 127.3C555.187 127.201 554.943 127.076 554.718 126.927L554.614 127.737C554.835 127.875 555.073 127.986 555.327 128.068C555.585 128.151 555.867 128.212 556.174 128.252C556.686 128.318 557.114 128.298 557.458 128.192C557.802 128.087 558.07 127.916 558.26 127.681C558.451 127.443 558.567 127.16 558.609 126.832C558.657 126.457 558.58 126.141 558.376 125.884C558.176 125.627 557.853 125.442 557.408 125.327L557.412 125.3C557.653 125.278 557.871 125.219 558.065 125.123C558.261 125.025 558.423 124.889 558.55 124.713ZM562.587 125.598C562.327 125.43 562.015 125.323 561.651 125.277C561.46 125.252 561.299 125.242 561.167 125.246C561.035 125.248 560.922 125.253 560.826 125.261L561.131 123.867L563.274 124.142L563.377 123.34L560.432 122.962L559.863 125.705L560.232 125.992C560.352 125.976 560.501 125.967 560.677 125.963C560.856 125.957 561.023 125.964 561.178 125.984C561.62 126.041 561.933 126.171 562.117 126.376C562.303 126.579 562.376 126.843 562.334 127.168C562.302 127.414 562.225 127.61 562.101 127.757C561.98 127.904 561.82 128.004 561.621 128.057C561.423 128.111 561.192 128.12 560.928 128.086C560.68 128.055 560.425 127.988 560.162 127.886C559.9 127.781 559.679 127.662 559.499 127.529L559.394 128.35C559.567 128.477 559.777 128.583 560.027 128.668C560.278 128.753 560.553 128.814 560.85 128.852C561.317 128.912 561.724 128.886 562.069 128.772C562.414 128.659 562.689 128.47 562.894 128.205C563.099 127.937 563.227 127.604 563.278 127.207C563.325 126.842 563.287 126.525 563.164 126.255C563.042 125.982 562.849 125.763 562.587 125.598ZM565.694 129.395L566.608 129.513L567.335 123.848L566.576 123.751L564.725 124.852L565.108 125.488L565.826 125.053C565.923 124.989 566.015 124.927 566.102 124.867C566.191 124.808 566.266 124.752 566.328 124.7C566.307 124.805 566.286 124.915 566.266 125.03L566.212 125.386C566.194 125.507 566.177 125.628 566.162 125.749L565.694 129.395Z" fill="#59BB49"/>
</svg>
