<svg width="920" height="755" viewBox="0 0 920 755" fill="none" xmlns="http://www.w3.org/2000/svg">
<path d="M547 130L575 134.5L569 146L545 142L547 130ZM555.55 136.713C555.678 136.538 555.758 136.322 555.791 136.067C555.845 135.648 555.73 135.295 555.447 135.006C555.164 134.715 554.732 134.533 554.15 134.458C553.755 134.407 553.402 134.418 553.091 134.491C552.779 134.564 552.506 134.667 552.271 134.8L552.628 135.487C552.757 135.425 552.891 135.369 553.032 135.319C553.172 135.268 553.323 135.231 553.483 135.207C553.646 135.184 553.824 135.184 554.015 135.209C554.325 135.248 554.55 135.347 554.69 135.504C554.83 135.658 554.884 135.857 554.853 136.1C554.829 136.286 554.763 136.443 554.655 136.571C554.549 136.699 554.392 136.79 554.183 136.845C553.974 136.897 553.705 136.902 553.377 136.86L552.874 136.795L552.78 137.527L553.279 137.591C553.623 137.635 553.899 137.704 554.108 137.796C554.319 137.889 554.468 138.006 554.555 138.149C554.644 138.292 554.676 138.464 554.65 138.665C554.61 138.978 554.478 139.21 554.253 139.363C554.029 139.512 553.681 139.557 553.208 139.496C552.965 139.465 552.713 139.4 552.45 139.3C552.187 139.201 551.943 139.076 551.718 138.927L551.614 139.737C551.835 139.875 552.073 139.986 552.327 140.068C552.585 140.151 552.867 140.212 553.174 140.252C553.686 140.318 554.114 140.298 554.458 140.192C554.802 140.087 555.07 139.916 555.26 139.681C555.451 139.443 555.567 139.16 555.609 138.832C555.657 138.457 555.58 138.141 555.376 137.884C555.176 137.627 554.853 137.442 554.408 137.327L554.412 137.3C554.653 137.278 554.871 137.219 555.065 137.123C555.261 137.025 555.423 136.889 555.55 136.713ZM559.587 137.598C559.327 137.43 559.015 137.323 558.651 137.277C558.46 137.252 558.299 137.242 558.167 137.246C558.035 137.248 557.922 137.253 557.826 137.261L558.131 135.867L560.274 136.142L560.377 135.34L557.432 134.962L556.863 137.705L557.232 137.992C557.352 137.976 557.501 137.967 557.677 137.963C557.856 137.957 558.023 137.964 558.178 137.984C558.62 138.041 558.933 138.171 559.117 138.376C559.303 138.579 559.376 138.843 559.334 139.168C559.302 139.414 559.225 139.61 559.101 139.757C558.98 139.904 558.82 140.004 558.621 140.057C558.423 140.111 558.192 140.12 557.928 140.086C557.68 140.055 557.425 139.988 557.162 139.886C556.9 139.781 556.679 139.662 556.499 139.529L556.394 140.35C556.567 140.477 556.777 140.583 557.027 140.668C557.278 140.753 557.553 140.814 557.85 140.852C558.317 140.912 558.724 140.886 559.069 140.772C559.414 140.659 559.689 140.47 559.894 140.205C560.099 139.937 560.227 139.604 560.278 139.207C560.325 138.842 560.287 138.525 560.164 138.255C560.042 137.982 559.849 137.763 559.587 137.598ZM560.931 141.169L564.767 141.661L564.869 140.863L562.188 140.519L562.193 140.477L563.297 139.645C563.644 139.391 563.947 139.153 564.203 138.931C564.461 138.707 564.667 138.473 564.821 138.23C564.976 137.988 565.073 137.714 565.112 137.409C565.15 137.107 565.113 136.833 565.001 136.587C564.89 136.342 564.713 136.14 564.468 135.98C564.224 135.817 563.922 135.713 563.563 135.666C563.279 135.63 563.022 135.631 562.791 135.67C562.56 135.706 562.348 135.768 562.153 135.856C561.96 135.944 561.776 136.045 561.602 136.159L562.024 136.824C562.269 136.674 562.501 136.565 562.72 136.496C562.942 136.424 563.176 136.404 563.421 136.436C563.679 136.469 563.878 136.567 564.018 136.729C564.157 136.889 564.209 137.106 564.174 137.379C564.146 137.601 564.074 137.801 563.96 137.978C563.848 138.155 563.686 138.338 563.476 138.526C563.265 138.712 563 138.931 562.678 139.184L561.019 140.483L560.931 141.169Z" fill="#59BB49"/>
</svg>
