<svg width="920" height="755" viewBox="0 0 920 755" fill="none" xmlns="http://www.w3.org/2000/svg">
<path d="M545 142.5L568.5 146.5L566 159L543 155.5L545 142.5ZM552.55 149.713C552.678 149.538 552.758 149.322 552.791 149.067C552.845 148.648 552.73 148.295 552.447 148.006C552.164 147.715 551.732 147.533 551.15 147.458C550.755 147.407 550.402 147.418 550.091 147.491C549.779 147.564 549.506 147.667 549.271 147.8L549.628 148.487C549.757 148.425 549.891 148.369 550.032 148.319C550.172 148.268 550.323 148.231 550.483 148.207C550.646 148.184 550.824 148.184 551.015 148.209C551.325 148.248 551.55 148.347 551.69 148.504C551.83 148.658 551.884 148.857 551.853 149.1C551.829 149.286 551.763 149.443 551.655 149.571C551.549 149.699 551.392 149.79 551.183 149.845C550.974 149.897 550.705 149.902 550.377 149.86L549.874 149.795L549.78 150.527L550.279 150.591C550.623 150.635 550.899 150.704 551.108 150.796C551.319 150.889 551.468 151.006 551.555 151.149C551.644 151.292 551.676 151.464 551.65 151.665C551.61 151.978 551.478 152.21 551.253 152.363C551.029 152.512 550.681 152.557 550.208 152.496C549.965 152.465 549.713 152.4 549.45 152.3C549.187 152.201 548.943 152.076 548.718 151.927L548.614 152.737C548.835 152.875 549.073 152.986 549.327 153.068C549.585 153.151 549.867 153.212 550.174 153.252C550.686 153.318 551.114 153.298 551.458 153.192C551.802 153.087 552.07 152.916 552.26 152.681C552.451 152.443 552.567 152.16 552.609 151.832C552.657 151.457 552.58 151.141 552.376 150.884C552.176 150.627 551.853 150.442 551.408 150.327L551.412 150.3C551.653 150.278 551.871 150.219 552.065 150.123C552.261 150.025 552.423 149.889 552.55 149.713ZM556.587 150.598C556.327 150.43 556.015 150.323 555.651 150.277C555.46 150.252 555.299 150.242 555.167 150.246C555.035 150.248 554.922 150.253 554.826 150.261L555.131 148.867L557.274 149.142L557.377 148.34L554.432 147.962L553.863 150.705L554.232 150.992C554.352 150.976 554.501 150.967 554.677 150.963C554.856 150.957 555.023 150.964 555.178 150.984C555.62 151.041 555.933 151.171 556.117 151.376C556.303 151.579 556.376 151.843 556.334 152.168C556.302 152.414 556.225 152.61 556.101 152.757C555.98 152.904 555.82 153.004 555.621 153.057C555.423 153.111 555.192 153.12 554.928 153.086C554.68 153.055 554.425 152.988 554.162 152.886C553.9 152.781 553.679 152.662 553.499 152.529L553.394 153.35C553.567 153.477 553.777 153.583 554.027 153.668C554.278 153.753 554.553 153.814 554.85 153.852C555.317 153.912 555.724 153.886 556.069 153.772C556.414 153.659 556.689 153.47 556.894 153.205C557.099 152.937 557.227 152.604 557.278 152.207C557.325 151.842 557.287 151.525 557.164 151.255C557.042 150.982 556.849 150.763 556.587 150.598ZM561.87 150.91C561.998 150.734 562.078 150.519 562.111 150.263C562.164 149.845 562.05 149.491 561.766 149.203C561.483 148.912 561.051 148.729 560.47 148.655C560.075 148.604 559.722 148.615 559.41 148.688C559.099 148.761 558.826 148.864 558.591 148.996L558.948 149.684C559.077 149.622 559.211 149.565 559.351 149.515C559.492 149.465 559.642 149.428 559.803 149.404C559.966 149.38 560.143 149.381 560.334 149.405C560.644 149.445 560.869 149.543 561.009 149.7C561.15 149.855 561.204 150.054 561.173 150.296C561.149 150.482 561.083 150.639 560.975 150.767C560.869 150.895 560.712 150.987 560.502 151.041C560.294 151.093 560.025 151.098 559.697 151.056L559.193 150.991L559.099 151.724L559.599 151.788C559.943 151.832 560.219 151.9 560.428 151.993C560.639 152.085 560.788 152.203 560.875 152.345C560.964 152.488 560.996 152.66 560.97 152.862C560.93 153.174 560.797 153.407 560.573 153.559C560.349 153.709 560.001 153.753 559.528 153.693C559.285 153.662 559.032 153.596 558.769 153.497C558.506 153.397 558.263 153.273 558.038 153.123L557.934 153.933C558.155 154.072 558.393 154.182 558.647 154.265C558.904 154.348 559.187 154.409 559.494 154.448C560.005 154.514 560.433 154.494 560.778 154.389C561.122 154.283 561.389 154.113 561.58 153.877C561.77 153.639 561.887 153.356 561.929 153.028C561.977 152.654 561.9 152.338 561.696 152.081C561.496 151.824 561.173 151.638 560.728 151.523L560.732 151.496C560.973 151.475 561.191 151.416 561.384 151.32C561.581 151.222 561.743 151.085 561.87 150.91Z" fill="#59BB49"/>
</svg>
