<svg width="920" height="755" viewBox="0 0 920 755" fill="none" xmlns="http://www.w3.org/2000/svg">
<path d="M557.743 165.068L557.563 166.475L555.831 166.252L557.485 164.409C557.565 164.317 557.642 164.222 557.715 164.123C557.788 164.023 557.856 163.924 557.918 163.827L557.949 163.831C557.939 163.892 557.925 163.971 557.907 164.065C557.89 164.158 557.872 164.259 557.853 164.37C557.833 164.48 557.813 164.595 557.792 164.716C557.774 164.835 557.758 164.952 557.743 165.068Z" fill="#59BB49"/>
<path d="M543 156L566 159.5L564 174L541 170L543 156ZM549.55 163.713C549.678 163.538 549.758 163.322 549.791 163.067C549.845 162.648 549.73 162.295 549.447 162.006C549.164 161.715 548.732 161.533 548.15 161.458C547.755 161.407 547.402 161.418 547.091 161.491C546.779 161.564 546.506 161.667 546.271 161.8L546.628 162.487C546.757 162.425 546.891 162.369 547.032 162.319C547.172 162.268 547.323 162.231 547.483 162.207C547.646 162.184 547.824 162.184 548.015 162.209C548.325 162.248 548.55 162.347 548.69 162.504C548.83 162.658 548.884 162.857 548.853 163.1C548.829 163.286 548.763 163.443 548.655 163.571C548.549 163.699 548.392 163.79 548.183 163.845C547.974 163.897 547.705 163.902 547.377 163.86L546.874 163.795L546.78 164.527L547.279 164.591C547.623 164.635 547.899 164.704 548.108 164.796C548.319 164.889 548.468 165.006 548.555 165.149C548.644 165.292 548.676 165.464 548.65 165.665C548.61 165.978 548.478 166.21 548.253 166.363C548.029 166.512 547.681 166.557 547.208 166.496C546.965 166.465 546.713 166.4 546.45 166.3C546.187 166.201 545.943 166.076 545.718 165.927L545.614 166.737C545.835 166.875 546.073 166.986 546.327 167.068C546.585 167.151 546.867 167.212 547.174 167.252C547.686 167.318 548.114 167.298 548.458 167.192C548.802 167.087 549.07 166.916 549.26 166.681C549.451 166.443 549.567 166.16 549.609 165.832C549.657 165.457 549.58 165.141 549.376 164.884C549.176 164.627 548.853 164.442 548.408 164.327L548.412 164.3C548.653 164.278 548.871 164.219 549.065 164.123C549.261 164.025 549.423 163.889 549.55 163.713ZM553.587 164.598C553.327 164.43 553.015 164.323 552.651 164.277C552.46 164.252 552.299 164.242 552.167 164.246C552.035 164.248 551.922 164.253 551.826 164.261L552.131 162.867L554.274 163.142L554.377 162.34L551.432 161.962L550.863 164.705L551.232 164.992C551.352 164.976 551.501 164.967 551.677 164.963C551.856 164.957 552.023 164.964 552.178 164.984C552.62 165.041 552.933 165.171 553.117 165.376C553.303 165.579 553.376 165.843 553.334 166.168C553.302 166.414 553.225 166.61 553.101 166.757C552.98 166.904 552.82 167.004 552.621 167.057C552.423 167.111 552.192 167.12 551.928 167.086C551.68 167.055 551.425 166.988 551.162 166.886C550.9 166.781 550.679 166.662 550.499 166.529L550.394 167.35C550.567 167.477 550.777 167.583 551.027 167.668C551.278 167.753 551.553 167.814 551.85 167.852C552.317 167.912 552.724 167.886 553.069 167.772C553.414 167.659 553.689 167.47 553.894 167.205C554.099 166.937 554.227 166.604 554.278 166.207C554.325 165.842 554.287 165.525 554.164 165.255C554.042 164.982 553.849 164.763 553.587 164.598ZM558.364 167.346L559.132 167.444L559.229 166.689L558.461 166.59L558.934 162.909L558.047 162.795L554.978 166.21L554.889 166.899L557.466 167.23L557.306 168.474L558.205 168.589L558.364 167.346Z" fill="#59BB49"/>
</svg>
