<svg width="920" height="755" viewBox="0 0 920 755" fill="none" xmlns="http://www.w3.org/2000/svg">
<path fill-rule="evenodd" clip-rule="evenodd" d="M534.5 24.5L556 27.5L554 40L532.5 37L534.5 24.5ZM540.851 31.96C540.589 31.7968 540.276 31.6946 539.911 31.6534C539.719 31.6318 539.558 31.6241 539.426 31.6302C539.295 31.6337 539.181 31.6405 539.086 31.6507L539.369 30.2518L541.516 30.494L541.606 29.6905L538.656 29.3577L538.13 32.1089L538.503 32.3908C538.623 32.3729 538.771 32.3608 538.947 32.3545C539.126 32.3459 539.294 32.3503 539.449 32.3679C539.891 32.4178 540.206 32.5437 540.393 32.7456C540.583 32.9452 540.659 33.2081 540.622 33.5341C540.595 33.78 540.52 33.9773 540.398 34.126C540.279 34.2751 540.121 34.3778 539.923 34.4341C539.726 34.4904 539.495 34.5037 539.231 34.4739C538.983 34.4459 538.726 34.3829 538.462 34.2849C538.198 34.1844 537.975 34.0688 537.794 33.9383L537.701 34.7612C537.875 34.8857 538.088 34.9883 538.338 35.0689C538.591 35.1499 538.866 35.2072 539.164 35.2408C539.632 35.2936 540.038 35.2608 540.382 35.1423C540.726 35.0238 540.998 34.8305 541.198 34.5622C541.399 34.2914 541.522 33.9567 541.567 33.5582C541.608 33.1933 541.565 32.8766 541.438 32.6081C541.312 32.337 541.116 32.1209 540.851 31.96ZM544.016 35.7096L544.932 35.813L545.572 30.1381L544.812 30.0522L542.978 31.1819L543.371 31.8119L544.082 31.3654C544.178 31.3002 544.269 31.2371 544.355 31.176C544.443 31.1152 544.517 31.0581 544.578 31.0047C544.559 31.1099 544.54 31.2205 544.521 31.3363L544.473 31.6926C544.457 31.8139 544.442 31.9354 544.428 32.057L544.016 35.7096ZM546.918 36.0371L550.761 36.4707L550.851 35.6711L548.165 35.368L548.17 35.3253L549.26 34.4774C549.604 34.2174 549.903 33.9746 550.156 33.749C550.41 33.5208 550.612 33.2842 550.763 33.0391C550.914 32.7941 551.007 32.5189 551.041 32.2135C551.075 31.9108 551.034 31.6375 550.917 31.3937C550.803 31.1502 550.623 30.9503 550.376 30.794C550.129 30.6352 549.826 30.5354 549.466 30.4948C549.181 30.4627 548.924 30.4678 548.694 30.5099C548.464 30.5495 548.252 30.6147 548.059 30.7055C547.867 30.7967 547.685 30.9006 547.512 31.0174L547.945 31.6755C548.188 31.5221 548.418 31.4092 548.636 31.3368C548.857 31.2621 549.09 31.2386 549.336 31.2664C549.595 31.2956 549.795 31.3902 549.937 31.5504C550.079 31.7079 550.134 31.9238 550.103 32.1981C550.078 32.4207 550.01 32.6213 549.898 32.8C549.788 32.979 549.63 33.1642 549.422 33.3556C549.215 33.5445 548.953 33.7678 548.635 34.0255L546.996 35.3501L546.918 36.0371Z" fill="#59BB49"/>
</svg>
