<svg width="920" height="755" viewBox="0 0 920 755" fill="none" xmlns="http://www.w3.org/2000/svg">
<path d="M532.5 37.5L554 40.5L552 53.5L530.5 50.5L532.5 37.5ZM538.851 44.96C538.589 44.7968 538.276 44.6946 537.911 44.6534C537.719 44.6318 537.558 44.6241 537.426 44.6302C537.295 44.6337 537.181 44.6405 537.086 44.6507L537.369 43.2518L539.516 43.494L539.606 42.6905L536.656 42.3577L536.13 45.1089L536.503 45.3908C536.623 45.3729 536.771 45.3608 536.947 45.3545C537.126 45.3459 537.294 45.3503 537.449 45.3679C537.891 45.4178 538.206 45.5437 538.393 45.7456C538.583 45.9452 538.659 46.2081 538.622 46.5341C538.595 46.78 538.52 46.9773 538.398 47.126C538.279 47.2751 538.121 47.3778 537.923 47.4341C537.726 47.4904 537.495 47.5037 537.231 47.4739C536.983 47.4459 536.726 47.3829 536.462 47.2849C536.198 47.1844 535.975 47.0688 535.794 46.9383L535.701 47.7612C535.875 47.8857 536.088 47.9883 536.338 48.0689C536.591 48.1499 536.866 48.2072 537.164 48.2408C537.632 48.2936 538.038 48.2608 538.382 48.1423C538.726 48.0238 538.998 47.8305 539.198 47.5622C539.399 47.2914 539.522 46.9567 539.567 46.5582C539.608 46.1933 539.565 45.8766 539.438 45.6081C539.312 45.337 539.116 45.1209 538.851 44.96ZM542.016 48.7096L542.932 48.813L543.572 43.1381L542.812 43.0522L540.978 44.1819L541.371 44.8119L542.082 44.3654C542.178 44.3002 542.269 44.2371 542.355 44.176C542.443 44.1152 542.517 44.0581 542.578 44.0047C542.559 44.1099 542.54 44.2205 542.521 44.3363L542.473 44.6926C542.457 44.8139 542.442 44.9354 542.428 45.057L542.016 48.7096ZM548.807 45.7178C548.932 45.5406 549.009 45.3239 549.038 45.0677C549.085 44.6485 548.965 44.2969 548.677 44.0128C548.39 43.7262 547.955 43.55 547.373 43.4843C546.977 43.4397 546.624 43.4562 546.314 43.5339C546.004 43.6116 545.732 43.7185 545.499 43.8547L545.866 44.5369C545.994 44.4727 546.128 44.4144 546.267 44.362C546.407 44.3096 546.557 44.2702 546.717 44.2437C546.88 44.2175 547.057 44.2153 547.249 44.2369C547.559 44.2719 547.786 44.3669 547.928 44.5219C548.071 44.6742 548.128 44.8721 548.101 45.1153C548.08 45.3016 548.016 45.4595 547.91 45.5891C547.806 45.7189 547.65 45.8126 547.442 45.8704C547.234 45.9255 546.965 45.9346 546.637 45.8975L546.132 45.8405L546.049 46.5742L546.55 46.6307C546.894 46.6695 547.171 46.7335 547.381 46.8228C547.594 46.9123 547.745 47.0276 547.834 47.1686C547.925 47.31 547.96 47.4816 547.937 47.6834C547.902 47.9965 547.773 48.231 547.551 48.3868C547.329 48.54 546.982 48.5898 546.508 48.5364C546.265 48.509 546.011 48.4476 545.746 48.3522C545.482 48.2568 545.236 48.1361 545.009 47.9899L544.917 48.8011C545.141 48.9364 545.38 49.0434 545.636 49.122C545.894 49.201 546.178 49.2578 546.486 49.2926C546.998 49.3504 547.425 49.3239 547.768 49.2132C548.111 49.1025 548.376 48.928 548.562 48.6896C548.749 48.4486 548.861 48.1638 548.899 47.8352C548.941 47.46 548.858 47.1453 548.651 46.8913C548.447 46.6376 548.121 46.4568 547.675 46.3487L547.678 46.3216C547.919 46.2964 548.136 46.2343 548.328 46.1355C548.523 46.0343 548.682 45.8951 548.807 45.7178Z" fill="#59BB49"/>
</svg>
