<svg width="920" height="755" viewBox="0 0 920 755" fill="none" xmlns="http://www.w3.org/2000/svg">
<path d="M545.683 58.8937L545.524 60.3027L543.789 60.1069L545.415 58.2384C545.493 58.145 545.568 58.0487 545.64 57.9493C545.712 57.8473 545.778 57.7474 545.839 57.6494L545.87 57.6529C545.86 57.7147 545.848 57.7932 545.832 57.8884C545.816 57.9809 545.799 58.0826 545.781 58.1933C545.764 58.304 545.745 58.4198 545.727 58.5409C545.711 58.6596 545.696 58.7772 545.683 58.8937Z" fill="#59BB49"/>
<path d="M530.5 51L552 54L550 66.5L528.5 63.5L530.5 51ZM536.851 57.96C536.589 57.7968 536.276 57.6946 535.911 57.6534C535.719 57.6318 535.558 57.6241 535.426 57.6302C535.295 57.6337 535.181 57.6405 535.086 57.6507L535.369 56.2518L537.516 56.494L537.606 55.6905L534.656 55.3577L534.13 58.1089L534.503 58.3908C534.623 58.3729 534.771 58.3608 534.947 58.3545C535.126 58.3459 535.294 58.3503 535.449 58.3679C535.891 58.4178 536.206 58.5437 536.393 58.7456C536.583 58.9452 536.659 59.2081 536.622 59.5341C536.595 59.78 536.52 59.9773 536.398 60.126C536.279 60.2751 536.121 60.3778 535.923 60.4341C535.726 60.4904 535.495 60.5037 535.231 60.4739C534.983 60.4459 534.726 60.3829 534.462 60.2849C534.198 60.1844 533.975 60.0688 533.794 59.9383L533.701 60.7612C533.875 60.8857 534.088 60.9883 534.338 61.0689C534.591 61.1499 534.866 61.2072 535.164 61.2408C535.632 61.2936 536.038 61.2608 536.382 61.1423C536.726 61.0238 536.998 60.8305 537.198 60.5622C537.399 60.2914 537.522 59.9567 537.567 59.5582C537.608 59.1933 537.565 58.8766 537.438 58.6081C537.312 58.337 537.116 58.1209 536.851 57.96ZM540.016 61.7096L540.932 61.813L541.572 56.1381L540.812 56.0522L538.978 57.1819L539.371 57.8119L540.082 57.3654C540.178 57.3002 540.269 57.2371 540.355 57.176C540.443 57.1152 540.517 57.0581 540.578 57.0047C540.559 57.1099 540.54 57.2205 540.521 57.3363L540.473 57.6926C540.457 57.8139 540.442 57.9354 540.428 58.057L540.016 61.7096ZM546.339 61.1612L547.107 61.2479L547.193 60.491L546.424 60.4043L546.84 56.7168L545.952 56.6165L542.935 60.0774L542.857 60.7683L545.438 61.0596L545.298 62.3056L546.198 62.4072L546.339 61.1612Z" fill="#59BB49"/>
</svg>
