<svg width="920" height="755" viewBox="0 0 920 755" fill="none" xmlns="http://www.w3.org/2000/svg">
<path d="M528.5 64L550 67L548 79L526.5 76L528.5 64ZM534.851 70.96C534.589 70.7968 534.276 70.6946 533.911 70.6534C533.719 70.6318 533.558 70.6241 533.426 70.6302C533.295 70.6337 533.181 70.6405 533.086 70.6507L533.369 69.2518L535.516 69.494L535.606 68.6905L532.656 68.3577L532.13 71.1089L532.503 71.3908C532.623 71.3729 532.771 71.3608 532.947 71.3545C533.126 71.3459 533.294 71.3503 533.449 71.3679C533.891 71.4178 534.206 71.5437 534.393 71.7456C534.583 71.9452 534.659 72.2081 534.622 72.5341C534.595 72.78 534.52 72.9773 534.398 73.126C534.279 73.2751 534.121 73.3778 533.923 73.4341C533.726 73.4904 533.495 73.5037 533.231 73.4739C532.983 73.4459 532.726 73.3829 532.462 73.2849C532.198 73.1844 531.975 73.0688 531.794 72.9383L531.701 73.7612C531.875 73.8857 532.088 73.9883 532.338 74.0689C532.591 74.1499 532.866 74.2072 533.164 74.2408C533.632 74.2936 534.038 74.2608 534.382 74.1423C534.726 74.0238 534.998 73.8305 535.198 73.5622C535.399 73.2914 535.522 72.9567 535.567 72.5582C535.608 72.1933 535.565 71.8766 535.438 71.6081C535.312 71.337 535.116 71.1209 534.851 70.96ZM538.016 74.7096L538.932 74.813L539.572 69.1381L538.812 69.0522L536.978 70.1819L537.371 70.8119L538.082 70.3654C538.178 70.3002 538.269 70.2371 538.355 70.176C538.443 70.1152 538.517 70.0581 538.578 70.0047C538.559 70.1099 538.54 70.2205 538.521 70.3363L538.473 70.6926C538.457 70.8139 538.442 70.9354 538.428 71.057L538.016 74.7096ZM544.188 72.0136C543.926 71.8504 543.613 71.7482 543.248 71.707C543.056 71.6854 542.895 71.6776 542.763 71.6837C542.632 71.6872 542.518 71.6941 542.423 71.7043L542.706 70.3054L544.853 70.5476L544.943 69.7441L541.993 69.4112L541.467 72.1625L541.84 72.4444C541.96 72.4265 542.108 72.4144 542.284 72.4081C542.463 72.3994 542.631 72.4039 542.786 72.4214C543.228 72.4714 543.543 72.5973 543.73 72.7992C543.92 72.9988 543.996 73.2616 543.959 73.5877C543.932 73.8335 543.857 74.0308 543.735 74.1796C543.616 74.3286 543.458 74.4313 543.26 74.4876C543.063 74.544 542.832 74.5572 542.568 74.5274C542.32 74.4994 542.063 74.4364 541.799 74.3385C541.535 74.238 541.312 74.1224 541.131 73.9918L541.038 74.8147C541.212 74.9393 541.425 75.0419 541.675 75.1225C541.928 75.2035 542.203 75.2607 542.501 75.2943C542.969 75.3472 543.375 75.3144 543.719 75.1959C544.063 75.0774 544.335 74.884 544.535 74.6158C544.736 74.3449 544.859 74.0103 544.904 73.6117C544.945 73.2469 544.902 72.9302 544.775 72.6616C544.649 72.3905 544.453 72.1745 544.188 72.0136Z" fill="#59BB49"/>
</svg>
