<svg width="920" height="755" viewBox="0 0 920 755" fill="none" xmlns="http://www.w3.org/2000/svg">
<path d="M541.725 87.3789C541.525 87.5502 541.277 87.6192 540.982 87.586C540.806 87.5661 540.656 87.5099 540.533 87.4174C540.41 87.3249 540.312 87.2102 540.238 87.0735C540.164 86.9342 540.114 86.7857 540.088 86.6281C540.061 86.4704 540.056 86.3166 540.073 86.1665C540.09 86.019 540.15 85.879 540.254 85.7466C540.361 85.6145 540.501 85.5111 540.674 85.4363C540.848 85.3616 541.043 85.3364 541.261 85.361C541.579 85.3969 541.806 85.5182 541.943 85.7249C542.082 85.9319 542.133 86.1972 542.097 86.5206C542.052 86.9192 541.928 87.2052 541.725 87.3789Z" fill="#59BB49"/>
<path d="M526.5 76.5L548 79.5L546 92.5L524.5 89.5L526.5 76.5ZM532.851 83.96C532.589 83.7968 532.276 83.6946 531.911 83.6534C531.719 83.6318 531.558 83.6241 531.426 83.6302C531.295 83.6337 531.181 83.6405 531.086 83.6507L531.369 82.2518L533.516 82.494L533.606 81.6905L530.656 81.3577L530.13 84.1089L530.503 84.3908C530.623 84.3729 530.771 84.3608 530.947 84.3545C531.126 84.3459 531.294 84.3503 531.449 84.3679C531.891 84.4178 532.206 84.5437 532.393 84.7456C532.583 84.9452 532.659 85.2081 532.622 85.5341C532.595 85.78 532.52 85.9773 532.398 86.126C532.279 86.2751 532.121 86.3778 531.923 86.4341C531.726 86.4904 531.495 86.5037 531.231 86.4739C530.983 86.4459 530.726 86.3829 530.462 86.2849C530.198 86.1844 529.975 86.0688 529.794 85.9383L529.701 86.7612C529.875 86.8857 530.088 86.9883 530.338 87.0689C530.591 87.1499 530.866 87.2072 531.164 87.2408C531.632 87.2936 532.038 87.2608 532.382 87.1423C532.726 87.0238 532.998 86.8305 533.198 86.5622C533.399 86.2914 533.522 85.9567 533.567 85.5582C533.608 85.1933 533.565 84.8766 533.438 84.6081C533.312 84.337 533.116 84.1209 532.851 83.96ZM536.016 87.7096L536.932 87.813L537.572 82.1381L536.812 82.0522L534.978 83.1819L535.371 83.8119L536.082 83.3654C536.178 83.3002 536.269 83.2371 536.355 83.176C536.443 83.1152 536.517 83.0581 536.578 83.0047C536.559 83.1099 536.54 83.2205 536.521 83.3363L536.473 83.6926C536.457 83.8139 536.442 83.9354 536.428 84.057L536.016 87.7096ZM539.38 84.6417C539.297 84.9599 539.237 85.2859 539.199 85.6197C539.152 86.0389 539.161 86.4108 539.226 86.7353C539.292 87.0572 539.404 87.3319 539.562 87.5594C539.72 87.7868 539.913 87.9659 540.142 88.0966C540.374 88.2275 540.63 88.3089 540.913 88.3407C541.296 88.384 541.634 88.3436 541.929 88.2195C542.226 88.0958 542.466 87.8975 542.648 87.6246C542.834 87.352 542.949 87.0152 542.994 86.6141C543.036 86.2414 543.005 85.9168 542.9 85.6403C542.797 85.364 542.631 85.1435 542.4 84.9786C542.17 84.8111 541.89 84.7087 541.559 84.6713C541.336 84.6462 541.137 84.6552 540.962 84.6983C540.787 84.7388 540.636 84.803 540.508 84.8908C540.38 84.9786 540.27 85.0828 540.178 85.2034L540.131 85.1981C540.194 84.7991 540.301 84.4507 540.449 84.153C540.599 83.8528 540.817 83.6284 541.103 83.4799C541.39 83.3288 541.772 83.2802 542.248 83.3339C542.367 83.3473 542.485 83.3685 542.602 83.3975C542.722 83.4267 542.831 83.4613 542.929 83.5011L543.014 82.7442C542.924 82.7104 542.808 82.6803 542.667 82.6539C542.526 82.6275 542.398 82.6079 542.284 82.595C541.844 82.5454 541.461 82.565 541.134 82.6539C540.807 82.7402 540.528 82.879 540.296 83.0705C540.068 83.2622 539.879 83.4925 539.731 83.7614C539.583 84.0303 539.466 84.3238 539.38 84.6417Z" fill="#59BB49"/>
</svg>
