<svg width="920" height="755" viewBox="0 0 920 755" fill="none" xmlns="http://www.w3.org/2000/svg">
<path d="M524.5 90L546 93L544 106L522.5 103L524.5 90ZM530.851 96.96C530.589 96.7968 530.276 96.6946 529.911 96.6534C529.719 96.6318 529.558 96.6241 529.426 96.6302C529.295 96.6337 529.181 96.6405 529.086 96.6507L529.369 95.2518L531.516 95.494L531.606 94.6905L528.656 94.3577L528.13 97.1089L528.503 97.3908C528.623 97.3729 528.771 97.3608 528.947 97.3545C529.126 97.3459 529.294 97.3503 529.449 97.3679C529.891 97.4178 530.206 97.5437 530.393 97.7456C530.583 97.9452 530.659 98.2081 530.622 98.5341C530.595 98.78 530.52 98.9773 530.398 99.126C530.279 99.2751 530.121 99.3778 529.923 99.4341C529.726 99.4904 529.495 99.5037 529.231 99.4739C528.983 99.4459 528.726 99.3829 528.462 99.2849C528.198 99.1844 527.975 99.0688 527.794 98.9383L527.701 99.7612C527.875 99.8857 528.088 99.9883 528.338 100.069C528.591 100.15 528.866 100.207 529.164 100.241C529.632 100.294 530.038 100.261 530.382 100.142C530.726 100.024 530.998 99.8305 531.198 99.5622C531.399 99.2914 531.522 98.9567 531.567 98.5582C531.608 98.1933 531.565 97.8766 531.438 97.6081C531.312 97.337 531.116 97.1209 530.851 96.96ZM534.016 100.71L534.932 100.813L535.572 95.1381L534.812 95.0522L532.978 96.1819L533.371 96.8119L534.082 96.3654C534.178 96.3002 534.269 96.2371 534.355 96.176C534.443 96.1152 534.517 96.0581 534.578 96.0047C534.559 96.1099 534.54 96.2205 534.521 96.3363L534.473 96.6926C534.457 96.8139 534.442 96.9354 534.428 97.057L534.016 100.71ZM540.345 96.4863L537.567 101.11L538.549 101.221L541.347 96.4225L541.417 95.7975L537.489 95.3543L537.399 96.1539L540.345 96.4863Z" fill="#59BB49"/>
</svg>
