<svg width="920" height="755" viewBox="0 0 920 755" fill="none" xmlns="http://www.w3.org/2000/svg">
<path d="M536.134 113.302C535.976 113.121 535.911 112.907 535.939 112.658C535.958 112.485 536.015 112.335 536.107 112.21C536.203 112.084 536.329 111.977 536.486 111.887C536.643 111.794 536.827 111.717 537.039 111.654L537.157 111.719C537.334 111.825 537.493 111.938 537.634 112.056C537.778 112.172 537.889 112.298 537.965 112.435C538.044 112.572 538.074 112.724 538.055 112.889C538.026 113.148 537.912 113.346 537.713 113.484C537.514 113.621 537.241 113.67 536.894 113.631C536.545 113.592 536.291 113.482 536.134 113.302Z" fill="#59BB49"/>
<path d="M536.752 109.318C536.929 109.213 537.143 109.174 537.394 109.202C537.653 109.231 537.855 109.317 538.002 109.459C538.151 109.599 538.213 109.783 538.187 110.011C538.169 110.177 538.114 110.315 538.023 110.425C537.934 110.533 537.821 110.622 537.682 110.693C537.546 110.762 537.395 110.822 537.229 110.874C537.074 110.783 536.934 110.689 536.809 110.591C536.684 110.49 536.588 110.377 536.521 110.252C536.456 110.126 536.433 109.982 536.452 109.819C536.478 109.589 536.578 109.422 536.752 109.318Z" fill="#59BB49"/>
<path d="M522.5 103.5L543.5 106.5L541.5 119L520.5 116L522.5 103.5ZM528.851 109.96C528.589 109.797 528.276 109.695 527.911 109.653C527.719 109.632 527.558 109.624 527.426 109.63C527.295 109.634 527.181 109.641 527.086 109.651L527.369 108.252L529.516 108.494L529.606 107.691L526.656 107.358L526.13 110.109L526.503 110.391C526.623 110.373 526.771 110.361 526.947 110.354C527.126 110.346 527.294 110.35 527.449 110.368C527.891 110.418 528.206 110.544 528.393 110.746C528.583 110.945 528.659 111.208 528.622 111.534C528.595 111.78 528.52 111.977 528.398 112.126C528.279 112.275 528.121 112.378 527.923 112.434C527.726 112.49 527.495 112.504 527.231 112.474C526.983 112.446 526.726 112.383 526.462 112.285C526.198 112.184 525.975 112.069 525.794 111.938L525.701 112.761C525.875 112.886 526.088 112.988 526.338 113.069C526.591 113.15 526.866 113.207 527.164 113.241C527.632 113.294 528.038 113.261 528.382 113.142C528.726 113.024 528.998 112.83 529.198 112.562C529.399 112.291 529.522 111.957 529.567 111.558C529.608 111.193 529.565 110.877 529.438 110.608C529.312 110.337 529.116 110.121 528.851 109.96ZM532.016 113.71L532.932 113.813L533.572 108.138L532.812 108.052L530.978 109.182L531.371 109.812L532.082 109.365C532.178 109.3 532.269 109.237 532.355 109.176C532.443 109.115 532.517 109.058 532.578 109.005C532.559 109.11 532.54 109.22 532.521 109.336L532.473 109.693C532.457 109.814 532.442 109.935 532.428 110.057L532.016 113.71ZM538.352 108.756C538.1 108.623 537.81 108.538 537.481 108.5C537.16 108.464 536.861 108.483 536.582 108.556C536.307 108.63 536.079 108.759 535.898 108.943C535.718 109.124 535.611 109.363 535.578 109.658C535.552 109.888 535.571 110.096 535.637 110.281C535.705 110.465 535.806 110.632 535.938 110.783C536.071 110.932 536.22 111.069 536.387 111.196C536.166 111.268 535.96 111.364 535.769 111.484C535.58 111.604 535.422 111.754 535.297 111.934C535.172 112.113 535.095 112.334 535.065 112.595C535.03 112.911 535.074 113.191 535.198 113.436C535.323 113.678 535.524 113.876 535.8 114.03C536.076 114.185 536.42 114.285 536.831 114.332C537.214 114.375 537.556 114.35 537.857 114.259C538.159 114.164 538.403 114.011 538.589 113.799C538.779 113.584 538.891 113.318 538.927 113C538.956 112.746 538.923 112.518 538.827 112.316C538.735 112.114 538.602 111.933 538.429 111.772C538.259 111.609 538.068 111.46 537.858 111.326C538.068 111.25 538.261 111.158 538.436 111.049C538.611 110.938 538.754 110.802 538.867 110.642C538.982 110.482 539.052 110.287 539.078 110.057C539.112 109.759 539.063 109.501 538.93 109.281C538.798 109.062 538.605 108.887 538.352 108.756Z" fill="#59BB49"/>
</svg>
