<svg width="920" height="755" viewBox="0 0 920 755" fill="none" xmlns="http://www.w3.org/2000/svg">
<path d="M534.594 122.462C534.797 122.288 535.042 122.218 535.33 122.25C535.508 122.27 535.659 122.328 535.782 122.423C535.908 122.516 536.007 122.63 536.081 122.767C536.155 122.904 536.204 123.051 536.228 123.208C536.255 123.366 536.259 123.521 536.242 123.674C536.226 123.821 536.164 123.961 536.057 124.093C535.953 124.226 535.814 124.329 535.641 124.404C535.47 124.476 535.274 124.5 535.051 124.475C534.73 124.439 534.503 124.317 534.369 124.111C534.235 123.905 534.186 123.64 534.223 123.316C534.268 122.918 534.392 122.633 534.594 122.462Z" fill="#59BB49"/>
<path d="M520.5 116.5L541.5 119.5L539.5 131L518.5 128L520.5 116.5ZM526.851 122.96C526.589 122.797 526.276 122.695 525.911 122.653C525.719 122.632 525.558 122.624 525.426 122.63C525.295 122.634 525.181 122.641 525.086 122.651L525.369 121.252L527.516 121.494L527.606 120.691L524.656 120.358L524.13 123.109L524.503 123.391C524.623 123.373 524.771 123.361 524.947 123.354C525.126 123.346 525.294 123.35 525.449 123.368C525.891 123.418 526.206 123.544 526.393 123.746C526.583 123.945 526.659 124.208 526.622 124.534C526.595 124.78 526.52 124.977 526.398 125.126C526.279 125.275 526.121 125.378 525.923 125.434C525.726 125.49 525.495 125.504 525.231 125.474C524.983 125.446 524.726 125.383 524.462 125.285C524.198 125.184 523.975 125.069 523.794 124.938L523.701 125.761C523.875 125.886 524.088 125.988 524.338 126.069C524.591 126.15 524.866 126.207 525.164 126.241C525.632 126.294 526.038 126.261 526.382 126.142C526.726 126.024 526.998 125.83 527.198 125.562C527.399 125.291 527.522 124.957 527.567 124.558C527.608 124.193 527.565 123.877 527.438 123.608C527.312 123.337 527.116 123.121 526.851 122.96ZM530.016 126.71L530.932 126.813L531.572 121.138L530.812 121.052L528.978 122.182L529.371 122.812L530.082 122.365C530.178 122.3 530.269 122.237 530.355 122.176C530.443 122.115 530.517 122.058 530.578 122.005C530.559 122.11 530.54 122.22 530.521 122.336L530.473 122.693C530.457 122.814 530.442 122.935 530.428 123.057L530.016 126.71ZM536.935 125.195C537.021 124.877 537.083 124.55 537.121 124.213C537.168 123.797 537.158 123.427 537.093 123.105C537.027 122.781 536.915 122.505 536.758 122.277C536.6 122.047 536.405 121.868 536.173 121.74C535.945 121.609 535.688 121.528 535.403 121.496C535.025 121.453 534.688 121.495 534.39 121.621C534.093 121.745 533.852 121.943 533.667 122.216C533.481 122.488 533.366 122.825 533.321 123.226C533.279 123.596 533.309 123.921 533.412 124.2C533.517 124.476 533.682 124.696 533.907 124.861C534.135 125.025 534.412 125.126 534.738 125.163C534.978 125.19 535.186 125.183 535.361 125.143C535.536 125.1 535.686 125.034 535.812 124.946C535.937 124.855 536.045 124.752 536.134 124.636L536.18 124.642C536.12 125.038 536.015 125.387 535.866 125.687C535.719 125.988 535.501 126.212 535.212 126.36C534.925 126.509 534.542 126.556 534.064 126.502C533.942 126.488 533.82 126.467 533.698 126.437C533.578 126.405 533.471 126.37 533.376 126.33L533.29 127.091C533.381 127.122 533.498 127.151 533.642 127.178C533.788 127.207 533.916 127.228 534.028 127.241C534.47 127.291 534.855 127.273 535.182 127.186C535.508 127.1 535.786 126.961 536.015 126.769C536.246 126.575 536.436 126.344 536.585 126.075C536.735 125.806 536.852 125.513 536.935 125.195Z" fill="#59BB49"/>
</svg>
