<svg width="920" height="755" viewBox="0 0 920 755" fill="none" xmlns="http://www.w3.org/2000/svg">
<path d="M532.105 137.508C532.079 137.18 532.093 136.777 532.147 136.298C532.201 135.822 532.277 135.427 532.375 135.113C532.476 134.8 532.608 134.571 532.771 134.427C532.937 134.28 533.144 134.221 533.393 134.249C533.641 134.277 533.83 134.381 533.959 134.561C534.088 134.738 534.167 134.99 534.196 135.319C534.224 135.647 534.212 136.049 534.158 136.525C534.104 137.006 534.025 137.404 533.921 137.717C533.82 138.031 533.687 138.258 533.522 138.399C533.357 138.54 533.151 138.597 532.905 138.569C532.659 138.542 532.472 138.441 532.342 138.266C532.213 138.089 532.134 137.836 532.105 137.508Z" fill="#59BB49"/>
<path d="M518.5 128.5L539.5 131.5L537.5 144L516.5 141L518.5 128.5ZM524.851 134.96C524.589 134.797 524.276 134.695 523.911 134.653C523.719 134.632 523.558 134.624 523.426 134.63C523.295 134.634 523.181 134.641 523.086 134.651L523.369 133.252L525.516 133.494L525.606 132.691L522.656 132.358L522.13 135.109L522.503 135.391C522.623 135.373 522.771 135.361 522.947 135.354C523.126 135.346 523.294 135.35 523.449 135.368C523.891 135.418 524.206 135.544 524.393 135.746C524.583 135.945 524.659 136.208 524.622 136.534C524.595 136.78 524.52 136.977 524.398 137.126C524.279 137.275 524.121 137.378 523.923 137.434C523.726 137.49 523.495 137.504 523.231 137.474C522.983 137.446 522.726 137.383 522.462 137.285C522.198 137.184 521.975 137.069 521.794 136.938L521.701 137.761C521.875 137.886 522.088 137.988 522.338 138.069C522.591 138.15 522.866 138.207 523.164 138.241C523.632 138.294 524.038 138.261 524.382 138.142C524.726 138.024 524.998 137.83 525.198 137.562C525.399 137.291 525.522 136.957 525.567 136.558C525.608 136.193 525.565 135.877 525.438 135.608C525.312 135.337 525.116 135.121 524.851 134.96ZM526.25 138.51L530.093 138.944L530.183 138.144L527.497 137.841L527.502 137.799L528.592 136.951C528.936 136.691 529.234 136.448 529.488 136.222C529.742 135.994 529.944 135.757 530.095 135.512C530.245 135.267 530.338 134.992 530.373 134.687C530.407 134.384 530.365 134.111 530.249 133.867C530.135 133.623 529.954 133.424 529.707 133.267C529.46 133.108 529.157 133.009 528.798 132.968C528.513 132.936 528.255 132.941 528.025 132.983C527.795 133.023 527.584 133.088 527.39 133.179C527.199 133.27 527.017 133.374 526.844 133.491L527.277 134.149C527.519 133.995 527.75 133.882 527.967 133.81C528.188 133.735 528.421 133.712 528.667 133.74C528.926 133.769 529.126 133.863 529.268 134.024C529.41 134.181 529.466 134.397 529.435 134.671C529.41 134.894 529.341 135.095 529.229 135.273C529.12 135.452 528.961 135.637 528.754 135.829C528.546 136.018 528.284 136.241 527.967 136.499L526.327 137.823L526.25 138.51ZM534.834 137.848C534.948 137.493 535.03 137.087 535.082 136.629C535.151 136.016 535.14 135.484 535.05 135.034C534.962 134.581 534.787 134.223 534.526 133.96C534.268 133.695 533.918 133.538 533.479 133.488C533.013 133.436 532.626 133.51 532.317 133.711C532.009 133.912 531.767 134.224 531.591 134.647C531.417 135.068 531.296 135.584 531.227 136.194C531.158 136.805 531.168 137.337 531.256 137.79C531.344 138.24 531.517 138.598 531.775 138.863C532.034 139.125 532.382 139.281 532.819 139.33C533.169 139.37 533.474 139.337 533.734 139.233C533.995 139.129 534.216 138.96 534.397 138.726C534.578 138.492 534.724 138.199 534.834 137.848Z" fill="#59BB49"/>
</svg>
