<svg width="920" height="755" viewBox="0 0 920 755" fill="none" xmlns="http://www.w3.org/2000/svg">
<path d="M516.5 141.5L537.5 144.5L535.5 157L514.5 154L516.5 141.5ZM522.851 147.96C522.589 147.797 522.276 147.695 521.911 147.653C521.719 147.632 521.558 147.624 521.426 147.63C521.295 147.634 521.181 147.641 521.086 147.651L521.369 146.252L523.516 146.494L523.606 145.691L520.656 145.358L520.13 148.109L520.503 148.391C520.623 148.373 520.771 148.361 520.947 148.354C521.126 148.346 521.294 148.35 521.449 148.368C521.891 148.418 522.206 148.544 522.393 148.746C522.583 148.945 522.659 149.208 522.622 149.534C522.595 149.78 522.52 149.977 522.398 150.126C522.279 150.275 522.121 150.378 521.923 150.434C521.726 150.49 521.495 150.504 521.231 150.474C520.983 150.446 520.726 150.383 520.462 150.285C520.198 150.184 519.975 150.069 519.794 149.938L519.701 150.761C519.875 150.886 520.088 150.988 520.338 151.069C520.591 151.15 520.866 151.207 521.164 151.241C521.632 151.294 522.038 151.261 522.382 151.142C522.726 151.024 522.998 150.83 523.198 150.562C523.399 150.291 523.522 149.957 523.567 149.558C523.608 149.193 523.565 148.877 523.438 148.608C523.312 148.337 523.116 148.121 522.851 147.96ZM524.25 151.51L528.093 151.944L528.183 151.144L525.497 150.841L525.502 150.799L526.592 149.951C526.936 149.691 527.234 149.448 527.488 149.222C527.742 148.994 527.944 148.757 528.095 148.512C528.245 148.267 528.338 147.992 528.373 147.687C528.407 147.384 528.365 147.111 528.249 146.867C528.135 146.623 527.954 146.424 527.707 146.267C527.46 146.108 527.157 146.009 526.798 145.968C526.513 145.936 526.255 145.941 526.025 145.983C525.795 146.023 525.584 146.088 525.39 146.179C525.199 146.27 525.017 146.374 524.844 146.491L525.277 147.149C525.519 146.995 525.75 146.882 525.967 146.81C526.188 146.735 526.421 146.712 526.667 146.74C526.926 146.769 527.126 146.863 527.268 147.024C527.41 147.181 527.466 147.397 527.435 147.671C527.41 147.894 527.341 148.095 527.229 148.273C527.12 148.452 526.961 148.637 526.754 148.829C526.546 149.018 526.284 149.241 525.967 149.499L524.327 150.823L524.25 151.51ZM530.685 152.236L531.601 152.34L532.241 146.665L531.48 146.579L529.647 147.709L530.039 148.339L530.75 147.892C530.847 147.827 530.938 147.764 531.023 147.703C531.111 147.642 531.186 147.585 531.247 147.531C531.227 147.637 531.208 147.747 531.19 147.863L531.142 148.219C531.125 148.341 531.11 148.462 531.097 148.584L530.685 152.236Z" fill="#59BB49"/>
</svg>
