<svg width="920" height="755" viewBox="0 0 920 755" fill="none" xmlns="http://www.w3.org/2000/svg">
<path d="M514.5 154.5L535 157.5L533.5 170L512.5 167.5L514.5 154.5ZM520.851 160.96C520.589 160.797 520.276 160.695 519.911 160.653C519.719 160.632 519.558 160.624 519.426 160.63C519.295 160.634 519.181 160.641 519.086 160.651L519.369 159.252L521.516 159.494L521.606 158.691L518.656 158.358L518.13 161.109L518.503 161.391C518.623 161.373 518.771 161.361 518.947 161.354C519.126 161.346 519.294 161.35 519.449 161.368C519.891 161.418 520.206 161.544 520.393 161.746C520.583 161.945 520.659 162.208 520.622 162.534C520.595 162.78 520.52 162.977 520.398 163.126C520.279 163.275 520.121 163.378 519.923 163.434C519.726 163.49 519.495 163.504 519.231 163.474C518.983 163.446 518.726 163.383 518.462 163.285C518.198 163.184 517.975 163.069 517.794 162.938L517.701 163.761C517.875 163.886 518.088 163.988 518.338 164.069C518.591 164.15 518.866 164.207 519.164 164.241C519.632 164.294 520.038 164.261 520.382 164.142C520.726 164.024 520.998 163.83 521.198 163.562C521.399 163.291 521.522 162.957 521.567 162.558C521.608 162.193 521.565 161.877 521.438 161.608C521.312 161.337 521.116 161.121 520.851 160.96ZM522.25 164.51L526.093 164.944L526.183 164.144L523.497 163.841L523.502 163.799L524.592 162.951C524.936 162.691 525.234 162.448 525.488 162.222C525.742 161.994 525.944 161.757 526.095 161.512C526.245 161.267 526.338 160.992 526.373 160.687C526.407 160.384 526.365 160.111 526.249 159.867C526.135 159.623 525.954 159.424 525.707 159.267C525.46 159.108 525.157 159.009 524.798 158.968C524.513 158.936 524.255 158.941 524.025 158.983C523.795 159.023 523.584 159.088 523.39 159.179C523.199 159.27 523.017 159.374 522.844 159.491L523.277 160.149C523.519 159.995 523.75 159.882 523.967 159.81C524.188 159.735 524.421 159.712 524.667 159.74C524.926 159.769 525.126 159.863 525.268 160.024C525.41 160.181 525.466 160.397 525.435 160.671C525.41 160.894 525.341 161.095 525.229 161.273C525.12 161.452 524.961 161.637 524.754 161.829C524.546 162.018 524.284 162.241 523.967 162.499L522.327 163.823L522.25 164.51ZM526.918 165.037L530.761 165.471L530.851 164.671L528.165 164.368L528.17 164.325L529.26 163.477C529.604 163.217 529.903 162.975 530.156 162.749C530.41 162.521 530.612 162.284 530.763 162.039C530.914 161.794 531.007 161.519 531.041 161.214C531.075 160.911 531.034 160.637 530.917 160.394C530.803 160.15 530.623 159.95 530.376 159.794C530.129 159.635 529.826 159.535 529.466 159.495C529.181 159.463 528.924 159.468 528.694 159.51C528.464 159.55 528.252 159.615 528.059 159.706C527.867 159.797 527.685 159.901 527.512 160.017L527.945 160.676C528.188 160.522 528.418 160.409 528.636 160.337C528.857 160.262 529.09 160.239 529.336 160.266C529.595 160.296 529.795 160.39 529.937 160.55C530.079 160.708 530.134 160.924 530.103 161.198C530.078 161.421 530.01 161.621 529.898 161.8C529.788 161.979 529.63 162.164 529.422 162.356C529.215 162.545 528.953 162.768 528.635 163.026L526.996 164.35L526.918 165.037Z" fill="#59BB49"/>
</svg>
