<svg width="920" height="755" viewBox="0 0 920 755" fill="none" xmlns="http://www.w3.org/2000/svg">
<path d="M512.5 168L533.5 170.5L531.5 183L510.5 180L512.5 168ZM518.851 173.96C518.589 173.797 518.276 173.695 517.911 173.653C517.719 173.632 517.558 173.624 517.426 173.63C517.295 173.634 517.181 173.641 517.086 173.651L517.369 172.252L519.516 172.494L519.606 171.691L516.656 171.358L516.13 174.109L516.503 174.391C516.623 174.373 516.771 174.361 516.947 174.354C517.126 174.346 517.294 174.35 517.449 174.368C517.891 174.418 518.206 174.544 518.393 174.746C518.583 174.945 518.659 175.208 518.622 175.534C518.595 175.78 518.52 175.977 518.398 176.126C518.279 176.275 518.121 176.378 517.923 176.434C517.726 176.49 517.495 176.504 517.231 176.474C516.983 176.446 516.726 176.383 516.462 176.285C516.198 176.184 515.975 176.069 515.794 175.938L515.701 176.761C515.875 176.886 516.088 176.988 516.338 177.069C516.591 177.15 516.866 177.207 517.164 177.241C517.632 177.294 518.038 177.261 518.382 177.142C518.726 177.024 518.998 176.83 519.198 176.562C519.399 176.291 519.522 175.957 519.567 175.558C519.608 175.193 519.565 174.877 519.438 174.608C519.312 174.337 519.116 174.121 518.851 173.96ZM520.25 177.51L524.093 177.944L524.183 177.144L521.497 176.841L521.502 176.799L522.592 175.951C522.936 175.691 523.234 175.448 523.488 175.222C523.742 174.994 523.944 174.757 524.095 174.512C524.245 174.267 524.338 173.992 524.373 173.687C524.407 173.384 524.365 173.111 524.249 172.867C524.135 172.623 523.954 172.424 523.707 172.267C523.46 172.108 523.157 172.009 522.798 171.968C522.513 171.936 522.255 171.941 522.025 171.983C521.795 172.023 521.584 172.088 521.39 172.179C521.199 172.27 521.017 172.374 520.844 172.491L521.277 173.149C521.519 172.995 521.75 172.882 521.967 172.81C522.188 172.735 522.421 172.712 522.667 172.74C522.926 172.769 523.126 172.863 523.268 173.024C523.41 173.181 523.466 173.397 523.435 173.671C523.41 173.894 523.341 174.095 523.229 174.273C523.12 174.452 522.961 174.637 522.754 174.829C522.546 175.018 522.284 175.241 521.967 175.499L520.327 176.823L520.25 177.51ZM528.807 174.718C528.932 174.541 529.009 174.324 529.038 174.068C529.085 173.649 528.965 173.297 528.677 173.013C528.39 172.726 527.955 172.55 527.373 172.484C526.977 172.44 526.624 172.456 526.314 172.534C526.004 172.612 525.732 172.719 525.499 172.855L525.866 173.537C525.994 173.473 526.128 173.414 526.267 173.362C526.407 173.31 526.557 173.27 526.717 173.244C526.88 173.218 527.057 173.215 527.249 173.237C527.559 173.272 527.786 173.367 527.928 173.522C528.071 173.674 528.128 173.872 528.101 174.115C528.08 174.302 528.016 174.46 527.91 174.589C527.806 174.719 527.65 174.813 527.442 174.87C527.234 174.926 526.965 174.935 526.637 174.897L526.132 174.841L526.049 175.574L526.55 175.631C526.894 175.67 527.171 175.734 527.381 175.823C527.594 175.912 527.745 176.028 527.834 176.169C527.925 176.31 527.96 176.482 527.937 176.683C527.902 176.997 527.773 177.231 527.551 177.387C527.329 177.54 526.982 177.59 526.508 177.536C526.265 177.509 526.011 177.448 525.746 177.352C525.482 177.257 525.236 177.136 525.009 176.99L524.917 177.801C525.141 177.936 525.38 178.043 525.636 178.122C525.894 178.201 526.178 178.258 526.486 178.293C526.998 178.35 527.425 178.324 527.768 178.213C528.111 178.103 528.376 177.928 528.562 177.69C528.749 177.449 528.861 177.164 528.899 176.835C528.941 176.46 528.858 176.145 528.651 175.891C528.447 175.638 528.121 175.457 527.675 175.349L527.678 175.322C527.919 175.296 528.136 175.234 528.328 175.135C528.523 175.034 528.682 174.895 528.807 174.718Z" fill="#59BB49"/>
</svg>
