<svg width="920" height="755" viewBox="0 0 920 755" fill="none" xmlns="http://www.w3.org/2000/svg">
<path d="M525.683 187.894L525.524 189.303L523.789 189.107L525.415 187.238C525.493 187.145 525.568 187.049 525.64 186.949C525.712 186.847 525.778 186.747 525.839 186.649L525.87 186.653C525.86 186.715 525.848 186.793 525.832 186.888C525.816 186.981 525.799 187.083 525.781 187.193C525.764 187.304 525.745 187.42 525.727 187.541C525.711 187.66 525.696 187.777 525.683 187.894Z" fill="#59BB49"/>
<path d="M510.5 180.5L531.5 183.5L529.5 196L508.5 193L510.5 180.5ZM516.851 186.96C516.589 186.797 516.276 186.695 515.911 186.653C515.719 186.632 515.558 186.624 515.426 186.63C515.295 186.634 515.181 186.641 515.086 186.651L515.369 185.252L517.516 185.494L517.606 184.691L514.656 184.358L514.13 187.109L514.503 187.391C514.623 187.373 514.771 187.361 514.947 187.354C515.126 187.346 515.294 187.35 515.449 187.368C515.891 187.418 516.206 187.544 516.393 187.746C516.583 187.945 516.659 188.208 516.622 188.534C516.595 188.78 516.52 188.977 516.398 189.126C516.279 189.275 516.121 189.378 515.923 189.434C515.726 189.49 515.495 189.504 515.231 189.474C514.983 189.446 514.726 189.383 514.462 189.285C514.198 189.184 513.975 189.069 513.794 188.938L513.701 189.761C513.875 189.886 514.088 189.988 514.338 190.069C514.591 190.15 514.866 190.207 515.164 190.241C515.632 190.294 516.038 190.261 516.382 190.142C516.726 190.024 516.998 189.83 517.198 189.562C517.399 189.291 517.522 188.957 517.567 188.558C517.608 188.193 517.565 187.877 517.438 187.608C517.312 187.337 517.116 187.121 516.851 186.96ZM518.25 190.51L522.093 190.944L522.183 190.144L519.497 189.841L519.502 189.799L520.592 188.951C520.936 188.691 521.234 188.448 521.488 188.222C521.742 187.994 521.944 187.757 522.095 187.512C522.245 187.267 522.338 186.992 522.373 186.687C522.407 186.384 522.365 186.111 522.249 185.867C522.135 185.623 521.954 185.424 521.707 185.267C521.46 185.108 521.157 185.009 520.798 184.968C520.513 184.936 520.255 184.941 520.025 184.983C519.795 185.023 519.584 185.088 519.39 185.179C519.199 185.27 519.017 185.374 518.844 185.491L519.277 186.149C519.519 185.995 519.75 185.882 519.967 185.81C520.188 185.735 520.421 185.712 520.667 185.74C520.926 185.769 521.126 185.863 521.268 186.024C521.41 186.181 521.466 186.397 521.435 186.671C521.41 186.894 521.341 187.095 521.229 187.273C521.12 187.452 520.961 187.637 520.754 187.829C520.546 188.018 520.284 188.241 519.967 188.499L518.327 189.823L518.25 190.51ZM526.339 190.161L527.107 190.248L527.193 189.491L526.424 189.404L526.84 185.717L525.952 185.616L522.935 189.077L522.857 189.768L525.438 190.06L525.298 191.306L526.198 191.407L526.339 190.161Z" fill="#59BB49"/>
</svg>
