<svg width="920" height="755" viewBox="0 0 920 755" fill="none" xmlns="http://www.w3.org/2000/svg">
<path d="M508.5 193.5L529.5 196.5L527.5 209L506.5 206L508.5 193.5ZM514.918 199.995C514.658 199.828 514.346 199.722 513.982 199.676C513.791 199.651 513.629 199.641 513.497 199.646C513.366 199.647 513.252 199.653 513.157 199.662L513.459 198.267L515.602 198.538L515.704 197.736L512.758 197.363L512.195 200.107L512.564 200.394C512.684 200.378 512.832 200.367 513.009 200.364C513.188 200.357 513.355 200.364 513.51 200.384C513.952 200.44 514.265 200.57 514.449 200.774C514.636 200.976 514.709 201.24 514.668 201.566C514.637 201.811 514.56 202.007 514.436 202.154C514.315 202.302 514.155 202.402 513.957 202.456C513.758 202.51 513.527 202.52 513.264 202.487C513.016 202.455 512.76 202.389 512.498 202.287C512.235 202.183 512.014 202.065 511.834 201.932L511.73 202.753C511.903 202.88 512.114 202.986 512.363 203.07C512.615 203.154 512.89 203.215 513.187 203.252C513.654 203.312 514.061 203.284 514.406 203.17C514.751 203.057 515.026 202.867 515.23 202.601C515.434 202.333 515.562 202 515.612 201.602C515.658 201.238 515.62 200.921 515.496 200.651C515.373 200.378 515.181 200.159 514.918 199.995ZM516.269 203.564L520.105 204.049L520.206 203.251L517.524 202.911L517.53 202.869L518.631 202.036C518.979 201.78 519.281 201.542 519.537 201.319C519.794 201.095 519.999 200.861 520.153 200.618C520.307 200.375 520.404 200.101 520.442 199.796C520.481 199.494 520.443 199.22 520.33 198.975C520.219 198.729 520.041 198.527 519.796 198.368C519.552 198.205 519.25 198.102 518.891 198.056C518.606 198.02 518.349 198.022 518.118 198.061C517.888 198.097 517.675 198.16 517.48 198.248C517.288 198.336 517.105 198.438 516.93 198.552L517.354 199.216C517.599 199.066 517.831 198.956 518.049 198.887C518.271 198.815 518.505 198.795 518.75 198.826C519.008 198.859 519.207 198.956 519.347 199.118C519.487 199.277 519.54 199.494 519.505 199.768C519.477 199.99 519.406 200.19 519.291 200.367C519.18 200.544 519.019 200.727 518.808 200.916C518.599 201.102 518.333 201.322 518.012 201.575L516.355 202.878L516.269 203.564ZM524.24 201.174C523.98 201.007 523.668 200.901 523.304 200.855C523.113 200.831 522.951 200.821 522.819 200.825C522.688 200.827 522.574 200.832 522.479 200.841L522.781 199.446L524.924 199.717L525.026 198.915L522.08 198.542L521.517 201.286L521.886 201.573C522.006 201.557 522.154 201.547 522.331 201.543C522.51 201.537 522.677 201.543 522.832 201.563C523.274 201.619 523.587 201.749 523.771 201.953C523.958 202.156 524.031 202.419 523.99 202.745C523.959 202.99 523.881 203.187 523.758 203.334C523.637 203.481 523.477 203.582 523.279 203.635C523.08 203.689 522.849 203.699 522.586 203.666C522.338 203.634 522.082 203.568 521.82 203.467C521.557 203.362 521.336 203.244 521.156 203.111L521.052 203.932C521.225 204.059 521.436 204.165 521.685 204.249C521.937 204.333 522.212 204.394 522.509 204.432C522.976 204.491 523.383 204.464 523.728 204.35C524.073 204.236 524.348 204.046 524.552 203.781C524.756 203.513 524.884 203.18 524.934 202.782C524.98 202.417 524.942 202.1 524.818 201.83C524.695 201.557 524.502 201.339 524.24 201.174Z" fill="#59BB49"/>
</svg>
