<svg width="920" height="755" viewBox="0 0 920 755" fill="none" xmlns="http://www.w3.org/2000/svg">
<path d="M520.745 216.533C520.542 216.702 520.294 216.767 519.999 216.73C519.823 216.708 519.675 216.65 519.553 216.555C519.431 216.461 519.334 216.345 519.262 216.208C519.19 216.067 519.142 215.918 519.118 215.76C519.093 215.602 519.09 215.448 519.109 215.298C519.128 215.151 519.19 215.012 519.296 214.881C519.404 214.75 519.546 214.649 519.72 214.576C519.895 214.504 520.091 214.481 520.308 214.509C520.625 214.549 520.851 214.673 520.985 214.882C521.121 215.091 521.169 215.357 521.128 215.68C521.078 216.078 520.95 216.362 520.745 216.533Z" fill="#59BB49"/>
<path d="M506.5 206.5L527.5 209.5L525 222L504.5 219L506.5 206.5ZM511.918 212.995C511.658 212.828 511.346 212.722 510.982 212.676C510.791 212.651 510.629 212.641 510.497 212.646C510.366 212.647 510.252 212.653 510.157 212.662L510.459 211.267L512.602 211.538L512.704 210.736L509.758 210.363L509.195 213.107L509.564 213.394C509.684 213.378 509.832 213.367 510.009 213.364C510.188 213.357 510.355 213.364 510.51 213.384C510.952 213.44 511.265 213.57 511.449 213.774C511.636 213.976 511.709 214.24 511.668 214.566C511.637 214.811 511.56 215.007 511.436 215.154C511.315 215.302 511.155 215.402 510.957 215.456C510.758 215.51 510.527 215.52 510.264 215.487C510.016 215.455 509.76 215.389 509.498 215.287C509.235 215.183 509.014 215.065 508.834 214.932L508.73 215.753C508.903 215.88 509.114 215.986 509.363 216.07C509.615 216.154 509.89 216.215 510.187 216.252C510.654 216.312 511.061 216.284 511.406 216.17C511.751 216.057 512.026 215.867 512.23 215.601C512.434 215.333 512.562 215 512.612 214.602C512.658 214.238 512.62 213.921 512.496 213.651C512.373 213.378 512.181 213.159 511.918 212.995ZM513.269 216.564L517.105 217.049L517.206 216.251L514.524 215.911L514.53 215.869L515.631 215.036C515.979 214.78 516.281 214.542 516.537 214.319C516.794 214.095 516.999 213.861 517.153 213.618C517.307 213.375 517.404 213.101 517.442 212.796C517.481 212.494 517.443 212.22 517.33 211.975C517.219 211.729 517.041 211.527 516.796 211.368C516.552 211.205 516.25 211.102 515.891 211.056C515.606 211.02 515.349 211.022 515.118 211.061C514.888 211.097 514.675 211.16 514.48 211.248C514.288 211.336 514.105 211.438 513.93 211.552L514.354 212.216C514.599 212.066 514.831 211.956 515.049 211.887C515.271 211.815 515.505 211.795 515.75 211.826C516.008 211.859 516.207 211.956 516.347 212.118C516.487 212.277 516.54 212.494 516.505 212.768C516.477 212.99 516.406 213.19 516.291 213.367C516.18 213.544 516.019 213.727 515.808 213.916C515.599 214.102 515.333 214.322 515.012 214.575L513.355 215.878L513.269 216.564ZM518.437 213.764C518.35 214.081 518.285 214.407 518.243 214.74C518.19 215.158 518.194 215.53 518.255 215.856C518.317 216.178 518.425 216.455 518.579 216.684C518.734 216.914 518.925 217.095 519.152 217.229C519.382 217.363 519.638 217.448 519.919 217.484C520.302 217.532 520.641 217.496 520.937 217.376C521.236 217.256 521.478 217.061 521.665 216.791C521.854 216.521 521.974 216.186 522.024 215.785C522.071 215.413 522.044 215.088 521.943 214.81C521.844 214.533 521.681 214.31 521.453 214.142C521.225 213.971 520.945 213.865 520.615 213.823C520.393 213.795 520.194 213.802 520.018 213.842C519.842 213.88 519.69 213.943 519.561 214.029C519.432 214.115 519.321 214.217 519.227 214.337L519.18 214.331C519.249 213.933 519.36 213.586 519.513 213.29C519.666 212.992 519.887 212.77 520.176 212.626C520.465 212.479 520.847 212.435 521.322 212.495C521.441 212.51 521.559 212.533 521.676 212.564C521.795 212.595 521.904 212.631 522.001 212.672L522.096 211.916C522.006 211.881 521.891 211.849 521.75 211.821C521.609 211.793 521.482 211.771 521.368 211.757C520.929 211.701 520.545 211.716 520.217 211.8C519.889 211.882 519.608 212.017 519.374 212.206C519.143 212.394 518.952 212.622 518.8 212.889C518.648 213.156 518.527 213.448 518.437 213.764Z" fill="#59BB49"/>
</svg>
