<svg width="920" height="755" viewBox="0 0 920 755" fill="none" xmlns="http://www.w3.org/2000/svg">
<path d="M485 203.5L506 206.5L504 219L483 216L485 203.5ZM491.008 210.041C490.752 209.869 490.442 209.757 490.078 209.704C489.888 209.677 489.726 209.664 489.595 209.665C489.463 209.665 489.349 209.668 489.254 209.675L489.582 208.286L491.72 208.597L491.836 207.797L488.898 207.369L488.284 210.102L488.647 210.396C488.768 210.382 488.916 210.375 489.093 210.374C489.272 210.371 489.439 210.381 489.594 210.404C490.034 210.468 490.345 210.604 490.525 210.811C490.709 211.017 490.777 211.282 490.729 211.607C490.694 211.852 490.613 212.046 490.486 212.191C490.363 212.336 490.201 212.434 490.002 212.484C489.802 212.534 489.571 212.54 489.308 212.501C489.061 212.466 488.807 212.394 488.546 212.288C488.286 212.179 488.067 212.056 487.889 211.92L487.77 212.74C487.94 212.87 488.15 212.979 488.397 213.068C488.647 213.157 488.921 213.223 489.217 213.266C489.684 213.334 490.09 213.314 490.438 213.206C490.785 213.099 491.063 212.914 491.272 212.653C491.481 212.388 491.615 212.058 491.673 211.661C491.726 211.298 491.693 210.98 491.575 210.707C491.457 210.432 491.268 210.21 491.008 210.041ZM492.293 213.634L496.12 214.19L496.235 213.394L493.56 213.005L493.567 212.963L494.683 212.15C495.035 211.901 495.342 211.668 495.602 211.451C495.863 211.231 496.073 211.001 496.231 210.761C496.39 210.521 496.491 210.249 496.536 209.944C496.58 209.643 496.547 209.368 496.438 209.121C496.332 208.874 496.158 208.669 495.916 208.504C495.675 208.338 495.375 208.228 495.016 208.176C494.733 208.135 494.476 208.132 494.244 208.167C494.013 208.199 493.799 208.257 493.603 208.342C493.409 208.427 493.224 208.525 493.047 208.636L493.459 209.308C493.706 209.162 493.94 209.056 494.16 208.991C494.383 208.924 494.617 208.908 494.862 208.943C495.119 208.981 495.316 209.082 495.453 209.246C495.59 209.408 495.639 209.626 495.599 209.899C495.567 210.121 495.492 210.319 495.374 210.494C495.259 210.669 495.095 210.849 494.881 211.034C494.668 211.216 494.398 211.431 494.073 211.678L492.392 212.95L492.293 213.634ZM500.512 209.871L497.587 214.404L498.565 214.546L501.516 209.84L501.606 209.217L497.694 208.648L497.578 209.445L500.512 209.871Z" fill="#59BB49"/>
</svg>
