<svg width="920" height="755" viewBox="0 0 920 755" fill="none" xmlns="http://www.w3.org/2000/svg">
<path d="M500.18 200.614C500.028 200.429 499.97 200.212 500.006 199.965C500.031 199.792 500.092 199.644 500.189 199.522C500.288 199.399 500.418 199.296 500.577 199.211C500.737 199.124 500.924 199.052 501.137 198.996L501.254 199.065C501.427 199.177 501.582 199.294 501.72 199.417C501.86 199.537 501.966 199.667 502.038 199.806C502.113 199.946 502.138 200.098 502.114 200.263C502.076 200.521 501.956 200.715 501.753 200.846C501.549 200.977 501.275 201.018 500.93 200.968C500.582 200.917 500.332 200.799 500.18 200.614Z" fill="#59BB49"/>
<path d="M500.926 196.652C501.106 196.552 501.321 196.521 501.571 196.557C501.829 196.594 502.029 196.687 502.17 196.833C502.315 196.978 502.371 197.164 502.338 197.391C502.314 197.556 502.255 197.692 502.16 197.799C502.069 197.904 501.952 197.99 501.811 198.056C501.673 198.12 501.52 198.176 501.353 198.222C501.201 198.127 501.064 198.028 500.942 197.926C500.82 197.821 500.728 197.705 500.665 197.578C500.604 197.451 500.586 197.306 500.61 197.143C500.643 196.914 500.748 196.75 500.926 196.652Z" fill="#59BB49"/>
<path d="M487 190.5L508 193.5L506 206L485 203L487 190.5ZM493.008 197.041C492.752 196.869 492.442 196.757 492.078 196.704C491.888 196.677 491.726 196.664 491.595 196.665C491.463 196.665 491.349 196.668 491.254 196.675L491.582 195.286L493.72 195.597L493.836 194.797L490.898 194.369L490.284 197.102L490.647 197.396C490.768 197.382 490.916 197.375 491.093 197.374C491.272 197.371 491.439 197.381 491.594 197.404C492.034 197.468 492.345 197.604 492.525 197.811C492.709 198.017 492.777 198.282 492.729 198.607C492.694 198.852 492.613 199.046 492.486 199.191C492.363 199.336 492.201 199.434 492.002 199.484C491.802 199.534 491.571 199.54 491.308 199.501C491.061 199.466 490.807 199.394 490.546 199.288C490.286 199.179 490.067 199.056 489.889 198.92L489.77 199.74C489.94 199.87 490.15 199.979 490.397 200.068C490.647 200.157 490.921 200.223 491.217 200.266C491.684 200.334 492.09 200.314 492.438 200.206C492.785 200.099 493.063 199.914 493.272 199.653C493.481 199.388 493.615 199.058 493.673 198.661C493.726 198.298 493.693 197.98 493.575 197.707C493.457 197.432 493.268 197.21 493.008 197.041ZM494.293 200.634L498.12 201.19L498.235 200.394L495.56 200.005L495.567 199.963L496.683 199.15C497.035 198.901 497.342 198.668 497.602 198.451C497.863 198.231 498.073 198.001 498.231 197.761C498.39 197.521 498.491 197.249 498.536 196.944C498.58 196.643 498.547 196.368 498.438 196.121C498.332 195.874 498.158 195.669 497.916 195.504C497.675 195.338 497.375 195.228 497.016 195.176C496.733 195.135 496.476 195.132 496.244 195.167C496.013 195.199 495.799 195.257 495.603 195.342C495.409 195.427 495.224 195.525 495.047 195.636L495.459 196.308C495.706 196.162 495.94 196.056 496.16 195.991C496.383 195.924 496.617 195.908 496.862 195.943C497.119 195.981 497.316 196.082 497.453 196.246C497.59 196.408 497.639 196.626 497.599 196.899C497.567 197.121 497.492 197.319 497.374 197.494C497.259 197.669 497.095 197.849 496.881 198.034C496.668 198.216 496.398 198.431 496.073 198.678L494.392 199.95L494.293 200.634ZM502.543 196.142C502.295 196 502.008 195.906 501.681 195.858C501.361 195.812 501.061 195.821 500.781 195.885C500.503 195.95 500.271 196.072 500.084 196.25C499.898 196.425 499.784 196.66 499.741 196.954C499.708 197.183 499.721 197.392 499.78 197.579C499.843 197.765 499.938 197.935 500.065 198.091C500.193 198.243 500.338 198.385 500.501 198.517C500.278 198.582 500.069 198.671 499.874 198.785C499.681 198.899 499.519 199.044 499.388 199.22C499.257 199.395 499.173 199.613 499.135 199.874C499.089 200.188 499.125 200.47 499.241 200.718C499.358 200.964 499.552 201.168 499.823 201.332C500.094 201.495 500.434 201.606 500.844 201.666C501.226 201.721 501.568 201.708 501.872 201.626C502.177 201.541 502.425 201.396 502.619 201.189C502.815 200.981 502.936 200.718 502.982 200.401C503.019 200.149 502.993 199.92 502.904 199.715C502.818 199.51 502.691 199.325 502.523 199.158C502.358 198.99 502.173 198.835 501.967 198.695C502.18 198.626 502.375 198.54 502.553 198.436C502.732 198.331 502.88 198.2 502.997 198.043C503.117 197.887 503.194 197.694 503.227 197.465C503.27 197.168 503.229 196.908 503.104 196.685C502.978 196.461 502.792 196.28 502.543 196.142Z" fill="#59BB49"/>
</svg>
