<svg width="920" height="755" viewBox="0 0 920 755" fill="none" xmlns="http://www.w3.org/2000/svg">
<path d="M502.465 183.22C502.663 183.042 502.907 182.966 503.195 182.991C503.374 183.007 503.526 183.062 503.651 183.154C503.779 183.244 503.881 183.356 503.958 183.491C504.035 183.626 504.087 183.772 504.115 183.929C504.145 184.086 504.154 184.241 504.14 184.394C504.127 184.542 504.068 184.683 503.965 184.817C503.864 184.952 503.728 185.059 503.556 185.138C503.387 185.214 503.191 185.242 502.968 185.222C502.646 185.194 502.416 185.078 502.277 184.874C502.139 184.671 502.084 184.407 502.113 184.083C502.149 183.684 502.266 183.396 502.465 183.22Z" fill="#59BB49"/>
<path d="M489 177.5L510 180.5L508 193L487 190L489 177.5ZM494.735 183.898C494.469 183.741 494.154 183.646 493.788 183.613C493.596 183.596 493.434 183.592 493.303 183.601C493.171 183.608 493.058 183.617 492.963 183.629L493.214 182.224L495.366 182.417L495.438 181.611L492.481 181.347L492.018 184.11L492.397 184.383C492.517 184.362 492.665 184.347 492.841 184.336C493.02 184.323 493.187 184.324 493.343 184.338C493.786 184.378 494.104 184.496 494.295 184.694C494.489 184.889 494.572 185.15 494.543 185.477C494.521 185.723 494.451 185.922 494.333 186.074C494.217 186.225 494.061 186.332 493.865 186.393C493.668 186.454 493.438 186.472 493.173 186.448C492.924 186.426 492.667 186.369 492.4 186.277C492.134 186.183 491.909 186.073 491.724 185.946L491.65 186.771C491.828 186.892 492.043 186.989 492.295 187.064C492.55 187.139 492.826 187.19 493.124 187.217C493.594 187.259 493.999 187.216 494.34 187.09C494.68 186.964 494.948 186.764 495.142 186.491C495.337 186.216 495.452 185.878 495.488 185.479C495.52 185.113 495.47 184.798 495.337 184.532C495.204 184.264 495.004 184.053 494.735 183.898ZM496.216 187.415L500.067 187.759L500.139 186.958L497.447 186.717L497.451 186.674L498.521 185.801C498.859 185.533 499.151 185.284 499.4 185.052C499.648 184.818 499.845 184.577 499.99 184.328C500.135 184.08 500.221 183.803 500.249 183.497C500.276 183.193 500.228 182.921 500.106 182.68C499.986 182.439 499.801 182.243 499.551 182.093C499.3 181.94 498.995 181.847 498.634 181.815C498.349 181.789 498.092 181.8 497.863 181.848C497.634 181.893 497.423 181.963 497.232 182.058C497.043 182.154 496.863 182.262 496.693 182.383L497.141 183.031C497.38 182.871 497.608 182.753 497.824 182.676C498.043 182.596 498.275 182.567 498.522 182.589C498.781 182.612 498.984 182.702 499.129 182.859C499.275 183.013 499.335 183.228 499.311 183.503C499.291 183.726 499.227 183.928 499.119 184.109C499.014 184.291 498.86 184.48 498.657 184.676C498.454 184.87 498.197 185.099 497.885 185.364L496.277 186.726L496.216 187.415ZM504.868 185.898C504.947 185.578 505.001 185.25 505.031 184.913C505.068 184.495 505.05 184.126 504.977 183.806C504.904 183.483 504.786 183.21 504.623 182.986C504.46 182.759 504.261 182.585 504.027 182.462C503.795 182.337 503.536 182.261 503.251 182.236C502.872 182.202 502.535 182.251 502.241 182.385C501.947 182.515 501.711 182.719 501.532 182.996C501.353 183.272 501.245 183.612 501.209 184.014C501.176 184.385 501.214 184.709 501.322 184.985C501.434 185.259 501.604 185.476 501.833 185.635C502.064 185.794 502.344 185.888 502.67 185.917C502.912 185.939 503.119 185.927 503.293 185.883C503.467 185.836 503.616 185.767 503.739 185.676C503.863 185.582 503.967 185.476 504.054 185.359L504.1 185.363C504.049 185.761 503.952 186.112 503.81 186.415C503.671 186.719 503.458 186.949 503.172 187.103C502.889 187.259 502.508 187.315 502.028 187.272C501.906 187.261 501.783 187.242 501.66 187.215C501.54 187.186 501.432 187.153 501.336 187.116L501.267 187.878C501.359 187.907 501.477 187.934 501.621 187.957C501.768 187.983 501.897 188.001 502.009 188.011C502.452 188.051 502.836 188.024 503.161 187.93C503.486 187.836 503.76 187.691 503.984 187.494C504.211 187.294 504.396 187.059 504.538 186.786C504.683 186.514 504.793 186.218 504.868 185.898Z" fill="#59BB49"/>
</svg>
