<svg width="920" height="755" viewBox="0 0 920 755" fill="none" xmlns="http://www.w3.org/2000/svg">
<path d="M504.18 173.836C504.165 173.507 504.193 173.105 504.263 172.628C504.333 172.154 504.422 171.762 504.531 171.451C504.642 171.141 504.782 170.917 504.95 170.779C505.121 170.638 505.33 170.586 505.577 170.622C505.824 170.659 506.009 170.769 506.132 170.953C506.256 171.134 506.326 171.389 506.344 171.718C506.361 172.047 506.335 172.448 506.265 172.923C506.195 173.402 506.102 173.796 505.988 174.106C505.877 174.416 505.736 174.639 505.566 174.774C505.396 174.91 505.189 174.959 504.944 174.923C504.699 174.887 504.515 174.78 504.391 174.601C504.268 174.42 504.198 174.165 504.18 173.836Z" fill="#59BB49"/>
<path d="M491 165L512 168L510 180L489 177L491 165ZM497.016 171.045C496.76 170.873 496.45 170.76 496.087 170.707C495.896 170.679 495.735 170.665 495.603 170.667C495.472 170.666 495.358 170.669 495.262 170.676L495.593 169.288L497.73 169.602L497.848 168.802L494.911 168.37L494.292 171.102L494.655 171.396C494.775 171.382 494.924 171.375 495.1 171.375C495.28 171.372 495.447 171.382 495.601 171.405C496.042 171.47 496.352 171.606 496.532 171.815C496.715 172.02 496.782 172.286 496.735 172.61C496.699 172.855 496.617 173.05 496.491 173.194C496.367 173.339 496.205 173.437 496.006 173.486C495.806 173.536 495.575 173.541 495.312 173.503C495.065 173.466 494.811 173.395 494.55 173.288C494.29 173.179 494.071 173.056 493.894 172.919L493.773 173.738C493.944 173.869 494.153 173.978 494.4 174.067C494.65 174.157 494.923 174.223 495.22 174.267C495.686 174.335 496.093 174.316 496.44 174.21C496.788 174.103 497.066 173.919 497.276 173.657C497.486 173.393 497.62 173.063 497.678 172.666C497.731 172.303 497.699 171.985 497.581 171.712C497.464 171.437 497.276 171.215 497.016 171.045ZM502.293 171.454C502.424 171.281 502.508 171.067 502.546 170.812C502.607 170.394 502.499 170.039 502.221 169.745C501.943 169.449 501.515 169.259 500.935 169.173C500.541 169.115 500.187 169.12 499.875 169.187C499.562 169.254 499.287 169.352 499.05 169.48L499.394 170.175C499.524 170.115 499.659 170.061 499.8 170.013C499.942 169.966 500.093 169.931 500.254 169.91C500.418 169.889 500.595 169.893 500.785 169.921C501.094 169.967 501.318 170.069 501.455 170.229C501.592 170.386 501.643 170.586 501.607 170.828C501.58 171.013 501.511 171.169 501.401 171.295C501.292 171.421 501.133 171.51 500.923 171.56C500.713 171.608 500.445 171.608 500.118 171.56L499.615 171.486L499.508 172.217L500.006 172.29C500.349 172.341 500.624 172.414 500.831 172.51C501.04 172.607 501.187 172.727 501.271 172.871C501.358 173.015 501.387 173.188 501.357 173.389C501.311 173.701 501.175 173.931 500.948 174.079C500.721 174.225 500.372 174.263 499.9 174.193C499.658 174.158 499.406 174.088 499.145 173.984C498.884 173.879 498.643 173.75 498.421 173.597L498.302 174.404C498.52 174.547 498.756 174.662 499.009 174.749C499.265 174.837 499.546 174.903 499.852 174.948C500.362 175.023 500.791 175.011 501.137 174.912C501.483 174.813 501.754 174.648 501.948 174.416C502.143 174.181 502.265 173.9 502.313 173.573C502.368 173.199 502.296 172.882 502.098 172.621C501.902 172.361 501.583 172.169 501.14 172.046L501.144 172.019C501.386 172.002 501.605 171.947 501.8 171.855C501.998 171.761 502.162 171.627 502.293 171.454ZM506.896 174.267C507.022 173.917 507.118 173.514 507.185 173.058C507.275 172.447 507.282 171.915 507.206 171.462C507.134 171.006 506.972 170.643 506.719 170.372C506.47 170.098 506.126 169.929 505.688 169.865C505.225 169.796 504.835 169.858 504.52 170.048C504.205 170.239 503.953 170.542 503.762 170.959C503.575 171.374 503.437 171.885 503.347 172.493C503.258 173.101 503.249 173.633 503.322 174.089C503.395 174.542 503.556 174.905 503.805 175.178C504.055 175.449 504.397 175.617 504.833 175.681C505.181 175.732 505.487 175.71 505.751 175.615C506.015 175.519 506.241 175.358 506.43 175.13C506.619 174.903 506.774 174.615 506.896 174.267Z" fill="#59BB49"/>
</svg>
