<svg width="920" height="755" viewBox="0 0 920 755" fill="none" xmlns="http://www.w3.org/2000/svg">
<path d="M493 151.5L514 154.5L512 167.5L491 164.5L493 151.5ZM499.016 158.045C498.76 157.873 498.45 157.76 498.087 157.707C497.896 157.679 497.735 157.665 497.603 157.667C497.472 157.666 497.358 157.669 497.262 157.676L497.593 156.288L499.73 156.602L499.848 155.802L496.911 155.37L496.292 158.102L496.655 158.396C496.775 158.382 496.924 158.375 497.1 158.375C497.28 158.372 497.447 158.382 497.601 158.405C498.042 158.47 498.352 158.606 498.532 158.815C498.715 159.02 498.782 159.286 498.735 159.61C498.699 159.855 498.617 160.05 498.491 160.194C498.367 160.339 498.205 160.437 498.006 160.486C497.806 160.536 497.575 160.541 497.312 160.503C497.065 160.466 496.811 160.395 496.55 160.288C496.29 160.179 496.071 160.056 495.894 159.919L495.773 160.738C495.944 160.869 496.153 160.978 496.4 161.067C496.65 161.157 496.923 161.223 497.22 161.267C497.686 161.335 498.093 161.316 498.44 161.21C498.788 161.103 499.066 160.919 499.276 160.657C499.486 160.393 499.62 160.063 499.678 159.666C499.731 159.303 499.699 158.985 499.581 158.712C499.464 158.437 499.276 158.215 499.016 158.045ZM504.293 158.454C504.424 158.281 504.508 158.067 504.546 157.812C504.607 157.394 504.499 157.039 504.221 156.745C503.943 156.449 503.515 156.259 502.935 156.173C502.541 156.115 502.187 156.12 501.875 156.187C501.562 156.254 501.287 156.352 501.05 156.48L501.394 157.175C501.524 157.115 501.659 157.061 501.8 157.013C501.942 156.966 502.093 156.931 502.254 156.91C502.418 156.889 502.595 156.893 502.785 156.921C503.094 156.967 503.318 157.069 503.455 157.229C503.592 157.386 503.643 157.586 503.607 157.828C503.58 158.013 503.511 158.169 503.401 158.295C503.292 158.421 503.133 158.51 502.923 158.56C502.713 158.608 502.445 158.608 502.118 158.56L501.615 158.486L501.508 159.217L502.006 159.29C502.349 159.341 502.624 159.414 502.831 159.51C503.04 159.607 503.187 159.727 503.271 159.871C503.358 160.015 503.387 160.188 503.357 160.389C503.311 160.701 503.175 160.931 502.948 161.079C502.721 161.225 502.372 161.263 501.9 161.193C501.658 161.158 501.406 161.088 501.145 160.984C500.884 160.879 500.643 160.75 500.421 160.597L500.302 161.404C500.52 161.547 500.756 161.662 501.009 161.749C501.265 161.837 501.546 161.903 501.852 161.948C502.362 162.023 502.791 162.011 503.137 161.912C503.483 161.813 503.754 161.648 503.948 161.416C504.143 161.181 504.265 160.9 504.313 160.573C504.368 160.199 504.296 159.882 504.098 159.621C503.902 159.361 503.583 159.169 503.14 159.046L503.144 159.019C503.386 159.002 503.605 158.947 503.8 158.855C503.998 158.761 504.162 158.627 504.293 158.454ZM506.701 162.583L507.613 162.717L508.444 157.067L507.687 156.955L505.816 158.022L506.188 158.665L506.913 158.243C507.012 158.181 507.105 158.121 507.192 158.063C507.282 158.005 507.359 157.951 507.422 157.899C507.398 158.004 507.376 158.114 507.353 158.229L507.293 158.583C507.273 158.704 507.254 158.825 507.236 158.946L506.701 162.583Z" fill="#59BB49"/>
</svg>
