<svg width="920" height="755" viewBox="0 0 920 755" fill="none" xmlns="http://www.w3.org/2000/svg">
<path d="M495 138.5L516 141.5L514 154L493 151L495 138.5ZM501.016 145.045C500.76 144.873 500.45 144.76 500.087 144.707C499.896 144.679 499.735 144.665 499.603 144.667C499.472 144.666 499.358 144.669 499.262 144.676L499.593 143.288L501.73 143.602L501.848 142.802L498.911 142.37L498.292 145.102L498.655 145.396C498.775 145.382 498.924 145.375 499.1 145.375C499.28 145.372 499.447 145.382 499.601 145.405C500.042 145.47 500.352 145.606 500.532 145.815C500.715 146.02 500.782 146.286 500.735 146.61C500.699 146.855 500.617 147.05 500.491 147.194C500.367 147.339 500.205 147.437 500.006 147.486C499.806 147.536 499.575 147.541 499.312 147.503C499.065 147.466 498.811 147.395 498.55 147.288C498.29 147.179 498.071 147.056 497.894 146.919L497.773 147.738C497.944 147.869 498.153 147.978 498.4 148.067C498.65 148.157 498.923 148.223 499.22 148.267C499.686 148.335 500.093 148.316 500.44 148.21C500.788 148.103 501.066 147.919 501.276 147.657C501.486 147.393 501.62 147.063 501.678 146.666C501.731 146.303 501.699 145.985 501.581 145.712C501.464 145.437 501.276 145.215 501.016 145.045ZM506.293 145.454C506.424 145.281 506.508 145.067 506.546 144.812C506.607 144.394 506.499 144.039 506.221 143.745C505.943 143.449 505.515 143.259 504.935 143.173C504.541 143.115 504.187 143.12 503.875 143.187C503.562 143.254 503.287 143.352 503.05 143.48L503.394 144.175C503.524 144.115 503.659 144.061 503.8 144.013C503.942 143.966 504.093 143.931 504.254 143.91C504.418 143.889 504.595 143.893 504.785 143.921C505.094 143.967 505.318 144.069 505.455 144.229C505.592 144.386 505.643 144.586 505.607 144.828C505.58 145.013 505.511 145.169 505.401 145.295C505.292 145.421 505.133 145.51 504.923 145.56C504.713 145.608 504.445 145.608 504.118 145.56L503.615 145.486L503.508 146.217L504.006 146.29C504.349 146.341 504.624 146.414 504.831 146.51C505.04 146.607 505.187 146.727 505.271 146.871C505.358 147.015 505.387 147.188 505.357 147.389C505.311 147.701 505.175 147.931 504.948 148.079C504.721 148.225 504.372 148.263 503.9 148.193C503.658 148.158 503.406 148.088 503.145 147.984C502.884 147.879 502.643 147.75 502.421 147.597L502.302 148.404C502.52 148.547 502.756 148.662 503.009 148.749C503.265 148.837 503.546 148.903 503.852 148.948C504.362 149.023 504.791 149.011 505.137 148.912C505.483 148.813 505.754 148.648 505.948 148.416C506.143 148.181 506.265 147.9 506.313 147.573C506.368 147.199 506.296 146.882 506.098 146.621C505.902 146.361 505.583 146.169 505.14 146.046L505.144 146.019C505.386 146.002 505.605 145.947 505.8 145.855C505.998 145.761 506.162 145.627 506.293 145.454ZM506.943 149.324L510.769 149.887L510.886 149.091L508.212 148.697L508.218 148.655L509.336 147.844C509.688 147.596 509.995 147.363 510.256 147.146C510.517 146.927 510.727 146.697 510.886 146.457C511.045 146.217 511.147 145.945 511.192 145.641C511.236 145.34 511.204 145.065 511.096 144.818C510.99 144.571 510.816 144.365 510.575 144.2C510.333 144.033 510.034 143.923 509.676 143.871C509.392 143.829 509.135 143.825 508.903 143.86C508.672 143.892 508.459 143.95 508.262 144.034C508.068 144.118 507.882 144.216 507.705 144.327L508.116 144.999C508.364 144.854 508.598 144.749 508.818 144.684C509.041 144.617 509.275 144.601 509.519 144.637C509.777 144.675 509.974 144.777 510.11 144.941C510.247 145.104 510.295 145.321 510.255 145.594C510.223 145.816 510.147 146.014 510.03 146.189C509.914 146.364 509.75 146.544 509.536 146.728C509.322 146.91 509.052 147.124 508.726 147.371L507.043 148.64L506.943 149.324Z" fill="#59BB49"/>
</svg>
