<svg width="920" height="755" viewBox="0 0 920 755" fill="none" xmlns="http://www.w3.org/2000/svg">
<path d="M497 125L518 128.5L516 141L495 138L497 125ZM503.016 132.045C502.76 131.873 502.45 131.76 502.087 131.707C501.896 131.679 501.735 131.665 501.603 131.667C501.472 131.666 501.358 131.669 501.262 131.676L501.593 130.288L503.73 130.602L503.848 129.802L500.911 129.37L500.292 132.102L500.655 132.396C500.775 132.382 500.924 132.375 501.1 132.375C501.28 132.372 501.447 132.382 501.601 132.405C502.042 132.47 502.352 132.606 502.532 132.815C502.715 133.02 502.782 133.286 502.735 133.61C502.699 133.855 502.617 134.05 502.491 134.194C502.367 134.339 502.205 134.437 502.006 134.486C501.806 134.536 501.575 134.541 501.312 134.503C501.065 134.466 500.811 134.395 500.55 134.288C500.29 134.179 500.071 134.056 499.894 133.919L499.773 134.738C499.944 134.869 500.153 134.978 500.4 135.067C500.65 135.157 500.923 135.223 501.22 135.267C501.686 135.335 502.093 135.316 502.44 135.21C502.788 135.103 503.066 134.919 503.276 134.657C503.486 134.393 503.62 134.063 503.678 133.666C503.731 133.303 503.699 132.985 503.581 132.712C503.464 132.437 503.276 132.215 503.016 132.045ZM508.293 132.454C508.424 132.281 508.508 132.067 508.546 131.812C508.607 131.394 508.499 131.039 508.221 130.745C507.943 130.449 507.515 130.259 506.935 130.173C506.541 130.115 506.187 130.12 505.875 130.187C505.562 130.254 505.287 130.352 505.05 130.48L505.394 131.175C505.524 131.115 505.659 131.061 505.8 131.013C505.942 130.966 506.093 130.931 506.254 130.91C506.418 130.889 506.595 130.893 506.785 130.921C507.094 130.967 507.318 131.069 507.455 131.229C507.592 131.386 507.643 131.586 507.607 131.828C507.58 132.013 507.511 132.169 507.401 132.295C507.292 132.421 507.133 132.51 506.923 132.56C506.713 132.608 506.445 132.608 506.118 132.56L505.615 132.486L505.508 133.217L506.006 133.29C506.349 133.341 506.624 133.414 506.831 133.51C507.04 133.607 507.187 133.727 507.271 133.871C507.358 134.015 507.387 134.188 507.357 134.389C507.311 134.701 507.175 134.931 506.948 135.079C506.721 135.225 506.372 135.263 505.9 135.193C505.658 135.158 505.406 135.088 505.145 134.984C504.884 134.879 504.643 134.75 504.421 134.597L504.302 135.404C504.52 135.547 504.756 135.662 505.009 135.749C505.265 135.837 505.546 135.903 505.852 135.948C506.362 136.023 506.791 136.011 507.137 135.912C507.483 135.813 507.754 135.648 507.948 135.416C508.143 135.181 508.265 134.9 508.313 134.573C508.368 134.199 508.296 133.882 508.098 133.621C507.902 133.361 507.583 133.169 507.14 133.046L507.144 133.019C507.386 133.002 507.605 132.947 507.8 132.855C507.998 132.761 508.162 132.627 508.293 132.454ZM512.941 133.138C513.072 132.965 513.156 132.751 513.194 132.496C513.255 132.078 513.147 131.723 512.869 131.429C512.591 131.133 512.163 130.942 511.583 130.857C511.189 130.799 510.835 130.804 510.523 130.871C510.21 130.938 509.935 131.036 509.698 131.164L510.042 131.858C510.172 131.798 510.307 131.745 510.449 131.697C510.59 131.649 510.741 131.615 510.902 131.594C511.066 131.573 511.243 131.577 511.433 131.605C511.743 131.65 511.966 131.753 512.103 131.913C512.24 132.07 512.291 132.269 512.256 132.512C512.228 132.697 512.159 132.853 512.049 132.979C511.941 133.105 511.781 133.193 511.571 133.244C511.362 133.292 511.093 133.292 510.766 133.244L510.263 133.17L510.156 133.901L510.655 133.974C510.997 134.024 511.272 134.098 511.479 134.194C511.689 134.29 511.835 134.411 511.919 134.555C512.006 134.699 512.035 134.872 512.005 135.073C511.959 135.384 511.823 135.614 511.596 135.763C511.369 135.908 511.02 135.946 510.548 135.877C510.306 135.841 510.055 135.772 509.793 135.667C509.532 135.563 509.291 135.434 509.069 135.28L508.95 136.088C509.168 136.231 509.404 136.346 509.657 136.433C509.913 136.521 510.194 136.587 510.5 136.632C511.011 136.707 511.439 136.695 511.785 136.596C512.131 136.497 512.402 136.331 512.596 136.099C512.791 135.865 512.913 135.584 512.961 135.257C513.016 134.883 512.944 134.566 512.746 134.305C512.55 134.045 512.231 133.853 511.788 133.73L511.792 133.703C512.034 133.686 512.253 133.631 512.448 133.539C512.646 133.444 512.811 133.311 512.941 133.138Z" fill="#59BB49"/>
</svg>
