<svg width="920" height="755" viewBox="0 0 920 755" fill="none" xmlns="http://www.w3.org/2000/svg">
<path d="M513.87 120.461L513.64 121.86L511.917 121.578L513.635 119.793C513.718 119.704 513.798 119.611 513.875 119.516C513.952 119.418 514.023 119.321 514.088 119.226L514.119 119.231C514.107 119.293 514.09 119.37 514.069 119.465C514.049 119.556 514.027 119.657 514.004 119.767C513.98 119.876 513.956 119.991 513.931 120.111C513.909 120.229 513.889 120.345 513.87 120.461Z" fill="#59BB49"/>
<path d="M499 113L520 116L518 128L497 124.5L499 113ZM505.096 119.084C504.843 118.908 504.535 118.79 504.173 118.731C503.983 118.699 503.822 118.684 503.69 118.683C503.558 118.68 503.445 118.681 503.349 118.686L503.702 117.304L505.834 117.654L505.965 116.856L503.036 116.375L502.371 119.096L502.73 119.396C502.85 119.384 502.999 119.38 503.175 119.382C503.355 119.383 503.521 119.396 503.676 119.421C504.115 119.493 504.423 119.635 504.599 119.846C504.779 120.055 504.842 120.321 504.789 120.645C504.749 120.889 504.664 121.082 504.535 121.225C504.409 121.368 504.246 121.462 504.045 121.508C503.845 121.555 503.614 121.556 503.352 121.513C503.105 121.473 502.852 121.397 502.593 121.286C502.335 121.172 502.118 121.046 501.943 120.906L501.809 121.723C501.977 121.856 502.184 121.97 502.43 122.063C502.679 122.156 502.951 122.227 503.246 122.276C503.712 122.352 504.119 122.34 504.468 122.239C504.817 122.138 505.098 121.958 505.312 121.701C505.527 121.44 505.666 121.112 505.731 120.716C505.791 120.354 505.764 120.036 505.65 119.761C505.538 119.484 505.353 119.258 505.096 119.084ZM510.366 119.581C510.499 119.41 510.587 119.198 510.629 118.943C510.697 118.527 510.595 118.17 510.322 117.872C510.049 117.571 509.624 117.373 509.046 117.278C508.652 117.214 508.299 117.212 507.985 117.274C507.672 117.336 507.395 117.429 507.156 117.554L507.488 118.254C507.619 118.196 507.755 118.144 507.897 118.099C508.039 118.054 508.191 118.022 508.353 118.004C508.516 117.986 508.693 117.992 508.884 118.024C509.192 118.074 509.413 118.18 509.548 118.342C509.683 118.502 509.73 118.702 509.691 118.944C509.66 119.129 509.589 119.283 509.476 119.407C509.366 119.532 509.205 119.618 508.994 119.665C508.784 119.709 508.515 119.705 508.189 119.651L507.688 119.569L507.568 120.298L508.065 120.379C508.407 120.435 508.681 120.513 508.886 120.613C509.094 120.713 509.239 120.836 509.32 120.981C509.405 121.127 509.43 121.3 509.398 121.5C509.346 121.811 509.206 122.039 508.977 122.183C508.747 122.325 508.398 122.358 507.928 122.28C507.686 122.241 507.436 122.167 507.176 122.058C506.917 121.95 506.678 121.817 506.458 121.659L506.326 122.465C506.542 122.611 506.776 122.73 507.027 122.821C507.281 122.913 507.561 122.984 507.867 123.034C508.376 123.118 508.804 123.113 509.152 123.02C509.5 122.926 509.773 122.765 509.972 122.537C510.171 122.305 510.297 122.027 510.35 121.7C510.412 121.328 510.345 121.009 510.151 120.745C509.959 120.482 509.643 120.285 509.203 120.154L509.207 120.127C509.45 120.114 509.669 120.063 509.866 119.974C510.066 119.883 510.232 119.752 510.366 119.581ZM514.411 122.759L515.174 122.884L515.298 122.132L514.535 122.007L515.136 118.345L514.253 118.2L511.066 121.505L510.953 122.191L513.517 122.612L513.314 123.849L514.208 123.996L514.411 122.759Z" fill="#59BB49"/>
</svg>
