<svg width="920" height="755" viewBox="0 0 920 755" fill="none" xmlns="http://www.w3.org/2000/svg">
<path d="M501 100L522 103L520 115.5L499 112.5L501 100ZM507.058 107.065C506.803 106.891 506.494 106.776 506.131 106.719C505.941 106.69 505.78 106.675 505.648 106.676C505.516 106.673 505.403 106.676 505.307 106.682L505.649 105.296L507.784 105.629L507.908 104.83L504.975 104.373L504.332 107.099L504.693 107.397C504.814 107.384 504.962 107.378 505.139 107.379C505.318 107.378 505.485 107.389 505.639 107.414C506.079 107.482 506.389 107.621 506.567 107.831C506.748 108.038 506.813 108.304 506.763 108.628C506.725 108.873 506.642 109.067 506.514 109.21C506.389 109.354 506.226 109.45 506.026 109.498C505.826 109.546 505.595 109.549 505.333 109.508C505.086 109.47 504.832 109.396 504.573 109.287C504.313 109.176 504.095 109.051 503.919 108.913L503.792 109.731C503.961 109.863 504.169 109.974 504.416 110.065C504.665 110.157 504.938 110.226 505.234 110.272C505.699 110.344 506.106 110.329 506.455 110.225C506.803 110.121 507.083 109.939 507.295 109.68C507.507 109.418 507.644 109.088 507.705 108.692C507.762 108.329 507.733 108.011 507.617 107.738C507.502 107.461 507.315 107.237 507.058 107.065ZM512.331 107.519C512.463 107.348 512.549 107.134 512.589 106.88C512.654 106.463 512.548 106.106 512.273 105.81C511.998 105.512 511.571 105.317 510.992 105.227C510.598 105.166 510.245 105.167 509.932 105.232C509.619 105.297 509.343 105.392 509.104 105.518L509.442 106.215C509.573 106.157 509.709 106.104 509.85 106.057C509.992 106.011 510.144 105.978 510.305 105.958C510.469 105.939 510.646 105.944 510.836 105.974C511.145 106.022 511.367 106.126 511.503 106.287C511.639 106.446 511.688 106.646 511.65 106.888C511.622 107.073 511.551 107.228 511.44 107.353C511.33 107.478 511.171 107.565 510.96 107.614C510.75 107.66 510.481 107.658 510.155 107.607L509.653 107.529L509.539 108.258L510.037 108.336C510.379 108.389 510.653 108.465 510.86 108.563C511.068 108.661 511.214 108.783 511.297 108.928C511.382 109.073 511.409 109.246 511.378 109.446C511.33 109.758 511.191 109.987 510.963 110.133C510.735 110.277 510.385 110.312 509.915 110.238C509.673 110.201 509.422 110.129 509.161 110.022C508.901 109.916 508.661 109.785 508.44 109.629L508.314 110.436C508.532 110.58 508.766 110.697 509.019 110.787C509.273 110.876 509.554 110.945 509.86 110.993C510.37 111.072 510.798 111.064 511.145 110.968C511.492 110.872 511.764 110.708 511.961 110.478C512.158 110.245 512.282 109.965 512.333 109.639C512.391 109.266 512.322 108.948 512.125 108.685C511.932 108.423 511.614 108.229 511.173 108.102L511.177 108.075C511.419 108.06 511.638 108.007 511.834 107.916C512.033 107.823 512.199 107.691 512.331 107.519ZM516.342 108.512C516.087 108.338 515.778 108.223 515.415 108.166C515.225 108.136 515.064 108.122 514.932 108.122C514.8 108.12 514.687 108.122 514.591 108.129L514.933 106.743L517.068 107.075L517.192 106.277L514.259 105.819L513.617 108.546L513.977 108.843C514.098 108.831 514.247 108.825 514.423 108.826C514.602 108.825 514.769 108.836 514.924 108.86C515.364 108.929 515.673 109.068 515.851 109.278C516.032 109.485 516.097 109.751 516.047 110.075C516.009 110.32 515.926 110.514 515.798 110.657C515.673 110.801 515.51 110.897 515.31 110.945C515.111 110.993 514.879 110.996 514.617 110.955C514.37 110.917 514.116 110.843 513.857 110.734C513.597 110.622 513.38 110.498 513.204 110.359L513.076 111.178C513.245 111.31 513.453 111.421 513.7 111.512C513.949 111.604 514.222 111.673 514.518 111.719C514.983 111.791 515.39 111.776 515.739 111.672C516.087 111.568 516.367 111.386 516.579 111.127C516.791 110.865 516.928 110.535 516.99 110.139C517.046 109.776 517.017 109.458 516.901 109.184C516.786 108.908 516.6 108.684 516.342 108.512Z" fill="#59BB49"/>
</svg>
