<svg width="920" height="755" viewBox="0 0 920 755" fill="none" xmlns="http://www.w3.org/2000/svg">
<path d="M517.737 97.4701C517.535 97.6398 517.287 97.7069 516.992 97.6712C516.817 97.65 516.667 97.5926 516.545 97.4991C516.422 97.4056 516.325 97.2902 516.252 97.1529C516.18 97.013 516.131 96.8641 516.106 96.7063C516.08 96.5484 516.076 96.3945 516.095 96.2446C516.112 96.0972 516.174 95.9577 516.279 95.8262C516.387 95.6949 516.528 95.5926 516.702 95.5192C516.876 95.4459 517.071 95.4223 517.289 95.4486C517.607 95.487 517.833 95.6101 517.968 95.8179C518.105 96.026 518.155 96.2917 518.116 96.6148C518.067 97.013 517.941 97.2981 517.737 97.4701Z" fill="#59BB49"/>
<path d="M503 87L524 90L522 102.5L501 99.5L503 87ZM508.891 93.9807C508.63 93.8154 508.317 93.7107 507.953 93.6666C507.762 93.6435 507.6 93.6344 507.468 93.6395C507.337 93.642 507.223 93.6479 507.128 93.6573L507.422 92.2607L509.567 92.52L509.664 91.7173L506.717 91.3609L506.168 94.1079L506.539 94.3928C506.659 94.3758 506.807 94.3649 506.984 94.36C507.163 94.3528 507.33 94.3586 507.485 94.3773C507.927 94.4308 508.241 94.5592 508.426 94.7626C508.614 94.9637 508.689 95.2272 508.649 95.5529C508.62 95.7985 508.543 95.9952 508.421 96.143C508.3 96.2911 508.141 96.3925 507.943 96.4473C507.745 96.502 507.514 96.5134 507.25 96.4816C507.002 96.4515 506.747 96.3865 506.483 96.2865C506.22 96.1839 505.998 96.0665 505.818 95.9345L505.718 96.7566C505.892 96.8826 506.103 96.9868 506.353 97.0695C506.605 97.1525 506.88 97.2119 507.177 97.2479C507.645 97.3044 508.052 97.2749 508.396 97.1591C508.741 97.0434 509.014 96.8522 509.217 96.5856C509.42 96.3163 509.546 95.9826 509.594 95.5845C509.638 95.22 509.598 94.9029 509.473 94.6334C509.348 94.3613 509.154 94.1437 508.891 93.9807ZM514.176 94.2538C514.302 94.0776 514.381 93.8615 514.412 93.6056C514.463 93.1867 514.345 92.8342 514.06 92.5478C513.775 92.2589 513.341 92.0793 512.76 92.009C512.364 91.9611 512.011 91.9748 511.7 92.05C511.389 92.1253 511.117 92.2301 510.883 92.3644L511.245 93.0495C511.373 92.9863 511.507 92.9291 511.647 92.8778C511.787 92.8265 511.938 92.7883 512.098 92.7631C512.261 92.7382 512.438 92.7373 512.629 92.7605C512.94 92.798 513.165 92.8948 513.307 93.0509C513.448 93.2044 513.504 93.4026 513.475 93.6457C513.452 93.8318 513.387 93.9892 513.28 94.1179C513.175 94.2469 513.018 94.3394 512.81 94.3955C512.601 94.449 512.333 94.4559 512.004 94.4162L511.5 94.3552L511.412 95.0881L511.912 95.1486C512.256 95.1902 512.532 95.2564 512.742 95.3473C512.954 95.4385 513.103 95.555 513.191 95.6968C513.282 95.8389 513.315 96.0107 513.29 96.2124C513.252 96.5252 513.122 96.7586 512.899 96.9127C512.676 97.0641 512.328 97.1112 511.855 97.054C511.612 97.0246 511.358 96.9612 511.095 96.8637C510.831 96.7663 510.586 96.6435 510.36 96.4955L510.262 97.306C510.484 97.4431 510.723 97.5519 510.978 97.6326C511.236 97.7136 511.518 97.7727 511.826 97.8099C512.338 97.8718 512.766 97.8488 513.109 97.7408C513.453 97.6328 513.719 97.4604 513.908 97.2235C514.097 96.9841 514.211 96.7002 514.251 96.3718C514.296 95.9969 514.216 95.6817 514.011 95.426C513.808 95.1707 513.484 94.9873 513.039 94.8757L513.042 94.8485C513.283 94.8253 513.501 94.765 513.693 94.6676C513.889 94.568 514.05 94.43 514.176 94.2538ZM515.414 94.7143C515.328 95.0319 515.265 95.3574 515.225 95.6909C515.174 96.1097 515.181 96.4816 515.244 96.8066C515.307 97.1291 515.417 97.4047 515.573 97.6334C515.729 97.8621 515.92 98.0427 516.148 98.1751C516.379 98.3079 516.635 98.3914 516.917 98.4255C517.3 98.4717 517.639 98.434 517.934 98.3123C518.232 98.191 518.473 97.9946 518.658 97.7232C518.846 97.452 518.964 97.1161 519.012 96.7154C519.057 96.3431 519.028 96.0183 518.926 95.7409C518.825 95.4638 518.661 95.2419 518.432 95.0752C518.203 94.9059 517.923 94.8013 517.592 94.7613C517.37 94.7344 517.171 94.7418 516.995 94.7835C516.82 94.8227 516.668 94.8856 516.54 94.9724C516.411 95.0591 516.3 95.1625 516.207 95.2824L516.16 95.2767C516.227 94.8782 516.336 94.5307 516.487 94.2342C516.639 93.9351 516.858 93.7125 517.146 93.5663C517.435 93.4175 517.816 93.3719 518.292 93.4294C518.411 93.4438 518.529 93.4659 518.646 93.4958C518.766 93.526 518.874 93.5614 518.972 93.6021L519.063 92.8459C518.973 92.8113 518.857 92.7803 518.716 92.7528C518.575 92.7252 518.448 92.7046 518.334 92.6908C517.895 92.6377 517.511 92.6543 517.183 92.7405C516.856 92.8242 516.576 92.9609 516.343 93.1504C516.113 93.3403 515.922 93.5691 515.772 93.8369C515.621 94.1046 515.502 94.3971 515.414 94.7143Z" fill="#59BB49"/>
</svg>
