<svg width="920" height="755" viewBox="0 0 920 755" fill="none" xmlns="http://www.w3.org/2000/svg">
<path d="M505 73.5L526 76.5L524 89.5L503 86.5L505 73.5ZM510.931 81.0015C510.671 80.834 510.36 80.7268 509.996 80.6798C509.804 80.6551 509.643 80.6447 509.511 80.6487C509.38 80.6501 509.266 80.6551 509.171 80.6637L509.477 79.2696L511.619 79.5464L511.723 78.7445L508.778 78.3641L508.207 81.1065L508.576 81.3943C508.696 81.3784 508.844 81.3686 509.021 81.3652C509.2 81.3595 509.367 81.3666 509.522 81.3866C509.964 81.4437 510.276 81.5747 510.46 81.7796C510.647 81.9822 510.719 82.2463 510.677 82.5717C510.645 82.8171 510.567 83.0131 510.443 83.1599C510.322 83.307 510.162 83.4071 509.963 83.4603C509.765 83.5134 509.534 83.5229 509.27 83.4889C509.022 83.4568 508.767 83.3897 508.505 83.2875C508.242 83.1828 508.021 83.0636 507.842 82.9301L507.736 83.7514C507.908 83.8788 508.119 83.9848 508.368 84.0695C508.62 84.1545 508.894 84.2162 509.191 84.2546C509.658 84.315 510.065 84.2887 510.41 84.1758C510.756 84.0629 511.031 83.8739 511.236 83.6089C511.441 83.3414 511.569 83.0087 511.621 82.611C511.668 82.2468 511.63 81.9295 511.508 81.6589C511.385 81.3858 511.193 81.1666 510.931 81.0015ZM516.214 81.3178C516.342 81.1426 516.422 80.9272 516.455 80.6715C516.509 80.2531 516.395 79.8996 516.112 79.6109C515.829 79.3197 515.397 79.1365 514.816 79.0614C514.421 79.0104 514.067 79.0212 513.756 79.0939C513.445 79.1666 513.171 79.2691 512.936 79.4015L513.293 80.0896C513.421 80.0274 513.556 79.9713 513.696 79.9212C513.837 79.8711 513.987 79.834 514.148 79.8102C514.311 79.7866 514.488 79.7872 514.679 79.8119C514.989 79.8519 515.214 79.9506 515.354 80.1078C515.494 80.2625 515.549 80.4612 515.517 80.704C515.493 80.8899 515.427 81.0468 515.319 81.1746C515.213 81.3027 515.055 81.3939 514.846 81.4483C514.637 81.5001 514.369 81.5048 514.041 81.4624L513.537 81.3973L513.443 82.1295L513.942 82.1941C514.286 82.2385 514.562 82.307 514.77 82.3996C514.982 82.4925 515.131 82.6102 515.217 82.7527C515.306 82.8955 515.338 83.0676 515.312 83.2691C515.272 83.5816 515.139 83.8139 514.915 83.9661C514.691 84.1157 514.342 84.16 513.87 84.0989C513.627 84.0675 513.374 84.002 513.111 83.9024C512.848 83.8028 512.604 83.6781 512.38 83.5283L512.275 84.3379C512.496 84.4768 512.734 84.5876 512.988 84.6704C513.245 84.7535 513.528 84.8149 513.835 84.8546C514.346 84.9207 514.774 84.9011 515.119 84.796C515.463 84.6908 515.731 84.5206 515.921 84.2852C516.112 84.0473 516.229 83.7644 516.271 83.4363C516.319 83.0619 516.242 82.746 516.039 82.4886C515.839 82.2317 515.516 82.0456 515.071 81.9304L515.075 81.9032C515.317 81.8819 515.534 81.8234 515.728 81.7276C515.924 81.6296 516.086 81.493 516.214 81.3178ZM520.431 80.6811L517.578 85.2595L518.559 85.3862L521.433 80.6334L521.514 80.0096L517.594 79.5031L517.49 80.3011L520.431 80.6811Z" fill="#59BB49"/>
</svg>
