<svg width="920" height="755" viewBox="0 0 920 755" fill="none" xmlns="http://www.w3.org/2000/svg">
<path d="M520.14 71.3435C519.983 71.1626 519.919 70.9479 519.948 70.6996C519.969 70.5263 520.025 70.377 520.119 70.2516C520.215 70.1265 520.341 70.0194 520.499 69.9303C520.656 69.8386 520.841 69.7619 521.053 69.7002L521.171 69.7652C521.347 69.8724 521.505 69.9853 521.646 70.1041C521.79 70.2205 521.9 70.3475 521.975 70.4848C522.054 70.6224 522.083 70.774 522.064 70.9396C522.033 71.1982 521.918 71.3958 521.719 71.5324C521.519 71.669 521.246 71.7169 520.9 71.6763C520.55 71.6354 520.297 71.5245 520.14 71.3435Z" fill="#59BB49"/>
<path d="M520.776 67.3631C520.953 67.258 521.167 67.2202 521.418 67.2496C521.677 67.2799 521.879 67.3665 522.025 67.5094C522.174 67.6501 522.235 67.8342 522.208 68.0618C522.189 68.2274 522.133 68.3651 522.042 68.475C521.953 68.5826 521.839 68.6715 521.7 68.7417C521.563 68.8096 521.412 68.8692 521.246 68.9206C521.092 68.8291 520.952 68.7341 520.827 68.6355C520.703 68.5344 520.607 68.421 520.541 68.2952C520.477 68.1697 520.454 68.0255 520.473 67.8625C520.5 67.6323 520.601 67.4659 520.776 67.3631Z" fill="#59BB49"/>
<path d="M506.5 61L528 64L526 76L505 73L506.5 61ZM512.872 67.9711C512.611 67.8068 512.298 67.7032 511.933 67.6605C511.742 67.6381 511.58 67.6296 511.448 67.6352C511.317 67.6381 511.204 67.6445 511.108 67.6543L511.398 66.2566L513.543 66.508L513.637 65.7049L510.689 65.3594L510.15 68.1084L510.522 68.3919C510.642 68.3745 510.79 68.363 510.967 68.3575C511.146 68.3496 511.313 68.3548 511.468 68.373C511.911 68.4248 512.225 68.552 512.411 68.7547C512.6 68.9552 512.675 69.2183 512.637 69.5442C512.608 69.7899 512.532 69.9869 512.41 70.1352C512.291 70.2837 512.132 70.3857 511.934 70.4412C511.736 70.4967 511.505 70.509 511.241 70.478C510.993 70.449 510.737 70.3849 510.473 70.2858C510.21 70.1842 509.988 70.0677 509.806 69.9363L509.71 70.7588C509.884 70.8841 510.096 70.9876 510.346 71.0693C510.599 71.1513 510.874 71.2098 511.171 71.2446C511.639 71.2995 512.045 71.2684 512.39 71.1514C512.734 71.0344 513.007 70.8421 513.208 70.5747C513.41 70.3048 513.535 69.9706 513.581 69.5723C513.624 69.2076 513.583 68.8907 513.457 68.6216C513.331 68.35 513.136 68.1331 512.872 67.9711ZM518.159 68.2246C518.284 68.0479 518.362 67.8315 518.392 67.5755C518.441 67.1565 518.323 66.8043 518.036 66.5191C517.75 66.2312 517.316 66.0532 516.734 65.985C516.338 65.9387 515.985 65.9537 515.675 66.03C515.364 66.1064 515.092 66.2122 514.859 66.3474L515.223 67.0312C515.351 66.9675 515.485 66.9098 515.625 66.858C515.765 66.8062 515.915 66.7674 516.075 66.7416C516.238 66.7161 516.415 66.7146 516.606 66.737C516.917 66.7734 517.143 66.8693 517.285 67.0249C517.427 67.1779 517.483 67.3759 517.455 67.6191C517.433 67.8053 517.369 67.9629 517.262 68.092C517.158 68.2214 517.001 68.3145 516.793 68.3713C516.584 68.4256 516.316 68.4335 515.987 68.395L515.483 68.3359L515.397 69.0692L515.898 69.1278C516.242 69.1681 516.519 69.2333 516.728 69.3234C516.94 69.4139 517.091 69.5298 517.179 69.6712C517.27 69.813 517.304 69.9847 517.28 70.1865C517.243 70.4994 517.114 70.7333 516.891 70.8882C516.669 71.0404 516.321 71.0888 515.848 71.0334C515.604 71.0049 515.351 70.9424 515.087 70.8459C514.823 70.7495 514.577 70.6276 514.351 70.4805L514.256 71.2913C514.479 71.4276 514.718 71.5355 514.973 71.6153C515.231 71.6953 515.514 71.7534 515.822 71.7894C516.334 71.8494 516.762 71.8248 517.105 71.7155C517.448 71.6063 517.713 71.4329 517.901 71.1953C518.089 70.9551 518.203 70.6708 518.241 70.3423C518.285 69.9673 518.204 69.6523 517.998 69.3974C517.794 69.1429 517.469 68.9606 517.024 68.8507L517.027 68.8235C517.268 68.7994 517.485 68.7383 517.677 68.6402C517.873 68.5398 518.033 68.4013 518.159 68.2246ZM522.379 66.8075C522.127 66.6732 521.837 66.5867 521.508 66.5483C521.188 66.5107 520.888 66.528 520.609 66.6003C520.333 66.6728 520.105 66.8007 519.923 66.984C519.742 67.1647 519.634 67.4024 519.6 67.6973C519.573 67.9275 519.592 68.1355 519.657 68.3214C519.724 68.505 519.824 68.6727 519.956 68.8245C520.088 68.9736 520.237 69.1117 520.403 69.2387C520.182 69.3098 519.975 69.4049 519.783 69.524C519.593 69.6434 519.436 69.7927 519.31 69.972C519.184 70.1512 519.106 70.3715 519.075 70.6327C519.038 70.9483 519.081 71.2287 519.205 71.4738C519.328 71.7164 519.528 71.9155 519.803 72.071C520.079 72.2265 520.422 72.3283 520.833 72.3765C521.216 72.4213 521.558 72.3985 521.86 72.308C522.162 72.2149 522.407 72.0626 522.594 71.8512C522.784 71.6375 522.898 71.3716 522.935 71.0535C522.965 70.8 522.933 70.572 522.838 70.3696C522.747 70.1674 522.615 69.9855 522.442 69.8237C522.273 69.6596 522.083 69.5102 521.873 69.3755C522.084 69.3006 522.277 69.2091 522.452 69.1012C522.628 68.9906 522.772 68.8555 522.885 68.6957C523.001 68.5362 523.072 68.3413 523.099 68.1111C523.134 67.8137 523.085 67.555 522.954 67.3351C522.822 67.1151 522.631 66.9393 522.379 66.8075Z" fill="#59BB49"/>
</svg>
