<svg width="920" height="755" viewBox="0 0 920 755" fill="none" xmlns="http://www.w3.org/2000/svg">
<path d="M522.695 53.6557C522.901 53.4859 523.148 53.4199 523.434 53.4577C523.613 53.4812 523.762 53.5416 523.883 53.639C524.007 53.7342 524.105 53.8508 524.176 53.9889C524.247 54.127 524.293 54.2749 524.314 54.4327C524.338 54.5908 524.34 54.7461 524.32 54.8984C524.301 55.0455 524.236 55.1842 524.127 55.3142C524.021 55.4447 523.88 55.5456 523.705 55.6171C523.533 55.6863 523.336 55.7063 523.114 55.677C522.794 55.6348 522.569 55.5092 522.439 55.3003C522.309 55.0914 522.265 54.8256 522.308 54.5029C522.36 54.1053 522.489 53.8229 522.695 53.6557Z" fill="#59BB49"/>
<path d="M509 48L530 51L528 63.5L507 60.5L509 48ZM514.944 54.0082C514.685 53.8401 514.374 53.732 514.01 53.684C513.819 53.6588 513.657 53.648 513.525 53.6516C513.394 53.6526 513.28 53.6574 513.185 53.6658L513.494 52.2724L515.636 52.555L515.742 51.7533L512.799 51.365L512.22 54.1059L512.588 54.3948C512.708 54.3791 512.857 54.3698 513.033 54.3668C513.212 54.3616 513.379 54.3692 513.534 54.3896C513.976 54.4478 514.288 54.5796 514.471 54.785C514.657 54.9882 514.729 55.2524 514.686 55.5777C514.653 55.823 514.575 56.0189 514.451 56.1653C514.329 56.3121 514.168 56.4118 513.97 56.4644C513.771 56.517 513.54 56.5259 513.277 56.4911C513.029 56.4584 512.774 56.3906 512.512 56.2878C512.25 56.1823 512.029 56.0626 511.85 55.9286L511.741 56.7496C511.914 56.8774 512.124 56.984 512.373 57.0693C512.624 57.155 512.899 57.2174 513.195 57.2566C513.663 57.3183 514.069 57.2931 514.415 57.1811C514.761 57.0691 515.036 56.8809 515.242 56.6165C515.448 56.3494 515.577 56.0171 515.63 55.6195C515.678 55.2555 515.641 54.938 515.519 54.6672C515.397 54.3937 515.206 54.1741 514.944 54.0082ZM520.226 54.3386C520.354 54.1638 520.435 53.9486 520.469 53.693C520.524 53.2747 520.411 52.9209 520.128 52.6315C519.846 52.3395 519.415 52.1552 518.834 52.0785C518.439 52.0264 518.086 52.0363 517.774 52.1081C517.463 52.18 517.189 52.2818 516.954 52.4136L517.308 53.1026C517.437 53.0408 517.572 52.985 517.712 52.9353C517.853 52.8855 518.004 52.8489 518.164 52.8255C518.328 52.8023 518.505 52.8034 518.696 52.8286C519.006 52.8695 519.23 52.9687 519.37 53.1263C519.509 53.2814 519.563 53.4802 519.531 53.7229C519.507 53.9088 519.44 54.0655 519.331 54.193C519.225 54.3208 519.067 54.4116 518.858 54.4654C518.649 54.5167 518.381 54.5207 518.053 54.4774L517.549 54.411L517.453 55.1429L517.952 55.2088C518.296 55.2541 518.572 55.3234 518.78 55.4165C518.991 55.51 519.139 55.6281 519.226 55.7708C519.314 55.9139 519.346 56.0861 519.319 56.2875C519.278 56.5999 519.145 56.8319 518.92 56.9834C518.695 57.1324 518.347 57.1758 517.874 57.1134C517.632 57.0814 517.379 57.0153 517.116 56.915C516.854 56.8146 516.61 56.6893 516.386 56.5388L516.279 57.3482C516.5 57.4877 516.737 57.5991 516.992 57.6826C517.248 57.7664 517.531 57.8285 517.838 57.869C518.349 57.9365 518.777 57.9181 519.122 57.8138C519.466 57.7096 519.734 57.5401 519.926 57.3052C520.117 57.0678 520.234 56.7852 520.278 56.4573C520.327 56.0829 520.251 55.7668 520.048 55.509C519.848 55.2515 519.526 55.0645 519.082 54.9481L519.086 54.921C519.327 54.9004 519.545 54.8424 519.739 54.7471C519.936 54.6496 520.098 54.5135 520.226 54.3386ZM524.984 56.4321C525.076 56.1158 525.144 55.7899 525.188 55.4542C525.243 55.0386 525.241 54.6692 525.181 54.3461C525.121 54.0204 525.015 53.7424 524.861 53.512C524.708 53.279 524.517 53.0962 524.288 52.9635C524.061 52.8285 523.806 52.7423 523.522 52.7048C523.145 52.6551 522.807 52.6906 522.507 52.8113C522.208 52.9294 521.963 53.123 521.772 53.3921C521.582 53.6612 521.46 53.9958 521.408 54.396C521.359 54.7651 521.383 55.0901 521.48 55.3708C521.58 55.6493 521.741 55.8728 521.963 56.0413C522.187 56.2101 522.462 56.316 522.788 56.3589C523.028 56.3906 523.236 56.3878 523.411 56.3506C523.587 56.3108 523.739 56.248 523.866 56.1623C523.993 56.074 524.102 55.9729 524.193 55.8588L524.24 55.8649C524.172 56.2605 524.06 56.607 523.906 56.9044C523.753 57.2021 523.531 57.4224 523.239 57.5651C522.95 57.7082 522.566 57.7482 522.089 57.6852C521.967 57.6692 521.846 57.6452 521.724 57.6134C521.605 57.5793 521.498 57.5416 521.404 57.5003L521.304 58.2593C521.394 58.2922 521.511 58.3234 521.654 58.3528C521.799 58.3851 521.928 58.4086 522.039 58.4232C522.48 58.4815 522.865 58.4705 523.193 58.3904C523.522 58.3103 523.802 58.1765 524.034 57.9891C524.269 57.7995 524.464 57.5717 524.617 57.3056C524.773 57.0398 524.895 56.7486 524.984 56.4321Z" fill="#59BB49"/>
</svg>
