<svg width="920" height="755" viewBox="0 0 920 755" fill="none" xmlns="http://www.w3.org/2000/svg">
<path d="M520.906 42.2081L520.78 43.6204L519.041 43.4649L520.623 41.5592C520.7 41.464 520.773 41.366 520.842 41.265C520.911 41.1614 520.975 41.0599 521.034 40.9605L521.065 40.9633C521.057 41.0253 521.046 41.1041 521.032 41.1996C521.018 41.2925 521.004 41.3945 520.989 41.5056C520.974 41.6167 520.958 41.7329 520.942 41.8544C520.929 41.9734 520.917 42.0913 520.906 42.2081Z" fill="#59BB49"/>
<path d="M524.046 44.2772C524.013 43.95 524.017 43.5465 524.06 43.0666C524.103 42.5893 524.17 42.1927 524.261 41.8766C524.354 41.5608 524.481 41.329 524.641 41.1811C524.803 41.0309 525.009 40.967 525.258 40.9892C525.507 41.0115 525.698 41.111 525.831 41.2876C525.965 41.4616 526.049 41.7124 526.085 42.0398C526.122 42.3672 526.118 42.7696 526.076 43.2468C526.032 43.7293 525.963 44.1283 525.867 44.4439C525.773 44.7598 525.645 44.9902 525.483 45.1352C525.321 45.2802 525.117 45.3417 524.871 45.3196C524.624 45.2976 524.434 45.2008 524.3 45.0294C524.167 44.8554 524.082 44.6046 524.046 44.2772Z" fill="#59BB49"/>
<path d="M511 34.5L532 37.5L530 50.5L509 47.5L511 34.5ZM516.735 41.8978C516.469 41.7407 516.154 41.6458 515.788 41.613C515.596 41.5959 515.434 41.5919 515.303 41.601C515.171 41.6076 515.058 41.6171 514.963 41.6295L515.214 40.2244L517.366 40.4168L517.438 39.6114L514.481 39.347L514.018 42.1097L514.397 42.3829C514.517 42.3622 514.665 42.3466 514.841 42.3362C515.02 42.3235 515.187 42.3241 515.343 42.338C515.786 42.3777 516.104 42.4962 516.295 42.6938C516.489 42.8889 516.572 43.1499 516.543 43.4768C516.521 43.7232 516.451 43.9222 516.333 44.0737C516.217 44.2255 516.061 44.3318 515.865 44.3927C515.668 44.4535 515.438 44.4722 515.173 44.4485C514.924 44.4262 514.667 44.3692 514.4 44.2774C514.134 44.183 513.909 44.0726 513.724 43.9463L513.65 44.7711C513.828 44.8916 514.043 44.9892 514.295 45.0641C514.55 45.1392 514.826 45.19 515.124 45.2167C515.594 45.2587 515.999 45.2165 516.34 45.0901C516.68 44.9637 516.948 44.7641 517.142 44.4912C517.337 44.2158 517.452 43.8784 517.488 43.4789C517.52 43.1132 517.47 42.7976 517.337 42.532C517.204 42.2639 517.004 42.0525 516.735 41.8978ZM521.615 44.4598L522.385 44.5287L522.453 43.77L521.683 43.7011L522.013 40.0049L521.122 39.9253L518.187 43.4552L518.125 44.1477L520.712 44.3791L520.601 45.628L521.503 45.7087L521.615 44.4598ZM526.782 44.5533C526.887 44.1966 526.96 43.7888 527.002 43.3297C527.057 42.7149 527.033 42.1834 526.932 41.7351C526.834 41.2845 526.651 40.9309 526.384 40.6743C526.12 40.4153 525.767 40.2661 525.326 40.2267C524.859 40.1849 524.474 40.2681 524.17 40.4763C523.867 40.6844 523.632 41.002 523.465 41.429C523.302 41.8536 523.193 42.372 523.138 42.9841C523.083 43.5963 523.105 44.1277 523.203 44.5783C523.302 45.0264 523.483 45.3799 523.748 45.6389C524.012 45.8952 524.364 46.043 524.802 46.0822C525.152 46.1135 525.457 46.0741 525.715 45.9638C525.973 45.8536 526.19 45.6795 526.366 45.4416C526.541 45.2036 526.68 44.9076 526.782 44.5533Z" fill="#59BB49"/>
</svg>
