<svg width="920" height="755" viewBox="0 0 920 755" fill="none" xmlns="http://www.w3.org/2000/svg">
<path d="M523.011 29.3777L522.817 30.7824L521.087 30.5435L522.759 28.716C522.84 28.6246 522.918 28.5302 522.992 28.4326C523.066 28.3324 523.135 28.2342 523.198 28.1377L523.229 28.142C523.218 28.2036 523.203 28.2817 523.185 28.3765C523.167 28.4686 523.148 28.5698 523.127 28.68C523.107 28.7902 523.086 28.9056 523.064 29.0261C523.045 29.1444 523.027 29.2616 523.011 29.3777Z" fill="#59BB49"/>
<path d="M512.5 21L534 24.5L532 37L511 34L512.5 21ZM518.859 28.8675C518.602 28.6978 518.291 28.5878 517.927 28.5376C517.736 28.5113 517.575 28.4995 517.443 28.5023C517.311 28.5026 517.198 28.5066 517.102 28.5144L517.42 27.123L519.56 27.4185L519.671 26.6175L516.73 26.2114L516.135 28.9487L516.501 29.2398C516.622 29.2249 516.77 29.2164 516.946 29.2145C517.126 29.2104 517.293 29.219 517.447 29.2403C517.889 29.3013 518.2 29.435 518.382 29.6415C518.567 29.8457 518.637 30.1104 518.592 30.4354C518.558 30.6805 518.478 30.8759 518.353 31.0216C518.23 31.1676 518.069 31.2663 517.87 31.3177C517.671 31.3691 517.44 31.3766 517.177 31.3403C516.93 31.3061 516.675 31.2368 516.413 31.1323C516.152 31.0252 515.932 30.9042 515.754 30.7691L515.64 31.5894C515.812 31.7183 516.022 31.8261 516.27 31.913C516.521 32.0002 516.795 32.0643 517.091 32.1053C517.558 32.1697 517.965 32.147 518.311 32.0371C518.658 31.9273 518.935 31.7407 519.142 31.4775C519.349 31.2118 519.481 30.8802 519.535 30.483C519.586 30.1192 519.551 29.8016 519.43 29.5299C519.311 29.2558 519.12 29.0349 518.859 28.8675ZM523.611 31.6609L524.377 31.7667L524.481 31.0121L523.715 30.9063L524.223 27.2303L523.336 27.1079L520.235 30.4928L520.14 31.1816L522.713 31.5369L522.541 32.779L523.439 32.903L523.611 31.6609ZM526.584 33.3373L527.497 33.4634L528.278 27.8062L527.52 27.7014L525.659 28.7851L526.036 29.4248L526.758 28.996C526.856 28.9333 526.948 28.8725 527.035 28.8135C527.125 28.7549 527.201 28.6997 527.263 28.6478C527.241 28.7525 527.219 28.8626 527.198 28.9779L527.141 29.3329C527.122 29.4538 527.104 29.5748 527.087 29.6961L526.584 33.3373Z" fill="#59BB49"/>
</svg>
