<svg width="920" height="755" viewBox="0 0 920 755" fill="none" xmlns="http://www.w3.org/2000/svg">
<path d="M494.906 25.2081L494.78 26.6204L493.041 26.4649L494.623 24.5592C494.7 24.464 494.773 24.366 494.842 24.265C494.911 24.1614 494.975 24.0599 495.034 23.9605L495.065 23.9633C495.057 24.0253 495.046 24.1041 495.032 24.1996C495.018 24.2925 495.004 24.3945 494.989 24.5056C494.974 24.6167 494.958 24.7329 494.942 24.8544C494.929 24.9734 494.917 25.0913 494.906 25.2081Z" fill="#59BB49"/>
<path d="M485.5 17L506.5 20L505 33L483.5 30.5L485.5 17ZM490.735 24.8978C490.469 24.7407 490.154 24.6458 489.788 24.613C489.596 24.5959 489.434 24.5919 489.303 24.601C489.171 24.6076 489.058 24.6171 488.963 24.6295L489.214 23.2244L491.366 23.4168L491.438 22.6114L488.481 22.347L488.018 25.1097L488.397 25.3829C488.517 25.3622 488.665 25.3466 488.841 25.3362C489.02 25.3235 489.187 25.3241 489.343 25.338C489.786 25.3777 490.104 25.4962 490.295 25.6938C490.489 25.8889 490.572 26.1499 490.543 26.4768C490.521 26.7232 490.451 26.9222 490.333 27.0737C490.217 27.2255 490.061 27.3318 489.865 27.3927C489.668 27.4535 489.438 27.4722 489.173 27.4485C488.924 27.4262 488.667 27.3692 488.4 27.2774C488.134 27.183 487.909 27.0726 487.724 26.9463L487.65 27.7711C487.828 27.8916 488.043 27.9892 488.295 28.0641C488.55 28.1392 488.826 28.19 489.124 28.2167C489.594 28.2587 489.999 28.2165 490.34 28.0901C490.68 27.9637 490.948 27.7641 491.142 27.4912C491.337 27.2158 491.452 26.8784 491.488 26.4789C491.52 26.1132 491.47 25.7976 491.337 25.532C491.204 25.2639 491.004 25.0525 490.735 24.8978ZM495.615 27.4598L496.385 27.5287L496.453 26.77L495.683 26.7011L496.013 23.0049L495.122 22.9253L492.187 26.4552L492.125 27.1477L494.712 27.3791L494.601 28.628L495.503 28.7087L495.615 27.4598ZM496.895 28.8332L500.747 29.1777L500.819 28.3762L498.126 28.1354L498.13 28.0926L499.2 27.2196C499.538 26.9518 499.831 26.7021 500.079 26.4707C500.327 26.2367 500.524 25.9954 500.669 25.747C500.814 25.4985 500.901 25.2212 500.928 24.9151C500.955 24.6117 500.908 24.3394 500.785 24.0984C500.666 23.8576 500.481 23.662 500.23 23.5114C499.98 23.3583 499.674 23.2656 499.314 23.2334C499.028 23.2079 498.771 23.2189 498.542 23.2664C498.313 23.3113 498.103 23.3814 497.911 23.4767C497.722 23.5722 497.543 23.6803 497.373 23.801L497.82 24.449C498.06 24.29 498.287 24.1717 498.503 24.0943C498.722 24.0146 498.955 23.9857 499.201 24.0077C499.461 24.0309 499.663 24.1209 499.808 24.2777C499.954 24.4319 500.015 24.6465 499.99 24.9215C499.97 25.1445 499.906 25.3467 499.799 25.5279C499.694 25.7094 499.539 25.8982 499.336 26.0944C499.133 26.2881 498.876 26.5174 498.565 26.7824L496.957 28.1445L496.895 28.8332Z" fill="#59BB49"/>
</svg>
