<svg width="920" height="755" viewBox="0 0 920 755" fill="none" xmlns="http://www.w3.org/2000/svg">
<path d="M494.179 37.6147L493.967 39.0168L492.241 38.7567L493.935 36.9499C494.017 36.8596 494.096 36.7661 494.171 36.6694C494.246 36.5702 494.316 36.4728 494.381 36.3771L494.412 36.3818C494.4 36.4432 494.384 36.5212 494.365 36.6157C494.346 36.7076 494.325 36.8085 494.303 36.9185C494.281 37.0284 494.259 37.1435 494.235 37.2638C494.215 37.3819 494.196 37.4988 494.179 37.6147Z" fill="#59BB49"/>
<path d="M483.5 31L505 33.5L503.5 46.5L481.5 43.5L483.5 31ZM490.033 37.0533C489.778 36.8804 489.468 36.7666 489.105 36.7119C488.915 36.6832 488.753 36.6694 488.622 36.6706C488.49 36.6693 488.376 36.6719 488.281 36.6785L488.616 35.2911L490.752 35.613L490.873 34.8135L487.937 34.3711L487.308 37.1009L487.671 37.3964C487.791 37.383 487.94 37.3764 488.116 37.3766C488.296 37.3747 488.462 37.3854 488.617 37.4087C489.057 37.475 489.367 37.6126 489.546 37.8213C489.729 38.0278 489.795 38.2933 489.746 38.6178C489.709 38.8624 489.627 39.0568 489.5 39.2009C489.376 39.3455 489.214 39.4422 489.014 39.4911C488.815 39.54 488.583 39.5447 488.321 39.5051C488.074 39.4679 487.82 39.3954 487.56 39.2877C487.3 39.1774 487.081 39.0537 486.904 38.9164L486.781 39.7353C486.951 39.8662 487.159 39.9767 487.407 40.0666C487.656 40.1569 487.929 40.2243 488.225 40.269C488.692 40.3392 489.098 40.3215 489.446 40.2159C489.794 40.1103 490.073 39.9272 490.283 39.6666C490.494 39.4034 490.63 39.0735 490.689 38.677C490.744 38.3139 490.713 37.9958 490.596 37.7227C490.48 37.4471 490.292 37.2239 490.033 37.0533ZM494.75 39.9051L495.515 40.0204L495.628 39.2671L494.863 39.1519L495.416 35.4824L494.532 35.3491L491.389 38.6954L491.285 39.383L493.854 39.7701L493.667 41.01L494.563 41.145L494.75 39.9051ZM499.954 38.1809C500.086 38.0085 500.171 37.7948 500.209 37.5398C500.272 37.1227 500.165 36.7668 499.888 36.4723C499.611 36.1751 499.183 35.9829 498.604 35.8956C498.21 35.8362 497.857 35.8396 497.544 35.9057C497.231 35.9718 496.956 36.0686 496.718 36.196L497.06 36.8914C497.19 36.832 497.325 36.7787 497.467 36.7316C497.608 36.6844 497.76 36.6506 497.921 36.6301C498.084 36.61 498.261 36.6143 498.452 36.643C498.761 36.6896 498.984 36.7929 499.12 36.9531C499.257 37.1107 499.307 37.3105 499.271 37.5525C499.243 37.7379 499.173 37.8934 499.062 38.0189C498.954 38.1447 498.794 38.2326 498.584 38.2826C498.374 38.3299 498.106 38.329 497.779 38.2797L497.277 38.204L497.167 38.9341L497.665 39.0092C498.007 39.0608 498.282 39.1351 498.488 39.232C498.698 39.3294 498.844 39.4502 498.928 39.5945C499.014 39.7392 499.042 39.9119 499.011 40.1128C498.965 40.4244 498.827 40.6539 498.6 40.8013C498.372 40.9461 498.023 40.983 497.552 40.912C497.31 40.8755 497.058 40.8047 496.798 40.6996C496.537 40.5945 496.296 40.4647 496.074 40.3101L495.953 41.1174C496.171 41.2609 496.406 41.3767 496.659 41.4648C496.914 41.5533 497.195 41.6206 497.501 41.6668C498.011 41.7437 498.439 41.7331 498.786 41.6352C499.133 41.5374 499.404 41.3728 499.599 41.1415C499.795 40.9077 499.918 40.6272 499.967 40.3002C500.023 39.9268 499.952 39.6094 499.755 39.3478C499.56 39.0867 499.241 38.8938 498.799 38.7693L498.803 38.7422C499.045 38.726 499.264 38.6721 499.46 38.5804C499.658 38.4866 499.823 38.3534 499.954 38.1809Z" fill="#59BB49"/>
</svg>
