<svg width="920" height="755" viewBox="0 0 920 755" fill="none" xmlns="http://www.w3.org/2000/svg">
<path d="M491.211 50.6651L490.989 52.0656L489.265 51.792L490.973 49.9984C491.056 49.9087 491.135 49.8158 491.211 49.7198C491.287 49.6211 491.358 49.5242 491.423 49.4291L491.454 49.434C491.442 49.4953 491.425 49.5732 491.405 49.6675C491.385 49.7593 491.364 49.8601 491.341 49.9698C491.319 50.0796 491.295 50.1946 491.271 50.3146C491.249 50.4325 491.23 50.5494 491.211 50.6651Z" fill="#59BB49"/>
<path d="M495.851 51.4011L495.629 52.8015L493.905 52.528L495.613 50.7344C495.696 50.6447 495.775 50.5518 495.851 50.4558C495.927 50.3571 495.998 50.2602 496.063 50.1651L496.094 50.17C496.082 50.2313 496.065 50.3092 496.045 50.4035C496.025 50.4953 496.004 50.5961 495.981 50.7058C495.959 50.8156 495.935 50.9305 495.911 51.0506C495.89 51.1685 495.87 51.2853 495.851 51.4011Z" fill="#59BB49"/>
<path d="M481.5 44L503 47L501 59.5L479.5 56.5L481.5 44ZM487.071 50.0716C486.816 49.8968 486.508 49.7806 486.145 49.7231C485.955 49.6929 485.794 49.6779 485.662 49.6781C485.53 49.6757 485.417 49.6774 485.321 49.6833L485.667 48.2986L487.8 48.637L487.927 47.8384L484.995 47.3733L484.345 50.0981L484.705 50.3965C484.826 50.384 484.975 50.3785 485.151 50.3801C485.33 50.3796 485.497 50.3916 485.651 50.416C486.091 50.4858 486.4 50.6257 486.578 50.8358C486.758 51.0438 486.823 51.3098 486.771 51.6339C486.733 51.8782 486.649 52.0719 486.521 52.2151C486.395 52.3586 486.233 52.4541 486.033 52.5015C485.833 52.5489 485.601 52.5518 485.339 52.5101C485.092 52.471 484.839 52.3965 484.58 52.2868C484.321 52.1746 484.103 52.0491 483.927 51.9105L483.798 52.7284C483.966 52.8606 484.174 52.9727 484.421 53.0645C484.67 53.1567 484.942 53.2263 485.238 53.2732C485.703 53.3471 486.11 53.3325 486.459 53.2296C486.808 53.1267 487.088 52.9458 487.3 52.6868C487.513 52.4252 487.651 52.0964 487.714 51.7003C487.772 51.3377 487.743 51.0194 487.628 50.7454C487.514 50.4689 487.328 50.2443 487.071 50.0716ZM491.765 52.9598L492.529 53.081L492.648 52.3287L491.884 52.2075L492.466 48.5424L491.582 48.4023L488.413 51.7242L488.304 52.4109L490.87 52.8179L490.673 54.0563L491.568 54.1983L491.765 52.9598ZM496.405 53.6958L497.169 53.817L497.288 53.0647L496.524 52.9435L497.106 49.2784L496.222 49.1383L493.053 52.4602L492.944 53.1469L495.51 53.5539L495.313 54.7923L496.209 54.9343L496.405 53.6958Z" fill="#59BB49"/>
</svg>
