<svg width="920" height="755" viewBox="0 0 920 755" fill="none" xmlns="http://www.w3.org/2000/svg">
<path d="M489.205 63.656L488.985 65.0568L487.26 64.7857L488.966 62.9897C489.049 62.8999 489.128 62.8069 489.204 62.7107C489.28 62.6119 489.35 62.515 489.415 62.4197L489.446 62.4246C489.434 62.4859 489.418 62.5638 489.398 62.6582C489.378 62.75 489.357 62.8508 489.334 62.9606C489.312 63.0704 489.289 63.1854 489.264 63.3055C489.243 63.4234 489.224 63.5402 489.205 63.656Z" fill="#59BB49"/>
<path d="M479.5 57L501 60L499 72L477.5 69L479.5 57ZM485.064 63.0683C484.809 62.8938 484.501 62.7781 484.138 62.7211C483.947 62.6912 483.786 62.6764 483.654 62.6767C483.523 62.6745 483.409 62.6764 483.313 62.6825L483.658 61.2972L485.792 61.6327L485.917 60.8339L482.985 60.3729L482.339 63.0986L482.699 63.3965C482.82 63.3838 482.968 63.3782 483.145 63.3795C483.324 63.3787 483.491 63.3905 483.645 63.4147C484.085 63.4839 484.394 63.6234 484.572 63.8332C484.753 64.0409 484.818 64.3068 484.767 64.631C484.728 64.8754 484.645 65.0692 484.517 65.2126C484.392 65.3563 484.229 65.452 484.029 65.4997C483.829 65.5473 483.598 65.5505 483.336 65.5093C483.089 65.4705 482.835 65.3964 482.576 65.287C482.317 65.1751 482.099 65.05 481.923 64.9116L481.795 65.7297C481.964 65.8617 482.171 65.9734 482.418 66.0649C482.667 66.1568 482.94 66.226 483.236 66.2725C483.701 66.3457 484.108 66.3306 484.457 66.2272C484.805 66.1238 485.085 65.9424 485.297 65.6832C485.51 65.4213 485.647 65.0923 485.71 64.6961C485.767 64.3334 485.738 64.0151 485.622 63.7413C485.508 63.465 485.321 63.2406 485.064 63.0683ZM489.762 65.95L490.526 66.0701L490.644 65.3176L489.88 65.1975L490.457 61.5316L489.573 61.3927L486.409 64.719L486.301 65.4059L488.867 65.8093L488.672 67.048L489.567 67.1887L489.762 65.95ZM494.346 64.5273C494.091 64.3529 493.783 64.2371 493.42 64.1801C493.23 64.1502 493.069 64.1354 492.937 64.1358C492.805 64.1335 492.692 64.1354 492.596 64.1415L492.94 62.7563L495.074 63.0917L495.2 62.2929L492.267 61.8319L491.621 64.5576L491.981 64.8555C492.102 64.8428 492.25 64.8372 492.427 64.8385C492.606 64.8377 492.773 64.8495 492.927 64.8737C493.367 64.9429 493.676 65.0824 493.854 65.2922C494.035 65.4999 494.1 65.7659 494.049 66.09C494.011 66.3344 493.927 66.5283 493.8 66.6716C493.674 66.8153 493.511 66.911 493.312 66.9587C493.112 67.0063 492.88 67.0095 492.618 66.9683C492.371 66.9295 492.118 66.8554 491.858 66.746C491.599 66.6341 491.381 66.509 491.205 66.3706L491.077 67.1887C491.246 67.3207 491.454 67.4324 491.7 67.5239C491.949 67.6158 492.222 67.685 492.518 67.7315C492.983 67.8047 493.39 67.7896 493.739 67.6862C494.087 67.5828 494.368 67.4014 494.58 67.1422C494.792 66.8803 494.93 66.5513 494.992 66.1551C495.049 65.7924 495.02 65.4741 494.905 65.2003C494.79 64.924 494.604 64.6996 494.346 64.5273Z" fill="#59BB49"/>
</svg>
