<svg width="920" height="755" viewBox="0 0 920 755" fill="none" xmlns="http://www.w3.org/2000/svg">
<path d="M486.906 77.2081L486.78 78.6204L485.041 78.4649L486.623 76.5592C486.7 76.464 486.773 76.366 486.842 76.265C486.911 76.1614 486.975 76.0599 487.034 75.9605L487.065 75.9633C487.057 76.0253 487.046 76.1041 487.032 76.1996C487.018 76.2925 487.004 76.3945 486.989 76.5056C486.974 76.6167 486.958 76.7329 486.942 76.8544C486.929 76.9734 486.917 77.0913 486.906 77.2081Z" fill="#59BB49"/>
<path d="M491.685 80.1101C491.489 80.2861 491.243 80.3608 490.948 80.3344C490.771 80.3186 490.62 80.2659 490.495 80.1762C490.37 80.0866 490.269 79.9743 490.192 79.8393C490.115 79.7017 490.062 79.5544 490.031 79.3975C490.001 79.2405 489.992 79.0868 490.006 78.9363C490.019 78.7885 490.076 78.6472 490.177 78.5124C490.281 78.3779 490.418 78.2712 490.59 78.1924C490.762 78.1137 490.957 78.084 491.175 78.1035C491.494 78.1321 491.724 78.2481 491.865 78.4516C492.009 78.6553 492.066 78.9193 492.037 79.2435C492.002 79.643 491.884 79.9318 491.685 80.1101Z" fill="#59BB49"/>
<path d="M477.5 69.5L499 72.5L497 85.5L475.5 82.5L477.5 69.5ZM482.735 76.8978C482.469 76.7407 482.154 76.6458 481.788 76.613C481.596 76.5959 481.434 76.5919 481.303 76.601C481.171 76.6076 481.058 76.6171 480.963 76.6295L481.214 75.2244L483.366 75.4168L483.438 74.6114L480.481 74.347L480.018 77.1097L480.397 77.3829C480.517 77.3622 480.665 77.3466 480.841 77.3362C481.02 77.3235 481.187 77.3241 481.343 77.338C481.786 77.3777 482.104 77.4962 482.295 77.6938C482.489 77.8889 482.572 78.1499 482.543 78.4768C482.521 78.7232 482.451 78.9222 482.333 79.0737C482.217 79.2255 482.061 79.3318 481.865 79.3927C481.668 79.4535 481.438 79.4722 481.173 79.4485C480.924 79.4262 480.667 79.3692 480.4 79.2774C480.134 79.183 479.909 79.0726 479.724 78.9463L479.65 79.7711C479.828 79.8916 480.043 79.9892 480.295 80.0641C480.55 80.1392 480.826 80.19 481.124 80.2167C481.594 80.2587 481.999 80.2165 482.34 80.0901C482.68 79.9637 482.948 79.7641 483.142 79.4912C483.337 79.2158 483.452 78.8784 483.488 78.4789C483.52 78.1132 483.47 77.7976 483.337 77.532C483.204 77.2639 483.004 77.0525 482.735 76.8978ZM487.615 79.4598L488.385 79.5287L488.453 78.77L487.683 78.7011L488.013 75.0049L487.122 74.9253L484.187 78.4552L484.125 79.1477L486.712 79.3791L486.601 80.628L487.503 80.7087L487.615 79.4598ZM489.278 77.428C489.202 77.748 489.15 78.0754 489.12 78.41C489.082 78.8302 489.1 79.2017 489.173 79.5246C489.246 79.8449 489.364 80.1169 489.527 80.3407C489.69 80.5644 489.888 80.739 490.12 80.8643C490.354 80.9899 490.613 81.0653 490.896 81.0906C491.28 81.1249 491.617 81.0766 491.909 80.9458C492.203 80.8153 492.438 80.6114 492.614 80.3344C492.793 80.0576 492.901 79.7181 492.937 79.3161C492.97 78.9426 492.931 78.6188 492.82 78.3448C492.711 78.071 492.539 77.8543 492.305 77.6948C492.071 77.5327 491.788 77.4368 491.456 77.4071C491.233 77.3872 491.035 77.4008 490.861 77.448C490.687 77.4925 490.537 77.5602 490.411 77.6509C490.285 77.7416 490.178 77.8484 490.088 77.9711L490.042 77.9669C490.096 77.5665 490.194 77.2158 490.336 76.9147C490.478 76.6111 490.691 76.3817 490.974 76.2266C491.257 76.0689 491.638 76.0114 492.115 76.0541C492.234 76.0648 492.353 76.0832 492.471 76.1095C492.591 76.1359 492.701 76.168 492.799 76.2055L492.867 75.4469C492.776 75.4152 492.659 75.3877 492.518 75.3646C492.376 75.3415 492.248 75.3248 492.134 75.3146C491.693 75.2752 491.31 75.3037 490.985 75.4001C490.66 75.4939 490.384 75.6392 490.158 75.836C489.934 76.0329 489.75 76.2675 489.608 76.5398C489.466 76.8121 489.356 77.1082 489.278 77.428Z" fill="#59BB49"/>
</svg>
