<svg width="920" height="755" viewBox="0 0 920 755" fill="none" xmlns="http://www.w3.org/2000/svg">
<path d="M485.116 90.5191L484.925 91.9242L483.195 91.6891L484.863 89.858C484.943 89.7664 485.021 89.6718 485.094 89.5741C485.169 89.4738 485.237 89.3753 485.3 89.2788L485.331 89.283C485.32 89.3446 485.306 89.4227 485.287 89.5175C485.27 89.6097 485.251 89.7109 485.23 89.8212C485.21 89.9314 485.189 90.0469 485.168 90.1674C485.149 90.2858 485.132 90.403 485.116 90.5191Z" fill="#59BB49"/>
<path d="M475.5 83L497 86L495 99L473.5 96L475.5 83ZM480.963 90.0179C480.705 89.8488 480.394 89.7395 480.03 89.69C479.839 89.6641 479.678 89.6527 479.546 89.6558C479.414 89.6563 479.301 89.6606 479.205 89.6686L479.52 88.2765L481.661 88.5674L481.77 87.7662L478.828 87.3664L478.239 90.105L478.606 90.3953C478.726 90.3801 478.874 90.3714 479.051 90.3691C479.23 90.3645 479.397 90.3728 479.552 90.3938C479.993 90.4538 480.305 90.5868 480.487 90.7929C480.672 90.9968 480.743 91.2613 480.699 91.5864C480.665 91.8316 480.586 92.0271 480.461 92.1731C480.339 92.3194 480.178 92.4185 479.979 92.4703C479.78 92.5221 479.549 92.5301 479.286 92.4943C479.038 92.4607 478.784 92.3919 478.522 92.288C478.26 92.1815 478.04 92.0609 477.861 91.9262L477.75 92.7468C477.922 92.8753 478.132 92.9827 478.38 93.069C478.631 93.1557 478.905 93.2192 479.202 93.2595C479.669 93.323 480.076 93.2994 480.422 93.1887C480.768 93.0781 481.044 92.8909 481.251 92.6273C481.458 92.3611 481.588 92.0293 481.642 91.6319C481.692 91.2681 481.656 90.9505 481.535 90.6791C481.415 90.4052 481.224 90.1848 480.963 90.0179ZM485.72 92.801L486.487 92.9052L486.589 92.1504L485.823 92.0462L486.323 88.3691L485.436 88.2486L482.342 91.6402L482.248 92.3292L484.822 92.679L484.653 93.9215L485.551 94.0435L485.72 92.801ZM490.465 89.7598L487.583 94.3195L488.562 94.4526L491.468 89.7187L491.553 89.0956L487.635 88.5633L487.527 89.3606L490.465 89.7598Z" fill="#59BB49"/>
</svg>
