<svg width="920" height="755" viewBox="0 0 920 755" fill="none" xmlns="http://www.w3.org/2000/svg">
<path d="M483.045 103.418L482.865 104.825L481.133 104.603L482.787 102.759C482.867 102.667 482.944 102.572 483.017 102.473C483.09 102.372 483.158 102.273 483.22 102.176L483.251 102.18C483.241 102.242 483.227 102.32 483.209 102.415C483.192 102.508 483.174 102.609 483.155 102.719C483.135 102.83 483.115 102.945 483.094 103.066C483.077 103.185 483.06 103.302 483.045 103.418Z" fill="#59BB49"/>
<path d="M486.12 106.399C485.965 106.217 485.903 106.001 485.935 105.753C485.957 105.58 486.016 105.432 486.11 105.307C486.208 105.183 486.335 105.077 486.494 104.99C486.652 104.9 486.838 104.825 487.05 104.766L487.168 104.832C487.343 104.941 487.5 105.056 487.639 105.176C487.782 105.294 487.89 105.422 487.964 105.56C488.041 105.699 488.069 105.851 488.048 106.016C488.015 106.274 487.898 106.471 487.697 106.605C487.496 106.739 487.222 106.784 486.876 106.74C486.527 106.696 486.275 106.582 486.12 106.399Z" fill="#59BB49"/>
<path d="M486.798 102.426C486.977 102.323 487.192 102.287 487.442 102.319C487.7 102.352 487.902 102.441 488.046 102.586C488.193 102.728 488.252 102.913 488.223 103.14C488.202 103.305 488.145 103.442 488.052 103.551C487.962 103.658 487.848 103.746 487.707 103.814C487.57 103.881 487.419 103.939 487.252 103.988C487.099 103.895 486.96 103.799 486.836 103.699C486.713 103.596 486.618 103.482 486.553 103.355C486.491 103.229 486.47 103.085 486.491 102.922C486.52 102.692 486.623 102.527 486.798 102.426Z" fill="#59BB49"/>
<path d="M473.5 96.5L494.5 99.5L492.5 112L471.5 109L473.5 96.5ZM478.889 102.949C478.629 102.782 478.317 102.675 477.953 102.628C477.762 102.604 477.601 102.594 477.469 102.598C477.337 102.599 477.224 102.605 477.128 102.613L477.433 101.219L479.575 101.493L479.678 100.691L476.733 100.314L476.166 103.057L476.534 103.345C476.655 103.328 476.803 103.319 476.979 103.315C477.158 103.309 477.326 103.316 477.481 103.336C477.922 103.392 478.235 103.523 478.419 103.728C478.606 103.93 478.678 104.194 478.637 104.52C478.605 104.765 478.527 104.961 478.404 105.108C478.282 105.255 478.123 105.356 477.924 105.409C477.726 105.462 477.495 105.472 477.231 105.438C476.983 105.407 476.728 105.34 476.465 105.238C476.203 105.133 475.982 105.015 475.802 104.881L475.697 105.703C475.87 105.83 476.081 105.936 476.33 106.02C476.581 106.105 476.856 106.166 477.153 106.204C477.62 106.264 478.027 106.237 478.372 106.124C478.717 106.011 478.992 105.821 479.197 105.556C479.402 105.288 479.53 104.955 479.581 104.558C479.627 104.193 479.589 103.876 479.466 103.606C479.344 103.333 479.151 103.114 478.889 102.949ZM483.667 105.695L484.435 105.794L484.531 105.038L483.764 104.94L484.235 101.259L483.348 101.145L480.28 104.561L480.192 105.25L482.769 105.58L482.609 106.824L483.508 106.939L483.667 105.695ZM488.407 101.887C488.157 101.75 487.868 101.661 487.54 101.619C487.219 101.578 486.92 101.592 486.64 101.661C486.364 101.731 486.134 101.856 485.95 102.038C485.767 102.216 485.657 102.453 485.619 102.747C485.59 102.977 485.606 103.186 485.669 103.372C485.735 103.556 485.833 103.725 485.963 103.878C486.093 104.029 486.24 104.169 486.405 104.297C486.184 104.366 485.976 104.459 485.783 104.576C485.592 104.693 485.432 104.841 485.305 105.019C485.177 105.197 485.096 105.416 485.063 105.677C485.022 105.992 485.063 106.273 485.183 106.519C485.304 106.763 485.502 106.965 485.776 107.123C486.049 107.281 486.392 107.387 486.802 107.44C487.185 107.489 487.527 107.469 487.83 107.382C488.133 107.292 488.379 107.143 488.568 106.933C488.761 106.722 488.877 106.457 488.918 106.139C488.951 105.886 488.921 105.658 488.829 105.454C488.739 105.251 488.609 105.068 488.438 104.904C488.27 104.738 488.082 104.587 487.874 104.45C488.086 104.377 488.28 104.288 488.456 104.182C488.633 104.073 488.778 103.94 488.893 103.781C489.011 103.623 489.084 103.429 489.113 103.199C489.151 102.902 489.106 102.643 488.977 102.421C488.848 102.2 488.658 102.022 488.407 101.887Z" fill="#59BB49"/>
</svg>
