<svg width="920" height="755" viewBox="0 0 920 755" fill="none" xmlns="http://www.w3.org/2000/svg">
<path d="M481.219 115.677L480.994 117.077L479.27 116.8L480.982 115.01C481.065 114.92 481.144 114.828 481.22 114.732C481.297 114.633 481.368 114.537 481.433 114.442L481.464 114.446C481.451 114.508 481.435 114.586 481.415 114.68C481.395 114.772 481.373 114.872 481.35 114.982C481.327 115.092 481.304 115.207 481.279 115.327C481.258 115.445 481.238 115.561 481.219 115.677Z" fill="#59BB49"/>
<path d="M484.837 114.94C485.048 114.777 485.296 114.717 485.582 114.763C485.759 114.792 485.907 114.856 486.026 114.957C486.147 115.056 486.241 115.175 486.308 115.315C486.376 115.455 486.417 115.604 486.434 115.763C486.454 115.921 486.451 116.076 486.427 116.228C486.403 116.375 486.335 116.511 486.222 116.638C486.112 116.766 485.969 116.863 485.792 116.929C485.618 116.994 485.421 117.008 485.2 116.973C484.881 116.922 484.659 116.79 484.535 116.577C484.411 116.365 484.375 116.098 484.426 115.776C484.49 115.381 484.627 115.102 484.837 114.94Z" fill="#59BB49"/>
<path d="M471.5 109.5L492.5 112.5L490.5 124L469.5 121L471.5 109.5ZM477.079 115.076C476.825 114.901 476.517 114.784 476.154 114.726C475.964 114.695 475.803 114.68 475.671 114.68C475.54 114.677 475.426 114.679 475.33 114.684L475.679 113.3L477.812 113.643L477.94 112.844L475.009 112.374L474.354 115.097L474.714 115.396C474.834 115.384 474.983 115.379 475.159 115.381C475.339 115.381 475.505 115.393 475.66 115.418C476.099 115.488 476.408 115.629 476.585 115.839C476.765 116.048 476.829 116.314 476.777 116.638C476.738 116.882 476.654 117.075 476.526 117.218C476.4 117.362 476.237 117.457 476.037 117.504C475.837 117.551 475.606 117.553 475.343 117.511C475.097 117.472 474.843 117.397 474.584 117.287C474.325 117.174 474.108 117.048 473.933 116.909L473.801 117.727C473.97 117.859 474.178 117.972 474.424 118.064C474.673 118.157 474.945 118.227 475.241 118.274C475.706 118.349 476.113 118.335 476.462 118.233C476.811 118.131 477.091 117.95 477.304 117.692C477.518 117.43 477.656 117.102 477.72 116.706C477.778 116.343 477.75 116.025 477.636 115.751C477.522 115.474 477.336 115.249 477.079 115.076ZM481.768 117.973L482.532 118.095L482.653 117.343L481.889 117.221L482.477 113.557L481.594 113.415L478.419 116.731L478.309 117.418L480.873 117.829L480.675 119.067L481.57 119.211L481.768 117.973ZM487.048 117.78C487.149 117.466 487.226 117.142 487.279 116.808C487.346 116.394 487.354 116.025 487.303 115.7C487.252 115.373 487.154 115.092 487.007 114.857C486.86 114.62 486.674 114.432 486.449 114.293C486.226 114.152 485.973 114.059 485.69 114.013C485.315 113.953 484.976 113.979 484.673 114.091C484.371 114.201 484.12 114.388 483.922 114.651C483.724 114.915 483.594 115.246 483.53 115.644C483.471 116.012 483.486 116.338 483.575 116.621C483.667 116.902 483.821 117.13 484.039 117.305C484.258 117.48 484.53 117.593 484.854 117.645C485.093 117.684 485.301 117.687 485.478 117.654C485.655 117.62 485.808 117.561 485.937 117.479C486.067 117.394 486.179 117.296 486.273 117.185L486.32 117.192C486.241 117.586 486.12 117.929 485.956 118.222C485.796 118.515 485.568 118.729 485.272 118.864C484.979 118.998 484.594 119.028 484.118 118.951C483.998 118.932 483.877 118.905 483.756 118.869C483.638 118.832 483.532 118.791 483.439 118.747L483.318 119.503C483.407 119.539 483.523 119.573 483.665 119.607C483.81 119.643 483.937 119.67 484.048 119.688C484.487 119.758 484.872 119.758 485.203 119.687C485.533 119.616 485.817 119.491 486.055 119.31C486.295 119.127 486.496 118.904 486.656 118.643C486.82 118.381 486.95 118.094 487.048 117.78Z" fill="#59BB49"/>
</svg>
