<svg width="920" height="755" viewBox="0 0 920 755" fill="none" xmlns="http://www.w3.org/2000/svg">
<path d="M482.157 130.729C482.139 130.401 482.162 129.998 482.227 129.521C482.291 129.046 482.376 128.653 482.481 128.341C482.589 128.03 482.726 127.804 482.893 127.664C483.062 127.521 483.27 127.467 483.518 127.5C483.766 127.534 483.952 127.642 484.077 127.824C484.202 128.004 484.276 128.259 484.297 128.588C484.318 128.916 484.296 129.318 484.232 129.793C484.166 130.273 484.079 130.668 483.968 130.979C483.86 131.29 483.722 131.515 483.553 131.652C483.385 131.789 483.178 131.842 482.933 131.808C482.688 131.775 482.502 131.67 482.377 131.492C482.251 131.312 482.178 131.058 482.157 130.729Z" fill="#59BB49"/>
<path d="M469.5 121.5L490.5 124.5L488.5 137L467.5 134L469.5 121.5ZM474.963 128.018C474.704 127.849 474.393 127.739 474.029 127.69C473.838 127.664 473.677 127.653 473.545 127.656C473.414 127.656 473.3 127.661 473.204 127.669L473.52 126.276L475.66 126.567L475.769 125.766L472.827 125.366L472.239 128.105L472.605 128.395C472.725 128.38 472.874 128.371 473.05 128.369C473.23 128.364 473.397 128.373 473.551 128.394C473.993 128.454 474.304 128.587 474.487 128.793C474.672 128.997 474.742 129.261 474.698 129.586C474.665 129.831 474.586 130.027 474.461 130.173C474.339 130.319 474.178 130.418 473.979 130.47C473.78 130.522 473.549 130.53 473.286 130.494C473.038 130.461 472.783 130.392 472.522 130.288C472.26 130.182 472.04 130.061 471.861 129.926L471.75 130.747C471.921 130.875 472.132 130.983 472.38 131.069C472.631 131.156 472.905 131.219 473.202 131.259C473.669 131.323 474.075 131.299 474.422 131.189C474.768 131.078 475.044 130.891 475.251 130.627C475.458 130.361 475.588 130.029 475.642 129.632C475.692 129.268 475.656 128.95 475.535 128.679C475.415 128.405 475.224 128.185 474.963 128.018ZM479.618 128.65C479.36 128.481 479.049 128.372 478.685 128.322C478.494 128.296 478.332 128.285 478.201 128.288C478.069 128.288 477.956 128.293 477.86 128.301L478.175 126.909L480.316 127.199L480.424 126.398L477.483 125.999L476.894 128.737L477.261 129.027C477.381 129.012 477.529 129.004 477.706 129.001C477.885 128.997 478.052 129.005 478.207 129.026C478.648 129.086 478.96 129.219 479.142 129.425C479.327 129.629 479.398 129.893 479.354 130.218C479.32 130.464 479.241 130.659 479.116 130.805C478.994 130.951 478.833 131.051 478.634 131.102C478.436 131.154 478.205 131.162 477.941 131.126C477.694 131.093 477.439 131.024 477.177 130.92C476.915 130.814 476.695 130.693 476.517 130.558L476.405 131.379C476.577 131.508 476.787 131.615 477.035 131.701C477.286 131.788 477.56 131.851 477.857 131.892C478.324 131.955 478.731 131.931 479.077 131.821C479.423 131.71 479.7 131.523 479.906 131.259C480.113 130.993 480.244 130.661 480.298 130.264C480.347 129.9 480.311 129.582 480.19 129.311C480.07 129.037 479.879 128.817 479.618 128.65ZM484.878 131.13C484.999 130.779 485.091 130.375 485.153 129.918C485.236 129.306 485.237 128.774 485.157 128.322C485.079 127.867 484.913 127.506 484.658 127.237C484.405 126.966 484.06 126.801 483.621 126.742C483.157 126.678 482.768 126.744 482.455 126.938C482.142 127.132 481.893 127.438 481.707 127.857C481.525 128.274 481.392 128.787 481.309 129.396C481.226 130.005 481.224 130.537 481.301 130.991C481.379 131.444 481.544 131.805 481.797 132.076C482.049 132.344 482.394 132.508 482.83 132.567C483.178 132.614 483.484 132.589 483.747 132.49C484.01 132.392 484.235 132.228 484.421 131.999C484.607 131.769 484.759 131.479 484.878 131.13Z" fill="#59BB49"/>
</svg>
