<svg width="920" height="755" viewBox="0 0 920 755" fill="none" xmlns="http://www.w3.org/2000/svg">
<path d="M467.5 134.5L488.5 137.5L486.5 150L465.5 147L467.5 134.5ZM473.735 140.898C473.469 140.741 473.154 140.646 472.788 140.613C472.596 140.596 472.434 140.592 472.303 140.601C472.171 140.608 472.058 140.617 471.963 140.629L472.214 139.224L474.366 139.417L474.438 138.611L471.481 138.347L471.018 141.11L471.397 141.383C471.517 141.362 471.665 141.347 471.841 141.336C472.02 141.323 472.187 141.324 472.343 141.338C472.786 141.378 473.104 141.496 473.295 141.694C473.489 141.889 473.572 142.15 473.543 142.477C473.521 142.723 473.451 142.922 473.333 143.074C473.217 143.225 473.061 143.332 472.865 143.393C472.668 143.454 472.438 143.472 472.173 143.448C471.924 143.426 471.667 143.369 471.4 143.277C471.134 143.183 470.909 143.073 470.724 142.946L470.65 143.771C470.828 143.892 471.043 143.989 471.295 144.064C471.55 144.139 471.826 144.19 472.124 144.217C472.594 144.259 472.999 144.216 473.34 144.09C473.68 143.964 473.948 143.764 474.142 143.491C474.337 143.216 474.452 142.878 474.488 142.479C474.52 142.113 474.47 141.798 474.337 141.532C474.204 141.264 474.004 141.053 473.735 140.898ZM478.414 141.316C478.149 141.159 477.833 141.064 477.467 141.032C477.275 141.014 477.114 141.01 476.982 141.02C476.851 141.026 476.737 141.036 476.642 141.048L476.893 139.643L479.045 139.835L479.117 139.03L476.16 138.765L475.697 141.528L476.077 141.801C476.196 141.781 476.344 141.765 476.52 141.755C476.699 141.742 476.866 141.743 477.022 141.756C477.466 141.796 477.783 141.915 477.975 142.112C478.169 142.307 478.251 142.568 478.222 142.895C478.2 143.142 478.13 143.341 478.012 143.492C477.896 143.644 477.741 143.75 477.544 143.811C477.348 143.872 477.117 143.891 476.853 143.867C476.604 143.845 476.346 143.788 476.08 143.696C475.814 143.601 475.588 143.491 475.404 143.365L475.33 144.19C475.507 144.31 475.722 144.408 475.974 144.483C476.229 144.558 476.506 144.609 476.804 144.635C477.273 144.677 477.678 144.635 478.019 144.509C478.36 144.382 478.627 144.183 478.822 143.91C479.016 143.634 479.132 143.297 479.167 142.897C479.2 142.532 479.15 142.216 479.017 141.951C478.884 141.682 478.683 141.471 478.414 141.316ZM481.665 144.992L482.584 145.074L483.092 139.385L482.33 139.317L480.523 140.489L480.93 141.11L481.63 140.647C481.725 140.58 481.815 140.514 481.899 140.451C481.985 140.388 482.059 140.33 482.118 140.275C482.101 140.381 482.085 140.491 482.069 140.608L482.029 140.965C482.016 141.087 482.004 141.208 481.993 141.33L481.665 144.992Z" fill="#59BB49"/>
</svg>
