<svg width="920" height="755" viewBox="0 0 920 755" fill="none" xmlns="http://www.w3.org/2000/svg">
<path d="M465.5 147.5L486 150.5L484.5 163L463.5 160.5L465.5 147.5ZM471.735 153.898C471.469 153.741 471.154 153.646 470.788 153.613C470.596 153.596 470.434 153.592 470.303 153.601C470.171 153.608 470.058 153.617 469.963 153.629L470.214 152.224L472.366 152.417L472.438 151.611L469.481 151.347L469.018 154.11L469.397 154.383C469.517 154.362 469.665 154.347 469.841 154.336C470.02 154.323 470.187 154.324 470.343 154.338C470.786 154.378 471.104 154.496 471.295 154.694C471.489 154.889 471.572 155.15 471.543 155.477C471.521 155.723 471.451 155.922 471.333 156.074C471.217 156.225 471.061 156.332 470.865 156.393C470.668 156.454 470.438 156.472 470.173 156.448C469.924 156.426 469.667 156.369 469.4 156.277C469.134 156.183 468.909 156.073 468.724 155.946L468.65 156.771C468.828 156.892 469.043 156.989 469.295 157.064C469.55 157.139 469.826 157.19 470.124 157.217C470.594 157.259 470.999 157.216 471.34 157.09C471.68 156.964 471.948 156.764 472.142 156.491C472.337 156.216 472.452 155.878 472.488 155.479C472.52 155.113 472.47 154.798 472.337 154.532C472.204 154.264 472.004 154.053 471.735 153.898ZM476.414 154.316C476.149 154.159 475.833 154.064 475.467 154.032C475.275 154.014 475.114 154.01 474.982 154.02C474.851 154.026 474.737 154.036 474.642 154.048L474.893 152.643L477.045 152.835L477.117 152.03L474.16 151.765L473.697 154.528L474.077 154.801C474.196 154.781 474.344 154.765 474.52 154.755C474.699 154.742 474.866 154.743 475.022 154.756C475.466 154.796 475.783 154.915 475.975 155.112C476.169 155.307 476.251 155.568 476.222 155.895C476.2 156.142 476.13 156.341 476.012 156.492C475.896 156.644 475.741 156.75 475.544 156.811C475.348 156.872 475.117 156.891 474.853 156.867C474.604 156.845 474.346 156.788 474.08 156.696C473.814 156.601 473.588 156.491 473.404 156.365L473.33 157.19C473.507 157.31 473.722 157.408 473.974 157.483C474.229 157.558 474.506 157.609 474.804 157.635C475.273 157.677 475.678 157.635 476.019 157.509C476.36 157.382 476.627 157.183 476.822 156.91C477.016 156.634 477.132 156.297 477.167 155.897C477.2 155.532 477.15 155.216 477.017 154.951C476.884 154.682 476.683 154.471 476.414 154.316ZM477.895 157.833L481.747 158.178L481.819 157.376L479.126 157.135L479.13 157.093L480.2 156.22C480.538 155.952 480.831 155.702 481.079 155.471C481.327 155.237 481.524 154.995 481.669 154.747C481.814 154.498 481.901 154.221 481.928 153.915C481.955 153.612 481.908 153.339 481.785 153.098C481.666 152.858 481.481 152.662 481.23 152.511C480.98 152.358 480.674 152.266 480.314 152.233C480.028 152.208 479.771 152.219 479.542 152.266C479.313 152.311 479.103 152.381 478.911 152.477C478.722 152.572 478.543 152.68 478.373 152.801L478.82 153.449C479.06 153.29 479.287 153.172 479.503 153.094C479.722 153.015 479.955 152.986 480.201 153.008C480.461 153.031 480.663 153.121 480.808 153.278C480.954 153.432 481.015 153.647 480.99 153.921C480.97 154.145 480.906 154.347 480.799 154.528C480.694 154.709 480.539 154.898 480.336 155.094C480.133 155.288 479.876 155.517 479.565 155.782L477.957 157.145L477.895 157.833Z" fill="#59BB49"/>
</svg>
