<svg width="920" height="755" viewBox="0 0 920 755" fill="none" xmlns="http://www.w3.org/2000/svg">
<path d="M463.5 161L484.5 163.5L482.5 176L461.5 173L463.5 161ZM469.735 166.898C469.469 166.741 469.154 166.646 468.788 166.613C468.596 166.596 468.434 166.592 468.303 166.601C468.171 166.608 468.058 166.617 467.963 166.629L468.214 165.224L470.366 165.417L470.438 164.611L467.481 164.347L467.018 167.11L467.397 167.383C467.517 167.362 467.665 167.347 467.841 167.336C468.02 167.323 468.187 167.324 468.343 167.338C468.786 167.378 469.104 167.496 469.295 167.694C469.489 167.889 469.572 168.15 469.543 168.477C469.521 168.723 469.451 168.922 469.333 169.074C469.217 169.225 469.061 169.332 468.865 169.393C468.668 169.454 468.438 169.472 468.173 169.448C467.924 169.426 467.667 169.369 467.4 169.277C467.134 169.183 466.909 169.073 466.724 168.946L466.65 169.771C466.828 169.892 467.043 169.989 467.295 170.064C467.55 170.139 467.826 170.19 468.124 170.217C468.594 170.259 468.999 170.216 469.34 170.09C469.68 169.964 469.948 169.764 470.142 169.491C470.337 169.216 470.452 168.878 470.488 168.479C470.52 168.113 470.47 167.798 470.337 167.532C470.204 167.264 470.004 167.053 469.735 166.898ZM474.414 167.316C474.149 167.159 473.833 167.064 473.467 167.032C473.275 167.014 473.114 167.01 472.982 167.02C472.851 167.026 472.737 167.036 472.642 167.048L472.893 165.643L475.045 165.835L475.117 165.03L472.16 164.765L471.697 167.528L472.077 167.801C472.196 167.781 472.344 167.765 472.52 167.755C472.699 167.742 472.866 167.743 473.022 167.756C473.466 167.796 473.783 167.915 473.975 168.112C474.169 168.307 474.251 168.568 474.222 168.895C474.2 169.142 474.13 169.341 474.012 169.492C473.896 169.644 473.741 169.75 473.544 169.811C473.348 169.872 473.117 169.891 472.853 169.867C472.604 169.845 472.346 169.788 472.08 169.696C471.814 169.601 471.588 169.491 471.404 169.365L471.33 170.19C471.507 170.31 471.722 170.408 471.974 170.483C472.229 170.558 472.506 170.609 472.804 170.635C473.273 170.677 473.678 170.635 474.019 170.509C474.36 170.382 474.627 170.183 474.822 169.91C475.016 169.634 475.132 169.297 475.167 168.897C475.2 168.532 475.15 168.216 475.017 167.951C474.884 167.682 474.683 167.471 474.414 167.316ZM479.706 167.425C479.827 167.245 479.898 167.026 479.921 166.769C479.959 166.349 479.831 166 479.537 165.723C479.243 165.443 478.804 165.277 478.22 165.225C477.823 165.19 477.471 165.214 477.163 165.299C476.854 165.384 476.585 165.497 476.356 165.639L476.739 166.312C476.865 166.245 476.997 166.184 477.135 166.128C477.274 166.073 477.423 166.03 477.582 165.999C477.744 165.969 477.922 165.963 478.113 165.98C478.425 166.008 478.653 166.098 478.799 166.249C478.945 166.398 479.008 166.595 478.986 166.839C478.969 167.025 478.909 167.185 478.806 167.317C478.705 167.449 478.551 167.546 478.344 167.609C478.138 167.669 477.87 167.684 477.54 167.655L477.034 167.609L476.969 168.345L477.471 168.39C477.815 168.42 478.094 168.478 478.306 168.562C478.521 168.647 478.674 168.759 478.766 168.898C478.861 169.037 478.899 169.208 478.881 169.41C478.853 169.724 478.73 169.961 478.512 170.122C478.294 170.28 477.947 170.338 477.473 170.296C477.229 170.274 476.974 170.218 476.707 170.129C476.441 170.04 476.192 169.925 475.961 169.784L475.889 170.597C476.115 170.727 476.357 170.829 476.614 170.901C476.875 170.974 477.159 171.025 477.468 171.052C477.981 171.098 478.408 171.062 478.748 170.943C479.088 170.825 479.349 170.644 479.53 170.401C479.711 170.156 479.817 169.869 479.846 169.539C479.88 169.163 479.79 168.851 479.577 168.602C479.367 168.353 479.037 168.179 478.588 168.082L478.591 168.054C478.831 168.024 479.047 167.957 479.236 167.853C479.429 167.748 479.585 167.605 479.706 167.425Z" fill="#59BB49"/>
</svg>
