<svg width="920" height="755" viewBox="0 0 920 755" fill="none" xmlns="http://www.w3.org/2000/svg">
<path d="M476.552 180.888L476.354 182.292L474.625 182.048L476.303 180.225C476.384 180.134 476.462 180.04 476.536 179.943C476.611 179.843 476.68 179.745 476.743 179.648L476.774 179.653C476.763 179.714 476.748 179.792 476.729 179.887C476.711 179.979 476.691 180.08 476.671 180.19C476.65 180.301 476.628 180.416 476.606 180.536C476.587 180.655 476.569 180.772 476.552 180.888Z" fill="#59BB49"/>
<path d="M461.5 173.5L482.5 176.5L480.5 189L459.5 186L461.5 173.5ZM467.75 179.707C467.493 179.537 467.183 179.426 466.819 179.375C466.628 179.348 466.467 179.335 466.335 179.338C466.203 179.338 466.09 179.341 465.994 179.349L466.317 177.958L468.456 178.261L468.569 177.46L465.629 177.045L465.026 179.78L465.391 180.072C465.511 180.058 465.66 180.05 465.836 180.048C466.015 180.045 466.183 180.054 466.337 180.076C466.778 180.138 467.089 180.273 467.27 180.48C467.454 180.685 467.524 180.95 467.478 181.275C467.443 181.519 467.363 181.715 467.237 181.86C467.114 182.006 466.953 182.104 466.754 182.155C466.555 182.205 466.323 182.212 466.06 182.175C465.813 182.14 465.558 182.07 465.297 181.965C465.036 181.857 464.817 181.735 464.639 181.599L464.523 182.419C464.694 182.549 464.903 182.657 465.151 182.745C465.402 182.833 465.676 182.898 465.972 182.94C466.439 183.006 466.846 182.984 467.192 182.875C467.539 182.767 467.816 182.581 468.025 182.318C468.233 182.053 468.365 181.722 468.421 181.325C468.473 180.961 468.439 180.644 468.319 180.372C468.2 180.097 468.011 179.876 467.75 179.707ZM472.402 180.365C472.145 180.194 471.834 180.083 471.471 180.032C471.28 180.005 471.119 179.993 470.987 179.995C470.855 179.995 470.742 179.999 470.646 180.006L470.969 178.616L473.108 178.918L473.221 178.117L470.281 177.702L469.678 180.437L470.043 180.73C470.163 180.715 470.312 180.707 470.488 180.706C470.667 180.702 470.834 180.711 470.989 180.733C471.43 180.795 471.741 180.93 471.922 181.137C472.106 181.342 472.175 181.607 472.13 181.932C472.095 182.177 472.015 182.372 471.889 182.517C471.766 182.663 471.605 182.761 471.406 182.812C471.206 182.862 470.975 182.869 470.712 182.832C470.465 182.797 470.21 182.727 469.949 182.622C469.688 182.514 469.469 182.392 469.291 182.257L469.175 183.077C469.346 183.206 469.555 183.314 469.803 183.402C470.054 183.49 470.328 183.555 470.624 183.597C471.091 183.663 471.498 183.641 471.844 183.533C472.191 183.424 472.468 183.238 472.676 182.975C472.885 182.71 473.017 182.379 473.073 181.982C473.125 181.619 473.091 181.301 472.971 181.029C472.852 180.754 472.663 180.533 472.402 180.365ZM477.145 183.173L477.911 183.281L478.017 182.527L477.251 182.419L477.77 178.744L476.885 178.619L473.773 181.994L473.675 182.683L476.247 183.046L476.072 184.288L476.969 184.414L477.145 183.173Z" fill="#59BB49"/>
</svg>
