<svg width="920" height="755" viewBox="0 0 920 755" fill="none" xmlns="http://www.w3.org/2000/svg">
<path d="M459.5 186.5L480.5 189.5L478.5 202L457.5 199L459.5 186.5ZM464.891 192.981C464.63 192.815 464.318 192.711 463.953 192.667C463.762 192.644 463.6 192.634 463.468 192.64C463.337 192.642 463.223 192.648 463.128 192.657L463.423 191.261L465.567 191.52L465.664 190.717L462.717 190.361L462.168 193.108L462.539 193.393C462.659 193.376 462.808 193.365 462.984 193.36C463.163 193.353 463.33 193.359 463.485 193.377C463.928 193.431 464.241 193.559 464.426 193.763C464.615 193.964 464.689 194.227 464.65 194.553C464.62 194.799 464.544 194.995 464.421 195.143C464.301 195.291 464.141 195.393 463.943 195.447C463.745 195.502 463.514 195.513 463.251 195.482C463.002 195.452 462.747 195.387 462.483 195.286C462.22 195.184 461.998 195.067 461.818 194.934L461.718 195.757C461.892 195.883 462.103 195.987 462.353 196.069C462.605 196.152 462.88 196.212 463.178 196.248C463.646 196.305 464.052 196.275 464.396 196.159C464.741 196.044 465.014 195.852 465.217 195.586C465.42 195.316 465.546 194.983 465.594 194.585C465.638 194.22 465.598 193.903 465.473 193.634C465.348 193.361 465.154 193.144 464.891 192.981ZM469.555 193.545C469.294 193.38 468.982 193.275 468.617 193.231C468.426 193.208 468.264 193.199 468.133 193.204C468.001 193.206 467.888 193.212 467.792 193.222L468.087 191.825L470.231 192.084L470.328 191.282L467.381 190.925L466.833 193.672L467.203 193.957C467.323 193.94 467.472 193.929 467.648 193.924C467.827 193.917 467.994 193.923 468.15 193.942C468.592 193.995 468.905 194.123 469.091 194.327C469.279 194.528 469.353 194.791 469.314 195.117C469.284 195.363 469.208 195.559 469.085 195.707C468.965 195.855 468.806 195.957 468.607 196.011C468.409 196.066 468.178 196.078 467.915 196.046C467.667 196.016 467.411 195.951 467.147 195.851C466.884 195.748 466.663 195.631 466.482 195.499L466.382 196.321C466.556 196.447 466.768 196.551 467.017 196.634C467.27 196.717 467.544 196.776 467.842 196.812C468.31 196.869 468.716 196.839 469.06 196.723C469.405 196.608 469.679 196.416 469.881 196.15C470.084 195.881 470.21 195.547 470.258 195.149C470.302 194.784 470.262 194.467 470.137 194.198C470.013 193.926 469.819 193.708 469.555 193.545ZM474.219 194.109C473.958 193.944 473.646 193.839 473.281 193.795C473.09 193.772 472.928 193.763 472.797 193.768C472.665 193.77 472.552 193.776 472.456 193.786L472.751 192.389L474.896 192.648L474.993 191.846L472.045 191.489L471.497 194.236L471.867 194.521C471.988 194.504 472.136 194.493 472.312 194.488C472.491 194.481 472.659 194.487 472.814 194.506C473.256 194.559 473.569 194.688 473.755 194.891C473.943 195.092 474.017 195.356 473.978 195.681C473.948 195.927 473.872 196.124 473.749 196.271C473.629 196.419 473.47 196.521 473.272 196.576C473.073 196.63 472.843 196.642 472.579 196.61C472.331 196.58 472.075 196.515 471.812 196.415C471.549 196.312 471.327 196.195 471.146 196.063L471.046 196.885C471.22 197.011 471.432 197.115 471.681 197.198C471.934 197.281 472.209 197.34 472.506 197.376C472.974 197.433 473.38 197.403 473.725 197.288C474.069 197.172 474.343 196.981 474.545 196.714C474.748 196.445 474.874 196.111 474.922 195.713C474.966 195.348 474.926 195.031 474.801 194.762C474.677 194.49 474.483 194.272 474.219 194.109Z" fill="#59BB49"/>
</svg>
