<svg width="920" height="755" viewBox="0 0 920 755" fill="none" xmlns="http://www.w3.org/2000/svg">
<path d="M471.753 209.604C471.549 209.772 471.301 209.836 471.006 209.797C470.831 209.773 470.682 209.714 470.561 209.619C470.44 209.524 470.343 209.408 470.272 209.27C470.202 209.129 470.155 208.979 470.131 208.821C470.107 208.663 470.106 208.509 470.125 208.359C470.145 208.212 470.208 208.074 470.315 207.943C470.424 207.813 470.566 207.713 470.741 207.641C470.916 207.57 471.112 207.549 471.329 207.578C471.646 207.62 471.871 207.746 472.004 207.955C472.139 208.165 472.185 208.431 472.142 208.754C472.089 209.151 471.959 209.435 471.753 209.604Z" fill="#59BB49"/>
<path d="M457.5 199.5L478.5 202.5L476 215L455.5 212L457.5 199.5ZM462.949 206.011C462.69 205.842 462.379 205.734 462.015 205.685C461.824 205.66 461.662 205.649 461.53 205.653C461.399 205.654 461.285 205.658 461.19 205.666L461.501 204.273L463.642 204.558L463.749 203.757L460.806 203.365L460.225 206.106L460.592 206.395C460.713 206.379 460.861 206.37 461.037 206.367C461.217 206.362 461.384 206.37 461.539 206.391C461.98 206.449 462.292 206.581 462.475 206.787C462.661 206.99 462.732 207.255 462.689 207.58C462.656 207.825 462.578 208.021 462.453 208.167C462.331 208.314 462.171 208.413 461.972 208.466C461.773 208.518 461.542 208.527 461.279 208.492C461.031 208.459 460.776 208.391 460.514 208.288C460.252 208.182 460.032 208.062 459.853 207.928L459.744 208.749C459.916 208.877 460.126 208.984 460.375 209.069C460.626 209.155 460.9 209.218 461.197 209.257C461.664 209.319 462.071 209.295 462.417 209.183C462.763 209.071 463.038 208.883 463.244 208.619C463.451 208.352 463.58 208.02 463.633 207.623C463.681 207.259 463.645 206.941 463.523 206.67C463.402 206.397 463.21 206.177 462.949 206.011ZM467.606 206.63C467.347 206.461 467.036 206.353 466.672 206.305C466.481 206.279 466.319 206.268 466.188 206.272C466.056 206.273 465.943 206.277 465.847 206.285L466.158 204.892L468.299 205.177L468.406 204.376L465.463 203.984L464.882 206.725L465.25 207.014C465.37 206.998 465.518 206.989 465.695 206.986C465.874 206.981 466.041 206.989 466.196 207.01C466.637 207.068 466.949 207.2 467.132 207.406C467.318 207.609 467.389 207.874 467.346 208.199C467.313 208.444 467.235 208.64 467.11 208.786C466.988 208.933 466.828 209.032 466.629 209.085C466.431 209.137 466.2 209.146 465.936 209.111C465.688 209.078 465.433 209.01 465.171 208.907C464.91 208.801 464.689 208.681 464.51 208.547L464.401 209.368C464.573 209.496 464.783 209.603 465.032 209.688C465.283 209.774 465.557 209.837 465.854 209.876C466.321 209.938 466.728 209.914 467.074 209.802C467.42 209.69 467.696 209.502 467.901 209.238C468.108 208.971 468.237 208.639 468.29 208.242C468.338 207.878 468.302 207.56 468.18 207.289C468.059 207.016 467.868 206.796 467.606 206.63ZM469.463 206.821C469.374 207.138 469.307 207.463 469.262 207.796C469.207 208.214 469.209 208.586 469.268 208.911C469.327 209.235 469.434 209.511 469.587 209.742C469.74 209.973 469.93 210.155 470.156 210.291C470.385 210.426 470.64 210.513 470.922 210.55C471.304 210.601 471.643 210.567 471.94 210.449C472.24 210.331 472.483 210.137 472.671 209.868C472.862 209.599 472.984 209.265 473.037 208.865C473.087 208.493 473.062 208.168 472.962 207.889C472.865 207.611 472.703 207.387 472.476 207.218C472.249 207.046 471.971 206.938 471.64 206.894C471.418 206.864 471.219 206.87 471.043 206.909C470.868 206.946 470.715 207.007 470.585 207.093C470.456 207.178 470.344 207.28 470.249 207.399L470.203 207.392C470.274 206.995 470.387 206.649 470.542 206.354C470.697 206.057 470.919 205.837 471.209 205.694C471.499 205.548 471.881 205.507 472.356 205.57C472.475 205.586 472.593 205.61 472.709 205.641C472.828 205.673 472.937 205.709 473.033 205.751L473.134 204.996C473.044 204.96 472.929 204.928 472.788 204.899C472.648 204.87 472.52 204.848 472.407 204.832C471.968 204.774 471.584 204.786 471.255 204.869C470.927 204.948 470.645 205.082 470.41 205.268C470.178 205.456 469.985 205.682 469.831 205.948C469.678 206.214 469.555 206.505 469.463 206.821Z" fill="#59BB49"/>
</svg>
