<svg width="920" height="755" viewBox="0 0 920 755" fill="none" xmlns="http://www.w3.org/2000/svg">
<path d="M436 196.5L457 199.5L455 212L434 209L436 196.5ZM441.92 202.996C441.66 202.829 441.348 202.722 440.984 202.676C440.793 202.652 440.631 202.642 440.499 202.646C440.368 202.648 440.254 202.653 440.159 202.662L440.462 201.267L442.605 201.539L442.707 200.737L439.761 200.363L439.197 203.107L439.566 203.394C439.686 203.378 439.834 203.368 440.011 203.364C440.19 203.358 440.357 203.364 440.512 203.384C440.954 203.44 441.267 203.57 441.451 203.775C441.638 203.977 441.711 204.241 441.669 204.567C441.638 204.812 441.561 205.008 441.437 205.155C441.316 205.303 441.156 205.403 440.958 205.457C440.759 205.51 440.528 205.52 440.265 205.487C440.017 205.455 439.761 205.389 439.499 205.287C439.236 205.183 439.015 205.064 438.835 204.931L438.731 205.753C438.904 205.88 439.115 205.985 439.364 206.07C439.616 206.154 439.89 206.215 440.187 206.253C440.655 206.312 441.061 206.285 441.406 206.171C441.752 206.058 442.026 205.868 442.231 205.603C442.435 205.335 442.563 205.002 442.613 204.604C442.66 204.24 442.621 203.922 442.498 203.652C442.375 203.379 442.182 203.16 441.92 202.996ZM446.581 203.587C446.321 203.421 446.009 203.314 445.645 203.268C445.453 203.244 445.292 203.234 445.16 203.238C445.029 203.239 444.915 203.245 444.819 203.254L445.123 201.859L447.266 202.131L447.367 201.329L444.422 200.955L443.857 203.699L444.227 203.986C444.347 203.969 444.495 203.959 444.671 203.955C444.851 203.949 445.018 203.956 445.173 203.976C445.615 204.032 445.927 204.162 446.112 204.367C446.298 204.569 446.371 204.833 446.33 205.158C446.299 205.404 446.221 205.6 446.098 205.747C445.977 205.894 445.817 205.995 445.618 206.048C445.42 206.102 445.189 206.112 444.926 206.079C444.678 206.047 444.422 205.981 444.159 205.879C443.897 205.775 443.676 205.656 443.496 205.523L443.392 206.345C443.564 206.471 443.776 206.577 444.025 206.661C444.276 206.746 444.551 206.807 444.848 206.844C445.316 206.904 445.722 206.877 446.067 206.763C446.412 206.649 446.687 206.46 446.891 206.194C447.096 205.926 447.224 205.593 447.274 205.195C447.32 204.831 447.282 204.514 447.159 204.244C447.036 203.971 446.843 203.752 446.581 203.587ZM451.419 202.654L448.577 207.239L449.557 207.363L452.422 202.604L452.501 201.98L448.579 201.483L448.478 202.281L451.419 202.654Z" fill="#59BB49"/>
</svg>
