<svg width="920" height="755" viewBox="0 0 920 755" fill="none" xmlns="http://www.w3.org/2000/svg">
<path d="M451.143 193.363C450.987 193.182 450.923 192.967 450.953 192.719C450.973 192.546 451.03 192.397 451.124 192.271C451.22 192.146 451.347 192.04 451.505 191.951C451.662 191.859 451.847 191.783 452.059 191.722L452.177 191.787C452.353 191.895 452.511 192.008 452.652 192.127C452.795 192.244 452.905 192.371 452.98 192.508C453.058 192.646 453.087 192.798 453.068 192.963C453.037 193.222 452.921 193.419 452.722 193.555C452.522 193.692 452.249 193.739 451.902 193.698C451.553 193.656 451.3 193.545 451.143 193.363Z" fill="#59BB49"/>
<path d="M451.787 189.384C451.965 189.279 452.179 189.242 452.43 189.272C452.688 189.303 452.89 189.39 453.036 189.533C453.184 189.674 453.245 189.858 453.218 190.086C453.198 190.251 453.142 190.389 453.051 190.499C452.962 190.606 452.848 190.695 452.708 190.765C452.572 190.832 452.42 190.892 452.254 190.943C452.1 190.851 451.96 190.755 451.836 190.657C451.712 190.555 451.616 190.442 451.55 190.316C451.486 190.19 451.464 190.046 451.483 189.883C451.511 189.653 451.612 189.487 451.787 189.384Z" fill="#59BB49"/>
<path d="M438 183.5L459 186.5L457 199L436 196L438 183.5ZM443.882 189.976C443.621 189.811 443.308 189.707 442.944 189.664C442.752 189.641 442.591 189.632 442.459 189.638C442.328 189.64 442.214 189.646 442.119 189.656L442.411 188.259L444.556 188.515L444.652 187.712L441.704 187.36L441.16 190.108L441.531 190.392C441.651 190.375 441.799 190.364 441.976 190.359C442.155 190.351 442.322 190.357 442.477 190.375C442.92 190.428 443.233 190.556 443.419 190.759C443.608 190.96 443.682 191.223 443.644 191.549C443.614 191.795 443.538 191.991 443.416 192.139C443.296 192.288 443.137 192.389 442.939 192.444C442.741 192.5 442.51 192.511 442.246 192.48C441.998 192.45 441.742 192.386 441.479 192.286C441.215 192.184 440.993 192.067 440.812 191.935L440.714 192.758C440.888 192.883 441.1 192.987 441.35 193.069C441.602 193.152 441.877 193.211 442.175 193.246C442.643 193.302 443.049 193.272 443.393 193.156C443.737 193.039 444.011 192.848 444.213 192.581C444.416 192.311 444.541 191.977 444.588 191.579C444.632 191.214 444.591 190.897 444.465 190.628C444.34 190.356 444.146 190.139 443.882 189.976ZM448.547 190.532C448.286 190.367 447.974 190.263 447.609 190.22C447.418 190.197 447.256 190.188 447.124 190.194C446.993 190.196 446.879 190.202 446.784 190.212L447.076 188.815L449.221 189.071L449.317 188.268L446.369 187.916L445.825 190.664L446.196 190.948C446.316 190.931 446.465 190.92 446.641 190.915C446.82 190.907 446.987 190.913 447.143 190.931C447.585 190.984 447.899 191.112 448.084 191.315C448.273 191.516 448.348 191.779 448.309 192.105C448.279 192.351 448.204 192.547 448.081 192.695C447.961 192.844 447.802 192.945 447.604 193C447.406 193.056 447.175 193.067 446.911 193.036C446.663 193.006 446.407 192.942 446.144 192.842C445.881 192.74 445.658 192.623 445.477 192.491L445.379 193.314C445.553 193.439 445.765 193.543 446.015 193.625C446.267 193.708 446.542 193.767 446.84 193.802C447.308 193.858 447.714 193.828 448.058 193.712C448.403 193.595 448.676 193.404 448.878 193.137C449.081 192.867 449.206 192.533 449.253 192.135C449.297 191.77 449.256 191.453 449.13 191.184C449.006 190.912 448.811 190.695 448.547 190.532ZM453.391 188.832C453.139 188.697 452.849 188.61 452.521 188.571C452.2 188.533 451.901 188.549 451.622 188.621C451.346 188.693 451.117 188.82 450.935 189.003C450.754 189.184 450.646 189.421 450.61 189.716C450.583 189.946 450.601 190.154 450.666 190.34C450.733 190.524 450.832 190.692 450.964 190.844C451.095 190.993 451.244 191.132 451.41 191.259C451.189 191.33 450.982 191.424 450.79 191.543C450.6 191.662 450.442 191.811 450.316 191.99C450.19 192.169 450.111 192.389 450.08 192.65C450.042 192.966 450.085 193.246 450.208 193.492C450.331 193.735 450.53 193.934 450.805 194.09C451.08 194.246 451.423 194.349 451.834 194.398C452.217 194.443 452.559 194.421 452.861 194.331C453.163 194.239 453.408 194.087 453.596 193.876C453.787 193.663 453.901 193.397 453.939 193.079C453.969 192.825 453.937 192.597 453.843 192.395C453.752 192.192 453.62 192.01 453.448 191.848C453.279 191.684 453.09 191.534 452.88 191.399C453.091 191.324 453.284 191.233 453.46 191.126C453.635 191.015 453.78 190.881 453.893 190.721C454.009 190.562 454.081 190.367 454.109 190.137C454.144 189.84 454.096 189.581 453.965 189.361C453.834 189.14 453.643 188.964 453.391 188.832Z" fill="#59BB49"/>
</svg>
