<svg width="920" height="755" viewBox="0 0 920 755" fill="none" xmlns="http://www.w3.org/2000/svg">
<path d="M453.752 176.267C453.96 176.1 454.207 176.036 454.493 176.077C454.671 176.103 454.82 176.165 454.94 176.263C455.063 176.36 455.159 176.478 455.229 176.616C455.298 176.755 455.343 176.904 455.362 177.062C455.384 177.22 455.385 177.375 455.363 177.527C455.342 177.674 455.276 177.812 455.166 177.941C455.058 178.07 454.916 178.17 454.74 178.239C454.567 178.307 454.37 178.325 454.148 178.293C453.829 178.247 453.605 178.119 453.477 177.909C453.35 177.699 453.309 177.432 453.355 177.11C453.412 176.713 453.544 176.432 453.752 176.267Z" fill="#59BB49"/>
<path d="M440 170.5L461 173.5L459 186L438 183L440 170.5ZM445.997 176.535C445.74 176.364 445.43 176.253 445.066 176.201C444.876 176.173 444.714 176.161 444.582 176.163C444.451 176.163 444.337 176.166 444.242 176.174L444.567 174.784L446.705 175.09L446.819 174.289L443.881 173.869L443.273 176.603L443.637 176.896C443.758 176.882 443.906 176.874 444.082 176.873C444.262 176.87 444.429 176.879 444.583 176.901C445.024 176.964 445.335 177.099 445.516 177.307C445.7 177.512 445.768 177.777 445.722 178.102C445.687 178.347 445.606 178.542 445.48 178.687C445.357 178.832 445.196 178.93 444.996 178.981C444.797 179.031 444.566 179.037 444.303 179C444.055 178.964 443.801 178.894 443.54 178.788C443.279 178.68 443.06 178.558 442.882 178.422L442.765 179.241C442.936 179.371 443.145 179.48 443.393 179.568C443.643 179.656 443.917 179.722 444.213 179.764C444.68 179.831 445.087 179.81 445.434 179.702C445.781 179.594 446.058 179.409 446.267 179.146C446.476 178.882 446.608 178.551 446.665 178.154C446.717 177.79 446.684 177.473 446.565 177.2C446.446 176.926 446.257 176.704 445.997 176.535ZM450.648 177.2C450.391 177.029 450.081 176.918 449.717 176.866C449.526 176.839 449.365 176.826 449.233 176.828C449.102 176.828 448.988 176.831 448.892 176.839L449.217 175.449L451.356 175.755L451.47 174.954L448.531 174.534L447.923 177.268L448.288 177.561C448.408 177.547 448.557 177.539 448.733 177.538C448.912 177.535 449.08 177.544 449.234 177.566C449.675 177.629 449.986 177.765 450.167 177.972C450.35 178.177 450.419 178.442 450.373 178.767C450.338 179.012 450.257 179.207 450.131 179.352C450.008 179.497 449.846 179.595 449.647 179.646C449.448 179.696 449.217 179.703 448.954 179.665C448.706 179.63 448.452 179.559 448.191 179.453C447.93 179.345 447.711 179.223 447.533 179.087L447.416 179.907C447.587 180.036 447.796 180.145 448.044 180.233C448.294 180.322 448.568 180.387 448.864 180.43C449.331 180.496 449.738 180.476 450.084 180.367C450.431 180.259 450.709 180.074 450.918 179.812C451.126 179.547 451.259 179.216 451.316 178.819C451.368 178.456 451.335 178.138 451.216 177.866C451.097 177.591 450.908 177.369 450.648 177.2ZM456.011 179.068C456.106 178.753 456.177 178.428 456.225 178.093C456.284 177.678 456.286 177.308 456.23 176.985C456.174 176.658 456.07 176.379 455.919 176.147C455.769 175.912 455.58 175.727 455.352 175.592C455.127 175.455 454.872 175.366 454.589 175.325C454.212 175.272 453.874 175.303 453.573 175.421C453.272 175.536 453.025 175.727 452.832 175.993C452.638 176.26 452.513 176.594 452.456 176.993C452.403 177.362 452.424 177.687 452.518 177.969C452.615 178.248 452.773 178.474 452.993 178.645C453.216 178.816 453.49 178.925 453.815 178.971C454.054 179.006 454.262 179.005 454.438 178.97C454.615 178.932 454.767 178.871 454.895 178.786C455.023 178.699 455.133 178.599 455.226 178.486L455.272 178.493C455.2 178.888 455.085 179.233 454.927 179.529C454.771 179.825 454.547 180.043 454.253 180.182C453.962 180.322 453.578 180.358 453.101 180.29C452.98 180.272 452.859 180.247 452.737 180.214C452.619 180.179 452.512 180.14 452.419 180.097L452.31 180.855C452.4 180.889 452.516 180.922 452.659 180.953C452.804 180.986 452.932 181.011 453.043 181.027C453.484 181.09 453.869 181.084 454.198 181.007C454.528 180.93 454.809 180.8 455.044 180.615C455.281 180.428 455.477 180.202 455.634 179.938C455.792 179.674 455.918 179.384 456.011 179.068Z" fill="#59BB49"/>
</svg>
