<svg width="920" height="755" viewBox="0 0 920 755" fill="none" xmlns="http://www.w3.org/2000/svg">
<path d="M452.105 167.018C451.901 167.184 451.651 167.247 451.357 167.206C451.182 167.182 451.034 167.122 450.913 167.027C450.792 166.931 450.696 166.814 450.626 166.676C450.556 166.535 450.51 166.385 450.487 166.227C450.464 166.068 450.463 165.914 450.483 165.765C450.504 165.618 450.568 165.479 450.675 165.35C450.785 165.22 450.927 165.12 451.103 165.05C451.278 164.979 451.474 164.959 451.691 164.989C452.008 165.033 452.232 165.159 452.364 165.369C452.498 165.58 452.542 165.846 452.498 166.169C452.443 166.566 452.312 166.849 452.105 167.018Z" fill="#59BB49"/>
<path d="M455.161 166.749C455.144 166.42 455.168 166.018 455.233 165.54C455.299 165.066 455.385 164.673 455.491 164.361C455.599 164.05 455.737 163.825 455.903 163.685C456.073 163.542 456.281 163.488 456.529 163.523C456.777 163.557 456.963 163.665 457.087 163.848C457.212 164.028 457.285 164.283 457.305 164.612C457.326 164.94 457.303 165.342 457.238 165.817C457.172 166.297 457.083 166.692 456.972 167.002C456.863 167.313 456.725 167.537 456.556 167.675C456.387 167.812 456.18 167.863 455.935 167.83C455.69 167.796 455.505 167.69 455.379 167.512C455.254 167.332 455.182 167.078 455.161 166.749Z" fill="#59BB49"/>
<path d="M442 158L463 161L461 173L440 170L442 158ZM447.972 164.023C447.715 163.853 447.404 163.743 447.04 163.693C446.849 163.667 446.688 163.655 446.556 163.658C446.424 163.658 446.311 163.662 446.215 163.67L446.533 162.279L448.673 162.574L448.783 161.773L445.843 161.367L445.248 164.105L445.614 164.396C445.735 164.381 445.883 164.372 446.059 164.37C446.239 164.366 446.406 164.375 446.561 164.396C447.002 164.457 447.313 164.59 447.495 164.797C447.68 165.001 447.75 165.266 447.705 165.591C447.671 165.836 447.592 166.031 447.466 166.177C447.344 166.323 447.183 166.422 446.984 166.473C446.785 166.525 446.554 166.532 446.291 166.496C446.043 166.462 445.788 166.392 445.527 166.288C445.266 166.181 445.046 166.06 444.867 165.925L444.754 166.745C444.926 166.874 445.135 166.982 445.384 167.069C445.635 167.156 445.908 167.22 446.205 167.261C446.672 167.325 447.079 167.302 447.425 167.192C447.771 167.083 448.048 166.896 448.255 166.633C448.463 166.367 448.594 166.035 448.649 165.638C448.699 165.274 448.664 164.957 448.544 164.685C448.424 164.411 448.233 164.19 447.972 164.023ZM449.829 164.223C449.738 164.539 449.669 164.864 449.623 165.197C449.566 165.615 449.566 165.987 449.623 166.313C449.681 166.636 449.786 166.913 449.938 167.145C450.09 167.376 450.279 167.56 450.505 167.696C450.733 167.833 450.988 167.92 451.269 167.959C451.651 168.012 451.991 167.98 452.288 167.863C452.588 167.747 452.833 167.554 453.022 167.286C453.214 167.018 453.338 166.684 453.393 166.284C453.444 165.913 453.421 165.587 453.322 165.308C453.227 165.03 453.066 164.805 452.84 164.635C452.614 164.462 452.336 164.352 452.005 164.307C451.784 164.276 451.585 164.28 451.408 164.319C451.233 164.355 451.08 164.416 450.95 164.5C450.82 164.585 450.707 164.686 450.612 164.805L450.565 164.798C450.639 164.401 450.753 164.055 450.91 163.761C451.066 163.465 451.29 163.246 451.58 163.104C451.87 162.96 452.253 162.921 452.728 162.987C452.846 163.003 452.964 163.027 453.081 163.059C453.2 163.091 453.308 163.128 453.404 163.171L453.508 162.416C453.419 162.38 453.304 162.347 453.163 162.317C453.023 162.287 452.896 162.265 452.782 162.249C452.344 162.188 451.96 162.199 451.63 162.279C451.302 162.358 451.019 162.49 450.783 162.675C450.55 162.861 450.356 163.087 450.201 163.352C450.046 163.617 449.922 163.908 449.829 164.223ZM457.881 167.155C458.003 166.804 458.096 166.4 458.159 165.944C458.243 165.332 458.245 164.8 458.166 164.348C458.089 163.893 457.924 163.531 457.669 163.262C457.417 162.99 457.072 162.825 456.633 162.764C456.169 162.7 455.78 162.765 455.467 162.958C455.154 163.152 454.904 163.458 454.718 163.876C454.534 164.292 454.4 164.805 454.316 165.414C454.232 166.023 454.229 166.555 454.305 167.009C454.382 167.462 454.547 167.823 454.798 168.095C455.05 168.363 455.395 168.528 455.831 168.588C456.179 168.636 456.485 168.611 456.748 168.513C457.011 168.416 457.236 168.252 457.423 168.023C457.609 167.794 457.762 167.504 457.881 167.155Z" fill="#59BB49"/>
</svg>
