<svg width="920" height="755" viewBox="0 0 920 755" fill="none" xmlns="http://www.w3.org/2000/svg">
<path d="M454.226 154.17C454.022 154.337 453.773 154.401 453.479 154.362C453.304 154.338 453.155 154.279 453.034 154.184C452.913 154.089 452.817 153.972 452.746 153.834C452.675 153.693 452.628 153.544 452.605 153.385C452.581 153.227 452.58 153.073 452.6 152.924C452.619 152.776 452.683 152.638 452.789 152.508C452.899 152.378 453.041 152.277 453.216 152.206C453.391 152.135 453.587 152.114 453.804 152.143C454.121 152.185 454.346 152.311 454.478 152.521C454.613 152.731 454.659 152.997 454.616 153.32C454.563 153.717 454.433 154.001 454.226 154.17Z" fill="#59BB49"/>
<path d="M444 144.5L465 147.5L463 160.5L442 157.5L444 144.5ZM450.082 151.191C449.823 151.023 449.512 150.914 449.148 150.865C448.957 150.839 448.796 150.828 448.664 150.832C448.533 150.833 448.419 150.837 448.323 150.845L448.636 149.453L450.777 149.739L450.884 148.938L447.942 148.544L447.358 151.283L447.725 151.573C447.846 151.558 447.994 151.549 448.17 151.546C448.35 151.541 448.517 151.549 448.672 151.57C449.113 151.629 449.425 151.761 449.608 151.967C449.793 152.171 449.864 152.435 449.821 152.76C449.788 153.005 449.709 153.201 449.584 153.347C449.462 153.494 449.302 153.593 449.103 153.645C448.904 153.698 448.673 153.706 448.41 153.671C448.162 153.638 447.907 153.569 447.645 153.466C447.383 153.36 447.163 153.24 446.984 153.105L446.874 153.926C447.046 154.054 447.256 154.161 447.505 154.247C447.756 154.333 448.03 154.396 448.327 154.436C448.794 154.499 449.201 154.474 449.547 154.363C449.893 154.252 450.169 154.064 450.375 153.8C450.581 153.533 450.711 153.201 450.765 152.804C450.813 152.44 450.777 152.122 450.656 151.851C450.535 151.578 450.343 151.358 450.082 151.191ZM451.939 151.385C451.849 151.701 451.782 152.026 451.737 152.359C451.681 152.777 451.683 153.149 451.742 153.475C451.801 153.798 451.907 154.075 452.06 154.306C452.213 154.536 452.403 154.719 452.629 154.855C452.858 154.99 453.113 155.077 453.394 155.115C453.776 155.166 454.115 155.133 454.412 155.015C454.712 154.897 454.956 154.704 455.144 154.435C455.335 154.166 455.458 153.832 455.511 153.432C455.561 153.06 455.536 152.735 455.437 152.456C455.34 152.178 455.178 151.954 454.952 151.784C454.725 151.612 454.447 151.504 454.116 151.46C453.894 151.43 453.695 151.435 453.519 151.474C453.343 151.511 453.191 151.572 453.061 151.657C452.931 151.742 452.819 151.844 452.725 151.963L452.678 151.957C452.75 151.559 452.863 151.213 453.018 150.918C453.174 150.621 453.396 150.401 453.686 150.259C453.976 150.114 454.358 150.073 454.833 150.137C454.952 150.153 455.07 150.176 455.186 150.208C455.306 150.239 455.414 150.276 455.51 150.318L455.612 149.563C455.522 149.528 455.407 149.495 455.266 149.466C455.125 149.436 454.998 149.414 454.885 149.399C454.446 149.34 454.062 149.352 453.733 149.434C453.405 149.513 453.123 149.646 452.888 149.833C452.655 150.02 452.462 150.246 452.308 150.512C452.154 150.778 452.031 151.069 451.939 151.385ZM457.825 155.629L458.738 155.752L459.497 150.091L458.738 149.99L456.881 151.081L457.261 151.719L457.981 151.288C458.078 151.224 458.171 151.163 458.258 151.104C458.347 151.045 458.423 150.989 458.485 150.937C458.463 151.042 458.442 151.152 458.421 151.268L458.365 151.623C458.347 151.744 458.329 151.865 458.313 151.986L457.825 155.629Z" fill="#59BB49"/>
</svg>
