<svg width="920" height="755" viewBox="0 0 920 755" fill="none" xmlns="http://www.w3.org/2000/svg">
<path d="M456.113 141.047C455.908 141.213 455.659 141.274 455.365 141.233C455.19 141.208 455.042 141.147 454.921 141.051C454.801 140.955 454.706 140.837 454.636 140.699C454.567 140.557 454.521 140.407 454.499 140.249C454.477 140.091 454.476 139.937 454.498 139.787C454.519 139.64 454.583 139.502 454.691 139.373C454.801 139.244 454.944 139.145 455.12 139.075C455.296 139.005 455.492 138.986 455.708 139.017C456.025 139.062 456.249 139.19 456.38 139.4C456.513 139.611 456.556 139.878 456.51 140.2C456.454 140.597 456.321 140.88 456.113 141.047Z" fill="#59BB49"/>
<path d="M446 131.5L467 134.5L465 147L444 144L446 131.5ZM451.994 138.034C451.737 137.863 451.427 137.752 451.063 137.7C450.873 137.673 450.711 137.66 450.579 137.663C450.448 137.662 450.334 137.666 450.239 137.673L450.563 136.283L452.702 136.588L452.816 135.787L449.877 135.369L449.27 138.103L449.635 138.396C449.755 138.382 449.903 138.374 450.08 138.373C450.259 138.369 450.426 138.379 450.581 138.401C451.022 138.463 451.333 138.598 451.514 138.806C451.697 139.011 451.766 139.276 451.72 139.601C451.685 139.846 451.605 140.041 451.479 140.186C451.355 140.331 451.194 140.429 450.995 140.48C450.796 140.53 450.565 140.537 450.302 140.499C450.054 140.464 449.8 140.394 449.539 140.288C449.278 140.18 449.058 140.058 448.881 139.922L448.764 140.742C448.935 140.871 449.144 140.98 449.392 141.068C449.642 141.156 449.916 141.222 450.212 141.264C450.679 141.33 451.086 141.309 451.433 141.201C451.78 141.093 452.057 140.907 452.266 140.645C452.474 140.38 452.607 140.049 452.663 139.652C452.715 139.289 452.682 138.971 452.563 138.699C452.444 138.424 452.254 138.202 451.994 138.034ZM453.85 138.243C453.757 138.559 453.687 138.883 453.64 139.215C453.58 139.633 453.579 140.005 453.635 140.331C453.691 140.655 453.795 140.933 453.946 141.165C454.097 141.397 454.285 141.581 454.51 141.718C454.738 141.856 454.992 141.945 455.273 141.985C455.655 142.039 455.995 142.009 456.293 141.893C456.593 141.778 456.839 141.587 457.029 141.32C457.223 141.053 457.348 140.719 457.405 140.32C457.458 139.949 457.436 139.623 457.339 139.344C457.244 139.065 457.084 138.839 456.859 138.668C456.634 138.494 456.356 138.383 456.026 138.336C455.804 138.304 455.605 138.308 455.429 138.346C455.253 138.381 455.1 138.441 454.969 138.525C454.839 138.609 454.726 138.71 454.63 138.828L454.584 138.821C454.659 138.424 454.775 138.079 454.933 137.786C455.091 137.49 455.315 137.272 455.606 137.132C455.897 136.989 456.28 136.952 456.754 137.019C456.873 137.036 456.99 137.061 457.107 137.093C457.226 137.126 457.333 137.164 457.43 137.206L457.537 136.452C457.448 136.416 457.333 136.382 457.193 136.352C457.052 136.321 456.925 136.298 456.812 136.282C456.374 136.219 455.99 136.228 455.66 136.307C455.331 136.384 455.048 136.514 454.811 136.699C454.577 136.884 454.382 137.109 454.226 137.373C454.07 137.638 453.944 137.928 453.85 138.243ZM457.94 142.286L461.769 142.832L461.882 142.035L459.206 141.654L459.212 141.611L460.327 140.795C460.678 140.545 460.983 140.311 461.243 140.093C461.504 139.873 461.713 139.642 461.871 139.401C462.029 139.161 462.129 138.889 462.173 138.584C462.216 138.283 462.182 138.008 462.073 137.761C461.966 137.515 461.791 137.309 461.549 137.146C461.307 136.98 461.007 136.871 460.648 136.82C460.365 136.78 460.107 136.778 459.876 136.813C459.645 136.846 459.432 136.905 459.235 136.99C459.042 137.076 458.857 137.174 458.68 137.286L459.094 137.956C459.341 137.81 459.574 137.704 459.794 137.638C460.017 137.57 460.251 137.553 460.496 137.588C460.753 137.625 460.951 137.725 461.088 137.889C461.225 138.051 461.275 138.268 461.236 138.542C461.204 138.763 461.13 138.962 461.013 139.137C460.898 139.313 460.734 139.493 460.521 139.679C460.308 139.861 460.04 140.077 459.715 140.325L458.038 141.602L457.94 142.286Z" fill="#59BB49"/>
</svg>
