<svg width="920" height="755" viewBox="0 0 920 755" fill="none" xmlns="http://www.w3.org/2000/svg">
<path d="M458.138 128.138C457.931 128.3 457.681 128.359 457.387 128.313C457.212 128.285 457.065 128.223 456.946 128.125C456.827 128.027 456.734 127.909 456.666 127.769C456.599 127.626 456.555 127.476 456.535 127.317C456.515 127.159 456.517 127.005 456.54 126.855C456.563 126.709 456.63 126.572 456.739 126.444C456.851 126.316 456.996 126.219 457.172 126.152C457.349 126.085 457.545 126.068 457.761 126.102C458.078 126.151 458.3 126.282 458.427 126.495C458.557 126.708 458.597 126.975 458.547 127.296C458.485 127.693 458.349 127.973 458.138 128.138Z" fill="#59BB49"/>
<path d="M448 118L469 121.5L467 134L446 131L448 118ZM454.062 125.067C453.807 124.893 453.498 124.777 453.136 124.72C452.945 124.691 452.784 124.676 452.652 124.676C452.521 124.674 452.407 124.676 452.311 124.682L452.655 123.297L454.789 123.631L454.914 122.832L451.981 122.373L451.337 125.099L451.697 125.397C451.818 125.384 451.966 125.378 452.143 125.379C452.322 125.378 452.489 125.39 452.643 125.414C453.083 125.483 453.392 125.623 453.57 125.832C453.751 126.04 453.816 126.306 453.765 126.63C453.727 126.874 453.644 127.068 453.516 127.212C453.391 127.356 453.228 127.451 453.028 127.499C452.828 127.547 452.597 127.55 452.335 127.509C452.088 127.47 451.834 127.396 451.575 127.287C451.316 127.175 451.098 127.05 450.922 126.912L450.794 127.73C450.963 127.862 451.171 127.974 451.417 128.065C451.666 128.157 451.939 128.226 452.235 128.272C452.701 128.345 453.108 128.33 453.456 128.226C453.804 128.123 454.084 127.941 454.296 127.682C454.509 127.42 454.646 127.091 454.708 126.695C454.765 126.332 454.736 126.014 454.621 125.74C454.506 125.464 454.319 125.239 454.062 125.067ZM455.914 125.302C455.817 125.617 455.743 125.94 455.691 126.272C455.625 126.688 455.618 127.06 455.67 127.387C455.722 127.712 455.822 127.991 455.97 128.225C456.118 128.459 456.303 128.646 456.526 128.787C456.752 128.928 457.005 129.02 457.285 129.064C457.666 129.124 458.006 129.098 458.306 128.987C458.608 128.876 458.856 128.688 459.05 128.423C459.247 128.159 459.377 127.827 459.44 127.428C459.498 127.058 459.48 126.732 459.387 126.452C459.297 126.171 459.14 125.944 458.917 125.769C458.694 125.592 458.418 125.477 458.089 125.426C457.868 125.391 457.669 125.391 457.492 125.427C457.315 125.46 457.161 125.517 457.03 125.6C456.898 125.682 456.784 125.781 456.686 125.898L456.64 125.891C456.721 125.495 456.842 125.151 457.003 124.86C457.165 124.567 457.393 124.352 457.685 124.216C457.979 124.077 458.362 124.045 458.835 124.119C458.954 124.138 459.071 124.164 459.187 124.198C459.305 124.232 459.412 124.272 459.508 124.316L459.626 123.563C459.537 123.525 459.423 123.49 459.283 123.458C459.143 123.425 459.017 123.4 458.903 123.383C458.466 123.314 458.082 123.317 457.751 123.392C457.421 123.464 457.136 123.591 456.897 123.772C456.66 123.954 456.462 124.176 456.302 124.438C456.143 124.7 456.013 124.988 455.914 125.302ZM463.976 126.253C464.108 126.082 464.194 125.869 464.234 125.614C464.3 125.197 464.195 124.841 463.92 124.544C463.645 124.246 463.218 124.051 462.639 123.96C462.245 123.898 461.892 123.9 461.579 123.964C461.266 124.028 460.99 124.123 460.751 124.249L461.089 124.947C461.219 124.888 461.355 124.836 461.497 124.789C461.639 124.743 461.79 124.71 461.951 124.691C462.115 124.671 462.292 124.677 462.483 124.707C462.791 124.755 463.013 124.86 463.149 125.021C463.285 125.179 463.334 125.379 463.296 125.621C463.267 125.806 463.197 125.961 463.085 126.086C462.976 126.211 462.816 126.298 462.605 126.347C462.395 126.393 462.126 126.391 461.8 126.339L461.298 126.261L461.184 126.99L461.681 127.068C462.024 127.122 462.298 127.198 462.504 127.296C462.712 127.394 462.858 127.516 462.941 127.661C463.026 127.806 463.053 127.979 463.022 128.18C462.973 128.491 462.834 128.72 462.606 128.866C462.378 129.009 462.028 129.044 461.557 128.97C461.315 128.932 461.065 128.86 460.804 128.753C460.544 128.647 460.304 128.516 460.083 128.36L459.957 129.166C460.174 129.311 460.409 129.428 460.661 129.518C460.916 129.608 461.196 129.677 461.502 129.725C462.012 129.805 462.44 129.797 462.787 129.701C463.134 129.605 463.406 129.442 463.603 129.212C463.8 128.979 463.925 128.699 463.976 128.373C464.034 128 463.966 127.682 463.77 127.419C463.576 127.157 463.259 126.962 462.817 126.835L462.821 126.808C463.064 126.793 463.283 126.741 463.479 126.65C463.678 126.557 463.844 126.425 463.976 126.253Z" fill="#59BB49"/>
</svg>
