<svg width="920" height="755" viewBox="0 0 920 755" fill="none" xmlns="http://www.w3.org/2000/svg">
<path d="M460.097 114.99C459.893 115.157 459.645 115.221 459.35 115.182C459.175 115.158 459.026 115.099 458.905 115.004C458.784 114.909 458.688 114.792 458.617 114.654C458.546 114.513 458.499 114.364 458.476 114.206C458.452 114.047 458.45 113.894 458.47 113.744C458.49 113.597 458.553 113.458 458.66 113.328C458.769 113.198 458.911 113.097 459.086 113.026C459.262 112.955 459.457 112.934 459.674 112.963C459.992 113.005 460.217 113.131 460.349 113.341C460.484 113.55 460.53 113.817 460.487 114.139C460.433 114.537 460.304 114.82 460.097 114.99Z" fill="#59BB49"/>
<path d="M464.763 113.126L464.575 114.532L462.844 114.301L464.508 112.466C464.589 112.374 464.666 112.279 464.739 112.181C464.813 112.081 464.881 111.982 464.944 111.886L464.975 111.89C464.964 111.951 464.95 112.029 464.932 112.124C464.914 112.217 464.896 112.318 464.876 112.428C464.856 112.538 464.835 112.654 464.814 112.774C464.795 112.893 464.778 113.01 464.763 113.126Z" fill="#59BB49"/>
<path d="M450 106L471 109L469 121L448 117.5L450 106ZM455.952 112.012C455.693 111.844 455.382 111.735 455.018 111.687C454.827 111.661 454.666 111.65 454.534 111.653C454.402 111.654 454.289 111.659 454.193 111.667L454.505 110.274L456.647 110.56L456.754 109.759L453.811 109.366L453.228 112.106L453.595 112.395C453.716 112.38 453.864 112.37 454.04 112.368C454.22 112.363 454.387 112.371 454.542 112.391C454.983 112.45 455.295 112.583 455.478 112.788C455.664 112.992 455.735 113.256 455.691 113.581C455.658 113.827 455.58 114.022 455.455 114.169C455.333 114.315 455.173 114.415 454.974 114.467C454.775 114.519 454.544 114.528 454.281 114.493C454.033 114.459 453.778 114.391 453.516 114.288C453.254 114.182 453.034 114.062 452.855 113.928L452.745 114.748C452.917 114.877 453.127 114.983 453.376 115.069C453.627 115.155 453.901 115.218 454.198 115.258C454.665 115.32 455.072 115.296 455.418 115.184C455.764 115.073 456.04 114.885 456.246 114.621C456.452 114.354 456.582 114.022 456.635 113.625C456.684 113.261 456.647 112.943 456.526 112.672C456.405 112.399 456.214 112.179 455.952 112.012ZM457.809 112.205C457.719 112.522 457.652 112.846 457.608 113.179C457.552 113.597 457.554 113.969 457.612 114.295C457.672 114.618 457.778 114.895 457.931 115.126C458.084 115.357 458.274 115.54 458.5 115.675C458.729 115.811 458.984 115.897 459.265 115.935C459.647 115.986 459.987 115.952 460.284 115.834C460.583 115.717 460.827 115.523 461.015 115.254C461.206 114.986 461.329 114.651 461.382 114.251C461.432 113.879 461.407 113.554 461.307 113.276C461.211 112.997 461.049 112.773 460.822 112.604C460.595 112.432 460.317 112.323 459.986 112.279C459.764 112.25 459.565 112.255 459.389 112.294C459.213 112.331 459.061 112.392 458.931 112.477C458.802 112.562 458.689 112.664 458.595 112.783L458.548 112.777C458.62 112.379 458.733 112.033 458.888 111.739C459.043 111.441 459.266 111.221 459.555 111.079C459.845 110.934 460.228 110.893 460.703 110.956C460.822 110.972 460.939 110.996 461.056 111.027C461.175 111.059 461.283 111.096 461.38 111.137L461.481 110.382C461.391 110.347 461.276 110.314 461.135 110.285C460.995 110.256 460.868 110.233 460.754 110.218C460.315 110.16 459.932 110.171 459.603 110.254C459.274 110.333 458.992 110.466 458.757 110.653C458.525 110.84 458.332 111.066 458.178 111.332C458.024 111.598 457.901 111.889 457.809 112.205ZM465.372 115.407L466.139 115.509L466.24 114.754L465.473 114.652L465.965 110.974L465.078 110.855L461.991 114.254L461.899 114.943L464.474 115.287L464.308 116.53L465.206 116.65L465.372 115.407Z" fill="#59BB49"/>
</svg>
