<svg width="920" height="755" viewBox="0 0 920 755" fill="none" xmlns="http://www.w3.org/2000/svg">
<path d="M462.076 102.918C461.874 103.088 461.626 103.154 461.331 103.118C461.156 103.096 461.007 103.039 460.884 102.945C460.762 102.851 460.665 102.736 460.592 102.598C460.52 102.458 460.472 102.309 460.446 102.152C460.421 101.994 460.418 101.84 460.436 101.69C460.454 101.542 460.516 101.403 460.621 101.272C460.729 101.141 460.87 101.039 461.045 100.966C461.219 100.892 461.415 100.869 461.632 100.896C461.95 100.935 462.176 101.058 462.31 101.266C462.447 101.475 462.496 101.741 462.456 102.064C462.408 102.462 462.281 102.747 462.076 102.918Z" fill="#59BB49"/>
<path d="M452 93L473 96L471 108.5L450 105.5L452 93ZM457.899 99.9853C457.639 99.8195 457.327 99.7143 456.962 99.6695C456.771 99.646 456.609 99.6367 456.478 99.6415C456.346 99.6438 456.233 99.6495 456.137 99.6588L456.434 98.2627L458.578 98.5259L458.677 97.7233L455.73 97.3616L455.177 100.108L455.547 100.393C455.667 100.376 455.815 100.366 455.992 100.361C456.171 100.354 456.338 100.36 456.493 100.379C456.935 100.434 457.249 100.563 457.434 100.766C457.621 100.968 457.695 101.231 457.655 101.557C457.625 101.803 457.549 101.999 457.426 102.147C457.305 102.295 457.146 102.396 456.948 102.45C456.749 102.505 456.518 102.516 456.255 102.483C456.007 102.453 455.751 102.387 455.488 102.287C455.225 102.184 455.003 102.066 454.823 101.934L454.722 102.756C454.895 102.882 455.107 102.986 455.356 103.07C455.608 103.153 455.883 103.213 456.18 103.249C456.648 103.307 457.055 103.278 457.399 103.163C457.744 103.048 458.018 102.857 458.221 102.591C458.425 102.322 458.551 101.988 458.6 101.59C458.644 101.226 458.605 100.909 458.48 100.639C458.356 100.367 458.163 100.149 457.899 99.9853ZM459.758 100.158C459.672 100.476 459.609 100.801 459.568 101.135C459.516 101.553 459.522 101.925 459.584 102.25C459.647 102.573 459.756 102.849 459.912 103.078C460.067 103.307 460.259 103.488 460.487 103.62C460.717 103.754 460.973 103.838 461.255 103.872C461.637 103.919 461.976 103.882 462.272 103.761C462.57 103.64 462.812 103.444 462.997 103.173C463.185 102.902 463.304 102.566 463.353 102.166C463.399 101.794 463.37 101.469 463.268 101.191C463.168 100.914 463.004 100.692 462.775 100.525C462.547 100.355 462.267 100.25 461.936 100.209C461.714 100.182 461.515 100.189 461.339 100.23C461.164 100.269 461.012 100.332 460.883 100.418C460.755 100.505 460.644 100.608 460.55 100.728L460.504 100.722C460.571 100.324 460.681 99.9763 460.832 99.6801C460.984 99.3813 461.205 99.1591 461.493 99.0134C461.781 98.8651 462.163 98.8202 462.639 98.8786C462.758 98.8932 462.876 98.9155 462.993 98.9456C463.112 98.976 463.221 99.0116 463.318 99.0525L463.411 98.2964C463.321 98.2617 463.205 98.2305 463.064 98.2027C462.923 98.1749 462.796 98.154 462.682 98.1401C462.243 98.0862 461.859 98.102 461.531 98.1877C461.203 98.2708 460.923 98.4069 460.69 98.5961C460.459 98.7856 460.269 99.014 460.118 99.2815C459.967 99.549 459.847 99.8412 459.758 100.158ZM467.226 101.13C466.965 100.964 466.653 100.859 466.288 100.814C466.097 100.791 465.936 100.781 465.804 100.786C465.672 100.788 465.559 100.794 465.463 100.803L465.761 99.4073L467.905 99.6705L468.003 98.8679L465.057 98.5063L464.503 101.252L464.873 101.538C464.993 101.521 465.142 101.51 465.318 101.506C465.497 101.499 465.664 101.505 465.82 101.524C466.262 101.578 466.575 101.707 466.76 101.911C466.948 102.112 467.022 102.376 466.982 102.702C466.952 102.947 466.875 103.144 466.752 103.291C466.631 103.439 466.472 103.54 466.274 103.595C466.076 103.649 465.845 103.66 465.581 103.628C465.333 103.597 465.077 103.532 464.814 103.431C464.551 103.328 464.33 103.211 464.149 103.078L464.048 103.9C464.222 104.026 464.433 104.131 464.683 104.214C464.935 104.298 465.209 104.358 465.507 104.394C465.975 104.451 466.381 104.423 466.726 104.307C467.07 104.192 467.344 104.002 467.547 103.735C467.751 103.466 467.877 103.133 467.926 102.735C467.971 102.371 467.931 102.053 467.807 101.784C467.683 101.511 467.489 101.293 467.226 101.13Z" fill="#59BB49"/>
</svg>
