<svg width="920" height="755" viewBox="0 0 920 755" fill="none" xmlns="http://www.w3.org/2000/svg">
<path d="M464.072 89.9051C463.871 90.0748 463.623 90.1419 463.328 90.1063C463.152 90.0851 463.003 90.0278 462.88 89.9343C462.758 89.8408 462.66 89.7254 462.588 89.5881C462.515 89.4482 462.466 89.2994 462.441 89.1415C462.415 88.9837 462.412 88.8298 462.43 88.6798C462.448 88.5325 462.509 88.393 462.614 88.2614C462.722 88.1301 462.863 88.0278 463.037 87.9544C463.211 87.881 463.407 87.8574 463.624 87.8836C463.942 87.922 464.168 88.0451 464.303 88.2529C464.441 88.461 464.49 88.7266 464.451 89.0498C464.403 89.4479 464.277 89.733 464.072 89.9051Z" fill="#59BB49"/>
<path d="M468.736 90.4683C468.535 90.638 468.287 90.7051 467.992 90.6695C467.816 90.6483 467.667 90.591 467.545 90.4975C467.422 90.404 467.325 90.2886 467.252 90.1513C467.18 90.0114 467.131 89.8626 467.105 89.7047C467.08 89.5469 467.076 89.393 467.094 89.243C467.112 89.0957 467.173 88.9562 467.278 88.8246C467.386 88.6933 467.527 88.591 467.701 88.5176C467.875 88.4442 468.071 88.4206 468.288 88.4468C468.606 88.4852 468.832 88.6083 468.967 88.8161C469.105 89.0242 469.154 89.2898 469.115 89.613C469.067 90.0111 468.941 90.2962 468.736 90.4683Z" fill="#59BB49"/>
<path d="M454 80L475 83L473 95.5L452 92.5L454 80ZM459.89 86.9803C459.629 86.815 459.316 86.7104 458.952 86.6663C458.761 86.6432 458.599 86.6342 458.467 86.6393C458.336 86.6418 458.222 86.6478 458.127 86.6572L458.421 85.2606L460.566 85.5195L460.663 84.7168L457.715 84.3609L457.167 87.1079L457.538 87.3927C457.658 87.3758 457.807 87.3648 457.983 87.3599C458.162 87.3527 458.329 87.3584 458.484 87.3771C458.927 87.4305 459.24 87.5589 459.425 87.7623C459.614 87.9634 459.688 88.2268 459.649 88.5525C459.619 88.7982 459.543 88.9949 459.42 89.1427C459.3 89.2908 459.141 89.3922 458.943 89.447C458.745 89.5018 458.514 89.5133 458.25 89.4814C458.002 89.4514 457.746 89.3865 457.483 89.2865C457.22 89.1839 456.998 89.0666 456.817 88.9346L456.718 89.7567C456.891 89.8826 457.103 89.9869 457.353 90.0695C457.605 90.1524 457.88 90.2118 458.177 90.2477C458.645 90.3042 459.051 90.2746 459.396 90.1588C459.74 90.043 460.014 89.8518 460.217 89.5851C460.42 89.3158 460.545 88.9821 460.593 88.584C460.637 88.2194 460.597 87.9024 460.472 87.6329C460.347 87.3608 460.153 87.1432 459.89 86.9803ZM461.749 87.1497C461.663 87.4672 461.6 87.7928 461.56 88.1263C461.51 88.5451 461.516 88.917 461.579 89.242C461.642 89.5645 461.752 89.84 461.908 90.0687C462.064 90.2974 462.256 90.4779 462.484 90.6104C462.714 90.7431 462.971 90.8265 463.252 90.8606C463.635 90.9068 463.974 90.869 464.269 90.7473C464.567 90.6259 464.809 90.4295 464.994 90.158C465.181 89.8869 465.299 89.5509 465.348 89.1502C465.393 88.7779 465.364 88.4531 465.261 88.1757C465.16 87.8986 464.996 87.6768 464.767 87.5101C464.538 87.3408 464.258 87.2362 463.927 87.1963C463.705 87.1694 463.506 87.1769 463.33 87.2186C463.155 87.2578 463.003 87.3208 462.875 87.4076C462.746 87.4943 462.635 87.5977 462.542 87.7176L462.496 87.712C462.562 87.3134 462.671 86.9659 462.822 86.6694C462.974 86.3703 463.193 86.1476 463.481 86.0014C463.769 85.8526 464.151 85.8069 464.627 85.8643C464.746 85.8787 464.864 85.9008 464.981 85.9307C465.101 85.9608 465.209 85.9962 465.306 86.0369L465.398 85.2806C465.308 85.2461 465.192 85.2151 465.051 85.1876C464.91 85.1601 464.783 85.1395 464.669 85.1257C464.229 85.0727 463.846 85.0893 463.518 85.1756C463.19 85.2594 462.91 85.396 462.678 85.5856C462.447 85.7756 462.257 86.0044 462.107 86.2722C461.956 86.5399 461.837 86.8324 461.749 87.1497ZM466.413 87.7129C466.328 88.0304 466.265 88.356 466.224 88.6895C466.174 89.1083 466.18 89.4802 466.243 89.8052C466.307 90.1277 466.416 90.4032 466.572 90.6319C466.728 90.8606 466.92 91.0411 467.148 91.1736C467.379 91.3063 467.635 91.3897 467.917 91.4238C468.299 91.47 468.638 91.4322 468.934 91.3105C469.232 91.1891 469.473 90.9927 469.658 90.7212C469.846 90.45 469.963 90.1141 470.012 89.7134C470.057 89.3411 470.028 89.0163 469.925 88.7389C469.825 88.4618 469.66 88.24 469.431 88.0733C469.202 87.904 468.922 87.7994 468.591 87.7595C468.369 87.7326 468.17 87.7401 467.994 87.7818C467.819 87.821 467.667 87.884 467.539 87.9708C467.41 88.0575 467.299 88.1609 467.206 88.2808L467.16 88.2752C467.226 87.8766 467.335 87.5291 467.486 87.2326C467.638 86.9335 467.858 86.7108 468.145 86.5646C468.434 86.4158 468.815 86.3701 469.291 86.4275C469.41 86.4419 469.528 86.464 469.645 86.4939C469.765 86.524 469.873 86.5594 469.971 86.6001L470.062 85.8438C469.972 85.8093 469.856 85.7783 469.715 85.7508C469.574 85.7233 469.447 85.7027 469.333 85.6889C468.894 85.6359 468.51 85.6525 468.182 85.7388C467.855 85.8225 467.575 85.9592 467.342 86.1488C467.112 86.3388 466.921 86.5676 466.771 86.8354C466.621 87.1031 466.501 87.3956 466.413 87.7129Z" fill="#59BB49"/>
</svg>
