<svg width="920" height="755" viewBox="0 0 920 755" fill="none" xmlns="http://www.w3.org/2000/svg">
<path d="M466.086 76.9522C465.883 77.1205 465.635 77.1859 465.34 77.1482C465.165 77.1258 465.016 77.0674 464.894 76.973C464.772 76.8787 464.676 76.7626 464.604 76.6248C464.533 76.4844 464.485 76.3352 464.46 76.1772C464.436 76.0192 464.433 75.8653 464.452 75.7155C464.471 75.5682 464.534 75.4292 464.64 75.2983C464.748 75.1678 464.89 75.0665 465.064 74.9943C465.239 74.9221 465.435 74.8999 465.652 74.9276C465.97 74.9683 466.195 75.0929 466.329 75.3017C466.465 75.5107 466.512 75.7767 466.471 76.0996C466.42 76.4974 466.292 76.7816 466.086 76.9522Z" fill="#59BB49"/>
<path d="M456 66.5L477 69.5L475 82.5L454 79.5L456 66.5ZM461.924 73.9981C461.665 73.8311 461.353 73.7242 460.989 73.6777C460.798 73.6532 460.636 73.6431 460.504 73.6472C460.373 73.6488 460.259 73.654 460.164 73.6627L460.468 72.2682L462.611 72.5422L462.713 71.7401L459.768 71.3636L459.201 74.1067L459.57 74.3941C459.69 74.378 459.838 74.3681 460.015 74.3644C460.194 74.3584 460.361 74.3653 460.516 74.3852C460.958 74.4416 461.271 74.5722 461.455 74.7769C461.641 74.9793 461.714 75.2432 461.672 75.5687C461.641 75.8141 461.563 76.0103 461.44 76.1572C461.318 76.3045 461.158 76.4048 460.96 76.4582C460.762 76.5116 460.531 76.5214 460.267 76.4877C460.019 76.456 459.764 76.3892 459.501 76.2874C459.239 76.183 459.018 76.0641 458.838 75.9309L458.733 76.7523C458.906 76.8794 459.117 76.9851 459.366 77.0695C459.617 77.1542 459.892 77.2155 460.189 77.2535C460.656 77.3133 461.063 77.2865 461.408 77.1731C461.753 77.0598 462.028 76.8705 462.233 76.6052C462.438 76.3374 462.566 76.0045 462.617 75.6067C462.663 75.2425 462.625 74.9252 462.502 74.6548C462.379 74.3819 462.187 74.163 461.924 73.9981ZM463.782 74.1806C463.695 74.4975 463.629 74.8226 463.587 75.1558C463.533 75.5743 463.537 75.9463 463.598 76.2717C463.659 76.5946 463.766 76.8709 463.921 77.1006C464.075 77.3304 464.266 77.5123 464.493 77.6464C464.723 77.7807 464.978 77.8659 465.26 77.9019C465.642 77.9508 465.981 77.9154 466.278 77.7958C466.576 77.6765 466.819 77.4817 467.006 77.2116C467.195 76.9417 467.316 76.6066 467.367 76.2063C467.414 75.8343 467.388 75.5093 467.287 75.2312C467.188 74.9535 467.025 74.7304 466.797 74.5622C466.57 74.3913 466.291 74.2847 465.96 74.2424C465.738 74.214 465.539 74.2201 465.363 74.2606C465.188 74.2986 465.035 74.3605 464.906 74.4463C464.777 74.5322 464.665 74.6348 464.571 74.754L464.525 74.7481C464.594 74.35 464.705 74.0033 464.859 73.7078C465.012 73.4098 465.234 73.1887 465.522 73.0445C465.812 72.8977 466.194 72.8546 466.669 72.9154C466.788 72.9306 466.906 72.9536 467.023 72.9842C467.142 73.0153 467.25 73.0514 467.347 73.0927L467.444 72.3372C467.354 72.302 467.239 72.2702 467.098 72.2417C466.957 72.2132 466.83 72.1917 466.716 72.1772C466.277 72.121 465.893 72.1349 465.565 72.219C465.237 72.3004 464.956 72.4351 464.722 72.6231C464.49 72.8114 464.298 73.0389 464.146 73.3056C463.994 73.5723 463.873 73.864 463.782 74.1806ZM471.424 73.6652L468.578 78.2474L469.558 78.3727L472.427 73.6161L472.506 72.9923L468.585 72.4909L468.483 73.2891L471.424 73.6652Z" fill="#59BB49"/>
</svg>
