<svg width="920" height="755" viewBox="0 0 920 755" fill="none" xmlns="http://www.w3.org/2000/svg">
<path d="M469.152 60.1897C468.943 60.3506 468.693 60.4068 468.4 60.3585C468.225 60.3296 468.078 60.2659 467.96 60.1672C467.842 60.0685 467.749 59.9489 467.683 59.8086C467.617 59.6657 467.574 59.5149 467.555 59.3561C467.537 59.1973 467.54 59.0434 467.564 58.8943C467.589 58.7479 467.656 58.6112 467.767 58.4843C467.88 58.3578 468.025 58.2617 468.202 58.1959C468.379 58.1301 468.576 58.115 468.792 58.1507C469.108 58.2028 469.329 58.3356 469.454 58.5491C469.583 58.7629 469.62 59.0304 469.567 59.3516C469.502 59.7473 469.364 60.0267 469.152 60.1897Z" fill="#59BB49"/>
<path d="M472.202 60.796C472.054 60.6079 472 60.3905 472.041 60.1438C472.069 59.9717 472.133 59.8251 472.232 59.7043C472.334 59.5838 472.465 59.4828 472.626 59.4012C472.788 59.317 472.976 59.2491 473.191 59.1973L473.306 59.2678C473.477 59.3831 473.63 59.5034 473.765 59.6286C473.903 59.7517 474.006 59.8836 474.076 60.0244C474.147 60.1655 474.17 60.3183 474.142 60.4828C474.1 60.7397 473.976 60.9317 473.77 61.0588C473.564 61.1858 473.289 61.2209 472.945 61.1641C472.598 61.1069 472.351 60.9842 472.202 60.796Z" fill="#59BB49"/>
<path d="M473.024 56.8498C473.206 56.7532 473.422 56.7254 473.671 56.7666C473.928 56.809 474.126 56.905 474.265 57.0546C474.407 57.2021 474.459 57.3889 474.422 57.615C474.395 57.7794 474.333 57.9144 474.236 58.0198C474.143 58.1232 474.024 58.2066 473.882 58.2702C473.743 58.3317 473.589 58.3841 473.421 58.4276C473.271 58.329 473.136 58.2275 473.015 58.1232C472.896 58.0164 472.806 57.8986 472.745 57.7698C472.687 57.6415 472.672 57.4964 472.698 57.3345C472.736 57.1058 472.845 56.9443 473.024 56.8498Z" fill="#59BB49"/>
<path d="M465.5 46.5L480 49L477 69L456 66L457 58L465.5 46.5ZM465.1 57.0862C464.847 56.9098 464.539 56.7917 464.177 56.7319C463.987 56.7005 463.826 56.6845 463.694 56.6838C463.563 56.6806 463.449 56.6816 463.353 56.6869L463.708 55.3044L465.839 55.6561L465.971 54.8583L463.042 54.3749L462.375 57.0956L462.733 57.3962C462.854 57.3845 463.002 57.38 463.179 57.3827C463.358 57.3833 463.525 57.3963 463.679 57.4217C464.119 57.4942 464.426 57.6361 464.603 57.8473C464.782 58.0564 464.845 58.3228 464.791 58.6465C464.751 58.8906 464.666 59.0838 464.537 59.2262C464.411 59.3689 464.248 59.4634 464.047 59.5095C463.847 59.5556 463.616 59.5571 463.354 59.5138C463.107 59.4731 462.854 59.3971 462.596 59.2858C462.337 59.1719 462.121 59.0451 461.946 58.9053L461.811 59.7224C461.979 59.8557 462.186 59.9691 462.432 60.0624C462.68 60.1562 462.952 60.2275 463.248 60.2763C463.713 60.353 464.12 60.341 464.469 60.2403C464.818 60.1396 465.1 59.9604 465.314 59.7027C465.528 59.4425 465.668 59.1146 465.734 58.7189C465.793 58.3566 465.767 58.0381 465.654 57.7634C465.541 57.4862 465.357 57.2604 465.1 57.0862ZM466.951 57.3361C466.851 57.6496 466.774 57.9721 466.72 58.3036C466.651 58.7198 466.641 59.0917 466.69 59.4191C466.739 59.744 466.837 60.024 466.983 60.2593C467.129 60.4945 467.313 60.6832 467.535 60.8254C467.759 60.9681 468.012 61.0625 468.292 61.1087C468.672 61.1715 469.012 61.1485 469.313 61.0397C469.616 60.9313 469.865 60.7455 470.062 60.4824C470.261 60.2196 470.393 59.8891 470.459 59.4908C470.52 59.1208 470.505 58.7951 470.414 58.5135C470.326 58.2324 470.171 58.0036 469.95 57.8271C469.728 57.6481 469.453 57.5314 469.125 57.4771C468.904 57.4407 468.705 57.4395 468.527 57.4736C468.351 57.5051 468.196 57.5614 468.064 57.6426C467.932 57.7237 467.817 57.8221 467.718 57.9379L467.672 57.9302C467.756 57.535 467.88 57.1925 468.043 56.9028C468.208 56.6106 468.437 56.3976 468.731 56.264C469.025 56.1278 469.409 56.0988 469.882 56.1768C470 56.1963 470.117 56.2235 470.232 56.2584C470.351 56.2938 470.457 56.3339 470.553 56.3787L470.677 55.6271C470.588 55.5887 470.474 55.5527 470.335 55.5191C470.195 55.4855 470.069 55.4594 469.956 55.4407C469.519 55.3686 469.135 55.3686 468.803 55.4406C468.473 55.5101 468.187 55.6345 467.946 55.8138C467.708 55.9936 467.508 56.2139 467.346 56.4749C467.184 56.7359 467.052 57.023 466.951 57.3361ZM474.651 56.3701C474.406 56.224 474.12 56.1241 473.794 56.0702C473.475 56.0177 473.175 56.0209 472.893 56.08C472.614 56.1395 472.38 56.2566 472.19 56.4311C472.001 56.6031 471.882 56.8355 471.834 57.1284C471.796 57.3571 471.805 57.5658 471.861 57.7545C471.92 57.9411 472.012 58.1133 472.136 58.2711C472.261 58.4263 472.403 58.5712 472.563 58.7058C472.339 58.7665 472.129 58.8518 471.931 58.9617C471.736 59.0721 471.571 59.2138 471.437 59.387C471.303 59.5602 471.214 59.7765 471.172 60.036C471.12 60.3495 471.15 60.6316 471.262 60.8823C471.374 61.1304 471.564 61.3386 471.832 61.5069C472.099 61.6751 472.438 61.793 472.846 61.8604C473.226 61.9231 473.569 61.9164 473.875 61.8401C474.181 61.7613 474.432 61.6207 474.629 61.4183C474.829 61.2138 474.956 60.9535 475.008 60.6375C475.049 60.3856 475.028 60.1564 474.943 59.9498C474.861 59.7435 474.738 59.5556 474.573 59.3859C474.411 59.214 474.229 59.0559 474.026 58.9115C474.24 58.8465 474.437 58.7642 474.617 58.6646C474.797 58.5625 474.948 58.4342 475.068 58.2799C475.191 58.126 475.272 57.9347 475.309 57.706C475.358 57.4106 475.322 57.1499 475.201 56.924C475.08 56.6982 474.896 56.5135 474.651 56.3701Z" fill="#59BB49"/>
</svg>
