<svg width="920" height="755" viewBox="0 0 920 755" fill="none" xmlns="http://www.w3.org/2000/svg">
<path d="M478.227 32.4934C478.387 32.703 478.442 32.9541 478.392 33.2468C478.362 33.4213 478.297 33.5674 478.198 33.6852C478.098 33.8029 477.978 33.8946 477.838 33.9604C477.694 34.0257 477.543 34.0672 477.384 34.0849C477.225 34.1026 477.072 34.0987 476.923 34.0733C476.776 34.0482 476.64 33.98 476.514 33.8685C476.388 33.7545 476.293 33.6088 476.228 33.4312C476.163 33.2537 476.149 33.0571 476.186 32.8415C476.24 32.5258 476.374 32.3057 476.589 32.1812C476.803 32.0541 477.071 32.018 477.392 32.073C477.787 32.1406 478.066 32.2808 478.227 32.4934Z" fill="#59BB49"/>
<path d="M475.045 28.7674C474.883 28.5548 474.827 28.306 474.875 28.0211C474.906 27.844 474.972 27.6968 475.074 27.5795C475.174 27.4592 475.294 27.3662 475.435 27.3004C475.575 27.2347 475.725 27.1942 475.883 27.1791C476.042 27.1614 476.198 27.1655 476.349 27.1914C476.495 27.2164 476.631 27.286 476.757 27.4C476.883 27.5114 476.979 27.6559 477.044 27.8334C477.106 28.0079 477.119 28.2056 477.081 28.4263C477.026 28.7446 476.892 28.9647 476.678 29.0867C476.465 29.2086 476.197 29.2421 475.877 29.1872C475.481 29.1195 475.204 28.9796 475.045 28.7674Z" fill="#59BB49"/>
<path d="M466 46L468.5 42L475 16L485 17L482.5 32.5L480 48.5L466 46ZM475.1 36.5263C474.922 36.7786 474.802 37.0857 474.74 37.4476C474.708 37.6375 474.691 37.7984 474.689 37.9303C474.685 38.0617 474.685 38.1754 474.69 38.2713L473.31 37.9082L473.674 35.779L472.877 35.6426L472.376 38.5688L475.093 39.2518L475.396 38.8954C475.385 38.7746 475.381 38.626 475.385 38.4497C475.387 38.2703 475.401 38.1036 475.427 37.9496C475.502 37.5107 475.646 37.2037 475.858 37.0286C476.068 36.8506 476.335 36.7893 476.658 36.8446C476.902 36.8864 477.095 36.9722 477.236 37.1021C477.378 37.2295 477.472 37.3934 477.517 37.594C477.562 37.7945 477.562 38.0257 477.517 38.2875C477.475 38.534 477.397 38.7862 477.284 39.0443C477.169 39.302 477.041 39.5178 476.9 39.6919L477.716 39.8316C477.851 39.6644 477.965 39.4581 478.06 39.2127C478.155 38.9649 478.228 38.6933 478.279 38.3981C478.358 37.9335 478.349 37.5263 478.25 37.1766C478.151 36.8268 477.974 36.5441 477.718 36.3285C477.459 36.1124 477.132 35.9705 476.736 35.9029C476.374 35.8409 476.056 35.8657 475.78 35.977C475.502 36.088 475.276 36.2711 475.1 36.5263ZM475.361 34.6778C475.674 34.7789 475.996 34.8578 476.327 34.9145C476.743 34.9857 477.114 34.9978 477.442 34.9508C477.767 34.9035 478.048 34.8075 478.284 34.663C478.52 34.5184 478.71 34.3356 478.854 34.1145C478.998 33.8908 479.093 33.639 479.141 33.3592C479.206 32.9793 479.185 32.6389 479.078 32.3379C478.972 32.0343 478.788 31.7835 478.526 31.5854C478.264 31.3847 477.934 31.2503 477.536 31.1822C477.167 31.119 476.841 31.1319 476.559 31.221C476.277 31.3075 476.047 31.4611 475.87 31.6816C475.689 31.9017 475.571 32.1761 475.515 32.5046C475.477 32.7254 475.475 32.9245 475.508 33.1018C475.538 33.2788 475.594 33.4336 475.674 33.5662C475.754 33.6989 475.852 33.8147 475.967 33.9137L475.959 33.9599C475.564 33.8738 475.223 33.7479 474.934 33.5823C474.643 33.4162 474.431 33.1858 474.299 32.8911C474.165 32.5959 474.138 32.2122 474.219 31.7399C474.239 31.6218 474.267 31.5051 474.303 31.3896C474.339 31.2716 474.379 31.165 474.425 31.0697L473.674 30.9412C473.635 31.0296 473.598 31.1436 473.564 31.283C473.53 31.4224 473.503 31.5486 473.483 31.6615C473.409 32.0979 473.406 32.4819 473.476 32.8136C473.544 33.1448 473.667 33.4314 473.844 33.6732C474.023 33.9124 474.242 34.1137 474.502 34.2771C474.762 34.4405 475.048 34.5741 475.361 34.6778ZM477.907 26.5862C477.594 26.4825 477.271 26.4021 476.938 26.345C476.524 26.2743 476.155 26.2626 475.83 26.31C475.502 26.3569 475.22 26.4526 474.984 26.5972C474.746 26.7413 474.556 26.9254 474.414 27.1495C474.271 27.3707 474.175 27.6224 474.126 27.9048C474.062 28.2795 474.085 28.6189 474.194 28.9229C474.3 29.2265 474.485 29.4786 474.746 29.6793C475.008 29.8799 475.337 30.0143 475.735 30.0824C476.102 30.1452 476.428 30.1336 476.712 30.0475C476.994 29.9584 477.224 29.8062 477.401 29.5907C477.578 29.3727 477.694 29.102 477.75 28.7786C477.791 28.5399 477.796 28.3321 477.765 28.1551C477.732 27.9777 477.675 27.824 477.595 27.6939C477.511 27.5634 477.414 27.4504 477.304 27.3548L477.312 27.3086C477.704 27.3917 478.046 27.5163 478.338 27.6824C478.629 27.8459 478.841 28.0763 478.972 28.3736C479.104 28.6683 479.129 29.0531 479.048 29.5279C479.027 29.6486 478.999 29.7692 478.962 29.8898C478.924 30.0073 478.882 30.1125 478.837 30.2052L479.592 30.3343C479.628 30.2455 479.664 30.13 479.699 29.988C479.736 29.8439 479.765 29.7167 479.784 29.6063C479.859 29.1674 479.863 28.7823 479.795 28.4511C479.728 28.1198 479.605 27.8346 479.426 27.5953C479.246 27.3531 479.026 27.1502 478.766 26.9868C478.506 26.8209 478.22 26.6873 477.907 26.5862Z" fill="#59BB49"/>
</svg>
