<svg width="920" height="755" viewBox="0 0 920 755" fill="none" xmlns="http://www.w3.org/2000/svg">
<path d="M440.121 87.5728C440.097 87.2448 440.114 86.8416 440.171 86.3632C440.228 85.8874 440.306 85.4929 440.407 85.1797C440.51 84.8668 440.643 84.6388 440.807 84.4958C440.974 84.3505 441.182 84.2927 441.43 84.3224C441.678 84.352 441.866 84.4571 441.994 84.6377C442.122 84.8156 442.199 85.0687 442.226 85.3971C442.252 85.7254 442.237 86.1275 442.18 86.6033C442.123 87.0843 442.041 87.481 441.936 87.7936C441.833 88.1065 441.698 88.3331 441.532 88.4732C441.365 88.6133 441.16 88.6687 440.914 88.6393C440.668 88.61 440.481 88.5076 440.353 88.3323C440.224 88.1544 440.147 87.9012 440.121 87.5728Z" fill="#59BB49"/>
<path d="M442.5 73L447.5 76L445 92.5L422 89.5L431 81L442.5 73ZM432.884 84.9771C432.623 84.8121 432.31 84.7079 431.945 84.6643C431.754 84.6415 431.593 84.6326 431.461 84.6379C431.329 84.6405 431.216 84.6466 431.12 84.6562L431.413 83.2592L433.558 83.5155L433.654 82.7126L430.706 82.3604L430.161 85.1081L430.533 85.3925C430.653 85.3753 430.801 85.3642 430.977 85.359C431.157 85.3516 431.324 85.3572 431.479 85.3757C431.921 85.4285 432.235 85.5565 432.42 85.7597C432.609 85.9605 432.684 86.2239 432.645 86.5497C432.615 86.7953 432.539 86.9921 432.417 87.1401C432.297 87.2883 432.138 87.39 431.94 87.445C431.742 87.5 431.511 87.5118 431.247 87.4803C430.999 87.4506 430.743 87.3859 430.479 87.2862C430.216 87.184 429.994 87.067 429.813 86.9352L429.715 87.7575C429.889 87.8831 430.101 87.9871 430.35 88.0694C430.603 88.1521 430.878 88.2111 431.175 88.2467C431.643 88.3026 432.049 88.2724 432.394 88.1562C432.738 88.04 433.011 87.8484 433.214 87.5815C433.416 87.312 433.542 86.9781 433.589 86.5799C433.633 86.2153 433.592 85.8983 433.467 85.629C433.342 85.357 433.148 85.1397 432.884 84.9771ZM437.715 84.0084L434.907 88.6139L435.888 88.7312L438.717 83.9511L438.792 83.3266L434.867 82.8576L434.771 83.6566L437.715 84.0084ZM442.848 87.9302C442.963 87.5768 443.048 87.1713 443.103 86.7136C443.176 86.1008 443.169 85.5688 443.081 85.1177C442.997 84.6644 442.824 84.3055 442.565 84.041C442.308 83.7743 441.96 83.6147 441.521 83.5622C441.055 83.5066 440.668 83.5783 440.358 83.7773C440.048 83.9763 439.804 84.2868 439.625 84.7086C439.449 85.1282 439.325 85.6431 439.252 86.2534C439.179 86.8636 439.185 87.3954 439.27 87.8488C439.355 88.2996 439.526 88.6583 439.782 88.925C440.039 89.1892 440.386 89.3473 440.823 89.3995C441.172 89.4413 441.477 89.4109 441.739 89.3083C442 89.2058 442.222 89.0383 442.405 88.8057C442.587 88.5731 442.735 88.2812 442.848 87.9302Z" fill="#59BB49"/>
</svg>
