<svg width="920" height="755" viewBox="0 0 920 755" fill="none" xmlns="http://www.w3.org/2000/svg">
<path d="M421.5 90L445 93L443.5 104L412 99.5L421.5 90ZM427.884 95.9771C427.623 95.8121 427.31 95.7079 426.945 95.6643C426.754 95.6415 426.593 95.6326 426.461 95.6379C426.329 95.6405 426.216 95.6466 426.12 95.6562L426.413 94.2592L428.558 94.5155L428.654 93.7126L425.706 93.3604L425.161 96.1081L425.533 96.3925C425.653 96.3753 425.801 96.3642 425.977 96.359C426.157 96.3516 426.324 96.3572 426.479 96.3757C426.921 96.4285 427.235 96.5565 427.42 96.7597C427.609 96.9605 427.684 97.2239 427.645 97.5497C427.615 97.7953 427.539 97.9921 427.417 98.1401C427.297 98.2883 427.138 98.39 426.94 98.445C426.742 98.5 426.511 98.5118 426.247 98.4803C425.999 98.4506 425.743 98.3859 425.479 98.2862C425.216 98.184 424.994 98.067 424.813 97.9352L424.715 98.7575C424.889 98.8831 425.101 98.9871 425.35 99.0694C425.603 99.1521 425.878 99.2111 426.175 99.2467C426.643 99.3026 427.049 99.2724 427.394 99.1562C427.738 99.04 428.011 98.8484 428.214 98.5815C428.416 98.312 428.542 97.9781 428.589 97.5799C428.633 97.2153 428.592 96.8983 428.467 96.629C428.342 96.357 428.148 96.1397 427.884 95.9771ZM432.715 95.0083L429.907 99.6139L430.888 99.7312L433.717 94.9511L433.792 94.3266L429.867 93.8576L429.771 94.6566L432.715 95.0083ZM435.689 100.305L436.604 100.414L437.282 94.7436L436.522 94.6528L434.681 95.7704L435.069 96.403L435.783 95.9611C435.88 95.8966 435.971 95.8341 436.057 95.7736C436.146 95.7133 436.221 95.6567 436.282 95.6037C436.262 95.7088 436.242 95.8192 436.223 95.935L436.172 96.2909C436.155 96.4121 436.139 96.5335 436.125 96.655L435.689 100.305Z" fill="#59BB49"/>
</svg>
