<svg width="920" height="755" viewBox="0 0 920 755" fill="none" xmlns="http://www.w3.org/2000/svg">
<path d="M422 101.5L443 104.5L441.5 117.5L420 114.5L422 101.5ZM427.884 108.977C427.623 108.812 427.31 108.708 426.945 108.664C426.754 108.641 426.593 108.633 426.461 108.638C426.329 108.641 426.216 108.647 426.12 108.656L426.413 107.259L428.558 107.516L428.654 106.713L425.706 106.36L425.161 109.108L425.533 109.392C425.653 109.375 425.801 109.364 425.977 109.359C426.157 109.352 426.324 109.357 426.479 109.376C426.921 109.429 427.235 109.557 427.42 109.76C427.609 109.961 427.684 110.224 427.645 110.55C427.615 110.795 427.539 110.992 427.417 111.14C427.297 111.288 427.138 111.39 426.94 111.445C426.742 111.5 426.511 111.512 426.247 111.48C425.999 111.451 425.743 111.386 425.479 111.286C425.216 111.184 424.994 111.067 424.813 110.935L424.715 111.757C424.889 111.883 425.101 111.987 425.35 112.069C425.603 112.152 425.878 112.211 426.175 112.247C426.643 112.303 427.049 112.272 427.394 112.156C427.738 112.04 428.011 111.848 428.214 111.582C428.416 111.312 428.542 110.978 428.589 110.58C428.633 110.215 428.592 109.898 428.467 109.629C428.342 109.357 428.148 109.14 427.884 108.977ZM432.715 108.008L429.907 112.614L430.888 112.731L433.717 107.951L433.792 107.327L429.867 106.858L429.771 107.657L432.715 108.008ZM433.924 113.094L437.764 113.553L437.859 112.754L435.175 112.433L435.18 112.39L436.276 111.55C436.622 111.292 436.922 111.051 437.177 110.827C437.432 110.601 437.636 110.365 437.788 110.121C437.941 109.877 438.035 109.603 438.072 109.298C438.108 108.995 438.068 108.721 437.953 108.477C437.841 108.233 437.662 108.032 437.416 107.874C437.17 107.713 436.867 107.611 436.508 107.569C436.224 107.535 435.966 107.538 435.736 107.579C435.506 107.617 435.293 107.68 435.099 107.77C434.907 107.86 434.725 107.963 434.551 108.078L434.979 108.739C435.223 108.587 435.454 108.476 435.672 108.405C435.894 108.332 436.127 108.31 436.373 108.339C436.631 108.37 436.831 108.466 436.972 108.627C437.113 108.786 437.167 109.002 437.134 109.276C437.108 109.498 437.038 109.699 436.925 109.876C436.814 110.055 436.654 110.239 436.446 110.429C436.237 110.616 435.973 110.838 435.654 111.094L434.006 112.407L433.924 113.094Z" fill="#59BB49"/>
</svg>
