<svg width="920" height="755" viewBox="0 0 920 755" fill="none" xmlns="http://www.w3.org/2000/svg">
<path d="M420 115L441 118L439.5 130L418 127L420 115ZM425.884 121.977C425.623 121.812 425.31 121.708 424.945 121.664C424.754 121.641 424.593 121.633 424.461 121.638C424.329 121.641 424.216 121.647 424.12 121.656L424.413 120.259L426.558 120.516L426.654 119.713L423.706 119.36L423.161 122.108L423.533 122.392C423.653 122.375 423.801 122.364 423.977 122.359C424.157 122.352 424.324 122.357 424.479 122.376C424.921 122.429 425.235 122.557 425.42 122.76C425.609 122.961 425.684 123.224 425.645 123.55C425.615 123.795 425.539 123.992 425.417 124.14C425.297 124.288 425.138 124.39 424.94 124.445C424.742 124.5 424.511 124.512 424.247 124.48C423.999 124.451 423.743 124.386 423.479 124.286C423.216 124.184 422.994 124.067 422.813 123.935L422.715 124.757C422.889 124.883 423.101 124.987 423.35 125.069C423.603 125.152 423.878 125.211 424.175 125.247C424.643 125.303 425.049 125.272 425.394 125.156C425.738 125.04 426.011 124.848 426.214 124.582C426.416 124.312 426.542 123.978 426.589 123.58C426.633 123.215 426.592 122.898 426.467 122.629C426.342 122.357 426.148 122.14 425.884 121.977ZM430.715 121.008L427.907 125.614L428.888 125.731L431.717 120.951L431.792 120.327L427.867 119.858L427.771 120.657L430.715 121.008ZM435.835 122.8C435.961 122.624 436.039 122.408 436.069 122.152C436.12 121.733 436.002 121.38 435.716 121.094C435.43 120.806 434.997 120.627 434.415 120.557C434.019 120.51 433.666 120.524 433.356 120.6C433.045 120.676 432.773 120.781 432.539 120.915L432.902 121.6C433.03 121.537 433.164 121.479 433.304 121.428C433.444 121.376 433.594 121.338 433.754 121.312C433.917 121.287 434.094 121.286 434.286 121.309C434.596 121.346 434.822 121.443 434.963 121.599C435.105 121.752 435.161 121.95 435.132 122.193C435.11 122.379 435.045 122.537 434.938 122.666C434.833 122.795 434.677 122.887 434.468 122.944C434.26 122.998 433.991 123.005 433.663 122.966L433.159 122.905L433.071 123.638L433.571 123.698C433.915 123.739 434.192 123.805 434.402 123.896C434.614 123.987 434.764 124.103 434.852 124.245C434.942 124.387 434.975 124.558 434.951 124.76C434.914 125.073 434.784 125.307 434.561 125.461C434.338 125.613 433.99 125.66 433.517 125.604C433.274 125.575 433.02 125.512 432.757 125.414C432.493 125.317 432.248 125.195 432.022 125.047L431.925 125.858C432.147 125.995 432.386 126.103 432.641 126.184C432.899 126.264 433.182 126.323 433.489 126.36C434.001 126.421 434.429 126.397 434.773 126.289C435.116 126.18 435.382 126.008 435.57 125.77C435.759 125.531 435.873 125.247 435.912 124.918C435.957 124.543 435.876 124.228 435.671 123.973C435.468 123.718 435.144 123.535 434.698 123.424L434.701 123.397C434.943 123.373 435.16 123.312 435.352 123.215C435.548 123.115 435.709 122.977 435.835 122.8Z" fill="#59BB49"/>
</svg>
