<svg width="920" height="755" viewBox="0 0 920 755" fill="none" xmlns="http://www.w3.org/2000/svg">
<path d="M432.709 134.969L432.541 136.377L430.807 136.169L432.445 134.312C432.525 134.219 432.6 134.123 432.672 134.024C432.745 133.923 432.812 133.823 432.873 133.726L432.904 133.729C432.894 133.791 432.881 133.869 432.864 133.964C432.848 134.057 432.831 134.158 432.812 134.269C432.794 134.38 432.775 134.495 432.755 134.616C432.738 134.735 432.723 134.852 432.709 134.969Z" fill="#59BB49"/>
<path d="M418 127.5L439 130.5L437.5 143L416 140L418 127.5ZM423.884 133.977C423.623 133.812 423.31 133.708 422.945 133.664C422.754 133.641 422.593 133.633 422.461 133.638C422.329 133.641 422.216 133.647 422.12 133.656L422.413 132.259L424.558 132.516L424.654 131.713L421.706 131.36L421.161 134.108L421.533 134.392C421.653 134.375 421.801 134.364 421.977 134.359C422.157 134.352 422.324 134.357 422.479 134.376C422.921 134.429 423.235 134.557 423.42 134.76C423.609 134.961 423.684 135.224 423.645 135.55C423.615 135.795 423.539 135.992 423.417 136.14C423.297 136.288 423.138 136.39 422.94 136.445C422.742 136.5 422.511 136.512 422.247 136.48C421.999 136.451 421.743 136.386 421.479 136.286C421.216 136.184 420.994 136.067 420.813 135.935L420.715 136.757C420.889 136.883 421.101 136.987 421.35 137.069C421.603 137.152 421.878 137.211 422.175 137.247C422.643 137.303 423.049 137.272 423.394 137.156C423.738 137.04 424.011 136.848 424.214 136.582C424.416 136.312 424.542 135.978 424.589 135.58C424.633 135.215 424.592 134.898 424.467 134.629C424.342 134.357 424.148 134.14 423.884 133.977ZM428.715 133.008L425.907 137.614L426.888 137.731L429.717 132.951L429.792 132.327L425.867 131.858L425.771 132.657L428.715 133.008ZM433.35 137.241L434.118 137.332L434.209 136.576L433.441 136.484L433.881 132.799L432.993 132.693L429.954 136.134L429.871 136.825L432.45 137.133L432.302 138.378L433.201 138.486L433.35 137.241Z" fill="#59BB49"/>
</svg>
