<svg width="920" height="755" viewBox="0 0 920 755" fill="none" xmlns="http://www.w3.org/2000/svg">
<path d="M416 140.5L437 143.5L435 156L414 153L416 140.5ZM421.884 146.977C421.623 146.812 421.31 146.708 420.945 146.664C420.754 146.641 420.593 146.633 420.461 146.638C420.329 146.641 420.216 146.647 420.12 146.656L420.413 145.259L422.558 145.516L422.654 144.713L419.706 144.36L419.161 147.108L419.533 147.392C419.653 147.375 419.801 147.364 419.977 147.359C420.157 147.352 420.324 147.357 420.479 147.376C420.921 147.429 421.235 147.557 421.42 147.76C421.609 147.961 421.684 148.224 421.645 148.55C421.615 148.795 421.539 148.992 421.417 149.14C421.297 149.288 421.138 149.39 420.94 149.445C420.742 149.5 420.511 149.512 420.247 149.48C419.999 149.451 419.743 149.386 419.479 149.286C419.216 149.184 418.994 149.067 418.813 148.935L418.715 149.757C418.889 149.883 419.101 149.987 419.35 150.069C419.603 150.152 419.878 150.211 420.175 150.247C420.643 150.303 421.049 150.272 421.394 150.156C421.738 150.04 422.011 149.848 422.214 149.582C422.416 149.312 422.542 148.978 422.589 148.58C422.633 148.215 422.592 147.898 422.467 147.629C422.342 147.357 422.148 147.14 421.884 146.977ZM426.715 146.008L423.907 150.614L424.888 150.731L427.717 145.951L427.792 145.327L423.867 144.858L423.771 145.657L426.715 146.008ZM431.214 148.092C430.953 147.927 430.64 147.823 430.275 147.779C430.084 147.756 429.922 147.748 429.791 147.753C429.659 147.755 429.546 147.762 429.45 147.771L429.743 146.374L431.888 146.63L431.984 145.828L429.036 145.475L428.491 148.223L428.863 148.507C428.983 148.49 429.131 148.479 429.307 148.474C429.486 148.466 429.654 148.472 429.809 148.491C430.251 148.543 430.565 148.671 430.75 148.875C430.939 149.075 431.013 149.339 430.975 149.665C430.945 149.91 430.869 150.107 430.747 150.255C430.627 150.403 430.468 150.505 430.27 150.56C430.072 150.615 429.841 150.627 429.577 150.595C429.329 150.565 429.073 150.501 428.809 150.401C428.546 150.299 428.324 150.182 428.143 150.05L428.045 150.872C428.219 150.998 428.431 151.102 428.68 151.184C428.933 151.267 429.208 151.326 429.505 151.362C429.973 151.417 430.379 151.387 430.724 151.271C431.068 151.155 431.341 150.963 431.544 150.696C431.746 150.427 431.871 150.093 431.919 149.695C431.963 149.33 431.922 149.013 431.797 148.744C431.672 148.472 431.477 148.255 431.214 148.092Z" fill="#59BB49"/>
</svg>
