<svg width="920" height="755" viewBox="0 0 920 755" fill="none" xmlns="http://www.w3.org/2000/svg">
<path d="M428.735 163.454C428.533 163.624 428.285 163.692 427.991 163.656C427.815 163.635 427.665 163.578 427.543 163.485C427.42 163.392 427.323 163.276 427.25 163.139C427.177 162.999 427.128 162.85 427.103 162.693C427.077 162.535 427.073 162.381 427.091 162.231C427.108 162.084 427.17 161.944 427.275 161.812C427.382 161.681 427.523 161.578 427.697 161.505C427.871 161.431 428.067 161.407 428.284 161.433C428.602 161.471 428.828 161.594 428.964 161.802C429.101 162.01 429.151 162.275 429.112 162.598C429.065 162.997 428.939 163.282 428.735 163.454Z" fill="#59BB49"/>
<path d="M414 153.5L435 156.5L433 169L412 166L414 153.5ZM419.884 159.977C419.623 159.812 419.31 159.708 418.945 159.664C418.754 159.641 418.593 159.633 418.461 159.638C418.329 159.641 418.216 159.647 418.12 159.656L418.413 158.259L420.558 158.516L420.654 157.713L417.706 157.36L417.161 160.108L417.533 160.392C417.653 160.375 417.801 160.364 417.977 160.359C418.157 160.352 418.324 160.357 418.479 160.376C418.921 160.429 419.235 160.557 419.42 160.76C419.609 160.961 419.684 161.224 419.645 161.55C419.615 161.795 419.539 161.992 419.417 162.14C419.297 162.288 419.138 162.39 418.94 162.445C418.742 162.5 418.511 162.512 418.247 162.48C417.999 162.451 417.743 162.386 417.479 162.286C417.216 162.184 416.994 162.067 416.813 161.935L416.715 162.757C416.889 162.883 417.101 162.987 417.35 163.069C417.603 163.152 417.878 163.211 418.175 163.247C418.643 163.303 419.049 163.272 419.394 163.156C419.738 163.04 420.011 162.848 420.214 162.582C420.416 162.312 420.542 161.978 420.589 161.58C420.633 161.215 420.592 160.898 420.467 160.629C420.342 160.357 420.148 160.14 419.884 159.977ZM424.715 159.008L421.907 163.614L422.888 163.731L425.717 158.951L425.792 158.327L421.867 157.858L421.771 158.657L424.715 159.008ZM426.408 160.702C426.323 161.019 426.26 161.345 426.221 161.678C426.17 162.097 426.177 162.469 426.241 162.794C426.304 163.117 426.414 163.392 426.571 163.62C426.727 163.849 426.919 164.029 427.147 164.161C427.378 164.294 427.634 164.377 427.916 164.411C428.299 164.456 428.638 164.418 428.933 164.296C429.231 164.174 429.472 163.978 429.657 163.706C429.844 163.435 429.961 163.098 430.009 162.698C430.054 162.325 430.024 162.001 429.921 161.723C429.82 161.446 429.655 161.225 429.426 161.058C429.197 160.889 428.917 160.785 428.586 160.746C428.364 160.719 428.165 160.727 427.989 160.769C427.814 160.808 427.662 160.871 427.534 160.958C427.406 161.045 427.295 161.149 427.202 161.269L427.155 161.263C427.221 160.864 427.33 160.517 427.481 160.22C427.632 159.921 427.851 159.698 428.139 159.551C428.427 159.402 428.809 159.356 429.284 159.413C429.403 159.427 429.521 159.449 429.639 159.479C429.758 159.509 429.867 159.544 429.964 159.584L430.055 158.828C429.964 158.794 429.849 158.763 429.708 158.735C429.567 158.708 429.439 158.688 429.326 158.674C428.886 158.622 428.502 158.639 428.175 158.725C427.847 158.81 427.567 158.947 427.335 159.136C427.105 159.327 426.915 159.556 426.765 159.824C426.615 160.092 426.496 160.384 426.408 160.702Z" fill="#59BB49"/>
</svg>
