<svg width="920" height="755" viewBox="0 0 920 755" fill="none" xmlns="http://www.w3.org/2000/svg">
<path d="M412 166.5L433 169.5L431.5 182.5L410 179L412 166.5ZM417.884 172.977C417.623 172.812 417.31 172.708 416.945 172.664C416.754 172.641 416.593 172.633 416.461 172.638C416.329 172.641 416.216 172.647 416.12 172.656L416.413 171.259L418.558 171.516L418.654 170.713L415.706 170.36L415.161 173.108L415.533 173.392C415.653 173.375 415.801 173.364 415.977 173.359C416.157 173.352 416.324 173.357 416.479 173.376C416.921 173.429 417.235 173.557 417.42 173.76C417.609 173.961 417.684 174.224 417.645 174.55C417.615 174.795 417.539 174.992 417.417 175.14C417.297 175.288 417.138 175.39 416.94 175.445C416.742 175.5 416.511 175.512 416.247 175.48C415.999 175.451 415.743 175.386 415.479 175.286C415.216 175.184 414.994 175.067 414.813 174.935L414.715 175.757C414.889 175.883 415.101 175.987 415.35 176.069C415.603 176.152 415.878 176.211 416.175 176.247C416.643 176.303 417.049 176.272 417.394 176.156C417.738 176.04 418.011 175.848 418.214 175.582C418.416 175.312 418.542 174.978 418.589 174.58C418.633 174.215 418.592 173.898 418.467 173.629C418.342 173.357 418.148 173.14 417.884 172.977ZM422.715 172.008L419.907 176.614L420.888 176.731L423.717 171.951L423.792 171.327L419.867 170.858L419.771 171.657L422.715 172.008ZM427.38 172.566L424.572 177.171L425.553 177.289L428.382 172.509L428.457 171.884L424.532 171.415L424.436 172.214L427.38 172.566Z" fill="#59BB49"/>
</svg>
