<svg width="920" height="755" viewBox="0 0 920 755" fill="none" xmlns="http://www.w3.org/2000/svg">
<path d="M423.144 189.366C422.987 189.185 422.924 188.97 422.953 188.722C422.974 188.549 423.031 188.4 423.125 188.274C423.221 188.149 423.348 188.043 423.506 187.954C423.663 187.863 423.848 187.786 424.06 187.725L424.178 187.79C424.354 187.898 424.512 188.011 424.653 188.13C424.796 188.247 424.906 188.374 424.981 188.512C425.059 188.65 425.088 188.801 425.068 188.967C425.037 189.225 424.922 189.423 424.722 189.559C424.522 189.695 424.249 189.742 423.903 189.701C423.554 189.659 423.301 189.548 423.144 189.366Z" fill="#59BB49"/>
<path d="M423.789 185.387C423.966 185.283 424.181 185.245 424.431 185.275C424.69 185.306 424.892 185.393 425.038 185.537C425.186 185.678 425.247 185.862 425.219 186.089C425.2 186.255 425.144 186.393 425.052 186.502C424.963 186.61 424.849 186.698 424.709 186.768C424.573 186.836 424.421 186.895 424.255 186.946C424.101 186.854 423.962 186.759 423.837 186.66C423.713 186.559 423.618 186.445 423.551 186.319C423.488 186.193 423.466 186.049 423.485 185.886C423.513 185.656 423.614 185.49 423.789 185.387Z" fill="#59BB49"/>
<path d="M410 179.5L431 183L429 195L408 192L410 179.5ZM415.884 185.977C415.623 185.812 415.31 185.708 414.945 185.664C414.754 185.641 414.593 185.633 414.461 185.638C414.329 185.641 414.216 185.647 414.12 185.656L414.413 184.259L416.558 184.516L416.654 183.713L413.706 183.36L413.161 186.108L413.533 186.392C413.653 186.375 413.801 186.364 413.977 186.359C414.157 186.352 414.324 186.357 414.479 186.376C414.921 186.429 415.235 186.557 415.42 186.76C415.609 186.961 415.684 187.224 415.645 187.55C415.615 187.795 415.539 187.992 415.417 188.14C415.297 188.288 415.138 188.39 414.94 188.445C414.742 188.5 414.511 188.512 414.247 188.48C413.999 188.451 413.743 188.386 413.479 188.286C413.216 188.184 412.994 188.067 412.813 187.935L412.715 188.757C412.889 188.883 413.101 188.987 413.35 189.069C413.603 189.152 413.878 189.211 414.175 189.247C414.643 189.303 415.049 189.272 415.394 189.156C415.738 189.04 416.011 188.848 416.214 188.582C416.416 188.312 416.542 187.978 416.589 187.58C416.633 187.215 416.592 186.898 416.467 186.629C416.342 186.357 416.148 186.14 415.884 185.977ZM420.715 185.008L417.907 189.614L418.888 189.731L421.717 184.951L421.792 184.327L417.867 183.858L417.771 184.657L420.715 185.008ZM425.393 184.836C425.141 184.701 424.851 184.614 424.523 184.574C424.202 184.536 423.903 184.553 423.624 184.624C423.348 184.696 423.119 184.823 422.937 185.006C422.756 185.187 422.647 185.424 422.612 185.719C422.585 185.949 422.603 186.157 422.667 186.343C422.734 186.527 422.834 186.695 422.965 186.847C423.097 186.996 423.245 187.135 423.411 187.262C423.19 187.333 422.984 187.427 422.791 187.546C422.601 187.665 422.443 187.814 422.317 187.993C422.19 188.172 422.112 188.392 422.08 188.653C422.043 188.969 422.085 189.249 422.208 189.495C422.331 189.737 422.53 189.937 422.805 190.093C423.08 190.249 423.424 190.352 423.835 190.401C424.217 190.447 424.56 190.425 424.862 190.335C425.164 190.242 425.409 190.091 425.596 189.88C425.787 189.666 425.902 189.401 425.94 189.083C425.97 188.829 425.938 188.601 425.844 188.399C425.753 188.196 425.621 188.014 425.449 187.852C425.28 187.687 425.091 187.538 424.881 187.402C425.092 187.328 425.285 187.237 425.461 187.129C425.637 187.019 425.781 186.884 425.895 186.725C426.011 186.566 426.083 186.371 426.11 186.141C426.146 185.843 426.098 185.585 425.967 185.364C425.836 185.144 425.644 184.968 425.393 184.836Z" fill="#59BB49"/>
</svg>
