<svg width="920" height="755" viewBox="0 0 920 755" fill="none" xmlns="http://www.w3.org/2000/svg">
<path d="M421.63 198.53C421.834 198.357 422.08 198.288 422.367 198.323C422.545 198.344 422.696 198.403 422.818 198.499C422.943 198.592 423.042 198.708 423.115 198.845C423.188 198.982 423.236 199.129 423.259 199.287C423.284 199.445 423.288 199.6 423.27 199.752C423.252 199.9 423.19 200.039 423.082 200.171C422.977 200.302 422.838 200.405 422.664 200.479C422.493 200.55 422.296 200.572 422.074 200.546C421.753 200.508 421.526 200.385 421.394 200.177C421.261 199.97 421.214 199.705 421.253 199.382C421.3 198.983 421.426 198.699 421.63 198.53Z" fill="#59BB49"/>
<path d="M408 192.5L428.5 195.5L427.5 208L406 205L408 192.5ZM413.884 198.977C413.623 198.812 413.31 198.708 412.945 198.664C412.754 198.641 412.593 198.633 412.461 198.638C412.329 198.641 412.216 198.647 412.12 198.656L412.413 197.259L414.558 197.516L414.654 196.713L411.706 196.36L411.161 199.108L411.533 199.392C411.653 199.375 411.801 199.364 411.977 199.359C412.157 199.352 412.324 199.357 412.479 199.376C412.921 199.429 413.235 199.557 413.42 199.76C413.609 199.961 413.684 200.224 413.645 200.55C413.615 200.795 413.539 200.992 413.417 201.14C413.297 201.288 413.138 201.39 412.94 201.445C412.742 201.5 412.511 201.512 412.247 201.48C411.999 201.451 411.743 201.386 411.479 201.286C411.216 201.184 410.994 201.067 410.813 200.935L410.715 201.757C410.889 201.883 411.101 201.987 411.35 202.069C411.603 202.152 411.878 202.211 412.175 202.247C412.643 202.303 413.049 202.272 413.394 202.156C413.738 202.04 414.011 201.848 414.214 201.582C414.416 201.312 414.542 200.978 414.589 200.58C414.633 200.215 414.592 199.898 414.467 199.629C414.342 199.357 414.148 199.14 413.884 198.977ZM418.715 198.008L415.907 202.614L416.888 202.731L419.717 197.951L419.792 197.327L415.867 196.858L415.771 197.657L418.715 198.008ZM423.953 201.278C424.041 200.961 424.105 200.634 424.145 200.298C424.195 199.881 424.188 199.512 424.124 199.19C424.061 198.865 423.951 198.588 423.794 198.36C423.638 198.128 423.445 197.948 423.214 197.818C422.986 197.686 422.729 197.603 422.445 197.569C422.068 197.524 421.73 197.563 421.432 197.688C421.134 197.81 420.891 198.006 420.704 198.277C420.517 198.549 420.399 198.885 420.352 199.286C420.307 199.655 420.335 199.98 420.436 200.26C420.539 200.537 420.703 200.758 420.927 200.924C421.154 201.09 421.43 201.193 421.756 201.232C421.996 201.26 422.204 201.255 422.379 201.216C422.555 201.174 422.705 201.109 422.831 201.022C422.957 200.932 423.065 200.83 423.155 200.714L423.202 200.72C423.138 201.116 423.031 201.464 422.88 201.763C422.732 202.063 422.512 202.286 422.222 202.432C421.934 202.579 421.551 202.624 421.073 202.566C420.951 202.552 420.829 202.529 420.707 202.499C420.588 202.466 420.481 202.43 420.386 202.39L420.295 203.15C420.386 203.182 420.503 203.212 420.646 203.239C420.792 203.27 420.921 203.292 421.032 203.305C421.474 203.358 421.859 203.342 422.186 203.258C422.514 203.174 422.792 203.037 423.022 202.847C423.255 202.654 423.446 202.424 423.596 202.156C423.749 201.888 423.868 201.596 423.953 201.278Z" fill="#59BB49"/>
</svg>
