<svg width="920" height="755" viewBox="0 0 920 755" fill="none" xmlns="http://www.w3.org/2000/svg">
<path d="M394.492 198.84C394.336 198.658 394.274 198.443 394.305 198.195C394.327 198.021 394.385 197.873 394.479 197.748C394.576 197.624 394.704 197.518 394.862 197.43C395.02 197.34 395.205 197.264 395.418 197.204L395.535 197.27C395.711 197.379 395.868 197.493 396.008 197.613C396.151 197.731 396.259 197.859 396.334 197.997C396.411 198.135 396.439 198.287 396.418 198.452C396.386 198.711 396.269 198.907 396.069 199.042C395.868 199.177 395.595 199.223 395.248 199.179C394.9 199.135 394.647 199.022 394.492 198.84Z" fill="#59BB49"/>
<path d="M395.16 194.865C395.339 194.761 395.553 194.725 395.804 194.757C396.062 194.789 396.264 194.878 396.408 195.022C396.556 195.164 396.615 195.348 396.587 195.576C396.566 195.741 396.509 195.878 396.417 195.987C396.327 196.094 396.213 196.182 396.073 196.251C395.936 196.318 395.784 196.376 395.618 196.426C395.464 196.334 395.325 196.237 395.201 196.138C395.078 196.036 394.983 195.921 394.918 195.795C394.855 195.669 394.833 195.525 394.854 195.362C394.883 195.132 394.985 194.966 395.16 194.865Z" fill="#59BB49"/>
<path d="M399.135 198.632C399.113 198.304 399.132 197.901 399.192 197.423C399.252 196.947 399.333 196.553 399.435 196.241C399.54 195.928 399.675 195.701 399.84 195.559C400.007 195.415 400.215 195.358 400.463 195.39C400.711 195.421 400.899 195.527 401.026 195.708C401.153 195.887 401.229 196.141 401.253 196.469C401.277 196.798 401.26 197.2 401.2 197.675C401.14 198.156 401.056 198.552 400.948 198.864C400.843 199.176 400.707 199.402 400.54 199.541C400.373 199.68 400.167 199.734 399.921 199.703C399.676 199.672 399.49 199.569 399.362 199.393C399.235 199.214 399.159 198.961 399.135 198.632Z" fill="#59BB49"/>
<path d="M386.5 189.5L407.5 192.5L405.5 205L384.5 202L386.5 189.5ZM391.914 195.993C391.654 195.826 391.342 195.72 390.977 195.674C390.786 195.65 390.625 195.64 390.493 195.645C390.361 195.647 390.248 195.652 390.152 195.661L390.453 194.266L392.597 194.535L392.697 193.733L389.752 193.363L389.191 196.107L389.56 196.394C389.68 196.377 389.829 196.367 390.005 196.363C390.184 196.357 390.351 196.363 390.506 196.383C390.948 196.438 391.261 196.568 391.446 196.772C391.633 196.974 391.706 197.238 391.665 197.564C391.634 197.809 391.557 198.005 391.434 198.153C391.313 198.3 391.153 198.401 390.955 198.455C390.756 198.509 390.525 198.519 390.262 198.486C390.014 198.455 389.758 198.388 389.495 198.287C389.233 198.183 389.012 198.065 388.831 197.932L388.728 198.754C388.901 198.88 389.112 198.986 389.362 199.07C389.614 199.154 389.888 199.214 390.185 199.252C390.653 199.311 391.059 199.283 391.404 199.169C391.749 199.055 392.024 198.865 392.228 198.599C392.432 198.331 392.559 197.998 392.609 197.6C392.655 197.235 392.616 196.918 392.493 196.648C392.369 196.375 392.176 196.157 391.914 195.993ZM396.768 194.323C396.517 194.186 396.228 194.098 395.9 194.056C395.579 194.016 395.28 194.031 395.001 194.101C394.724 194.171 394.494 194.297 394.311 194.479C394.129 194.658 394.019 194.895 393.982 195.189C393.953 195.419 393.97 195.628 394.033 195.814C394.099 195.998 394.198 196.167 394.328 196.32C394.459 196.47 394.607 196.609 394.772 196.737C394.55 196.807 394.343 196.9 394.15 197.018C393.959 197.135 393.8 197.283 393.673 197.462C393.545 197.64 393.465 197.859 393.433 198.12C393.393 198.436 393.434 198.716 393.555 198.963C393.677 199.206 393.875 199.407 394.149 199.565C394.423 199.722 394.765 199.827 395.176 199.879C395.559 199.927 395.901 199.907 396.203 199.819C396.506 199.728 396.752 199.578 396.941 199.368C397.133 199.156 397.249 198.891 397.289 198.573C397.321 198.32 397.29 198.092 397.198 197.889C397.108 197.686 396.977 197.503 396.806 197.339C396.638 197.174 396.45 197.023 396.241 196.887C396.452 196.813 396.646 196.724 396.822 196.617C396.999 196.508 397.144 196.374 397.258 196.215C397.375 196.057 397.448 195.862 397.477 195.632C397.515 195.335 397.468 195.076 397.339 194.855C397.209 194.634 397.019 194.457 396.768 194.323ZM401.859 199.006C401.977 198.653 402.065 198.248 402.122 197.791C402.199 197.178 402.195 196.646 402.11 196.195C402.028 195.741 401.858 195.381 401.6 195.115C401.345 194.847 400.998 194.685 400.559 194.63C400.094 194.571 399.706 194.641 399.395 194.838C399.084 195.035 398.838 195.344 398.656 195.765C398.478 196.183 398.35 196.698 398.274 197.307C398.197 197.917 398.2 198.449 398.282 198.903C398.364 199.354 398.533 199.714 398.788 199.982C399.043 200.248 399.389 200.408 399.826 200.463C400.175 200.507 400.48 200.478 400.742 200.377C401.004 200.276 401.227 200.11 401.411 199.879C401.595 199.647 401.745 199.356 401.859 199.006Z" fill="#59BB49"/>
</svg>
