<svg width="920" height="755" viewBox="0 0 920 755" fill="none" xmlns="http://www.w3.org/2000/svg">
<path d="M396.593 186.1C396.447 185.909 396.396 185.691 396.441 185.445C396.472 185.273 396.537 185.128 396.638 185.008C396.742 184.889 396.875 184.79 397.037 184.711C397.2 184.629 397.389 184.564 397.604 184.515L397.718 184.588C397.888 184.705 398.039 184.828 398.172 184.955C398.308 185.08 398.41 185.214 398.477 185.355C398.547 185.497 398.567 185.651 398.537 185.815C398.491 186.071 398.364 186.261 398.157 186.385C397.949 186.509 397.674 186.54 397.33 186.478C396.984 186.416 396.738 186.29 396.593 186.1Z" fill="#59BB49"/>
<path d="M397.472 182.166C397.655 182.072 397.871 182.047 398.12 182.092C398.376 182.138 398.573 182.237 398.709 182.389C398.849 182.538 398.899 182.726 398.858 182.951C398.829 183.115 398.765 183.249 398.667 183.353C398.572 183.455 398.452 183.537 398.309 183.598C398.169 183.658 398.014 183.708 397.845 183.749C397.697 183.648 397.563 183.545 397.445 183.439C397.327 183.33 397.238 183.211 397.18 183.082C397.124 182.952 397.11 182.807 397.139 182.646C397.18 182.418 397.291 182.258 397.472 182.166Z" fill="#59BB49"/>
<path d="M388.5 176.5L409.5 179.5L407.5 192L386.5 189L388.5 176.5ZM394.169 183.119C393.919 182.939 393.613 182.816 393.251 182.751C393.062 182.717 392.901 182.699 392.769 182.696C392.638 182.691 392.524 182.691 392.428 182.695L392.803 181.317L394.929 181.7L395.072 180.904L392.15 180.378L391.444 183.089L391.798 183.395C391.919 183.385 392.067 183.382 392.244 183.388C392.423 183.391 392.59 183.406 392.743 183.434C393.182 183.513 393.487 183.659 393.661 183.873C393.837 184.085 393.896 184.352 393.838 184.675C393.794 184.918 393.706 185.11 393.575 185.251C393.447 185.392 393.282 185.484 393.081 185.527C392.88 185.57 392.649 185.568 392.388 185.521C392.142 185.477 391.89 185.397 391.633 185.282C391.376 185.164 391.161 185.034 390.989 184.892L390.842 185.707C391.008 185.843 391.213 185.959 391.458 186.056C391.705 186.154 391.976 186.229 392.27 186.282C392.734 186.365 393.142 186.359 393.492 186.264C393.843 186.168 394.127 185.993 394.345 185.739C394.563 185.481 394.708 185.156 394.779 184.761C394.844 184.4 394.822 184.081 394.713 183.804C394.604 183.526 394.423 183.297 394.169 183.119ZM399.106 181.71C398.863 181.56 398.578 181.456 398.253 181.397C397.935 181.34 397.635 181.339 397.352 181.394C397.073 181.45 396.836 181.563 396.644 181.735C396.452 181.904 396.33 182.135 396.277 182.427C396.236 182.655 396.242 182.864 396.296 183.053C396.352 183.241 396.441 183.414 396.563 183.574C396.686 183.731 396.826 183.878 396.984 184.015C396.759 184.072 396.547 184.154 396.348 184.262C396.151 184.369 395.985 184.508 395.848 184.68C395.711 184.851 395.62 185.066 395.573 185.325C395.517 185.637 395.543 185.92 395.651 186.172C395.759 186.422 395.946 186.633 396.212 186.805C396.477 186.977 396.813 187.1 397.221 187.173C397.6 187.241 397.943 187.24 398.25 187.168C398.557 187.094 398.811 186.957 399.011 186.757C399.214 186.556 399.343 186.297 399.4 185.982C399.445 185.731 399.427 185.501 399.345 185.293C399.266 185.086 399.146 184.896 398.984 184.724C398.824 184.55 398.644 184.389 398.443 184.242C398.658 184.18 398.856 184.101 399.038 184.004C399.22 183.904 399.372 183.778 399.495 183.625C399.62 183.473 399.703 183.283 399.744 183.055C399.798 182.76 399.765 182.499 399.647 182.272C399.53 182.044 399.349 181.857 399.106 181.71ZM401.705 187.901L402.612 188.064L403.624 182.444L402.87 182.308L400.967 183.315L401.317 183.969L402.056 183.57C402.156 183.512 402.251 183.455 402.341 183.399C402.433 183.345 402.511 183.293 402.575 183.243C402.549 183.347 402.522 183.456 402.496 183.57L402.425 183.923C402.401 184.043 402.378 184.163 402.356 184.283L401.705 187.901Z" fill="#59BB49"/>
</svg>
