<svg width="920" height="755" viewBox="0 0 920 755" fill="none" xmlns="http://www.w3.org/2000/svg">
<path d="M398.593 173.1C398.447 172.909 398.396 172.691 398.441 172.445C398.472 172.273 398.537 172.128 398.638 172.008C398.742 171.889 398.875 171.79 399.037 171.711C399.2 171.629 399.389 171.564 399.604 171.515L399.718 171.588C399.888 171.705 400.039 171.828 400.172 171.955C400.308 172.08 400.41 172.214 400.477 172.355C400.547 172.497 400.567 172.651 400.537 172.815C400.491 173.071 400.364 173.261 400.157 173.385C399.949 173.509 399.674 173.54 399.33 173.478C398.984 173.416 398.738 173.29 398.593 173.1Z" fill="#59BB49"/>
<path d="M399.472 169.166C399.655 169.072 399.871 169.047 400.12 169.092C400.376 169.138 400.573 169.237 400.709 169.389C400.849 169.538 400.899 169.726 400.858 169.951C400.829 170.115 400.765 170.249 400.667 170.353C400.572 170.455 400.452 170.537 400.309 170.598C400.169 170.658 400.014 170.708 399.845 170.749C399.697 170.648 399.563 170.545 399.445 170.439C399.327 170.33 399.238 170.211 399.18 170.082C399.124 169.952 399.11 169.807 399.139 169.646C399.18 169.418 399.291 169.258 399.472 169.166Z" fill="#59BB49"/>
<path d="M390.5 163.5L411.5 166.5L409.5 179L388.5 176L390.5 163.5ZM396.169 170.119C395.919 169.939 395.613 169.816 395.251 169.751C395.062 169.717 394.901 169.699 394.769 169.696C394.638 169.691 394.524 169.691 394.428 169.695L394.803 168.317L396.929 168.7L397.072 167.904L394.15 167.378L393.444 170.089L393.798 170.395C393.919 170.385 394.067 170.382 394.244 170.388C394.423 170.391 394.59 170.406 394.743 170.434C395.182 170.513 395.487 170.659 395.661 170.873C395.837 171.085 395.896 171.352 395.838 171.675C395.794 171.918 395.706 172.11 395.575 172.251C395.447 172.392 395.282 172.484 395.081 172.527C394.88 172.57 394.649 172.568 394.388 172.521C394.142 172.477 393.89 172.397 393.633 172.282C393.376 172.164 393.161 172.034 392.989 171.892L392.842 172.707C393.008 172.843 393.213 172.959 393.458 173.056C393.705 173.154 393.976 173.229 394.27 173.282C394.734 173.365 395.142 173.359 395.492 173.264C395.843 173.168 396.127 172.993 396.345 172.739C396.563 172.481 396.708 172.156 396.779 171.761C396.844 171.4 396.822 171.081 396.713 170.804C396.604 170.526 396.423 170.297 396.169 170.119ZM401.106 168.71C400.863 168.56 400.578 168.456 400.253 168.397C399.935 168.34 399.635 168.339 399.352 168.394C399.073 168.45 398.836 168.563 398.644 168.735C398.452 168.904 398.33 169.135 398.277 169.427C398.236 169.655 398.242 169.864 398.296 170.053C398.352 170.241 398.441 170.414 398.563 170.574C398.686 170.731 398.826 170.878 398.984 171.015C398.759 171.072 398.547 171.154 398.348 171.262C398.151 171.369 397.985 171.508 397.848 171.68C397.711 171.851 397.62 172.066 397.573 172.325C397.517 172.637 397.543 172.92 397.651 173.172C397.759 173.422 397.946 173.633 398.212 173.805C398.477 173.977 398.813 174.1 399.221 174.173C399.6 174.241 399.943 174.24 400.25 174.168C400.557 174.094 400.811 173.957 401.011 173.757C401.214 173.556 401.343 173.297 401.4 172.982C401.445 172.731 401.427 172.501 401.345 172.293C401.266 172.086 401.146 171.896 400.984 171.724C400.824 171.55 400.644 171.389 400.443 171.242C400.658 171.18 400.856 171.101 401.038 171.004C401.22 170.904 401.372 170.778 401.495 170.625C401.62 170.473 401.703 170.283 401.744 170.055C401.798 169.76 401.765 169.499 401.647 169.272C401.53 169.044 401.349 168.857 401.106 168.71ZM401.956 174.586L405.762 175.271L405.904 174.479L403.244 174L403.251 173.958L404.395 173.184C404.755 172.947 405.069 172.724 405.337 172.516C405.605 172.305 405.822 172.082 405.989 171.847C406.156 171.613 406.266 171.344 406.321 171.042C406.375 170.742 406.351 170.466 406.251 170.216C406.153 169.965 405.986 169.754 405.75 169.582C405.514 169.407 405.218 169.287 404.862 169.223C404.58 169.172 404.323 169.161 404.09 169.188C403.859 169.212 403.643 169.263 403.444 169.341C403.247 169.419 403.058 169.511 402.878 169.616L403.267 170.301C403.519 170.164 403.756 170.067 403.978 170.009C404.203 169.949 404.438 169.941 404.681 169.985C404.938 170.031 405.131 170.138 405.262 170.307C405.394 170.474 405.435 170.693 405.386 170.965C405.346 171.185 405.265 171.381 405.141 171.552C405.02 171.723 404.85 171.898 404.63 172.075C404.411 172.25 404.135 172.455 403.801 172.692L402.078 173.906L401.956 174.586Z" fill="#59BB49"/>
</svg>
