<svg width="920" height="755" viewBox="0 0 920 755" fill="none" xmlns="http://www.w3.org/2000/svg">
<path d="M400.593 160.1C400.447 159.909 400.396 159.691 400.441 159.445C400.472 159.273 400.537 159.128 400.638 159.008C400.742 158.889 400.875 158.79 401.037 158.711C401.2 158.629 401.389 158.564 401.604 158.515L401.718 158.588C401.888 158.705 402.039 158.828 402.172 158.955C402.308 159.08 402.41 159.214 402.477 159.355C402.547 159.497 402.567 159.651 402.537 159.815C402.491 160.071 402.364 160.261 402.157 160.385C401.949 160.509 401.674 160.54 401.33 160.478C400.984 160.416 400.738 160.29 400.593 160.1Z" fill="#59BB49"/>
<path d="M401.472 156.166C401.655 156.072 401.871 156.047 402.12 156.092C402.376 156.138 402.573 156.237 402.709 156.389C402.849 156.538 402.899 156.726 402.858 156.951C402.829 157.115 402.765 157.249 402.667 157.353C402.572 157.455 402.452 157.537 402.309 157.598C402.169 157.658 402.014 157.708 401.845 157.749C401.697 157.648 401.563 157.545 401.445 157.439C401.327 157.33 401.238 157.211 401.18 157.082C401.124 156.952 401.11 156.807 401.139 156.646C401.18 156.418 401.291 156.258 401.472 156.166Z" fill="#59BB49"/>
<path d="M392.5 150L413.5 153.5L411.5 166L390.5 163L392.5 150ZM398.169 157.119C397.919 156.939 397.613 156.816 397.251 156.751C397.062 156.717 396.901 156.699 396.769 156.696C396.638 156.691 396.524 156.691 396.428 156.695L396.803 155.317L398.929 155.7L399.072 154.904L396.15 154.378L395.444 157.089L395.798 157.395C395.919 157.385 396.067 157.382 396.244 157.388C396.423 157.391 396.59 157.406 396.743 157.434C397.182 157.513 397.487 157.659 397.661 157.873C397.837 158.085 397.896 158.352 397.838 158.675C397.794 158.918 397.706 159.11 397.575 159.251C397.447 159.392 397.282 159.484 397.081 159.527C396.88 159.57 396.649 159.568 396.388 159.521C396.142 159.477 395.89 159.397 395.633 159.282C395.376 159.164 395.161 159.034 394.989 158.892L394.842 159.707C395.008 159.843 395.213 159.959 395.458 160.056C395.705 160.154 395.976 160.229 396.27 160.282C396.734 160.365 397.142 160.359 397.492 160.264C397.843 160.168 398.127 159.993 398.345 159.739C398.563 159.481 398.708 159.156 398.779 158.761C398.844 158.4 398.822 158.081 398.713 157.804C398.604 157.526 398.423 157.297 398.169 157.119ZM403.106 155.71C402.863 155.56 402.578 155.456 402.253 155.397C401.935 155.34 401.635 155.339 401.352 155.394C401.073 155.45 400.836 155.563 400.644 155.735C400.452 155.904 400.33 156.135 400.277 156.427C400.236 156.655 400.242 156.864 400.296 157.053C400.352 157.241 400.441 157.414 400.563 157.574C400.686 157.731 400.826 157.878 400.984 158.015C400.759 158.072 400.547 158.154 400.348 158.262C400.151 158.369 399.985 158.508 399.848 158.68C399.711 158.851 399.62 159.066 399.573 159.325C399.517 159.637 399.543 159.92 399.651 160.172C399.759 160.422 399.946 160.633 400.212 160.805C400.477 160.977 400.813 161.1 401.221 161.173C401.6 161.241 401.943 161.24 402.25 161.168C402.557 161.094 402.811 160.957 403.011 160.757C403.214 160.556 403.343 160.297 403.4 159.982C403.445 159.731 403.427 159.501 403.345 159.293C403.266 159.086 403.146 158.896 402.984 158.724C402.824 158.55 402.644 158.389 402.443 158.242C402.658 158.18 402.856 158.101 403.038 158.004C403.22 157.904 403.372 157.778 403.495 157.625C403.62 157.473 403.703 157.283 403.744 157.055C403.798 156.76 403.765 156.499 403.647 156.272C403.53 156.044 403.349 155.857 403.106 155.71ZM408.054 158.53C408.19 158.361 408.281 158.15 408.327 157.896C408.402 157.481 408.305 157.122 408.037 156.82C407.769 156.515 407.346 156.31 406.77 156.207C406.378 156.136 406.024 156.129 405.71 156.186C405.395 156.244 405.117 156.332 404.876 156.453L405.197 157.158C405.329 157.102 405.466 157.053 405.609 157.01C405.752 156.967 405.904 156.937 406.066 156.921C406.23 156.906 406.407 156.915 406.596 156.949C406.904 157.005 407.124 157.114 407.255 157.278C407.388 157.44 407.432 157.641 407.389 157.882C407.356 158.066 407.282 158.22 407.167 158.342C407.055 158.465 406.893 158.548 406.682 158.592C406.47 158.633 406.202 158.625 405.877 158.566L405.377 158.476L405.246 159.203L405.742 159.292C406.083 159.353 406.355 159.436 406.559 159.538C406.765 159.642 406.908 159.767 406.987 159.913C407.07 160.06 407.093 160.234 407.057 160.434C407.001 160.744 406.857 160.969 406.625 161.11C406.394 161.248 406.044 161.275 405.575 161.191C405.334 161.148 405.085 161.07 404.827 160.957C404.569 160.845 404.332 160.708 404.115 160.547L403.97 161.351C404.184 161.5 404.416 161.623 404.666 161.718C404.919 161.814 405.198 161.889 405.503 161.944C406.01 162.035 406.438 162.037 406.788 161.949C407.137 161.861 407.413 161.704 407.615 161.479C407.817 161.251 407.948 160.974 408.006 160.648C408.073 160.277 408.012 159.957 407.821 159.69C407.634 159.424 407.321 159.222 406.883 159.085L406.887 159.058C407.13 159.048 407.35 159.001 407.548 158.915C407.749 158.827 407.918 158.698 408.054 158.53Z" fill="#59BB49"/>
</svg>
