<svg width="920" height="755" viewBox="0 0 920 755" fill="none" xmlns="http://www.w3.org/2000/svg">
<path d="M403.593 147.1C403.447 146.909 403.396 146.691 403.441 146.445C403.472 146.273 403.537 146.128 403.638 146.008C403.742 145.889 403.875 145.79 404.037 145.711C404.2 145.629 404.389 145.564 404.604 145.515L404.718 145.588C404.888 145.705 405.039 145.828 405.172 145.955C405.308 146.08 405.41 146.214 405.477 146.355C405.547 146.497 405.567 146.651 405.537 146.815C405.491 147.071 405.364 147.261 405.157 147.385C404.949 147.509 404.674 147.54 404.33 147.478C403.984 147.416 403.738 147.29 403.593 147.1Z" fill="#59BB49"/>
<path d="M404.472 143.166C404.655 143.072 404.871 143.047 405.12 143.092C405.376 143.138 405.573 143.237 405.709 143.389C405.849 143.538 405.899 143.726 405.858 143.951C405.829 144.115 405.765 144.249 405.667 144.353C405.572 144.455 405.452 144.537 405.309 144.598C405.169 144.658 405.014 144.708 404.845 144.749C404.697 144.648 404.563 144.545 404.445 144.439C404.327 144.33 404.238 144.211 404.18 144.082C404.124 143.952 404.11 143.807 404.139 143.646C404.18 143.418 404.291 143.258 404.472 143.166Z" fill="#59BB49"/>
<path d="M409.921 145.631L409.669 147.027L407.951 146.717L409.696 144.96C409.781 144.872 409.862 144.78 409.94 144.686C410.018 144.589 410.091 144.494 410.158 144.4L410.189 144.405C410.175 144.466 410.157 144.544 410.135 144.638C410.113 144.729 410.09 144.829 410.065 144.939C410.04 145.048 410.014 145.162 409.987 145.282C409.964 145.399 409.941 145.516 409.921 145.631Z" fill="#59BB49"/>
<path d="M394.5 137.5L415.5 140.5L413.5 153L392.5 149.5L394.5 137.5ZM401.169 144.119C400.919 143.939 400.613 143.816 400.251 143.751C400.062 143.717 399.901 143.699 399.769 143.696C399.638 143.691 399.524 143.691 399.428 143.695L399.803 142.317L401.929 142.7L402.072 141.904L399.15 141.378L398.444 144.089L398.798 144.395C398.919 144.385 399.067 144.382 399.244 144.388C399.423 144.391 399.59 144.406 399.743 144.434C400.182 144.513 400.487 144.659 400.661 144.873C400.837 145.085 400.896 145.352 400.838 145.675C400.794 145.918 400.706 146.11 400.575 146.251C400.447 146.392 400.282 146.484 400.081 146.527C399.88 146.57 399.649 146.568 399.388 146.521C399.142 146.477 398.89 146.397 398.633 146.282C398.376 146.164 398.161 146.034 397.989 145.892L397.842 146.707C398.008 146.843 398.213 146.959 398.458 147.056C398.705 147.154 398.976 147.229 399.27 147.282C399.734 147.365 400.142 147.359 400.492 147.264C400.843 147.168 401.127 146.993 401.345 146.739C401.563 146.481 401.708 146.156 401.779 145.761C401.844 145.4 401.822 145.081 401.713 144.804C401.604 144.526 401.423 144.297 401.169 144.119ZM406.106 142.71C405.863 142.56 405.578 142.456 405.253 142.397C404.935 142.34 404.635 142.339 404.352 142.394C404.073 142.45 403.836 142.563 403.644 142.735C403.452 142.904 403.33 143.135 403.277 143.427C403.236 143.655 403.242 143.864 403.296 144.053C403.352 144.241 403.441 144.414 403.563 144.574C403.686 144.731 403.826 144.878 403.984 145.015C403.759 145.072 403.547 145.154 403.348 145.262C403.151 145.369 402.985 145.508 402.848 145.68C402.711 145.851 402.62 146.066 402.573 146.325C402.517 146.637 402.543 146.92 402.651 147.172C402.759 147.422 402.946 147.633 403.212 147.805C403.477 147.977 403.813 148.1 404.221 148.173C404.6 148.241 404.943 148.24 405.25 148.168C405.557 148.094 405.811 147.957 406.011 147.757C406.214 147.556 406.343 147.297 406.4 146.982C406.445 146.731 406.427 146.501 406.345 146.293C406.266 146.086 406.146 145.896 405.984 145.724C405.824 145.55 405.644 145.389 405.443 145.242C405.658 145.18 405.856 145.101 406.038 145.004C406.22 144.904 406.372 144.778 406.495 144.625C406.62 144.473 406.703 144.283 406.744 144.055C406.798 143.76 406.765 143.499 406.647 143.272C406.53 143.044 406.349 142.857 406.106 142.71ZM410.426 147.937L411.188 148.074L411.323 147.324L410.561 147.187L411.219 143.535L410.338 143.376L407.101 146.632L406.978 147.316L409.534 147.776L409.312 149.01L410.204 149.171L410.426 147.937Z" fill="#59BB49"/>
</svg>
