<svg width="920" height="755" viewBox="0 0 920 755" fill="none" xmlns="http://www.w3.org/2000/svg">
<path d="M404.73 134.166C404.574 133.984 404.511 133.769 404.542 133.521C404.563 133.348 404.621 133.199 404.715 133.074C404.812 132.95 404.939 132.843 405.097 132.755C405.255 132.664 405.44 132.589 405.652 132.528L405.77 132.594C405.946 132.702 406.104 132.816 406.244 132.936C406.387 133.053 406.495 133.181 406.57 133.319C406.648 133.457 406.676 133.609 406.656 133.774C406.624 134.032 406.508 134.229 406.307 134.365C406.107 134.5 405.834 134.546 405.487 134.504C405.138 134.461 404.886 134.348 404.73 134.166Z" fill="#59BB49"/>
<path d="M405.39 130.19C405.568 130.086 405.782 130.049 406.033 130.08C406.292 130.112 406.493 130.2 406.638 130.344C406.786 130.485 406.846 130.67 406.818 130.897C406.797 131.063 406.741 131.2 406.649 131.309C406.56 131.416 406.445 131.505 406.305 131.574C406.169 131.641 406.017 131.7 405.851 131.75C405.697 131.658 405.558 131.562 405.434 131.462C405.31 131.361 405.215 131.246 405.149 131.12C405.086 130.994 405.064 130.85 405.084 130.687C405.113 130.457 405.215 130.291 405.39 130.19Z" fill="#59BB49"/>
<path d="M396 124.5L417.5 127.5L415.5 140L394.5 137L396 124.5ZM402.146 131.324C401.885 131.158 401.573 131.053 401.209 131.008C401.017 130.984 400.856 130.975 400.724 130.98C400.593 130.982 400.479 130.987 400.383 130.997L400.682 129.601L402.825 129.865L402.924 129.063L399.978 128.699L399.423 131.445L399.793 131.731C399.913 131.714 400.061 131.703 400.238 131.699C400.417 131.692 400.584 131.698 400.739 131.718C401.181 131.772 401.495 131.901 401.679 132.105C401.867 132.307 401.941 132.57 401.9 132.896C401.87 133.142 401.793 133.338 401.67 133.486C401.55 133.633 401.39 133.734 401.192 133.789C400.994 133.843 400.763 133.854 400.499 133.821C400.251 133.791 399.996 133.725 399.732 133.624C399.47 133.521 399.248 133.403 399.068 133.271L398.966 134.093C399.14 134.219 399.351 134.324 399.6 134.407C399.853 134.491 400.127 134.551 400.424 134.587C400.892 134.645 401.299 134.616 401.643 134.502C401.988 134.387 402.262 134.196 402.466 133.93C402.669 133.661 402.796 133.328 402.845 132.93C402.89 132.565 402.85 132.248 402.726 131.978C402.602 131.706 402.409 131.488 402.146 131.324ZM406.996 129.644C406.745 129.508 406.456 129.42 406.127 129.379C405.807 129.34 405.507 129.355 405.228 129.426C404.952 129.497 404.722 129.623 404.54 129.805C404.358 129.985 404.248 130.222 404.212 130.517C404.184 130.747 404.201 130.955 404.265 131.141C404.331 131.325 404.43 131.493 404.561 131.646C404.692 131.796 404.84 131.935 405.005 132.063C404.784 132.133 404.577 132.227 404.384 132.344C404.194 132.463 404.035 132.611 403.908 132.789C403.781 132.968 403.701 133.188 403.669 133.449C403.63 133.764 403.672 134.045 403.794 134.291C403.916 134.534 404.114 134.734 404.389 134.891C404.663 135.049 405.006 135.153 405.417 135.203C405.799 135.251 406.142 135.23 406.444 135.141C406.746 135.05 406.992 134.899 407.181 134.689C407.372 134.476 407.487 134.211 407.527 133.893C407.558 133.64 407.527 133.412 407.434 133.209C407.344 133.006 407.213 132.823 407.041 132.66C406.873 132.495 406.684 132.345 406.475 132.209C406.686 132.135 406.88 132.045 407.056 131.938C407.232 131.829 407.377 131.694 407.491 131.535C407.608 131.376 407.68 131.182 407.709 130.952C407.745 130.655 407.698 130.396 407.568 130.175C407.438 129.954 407.247 129.777 406.996 129.644ZM411.471 132.475C411.211 132.309 410.898 132.204 410.534 132.159C410.343 132.135 410.181 132.126 410.049 132.13C409.918 132.132 409.805 132.138 409.709 132.147L410.007 130.751L412.151 131.016L412.25 130.213L409.304 129.85L408.748 132.596L409.118 132.881C409.239 132.865 409.387 132.854 409.563 132.85C409.742 132.843 409.91 132.849 410.065 132.868C410.507 132.923 410.82 133.052 411.005 133.256C411.192 133.457 411.266 133.721 411.226 134.047C411.196 134.292 411.119 134.489 410.996 134.636C410.875 134.784 410.716 134.885 410.518 134.939C410.319 134.994 410.088 135.004 409.825 134.972C409.577 134.941 409.321 134.876 409.058 134.775C408.795 134.672 408.574 134.554 408.393 134.421L408.292 135.243C408.465 135.37 408.677 135.474 408.926 135.558C409.178 135.641 409.453 135.701 409.75 135.738C410.218 135.796 410.624 135.767 410.969 135.652C411.314 135.537 411.588 135.347 411.791 135.081C411.995 134.812 412.121 134.479 412.17 134.081C412.215 133.716 412.176 133.399 412.052 133.129C411.928 132.857 411.734 132.639 411.471 132.475Z" fill="#59BB49"/>
</svg>
