<svg width="920" height="755" viewBox="0 0 920 755" fill="none" xmlns="http://www.w3.org/2000/svg">
<path d="M408.593 117.1C408.447 116.909 408.396 116.691 408.441 116.445C408.472 116.273 408.537 116.128 408.638 116.008C408.742 115.889 408.875 115.79 409.037 115.711C409.2 115.629 409.389 115.564 409.604 115.515L409.718 115.588C409.888 115.705 410.039 115.828 410.172 115.955C410.308 116.08 410.41 116.214 410.477 116.355C410.547 116.497 410.567 116.651 410.537 116.815C410.491 117.071 410.364 117.261 410.157 117.385C409.949 117.509 409.674 117.54 409.33 117.478C408.984 117.416 408.738 117.29 408.593 117.1Z" fill="#59BB49"/>
<path d="M409.472 113.166C409.655 113.072 409.871 113.047 410.12 113.092C410.376 113.138 410.573 113.237 410.709 113.389C410.849 113.538 410.899 113.726 410.858 113.951C410.829 114.115 410.765 114.249 410.667 114.353C410.572 114.455 410.452 114.537 410.309 114.598C410.169 114.658 410.014 114.708 409.845 114.749C409.697 114.648 409.563 114.545 409.445 114.439C409.327 114.33 409.238 114.211 409.18 114.082C409.124 113.952 409.11 113.807 409.139 113.646C409.18 113.418 409.291 113.258 409.472 113.166Z" fill="#59BB49"/>
<path d="M414.799 118.114C414.588 118.272 414.337 118.324 414.044 118.272C413.87 118.24 413.725 118.174 413.608 118.074C413.491 117.973 413.4 117.853 413.336 117.711C413.272 117.567 413.231 117.416 413.215 117.257C413.199 117.098 413.204 116.944 413.231 116.795C413.257 116.649 413.326 116.514 413.439 116.388C413.554 116.264 413.7 116.17 413.879 116.106C414.057 116.043 414.253 116.031 414.469 116.07C414.784 116.126 415.003 116.262 415.125 116.478C415.251 116.693 415.284 116.961 415.227 117.282C415.156 117.676 415.013 117.954 414.799 118.114Z" fill="#59BB49"/>
<path d="M411.5 100L421.5 101.5L417.5 127L396 124L397.5 114.5L411.5 100ZM406.169 114.119C405.919 113.939 405.613 113.816 405.251 113.751C405.062 113.717 404.901 113.699 404.769 113.696C404.638 113.691 404.524 113.691 404.428 113.695L404.803 112.317L406.929 112.7L407.072 111.904L404.15 111.378L403.444 114.089L403.798 114.395C403.919 114.385 404.067 114.382 404.244 114.388C404.423 114.391 404.59 114.406 404.743 114.434C405.182 114.513 405.487 114.659 405.661 114.873C405.837 115.085 405.896 115.352 405.838 115.675C405.794 115.918 405.706 116.11 405.575 116.251C405.447 116.392 405.282 116.484 405.081 116.527C404.88 116.57 404.649 116.568 404.388 116.521C404.142 116.477 403.89 116.397 403.633 116.282C403.376 116.164 403.161 116.034 402.989 115.892L402.842 116.707C403.008 116.843 403.213 116.959 403.458 117.056C403.705 117.154 403.976 117.229 404.27 117.282C404.734 117.365 405.142 117.359 405.492 117.264C405.843 117.168 406.127 116.993 406.345 116.739C406.563 116.481 406.708 116.156 406.779 115.761C406.844 115.4 406.822 115.081 406.713 114.804C406.604 114.526 406.423 114.297 406.169 114.119ZM411.106 112.71C410.863 112.56 410.578 112.456 410.253 112.397C409.935 112.34 409.635 112.339 409.352 112.394C409.073 112.45 408.836 112.563 408.644 112.735C408.452 112.904 408.33 113.135 408.277 113.427C408.236 113.655 408.242 113.864 408.296 114.053C408.352 114.241 408.441 114.414 408.563 114.574C408.686 114.731 408.826 114.878 408.984 115.015C408.759 115.072 408.547 115.154 408.348 115.262C408.151 115.369 407.985 115.508 407.848 115.68C407.711 115.851 407.62 116.066 407.573 116.325C407.517 116.637 407.543 116.92 407.651 117.172C407.759 117.422 407.946 117.633 408.212 117.805C408.477 117.977 408.813 118.1 409.221 118.173C409.6 118.241 409.943 118.24 410.25 118.168C410.557 118.094 410.811 117.957 411.011 117.757C411.214 117.556 411.343 117.297 411.4 116.982C411.445 116.731 411.427 116.501 411.345 116.293C411.266 116.086 411.146 115.896 410.984 115.724C410.824 115.55 410.644 115.389 410.443 115.242C410.658 115.18 410.856 115.101 411.038 115.004C411.22 114.904 411.372 114.778 411.495 114.625C411.62 114.473 411.703 114.283 411.744 114.055C411.798 113.76 411.765 113.499 411.647 113.272C411.53 113.044 411.349 112.857 411.106 112.71ZM412.639 115.228C412.536 115.54 412.454 115.862 412.395 116.192C412.32 116.608 412.304 116.979 412.349 117.307C412.393 117.633 412.487 117.914 412.629 118.152C412.772 118.389 412.953 118.58 413.173 118.726C413.395 118.872 413.646 118.97 413.926 119.02C414.305 119.088 414.645 119.07 414.947 118.966C415.252 118.862 415.504 118.68 415.705 118.42C415.907 118.16 416.045 117.831 416.116 117.434C416.183 117.065 416.173 116.739 416.086 116.456C416.002 116.174 415.85 115.943 415.631 115.763C415.413 115.581 415.139 115.46 414.811 115.401C414.591 115.361 414.392 115.357 414.214 115.389C414.037 115.418 413.882 115.472 413.748 115.551C413.615 115.63 413.498 115.727 413.398 115.841L413.352 115.833C413.442 115.439 413.571 115.098 413.739 114.811C413.907 114.521 414.139 114.312 414.435 114.182C414.732 114.05 415.115 114.027 415.587 114.112C415.705 114.133 415.821 114.162 415.937 114.199C416.054 114.236 416.161 114.277 416.255 114.323L416.39 113.574C416.302 113.534 416.189 113.496 416.05 113.461C415.91 113.425 415.785 113.397 415.672 113.377C415.236 113.299 414.852 113.293 414.52 113.36C414.188 113.425 413.9 113.545 413.657 113.721C413.416 113.897 413.213 114.114 413.047 114.373C412.882 114.632 412.746 114.917 412.639 115.228Z" fill="#59BB49"/>
</svg>
