<svg width="920" height="755" viewBox="0 0 920 755" fill="none" xmlns="http://www.w3.org/2000/svg">
<path d="M382.467 141.731C382.279 141.879 382.062 141.934 381.815 141.893C381.643 141.865 381.496 141.802 381.375 141.703C381.254 141.601 381.153 141.47 381.071 141.309C380.987 141.147 380.918 140.96 380.866 140.745L380.937 140.63C381.052 140.459 381.172 140.306 381.296 140.17C381.419 140.032 381.551 139.928 381.692 139.859C381.833 139.787 381.985 139.764 382.15 139.791C382.407 139.833 382.599 139.957 382.727 140.162C382.854 140.368 382.89 140.643 382.833 140.987C382.777 141.334 382.655 141.582 382.467 141.731Z" fill="#59BB49"/>
<path d="M378.519 140.916C378.422 140.734 378.394 140.519 378.435 140.269C378.477 140.012 378.572 139.814 378.722 139.675C378.869 139.533 379.055 139.48 379.282 139.517C379.446 139.544 379.581 139.605 379.687 139.702C379.79 139.795 379.874 139.913 379.938 140.055C380 140.195 380.052 140.349 380.096 140.517C379.998 140.667 379.897 140.802 379.792 140.922C379.686 141.042 379.568 141.132 379.44 141.193C379.311 141.251 379.166 141.267 379.004 141.241C378.776 141.204 378.614 141.095 378.519 140.916Z" fill="#59BB49"/>
<path d="M392 112.5L385 153L368.5 151L371 137.5L392 112.5ZM379.526 144.202C379.351 144.456 379.233 144.764 379.174 145.126C379.143 145.317 379.127 145.478 379.127 145.61C379.124 145.741 379.125 145.855 379.13 145.951L377.747 145.598L378.095 143.466L377.297 143.336L376.819 146.266L379.541 146.928L379.841 146.569C379.829 146.448 379.824 146.3 379.827 146.123C379.827 145.944 379.839 145.777 379.865 145.623C379.936 145.184 380.078 144.875 380.289 144.699C380.497 144.519 380.764 144.456 381.087 144.509C381.332 144.548 381.525 144.633 381.668 144.762C381.811 144.888 381.905 145.051 381.952 145.251C381.998 145.451 382 145.683 381.957 145.945C381.917 146.191 381.842 146.444 381.731 146.703C381.617 146.962 381.491 147.179 381.351 147.354L382.169 147.487C382.302 147.319 382.415 147.112 382.508 146.866C382.601 146.617 382.672 146.345 382.72 146.049C382.796 145.584 382.783 145.177 382.682 144.828C382.58 144.479 382.401 144.198 382.143 143.984C381.882 143.77 381.554 143.631 381.158 143.566C380.796 143.507 380.477 143.534 380.203 143.648C379.926 143.761 379.7 143.946 379.526 144.202ZM378.036 139.29C377.891 139.535 377.791 139.821 377.738 140.148C377.686 140.467 377.69 140.767 377.749 141.048C377.81 141.327 377.927 141.561 378.102 141.751C378.274 141.94 378.507 142.058 378.8 142.106C379.029 142.143 379.237 142.134 379.426 142.078C379.612 142.018 379.784 141.926 379.942 141.802C380.097 141.676 380.242 141.534 380.376 141.374C380.437 141.597 380.523 141.808 380.633 142.005C380.744 142.2 380.886 142.365 381.059 142.498C381.233 142.632 381.449 142.72 381.709 142.763C382.022 142.814 382.304 142.783 382.555 142.671C382.803 142.559 383.011 142.368 383.178 142.1C383.346 141.832 383.463 141.493 383.53 141.085C383.592 140.704 383.585 140.362 383.508 140.056C383.428 139.75 383.287 139.499 383.085 139.302C382.88 139.103 382.619 138.977 382.303 138.925C382.051 138.884 381.822 138.906 381.615 138.991C381.409 139.074 381.222 139.198 381.052 139.363C380.881 139.525 380.723 139.707 380.579 139.911C380.514 139.697 380.431 139.5 380.331 139.32C380.228 139.14 380.1 138.99 379.945 138.869C379.791 138.747 379.6 138.667 379.371 138.629C379.075 138.581 378.815 138.618 378.589 138.739C378.364 138.861 378.179 139.044 378.036 139.29ZM379.522 134.697L384.003 137.7L384.162 136.725L379.507 133.693L378.887 133.592L378.25 137.494L379.044 137.623L379.522 134.697Z" fill="#59BB49"/>
</svg>
