<svg width="920" height="755" viewBox="0 0 920 755" fill="none" xmlns="http://www.w3.org/2000/svg">
<path d="M378.026 164.018C377.838 164.168 377.621 164.223 377.374 164.183C377.202 164.155 377.055 164.092 376.934 163.994C376.813 163.893 376.711 163.761 376.629 163.601C376.544 163.439 376.475 163.252 376.422 163.037L376.492 162.922C376.607 162.75 376.726 162.597 376.851 162.461C376.973 162.323 377.105 162.218 377.245 162.149C377.386 162.076 377.539 162.053 377.703 162.08C377.961 162.121 378.153 162.244 378.281 162.449C378.409 162.654 378.445 162.929 378.39 163.274C378.335 163.621 378.213 163.869 378.026 164.018Z" fill="#59BB49"/>
<path d="M374.076 163.215C373.978 163.033 373.949 162.818 373.989 162.568C374.031 162.311 374.126 162.113 374.275 161.973C374.422 161.83 374.608 161.777 374.834 161.813C374.999 161.84 375.134 161.901 375.24 161.997C375.344 162.09 375.428 162.208 375.492 162.35C375.554 162.489 375.607 162.643 375.652 162.811C375.554 162.961 375.453 163.097 375.349 163.217C375.243 163.337 375.125 163.428 374.997 163.489C374.869 163.548 374.724 163.564 374.562 163.538C374.333 163.501 374.171 163.394 374.076 163.215Z" fill="#59BB49"/>
<path d="M378.769 159.38C378.582 159.529 378.365 159.584 378.118 159.544C377.946 159.517 377.799 159.453 377.678 159.355C377.557 159.254 377.455 159.123 377.373 158.962C377.288 158.8 377.219 158.613 377.166 158.399L377.236 158.283C377.351 158.112 377.47 157.958 377.595 157.822C377.717 157.684 377.849 157.58 377.989 157.51C378.13 157.437 378.283 157.414 378.447 157.441C378.704 157.482 378.897 157.605 379.025 157.81C379.153 158.016 379.189 158.29 379.134 158.635C379.078 158.982 378.957 159.23 378.769 159.38Z" fill="#59BB49"/>
<path d="M374.819 158.576C374.722 158.394 374.693 158.179 374.733 157.929C374.775 157.672 374.87 157.474 375.019 157.334C375.165 157.191 375.352 157.138 375.578 157.175C375.743 157.201 375.878 157.262 375.984 157.358C376.088 157.451 376.172 157.569 376.236 157.711C376.298 157.85 376.351 158.004 376.395 158.172C376.298 158.323 376.197 158.458 376.093 158.579C375.987 158.699 375.869 158.789 375.741 158.85C375.613 158.909 375.468 158.925 375.306 158.899C375.077 158.863 374.915 158.755 374.819 158.576Z" fill="#59BB49"/>
<path d="M368.5 151.5L385 153.5L381.5 175.5L362 171.5L368.5 151.5ZM375.092 166.498C374.917 166.752 374.8 167.061 374.742 167.423C374.711 167.613 374.696 167.775 374.696 167.906C374.693 168.038 374.695 168.152 374.701 168.247L373.317 167.899L373.659 165.766L372.86 165.638L372.39 168.569L375.114 169.224L375.413 168.864C375.401 168.743 375.395 168.595 375.397 168.418C375.397 168.239 375.409 168.072 375.434 167.918C375.504 167.478 375.645 167.17 375.855 166.992C376.064 166.812 376.33 166.748 376.654 166.8C376.898 166.839 377.092 166.923 377.234 167.051C377.378 167.177 377.473 167.34 377.52 167.54C377.567 167.74 377.57 167.972 377.528 168.234C377.488 168.481 377.413 168.734 377.303 168.993C377.19 169.252 377.064 169.469 376.925 169.645L377.743 169.776C377.876 169.607 377.988 169.4 378.08 169.153C378.173 168.904 378.243 168.632 378.29 168.336C378.365 167.871 378.351 167.464 378.249 167.115C378.147 166.766 377.966 166.486 377.708 166.273C377.446 166.059 377.118 165.921 376.722 165.858C376.359 165.799 376.041 165.827 375.767 165.942C375.49 166.056 375.265 166.241 375.092 166.498ZM373.588 161.59C373.444 161.836 373.345 162.122 373.293 162.448C373.241 162.767 373.246 163.067 373.306 163.349C373.367 163.627 373.485 163.861 373.661 164.05C373.834 164.239 374.067 164.357 374.36 164.404C374.588 164.44 374.797 164.43 374.986 164.374C375.172 164.314 375.344 164.221 375.501 164.096C375.656 163.971 375.8 163.828 375.934 163.667C375.995 163.891 376.082 164.101 376.192 164.298C376.304 164.493 376.446 164.657 376.62 164.79C376.794 164.923 377.011 165.011 377.27 165.053C377.584 165.103 377.866 165.072 378.116 164.959C378.364 164.845 378.571 164.655 378.738 164.386C378.905 164.117 379.021 163.779 379.087 163.37C379.148 162.989 379.14 162.646 379.062 162.341C378.982 162.035 378.84 161.785 378.637 161.588C378.431 161.389 378.17 161.264 377.854 161.214C377.602 161.173 377.373 161.196 377.167 161.282C376.961 161.365 376.774 161.489 376.605 161.654C376.433 161.817 376.276 162 376.133 162.204C376.067 161.99 375.984 161.793 375.883 161.614C375.78 161.434 375.651 161.284 375.496 161.164C375.342 161.042 375.15 160.962 374.921 160.925C374.626 160.878 374.365 160.915 374.14 161.037C373.915 161.16 373.731 161.344 373.588 161.59ZM374.332 156.951C374.187 157.197 374.089 157.483 374.036 157.81C373.985 158.128 373.99 158.429 374.05 158.71C374.111 158.989 374.229 159.223 374.405 159.412C374.577 159.6 374.81 159.718 375.104 159.765C375.332 159.802 375.541 159.792 375.729 159.735C375.916 159.675 376.088 159.583 376.245 159.457C376.399 159.332 376.544 159.189 376.678 159.028C376.739 159.252 376.826 159.462 376.936 159.659C377.048 159.854 377.19 160.018 377.364 160.151C377.538 160.285 377.754 160.372 378.014 160.414C378.328 160.464 378.61 160.433 378.86 160.32C379.108 160.207 379.315 160.016 379.482 159.747C379.649 159.478 379.765 159.14 379.831 158.731C379.892 158.35 379.884 158.007 379.806 157.702C379.726 157.397 379.584 157.146 379.381 156.95C379.175 156.751 378.914 156.626 378.598 156.575C378.346 156.534 378.117 156.557 377.911 156.643C377.705 156.726 377.517 156.85 377.348 157.015C377.177 157.178 377.02 157.361 376.877 157.565C376.811 157.351 376.727 157.154 376.627 156.975C376.524 156.795 376.395 156.645 376.24 156.525C376.086 156.403 375.894 156.323 375.665 156.287C375.37 156.239 375.109 156.276 374.884 156.399C374.658 156.521 374.475 156.705 374.332 156.951Z" fill="#59BB49"/>
</svg>
