<svg width="920" height="755" viewBox="0 0 920 755" fill="none" xmlns="http://www.w3.org/2000/svg">
<path d="M375.009 185.007C374.822 185.156 374.605 185.211 374.358 185.171C374.185 185.144 374.039 185.081 373.917 184.982C373.796 184.881 373.695 184.75 373.612 184.589C373.527 184.428 373.459 184.24 373.406 184.026L373.476 183.91C373.59 183.739 373.71 183.585 373.835 183.45C373.957 183.311 374.089 183.207 374.229 183.137C374.37 183.065 374.522 183.042 374.687 183.068C374.944 183.109 375.137 183.232 375.265 183.438C375.393 183.643 375.429 183.918 375.374 184.262C375.318 184.609 375.197 184.857 375.009 185.007Z" fill="#59BB49"/>
<path d="M371.059 184.203C370.962 184.021 370.933 183.806 370.973 183.556C371.014 183.299 371.109 183.101 371.258 182.961C371.405 182.819 371.592 182.765 371.818 182.802C371.983 182.828 372.118 182.889 372.224 182.985C372.327 183.079 372.411 183.196 372.476 183.338C372.538 183.478 372.591 183.631 372.635 183.799C372.537 183.95 372.436 184.085 372.333 184.206C372.226 184.326 372.109 184.416 371.981 184.478C371.852 184.536 371.707 184.552 371.545 184.526C371.317 184.49 371.154 184.382 371.059 184.203Z" fill="#59BB49"/>
<path d="M371.939 179.729C371.775 179.518 371.716 179.269 371.762 178.984C371.79 178.807 371.855 178.659 371.955 178.54C372.054 178.419 372.173 178.325 372.313 178.258C372.453 178.19 372.602 178.148 372.761 178.131C372.92 178.112 373.075 178.115 373.226 178.139C373.373 178.162 373.51 178.23 373.637 178.343C373.764 178.453 373.861 178.597 373.928 178.774C373.992 178.947 374.007 179.145 373.971 179.366C373.92 179.685 373.788 179.906 373.576 180.031C373.363 180.155 373.096 180.191 372.775 180.14C372.379 180.076 372.1 179.939 371.939 179.729Z" fill="#59BB49"/>
<path d="M361.5 172.5L359.5 179.5L376.5 208.5L381.5 176L361.5 172.5ZM372.076 187.486C372.249 187.229 372.474 187.044 372.75 186.93C373.024 186.816 373.343 186.788 373.705 186.846C374.101 186.909 374.43 187.048 374.691 187.261C374.95 187.474 375.13 187.755 375.233 188.104C375.335 188.452 375.349 188.859 375.274 189.325C375.227 189.62 375.157 189.893 375.064 190.142C374.972 190.388 374.859 190.595 374.727 190.764L373.909 190.633C374.048 190.457 374.174 190.24 374.287 189.981C374.397 189.722 374.472 189.469 374.511 189.222C374.553 188.96 374.551 188.729 374.504 188.529C374.457 188.329 374.361 188.166 374.218 188.04C374.075 187.911 373.882 187.828 373.637 187.788C373.313 187.736 373.047 187.801 372.839 187.981C372.629 188.158 372.488 188.467 372.418 188.906C372.393 189.06 372.381 189.227 372.381 189.407C372.379 189.583 372.384 189.732 372.396 189.852L372.097 190.212L369.374 189.557L369.844 186.626L370.642 186.754L370.3 188.887L371.684 189.236C371.679 189.14 371.677 189.026 371.68 188.895C371.68 188.763 371.695 188.602 371.725 188.411C371.784 188.049 371.9 187.741 372.076 187.486ZM370.572 182.578C370.714 182.332 370.898 182.148 371.124 182.026C371.349 181.904 371.609 181.866 371.905 181.914C372.134 181.95 372.326 182.03 372.48 182.152C372.635 182.272 372.764 182.422 372.867 182.602C372.967 182.782 373.05 182.978 373.116 183.192C373.26 182.988 373.417 182.805 373.588 182.643C373.757 182.477 373.945 182.353 374.15 182.27C374.357 182.184 374.586 182.162 374.838 182.202C375.154 182.253 375.415 182.378 375.62 182.577C375.824 182.773 375.965 183.024 376.046 183.329C376.123 183.635 376.132 183.977 376.071 184.358C376.005 184.767 375.889 185.106 375.722 185.374C375.555 185.643 375.347 185.834 375.1 185.947C374.849 186.06 374.568 186.091 374.254 186.041C373.994 185.999 373.777 185.912 373.604 185.778C373.43 185.645 373.287 185.481 373.176 185.286C373.065 185.089 372.979 184.879 372.917 184.655C372.783 184.816 372.639 184.959 372.485 185.085C372.327 185.21 372.156 185.302 371.969 185.362C371.781 185.419 371.572 185.429 371.343 185.392C371.05 185.345 370.817 185.227 370.644 185.039C370.469 184.85 370.351 184.616 370.29 184.337C370.23 184.056 370.225 183.756 370.276 183.437C370.329 183.11 370.427 182.824 370.572 182.578ZM374.778 177.517C375.092 177.615 375.38 177.746 375.641 177.909C375.903 178.07 376.125 178.27 376.308 178.51C376.489 178.748 376.615 179.032 376.686 179.362C376.757 179.693 376.757 180.078 376.686 180.518C376.669 180.628 376.642 180.756 376.605 180.9C376.572 181.042 376.538 181.158 376.502 181.248L375.746 181.126C375.79 181.033 375.831 180.928 375.868 180.81C375.903 180.689 375.931 180.568 375.95 180.447C376.026 179.971 375.997 179.587 375.862 179.293C375.728 178.998 375.514 178.769 375.22 178.609C374.927 178.446 374.584 178.325 374.19 178.246L374.183 178.292C374.294 178.387 374.393 178.499 374.477 178.628C374.559 178.758 374.618 178.911 374.653 179.088C374.685 179.264 374.682 179.472 374.644 179.711C374.592 180.035 374.478 180.307 374.303 180.527C374.129 180.744 373.901 180.899 373.62 180.991C373.336 181.08 373.011 181.095 372.643 181.036C372.245 180.972 371.913 180.841 371.65 180.644C371.386 180.446 371.199 180.195 371.09 179.893C370.977 179.59 370.951 179.251 371.012 178.876C371.057 178.593 371.15 178.34 371.291 178.117C371.43 177.892 371.619 177.706 371.856 177.559C372.09 177.412 372.371 177.313 372.698 177.263C373.023 177.212 373.392 177.22 373.806 177.286C374.141 177.34 374.464 177.417 374.778 177.517Z" fill="#59BB49"/>
</svg>
