<svg width="920" height="755" viewBox="0 0 920 755" fill="none" xmlns="http://www.w3.org/2000/svg">
<path d="M549.466 182.973C549.67 182.801 549.915 182.732 550.202 182.766C550.381 182.787 550.531 182.846 550.653 182.942C550.779 183.036 550.878 183.151 550.95 183.288C551.023 183.425 551.071 183.573 551.094 183.73C551.12 183.888 551.124 184.043 551.105 184.196C551.088 184.343 551.025 184.483 550.918 184.614C550.813 184.746 550.673 184.848 550.499 184.922C550.328 184.993 550.131 185.016 549.909 184.989C549.588 184.951 549.362 184.828 549.229 184.621C549.097 184.413 549.05 184.148 549.088 183.825C549.136 183.427 549.262 183.143 549.466 182.973Z" fill="#59BB49"/>
<path d="M553.621 186.574C553.597 186.246 553.614 185.843 553.671 185.364C553.728 184.888 553.807 184.494 553.907 184.181C554.01 183.868 554.144 183.64 554.308 183.497C554.475 183.352 554.682 183.294 554.93 183.324C555.179 183.353 555.367 183.458 555.495 183.639C555.623 183.817 555.7 184.07 555.726 184.398C555.753 184.727 555.737 185.129 555.68 185.605C555.623 186.085 555.541 186.482 555.436 186.795C555.333 187.108 555.198 187.334 555.032 187.474C554.866 187.614 554.66 187.67 554.414 187.64C554.168 187.611 553.981 187.509 553.853 187.333C553.725 187.155 553.647 186.902 553.621 186.574Z" fill="#59BB49"/>
<path d="M539.5 177L563 179.5L561.5 193L538 189.5L539.5 177ZM546.384 183.977C546.123 183.812 545.811 183.708 545.446 183.664C545.255 183.642 545.093 183.633 544.961 183.638C544.83 183.641 544.716 183.647 544.621 183.656L544.914 182.259L547.059 182.516L547.155 181.713L544.207 181.36L543.662 184.108L544.033 184.392C544.153 184.375 544.301 184.364 544.478 184.359C544.657 184.352 544.824 184.357 544.979 184.376C545.421 184.429 545.735 184.557 545.921 184.76C546.109 184.961 546.184 185.224 546.145 185.55C546.116 185.796 546.04 185.992 545.917 186.14C545.797 186.289 545.638 186.39 545.44 186.445C545.242 186.5 545.011 186.512 544.747 186.48C544.499 186.451 544.243 186.386 543.98 186.286C543.717 186.184 543.495 186.067 543.314 185.935L543.215 186.757C543.389 186.883 543.601 186.987 543.851 187.069C544.103 187.152 544.378 187.211 544.675 187.247C545.143 187.303 545.549 187.273 545.894 187.156C546.238 187.04 546.512 186.849 546.714 186.582C546.917 186.312 547.042 185.978 547.089 185.58C547.133 185.216 547.092 184.899 546.967 184.629C546.842 184.357 546.648 184.14 546.384 183.977ZM551.788 185.721C551.876 185.404 551.94 185.077 551.98 184.741C552.03 184.325 552.023 183.955 551.96 183.633C551.896 183.308 551.786 183.031 551.63 182.803C551.474 182.572 551.281 182.391 551.05 182.261C550.821 182.129 550.565 182.046 550.281 182.012C549.903 181.967 549.565 182.007 549.267 182.131C548.97 182.253 548.727 182.449 548.54 182.721C548.353 182.992 548.235 183.328 548.187 183.729C548.143 184.099 548.171 184.423 548.271 184.703C548.375 184.98 548.538 185.201 548.762 185.367C548.989 185.533 549.265 185.636 549.591 185.675C549.831 185.704 550.039 185.698 550.214 185.659C550.39 185.617 550.541 185.552 550.666 185.465C550.793 185.375 550.901 185.273 550.99 185.158L551.037 185.163C550.974 185.56 550.867 185.907 550.715 186.207C550.567 186.506 550.347 186.729 550.057 186.875C549.769 187.022 549.386 187.067 548.908 187.009C548.787 186.995 548.665 186.972 548.542 186.942C548.423 186.909 548.316 186.873 548.221 186.833L548.13 187.593C548.221 187.625 548.338 187.655 548.481 187.682C548.627 187.713 548.756 187.735 548.867 187.748C549.309 187.801 549.694 187.785 550.021 187.701C550.349 187.617 550.627 187.48 550.857 187.29C551.09 187.097 551.282 186.867 551.432 186.599C551.584 186.332 551.703 186.039 551.788 185.721ZM556.348 186.931C556.464 186.578 556.549 186.173 556.603 185.715C556.677 185.102 556.67 184.57 556.582 184.119C556.497 183.666 556.325 183.307 556.065 183.042C555.809 182.776 555.461 182.616 555.021 182.563C554.556 182.508 554.168 182.579 553.859 182.778C553.549 182.977 553.305 183.288 553.126 183.71C552.95 184.129 552.825 184.644 552.752 185.254C552.679 185.865 552.685 186.396 552.77 186.85C552.855 187.301 553.026 187.659 553.282 187.926C553.539 188.19 553.886 188.348 554.323 188.401C554.672 188.442 554.977 188.412 555.239 188.31C555.5 188.207 555.722 188.039 555.905 187.807C556.087 187.574 556.235 187.283 556.348 186.931Z" fill="#59BB49"/>
</svg>
