<svg width="920" height="755" viewBox="0 0 920 755" fill="none" xmlns="http://www.w3.org/2000/svg">
<path d="M546.966 195.973C547.17 195.801 547.415 195.732 547.702 195.766C547.881 195.787 548.031 195.846 548.153 195.942C548.279 196.036 548.378 196.151 548.45 196.288C548.523 196.425 548.571 196.573 548.594 196.73C548.62 196.888 548.624 197.043 548.605 197.196C548.588 197.343 548.525 197.483 548.418 197.614C548.313 197.746 548.173 197.848 547.999 197.922C547.828 197.993 547.631 198.016 547.409 197.989C547.088 197.951 546.862 197.828 546.729 197.621C546.597 197.413 546.55 197.148 546.588 196.825C546.636 196.427 546.762 196.143 546.966 195.973Z" fill="#59BB49"/>
<path d="M537.5 190L561 193.5L558.5 206L535.5 202.5L537.5 190ZM543.884 196.977C543.623 196.812 543.311 196.708 542.946 196.664C542.755 196.642 542.593 196.633 542.461 196.638C542.33 196.641 542.216 196.647 542.121 196.656L542.414 195.259L544.559 195.516L544.655 194.713L541.707 194.36L541.162 197.108L541.533 197.392C541.653 197.375 541.801 197.364 541.978 197.359C542.157 197.352 542.324 197.357 542.479 197.376C542.921 197.429 543.235 197.557 543.421 197.76C543.609 197.961 543.684 198.224 543.645 198.55C543.616 198.796 543.54 198.992 543.417 199.14C543.297 199.289 543.138 199.39 542.94 199.445C542.742 199.5 542.511 199.512 542.247 199.48C541.999 199.451 541.743 199.386 541.48 199.286C541.217 199.184 540.995 199.067 540.814 198.935L540.715 199.757C540.889 199.883 541.101 199.987 541.351 200.069C541.603 200.152 541.878 200.211 542.175 200.247C542.643 200.303 543.049 200.273 543.394 200.156C543.738 200.04 544.012 199.849 544.214 199.582C544.417 199.312 544.542 198.978 544.589 198.58C544.633 198.216 544.592 197.899 544.467 197.629C544.342 197.357 544.148 197.14 543.884 196.977ZM549.288 198.721C549.376 198.404 549.44 198.077 549.48 197.741C549.53 197.325 549.523 196.955 549.46 196.633C549.396 196.308 549.286 196.031 549.13 195.803C548.974 195.572 548.781 195.391 548.55 195.261C548.321 195.129 548.065 195.046 547.781 195.012C547.403 194.967 547.065 195.007 546.767 195.131C546.47 195.253 546.227 195.449 546.04 195.721C545.853 195.992 545.735 196.328 545.687 196.729C545.643 197.099 545.671 197.423 545.771 197.703C545.875 197.98 546.038 198.201 546.262 198.367C546.489 198.533 546.765 198.636 547.091 198.675C547.331 198.704 547.539 198.698 547.714 198.659C547.89 198.617 548.041 198.552 548.166 198.465C548.293 198.375 548.401 198.273 548.49 198.158L548.537 198.163C548.474 198.56 548.367 198.907 548.215 199.207C548.067 199.506 547.847 199.729 547.557 199.875C547.269 200.022 546.886 200.067 546.408 200.009C546.287 199.995 546.165 199.972 546.042 199.942C545.923 199.909 545.816 199.873 545.721 199.833L545.63 200.593C545.721 200.625 545.838 200.655 545.981 200.682C546.127 200.713 546.256 200.735 546.367 200.748C546.809 200.801 547.194 200.785 547.521 200.701C547.849 200.617 548.127 200.48 548.357 200.29C548.59 200.097 548.782 199.867 548.932 199.599C549.084 199.332 549.203 199.039 549.288 198.721ZM551.689 201.306L552.604 201.415L553.282 195.745L552.522 195.654L550.681 196.771L551.07 197.404L551.783 196.962C551.88 196.898 551.972 196.835 552.058 196.775C552.146 196.714 552.221 196.658 552.283 196.605C552.262 196.71 552.242 196.82 552.223 196.936L552.173 197.292C552.156 197.413 552.14 197.535 552.125 197.656L551.689 201.306Z" fill="#59BB49"/>
</svg>
