<svg width="920" height="755" viewBox="0 0 920 755" fill="none" xmlns="http://www.w3.org/2000/svg">
<path d="M544.966 208.973C545.17 208.801 545.415 208.732 545.702 208.766C545.881 208.787 546.031 208.846 546.153 208.942C546.279 209.036 546.378 209.151 546.45 209.288C546.523 209.425 546.571 209.573 546.594 209.73C546.62 209.888 546.624 210.043 546.605 210.196C546.588 210.343 546.525 210.483 546.418 210.614C546.313 210.746 546.173 210.848 545.999 210.922C545.828 210.993 545.631 211.016 545.409 210.989C545.088 210.951 544.862 210.828 544.729 210.621C544.597 210.413 544.55 210.148 544.588 209.825C544.636 209.427 544.762 209.143 544.966 208.973Z" fill="#59BB49"/>
<path d="M535.5 203L558 206.5L556 219L533.5 215.5L535.5 203ZM541.884 209.977C541.623 209.812 541.311 209.708 540.946 209.664C540.755 209.642 540.593 209.633 540.461 209.638C540.33 209.641 540.216 209.647 540.121 209.656L540.414 208.259L542.559 208.516L542.655 207.713L539.707 207.36L539.162 210.108L539.533 210.392C539.653 210.375 539.801 210.364 539.978 210.359C540.157 210.352 540.324 210.357 540.479 210.376C540.921 210.429 541.235 210.557 541.421 210.76C541.609 210.961 541.684 211.224 541.645 211.55C541.616 211.796 541.54 211.992 541.417 212.14C541.297 212.289 541.138 212.39 540.94 212.445C540.742 212.5 540.511 212.512 540.247 212.48C539.999 212.451 539.743 212.386 539.48 212.286C539.217 212.184 538.995 212.067 538.814 211.935L538.715 212.757C538.889 212.883 539.101 212.987 539.351 213.069C539.603 213.152 539.878 213.211 540.175 213.247C540.643 213.303 541.049 213.273 541.394 213.156C541.738 213.04 542.012 212.849 542.214 212.582C542.417 212.312 542.542 211.978 542.589 211.58C542.633 211.216 542.592 210.899 542.467 210.629C542.342 210.357 542.148 210.14 541.884 209.977ZM547.288 211.721C547.376 211.404 547.44 211.077 547.48 210.741C547.53 210.325 547.523 209.955 547.46 209.633C547.396 209.308 547.286 209.031 547.13 208.803C546.974 208.572 546.781 208.391 546.55 208.261C546.321 208.129 546.065 208.046 545.781 208.012C545.403 207.967 545.065 208.007 544.767 208.131C544.47 208.253 544.227 208.449 544.04 208.721C543.853 208.992 543.735 209.328 543.687 209.729C543.643 210.099 543.671 210.423 543.771 210.703C543.875 210.98 544.038 211.201 544.262 211.367C544.489 211.533 544.765 211.636 545.091 211.675C545.331 211.704 545.539 211.698 545.714 211.659C545.89 211.617 546.041 211.552 546.166 211.465C546.293 211.375 546.401 211.273 546.49 211.158L546.537 211.163C546.474 211.56 546.367 211.907 546.215 212.207C546.067 212.506 545.847 212.729 545.557 212.875C545.269 213.022 544.886 213.067 544.408 213.009C544.287 212.995 544.165 212.972 544.042 212.942C543.923 212.909 543.816 212.873 543.721 212.833L543.63 213.593C543.721 213.625 543.838 213.655 543.981 213.682C544.127 213.713 544.256 213.735 544.367 213.748C544.809 213.801 545.194 213.785 545.521 213.701C545.849 213.617 546.127 213.48 546.357 213.29C546.59 213.097 546.782 212.867 546.932 212.599C547.084 212.332 547.203 212.039 547.288 211.721ZM547.924 214.095L551.764 214.554L551.859 213.755L549.175 213.434L549.181 213.391L550.276 212.551C550.622 212.293 550.922 212.052 551.177 211.828C551.432 211.602 551.636 211.367 551.789 211.123C551.941 210.879 552.036 210.604 552.072 210.299C552.108 209.996 552.069 209.723 551.954 209.478C551.842 209.234 551.662 209.033 551.416 208.875C551.171 208.714 550.868 208.613 550.509 208.57C550.224 208.536 549.967 208.539 549.736 208.58C549.506 208.618 549.294 208.681 549.1 208.771C548.908 208.861 548.725 208.964 548.551 209.079L548.98 209.74C549.224 209.588 549.455 209.477 549.673 209.406C549.894 209.333 550.128 209.311 550.373 209.34C550.632 209.371 550.831 209.467 550.972 209.628C551.113 209.787 551.167 210.003 551.135 210.277C551.108 210.5 551.038 210.7 550.925 210.878C550.815 211.056 550.655 211.24 550.446 211.43C550.237 211.618 549.973 211.839 549.654 212.095L548.006 213.408L547.924 214.095Z" fill="#59BB49"/>
</svg>
