<svg width="920" height="755" viewBox="0 0 920 755" fill="none" xmlns="http://www.w3.org/2000/svg">
<path d="M542.966 222.973C543.17 222.801 543.415 222.732 543.702 222.766C543.881 222.787 544.031 222.846 544.153 222.942C544.279 223.036 544.378 223.151 544.45 223.288C544.523 223.425 544.571 223.573 544.594 223.73C544.62 223.888 544.624 224.043 544.605 224.196C544.588 224.343 544.525 224.483 544.418 224.614C544.313 224.746 544.173 224.848 543.999 224.922C543.828 224.993 543.631 225.016 543.409 224.989C543.088 224.951 542.862 224.828 542.729 224.621C542.597 224.413 542.55 224.148 542.588 223.825C542.636 223.427 542.762 223.143 542.966 222.973Z" fill="#59BB49"/>
<path d="M533.5 216L556 219.5L554 232L532 228.5L533.5 216ZM539.884 223.977C539.623 223.812 539.311 223.708 538.946 223.664C538.755 223.642 538.593 223.633 538.461 223.638C538.33 223.641 538.216 223.647 538.121 223.656L538.414 222.259L540.559 222.516L540.655 221.713L537.707 221.36L537.162 224.108L537.533 224.392C537.653 224.375 537.801 224.364 537.978 224.359C538.157 224.352 538.324 224.357 538.479 224.376C538.921 224.429 539.235 224.557 539.421 224.76C539.609 224.961 539.684 225.224 539.645 225.55C539.616 225.796 539.54 225.992 539.417 226.14C539.297 226.289 539.138 226.39 538.94 226.445C538.742 226.5 538.511 226.512 538.247 226.48C537.999 226.451 537.743 226.386 537.48 226.286C537.217 226.184 536.995 226.067 536.814 225.935L536.715 226.757C536.889 226.883 537.101 226.987 537.351 227.069C537.603 227.152 537.878 227.211 538.175 227.247C538.643 227.303 539.049 227.273 539.394 227.156C539.738 227.04 540.012 226.849 540.214 226.582C540.417 226.312 540.542 225.978 540.589 225.58C540.633 225.216 540.592 224.899 540.467 224.629C540.342 224.357 540.148 224.14 539.884 223.977ZM545.288 225.721C545.376 225.404 545.44 225.077 545.48 224.741C545.53 224.325 545.523 223.955 545.46 223.633C545.396 223.308 545.286 223.031 545.13 222.803C544.974 222.572 544.781 222.391 544.55 222.261C544.321 222.129 544.065 222.046 543.781 222.012C543.403 221.967 543.065 222.007 542.767 222.131C542.47 222.253 542.227 222.449 542.04 222.721C541.853 222.992 541.735 223.328 541.687 223.729C541.643 224.099 541.671 224.423 541.771 224.703C541.875 224.98 542.038 225.201 542.262 225.367C542.489 225.533 542.765 225.636 543.091 225.675C543.331 225.704 543.539 225.698 543.714 225.659C543.89 225.617 544.041 225.552 544.166 225.465C544.293 225.375 544.401 225.273 544.49 225.158L544.537 225.163C544.474 225.56 544.367 225.907 544.215 226.207C544.067 226.506 543.847 226.729 543.557 226.875C543.269 227.022 542.886 227.067 542.408 227.009C542.287 226.995 542.165 226.972 542.042 226.942C541.923 226.909 541.816 226.873 541.721 226.833L541.63 227.593C541.721 227.625 541.838 227.655 541.981 227.682C542.127 227.713 542.256 227.735 542.367 227.748C542.809 227.801 543.194 227.785 543.521 227.701C543.849 227.617 544.127 227.48 544.357 227.29C544.59 227.097 544.782 226.867 544.932 226.599C545.084 226.332 545.203 226.039 545.288 225.721ZM549.835 224.802C549.961 224.625 550.039 224.409 550.07 224.153C550.12 223.734 550.002 223.382 549.716 223.096C549.431 222.807 548.997 222.628 548.416 222.559C548.02 222.511 547.667 222.525 547.356 222.601C547.046 222.677 546.773 222.782 546.539 222.916L546.902 223.601C547.03 223.538 547.164 223.48 547.304 223.429C547.444 223.377 547.594 223.339 547.755 223.314C547.918 223.288 548.095 223.287 548.286 223.31C548.597 223.347 548.822 223.444 548.964 223.6C549.105 223.753 549.162 223.951 549.133 224.194C549.11 224.381 549.046 224.538 548.938 224.667C548.834 224.796 548.677 224.889 548.468 224.945C548.26 224.999 547.992 225.006 547.663 224.967L547.159 224.906L547.071 225.639L547.572 225.699C547.916 225.74 548.192 225.806 548.402 225.897C548.614 225.988 548.764 226.104 548.852 226.246C548.942 226.388 548.976 226.56 548.952 226.761C548.914 227.074 548.784 227.308 548.561 227.462C548.338 227.614 547.99 227.661 547.517 227.605C547.274 227.576 547.021 227.513 546.757 227.415C546.493 227.318 546.248 227.196 546.022 227.048L545.925 227.859C546.147 227.996 546.386 228.104 546.641 228.185C546.899 228.265 547.182 228.324 547.49 228.361C548.001 228.422 548.429 228.398 548.773 228.29C549.116 228.182 549.382 228.009 549.57 227.772C549.759 227.532 549.873 227.248 549.912 226.919C549.957 226.545 549.877 226.229 549.671 225.974C549.468 225.719 549.144 225.536 548.698 225.425L548.702 225.398C548.943 225.374 549.16 225.314 549.353 225.216C549.548 225.116 549.709 224.978 549.835 224.802Z" fill="#59BB49"/>
</svg>
