<svg width="920" height="755" viewBox="0 0 920 755" fill="none" xmlns="http://www.w3.org/2000/svg">
<path d="M540.966 234.973C541.17 234.801 541.415 234.732 541.702 234.766C541.881 234.787 542.031 234.846 542.153 234.942C542.279 235.036 542.378 235.151 542.45 235.288C542.523 235.425 542.571 235.573 542.594 235.73C542.62 235.888 542.624 236.043 542.605 236.196C542.588 236.343 542.525 236.483 542.418 236.614C542.313 236.746 542.173 236.848 541.999 236.922C541.828 236.993 541.631 237.016 541.409 236.989C541.088 236.951 540.862 236.828 540.729 236.621C540.597 236.413 540.55 236.148 540.588 235.825C540.636 235.427 540.762 235.143 540.966 234.973Z" fill="#59BB49"/>
<path d="M546.709 236.97L546.541 238.378L544.807 238.17L546.446 236.313C546.525 236.22 546.601 236.124 546.673 236.025C546.745 235.924 546.812 235.824 546.874 235.727L546.905 235.73C546.895 235.792 546.882 235.871 546.865 235.966C546.849 236.058 546.831 236.16 546.813 236.27C546.794 236.381 546.775 236.496 546.756 236.617C546.739 236.736 546.723 236.854 546.709 236.97Z" fill="#59BB49"/>
<path d="M531.5 229L554 232.5L552 245L529.5 242L531.5 229ZM537.884 235.977C537.623 235.812 537.311 235.708 536.946 235.664C536.755 235.642 536.593 235.633 536.461 235.638C536.33 235.641 536.216 235.647 536.121 235.656L536.414 234.259L538.559 234.516L538.655 233.713L535.707 233.36L535.162 236.108L535.533 236.392C535.653 236.375 535.801 236.364 535.978 236.359C536.157 236.352 536.324 236.357 536.479 236.376C536.921 236.429 537.235 236.557 537.421 236.76C537.609 236.961 537.684 237.224 537.645 237.55C537.616 237.796 537.54 237.992 537.417 238.14C537.297 238.289 537.138 238.39 536.94 238.445C536.742 238.5 536.511 238.512 536.247 238.48C535.999 238.451 535.743 238.386 535.48 238.286C535.217 238.184 534.995 238.067 534.814 237.935L534.715 238.757C534.889 238.883 535.101 238.987 535.351 239.069C535.603 239.152 535.878 239.211 536.175 239.247C536.643 239.303 537.049 239.273 537.394 239.156C537.738 239.04 538.012 238.849 538.214 238.582C538.417 238.312 538.542 237.978 538.589 237.58C538.633 237.216 538.592 236.899 538.467 236.629C538.342 236.357 538.148 236.14 537.884 235.977ZM543.288 237.721C543.376 237.404 543.44 237.077 543.48 236.741C543.53 236.325 543.523 235.955 543.46 235.633C543.396 235.308 543.286 235.031 543.13 234.803C542.974 234.572 542.781 234.391 542.55 234.261C542.321 234.129 542.065 234.046 541.781 234.012C541.403 233.967 541.065 234.007 540.767 234.131C540.47 234.253 540.227 234.449 540.04 234.721C539.853 234.992 539.735 235.328 539.687 235.729C539.643 236.099 539.671 236.423 539.771 236.703C539.875 236.98 540.038 237.201 540.262 237.367C540.489 237.533 540.765 237.636 541.091 237.675C541.331 237.704 541.539 237.698 541.714 237.659C541.89 237.617 542.041 237.552 542.166 237.465C542.293 237.375 542.401 237.273 542.49 237.158L542.537 237.163C542.474 237.56 542.367 237.907 542.215 238.207C542.067 238.506 541.847 238.729 541.557 238.875C541.269 239.022 540.886 239.067 540.408 239.009C540.287 238.995 540.165 238.972 540.042 238.942C539.923 238.909 539.816 238.873 539.721 238.833L539.63 239.593C539.721 239.625 539.838 239.655 539.981 239.682C540.127 239.713 540.256 239.735 540.367 239.748C540.809 239.801 541.194 239.785 541.521 239.701C541.849 239.617 542.127 239.48 542.357 239.29C542.59 239.097 542.782 238.867 542.932 238.599C543.084 238.332 543.203 238.039 543.288 237.721ZM547.35 239.242L548.118 239.334L548.209 238.577L547.441 238.485L547.882 234.801L546.993 234.695L543.954 238.135L543.871 238.826L546.451 239.134L546.302 240.379L547.202 240.487L547.35 239.242Z" fill="#59BB49"/>
</svg>
