<svg width="920" height="755" viewBox="0 0 920 755" fill="none" xmlns="http://www.w3.org/2000/svg">
<path d="M538.966 248.973C539.17 248.801 539.415 248.732 539.702 248.766C539.881 248.787 540.031 248.846 540.153 248.942C540.279 249.036 540.378 249.151 540.45 249.288C540.523 249.425 540.571 249.573 540.594 249.73C540.62 249.888 540.624 250.043 540.605 250.196C540.588 250.343 540.525 250.483 540.418 250.614C540.313 250.746 540.173 250.848 539.999 250.922C539.828 250.993 539.631 251.016 539.409 250.989C539.088 250.951 538.862 250.828 538.729 250.621C538.597 250.413 538.55 250.148 538.588 249.825C538.636 249.427 538.762 249.143 538.966 248.973Z" fill="#59BB49"/>
<path d="M529.5 242.5L552 245.5L550 258L528 254.5L529.5 242.5ZM535.884 249.977C535.623 249.812 535.311 249.708 534.946 249.664C534.755 249.642 534.593 249.633 534.461 249.638C534.33 249.641 534.216 249.647 534.121 249.656L534.414 248.259L536.559 248.516L536.655 247.713L533.707 247.36L533.162 250.108L533.533 250.392C533.653 250.375 533.801 250.364 533.978 250.359C534.157 250.352 534.324 250.357 534.479 250.376C534.921 250.429 535.235 250.557 535.421 250.76C535.609 250.961 535.684 251.224 535.645 251.55C535.616 251.796 535.54 251.992 535.417 252.14C535.297 252.289 535.138 252.39 534.94 252.445C534.742 252.5 534.511 252.512 534.247 252.48C533.999 252.451 533.743 252.386 533.48 252.286C533.217 252.184 532.995 252.067 532.814 251.935L532.715 252.757C532.889 252.883 533.101 252.987 533.351 253.069C533.603 253.152 533.878 253.211 534.175 253.247C534.643 253.303 535.049 253.273 535.394 253.156C535.738 253.04 536.012 252.849 536.214 252.582C536.417 252.312 536.542 251.978 536.589 251.58C536.633 251.216 536.592 250.899 536.467 250.629C536.342 250.357 536.148 250.14 535.884 249.977ZM541.288 251.721C541.376 251.404 541.44 251.077 541.48 250.741C541.53 250.325 541.523 249.955 541.46 249.633C541.396 249.308 541.286 249.031 541.13 248.803C540.974 248.572 540.781 248.391 540.55 248.261C540.321 248.129 540.065 248.046 539.781 248.012C539.403 247.967 539.065 248.007 538.767 248.131C538.47 248.253 538.227 248.449 538.04 248.721C537.853 248.992 537.735 249.328 537.687 249.729C537.643 250.099 537.671 250.423 537.771 250.703C537.875 250.98 538.038 251.201 538.262 251.367C538.489 251.533 538.765 251.636 539.091 251.675C539.331 251.704 539.539 251.698 539.714 251.659C539.89 251.617 540.041 251.552 540.166 251.465C540.293 251.375 540.401 251.273 540.49 251.158L540.537 251.163C540.474 251.56 540.367 251.907 540.215 252.207C540.067 252.506 539.847 252.729 539.557 252.875C539.269 253.022 538.886 253.067 538.408 253.009C538.287 252.995 538.165 252.972 538.042 252.942C537.923 252.909 537.816 252.873 537.721 252.833L537.63 253.593C537.721 253.625 537.838 253.655 537.981 253.682C538.127 253.713 538.256 253.735 538.367 253.748C538.809 253.801 539.194 253.785 539.521 253.701C539.849 253.617 540.127 253.48 540.357 253.29C540.59 253.097 540.782 252.867 540.932 252.599C541.084 252.332 541.203 252.039 541.288 251.721ZM545.214 251.093C544.953 250.928 544.64 250.824 544.276 250.78C544.084 250.757 543.923 250.749 543.791 250.754C543.66 250.756 543.546 250.763 543.451 250.772L543.744 249.375L545.888 249.632L545.984 248.829L543.037 248.476L542.492 251.224L542.863 251.508C542.983 251.491 543.131 251.48 543.307 251.475C543.487 251.468 543.654 251.473 543.809 251.492C544.251 251.545 544.565 251.673 544.751 251.876C544.939 252.077 545.014 252.34 544.975 252.666C544.945 252.911 544.869 253.108 544.747 253.256C544.627 253.404 544.468 253.506 544.27 253.561C544.072 253.616 543.841 253.628 543.577 253.596C543.329 253.566 543.073 253.502 542.809 253.402C542.546 253.3 542.324 253.183 542.143 253.051L542.045 253.873C542.219 253.999 542.431 254.103 542.68 254.185C542.933 254.268 543.208 254.327 543.505 254.363C543.973 254.419 544.379 254.388 544.724 254.272C545.068 254.156 545.341 253.965 545.544 253.698C545.746 253.428 545.872 253.094 545.919 252.696C545.963 252.331 545.922 252.015 545.797 251.745C545.672 251.473 545.478 251.256 545.214 251.093Z" fill="#59BB49"/>
</svg>
