<svg width="920" height="755" viewBox="0 0 920 755" fill="none" xmlns="http://www.w3.org/2000/svg">
<path d="M536.089 261.92C536.309 261.767 536.56 261.721 536.842 261.781C537.018 261.819 537.162 261.891 537.275 261.998C537.391 262.103 537.479 262.227 537.539 262.37C537.599 262.513 537.633 262.665 537.642 262.824C537.653 262.983 537.642 263.138 537.61 263.288C537.579 263.433 537.504 263.566 537.385 263.687C537.268 263.809 537.12 263.898 536.94 263.956C536.763 264.011 536.565 264.015 536.346 263.968C536.03 263.9 535.816 263.757 535.703 263.539C535.59 263.32 535.567 263.052 535.636 262.733C535.72 262.341 535.871 262.07 536.089 261.92Z" fill="#59BB49"/>
<path d="M541.422 266.913C541.206 267.064 540.953 267.108 540.663 267.046C540.49 267.009 540.346 266.938 540.233 266.834C540.119 266.73 540.033 266.606 539.973 266.463C539.914 266.317 539.878 266.164 539.867 266.005C539.856 265.845 539.866 265.692 539.898 265.544C539.929 265.399 540.003 265.266 540.12 265.144C540.239 265.023 540.388 264.934 540.568 264.877C540.748 264.819 540.945 264.814 541.159 264.859C541.472 264.927 541.687 265.07 541.802 265.289C541.92 265.509 541.945 265.778 541.877 266.096C541.793 266.488 541.642 266.76 541.422 266.913Z" fill="#59BB49"/>
<path d="M528 255L550 258.5L547.5 269L546.5 273L525.5 268.5L528 255ZM532.929 262.637C532.684 262.449 532.382 262.316 532.023 262.239C531.835 262.199 531.675 262.175 531.543 262.168C531.412 262.159 531.298 262.154 531.202 262.155L531.622 260.791L533.735 261.244L533.904 260.453L531.001 259.831L530.206 262.517L530.55 262.834C530.671 262.828 530.819 262.831 530.995 262.842C531.174 262.851 531.34 262.872 531.493 262.905C531.929 262.998 532.229 263.154 532.395 263.374C532.565 263.591 532.615 263.86 532.546 264.181C532.494 264.423 532.401 264.612 532.265 264.748C532.132 264.884 531.964 264.971 531.762 265.008C531.56 265.044 531.329 265.035 531.069 264.979C530.824 264.927 530.576 264.839 530.322 264.715C530.07 264.589 529.859 264.452 529.691 264.304L529.518 265.114C529.679 265.255 529.881 265.378 530.122 265.483C530.366 265.589 530.634 265.673 530.927 265.735C531.388 265.834 531.795 265.842 532.148 265.758C532.502 265.673 532.792 265.508 533.018 265.261C533.245 265.011 533.4 264.69 533.484 264.298C533.561 263.939 533.549 263.619 533.449 263.34C533.35 263.057 533.177 262.823 532.929 262.637ZM538.15 264.87C538.267 264.562 538.36 264.243 538.431 263.912C538.519 263.502 538.546 263.133 538.512 262.806C538.479 262.477 538.395 262.191 538.26 261.949C538.126 261.705 537.95 261.507 537.732 261.357C537.517 261.204 537.27 261.098 536.989 261.038C536.618 260.958 536.278 260.967 535.969 261.063C535.662 261.157 535.402 261.33 535.191 261.583C534.979 261.836 534.831 262.16 534.747 262.555C534.669 262.919 534.667 263.245 534.741 263.533C534.819 263.818 534.961 264.054 535.169 264.239C535.38 264.426 535.645 264.553 535.966 264.622C536.203 264.673 536.41 264.686 536.588 264.663C536.767 264.638 536.923 264.587 537.056 264.512C537.19 264.434 537.307 264.342 537.407 264.235L537.453 264.245C537.354 264.634 537.215 264.971 537.037 265.255C536.861 265.539 536.622 265.741 536.32 265.86C536.02 265.98 535.635 265.989 535.163 265.888C535.044 265.862 534.924 265.829 534.806 265.787C534.69 265.744 534.586 265.698 534.496 265.649L534.335 266.398C534.422 266.438 534.536 266.478 534.677 266.519C534.819 266.563 534.945 266.596 535.055 266.62C535.49 266.713 535.875 266.733 536.208 266.679C536.542 266.626 536.832 266.515 537.079 266.346C537.328 266.176 537.54 265.964 537.714 265.711C537.891 265.459 538.036 265.178 538.15 264.87ZM539.359 263.958C539.245 264.267 539.153 264.585 539.082 264.914C538.994 265.326 538.966 265.697 539 266.027C539.034 266.354 539.118 266.638 539.252 266.88C539.387 267.122 539.562 267.319 539.777 267.472C539.994 267.625 540.242 267.731 540.519 267.79C540.896 267.871 541.237 267.864 541.542 267.77C541.85 267.676 542.108 267.502 542.317 267.249C542.529 266.996 542.677 266.672 542.761 266.277C542.84 265.911 542.84 265.584 542.763 265.299C542.688 265.014 542.544 264.778 542.331 264.591C542.119 264.402 541.85 264.272 541.524 264.202C541.305 264.156 541.106 264.145 540.927 264.171C540.749 264.194 540.592 264.243 540.456 264.317C540.321 264.392 540.201 264.485 540.097 264.596L540.051 264.586C540.154 264.195 540.294 263.859 540.471 263.577C540.649 263.293 540.888 263.092 541.188 262.972C541.489 262.85 541.873 262.839 542.342 262.94C542.459 262.965 542.574 262.997 542.688 263.038C542.804 263.079 542.909 263.124 543.003 263.173L543.162 262.428C543.075 262.386 542.963 262.344 542.825 262.304C542.687 262.264 542.562 262.232 542.45 262.208C542.018 262.115 541.634 262.097 541.3 262.153C540.966 262.207 540.674 262.317 540.426 262.485C540.179 262.653 539.969 262.864 539.795 263.117C539.621 263.37 539.475 263.65 539.359 263.958Z" fill="#59BB49"/>
</svg>
