<svg width="920" height="755" viewBox="0 0 920 755" fill="none" xmlns="http://www.w3.org/2000/svg">
<path d="M532.483 275.472C532.702 275.319 532.953 275.273 533.235 275.333C533.411 275.371 533.556 275.443 533.668 275.55C533.785 275.655 533.872 275.779 533.932 275.922C533.992 276.065 534.026 276.217 534.035 276.376C534.046 276.535 534.035 276.69 534.003 276.84C533.972 276.985 533.897 277.118 533.778 277.239C533.661 277.361 533.513 277.45 533.333 277.508C533.156 277.563 532.958 277.567 532.739 277.52C532.423 277.452 532.209 277.309 532.096 277.091C531.983 276.872 531.961 276.604 532.029 276.285C532.113 275.893 532.264 275.622 532.483 275.472Z" fill="#59BB49"/>
<path d="M525.5 269L546 273.5L543.5 284L542.5 286.5L522 280.5L525.5 269ZM529.322 276.189C529.077 276.001 528.776 275.868 528.417 275.791C528.228 275.751 528.068 275.727 527.936 275.72C527.805 275.711 527.692 275.706 527.596 275.707L528.016 274.343L530.128 274.796L530.297 274.005L527.394 273.383L526.599 276.069L526.943 276.386C527.064 276.38 527.213 276.383 527.389 276.394C527.568 276.403 527.734 276.424 527.887 276.457C528.322 276.55 528.623 276.706 528.789 276.926C528.958 277.143 529.008 277.412 528.939 277.733C528.888 277.975 528.794 278.164 528.658 278.3C528.525 278.436 528.357 278.523 528.155 278.56C527.953 278.596 527.722 278.587 527.462 278.531C527.218 278.479 526.969 278.391 526.716 278.267C526.463 278.141 526.253 278.004 526.085 277.856L525.911 278.666C526.073 278.807 526.274 278.93 526.515 279.035C526.759 279.141 527.027 279.225 527.32 279.287C527.781 279.386 528.188 279.394 528.542 279.31C528.895 279.225 529.185 279.06 529.411 278.813C529.638 278.563 529.793 278.242 529.877 277.85C529.954 277.491 529.943 277.171 529.843 276.892C529.743 276.609 529.57 276.375 529.322 276.189ZM534.543 278.422C534.66 278.114 534.754 277.795 534.825 277.464C534.912 277.054 534.939 276.685 534.905 276.358C534.872 276.029 534.788 275.743 534.654 275.501C534.52 275.257 534.343 275.059 534.125 274.909C533.91 274.756 533.663 274.65 533.383 274.59C533.011 274.51 532.671 274.519 532.363 274.615C532.055 274.709 531.795 274.882 531.584 275.135C531.373 275.388 531.225 275.712 531.14 276.107C531.062 276.471 531.06 276.797 531.135 277.085C531.212 277.37 531.354 277.606 531.562 277.791C531.773 277.978 532.038 278.105 532.359 278.174C532.596 278.225 532.804 278.238 532.982 278.215C533.16 278.19 533.316 278.139 533.45 278.064C533.583 277.986 533.7 277.894 533.8 277.787L533.846 277.797C533.747 278.186 533.608 278.523 533.43 278.807C533.255 279.091 533.016 279.293 532.713 279.412C532.413 279.532 532.028 279.541 531.557 279.44C531.437 279.414 531.318 279.381 531.199 279.339C531.083 279.296 530.98 279.25 530.889 279.201L530.729 279.95C530.816 279.99 530.93 280.03 531.07 280.071C531.213 280.115 531.338 280.148 531.448 280.172C531.883 280.265 532.268 280.285 532.602 280.231C532.935 280.178 533.226 280.067 533.472 279.898C533.722 279.728 533.933 279.516 534.107 279.263C534.284 279.011 534.429 278.73 534.543 278.422ZM538.816 276.653L535.596 280.98L536.562 281.188L539.819 276.688L539.951 276.073L536.086 275.245L535.917 276.032L538.816 276.653Z" fill="#59BB49"/>
</svg>
