<svg width="920" height="755" viewBox="0 0 920 755" fill="none" xmlns="http://www.w3.org/2000/svg">
<path d="M529.462 287.48C529.678 287.324 529.928 287.274 530.212 287.33C530.388 287.365 530.534 287.435 530.648 287.54C530.766 287.643 530.856 287.765 530.918 287.908C530.98 288.05 531.017 288.201 531.028 288.359C531.041 288.519 531.033 288.674 531.003 288.824C530.974 288.97 530.901 289.104 530.784 289.227C530.669 289.35 530.523 289.442 530.343 289.502C530.167 289.56 529.969 289.568 529.75 289.524C529.433 289.461 529.216 289.322 529.1 289.105C528.984 288.888 528.957 288.62 529.02 288.3C529.098 287.907 529.245 287.634 529.462 287.48Z" fill="#59BB49"/>
<path d="M533.292 292.181C533.15 291.988 533.103 291.769 533.152 291.524C533.185 291.352 533.254 291.208 533.357 291.09C533.462 290.973 533.597 290.876 533.761 290.8C533.925 290.721 534.115 290.659 534.331 290.614L534.444 290.688C534.611 290.809 534.76 290.934 534.891 291.064C535.025 291.191 535.125 291.326 535.189 291.469C535.256 291.613 535.274 291.766 535.241 291.929C535.191 292.185 535.061 292.373 534.851 292.493C534.641 292.614 534.365 292.64 534.023 292.572C533.678 292.504 533.435 292.373 533.292 292.181Z" fill="#59BB49"/>
<path d="M534.239 288.263C534.424 288.172 534.641 288.151 534.889 288.2C535.144 288.251 535.339 288.353 535.473 288.507C535.61 288.659 535.657 288.847 535.612 289.072C535.58 289.236 535.514 289.368 535.414 289.471C535.317 289.571 535.196 289.651 535.052 289.71C534.91 289.767 534.755 289.814 534.586 289.852C534.439 289.749 534.307 289.643 534.19 289.535C534.074 289.425 533.988 289.304 533.932 289.173C533.878 289.043 533.867 288.898 533.898 288.737C533.944 288.509 534.057 288.351 534.239 288.263Z" fill="#59BB49"/>
<path d="M521.5 281L542 287L540 297L539.5 299L518.5 293.5L521.5 281ZM526.312 288.246C526.065 288.062 525.761 287.934 525.401 287.863C525.212 287.825 525.051 287.804 524.92 287.799C524.788 287.792 524.675 287.789 524.579 287.791L524.977 286.421L527.097 286.84L527.254 286.047L524.341 285.471L523.588 288.169L523.937 288.48C524.058 288.473 524.206 288.473 524.382 288.481C524.562 288.487 524.728 288.506 524.881 288.536C525.318 288.623 525.621 288.774 525.791 288.991C525.963 289.206 526.018 289.474 525.954 289.796C525.906 290.038 525.815 290.229 525.681 290.367C525.55 290.506 525.384 290.595 525.182 290.635C524.981 290.674 524.75 290.668 524.489 290.617C524.244 290.568 523.994 290.484 523.739 290.365C523.484 290.243 523.272 290.109 523.101 289.964L522.94 290.776C523.104 290.915 523.307 291.035 523.55 291.136C523.795 291.237 524.065 291.317 524.359 291.375C524.821 291.467 525.228 291.468 525.581 291.378C525.933 291.289 526.22 291.119 526.442 290.868C526.665 290.615 526.815 290.292 526.893 289.898C526.965 289.538 526.948 289.219 526.844 288.941C526.74 288.66 526.563 288.428 526.312 288.246ZM531.568 290.398C531.68 290.088 531.768 289.767 531.834 289.435C531.915 289.024 531.937 288.655 531.898 288.329C531.859 288 531.771 287.715 531.633 287.476C531.495 287.233 531.316 287.039 531.095 286.891C530.878 286.742 530.629 286.64 530.348 286.584C529.975 286.51 529.635 286.524 529.328 286.625C529.022 286.724 528.765 286.901 528.558 287.158C528.35 287.414 528.207 287.74 528.129 288.136C528.057 288.501 528.06 288.827 528.139 289.113C528.22 289.398 528.367 289.631 528.577 289.814C528.791 289.996 529.058 290.12 529.38 290.184C529.618 290.231 529.825 290.241 530.003 290.215C530.181 290.187 530.336 290.134 530.469 290.057C530.601 289.977 530.717 289.883 530.815 289.775L530.861 289.784C530.768 290.174 530.634 290.513 530.461 290.8C530.29 291.087 530.054 291.293 529.753 291.416C529.455 291.54 529.07 291.556 528.597 291.462C528.477 291.438 528.358 291.407 528.238 291.367C528.121 291.325 528.017 291.281 527.926 291.234L527.777 291.985C527.865 292.023 527.98 292.062 528.121 292.1C528.264 292.142 528.39 292.174 528.5 292.195C528.937 292.282 529.322 292.296 529.655 292.237C529.987 292.178 530.276 292.063 530.52 291.89C530.766 291.716 530.975 291.501 531.145 291.246C531.318 290.991 531.459 290.708 531.568 290.398ZM535.881 287.835C535.641 287.681 535.358 287.572 535.034 287.508C534.717 287.445 534.417 287.439 534.134 287.489C533.853 287.54 533.615 287.649 533.419 287.818C533.225 287.983 533.098 288.212 533.041 288.503C532.996 288.731 532.998 288.939 533.048 289.13C533.101 289.318 533.187 289.493 533.307 289.655C533.426 289.814 533.564 289.963 533.72 290.103C533.494 290.157 533.281 290.235 533.08 290.339C532.881 290.443 532.712 290.579 532.572 290.748C532.433 290.917 532.337 291.13 532.286 291.388C532.225 291.7 532.246 291.983 532.349 292.237C532.453 292.488 532.637 292.703 532.899 292.879C533.161 293.056 533.496 293.185 533.902 293.265C534.28 293.34 534.623 293.344 534.931 293.278C535.239 293.209 535.495 293.076 535.698 292.88C535.905 292.682 536.039 292.426 536.101 292.112C536.151 291.861 536.137 291.632 536.059 291.422C535.983 291.214 535.866 291.022 535.707 290.847C535.551 290.67 535.373 290.506 535.175 290.355C535.391 290.297 535.59 290.221 535.773 290.127C535.957 290.031 536.112 289.908 536.237 289.757C536.365 289.607 536.451 289.419 536.496 289.191C536.555 288.898 536.527 288.636 536.413 288.406C536.299 288.177 536.122 287.986 535.881 287.835Z" fill="#59BB49"/>
</svg>
