<svg width="920" height="755" viewBox="0 0 920 755" fill="none" xmlns="http://www.w3.org/2000/svg">
<path d="M526.676 300.662C526.901 300.518 527.153 300.481 527.433 300.552C527.607 300.597 527.749 300.674 527.858 300.785C527.97 300.894 528.053 301.021 528.107 301.167C528.162 301.312 528.19 301.465 528.193 301.624C528.198 301.784 528.182 301.938 528.144 302.087C528.107 302.231 528.027 302.361 527.904 302.477C527.783 302.594 527.631 302.678 527.449 302.729C527.27 302.777 527.072 302.774 526.855 302.719C526.542 302.639 526.333 302.488 526.229 302.266C526.124 302.043 526.112 301.774 526.192 301.458C526.29 301.07 526.452 300.804 526.676 300.662Z" fill="#59BB49"/>
<path d="M531.23 301.818C531.454 301.674 531.707 301.637 531.987 301.708C532.161 301.752 532.303 301.83 532.412 301.941C532.524 302.05 532.607 302.177 532.661 302.323C532.716 302.468 532.744 302.62 532.747 302.78C532.752 302.939 532.735 303.094 532.698 303.243C532.661 303.387 532.581 303.517 532.458 303.633C532.336 303.75 532.185 303.834 532.003 303.885C531.824 303.933 531.626 303.93 531.409 303.875C531.096 303.795 530.887 303.644 530.782 303.422C530.678 303.199 530.665 302.93 530.745 302.614C530.844 302.226 531.005 301.96 531.23 301.818Z" fill="#59BB49"/>
<path d="M518.5 294L539 299.5L536.5 308.5L535.5 311.5L515 306L518.5 294ZM523.491 301.26C523.253 301.063 522.956 300.919 522.601 300.829C522.414 300.781 522.255 300.752 522.123 300.74C521.993 300.726 521.879 300.717 521.783 300.714L522.254 299.367L524.348 299.898L524.547 299.114L521.67 298.384L520.774 301.038L521.106 301.368C521.227 301.367 521.375 301.375 521.551 301.393C521.729 301.408 521.894 301.435 522.046 301.474C522.478 301.583 522.772 301.751 522.93 301.976C523.091 302.2 523.131 302.471 523.05 302.789C522.989 303.029 522.889 303.214 522.748 303.345C522.61 303.476 522.439 303.557 522.235 303.585C522.032 303.614 521.801 303.596 521.544 303.531C521.302 303.469 521.056 303.372 520.808 303.239C520.56 303.104 520.355 302.959 520.193 302.805L519.989 303.608C520.145 303.755 520.342 303.885 520.579 303.999C520.818 304.114 521.083 304.208 521.374 304.282C521.83 304.398 522.237 304.42 522.594 304.349C522.95 304.279 523.246 304.124 523.481 303.886C523.717 303.644 523.884 303.33 523.983 302.941C524.073 302.585 524.074 302.265 523.984 301.982C523.896 301.696 523.731 301.456 523.491 301.26ZM528.624 303.688C528.752 303.384 528.858 303.069 528.941 302.741C529.044 302.334 529.085 301.967 529.064 301.639C529.043 301.309 528.97 301.02 528.844 300.773C528.719 300.524 528.551 300.32 528.339 300.161C528.129 300.001 527.886 299.885 527.608 299.815C527.24 299.721 526.9 299.717 526.588 299.802C526.277 299.884 526.011 300.048 525.79 300.293C525.57 300.537 525.41 300.855 525.31 301.247C525.219 301.608 525.205 301.933 525.268 302.223C525.335 302.512 525.468 302.752 525.669 302.946C525.872 303.14 526.133 303.277 526.451 303.358C526.686 303.417 526.893 303.439 527.071 303.423C527.251 303.404 527.409 303.359 527.545 303.289C527.681 303.216 527.802 303.128 527.906 303.026L527.951 303.037C527.837 303.422 527.686 303.753 527.497 304.031C527.311 304.308 527.065 304.501 526.758 304.609C526.454 304.717 526.069 304.712 525.602 304.593C525.483 304.563 525.365 304.525 525.248 304.479C525.133 304.431 525.032 304.381 524.943 304.329L524.755 305.071C524.84 305.115 524.953 305.159 525.092 305.205C525.232 305.254 525.357 305.293 525.465 305.32C525.897 305.43 526.281 305.464 526.616 305.423C526.952 305.382 527.246 305.282 527.498 305.123C527.754 304.962 527.974 304.759 528.157 304.512C528.343 304.267 528.499 303.992 528.624 303.688ZM533.178 304.844C533.306 304.54 533.412 304.225 533.495 303.897C533.598 303.49 533.639 303.123 533.617 302.795C533.596 302.465 533.523 302.176 533.398 301.929C533.273 301.68 533.104 301.476 532.892 301.317C532.683 301.157 532.44 301.041 532.162 300.971C531.794 300.877 531.453 300.873 531.142 300.958C530.831 301.04 530.565 301.204 530.344 301.448C530.123 301.693 529.963 302.011 529.864 302.403C529.773 302.764 529.758 303.089 529.822 303.379C529.888 303.667 530.022 303.908 530.223 304.102C530.426 304.296 530.687 304.433 531.005 304.514C531.24 304.573 531.446 304.595 531.625 304.579C531.805 304.56 531.962 304.515 532.098 304.445C532.235 304.372 532.355 304.284 532.459 304.182L532.505 304.193C532.391 304.578 532.24 304.909 532.051 305.186C531.865 305.464 531.619 305.657 531.312 305.765C531.008 305.873 530.622 305.868 530.155 305.749C530.037 305.719 529.919 305.681 529.801 305.635C529.687 305.587 529.586 305.537 529.497 305.485L529.308 306.227C529.394 306.27 529.506 306.315 529.645 306.361C529.786 306.41 529.911 306.449 530.019 306.476C530.451 306.586 530.834 306.62 531.17 306.579C531.505 306.538 531.799 306.438 532.052 306.279C532.308 306.118 532.527 305.914 532.711 305.668C532.897 305.423 533.052 305.148 533.178 304.844Z" fill="#59BB49"/>
</svg>
