<svg width="920" height="755" viewBox="0 0 920 755" fill="none" xmlns="http://www.w3.org/2000/svg">
<path d="M518.676 316.524C518.457 316.67 518.203 316.709 517.914 316.64C517.742 316.599 517.6 316.526 517.489 316.419C517.378 316.312 517.294 316.187 517.237 316.042C517.181 315.895 517.149 315.741 517.141 315.582C517.134 315.422 517.147 315.269 517.182 315.122C517.216 314.977 517.293 314.846 517.412 314.727C517.534 314.608 517.686 314.523 517.867 314.469C518.048 314.416 518.245 314.414 518.458 314.465C518.77 314.539 518.981 314.687 519.092 314.908C519.205 315.13 519.224 315.4 519.149 315.717C519.056 316.107 518.899 316.376 518.676 316.524Z" fill="#59BB49"/>
<path d="M521.744 316.549C521.758 316.22 521.821 315.822 521.932 315.353C522.042 314.887 522.165 314.504 522.301 314.204C522.438 313.905 522.597 313.693 522.776 313.57C522.958 313.445 523.171 313.411 523.414 313.468C523.658 313.526 523.833 313.652 523.939 313.846C524.046 314.037 524.094 314.297 524.083 314.627C524.072 314.956 524.011 315.354 523.901 315.82C523.789 316.291 523.663 316.676 523.522 316.975C523.384 317.274 523.225 317.484 523.044 317.604C522.863 317.724 522.652 317.756 522.411 317.699C522.17 317.642 521.996 317.519 521.888 317.33C521.781 317.138 521.733 316.878 521.744 316.549Z" fill="#59BB49"/>
<path d="M526.316 317.633C526.329 317.304 526.392 316.906 526.503 316.437C526.614 315.971 526.737 315.588 526.872 315.288C527.01 314.989 527.168 314.777 527.347 314.654C527.53 314.529 527.743 314.495 527.986 314.553C528.229 314.61 528.404 314.736 528.51 314.93C528.618 315.121 528.666 315.382 528.655 315.711C528.643 316.04 528.582 316.438 528.472 316.904C528.36 317.375 528.234 317.76 528.094 318.059C527.956 318.358 527.796 318.568 527.615 318.688C527.434 318.808 527.223 318.84 526.983 318.783C526.742 318.726 526.568 318.603 526.46 318.414C526.353 318.223 526.305 317.962 526.316 317.633Z" fill="#59BB49"/>
<path d="M514.5 306.5L535.5 312L533 321.5L532 324.5L511.5 319L514.5 306.5ZM516.678 313.525C516.557 313.831 516.458 314.147 516.38 314.474C516.283 314.884 516.247 315.255 516.274 315.585C516.3 315.912 516.378 316.198 516.508 316.443C516.637 316.688 516.807 316.889 517.019 317.046C517.233 317.204 517.478 317.316 517.754 317.381C518.129 317.47 518.471 317.471 518.778 317.383C519.087 317.296 519.349 317.128 519.564 316.879C519.78 316.631 519.935 316.31 520.029 315.917C520.115 315.552 520.123 315.226 520.052 314.939C519.983 314.653 519.845 314.414 519.636 314.222C519.427 314.028 519.161 313.893 518.837 313.816C518.619 313.764 518.42 313.749 518.241 313.771C518.063 313.79 517.905 313.836 517.767 313.908C517.63 313.979 517.508 314.07 517.402 314.178L517.356 314.167C517.467 313.779 517.614 313.446 517.798 313.168C517.982 312.888 518.226 312.691 518.528 312.579C518.831 312.463 519.216 312.461 519.682 312.571C519.799 312.599 519.913 312.634 520.026 312.677C520.142 312.72 520.246 312.768 520.338 312.819L520.514 312.078C520.428 312.033 520.316 311.99 520.179 311.946C520.042 311.903 519.918 311.868 519.807 311.842C519.376 311.74 518.993 311.713 518.657 311.762C518.323 311.808 518.029 311.913 517.776 312.075C517.526 312.238 517.311 312.444 517.132 312.693C516.952 312.942 516.801 313.219 516.678 313.525ZM524.413 317.214C524.568 316.876 524.699 316.483 524.805 316.034C524.948 315.434 525.001 314.904 524.965 314.446C524.932 313.986 524.802 313.61 524.574 313.318C524.35 313.024 524.022 312.826 523.591 312.723C523.135 312.615 522.742 312.642 522.412 312.805C522.081 312.968 521.803 313.248 521.578 313.647C521.355 314.044 521.173 314.541 521.031 315.139C520.889 315.737 520.835 316.266 520.867 316.726C520.901 317.184 521.03 317.56 521.254 317.854C521.48 318.146 521.806 318.342 522.234 318.444C522.577 318.525 522.883 318.529 523.155 318.457C523.426 318.385 523.666 318.244 523.873 318.033C524.081 317.823 524.261 317.55 524.413 317.214ZM528.984 318.298C529.139 317.96 529.27 317.567 529.376 317.118C529.519 316.518 529.572 315.989 529.536 315.53C529.504 315.07 529.373 314.694 529.146 314.402C528.921 314.108 528.593 313.91 528.162 313.808C527.706 313.699 527.313 313.727 526.983 313.889C526.653 314.052 526.375 314.332 526.149 314.731C525.926 315.128 525.744 315.625 525.602 316.223C525.46 316.821 525.406 317.35 525.439 317.81C525.472 318.268 525.601 318.644 525.826 318.938C526.051 319.23 526.378 319.426 526.806 319.528C527.148 319.609 527.455 319.613 527.726 319.541C527.997 319.469 528.237 319.328 528.445 319.118C528.653 318.907 528.832 318.634 528.984 318.298Z" fill="#59BB49"/>
</svg>
