<svg width="920" height="755" viewBox="0 0 920 755" fill="none" xmlns="http://www.w3.org/2000/svg">
<path d="M516.676 329.524C516.457 329.67 516.203 329.709 515.914 329.64C515.742 329.599 515.6 329.526 515.489 329.419C515.378 329.312 515.294 329.187 515.237 329.042C515.181 328.895 515.149 328.741 515.141 328.582C515.134 328.422 515.147 328.269 515.182 328.122C515.216 327.977 515.293 327.846 515.412 327.727C515.534 327.608 515.686 327.523 515.867 327.469C516.048 327.416 516.245 327.414 516.458 327.465C516.77 327.539 516.981 327.687 517.092 327.908C517.205 328.13 517.224 328.4 517.149 328.717C517.056 329.107 516.899 329.376 516.676 329.524Z" fill="#59BB49"/>
<path d="M519.744 329.549C519.758 329.22 519.821 328.822 519.932 328.353C520.042 327.887 520.165 327.504 520.301 327.204C520.438 326.905 520.597 326.693 520.776 326.57C520.958 326.445 521.171 326.411 521.414 326.468C521.658 326.526 521.833 326.652 521.939 326.846C522.046 327.037 522.094 327.297 522.083 327.627C522.072 327.956 522.011 328.354 521.901 328.82C521.789 329.291 521.663 329.676 521.522 329.975C521.384 330.274 521.225 330.484 521.044 330.604C520.863 330.724 520.652 330.756 520.411 330.699C520.17 330.642 519.996 330.519 519.888 330.33C519.781 330.138 519.733 329.878 519.744 329.549Z" fill="#59BB49"/>
<path d="M511 319.5L532 325L529.5 334.5L529 337L508.5 331.5L511 319.5ZM514.678 326.525C514.557 326.831 514.458 327.147 514.38 327.474C514.283 327.884 514.247 328.255 514.274 328.585C514.3 328.912 514.378 329.198 514.508 329.443C514.637 329.688 514.807 329.889 515.019 330.046C515.233 330.204 515.478 330.316 515.754 330.381C516.129 330.47 516.471 330.471 516.778 330.383C517.087 330.296 517.349 330.128 517.564 329.879C517.78 329.631 517.935 329.31 518.029 328.917C518.115 328.552 518.123 328.226 518.052 327.939C517.983 327.653 517.845 327.414 517.636 327.222C517.427 327.028 517.161 326.893 516.837 326.816C516.619 326.764 516.42 326.749 516.241 326.771C516.063 326.79 515.905 326.836 515.767 326.908C515.63 326.979 515.508 327.07 515.402 327.178L515.356 327.167C515.467 326.779 515.614 326.446 515.798 326.168C515.982 325.888 516.226 325.691 516.528 325.579C516.831 325.463 517.216 325.461 517.682 325.571C517.799 325.599 517.913 325.634 518.026 325.677C518.142 325.72 518.246 325.768 518.338 325.819L518.514 325.078C518.428 325.033 518.316 324.99 518.179 324.946C518.042 324.903 517.918 324.868 517.807 324.842C517.376 324.74 516.993 324.713 516.657 324.762C516.323 324.808 516.029 324.913 515.776 325.075C515.526 325.238 515.311 325.444 515.132 325.693C514.952 325.942 514.801 326.219 514.678 326.525ZM522.413 330.214C522.568 329.876 522.699 329.483 522.805 329.034C522.948 328.434 523.001 327.904 522.965 327.446C522.932 326.986 522.802 326.61 522.574 326.318C522.35 326.024 522.022 325.826 521.591 325.723C521.135 325.615 520.742 325.642 520.412 325.805C520.081 325.968 519.803 326.248 519.578 326.647C519.355 327.044 519.173 327.541 519.031 328.139C518.889 328.737 518.835 329.266 518.867 329.726C518.901 330.184 519.03 330.56 519.254 330.854C519.48 331.146 519.806 331.342 520.234 331.444C520.577 331.525 520.883 331.529 521.155 331.457C521.426 331.385 521.666 331.244 521.873 331.033C522.081 330.823 522.261 330.55 522.413 330.214ZM524.683 332.418L525.58 332.631L526.898 327.074L526.153 326.898L524.197 327.799L524.511 328.471L525.271 328.114C525.374 328.061 525.472 328.009 525.564 327.958C525.659 327.909 525.74 327.861 525.807 327.815C525.775 327.917 525.743 328.025 525.711 328.138L525.62 328.485C525.589 328.604 525.56 328.723 525.531 328.842L524.683 332.418Z" fill="#59BB49"/>
</svg>
