<svg width="920" height="755" viewBox="0 0 920 755" fill="none" xmlns="http://www.w3.org/2000/svg">
<path d="M512.676 342.524C512.457 342.67 512.203 342.709 511.914 342.64C511.742 342.599 511.6 342.526 511.489 342.419C511.378 342.312 511.294 342.187 511.237 342.042C511.181 341.895 511.149 341.741 511.141 341.582C511.134 341.422 511.147 341.269 511.182 341.122C511.216 340.977 511.293 340.846 511.412 340.727C511.534 340.608 511.686 340.523 511.867 340.469C512.048 340.416 512.245 340.414 512.458 340.465C512.77 340.539 512.981 340.687 513.092 340.908C513.205 341.13 513.224 341.4 513.149 341.717C513.056 342.107 512.899 342.376 512.676 342.524Z" fill="#59BB49"/>
<path d="M515.744 342.549C515.758 342.22 515.821 341.822 515.932 341.353C516.042 340.887 516.165 340.504 516.301 340.204C516.438 339.905 516.597 339.693 516.776 339.57C516.958 339.445 517.171 339.411 517.414 339.468C517.658 339.526 517.833 339.652 517.939 339.846C518.046 340.037 518.094 340.297 518.083 340.627C518.072 340.956 518.011 341.354 517.901 341.82C517.789 342.291 517.663 342.676 517.522 342.975C517.384 343.274 517.225 343.484 517.044 343.604C516.863 343.724 516.652 343.756 516.411 343.699C516.17 343.642 515.996 343.519 515.888 343.33C515.781 343.138 515.733 342.878 515.744 342.549Z" fill="#59BB49"/>
<path d="M508.5 332L529 337.5L527 346L526 350L505 344.5L508.5 332ZM510.678 339.525C510.557 339.831 510.458 340.147 510.38 340.474C510.283 340.884 510.247 341.255 510.274 341.585C510.3 341.912 510.378 342.198 510.508 342.443C510.637 342.688 510.807 342.889 511.019 343.046C511.233 343.204 511.478 343.316 511.754 343.381C512.129 343.47 512.471 343.471 512.778 343.383C513.087 343.296 513.349 343.128 513.564 342.879C513.78 342.631 513.935 342.31 514.029 341.917C514.115 341.552 514.123 341.226 514.052 340.939C513.983 340.653 513.845 340.414 513.636 340.222C513.427 340.028 513.161 339.893 512.837 339.816C512.619 339.764 512.42 339.749 512.241 339.771C512.063 339.79 511.905 339.836 511.767 339.908C511.63 339.979 511.508 340.07 511.402 340.178L511.356 340.167C511.467 339.779 511.614 339.446 511.798 339.168C511.982 338.888 512.226 338.691 512.528 338.579C512.831 338.463 513.216 338.461 513.682 338.571C513.799 338.599 513.913 338.634 514.026 338.677C514.142 338.72 514.246 338.768 514.338 338.819L514.514 338.078C514.428 338.033 514.316 337.99 514.179 337.946C514.042 337.903 513.918 337.868 513.807 337.842C513.376 337.74 512.993 337.713 512.657 337.762C512.323 337.808 512.029 337.913 511.776 338.075C511.526 338.238 511.311 338.444 511.132 338.693C510.952 338.942 510.801 339.219 510.678 339.525ZM518.413 343.214C518.568 342.876 518.699 342.483 518.805 342.034C518.948 341.434 519.001 340.904 518.965 340.446C518.932 339.986 518.802 339.61 518.574 339.318C518.35 339.024 518.022 338.826 517.591 338.723C517.135 338.615 516.742 338.642 516.412 338.805C516.081 338.968 515.803 339.248 515.578 339.647C515.355 340.044 515.173 340.541 515.031 341.139C514.889 341.737 514.835 342.266 514.867 342.726C514.901 343.184 515.03 343.56 515.254 343.854C515.48 344.146 515.806 344.342 516.234 344.444C516.577 344.525 516.883 344.529 517.155 344.457C517.426 344.385 517.666 344.244 517.873 344.033C518.081 343.823 518.261 343.55 518.413 343.214ZM518.954 345.008L522.717 345.901L522.902 345.118L520.272 344.494L520.282 344.452L521.466 343.741C521.839 343.525 522.165 343.319 522.443 343.126C522.723 342.93 522.952 342.719 523.131 342.494C523.31 342.269 523.435 342.007 523.506 341.708C523.577 341.412 523.568 341.135 523.482 340.879C523.398 340.624 523.243 340.404 523.016 340.219C522.79 340.031 522.501 339.896 522.149 339.812C521.87 339.746 521.614 339.72 521.381 339.735C521.148 339.746 520.93 339.786 520.727 339.852C520.526 339.92 520.333 340.001 520.147 340.096L520.497 340.802C520.757 340.679 520.999 340.594 521.224 340.548C521.452 340.501 521.686 340.506 521.927 340.563C522.181 340.623 522.368 340.741 522.489 340.917C522.612 341.09 522.641 341.311 522.577 341.58C522.525 341.798 522.433 341.989 522.301 342.153C522.171 342.317 521.991 342.482 521.762 342.647C521.533 342.81 521.246 343 520.9 343.218L519.113 344.336L518.954 345.008Z" fill="#59BB49"/>
</svg>
