<svg width="920" height="755" viewBox="0 0 920 755" fill="none" xmlns="http://www.w3.org/2000/svg">
<path d="M508.586 355.241C508.358 355.373 508.102 355.395 507.818 355.308C507.649 355.257 507.512 355.174 507.408 355.061C507.304 354.947 507.228 354.816 507.18 354.668C507.134 354.518 507.112 354.363 507.114 354.203C507.117 354.043 507.14 353.891 507.184 353.747C507.228 353.605 507.313 353.478 507.439 353.367C507.568 353.257 507.725 353.181 507.909 353.139C508.093 353.097 508.29 353.108 508.499 353.172C508.806 353.266 509.007 353.427 509.103 353.655C509.202 353.884 509.204 354.154 509.109 354.465C508.992 354.849 508.818 355.107 508.586 355.241Z" fill="#59BB49"/>
<path d="M511.647 355.461C511.681 355.134 511.769 354.74 511.91 354.279C512.05 353.821 512.197 353.446 512.351 353.156C512.507 352.866 512.679 352.665 512.866 352.553C513.055 352.44 513.27 352.42 513.509 352.493C513.748 352.566 513.915 352.702 514.009 352.903C514.103 353.1 514.135 353.363 514.103 353.691C514.071 354.019 513.985 354.412 513.845 354.87C513.703 355.333 513.553 355.71 513.394 355.999C513.237 356.288 513.065 356.488 512.876 356.596C512.688 356.705 512.476 356.723 512.239 356.651C512.002 356.578 511.836 356.445 511.741 356.249C511.646 356.052 511.615 355.789 511.647 355.461Z" fill="#59BB49"/>
<path d="M504.5 345L525 350.5L520.5 364L500.5 357L504.5 345ZM506.782 352.121C506.642 352.418 506.523 352.728 506.425 353.049C506.302 353.453 506.243 353.82 506.248 354.151C506.254 354.479 506.314 354.77 506.427 355.022C506.54 355.275 506.698 355.486 506.899 355.657C507.103 355.828 507.34 355.955 507.612 356.038C507.98 356.15 508.321 356.173 508.633 356.105C508.947 356.037 509.22 355.886 509.449 355.651C509.681 355.417 509.856 355.107 509.974 354.721C510.084 354.363 510.112 354.038 510.06 353.747C510.009 353.456 509.886 353.209 509.69 353.005C509.494 352.798 509.237 352.646 508.918 352.549C508.704 352.483 508.507 352.456 508.327 352.466C508.148 352.474 507.987 352.509 507.845 352.572C507.704 352.635 507.576 352.717 507.464 352.819L507.419 352.805C507.554 352.425 507.722 352.101 507.923 351.836C508.125 351.568 508.38 351.388 508.689 351.294C508.999 351.198 509.383 351.22 509.841 351.36C509.956 351.395 510.068 351.437 510.178 351.487C510.29 351.538 510.391 351.592 510.48 351.649L510.702 350.921C510.62 350.871 510.511 350.82 510.377 350.768C510.243 350.716 510.122 350.674 510.012 350.64C509.589 350.511 509.208 350.46 508.87 350.488C508.533 350.513 508.233 350.598 507.971 350.744C507.711 350.89 507.483 351.082 507.288 351.32C507.093 351.557 506.925 351.824 506.782 352.121ZM514.267 356.294C514.444 355.967 514.599 355.583 514.734 355.142C514.914 354.552 515.001 354.027 514.994 353.567C514.991 353.106 514.885 352.722 514.676 352.416C514.47 352.108 514.156 351.89 513.733 351.76C513.284 351.623 512.89 351.626 512.55 351.767C512.21 351.908 511.915 352.171 511.664 352.554C511.417 352.936 511.204 353.421 511.024 354.009C510.845 354.596 510.757 355.121 510.76 355.582C510.764 356.041 510.869 356.424 511.075 356.732C511.281 357.037 511.594 357.254 512.015 357.383C512.351 357.486 512.657 357.51 512.933 357.455C513.208 357.4 513.456 357.274 513.677 357.078C513.898 356.881 514.095 356.62 514.267 356.294ZM519.124 355.568C519.279 355.416 519.394 355.218 519.47 354.971C519.593 354.567 519.539 354.2 519.308 353.868C519.078 353.533 518.683 353.281 518.123 353.11C517.742 352.993 517.392 352.945 517.072 352.964C516.753 352.984 516.467 353.039 516.213 353.131L516.449 353.869C516.586 353.829 516.729 353.796 516.875 353.77C517.022 353.744 517.177 353.733 517.339 353.736C517.504 353.74 517.679 353.77 517.863 353.827C518.162 353.918 518.367 354.053 518.479 354.231C518.591 354.407 518.611 354.612 518.54 354.846C518.485 355.026 518.394 355.169 518.265 355.277C518.14 355.386 517.969 355.449 517.754 355.468C517.539 355.484 517.274 355.444 516.957 355.347L516.472 355.199L516.256 355.905L516.738 356.052C517.069 356.153 517.33 356.267 517.52 356.393C517.713 356.52 517.84 356.661 517.901 356.816C517.965 356.972 517.968 357.147 517.908 357.341C517.816 357.642 517.647 357.849 517.4 357.962C517.154 358.072 516.803 358.057 516.348 357.918C516.114 357.846 515.875 357.74 515.633 357.597C515.39 357.455 515.171 357.292 514.974 357.106L514.736 357.887C514.93 358.061 515.146 358.21 515.383 358.334C515.623 358.459 515.891 358.567 516.187 358.657C516.68 358.808 517.105 358.86 517.463 358.814C517.82 358.768 518.112 358.645 518.339 358.445C518.567 358.242 518.73 357.982 518.826 357.666C518.936 357.305 518.913 356.981 518.756 356.693C518.601 356.406 518.314 356.169 517.895 355.981L517.903 355.955C518.145 355.974 518.369 355.953 518.576 355.891C518.786 355.827 518.969 355.719 519.124 355.568Z" fill="#59BB49"/>
</svg>
