<svg width="920" height="755" viewBox="0 0 920 755" fill="none" xmlns="http://www.w3.org/2000/svg">
<path d="M503.807 367.579C503.579 367.711 503.323 367.733 503.039 367.647C502.87 367.595 502.733 367.512 502.629 367.399C502.525 367.285 502.449 367.155 502.401 367.007C502.355 366.856 502.333 366.701 502.335 366.541C502.338 366.381 502.361 366.229 502.405 366.085C502.449 365.943 502.534 365.816 502.66 365.705C502.789 365.595 502.946 365.519 503.13 365.477C503.314 365.435 503.511 365.446 503.72 365.51C504.027 365.604 504.228 365.765 504.324 365.993C504.423 366.222 504.425 366.492 504.33 366.803C504.213 367.187 504.039 367.445 503.807 367.579Z" fill="#59BB49"/>
<path d="M506.868 367.799C506.902 367.472 506.99 367.078 507.131 366.617C507.271 366.159 507.418 365.785 507.572 365.494C507.728 365.204 507.9 365.003 508.087 364.892C508.276 364.778 508.491 364.758 508.73 364.831C508.969 364.904 509.136 365.04 509.23 365.241C509.325 365.439 509.356 365.701 509.324 366.029C509.292 366.357 509.206 366.75 509.066 367.208C508.924 367.672 508.774 368.048 508.615 368.337C508.458 368.627 508.286 368.826 508.097 368.934C507.909 369.043 507.697 369.061 507.46 368.989C507.223 368.917 507.057 368.783 506.962 368.587C506.867 368.39 506.836 368.127 506.868 367.799Z" fill="#59BB49"/>
<path d="M513.207 367.873L512.793 369.229L511.123 368.719L513.064 367.18C513.158 367.102 513.25 367.021 513.338 366.937C513.427 366.85 513.511 366.764 513.589 366.678L513.619 366.687C513.598 366.747 513.571 366.821 513.538 366.912C513.505 367 513.47 367.097 513.433 367.203C513.395 367.308 513.356 367.419 513.315 367.534C513.278 367.648 513.242 367.761 513.207 367.873Z" fill="#59BB49"/>
<path d="M500 357.5L520 364.5L516 376.5L495.5 369L500 357.5ZM502.003 364.459C501.863 364.756 501.744 365.066 501.646 365.387C501.523 365.791 501.464 366.158 501.469 366.489C501.475 366.818 501.535 367.108 501.648 367.361C501.762 367.613 501.919 367.824 502.12 367.995C502.324 368.166 502.561 368.293 502.833 368.376C503.201 368.489 503.542 368.511 503.854 368.443C504.169 368.375 504.441 368.224 504.67 367.99C504.902 367.756 505.078 367.446 505.195 367.059C505.305 366.701 505.333 366.376 505.281 366.085C505.231 365.795 505.107 365.547 504.911 365.343C504.716 365.136 504.458 364.984 504.14 364.887C503.925 364.821 503.728 364.794 503.548 364.804C503.369 364.812 503.208 364.847 503.066 364.91C502.925 364.973 502.797 365.055 502.685 365.157L502.64 365.143C502.775 364.763 502.943 364.44 503.144 364.174C503.346 363.906 503.601 363.726 503.91 363.632C504.22 363.536 504.604 363.558 505.062 363.698C505.177 363.733 505.289 363.776 505.399 363.826C505.512 363.876 505.612 363.93 505.701 363.987L505.923 363.259C505.841 363.209 505.732 363.158 505.598 363.106C505.464 363.054 505.343 363.012 505.233 362.978C504.81 362.849 504.429 362.798 504.091 362.826C503.754 362.851 503.454 362.936 503.192 363.082C502.932 363.229 502.705 363.42 502.51 363.658C502.315 363.895 502.146 364.162 502.003 364.459ZM509.489 368.632C509.665 368.305 509.82 367.921 509.955 367.48C510.135 366.89 510.222 366.365 510.215 365.905C510.212 365.444 510.106 365.06 509.897 364.754C509.692 364.446 509.377 364.228 508.954 364.099C508.505 363.962 508.111 363.964 507.771 364.105C507.431 364.246 507.136 364.509 506.886 364.892C506.638 365.274 506.425 365.759 506.245 366.347C506.066 366.935 505.978 367.459 505.981 367.92C505.985 368.379 506.09 368.762 506.296 369.07C506.502 369.375 506.815 369.592 507.236 369.721C507.573 369.824 507.878 369.848 508.154 369.793C508.429 369.738 508.677 369.612 508.898 369.416C509.119 369.219 509.316 368.958 509.489 368.632ZM513.437 370.222L514.177 370.448L514.4 369.72L513.66 369.494L514.744 365.945L513.888 365.683L510.289 368.534L510.086 369.199L512.571 369.958L512.204 371.157L513.071 371.422L513.437 370.222Z" fill="#59BB49"/>
</svg>
