<svg width="920" height="755" viewBox="0 0 920 755" fill="none" xmlns="http://www.w3.org/2000/svg">
<path d="M498.807 379.579C498.579 379.711 498.323 379.733 498.039 379.647C497.87 379.595 497.733 379.512 497.629 379.399C497.525 379.285 497.449 379.155 497.401 379.007C497.355 378.856 497.333 378.701 497.335 378.541C497.338 378.381 497.361 378.229 497.405 378.085C497.449 377.943 497.534 377.816 497.66 377.705C497.789 377.595 497.946 377.519 498.13 377.477C498.314 377.435 498.511 377.446 498.72 377.51C499.027 377.604 499.228 377.765 499.324 377.993C499.423 378.222 499.425 378.492 499.33 378.803C499.213 379.187 499.039 379.445 498.807 379.579Z" fill="#59BB49"/>
<path d="M501.868 379.799C501.902 379.472 501.99 379.078 502.131 378.617C502.271 378.159 502.418 377.785 502.572 377.494C502.728 377.204 502.9 377.003 503.087 376.892C503.276 376.778 503.491 376.758 503.73 376.831C503.969 376.904 504.136 377.04 504.23 377.241C504.325 377.439 504.356 377.701 504.324 378.029C504.292 378.357 504.206 378.75 504.066 379.208C503.924 379.672 503.774 380.048 503.615 380.337C503.458 380.627 503.286 380.826 503.097 380.934C502.909 381.043 502.697 381.061 502.46 380.989C502.223 380.917 502.057 380.783 501.962 380.587C501.867 380.39 501.836 380.127 501.868 379.799Z" fill="#59BB49"/>
<path d="M495.5 369.5L515.5 377L511.5 388.5L491 381.5L495.5 369.5ZM497.003 376.459C496.863 376.756 496.744 377.066 496.646 377.387C496.523 377.791 496.464 378.158 496.469 378.489C496.475 378.818 496.535 379.108 496.648 379.361C496.762 379.613 496.919 379.824 497.12 379.995C497.324 380.166 497.561 380.293 497.833 380.376C498.201 380.489 498.542 380.511 498.854 380.443C499.169 380.375 499.441 380.224 499.67 379.99C499.902 379.756 500.078 379.446 500.195 379.059C500.305 378.701 500.333 378.376 500.281 378.085C500.231 377.795 500.107 377.547 499.911 377.343C499.716 377.136 499.458 376.984 499.14 376.887C498.925 376.821 498.728 376.794 498.548 376.804C498.369 376.812 498.208 376.847 498.066 376.91C497.925 376.973 497.797 377.055 497.685 377.157L497.64 377.143C497.775 376.763 497.943 376.44 498.144 376.174C498.346 375.906 498.601 375.726 498.91 375.632C499.22 375.536 499.604 375.558 500.062 375.698C500.177 375.733 500.289 375.776 500.399 375.826C500.512 375.876 500.612 375.93 500.701 375.987L500.923 375.259C500.841 375.209 500.732 375.158 500.598 375.106C500.464 375.054 500.343 375.012 500.233 374.978C499.81 374.849 499.429 374.798 499.091 374.826C498.754 374.851 498.454 374.936 498.192 375.082C497.932 375.229 497.705 375.42 497.51 375.658C497.315 375.895 497.146 376.162 497.003 376.459ZM504.489 380.632C504.665 380.305 504.82 379.921 504.955 379.48C505.135 378.89 505.222 378.365 505.215 377.905C505.212 377.444 505.106 377.06 504.897 376.754C504.692 376.446 504.377 376.228 503.954 376.099C503.505 375.962 503.111 375.964 502.771 376.105C502.431 376.246 502.136 376.509 501.886 376.892C501.638 377.274 501.425 377.759 501.245 378.347C501.066 378.935 500.978 379.459 500.981 379.92C500.985 380.379 501.09 380.762 501.296 381.07C501.502 381.375 501.815 381.592 502.236 381.721C502.573 381.824 502.878 381.848 503.154 381.793C503.429 381.738 503.677 381.612 503.898 381.416C504.119 381.219 504.316 380.958 504.489 380.632ZM508.682 380.083C508.455 379.875 508.165 379.717 507.814 379.61C507.63 379.554 507.472 379.516 507.342 379.498C507.212 379.478 507.099 379.464 507.003 379.456L507.538 378.133L509.604 378.764L509.84 377.991L507.001 377.123L505.98 379.732L506.295 380.077C506.416 380.081 506.564 380.097 506.738 380.123C506.916 380.147 507.08 380.182 507.229 380.228C507.655 380.358 507.941 380.539 508.088 380.772C508.238 381.003 508.265 381.275 508.169 381.589C508.097 381.826 507.987 382.006 507.841 382.13C507.696 382.255 507.522 382.327 507.317 382.346C507.113 382.365 506.883 382.336 506.629 382.258C506.39 382.185 506.15 382.076 505.908 381.932C505.667 381.785 505.469 381.63 505.314 381.469L505.072 382.261C505.221 382.415 505.411 382.555 505.643 382.68C505.877 382.806 506.137 382.912 506.423 383C506.874 383.138 507.279 383.18 507.639 383.126C507.998 383.072 508.301 382.932 508.547 382.705C508.794 382.476 508.976 382.169 509.094 381.786C509.201 381.434 509.217 381.115 509.141 380.828C509.066 380.538 508.913 380.29 508.682 380.083Z" fill="#59BB49"/>
</svg>
