<svg width="920" height="755" viewBox="0 0 920 755" fill="none" xmlns="http://www.w3.org/2000/svg">
<path d="M494.807 392.579C494.579 392.711 494.323 392.733 494.039 392.647C493.87 392.595 493.733 392.512 493.629 392.399C493.525 392.285 493.449 392.155 493.401 392.007C493.355 391.856 493.333 391.701 493.335 391.541C493.338 391.381 493.361 391.229 493.405 391.085C493.449 390.943 493.534 390.816 493.66 390.705C493.789 390.595 493.946 390.519 494.13 390.477C494.314 390.435 494.511 390.446 494.72 390.51C495.027 390.604 495.228 390.765 495.324 390.993C495.423 391.222 495.425 391.492 495.33 391.803C495.213 392.187 495.039 392.445 494.807 392.579Z" fill="#59BB49"/>
<path d="M497.868 392.799C497.902 392.472 497.99 392.078 498.131 391.617C498.271 391.159 498.418 390.785 498.572 390.494C498.728 390.204 498.9 390.003 499.087 389.892C499.276 389.778 499.491 389.758 499.73 389.831C499.969 389.904 500.136 390.04 500.23 390.241C500.325 390.439 500.356 390.701 500.324 391.029C500.292 391.357 500.206 391.75 500.066 392.208C499.924 392.672 499.774 393.048 499.615 393.337C499.458 393.627 499.286 393.826 499.097 393.934C498.909 394.043 498.697 394.061 498.46 393.989C498.223 393.917 498.057 393.783 497.962 393.587C497.867 393.39 497.836 393.127 497.868 392.799Z" fill="#59BB49"/>
<path d="M503.794 395.324C503.566 395.456 503.31 395.478 503.026 395.392C502.856 395.34 502.719 395.257 502.615 395.144C502.511 395.03 502.435 394.899 502.388 394.752C502.341 394.601 502.319 394.446 502.322 394.286C502.324 394.126 502.348 393.974 502.392 393.83C502.435 393.688 502.52 393.561 502.647 393.45C502.776 393.34 502.932 393.264 503.117 393.222C503.301 393.18 503.498 393.191 503.707 393.255C504.013 393.349 504.214 393.51 504.311 393.738C504.41 393.967 504.412 394.237 504.317 394.548C504.199 394.932 504.025 395.19 503.794 395.324Z" fill="#59BB49"/>
<path d="M491 382L511 389L507 401.5L486 394L491 382ZM493.003 389.459C492.863 389.756 492.744 390.066 492.646 390.387C492.523 390.791 492.464 391.158 492.469 391.489C492.475 391.818 492.535 392.108 492.648 392.361C492.762 392.613 492.919 392.824 493.12 392.995C493.324 393.166 493.561 393.293 493.833 393.376C494.201 393.489 494.542 393.511 494.854 393.443C495.169 393.375 495.441 393.224 495.67 392.99C495.902 392.756 496.078 392.446 496.195 392.059C496.305 391.701 496.333 391.376 496.281 391.085C496.231 390.795 496.107 390.547 495.911 390.343C495.716 390.136 495.458 389.984 495.14 389.887C494.925 389.821 494.728 389.794 494.548 389.804C494.369 389.812 494.208 389.847 494.066 389.91C493.925 389.973 493.797 390.055 493.685 390.157L493.64 390.143C493.775 389.763 493.943 389.44 494.144 389.174C494.346 388.906 494.601 388.726 494.91 388.632C495.22 388.536 495.604 388.558 496.062 388.698C496.177 388.733 496.289 388.776 496.399 388.826C496.512 388.876 496.612 388.93 496.701 388.987L496.923 388.259C496.841 388.209 496.732 388.158 496.598 388.106C496.464 388.054 496.343 388.012 496.233 387.978C495.81 387.849 495.429 387.798 495.091 387.826C494.754 387.851 494.454 387.936 494.192 388.082C493.932 388.229 493.705 388.42 493.51 388.658C493.315 388.895 493.146 389.162 493.003 389.459ZM500.489 393.632C500.665 393.305 500.82 392.921 500.955 392.48C501.135 391.89 501.222 391.365 501.215 390.905C501.212 390.444 501.106 390.06 500.897 389.754C500.692 389.446 500.377 389.228 499.954 389.099C499.505 388.962 499.111 388.964 498.771 389.105C498.431 389.246 498.136 389.509 497.886 389.892C497.638 390.274 497.425 390.759 497.245 391.347C497.066 391.935 496.978 392.459 496.981 392.92C496.985 393.379 497.09 393.762 497.296 394.07C497.502 394.375 497.815 394.592 498.236 394.721C498.573 394.824 498.878 394.848 499.154 394.793C499.429 394.738 499.677 394.612 499.898 394.416C500.119 394.219 500.316 393.958 500.489 393.632ZM501.99 392.204C501.85 392.501 501.731 392.811 501.633 393.132C501.509 393.536 501.45 393.903 501.455 394.234C501.461 394.562 501.521 394.853 501.634 395.105C501.748 395.358 501.905 395.569 502.106 395.74C502.31 395.911 502.548 396.038 502.819 396.121C503.188 396.233 503.528 396.256 503.84 396.188C504.155 396.12 504.427 395.969 504.657 395.735C504.889 395.5 505.064 395.19 505.182 394.804C505.291 394.446 505.32 394.121 505.267 393.83C505.217 393.539 505.094 393.292 504.897 393.088C504.702 392.881 504.445 392.729 504.126 392.632C503.912 392.566 503.715 392.539 503.534 392.549C503.355 392.557 503.194 392.592 503.053 392.655C502.911 392.718 502.784 392.8 502.671 392.902L502.626 392.888C502.762 392.508 502.93 392.185 503.131 391.919C503.332 391.651 503.587 391.471 503.896 391.377C504.206 391.281 504.59 391.303 505.049 391.443C505.163 391.478 505.275 391.521 505.385 391.57C505.498 391.621 505.599 391.675 505.687 391.732L505.91 391.004C505.827 390.954 505.719 390.903 505.585 390.851C505.451 390.799 505.329 390.757 505.219 390.723C504.796 390.594 504.415 390.543 504.077 390.571C503.74 390.596 503.441 390.681 503.178 390.827C502.918 390.973 502.691 391.165 502.496 391.403C502.301 391.64 502.132 391.907 501.99 392.204Z" fill="#59BB49"/>
</svg>
