<svg width="920" height="755" viewBox="0 0 920 755" fill="none" xmlns="http://www.w3.org/2000/svg">
<path d="M489.807 404.579C489.579 404.711 489.323 404.733 489.039 404.647C488.87 404.595 488.733 404.512 488.629 404.399C488.525 404.285 488.449 404.155 488.401 404.007C488.355 403.856 488.333 403.701 488.335 403.541C488.338 403.381 488.361 403.229 488.405 403.085C488.449 402.943 488.534 402.816 488.66 402.705C488.789 402.595 488.946 402.519 489.13 402.477C489.314 402.435 489.511 402.446 489.72 402.51C490.027 402.604 490.228 402.765 490.324 402.993C490.423 403.222 490.425 403.492 490.33 403.803C490.213 404.187 490.039 404.445 489.807 404.579Z" fill="#59BB49"/>
<path d="M492.868 404.799C492.902 404.472 492.99 404.078 493.131 403.617C493.271 403.159 493.418 402.785 493.572 402.494C493.728 402.204 493.9 402.003 494.087 401.892C494.276 401.778 494.491 401.758 494.73 401.831C494.969 401.904 495.136 402.04 495.23 402.241C495.325 402.439 495.356 402.701 495.324 403.029C495.292 403.357 495.206 403.75 495.066 404.208C494.924 404.672 494.774 405.048 494.615 405.337C494.458 405.627 494.286 405.826 494.097 405.934C493.909 406.043 493.697 406.061 493.46 405.989C493.223 405.917 493.057 405.783 492.962 405.587C492.867 405.39 492.836 405.127 492.868 404.799Z" fill="#59BB49"/>
<path d="M486 394.5L506.5 402L502 413.5L482 406.5L486 394.5ZM488.003 401.459C487.863 401.756 487.744 402.066 487.646 402.387C487.523 402.791 487.464 403.158 487.469 403.489C487.475 403.818 487.535 404.108 487.648 404.361C487.762 404.613 487.919 404.824 488.12 404.995C488.324 405.166 488.561 405.293 488.833 405.376C489.201 405.489 489.542 405.511 489.854 405.443C490.169 405.375 490.441 405.224 490.67 404.99C490.902 404.756 491.078 404.446 491.195 404.059C491.305 403.701 491.333 403.376 491.281 403.085C491.231 402.795 491.107 402.547 490.911 402.343C490.716 402.136 490.458 401.984 490.14 401.887C489.925 401.821 489.728 401.794 489.548 401.804C489.369 401.812 489.208 401.847 489.066 401.91C488.925 401.973 488.797 402.055 488.685 402.157L488.64 402.143C488.775 401.763 488.943 401.44 489.144 401.174C489.346 400.906 489.601 400.726 489.91 400.632C490.22 400.536 490.604 400.558 491.062 400.698C491.177 400.733 491.289 400.776 491.399 400.826C491.512 400.876 491.612 400.93 491.701 400.987L491.923 400.259C491.841 400.209 491.732 400.158 491.598 400.106C491.464 400.054 491.343 400.012 491.233 399.978C490.81 399.849 490.429 399.798 490.091 399.826C489.754 399.851 489.454 399.936 489.192 400.082C488.932 400.229 488.705 400.42 488.51 400.658C488.315 400.895 488.146 401.162 488.003 401.459ZM495.489 405.632C495.665 405.305 495.82 404.921 495.955 404.48C496.135 403.89 496.222 403.365 496.215 402.905C496.212 402.444 496.106 402.06 495.897 401.754C495.692 401.446 495.377 401.228 494.954 401.099C494.505 400.962 494.111 400.964 493.771 401.105C493.431 401.246 493.136 401.509 492.886 401.892C492.638 402.274 492.425 402.759 492.245 403.347C492.066 403.935 491.978 404.459 491.981 404.92C491.985 405.379 492.09 405.762 492.296 406.07C492.502 406.375 492.815 406.592 493.236 406.721C493.573 406.824 493.878 406.848 494.154 406.793C494.429 406.738 494.677 406.612 494.898 406.416C495.119 406.219 495.316 405.958 495.489 405.632ZM500.116 403.611L496.538 407.648L497.483 407.937L501.112 403.731L501.296 403.13L497.515 401.975L497.28 402.745L500.116 403.611Z" fill="#59BB49"/>
</svg>
