<svg width="920" height="755" viewBox="0 0 920 755" fill="none" xmlns="http://www.w3.org/2000/svg">
<path d="M485.807 417.579C485.579 417.711 485.323 417.733 485.039 417.647C484.87 417.595 484.733 417.512 484.629 417.399C484.525 417.285 484.449 417.155 484.401 417.007C484.355 416.856 484.333 416.701 484.335 416.541C484.338 416.381 484.361 416.229 484.405 416.085C484.449 415.943 484.534 415.816 484.66 415.705C484.789 415.595 484.946 415.519 485.13 415.477C485.314 415.435 485.511 415.446 485.72 415.51C486.027 415.604 486.228 415.765 486.324 415.993C486.423 416.222 486.425 416.492 486.33 416.803C486.213 417.187 486.039 417.445 485.807 417.579Z" fill="#59BB49"/>
<path d="M488.868 417.799C488.902 417.472 488.99 417.078 489.131 416.617C489.271 416.159 489.418 415.785 489.572 415.494C489.728 415.204 489.9 415.003 490.087 414.892C490.276 414.778 490.491 414.758 490.73 414.831C490.969 414.904 491.136 415.04 491.23 415.241C491.325 415.439 491.356 415.701 491.324 416.029C491.292 416.357 491.206 416.75 491.066 417.208C490.924 417.672 490.774 418.048 490.615 418.337C490.458 418.627 490.286 418.826 490.097 418.934C489.909 419.043 489.697 419.061 489.46 418.989C489.223 418.917 489.057 418.783 488.962 418.587C488.867 418.39 488.836 418.127 488.868 417.799Z" fill="#59BB49"/>
<path d="M493.244 419.957C493.121 419.75 493.097 419.528 493.17 419.289C493.221 419.122 493.303 418.985 493.418 418.878C493.534 418.772 493.678 418.69 493.849 418.63C494.02 418.568 494.216 418.526 494.435 418.503L494.54 418.588C494.694 418.725 494.83 418.865 494.947 419.007C495.067 419.147 495.153 419.291 495.203 419.44C495.255 419.589 495.257 419.744 495.208 419.903C495.132 420.152 494.984 420.326 494.763 420.425C494.542 420.523 494.265 420.522 493.931 420.42C493.595 420.317 493.366 420.163 493.244 419.957Z" fill="#59BB49"/>
<path d="M494.581 416.154C494.774 416.082 494.992 416.083 495.233 416.157C495.482 416.233 495.666 416.355 495.784 416.521C495.905 416.686 495.932 416.879 495.865 417.098C495.816 417.257 495.737 417.383 495.627 417.474C495.521 417.564 495.393 417.631 495.243 417.676C495.097 417.718 494.937 417.75 494.765 417.771C494.629 417.653 494.509 417.534 494.404 417.415C494.299 417.293 494.226 417.165 494.183 417.029C494.142 416.894 494.146 416.748 494.194 416.591C494.262 416.37 494.391 416.224 494.581 416.154Z" fill="#59BB49"/>
<path d="M482 407L501.5 414L497.5 426L477 419L482 407ZM484.003 414.459C483.863 414.756 483.744 415.066 483.646 415.387C483.523 415.791 483.464 416.158 483.469 416.489C483.475 416.818 483.535 417.108 483.648 417.361C483.762 417.613 483.919 417.824 484.12 417.995C484.324 418.166 484.561 418.293 484.833 418.376C485.201 418.489 485.542 418.511 485.854 418.443C486.169 418.375 486.441 418.224 486.67 417.99C486.902 417.756 487.078 417.446 487.195 417.059C487.305 416.701 487.333 416.376 487.281 416.085C487.231 415.795 487.107 415.547 486.911 415.343C486.716 415.136 486.458 414.984 486.14 414.887C485.925 414.821 485.728 414.794 485.548 414.804C485.369 414.812 485.208 414.847 485.066 414.91C484.925 414.973 484.797 415.055 484.685 415.157L484.64 415.143C484.775 414.763 484.943 414.44 485.144 414.174C485.346 413.906 485.601 413.726 485.91 413.632C486.22 413.536 486.604 413.558 487.062 413.698C487.177 413.733 487.289 413.776 487.399 413.826C487.512 413.876 487.612 413.93 487.701 413.987L487.923 413.259C487.841 413.209 487.732 413.158 487.598 413.106C487.464 413.054 487.343 413.012 487.233 412.978C486.81 412.849 486.429 412.798 486.091 412.826C485.754 412.851 485.454 412.936 485.192 413.082C484.932 413.229 484.705 413.42 484.51 413.658C484.315 413.895 484.146 414.162 484.003 414.459ZM491.489 418.632C491.665 418.305 491.82 417.921 491.955 417.48C492.135 416.89 492.222 416.365 492.215 415.905C492.212 415.444 492.106 415.06 491.897 414.754C491.692 414.446 491.377 414.228 490.954 414.099C490.505 413.962 490.111 413.964 489.771 414.105C489.431 414.246 489.136 414.509 488.886 414.892C488.638 415.274 488.425 415.759 488.245 416.347C488.066 416.935 487.978 417.459 487.981 417.92C487.985 418.379 488.09 418.762 488.296 419.07C488.502 419.375 488.815 419.592 489.236 419.721C489.573 419.824 489.878 419.848 490.154 419.793C490.429 419.738 490.677 419.612 490.898 419.416C491.119 419.219 491.316 418.958 491.489 418.632ZM496.257 415.894C496.033 415.717 495.764 415.58 495.447 415.483C495.138 415.389 494.84 415.352 494.554 415.374C494.269 415.396 494.021 415.481 493.81 415.629C493.599 415.774 493.451 415.989 493.364 416.273C493.296 416.494 493.278 416.702 493.308 416.897C493.342 417.089 493.41 417.272 493.512 417.445C493.616 417.615 493.737 417.778 493.878 417.933C493.648 417.963 493.428 418.02 493.218 418.103C493.01 418.186 492.828 418.305 492.672 418.459C492.516 418.612 492.4 418.815 492.323 419.067C492.23 419.371 492.222 419.654 492.3 419.917C492.378 420.178 492.539 420.41 492.782 420.612C493.025 420.814 493.345 420.976 493.741 421.097C494.109 421.209 494.45 421.248 494.763 421.213C495.077 421.176 495.345 421.069 495.567 420.895C495.792 420.719 495.952 420.477 496.045 420.171C496.12 419.927 496.129 419.697 496.072 419.481C496.018 419.266 495.921 419.063 495.78 418.873C495.643 418.681 495.483 418.5 495.301 418.33C495.521 418.294 495.727 418.239 495.919 418.164C496.112 418.087 496.278 417.979 496.418 417.842C496.56 417.706 496.665 417.527 496.733 417.306C496.82 417.019 496.819 416.756 496.729 416.516C496.639 416.276 496.481 416.069 496.257 415.894Z" fill="#59BB49"/>
</svg>
