<svg width="920" height="755" viewBox="0 0 920 755" fill="none" xmlns="http://www.w3.org/2000/svg">
<path d="M480.807 429.579C480.579 429.711 480.323 429.733 480.039 429.647C479.87 429.595 479.733 429.512 479.629 429.399C479.525 429.285 479.449 429.155 479.401 429.007C479.355 428.856 479.333 428.701 479.335 428.541C479.338 428.381 479.361 428.229 479.405 428.085C479.449 427.943 479.534 427.816 479.66 427.705C479.789 427.595 479.946 427.519 480.13 427.477C480.314 427.435 480.511 427.446 480.72 427.51C481.027 427.604 481.228 427.765 481.324 427.993C481.423 428.222 481.425 428.492 481.33 428.803C481.213 429.187 481.039 429.445 480.807 429.579Z" fill="#59BB49"/>
<path d="M483.868 429.799C483.902 429.472 483.99 429.078 484.131 428.617C484.271 428.159 484.418 427.785 484.572 427.494C484.728 427.204 484.9 427.003 485.087 426.892C485.276 426.778 485.491 426.758 485.73 426.831C485.969 426.904 486.136 427.04 486.23 427.241C486.325 427.439 486.356 427.701 486.324 428.029C486.292 428.357 486.206 428.75 486.066 429.208C485.924 429.672 485.774 430.048 485.615 430.337C485.458 430.627 485.286 430.826 485.097 430.934C484.909 431.043 484.697 431.061 484.46 430.989C484.223 430.917 484.057 430.783 483.962 430.587C483.867 430.39 483.836 430.127 483.868 429.799Z" fill="#59BB49"/>
<path d="M489.399 428.266C489.631 428.133 489.885 428.108 490.161 428.192C490.333 428.245 490.471 428.329 490.574 428.445C490.681 428.559 490.758 428.691 490.805 428.838C490.853 428.986 490.874 429.14 490.869 429.299C490.866 429.459 490.843 429.612 490.798 429.759C490.754 429.901 490.668 430.027 490.539 430.138C490.413 430.249 490.257 430.325 490.073 430.367C489.892 430.407 489.694 430.394 489.48 430.329C489.171 430.235 488.97 430.074 488.876 429.846C488.782 429.619 488.783 429.349 488.878 429.038C488.995 428.654 489.169 428.397 489.399 428.266Z" fill="#59BB49"/>
<path d="M477 419.5L497 426.5L493.5 438.5L472.5 431L477 419.5ZM479.003 426.459C478.863 426.756 478.744 427.066 478.646 427.387C478.523 427.791 478.464 428.158 478.469 428.489C478.475 428.818 478.535 429.108 478.648 429.361C478.762 429.613 478.919 429.824 479.12 429.995C479.324 430.166 479.561 430.293 479.833 430.376C480.201 430.489 480.542 430.511 480.854 430.443C481.169 430.375 481.441 430.224 481.67 429.99C481.902 429.756 482.078 429.446 482.195 429.059C482.305 428.701 482.333 428.376 482.281 428.085C482.231 427.795 482.107 427.547 481.911 427.343C481.716 427.136 481.458 426.984 481.14 426.887C480.925 426.821 480.728 426.794 480.548 426.804C480.369 426.812 480.208 426.847 480.066 426.91C479.925 426.973 479.797 427.055 479.685 427.157L479.64 427.143C479.775 426.763 479.943 426.44 480.144 426.174C480.346 425.906 480.601 425.726 480.91 425.632C481.22 425.536 481.604 425.558 482.062 425.698C482.177 425.733 482.289 425.776 482.399 425.826C482.512 425.876 482.612 425.93 482.701 425.987L482.923 425.259C482.841 425.209 482.732 425.158 482.598 425.106C482.464 425.054 482.343 425.012 482.233 424.978C481.81 424.849 481.429 424.798 481.091 424.826C480.754 424.851 480.454 424.936 480.192 425.082C479.932 425.229 479.705 425.42 479.51 425.658C479.315 425.895 479.146 426.162 479.003 426.459ZM486.489 430.632C486.665 430.305 486.82 429.921 486.955 429.48C487.135 428.89 487.222 428.365 487.215 427.905C487.212 427.444 487.106 427.06 486.897 426.754C486.692 426.446 486.377 426.228 485.954 426.099C485.505 425.962 485.111 425.964 484.771 426.105C484.431 426.246 484.136 426.509 483.886 426.892C483.638 427.274 483.425 427.759 483.245 428.347C483.066 428.935 482.978 429.459 482.981 429.92C482.985 430.379 483.09 430.762 483.296 431.07C483.502 431.375 483.815 431.592 484.236 431.721C484.573 431.824 484.878 431.848 485.154 431.793C485.429 431.738 485.677 431.612 485.898 431.416C486.119 431.219 486.316 430.958 486.489 430.632ZM491.201 431.381C491.343 431.084 491.464 430.774 491.563 430.45C491.685 430.049 491.744 429.685 491.738 429.356C491.733 429.025 491.673 428.733 491.56 428.481C491.447 428.226 491.289 428.014 491.084 427.845C490.883 427.675 490.645 427.548 490.371 427.464C490.008 427.353 489.668 427.333 489.353 427.402C489.038 427.47 488.765 427.62 488.533 427.854C488.301 428.088 488.126 428.398 488.008 428.784C487.899 429.141 487.869 429.465 487.919 429.758C487.971 430.049 488.093 430.296 488.285 430.499C488.478 430.702 488.732 430.852 489.046 430.948C489.278 431.019 489.483 431.05 489.662 431.042C489.843 431.032 490.002 430.995 490.142 430.931C490.282 430.865 490.406 430.783 490.515 430.686L490.559 430.699C490.427 431.078 490.261 431.402 490.059 431.67C489.86 431.938 489.604 432.119 489.293 432.212C488.984 432.305 488.599 432.282 488.138 432.141C488.021 432.105 487.905 432.062 487.79 432.01C487.678 431.957 487.579 431.902 487.493 431.846L487.27 432.578C487.353 432.625 487.463 432.675 487.6 432.728C487.738 432.784 487.86 432.828 487.967 432.861C488.393 432.991 488.775 433.043 489.112 433.018C489.449 432.993 489.748 432.907 490.007 432.761C490.271 432.613 490.5 432.42 490.695 432.182C490.892 431.946 491.061 431.679 491.201 431.381Z" fill="#59BB49"/>
</svg>
