<svg width="920" height="755" viewBox="0 0 920 755" fill="none" xmlns="http://www.w3.org/2000/svg">
<path d="M476.807 442.579C476.579 442.711 476.323 442.733 476.039 442.647C475.87 442.595 475.733 442.512 475.629 442.399C475.525 442.285 475.449 442.155 475.401 442.007C475.355 441.856 475.333 441.701 475.335 441.541C475.338 441.381 475.361 441.229 475.405 441.085C475.449 440.943 475.534 440.816 475.66 440.705C475.789 440.595 475.946 440.519 476.13 440.477C476.314 440.435 476.511 440.446 476.72 440.51C477.027 440.604 477.228 440.765 477.324 440.993C477.423 441.222 477.425 441.492 477.33 441.803C477.213 442.187 477.039 442.445 476.807 442.579Z" fill="#59BB49"/>
<path d="M484.361 444.171C484.395 443.844 484.483 443.45 484.624 442.99C484.764 442.531 484.911 442.157 485.065 441.866C485.222 441.577 485.393 441.376 485.58 441.264C485.77 441.15 485.984 441.13 486.223 441.203C486.462 441.276 486.629 441.413 486.723 441.613C486.818 441.811 486.849 442.074 486.817 442.402C486.785 442.729 486.699 443.123 486.559 443.581C486.417 444.044 486.267 444.42 486.108 444.709C485.951 444.999 485.779 445.198 485.591 445.307C485.402 445.415 485.19 445.434 484.953 445.361C484.717 445.289 484.55 445.155 484.455 444.96C484.36 444.762 484.329 444.499 484.361 444.171Z" fill="#59BB49"/>
<path d="M472.5 431.5L493 439L488.5 450.5L468 444L472.5 431.5ZM475.003 439.459C474.863 439.756 474.744 440.066 474.646 440.387C474.523 440.791 474.464 441.158 474.469 441.489C474.475 441.818 474.535 442.108 474.648 442.361C474.762 442.613 474.919 442.824 475.12 442.995C475.324 443.166 475.561 443.293 475.833 443.376C476.201 443.489 476.542 443.511 476.854 443.443C477.169 443.375 477.441 443.224 477.67 442.99C477.902 442.756 478.078 442.446 478.195 442.059C478.305 441.701 478.333 441.376 478.281 441.085C478.231 440.795 478.107 440.547 477.911 440.343C477.716 440.136 477.458 439.984 477.14 439.887C476.925 439.821 476.728 439.794 476.548 439.804C476.369 439.812 476.208 439.847 476.066 439.91C475.925 439.973 475.797 440.055 475.685 440.157L475.64 440.143C475.775 439.763 475.943 439.44 476.144 439.174C476.346 438.906 476.601 438.726 476.91 438.632C477.22 438.536 477.604 438.558 478.062 438.698C478.177 438.733 478.289 438.776 478.399 438.826C478.512 438.876 478.612 438.93 478.701 438.987L478.923 438.259C478.841 438.209 478.732 438.158 478.598 438.106C478.464 438.054 478.343 438.012 478.233 437.978C477.81 437.849 477.429 437.798 477.091 437.826C476.754 437.851 476.454 437.936 476.192 438.082C475.932 438.229 475.705 438.42 475.51 438.658C475.315 438.895 475.146 439.162 475.003 439.459ZM480.121 444.604L481.003 444.873L482.671 439.412L481.939 439.188L479.929 439.963L480.2 440.654L480.981 440.345C481.087 440.299 481.188 440.253 481.284 440.209C481.381 440.165 481.465 440.123 481.535 440.082C481.496 440.181 481.457 440.287 481.418 440.397L481.306 440.739C481.267 440.855 481.23 440.972 481.195 441.089L480.121 444.604ZM486.982 445.005C487.158 444.677 487.313 444.293 487.448 443.852C487.628 443.262 487.715 442.737 487.709 442.278C487.705 441.817 487.599 441.433 487.39 441.127C487.185 440.819 486.87 440.6 486.447 440.471C485.999 440.334 485.604 440.336 485.265 440.477C484.925 440.619 484.629 440.881 484.379 441.265C484.131 441.647 483.918 442.131 483.738 442.719C483.559 443.307 483.471 443.832 483.474 444.293C483.478 444.751 483.583 445.135 483.789 445.443C483.995 445.748 484.309 445.965 484.73 446.093C485.066 446.196 485.372 446.22 485.647 446.165C485.922 446.111 486.17 445.985 486.391 445.788C486.612 445.592 486.809 445.33 486.982 445.005Z" fill="#59BB49"/>
</svg>
