<svg width="920" height="755" viewBox="0 0 920 755" fill="none" xmlns="http://www.w3.org/2000/svg">
<path d="M471.807 454.579C471.579 454.711 471.323 454.733 471.039 454.647C470.87 454.595 470.733 454.512 470.629 454.399C470.525 454.285 470.449 454.155 470.401 454.007C470.355 453.856 470.333 453.701 470.335 453.541C470.338 453.381 470.361 453.229 470.405 453.085C470.449 452.943 470.534 452.816 470.66 452.705C470.789 452.595 470.946 452.519 471.13 452.477C471.314 452.435 471.511 452.446 471.72 452.51C472.027 452.604 472.228 452.765 472.324 452.993C472.423 453.222 472.425 453.492 472.33 453.803C472.213 454.187 472.039 454.445 471.807 454.579Z" fill="#59BB49"/>
<path d="M468 444.5L488.5 451L484 463L463.5 456L468 444.5ZM470.003 451.459C469.863 451.756 469.744 452.066 469.646 452.387C469.523 452.791 469.464 453.158 469.469 453.489C469.475 453.818 469.535 454.108 469.648 454.361C469.762 454.613 469.919 454.824 470.12 454.995C470.324 455.166 470.561 455.293 470.833 455.376C471.201 455.489 471.542 455.511 471.854 455.443C472.169 455.375 472.441 455.224 472.67 454.99C472.902 454.756 473.078 454.446 473.195 454.059C473.305 453.701 473.333 453.376 473.281 453.085C473.231 452.795 473.107 452.547 472.911 452.343C472.716 452.136 472.458 451.984 472.14 451.887C471.925 451.821 471.728 451.794 471.548 451.804C471.369 451.812 471.208 451.847 471.066 451.91C470.925 451.973 470.797 452.055 470.685 452.157L470.64 452.143C470.775 451.763 470.943 451.44 471.144 451.174C471.346 450.906 471.601 450.726 471.91 450.632C472.22 450.536 472.604 450.558 473.062 450.698C473.177 450.733 473.289 450.776 473.399 450.826C473.512 450.876 473.612 450.93 473.701 450.987L473.923 450.259C473.841 450.209 473.732 450.158 473.598 450.106C473.464 450.054 473.343 450.012 473.233 449.978C472.81 449.849 472.429 449.798 472.091 449.826C471.754 449.851 471.454 449.936 471.192 450.082C470.932 450.229 470.705 450.42 470.51 450.658C470.315 450.895 470.146 451.162 470.003 451.459ZM475.121 456.604L476.003 456.873L477.671 451.412L476.939 451.188L474.929 451.963L475.2 452.654L475.981 452.345C476.087 452.299 476.188 452.253 476.284 452.209C476.381 452.165 476.465 452.123 476.535 452.082C476.496 452.181 476.457 452.287 476.418 452.397L476.306 452.739C476.267 452.855 476.23 452.972 476.195 453.089L475.121 456.604ZM479.614 457.977L480.496 458.246L482.164 452.784L481.432 452.56L479.423 453.335L479.693 454.027L480.474 453.718C480.581 453.671 480.682 453.626 480.777 453.582C480.875 453.538 480.958 453.495 481.028 453.454C480.99 453.554 480.951 453.659 480.911 453.77L480.799 454.111C480.761 454.227 480.724 454.344 480.688 454.461L479.614 457.977Z" fill="#59BB49"/>
</svg>
