<svg width="920" height="755" viewBox="0 0 920 755" fill="none" xmlns="http://www.w3.org/2000/svg">
<path d="M467.807 466.579C467.579 466.711 467.323 466.733 467.039 466.647C466.87 466.595 466.733 466.512 466.629 466.399C466.525 466.285 466.449 466.155 466.401 466.007C466.355 465.856 466.333 465.701 466.335 465.541C466.338 465.381 466.361 465.229 466.405 465.085C466.449 464.943 466.534 464.816 466.66 464.705C466.789 464.595 466.946 464.519 467.13 464.477C467.314 464.435 467.511 464.446 467.72 464.51C468.027 464.604 468.228 464.765 468.324 464.993C468.423 465.222 468.425 465.492 468.33 465.803C468.213 466.187 468.039 466.445 467.807 466.579Z" fill="#59BB49"/>
<path d="M463.5 456.5L484 463.5L479.5 475.5L459 468.5L463.5 456.5ZM466.003 463.459C465.863 463.756 465.744 464.066 465.646 464.387C465.523 464.791 465.464 465.158 465.469 465.489C465.475 465.818 465.535 466.108 465.648 466.361C465.762 466.613 465.919 466.824 466.12 466.995C466.324 467.166 466.561 467.293 466.833 467.376C467.201 467.489 467.542 467.511 467.854 467.443C468.169 467.375 468.441 467.224 468.67 466.99C468.902 466.756 469.078 466.446 469.195 466.059C469.305 465.701 469.333 465.376 469.281 465.085C469.231 464.795 469.107 464.547 468.911 464.343C468.716 464.136 468.458 463.984 468.14 463.887C467.925 463.821 467.728 463.794 467.548 463.804C467.369 463.812 467.208 463.847 467.066 463.91C466.925 463.973 466.797 464.055 466.685 464.157L466.64 464.143C466.775 463.763 466.943 463.44 467.144 463.174C467.346 462.906 467.601 462.726 467.91 462.632C468.22 462.536 468.604 462.558 469.062 462.698C469.177 462.733 469.289 462.776 469.399 462.826C469.512 462.876 469.612 462.93 469.701 462.987L469.923 462.259C469.841 462.209 469.732 462.158 469.598 462.106C469.464 462.054 469.343 462.012 469.233 461.978C468.81 461.849 468.429 461.798 468.091 461.826C467.754 461.851 467.454 461.936 467.192 462.082C466.932 462.229 466.705 462.42 466.51 462.658C466.315 462.895 466.146 463.162 466.003 463.459ZM471.121 468.604L472.003 468.873L473.671 463.412L472.939 463.188L470.929 463.963L471.2 464.654L471.981 464.345C472.087 464.299 472.188 464.253 472.284 464.209C472.381 464.165 472.465 464.123 472.535 464.082C472.496 464.181 472.457 464.287 472.418 464.397L472.306 464.739C472.267 464.855 472.23 464.972 472.195 465.089L471.121 468.604ZM473.914 469.457L477.613 470.587L477.848 469.817L475.263 469.028L475.275 468.987L476.502 468.353C476.888 468.16 477.226 467.976 477.516 467.801C477.808 467.623 478.05 467.427 478.243 467.214C478.436 467 478.577 466.747 478.667 466.453C478.756 466.162 478.766 465.885 478.696 465.624C478.628 465.364 478.487 465.135 478.273 464.936C478.059 464.734 477.78 464.581 477.433 464.475C477.159 464.391 476.905 464.349 476.672 464.349C476.438 464.345 476.218 464.371 476.011 464.425C475.807 464.479 475.609 464.548 475.417 464.631L475.722 465.357C475.989 465.251 476.236 465.182 476.463 465.151C476.694 465.118 476.927 465.137 477.164 465.21C477.413 465.286 477.593 465.415 477.703 465.599C477.814 465.78 477.829 466.002 477.748 466.266C477.683 466.48 477.579 466.665 477.436 466.82C477.296 466.976 477.106 467.129 476.867 467.28C476.628 467.427 476.33 467.599 475.97 467.794L474.116 468.796L473.914 469.457Z" fill="#59BB49"/>
</svg>
