<svg width="920" height="755" viewBox="0 0 920 755" fill="none" xmlns="http://www.w3.org/2000/svg">
<path d="M461.807 482.579C461.579 482.711 461.323 482.733 461.039 482.647C460.87 482.595 460.733 482.512 460.629 482.399C460.525 482.285 460.449 482.155 460.401 482.007C460.355 481.856 460.333 481.701 460.335 481.541C460.338 481.381 460.361 481.229 460.405 481.085C460.449 480.943 460.534 480.816 460.66 480.705C460.789 480.595 460.946 480.519 461.13 480.477C461.314 480.435 461.511 480.446 461.72 480.51C462.027 480.604 462.228 480.765 462.324 480.993C462.423 481.222 462.425 481.492 462.33 481.803C462.213 482.187 462.039 482.445 461.807 482.579Z" fill="#59BB49"/>
<path d="M459 469L479.5 476L473 494.5L451.5 487L459 469ZM460.003 479.459C459.863 479.756 459.744 480.066 459.646 480.387C459.523 480.791 459.464 481.158 459.469 481.489C459.475 481.818 459.535 482.108 459.648 482.361C459.762 482.613 459.919 482.824 460.12 482.995C460.324 483.166 460.561 483.293 460.833 483.376C461.201 483.489 461.542 483.511 461.854 483.443C462.169 483.375 462.441 483.224 462.67 482.99C462.902 482.756 463.078 482.446 463.195 482.059C463.305 481.701 463.333 481.376 463.281 481.085C463.231 480.795 463.107 480.547 462.911 480.343C462.716 480.136 462.458 479.984 462.14 479.887C461.925 479.821 461.728 479.794 461.548 479.804C461.369 479.812 461.208 479.847 461.066 479.91C460.925 479.973 460.797 480.055 460.685 480.157L460.64 480.143C460.775 479.763 460.943 479.44 461.144 479.174C461.346 478.906 461.601 478.726 461.91 478.632C462.22 478.536 462.604 478.558 463.062 478.698C463.177 478.733 463.289 478.776 463.399 478.826C463.512 478.876 463.612 478.93 463.701 478.987L463.923 478.259C463.841 478.209 463.732 478.158 463.598 478.106C463.464 478.054 463.343 478.012 463.233 477.978C462.81 477.849 462.429 477.798 462.091 477.826C461.754 477.851 461.454 477.936 461.192 478.082C460.932 478.229 460.705 478.42 460.51 478.658C460.315 478.895 460.146 479.162 460.003 479.459ZM465.121 484.604L466.003 484.873L467.671 479.412L466.939 479.188L464.929 479.963L465.2 480.654L465.981 480.345C466.087 480.299 466.188 480.253 466.284 480.209C466.381 480.165 466.465 480.123 466.535 480.082C466.496 480.181 466.457 480.287 466.418 480.397L466.306 480.739C466.267 480.855 466.23 480.972 466.195 481.089L465.121 484.604ZM472.345 482.906C472.5 482.755 472.615 482.556 472.691 482.309C472.814 481.906 472.76 481.538 472.529 481.206C472.299 480.872 471.904 480.619 471.344 480.448C470.963 480.331 470.613 480.283 470.293 480.302C469.974 480.322 469.688 480.378 469.434 480.469L469.67 481.207C469.807 481.167 469.95 481.134 470.096 481.108C470.243 481.082 470.398 481.071 470.56 481.074C470.725 481.078 470.9 481.108 471.084 481.165C471.383 481.256 471.588 481.391 471.7 481.569C471.812 481.745 471.832 481.95 471.761 482.184C471.706 482.364 471.615 482.507 471.486 482.615C471.361 482.724 471.19 482.787 470.975 482.806C470.76 482.822 470.495 482.782 470.178 482.685L469.693 482.537L469.477 483.243L469.959 483.39C470.29 483.491 470.551 483.605 470.741 483.731C470.934 483.858 471.061 483.999 471.122 484.154C471.187 484.31 471.189 484.485 471.13 484.679C471.038 484.98 470.868 485.187 470.621 485.3C470.375 485.41 470.024 485.395 469.569 485.256C469.335 485.185 469.096 485.078 468.854 484.936C468.611 484.793 468.392 484.63 468.195 484.444L467.957 485.225C468.151 485.399 468.367 485.548 468.604 485.672C468.844 485.797 469.112 485.905 469.408 485.995C469.901 486.146 470.327 486.198 470.684 486.152C471.041 486.106 471.333 485.983 471.56 485.783C471.788 485.58 471.951 485.321 472.047 485.004C472.158 484.643 472.134 484.319 471.977 484.031C471.822 483.744 471.535 483.507 471.116 483.319L471.124 483.293C471.366 483.312 471.59 483.291 471.797 483.229C472.007 483.165 472.19 483.057 472.345 482.906Z" fill="#59BB49"/>
</svg>
