<svg width="920" height="755" viewBox="0 0 920 755" fill="none" xmlns="http://www.w3.org/2000/svg">
<path d="M508.269 233.431C508.922 233.531 509.197 233.913 509.095 234.577C509.05 234.874 508.923 235.103 508.716 235.266C508.515 235.429 508.275 235.489 507.996 235.447C507.824 235.42 507.681 235.365 507.567 235.28C507.453 235.19 507.363 235.085 507.296 234.966C507.236 234.841 507.196 234.708 507.176 234.565C507.156 234.416 507.157 234.271 507.179 234.128L507.201 233.986C507.208 233.939 507.223 233.883 507.244 233.82C507.332 233.687 507.463 233.58 507.64 233.498C507.822 233.417 508.032 233.394 508.269 233.431Z" fill="#59BB49"/>
<path d="M519.43 233.195L519.235 233.93L519.027 235.291L517.968 235.128L517.388 235.112L517.884 234.842L518.994 233.783L519.395 233.189L519.43 233.195Z" fill="#59BB49"/>
<path d="M503.5 226L524.5 229L522.5 241.5L501.5 238.5L503.5 226ZM509.95 235.473C510.089 235.24 510.181 234.977 510.225 234.687C510.273 234.378 510.27 234.099 510.218 233.848C510.165 233.597 510.071 233.379 509.935 233.195C509.801 233.004 509.627 232.85 509.415 232.732C509.202 232.615 508.962 232.535 508.695 232.494C508.411 232.451 508.165 232.468 507.959 232.545C507.754 232.617 507.58 232.718 507.439 232.848C507.531 232.607 507.659 232.381 507.825 232.17C507.998 231.953 508.194 231.765 508.413 231.604C508.638 231.445 508.885 231.316 509.155 231.217C509.425 231.119 509.712 231.069 510.016 231.067L509.899 230.111C509.461 230.117 509.032 230.2 508.613 230.36C508.201 230.516 507.822 230.749 507.477 231.06C507.138 231.366 506.847 231.743 506.602 232.191C506.363 232.64 506.199 233.158 506.109 233.746C506.049 234.137 506.049 234.489 506.11 234.802C506.172 235.115 506.282 235.384 506.442 235.609C506.602 235.833 506.801 236.016 507.041 236.156C507.287 236.291 507.565 236.382 507.873 236.429C508.175 236.476 508.459 236.465 508.725 236.396C508.996 236.328 509.235 236.216 509.441 236.06C509.647 235.903 509.817 235.708 509.95 235.473ZM512.814 236.058L511.577 235.869L511.427 236.847L514.977 237.392L515.127 236.413L513.917 236.228L514.739 230.872L514.089 230.773L511.81 232.098L512.197 232.84L513.072 232.419L513.579 231.96L513.353 232.544L512.814 236.058ZM519.961 236.381L520.94 236.531L521.082 235.606L520.103 235.456L520.657 231.844L519.705 231.698L516.29 235.144L516.189 235.802L518.885 236.216L518.618 237.951L519.695 238.116L519.961 236.381Z" fill="#59BB49"/>
</svg>
