<svg width="920" height="755" viewBox="0 0 920 755" fill="none" xmlns="http://www.w3.org/2000/svg">
<path d="M506.269 246.431C506.922 246.531 507.197 246.913 507.095 247.577C507.05 247.874 506.923 248.103 506.716 248.266C506.515 248.429 506.275 248.489 505.996 248.447C505.824 248.42 505.681 248.365 505.567 248.28C505.453 248.19 505.363 248.085 505.296 247.966C505.236 247.841 505.196 247.708 505.176 247.565C505.156 247.416 505.157 247.271 505.179 247.128L505.201 246.986C505.208 246.939 505.223 246.883 505.244 246.82C505.332 246.687 505.463 246.58 505.64 246.498C505.822 246.417 506.032 246.394 506.269 246.431Z" fill="#59BB49"/>
<path d="M501.5 239L522.5 242L520.5 254.5L499.5 251.5L501.5 239ZM507.95 248.473C508.089 248.24 508.181 247.977 508.225 247.687C508.273 247.378 508.27 247.099 508.218 246.848C508.165 246.597 508.071 246.379 507.935 246.195C507.801 246.004 507.627 245.85 507.415 245.732C507.202 245.615 506.962 245.535 506.695 245.494C506.411 245.451 506.165 245.468 505.959 245.545C505.754 245.617 505.58 245.718 505.439 245.848C505.531 245.607 505.659 245.381 505.825 245.17C505.998 244.953 506.194 244.765 506.413 244.604C506.638 244.445 506.885 244.316 507.155 244.217C507.425 244.119 507.712 244.069 508.016 244.067L507.899 243.111C507.461 243.117 507.032 243.2 506.613 243.36C506.201 243.516 505.822 243.749 505.477 244.06C505.138 244.366 504.847 244.743 504.602 245.191C504.363 245.64 504.199 246.158 504.109 246.746C504.049 247.137 504.049 247.489 504.11 247.802C504.172 248.115 504.282 248.384 504.442 248.609C504.602 248.833 504.801 249.016 505.041 249.156C505.287 249.291 505.565 249.382 505.873 249.429C506.175 249.476 506.459 249.465 506.725 249.396C506.996 249.328 507.235 249.216 507.441 249.06C507.647 248.903 507.817 248.708 507.95 248.473ZM510.814 249.058L509.577 248.869L509.427 249.847L512.977 250.392L513.127 249.413L511.917 249.228L512.739 243.872L512.089 243.773L509.81 245.098L510.197 245.84L511.072 245.419L511.579 244.96L511.353 245.544L510.814 249.058ZM516.791 249.766C516.554 249.924 516.24 249.973 515.849 249.913C515.618 249.877 515.421 249.832 515.26 249.777C515.105 249.717 514.964 249.647 514.837 249.566L514.378 250.479C514.532 250.582 514.725 250.672 514.956 250.75C515.191 250.835 515.443 250.898 515.71 250.939C516.048 250.99 516.366 250.994 516.664 250.948C516.963 250.903 517.229 250.808 517.464 250.661C517.705 250.516 517.905 250.319 518.065 250.071C518.224 249.822 518.331 249.523 518.384 249.173C518.43 248.876 518.426 248.603 518.374 248.352C518.322 248.095 518.226 247.871 518.086 247.679C517.946 247.482 517.765 247.317 517.542 247.186C517.325 247.056 517.073 246.962 516.784 246.906L516.414 246.885L516.598 245.685L518.662 246.001L518.828 244.916L515.768 244.446L515.268 247.702L515.975 247.783C516.426 247.853 516.76 247.989 516.978 248.192C517.196 248.396 517.277 248.675 517.223 249.031C517.172 249.363 517.028 249.608 516.791 249.766Z" fill="#59BB49"/>
</svg>
