<svg width="920" height="755" viewBox="0 0 920 755" fill="none" xmlns="http://www.w3.org/2000/svg">
<path d="M503.481 261.664C504.131 261.782 504.395 262.172 504.275 262.833C504.222 263.128 504.089 263.354 503.878 263.511C503.673 263.669 503.431 263.722 503.154 263.672C502.982 263.641 502.841 263.582 502.729 263.494C502.617 263.401 502.53 263.294 502.467 263.172C502.41 263.046 502.374 262.912 502.357 262.768C502.342 262.619 502.347 262.474 502.372 262.332L502.398 262.19C502.407 262.143 502.423 262.088 502.446 262.025C502.537 261.895 502.672 261.792 502.85 261.714C503.035 261.638 503.245 261.621 503.481 261.664Z" fill="#59BB49"/>
<path d="M513.884 263.551C514.534 263.669 514.799 264.059 514.679 264.72C514.625 265.015 514.493 265.241 514.281 265.398C514.076 265.556 513.834 265.609 513.557 265.559C513.386 265.528 513.244 265.469 513.132 265.381C513.021 265.288 512.933 265.181 512.87 265.06C512.814 264.933 512.777 264.799 512.76 264.655C512.745 264.506 512.75 264.361 512.775 264.219L512.801 264.077C512.81 264.03 512.826 263.975 512.849 263.912C512.94 263.783 513.075 263.679 513.253 263.602C513.438 263.525 513.648 263.509 513.884 263.551Z" fill="#59BB49"/>
<path d="M499.5 252L520.5 255L517 273L496.5 268L499.5 252ZM505.106 263.752C505.251 263.522 505.35 263.262 505.403 262.973C505.458 262.666 505.463 262.387 505.417 262.134C505.372 261.882 505.284 261.662 505.153 261.474C505.024 261.279 504.854 261.121 504.645 260.997C504.436 260.874 504.198 260.788 503.933 260.74C503.649 260.689 503.403 260.699 503.195 260.771C502.988 260.837 502.812 260.933 502.667 261.059C502.765 260.821 502.9 260.598 503.072 260.392C503.25 260.18 503.451 259.997 503.675 259.843C503.904 259.689 504.154 259.567 504.427 259.476C504.7 259.385 504.988 259.343 505.292 259.349L505.2 258.391C504.762 258.384 504.332 258.456 503.908 258.604C503.492 258.748 503.107 258.971 502.753 259.273C502.407 259.57 502.105 259.939 501.848 260.38C501.597 260.822 501.419 261.336 501.313 261.92C501.242 262.31 501.233 262.662 501.286 262.976C501.339 263.291 501.442 263.563 501.595 263.792C501.749 264.021 501.943 264.209 502.179 264.355C502.422 264.497 502.697 264.595 503.004 264.651C503.305 264.706 503.589 264.702 503.856 264.641C504.129 264.581 504.371 264.475 504.581 264.324C504.791 264.173 504.966 263.983 505.106 263.752ZM507.953 264.415L506.722 264.191L506.545 265.165L510.078 265.806L510.255 264.832L509.051 264.614L510.018 259.283L509.371 259.165L507.057 260.429L507.423 261.181L508.309 260.784L508.829 260.339L508.587 260.917L507.953 264.415ZM515.509 265.639C515.654 265.409 515.753 265.15 515.806 264.86C515.861 264.553 515.866 264.274 515.821 264.021C515.775 263.769 515.687 263.549 515.556 263.361C515.427 263.166 515.257 263.008 515.048 262.884C514.839 262.761 514.601 262.675 514.336 262.627C514.052 262.576 513.806 262.586 513.598 262.658C513.391 262.724 513.215 262.82 513.07 262.946C513.168 262.708 513.303 262.486 513.475 262.279C513.654 262.067 513.854 261.884 514.078 261.73C514.307 261.576 514.558 261.454 514.83 261.363C515.103 261.272 515.391 261.23 515.695 261.236L515.603 260.278C515.165 260.271 514.735 260.343 514.311 260.491C513.895 260.635 513.51 260.858 513.157 261.16C512.81 261.457 512.508 261.826 512.251 262.267C512 262.71 511.822 263.223 511.716 263.807C511.645 264.197 511.636 264.549 511.689 264.864C511.742 265.178 511.845 265.45 511.998 265.679C512.152 265.908 512.347 266.096 512.582 266.242C512.825 266.384 513.1 266.482 513.407 266.538C513.708 266.593 513.992 266.589 514.259 266.528C514.532 266.468 514.774 266.362 514.984 266.211C515.195 266.061 515.369 265.87 515.509 265.639Z" fill="#59BB49"/>
</svg>
