<svg width="920" height="755" viewBox="0 0 920 755" fill="none" xmlns="http://www.w3.org/2000/svg">
<path d="M499.697 276.578C500.336 276.743 500.572 277.151 500.404 277.801C500.329 278.092 500.181 278.308 499.959 278.449C499.742 278.591 499.497 278.627 499.224 278.557C499.056 278.514 498.919 278.444 498.813 278.349C498.709 278.248 498.63 278.134 498.576 278.009C498.528 277.879 498.502 277.742 498.496 277.598C498.491 277.448 498.506 277.303 498.542 277.164L498.578 277.024C498.59 276.978 498.61 276.924 498.638 276.863C498.738 276.74 498.88 276.647 499.064 276.582C499.253 276.52 499.464 276.518 499.697 276.578Z" fill="#59BB49"/>
<path d="M496.5 268.5L516.5 273.5L514 286L493.5 281L496.5 268.5ZM501.166 278.778C501.327 278.559 501.445 278.308 501.518 278.023C501.596 277.721 501.621 277.442 501.594 277.188C501.566 276.933 501.495 276.707 501.378 276.509C501.263 276.306 501.106 276.136 500.906 275.997C500.706 275.859 500.475 275.756 500.214 275.689C499.935 275.617 499.689 275.61 499.476 275.666C499.265 275.717 499.082 275.8 498.929 275.916C499.044 275.685 499.195 275.473 499.381 275.279C499.574 275.081 499.788 274.913 500.022 274.775C500.261 274.639 500.52 274.535 500.799 274.464C501.077 274.393 501.368 274.372 501.67 274.401L501.649 273.438C501.212 273.4 500.778 273.44 500.345 273.557C499.919 273.671 499.519 273.865 499.144 274.14C498.777 274.411 498.449 274.758 498.161 275.179C497.879 275.602 497.664 276.101 497.515 276.676C497.417 277.06 497.382 277.41 497.412 277.728C497.442 278.045 497.525 278.324 497.661 278.563C497.798 278.803 497.978 279.004 498.203 279.167C498.435 279.326 498.701 279.445 499.004 279.522C499.3 279.599 499.584 279.616 499.855 279.574C500.131 279.534 500.38 279.446 500.601 279.311C500.821 279.176 501.01 278.998 501.166 278.778ZM503.957 279.646L502.745 279.334L502.498 280.292L505.976 281.188L506.223 280.229L505.038 279.924L506.389 274.677L505.753 274.513L503.352 275.605L503.663 276.382L504.576 276.05L505.127 275.644L504.843 276.203L503.957 279.646ZM510.85 277.434L507.644 281.617L508.751 281.902L512.677 276.761L512.762 276.43L508.832 275.418L508.558 276.481L510.798 277.058L511.343 277.105L510.85 277.434Z" fill="#59BB49"/>
</svg>
