<svg width="920" height="755" viewBox="0 0 920 755" fill="none" xmlns="http://www.w3.org/2000/svg">
<path d="M496.697 289.578C497.336 289.743 497.572 290.151 497.404 290.801C497.329 291.092 497.181 291.308 496.959 291.449C496.742 291.591 496.497 291.627 496.224 291.557C496.056 291.514 495.919 291.444 495.813 291.349C495.709 291.248 495.63 291.134 495.576 291.009C495.528 290.879 495.502 290.742 495.496 290.598C495.491 290.448 495.506 290.303 495.542 290.164L495.578 290.024C495.59 289.978 495.61 289.924 495.638 289.863C495.738 289.74 495.88 289.647 496.064 289.582C496.253 289.52 496.464 289.518 496.697 289.578Z" fill="#59BB49"/>
<path d="M507.487 293.249C507.523 293.376 507.523 293.506 507.489 293.64C507.423 293.896 507.292 294.066 507.097 294.152C506.907 294.24 506.681 294.25 506.42 294.182C506.135 294.109 505.932 293.97 505.811 293.766C505.698 293.557 505.671 293.336 505.731 293.104C505.777 292.924 505.873 292.756 506.018 292.601C506.171 292.442 506.404 292.32 506.717 292.233C506.827 292.336 506.933 292.441 507.036 292.547C507.144 292.656 507.236 292.769 507.311 292.888C507.393 293.002 507.452 293.122 507.487 293.249Z" fill="#59BB49"/>
<path d="M506.665 290.63C506.64 290.512 506.645 290.384 506.681 290.244C506.727 290.064 506.826 289.922 506.977 289.818C507.133 289.716 507.339 289.698 507.595 289.764C507.798 289.816 507.953 289.924 508.06 290.088C508.173 290.248 508.199 290.449 508.136 290.693C508.045 291.048 507.787 291.328 507.362 291.535C507.255 291.445 507.151 291.354 507.051 291.26C506.959 291.162 506.876 291.063 506.803 290.963C506.736 290.859 506.691 290.749 506.665 290.63Z" fill="#59BB49"/>
<path d="M493.5 281.5L513.5 286.5L510.5 298.5L489.5 293L493.5 281.5ZM498.166 291.778C498.327 291.559 498.445 291.308 498.518 291.023C498.596 290.721 498.621 290.442 498.594 290.188C498.566 289.933 498.495 289.707 498.378 289.509C498.263 289.306 498.106 289.136 497.906 288.997C497.706 288.859 497.475 288.756 497.214 288.689C496.935 288.617 496.689 288.61 496.476 288.666C496.265 288.717 496.082 288.8 495.929 288.916C496.044 288.685 496.195 288.473 496.381 288.279C496.574 288.081 496.788 287.913 497.022 287.775C497.261 287.639 497.52 287.535 497.799 287.464C498.077 287.393 498.368 287.372 498.67 287.401L498.649 286.438C498.212 286.4 497.778 286.44 497.345 286.557C496.919 286.671 496.519 286.865 496.144 287.14C495.777 287.411 495.449 287.758 495.161 288.179C494.879 288.602 494.664 289.101 494.515 289.676C494.417 290.06 494.382 290.41 494.412 290.728C494.442 291.045 494.525 291.324 494.661 291.563C494.798 291.803 494.978 292.004 495.203 292.167C495.435 292.326 495.701 292.445 496.004 292.522C496.3 292.599 496.584 292.616 496.855 292.574C497.131 292.534 497.38 292.446 497.601 292.311C497.821 292.176 498.01 291.998 498.166 291.778ZM500.957 292.646L499.745 292.334L499.498 293.292L502.976 294.188L503.223 293.229L502.038 292.924L503.389 287.677L502.753 287.513L500.352 288.605L500.663 289.382L501.576 289.05L502.127 288.644L501.843 289.203L500.957 292.646ZM504.871 292.51C504.778 292.654 504.705 292.827 504.653 293.031C504.59 293.275 504.577 293.507 504.613 293.727C504.655 293.948 504.74 294.149 504.867 294.331C504.999 294.514 505.172 294.673 505.385 294.808C505.602 294.951 505.856 295.06 506.147 295.134C506.437 295.209 506.715 295.237 506.98 295.219C507.246 295.195 507.486 295.129 507.699 295.023C507.913 294.917 508.093 294.771 508.239 294.586C508.394 294.397 508.504 294.171 508.572 293.91C508.67 293.526 508.661 293.189 508.544 292.899C508.432 292.61 508.229 292.319 507.932 292.026C508.28 291.904 508.559 291.744 508.772 291.545C508.99 291.347 509.143 291.077 509.232 290.734C509.288 290.513 509.296 290.301 509.256 290.099C509.222 289.892 509.143 289.704 509.02 289.536C508.901 289.369 508.744 289.223 508.547 289.098C508.35 288.973 508.12 288.877 507.859 288.81C507.574 288.736 507.308 288.711 507.061 288.734C506.813 288.757 506.589 288.82 506.389 288.924C506.195 289.029 506.029 289.169 505.891 289.344C505.758 289.52 505.663 289.722 505.605 289.948C505.515 290.297 505.521 290.611 505.622 290.892C505.725 291.166 505.896 291.43 506.134 291.683C505.96 291.731 505.793 291.791 505.633 291.861C505.478 291.933 505.334 292.022 505.201 292.131C505.075 292.235 504.965 292.361 504.871 292.51Z" fill="#59BB49"/>
</svg>
