<svg width="920" height="755" viewBox="0 0 920 755" fill="none" xmlns="http://www.w3.org/2000/svg">
<path d="M492.697 301.578C493.336 301.743 493.572 302.151 493.404 302.801C493.329 303.092 493.181 303.308 492.959 303.449C492.742 303.591 492.497 303.627 492.224 303.557C492.056 303.514 491.919 303.444 491.813 303.349C491.709 303.248 491.63 303.134 491.576 303.009C491.528 302.879 491.502 302.742 491.496 302.598C491.491 302.448 491.506 302.303 491.542 302.164L491.578 302.024C491.59 301.978 491.61 301.924 491.638 301.863C491.738 301.74 491.88 301.647 492.064 301.582C492.253 301.52 492.464 301.518 492.697 301.578Z" fill="#59BB49"/>
<path d="M502.409 303.336C502.267 303.12 502.238 302.846 502.323 302.515C502.407 302.189 502.551 301.957 502.754 301.817C502.959 301.671 503.203 301.635 503.488 301.709C503.668 301.755 503.812 301.832 503.921 301.941C504.037 302.045 504.119 302.169 504.169 302.312C504.225 302.456 504.253 302.612 504.253 302.779C504.254 302.947 504.233 303.112 504.191 303.274C504.162 303.385 504.124 303.499 504.075 303.616C503.965 303.706 503.825 303.769 503.654 303.805C503.484 303.842 503.28 303.83 503.041 303.768C502.762 303.696 502.552 303.552 502.409 303.336Z" fill="#59BB49"/>
<path d="M489.5 293.5L510 299L507 311.5L486.5 306L489.5 293.5ZM494.166 303.778C494.327 303.559 494.445 303.308 494.518 303.023C494.596 302.721 494.621 302.442 494.594 302.188C494.566 301.933 494.495 301.707 494.378 301.509C494.263 301.306 494.106 301.136 493.906 300.997C493.706 300.859 493.475 300.756 493.214 300.689C492.935 300.617 492.689 300.61 492.476 300.666C492.265 300.717 492.082 300.8 491.929 300.916C492.044 300.685 492.195 300.473 492.381 300.279C492.574 300.081 492.788 299.913 493.022 299.775C493.261 299.639 493.52 299.535 493.799 299.464C494.077 299.393 494.368 299.372 494.67 299.401L494.649 298.438C494.212 298.4 493.778 298.44 493.345 298.557C492.919 298.671 492.519 298.865 492.144 299.14C491.777 299.411 491.449 299.758 491.161 300.179C490.879 300.602 490.664 301.101 490.515 301.676C490.417 302.06 490.382 302.41 490.412 302.728C490.442 303.045 490.525 303.324 490.661 303.563C490.798 303.803 490.978 304.004 491.203 304.167C491.435 304.326 491.701 304.445 492.004 304.522C492.3 304.599 492.584 304.616 492.855 304.574C493.131 304.534 493.38 304.446 493.601 304.311C493.821 304.176 494.01 303.998 494.166 303.778ZM496.957 304.646L495.745 304.334L495.498 305.292L498.976 306.188L499.223 305.229L498.038 304.924L499.389 299.677L498.753 299.513L496.352 300.605L496.663 301.382L497.576 301.05L498.127 300.644L497.843 301.203L496.957 304.646ZM501.551 301.507C501.4 301.735 501.286 301.996 501.209 302.293C501.127 302.612 501.108 302.905 501.151 303.17C501.201 303.431 501.291 303.661 501.419 303.862C501.554 304.058 501.72 304.221 501.915 304.352C502.117 304.484 502.328 304.579 502.548 304.636C502.816 304.705 503.035 304.73 503.207 304.712C503.385 304.696 503.563 304.631 503.741 304.515C503.63 304.753 503.488 304.968 503.315 305.158C503.15 305.345 502.954 305.502 502.729 305.63C502.506 305.752 502.254 305.839 501.974 305.891C501.694 305.943 501.389 305.948 501.059 305.907L501.075 306.858C501.502 306.931 501.927 306.929 502.349 306.852C502.772 306.775 503.167 306.611 503.536 306.358C503.912 306.102 504.247 305.752 504.541 305.307C504.843 304.858 505.08 304.296 505.254 303.622C505.447 302.873 505.404 302.255 505.127 301.768C504.857 301.277 504.394 300.947 503.737 300.778C503.417 300.696 503.119 300.675 502.842 300.715C502.573 300.751 502.328 300.837 502.107 300.972C501.894 301.103 501.708 301.281 501.551 301.507Z" fill="#59BB49"/>
</svg>
