<svg width="920" height="755" viewBox="0 0 920 755" fill="none" xmlns="http://www.w3.org/2000/svg">
<path d="M489.697 314.578C490.336 314.743 490.572 315.151 490.404 315.801C490.329 316.092 490.181 316.308 489.959 316.449C489.742 316.591 489.497 316.627 489.224 316.557C489.056 316.514 488.919 316.444 488.813 316.349C488.709 316.248 488.63 316.134 488.576 316.009C488.528 315.879 488.502 315.742 488.496 315.598C488.491 315.448 488.506 315.303 488.542 315.164L488.578 315.024C488.59 314.978 488.61 314.924 488.638 314.863C488.738 314.74 488.88 314.647 489.064 314.582C489.253 314.52 489.464 314.518 489.697 314.578Z" fill="#59BB49"/>
<path d="M498.809 318.412C498.759 317.984 498.825 317.415 499.007 316.706C499.2 315.957 499.419 315.421 499.662 315.1C499.912 314.78 500.211 314.665 500.56 314.755C500.926 314.849 501.135 315.108 501.187 315.53C501.24 315.952 501.175 316.515 500.994 317.218C500.795 317.991 500.569 318.534 500.315 318.846C500.067 319.16 499.771 319.273 499.428 319.185C499.074 319.093 498.868 318.836 498.809 318.412Z" fill="#59BB49"/>
<path d="M486.5 306.5L507 312L503.5 324L483 318.5L486.5 306.5ZM491.166 316.778C491.327 316.559 491.445 316.308 491.518 316.023C491.596 315.721 491.621 315.442 491.594 315.188C491.566 314.933 491.495 314.707 491.378 314.509C491.263 314.306 491.106 314.136 490.906 313.997C490.706 313.859 490.475 313.756 490.214 313.689C489.935 313.617 489.689 313.61 489.476 313.666C489.265 313.717 489.082 313.8 488.929 313.916C489.044 313.685 489.195 313.473 489.381 313.279C489.574 313.081 489.788 312.913 490.022 312.775C490.261 312.639 490.52 312.535 490.799 312.464C491.077 312.393 491.368 312.372 491.67 312.401L491.649 311.438C491.212 311.4 490.778 311.44 490.345 311.557C489.919 311.671 489.519 311.865 489.144 312.14C488.777 312.411 488.449 312.758 488.161 313.179C487.879 313.602 487.664 314.101 487.515 314.676C487.417 315.06 487.382 315.41 487.412 315.728C487.442 316.045 487.525 316.324 487.661 316.563C487.798 316.803 487.978 317.004 488.203 317.167C488.435 317.326 488.701 317.445 489.004 317.522C489.3 317.599 489.584 317.616 489.855 317.574C490.131 317.534 490.38 317.446 490.601 317.311C490.821 317.176 491.01 316.998 491.166 316.778ZM496.549 315.376C496.737 315.103 496.869 314.818 496.945 314.521C497.014 314.254 497.031 314.01 496.994 313.79C496.96 313.564 496.884 313.365 496.767 313.193C496.65 313.02 496.497 312.872 496.305 312.749C496.114 312.625 495.894 312.531 495.644 312.467C495.254 312.366 494.9 312.337 494.579 312.378C494.266 312.415 493.972 312.498 493.698 312.625L493.944 313.544C494.109 313.456 494.298 313.399 494.509 313.373C494.727 313.343 494.929 313.351 495.115 313.399C495.412 313.476 495.607 313.609 495.7 313.801C495.8 313.988 495.82 314.2 495.759 314.439C495.708 314.636 495.613 314.835 495.475 315.035C495.343 315.236 495.179 315.439 494.984 315.642C494.79 315.84 494.579 316.034 494.351 316.223C494.123 316.412 493.89 316.594 493.653 316.768C493.423 316.938 493.196 317.1 492.971 317.252C492.747 317.399 492.547 317.527 492.37 317.637L492.22 318.22L495.889 319.165L496.136 318.207L494.462 317.776L493.803 317.736L493.815 317.693L494.369 317.454C494.619 317.277 494.877 317.08 495.143 316.864C495.417 316.643 495.673 316.408 495.91 316.16C496.153 315.913 496.366 315.651 496.549 315.376ZM499.036 314.177C498.537 314.599 498.149 315.345 497.874 316.415C497.611 317.437 497.579 318.269 497.78 318.909C497.982 319.543 498.446 319.954 499.173 320.141C499.858 320.318 500.452 320.192 500.952 319.763C501.459 319.336 501.85 318.585 502.127 317.51C502.406 316.429 502.439 315.589 502.228 314.989C502.018 314.384 501.548 313.987 500.815 313.798C500.13 313.622 499.537 313.748 499.036 314.177Z" fill="#59BB49"/>
</svg>
