<svg width="920" height="755" viewBox="0 0 920 755" fill="none" xmlns="http://www.w3.org/2000/svg">
<path d="M486.697 327.578C487.336 327.743 487.572 328.151 487.404 328.801C487.329 329.092 487.181 329.308 486.959 329.449C486.742 329.591 486.497 329.627 486.224 329.557C486.056 329.514 485.919 329.444 485.813 329.349C485.709 329.248 485.63 329.134 485.576 329.009C485.528 328.879 485.502 328.742 485.496 328.598C485.491 328.448 485.506 328.303 485.542 328.164L485.578 328.024C485.59 327.978 485.61 327.924 485.638 327.863C485.738 327.74 485.88 327.647 486.064 327.582C486.253 327.52 486.464 327.518 486.697 327.578Z" fill="#59BB49"/>
<path d="M483 319L503.5 324.5L500.5 337L479.5 331.5L483 319ZM488.166 329.778C488.327 329.559 488.445 329.308 488.518 329.023C488.596 328.721 488.621 328.442 488.594 328.188C488.566 327.933 488.495 327.707 488.378 327.509C488.263 327.306 488.106 327.136 487.906 326.997C487.706 326.859 487.475 326.756 487.214 326.689C486.935 326.617 486.689 326.61 486.476 326.666C486.265 326.717 486.082 326.8 485.929 326.916C486.044 326.685 486.195 326.473 486.381 326.279C486.574 326.081 486.788 325.913 487.022 325.775C487.261 325.639 487.52 325.535 487.799 325.464C488.077 325.393 488.368 325.372 488.67 325.401L488.649 324.438C488.212 324.4 487.778 324.44 487.345 324.557C486.919 324.671 486.519 324.865 486.144 325.14C485.777 325.411 485.449 325.758 485.161 326.179C484.879 326.602 484.664 327.101 484.515 327.676C484.417 328.06 484.382 328.41 484.412 328.728C484.442 329.045 484.525 329.324 484.661 329.563C484.798 329.803 484.978 330.004 485.203 330.167C485.435 330.326 485.701 330.445 486.004 330.522C486.3 330.599 486.584 330.616 486.855 330.574C487.131 330.534 487.38 330.446 487.601 330.311C487.821 330.176 488.01 329.998 488.166 329.778ZM493.549 328.376C493.737 328.103 493.869 327.818 493.945 327.521C494.014 327.254 494.031 327.01 493.994 326.79C493.96 326.564 493.884 326.365 493.767 326.193C493.65 326.02 493.497 325.872 493.305 325.749C493.114 325.625 492.894 325.531 492.644 325.467C492.254 325.366 491.9 325.337 491.579 325.378C491.266 325.415 490.972 325.498 490.698 325.625L490.944 326.544C491.109 326.456 491.298 326.399 491.509 326.373C491.727 326.343 491.929 326.351 492.115 326.399C492.412 326.476 492.607 326.609 492.7 326.801C492.8 326.988 492.82 327.2 492.759 327.439C492.708 327.636 492.613 327.835 492.475 328.035C492.343 328.236 492.179 328.439 491.984 328.642C491.79 328.84 491.579 329.034 491.351 329.223C491.123 329.412 490.89 329.594 490.653 329.768C490.423 329.938 490.196 330.1 489.971 330.252C489.747 330.399 489.547 330.527 489.37 330.637L489.22 331.22L492.889 332.165L493.136 331.207L491.462 330.776L490.803 330.736L490.815 330.693L491.369 330.454C491.619 330.277 491.877 330.08 492.143 329.864C492.417 329.643 492.673 329.408 492.91 329.16C493.153 328.913 493.366 328.651 493.549 328.376ZM496.076 331.964L494.865 331.652L494.618 332.611L498.095 333.506L498.342 332.548L497.157 332.242L498.508 326.995L497.872 326.832L495.472 327.924L495.783 328.701L496.695 328.369L497.246 327.962L496.963 328.521L496.076 331.964Z" fill="#59BB49"/>
</svg>
