<svg width="920" height="755" viewBox="0 0 920 755" fill="none" xmlns="http://www.w3.org/2000/svg">
<path d="M481.837 341.617C482.47 341.803 482.691 342.219 482.501 342.863C482.416 343.151 482.261 343.362 482.034 343.495C481.812 343.63 481.567 343.657 481.296 343.578C481.129 343.529 480.995 343.454 480.892 343.355C480.792 343.251 480.717 343.135 480.667 343.007C480.624 342.876 480.602 342.738 480.601 342.594C480.601 342.444 480.622 342.3 480.663 342.162L480.703 342.024C480.717 341.978 480.739 341.925 480.769 341.865C480.873 341.745 481.018 341.657 481.204 341.599C481.396 341.543 481.607 341.549 481.837 341.617Z" fill="#59BB49"/>
<path d="M479.5 332L500 337.5L495 353.5L475 346L479.5 332ZM483.229 343.866C483.398 343.653 483.524 343.406 483.607 343.124C483.695 342.824 483.73 342.547 483.712 342.291C483.693 342.036 483.629 341.807 483.519 341.606C483.412 341.399 483.26 341.223 483.065 341.078C482.87 340.933 482.643 340.822 482.384 340.746C482.108 340.664 481.863 340.648 481.648 340.698C481.435 340.741 481.25 340.818 481.092 340.928C481.215 340.701 481.373 340.495 481.566 340.308C481.766 340.116 481.985 339.956 482.224 339.826C482.468 339.698 482.731 339.603 483.011 339.542C483.292 339.481 483.583 339.47 483.884 339.509L483.896 338.546C483.462 338.492 483.026 338.517 482.589 338.62C482.159 338.719 481.753 338.899 481.369 339.161C480.993 339.419 480.653 339.754 480.351 340.165C480.054 340.578 479.821 341.069 479.653 341.639C479.541 342.019 479.495 342.368 479.513 342.686C479.532 343.005 479.606 343.286 479.734 343.53C479.862 343.774 480.035 343.982 480.254 344.152C480.48 344.319 480.743 344.447 481.042 344.535C481.336 344.621 481.618 344.649 481.891 344.616C482.169 344.586 482.42 344.507 482.646 344.379C482.871 344.252 483.065 344.08 483.229 343.866ZM488.657 342.651C488.855 342.384 488.997 342.104 489.083 341.811C489.161 341.546 489.186 341.303 489.157 341.082C489.13 340.855 489.062 340.653 488.951 340.477C488.84 340.3 488.692 340.147 488.505 340.017C488.318 339.887 488.101 339.785 487.853 339.712C487.468 339.599 487.114 339.557 486.792 339.587C486.478 339.613 486.182 339.685 485.903 339.803L486.118 340.73C486.286 340.648 486.476 340.598 486.688 340.579C486.907 340.556 487.109 340.572 487.293 340.626C487.587 340.713 487.777 340.853 487.863 341.047C487.957 341.238 487.969 341.451 487.9 341.687C487.842 341.883 487.741 342.078 487.596 342.273C487.456 342.47 487.286 342.666 487.084 342.863C486.884 343.054 486.666 343.24 486.431 343.421C486.197 343.602 485.958 343.776 485.715 343.942C485.479 344.104 485.247 344.258 485.016 344.402C484.788 344.541 484.583 344.662 484.402 344.766L484.232 345.344L487.866 346.415L488.146 345.466L486.489 344.977L485.832 344.915L485.844 344.872L486.406 344.653C486.662 344.484 486.927 344.296 487.201 344.089C487.482 343.878 487.746 343.653 487.992 343.412C488.243 343.174 488.465 342.92 488.657 342.651ZM493.728 344.146C493.925 343.879 494.067 343.599 494.154 343.306C494.232 343.041 494.257 342.798 494.228 342.577C494.201 342.35 494.132 342.148 494.022 341.972C493.911 341.795 493.762 341.642 493.575 341.512C493.389 341.382 493.171 341.28 492.924 341.207C492.538 341.093 492.185 341.052 491.863 341.082C491.549 341.108 491.252 341.18 490.974 341.298L491.188 342.225C491.356 342.143 491.546 342.093 491.758 342.074C491.978 342.051 492.18 342.067 492.364 342.121C492.657 342.208 492.847 342.348 492.934 342.542C493.028 342.733 493.04 342.946 492.97 343.182C492.913 343.378 492.811 343.573 492.666 343.768C492.527 343.964 492.356 344.161 492.155 344.358C491.954 344.549 491.737 344.735 491.502 344.916C491.267 345.097 491.028 345.271 490.786 345.437C490.55 345.599 490.317 345.753 490.087 345.897C489.858 346.036 489.654 346.157 489.473 346.261L489.303 346.839L492.937 347.91L493.217 346.961L491.559 346.472L490.902 346.41L490.915 346.367L491.477 346.148C491.733 345.979 491.998 345.791 492.272 345.584C492.553 345.373 492.816 345.148 493.062 344.907C493.314 344.669 493.536 344.415 493.728 344.146Z" fill="#59BB49"/>
</svg>
