<svg width="920" height="755" viewBox="0 0 920 755" fill="none" xmlns="http://www.w3.org/2000/svg">
<path d="M476.998 354.653C477.622 354.866 477.827 355.29 477.61 355.927C477.513 356.211 477.349 356.415 477.117 356.538C476.89 356.664 476.643 356.681 476.376 356.591C476.212 356.535 476.08 356.455 475.982 356.352C475.886 356.243 475.816 356.124 475.771 355.995C475.734 355.862 475.718 355.723 475.722 355.579C475.729 355.429 475.756 355.286 475.802 355.15L475.848 355.013C475.864 354.968 475.888 354.916 475.921 354.857C476.029 354.742 476.178 354.66 476.366 354.61C476.56 354.562 476.77 354.576 476.998 354.653Z" fill="#59BB49"/>
<path d="M475 346.5L495 354L490.5 365.5L470 358.5L475 346.5ZM478.295 356.958C478.473 356.753 478.609 356.511 478.704 356.232C478.804 355.937 478.851 355.661 478.843 355.405C478.835 355.149 478.78 354.918 478.679 354.712C478.58 354.501 478.436 354.319 478.247 354.166C478.058 354.013 477.836 353.893 477.581 353.806C477.308 353.713 477.063 353.687 476.847 353.727C476.632 353.762 476.444 353.831 476.282 353.935C476.414 353.713 476.581 353.513 476.781 353.334C476.989 353.152 477.215 353 477.458 352.88C477.708 352.762 477.974 352.679 478.257 352.629C478.54 352.58 478.831 352.581 479.131 352.632L479.182 351.67C478.75 351.599 478.314 351.606 477.873 351.69C477.44 351.771 477.026 351.935 476.632 352.181C476.245 352.423 475.892 352.743 475.573 353.142C475.259 353.542 475.006 354.023 474.815 354.586C474.688 354.961 474.627 355.307 474.632 355.626C474.638 355.945 474.7 356.229 474.817 356.478C474.935 356.728 475.1 356.942 475.312 357.122C475.531 357.298 475.788 357.436 476.083 357.537C476.373 357.635 476.654 357.674 476.928 357.653C477.207 357.634 477.461 357.565 477.692 357.447C477.922 357.329 478.123 357.166 478.295 356.958ZM483.769 355.969C483.978 355.71 484.131 355.436 484.23 355.146C484.319 354.885 484.353 354.643 484.334 354.421C484.316 354.194 484.256 353.989 484.153 353.808C484.049 353.627 483.907 353.468 483.726 353.33C483.545 353.193 483.332 353.082 483.088 352.999C482.707 352.87 482.355 352.813 482.033 352.83C481.718 352.843 481.419 352.903 481.135 353.01L481.311 353.944C481.483 353.869 481.675 353.827 481.887 353.817C482.107 353.803 482.308 353.827 482.49 353.889C482.78 353.988 482.964 354.136 483.042 354.334C483.128 354.528 483.132 354.741 483.053 354.974C482.987 355.167 482.877 355.358 482.725 355.547C482.577 355.738 482.399 355.927 482.189 356.116C481.981 356.298 481.756 356.475 481.514 356.646C481.272 356.818 481.026 356.981 480.776 357.137C480.534 357.289 480.295 357.433 480.059 357.568C479.825 357.698 479.616 357.81 479.431 357.906L479.237 358.477L482.824 359.697L483.143 358.76L481.507 358.203L480.853 358.114L480.867 358.071L481.438 357.876C481.701 357.718 481.973 357.541 482.255 357.346C482.545 357.146 482.817 356.932 483.073 356.702C483.334 356.474 483.566 356.23 483.769 355.969ZM486.882 359.852C486.636 359.977 486.337 359.98 485.985 359.86C485.764 359.785 485.57 359.694 485.404 359.586C485.243 359.481 485.101 359.366 484.979 359.242L484.367 360.061C484.503 360.202 484.697 360.341 484.948 360.477C485.2 360.613 485.451 360.724 485.7 360.809C486.001 360.912 486.296 360.967 486.585 360.977C486.873 360.986 487.142 360.941 487.391 360.842C487.646 360.745 487.869 360.593 488.06 360.386C488.256 360.18 488.412 359.91 488.526 359.574C488.617 359.307 488.657 359.058 488.647 358.827C488.637 358.595 488.587 358.388 488.497 358.205C488.415 358.019 488.296 357.858 488.139 357.722C487.988 357.588 487.816 357.479 487.623 357.394L487.248 357.324L487.262 357.281L487.715 357.179L489.465 355.977L489.671 355.372L486.416 354.265L486.097 355.202L487.528 355.689L488.227 355.841L487.611 356.059L486.102 357.115L485.902 357.702L486.515 357.911C486.93 358.052 487.208 358.232 487.349 358.451C487.49 358.671 487.505 358.942 487.395 359.266C487.304 359.533 487.133 359.728 486.882 359.852Z" fill="#59BB49"/>
</svg>
