<svg width="920" height="755" viewBox="0 0 920 755" fill="none" xmlns="http://www.w3.org/2000/svg">
<path d="M472.998 366.653C473.622 366.866 473.827 367.29 473.61 367.927C473.513 368.211 473.349 368.415 473.117 368.538C472.89 368.664 472.643 368.681 472.376 368.591C472.212 368.535 472.08 368.455 471.982 368.352C471.886 368.243 471.816 368.124 471.771 367.995C471.734 367.862 471.718 367.723 471.722 367.579C471.729 367.429 471.756 367.286 471.802 367.15L471.848 367.013C471.864 366.968 471.888 366.916 471.921 366.857C472.029 366.742 472.178 366.66 472.366 366.61C472.56 366.562 472.77 366.576 472.998 366.653Z" fill="#59BB49"/>
<path d="M484.028 368.372L483.708 369.062L483.264 370.366L482.25 370.021L481.682 369.903L482.218 369.724L483.495 368.876L483.994 368.361L484.028 368.372Z" fill="#59BB49"/>
<path d="M470 359L490 366L485.5 378L465.5 370.5L470 359ZM474.295 368.958C474.473 368.753 474.609 368.511 474.704 368.232C474.804 367.937 474.851 367.661 474.843 367.405C474.835 367.149 474.78 366.918 474.679 366.712C474.58 366.501 474.436 366.319 474.247 366.166C474.058 366.013 473.836 365.893 473.581 365.806C473.308 365.713 473.063 365.687 472.847 365.727C472.632 365.762 472.444 365.831 472.282 365.935C472.414 365.713 472.581 365.513 472.781 365.334C472.989 365.152 473.215 365 473.458 364.88C473.708 364.762 473.974 364.679 474.257 364.629C474.54 364.58 474.831 364.581 475.131 364.632L475.182 363.67C474.75 363.599 474.314 363.606 473.873 363.69C473.44 363.771 473.026 363.935 472.632 364.181C472.245 364.423 471.892 364.743 471.573 365.142C471.259 365.542 471.006 366.023 470.815 366.586C470.688 366.961 470.627 367.307 470.632 367.626C470.638 367.945 470.7 368.229 470.817 368.478C470.935 368.728 471.1 368.942 471.312 369.122C471.531 369.298 471.788 369.436 472.083 369.537C472.373 369.635 472.654 369.674 472.928 369.653C473.207 369.634 473.461 369.565 473.692 369.447C473.922 369.329 474.123 369.166 474.295 368.958ZM479.769 367.969C479.978 367.71 480.131 367.436 480.23 367.146C480.319 366.885 480.353 366.643 480.334 366.421C480.316 366.194 480.256 365.989 480.153 365.808C480.049 365.627 479.907 365.468 479.726 365.33C479.545 365.193 479.332 365.082 479.088 364.999C478.707 364.87 478.355 364.813 478.033 364.83C477.718 364.843 477.419 364.903 477.135 365.01L477.311 365.944C477.483 365.869 477.675 365.827 477.887 365.817C478.107 365.803 478.308 365.827 478.49 365.889C478.78 365.988 478.964 366.136 479.042 366.334C479.128 366.528 479.132 366.741 479.053 366.974C478.987 367.167 478.877 367.358 478.725 367.547C478.577 367.738 478.399 367.927 478.189 368.116C477.981 368.298 477.756 368.475 477.514 368.646C477.272 368.818 477.026 368.981 476.776 369.137C476.534 369.289 476.295 369.433 476.059 369.568C475.825 369.698 475.616 369.81 475.431 369.906L475.237 370.477L478.824 371.697L479.143 370.76L477.507 370.203L476.853 370.114L476.867 370.071L477.438 369.876C477.701 369.718 477.973 369.541 478.255 369.346C478.545 369.146 478.817 368.932 479.073 368.702C479.334 368.474 479.566 368.23 479.769 367.969ZM483.993 371.602L484.931 371.921L485.232 371.035L484.295 370.716L485.472 367.257L484.56 366.947L480.595 369.743L480.381 370.373L482.962 371.252L482.397 372.913L483.428 373.264L483.993 371.602Z" fill="#59BB49"/>
</svg>
