<svg width="920" height="755" viewBox="0 0 920 755" fill="none" xmlns="http://www.w3.org/2000/svg">
<path d="M467.998 378.653C468.622 378.866 468.827 379.29 468.61 379.927C468.513 380.211 468.349 380.415 468.117 380.538C467.89 380.664 467.643 380.681 467.376 380.591C467.212 380.535 467.08 380.455 466.982 380.352C466.886 380.243 466.816 380.124 466.771 379.995C466.734 379.862 466.718 379.723 466.722 379.579C466.729 379.429 466.756 379.286 466.802 379.15L466.848 379.013C466.864 378.968 466.888 378.916 466.921 378.857C467.029 378.742 467.178 378.66 467.366 378.61C467.56 378.562 467.77 378.576 467.998 378.653Z" fill="#59BB49"/>
<path d="M465.5 371L485 378.5L481 390.5L461 383L465.5 371ZM469.295 380.958C469.473 380.753 469.609 380.511 469.704 380.232C469.804 379.937 469.851 379.661 469.843 379.405C469.835 379.149 469.78 378.918 469.679 378.712C469.58 378.501 469.436 378.319 469.247 378.166C469.058 378.013 468.836 377.893 468.581 377.806C468.308 377.713 468.063 377.687 467.847 377.727C467.632 377.762 467.444 377.831 467.282 377.935C467.414 377.713 467.581 377.513 467.781 377.334C467.989 377.152 468.215 377 468.458 376.88C468.708 376.762 468.974 376.679 469.257 376.629C469.54 376.58 469.831 376.581 470.131 376.632L470.182 375.67C469.75 375.599 469.314 375.606 468.873 375.69C468.44 375.771 468.026 375.935 467.632 376.181C467.245 376.423 466.892 376.743 466.573 377.142C466.259 377.542 466.006 378.023 465.815 378.586C465.688 378.961 465.627 379.307 465.632 379.626C465.638 379.945 465.7 380.229 465.817 380.478C465.935 380.728 466.1 380.942 466.312 381.122C466.531 381.298 466.788 381.436 467.083 381.537C467.373 381.635 467.654 381.674 467.928 381.653C468.207 381.634 468.461 381.565 468.692 381.447C468.922 381.329 469.123 381.166 469.295 380.958ZM474.769 379.969C474.978 379.71 475.131 379.436 475.23 379.146C475.319 378.885 475.353 378.643 475.334 378.421C475.316 378.194 475.256 377.989 475.153 377.808C475.049 377.627 474.907 377.468 474.726 377.33C474.545 377.193 474.332 377.082 474.088 376.999C473.707 376.87 473.355 376.813 473.033 376.83C472.718 376.843 472.419 376.903 472.135 377.01L472.311 377.944C472.483 377.869 472.675 377.827 472.887 377.817C473.107 377.803 473.308 377.827 473.49 377.889C473.78 377.988 473.964 378.136 474.042 378.334C474.128 378.528 474.132 378.741 474.053 378.974C473.987 379.167 473.877 379.358 473.725 379.547C473.577 379.738 473.399 379.927 473.189 380.116C472.981 380.298 472.756 380.475 472.514 380.646C472.272 380.818 472.026 380.981 471.776 381.137C471.534 381.289 471.295 381.433 471.059 381.568C470.825 381.698 470.616 381.81 470.431 381.906L470.237 382.477L473.824 383.697L474.143 382.76L472.507 382.203L471.853 382.114L471.867 382.071L472.438 381.876C472.701 381.718 472.973 381.541 473.255 381.346C473.545 381.146 473.817 380.932 474.073 380.702C474.334 380.474 474.566 380.23 474.769 379.969ZM477.774 383.777C477.514 383.891 477.196 383.884 476.821 383.757C476.599 383.681 476.414 383.602 476.264 383.52C476.123 383.434 475.996 383.34 475.885 383.239L475.274 384.057C475.407 384.185 475.581 384.308 475.795 384.425C476.012 384.55 476.249 384.655 476.504 384.742C476.828 384.853 477.141 384.911 477.443 384.919C477.744 384.927 478.023 384.879 478.28 384.776C478.543 384.675 478.774 384.517 478.975 384.3C479.175 384.083 479.333 383.807 479.447 383.472C479.543 383.187 479.588 382.917 479.58 382.661C479.574 382.399 479.518 382.162 479.414 381.949C479.311 381.73 479.161 381.536 478.965 381.368C478.774 381.202 478.542 381.066 478.267 380.96L477.906 380.875L478.298 379.725L480.274 380.397L480.628 379.358L477.697 378.36L476.636 381.479L477.318 381.682C477.749 381.829 478.055 382.022 478.233 382.26C478.412 382.498 478.443 382.788 478.328 383.129C478.219 383.447 478.035 383.663 477.774 383.777Z" fill="#59BB49"/>
</svg>
