<svg width="920" height="755" viewBox="0 0 920 755" fill="none" xmlns="http://www.w3.org/2000/svg">
<path d="M462.998 391.653C463.622 391.866 463.827 392.29 463.61 392.927C463.513 393.211 463.349 393.415 463.117 393.538C462.89 393.664 462.643 393.681 462.376 393.591C462.212 393.535 462.08 393.455 461.982 393.352C461.886 393.243 461.816 393.124 461.771 392.995C461.734 392.862 461.718 392.723 461.722 392.579C461.729 392.429 461.756 392.286 461.802 392.15L461.848 392.013C461.864 391.968 461.888 391.916 461.921 391.857C462.029 391.742 462.178 391.66 462.366 391.61C462.56 391.562 462.77 391.576 462.998 391.653Z" fill="#59BB49"/>
<path d="M473.007 395.059C473.632 395.272 473.836 395.696 473.619 396.333C473.523 396.617 473.358 396.82 473.126 396.944C472.899 397.07 472.653 397.087 472.386 396.997C472.221 396.941 472.09 396.861 471.992 396.758C471.896 396.649 471.825 396.53 471.78 396.401C471.743 396.268 471.727 396.129 471.732 395.985C471.738 395.835 471.765 395.692 471.811 395.556L471.858 395.419C471.873 395.374 471.897 395.322 471.93 395.263C472.039 395.148 472.187 395.066 472.375 395.016C472.569 394.967 472.78 394.982 473.007 395.059Z" fill="#59BB49"/>
<path d="M461 383.5L480.5 391L476.5 403L456.5 395.5L461 383.5ZM464.295 393.958C464.473 393.753 464.609 393.511 464.704 393.232C464.804 392.937 464.851 392.661 464.843 392.405C464.835 392.149 464.78 391.918 464.679 391.712C464.58 391.501 464.436 391.319 464.247 391.166C464.058 391.013 463.836 390.893 463.581 390.806C463.308 390.713 463.063 390.687 462.847 390.727C462.632 390.762 462.444 390.831 462.282 390.935C462.414 390.713 462.581 390.513 462.781 390.334C462.989 390.152 463.215 390 463.458 389.88C463.708 389.762 463.974 389.679 464.257 389.629C464.54 389.58 464.831 389.581 465.131 389.632L465.182 388.67C464.75 388.599 464.314 388.606 463.873 388.69C463.44 388.771 463.026 388.935 462.632 389.181C462.245 389.423 461.892 389.743 461.573 390.142C461.259 390.542 461.006 391.023 460.815 391.586C460.688 391.961 460.627 392.307 460.632 392.626C460.638 392.945 460.7 393.229 460.817 393.478C460.935 393.728 461.1 393.942 461.312 394.122C461.531 394.298 461.788 394.436 462.083 394.537C462.373 394.635 462.654 394.674 462.928 394.653C463.207 394.634 463.461 394.565 463.692 394.447C463.922 394.329 464.123 394.166 464.295 393.958ZM469.769 392.969C469.978 392.71 470.131 392.436 470.23 392.146C470.319 391.885 470.353 391.643 470.334 391.421C470.316 391.194 470.256 390.989 470.153 390.808C470.049 390.627 469.907 390.468 469.726 390.33C469.545 390.193 469.332 390.082 469.088 389.999C468.707 389.87 468.355 389.813 468.033 389.83C467.718 389.843 467.419 389.903 467.135 390.01L467.311 390.944C467.483 390.869 467.675 390.827 467.887 390.817C468.107 390.803 468.308 390.827 468.49 390.889C468.78 390.988 468.964 391.136 469.042 391.334C469.128 391.528 469.132 391.741 469.053 391.974C468.987 392.167 468.877 392.358 468.725 392.547C468.577 392.738 468.399 392.927 468.189 393.116C467.981 393.298 467.756 393.475 467.514 393.646C467.272 393.818 467.026 393.981 466.776 394.137C466.534 394.289 466.295 394.433 466.059 394.568C465.825 394.698 465.616 394.81 465.431 394.906L465.237 395.477L468.824 396.697L469.143 395.76L467.507 395.203L466.853 395.114L466.867 395.071L467.438 394.876C467.701 394.718 467.973 394.541 468.255 394.346C468.545 394.146 468.817 393.932 469.073 393.702C469.334 393.474 469.566 393.23 469.769 392.969ZM474.305 397.364C474.482 397.159 474.619 396.917 474.713 396.638C474.814 396.343 474.86 396.067 474.852 395.811C474.844 395.555 474.79 395.324 474.689 395.118C474.589 394.907 474.445 394.725 474.257 394.572C474.068 394.419 473.846 394.299 473.59 394.212C473.317 394.119 473.073 394.093 472.856 394.133C472.641 394.168 472.453 394.237 472.291 394.341C472.424 394.119 472.59 393.919 472.79 393.74C472.998 393.558 473.224 393.406 473.468 393.286C473.717 393.168 473.983 393.085 474.266 393.035C474.549 392.986 474.84 392.987 475.14 393.038L475.191 392.076C474.759 392.005 474.323 392.012 473.882 392.096C473.449 392.177 473.035 392.341 472.641 392.587C472.254 392.829 471.901 393.149 471.582 393.548C471.268 393.948 471.016 394.429 470.824 394.992C470.697 395.367 470.636 395.713 470.641 396.032C470.647 396.351 470.709 396.635 470.827 396.884C470.945 397.134 471.109 397.348 471.321 397.528C471.54 397.704 471.797 397.842 472.092 397.942C472.382 398.041 472.664 398.08 472.937 398.059C473.216 398.04 473.471 397.971 473.701 397.853C473.931 397.735 474.132 397.572 474.305 397.364Z" fill="#59BB49"/>
</svg>
