<svg width="920" height="755" viewBox="0 0 920 755" fill="none" xmlns="http://www.w3.org/2000/svg">
<path d="M457.998 406.653C458.622 406.866 458.827 407.29 458.61 407.927C458.513 408.211 458.349 408.415 458.117 408.538C457.89 408.664 457.643 408.681 457.376 408.591C457.212 408.535 457.08 408.455 456.982 408.352C456.886 408.243 456.816 408.124 456.771 407.995C456.734 407.862 456.718 407.723 456.722 407.579C456.729 407.429 456.756 407.286 456.802 407.15L456.848 407.013C456.864 406.968 456.888 406.916 456.921 406.857C457.029 406.742 457.178 406.66 457.366 406.61C457.56 406.562 457.77 406.576 457.998 406.653Z" fill="#59BB49"/>
<path d="M456.5 396L476 403.5L469.5 421L450 413.5L456.5 396ZM459.295 408.958C459.473 408.753 459.609 408.511 459.704 408.232C459.804 407.937 459.851 407.661 459.843 407.405C459.835 407.149 459.78 406.918 459.679 406.712C459.58 406.501 459.436 406.319 459.247 406.166C459.058 406.013 458.836 405.893 458.581 405.806C458.308 405.713 458.063 405.687 457.847 405.727C457.632 405.762 457.444 405.831 457.282 405.935C457.414 405.713 457.581 405.513 457.781 405.334C457.989 405.152 458.215 405 458.458 404.88C458.708 404.762 458.974 404.679 459.257 404.629C459.54 404.58 459.831 404.581 460.131 404.632L460.182 403.67C459.75 403.599 459.314 403.606 458.873 403.69C458.44 403.771 458.026 403.935 457.632 404.181C457.245 404.423 456.892 404.743 456.573 405.142C456.259 405.542 456.006 406.023 455.815 406.586C455.688 406.961 455.627 407.307 455.632 407.626C455.638 407.945 455.7 408.229 455.817 408.478C455.935 408.728 456.1 408.942 456.312 409.122C456.531 409.298 456.788 409.436 457.083 409.537C457.373 409.635 457.654 409.674 457.928 409.653C458.207 409.634 458.461 409.565 458.692 409.447C458.922 409.329 459.123 409.166 459.295 408.958ZM464.769 407.969C464.978 407.71 465.131 407.436 465.23 407.146C465.319 406.885 465.353 406.643 465.334 406.421C465.316 406.194 465.256 405.989 465.153 405.808C465.049 405.627 464.907 405.468 464.726 405.33C464.545 405.193 464.332 405.082 464.088 404.999C463.707 404.87 463.355 404.813 463.033 404.83C462.718 404.843 462.419 404.903 462.135 405.01L462.311 405.944C462.483 405.869 462.675 405.827 462.887 405.817C463.107 405.803 463.308 405.827 463.49 405.889C463.78 405.988 463.964 406.136 464.042 406.334C464.128 406.528 464.132 406.741 464.053 406.974C463.987 407.167 463.877 407.358 463.725 407.547C463.577 407.738 463.399 407.927 463.189 408.116C462.981 408.298 462.756 408.475 462.514 408.646C462.272 408.818 462.026 408.981 461.776 409.137C461.534 409.289 461.295 409.433 461.059 409.568C460.825 409.698 460.616 409.81 460.431 409.906L460.237 410.477L463.824 411.697L464.143 410.76L462.507 410.203L461.853 410.114L461.867 410.071L462.438 409.876C462.701 409.718 462.973 409.541 463.255 409.346C463.545 409.146 463.817 408.932 464.073 408.702C464.334 408.474 464.566 408.23 464.769 407.969ZM469.054 408.353L465.54 412.281L466.622 412.649L470.927 407.821L471.037 407.497L467.194 406.189L466.841 407.229L469.03 407.974L469.57 408.063L469.054 408.353Z" fill="#59BB49"/>
</svg>
