<svg width="920" height="755" viewBox="0 0 920 755" fill="none" xmlns="http://www.w3.org/2000/svg">
<path d="M437.005 399.601C437.629 399.815 437.833 400.24 437.615 400.875C437.518 401.159 437.353 401.363 437.12 401.486C436.894 401.611 436.647 401.628 436.38 401.537C436.215 401.481 436.084 401.401 435.986 401.297C435.891 401.189 435.82 401.069 435.776 400.94C435.739 400.807 435.723 400.668 435.728 400.524C435.735 400.374 435.762 400.231 435.808 400.095L435.855 399.959C435.871 399.913 435.895 399.861 435.927 399.803C436.037 399.688 436.185 399.606 436.373 399.556C436.567 399.508 436.778 399.523 437.005 399.601Z" fill="#59BB49"/>
<path d="M447.477 404.1C447.503 404.229 447.493 404.359 447.448 404.49C447.363 404.74 447.219 404.9 447.017 404.97C446.821 405.043 446.596 405.035 446.34 404.948C446.062 404.852 445.871 404.698 445.766 404.485C445.669 404.268 445.66 404.045 445.737 403.818C445.798 403.642 445.906 403.483 446.063 403.34C446.227 403.193 446.469 403.089 446.788 403.027C446.89 403.138 446.988 403.251 447.082 403.365C447.181 403.482 447.264 403.602 447.329 403.726C447.402 403.846 447.452 403.971 447.477 404.1Z" fill="#59BB49"/>
<path d="M446.861 401.425C446.845 401.306 446.86 401.178 446.907 401.042C446.967 400.866 447.077 400.732 447.235 400.64C447.399 400.55 447.606 400.548 447.855 400.634C448.054 400.702 448.2 400.822 448.294 400.993C448.395 401.161 448.404 401.364 448.323 401.602C448.204 401.949 447.925 402.208 447.485 402.381C447.386 402.284 447.29 402.184 447.197 402.083C447.113 401.978 447.038 401.873 446.972 401.768C446.914 401.659 446.877 401.545 446.861 401.425Z" fill="#59BB49"/>
<path d="M435.5 389L456 396L449.5 413.5L428.5 406.5L435.5 389ZM438.298 401.908C438.476 401.703 438.613 401.461 438.708 401.183C438.809 400.888 438.856 400.612 438.849 400.356C438.841 400.1 438.787 399.869 438.687 399.663C438.588 399.452 438.444 399.269 438.256 399.116C438.067 398.963 437.845 398.842 437.59 398.755C437.317 398.661 437.073 398.635 436.856 398.675C436.641 398.709 436.453 398.778 436.291 398.881C436.423 398.66 436.59 398.46 436.791 398.281C436.999 398.099 437.225 397.948 437.469 397.829C437.719 397.711 437.985 397.628 438.268 397.579C438.551 397.53 438.842 397.532 439.142 397.583L439.195 396.622C438.763 396.55 438.327 396.556 437.886 396.64C437.453 396.72 437.039 396.882 436.644 397.128C436.257 397.369 435.903 397.689 435.583 398.087C435.268 398.486 435.015 398.967 434.823 399.529C434.694 399.904 434.633 400.25 434.638 400.569C434.643 400.888 434.704 401.172 434.821 401.422C434.939 401.671 435.103 401.886 435.314 402.066C435.533 402.243 435.79 402.381 436.085 402.482C436.374 402.581 436.656 402.621 436.929 402.6C437.208 402.582 437.463 402.513 437.694 402.396C437.924 402.278 438.126 402.116 438.298 401.908ZM443.774 400.93C443.983 400.671 444.137 400.397 444.236 400.108C444.326 399.847 444.361 399.605 444.342 399.383C444.325 399.155 444.265 398.951 444.162 398.77C444.059 398.589 443.917 398.429 443.736 398.291C443.555 398.153 443.342 398.042 443.098 397.958C442.718 397.828 442.366 397.771 442.044 397.788C441.729 397.8 441.429 397.859 441.146 397.965L441.32 398.9C441.492 398.826 441.684 398.784 441.896 398.774C442.116 398.761 442.317 398.785 442.499 398.847C442.788 398.946 442.972 399.095 443.05 399.293C443.136 399.487 443.139 399.701 443.059 399.933C442.993 400.126 442.883 400.317 442.73 400.505C442.582 400.696 442.403 400.885 442.193 401.073C441.985 401.256 441.76 401.432 441.517 401.603C441.275 401.773 441.029 401.936 440.779 402.092C440.537 402.244 440.297 402.387 440.061 402.522C439.827 402.651 439.617 402.763 439.432 402.858L439.237 403.428L442.821 404.656L443.142 403.719L441.507 403.159L440.853 403.069L440.868 403.026L441.439 402.832C441.702 402.674 441.975 402.498 442.257 402.303C442.547 402.104 442.82 401.89 443.076 401.661C443.338 401.434 443.571 401.19 443.774 400.93ZM444.926 403.16C444.822 403.296 444.737 403.463 444.669 403.662C444.587 403.9 444.556 404.13 444.575 404.353C444.599 404.577 444.668 404.784 444.78 404.975C444.898 405.167 445.058 405.339 445.26 405.491C445.465 405.65 445.71 405.778 445.994 405.875C446.278 405.973 446.552 406.022 446.818 406.024C447.086 406.021 447.33 405.975 447.551 405.885C447.772 405.796 447.962 405.665 448.123 405.492C448.292 405.315 448.419 405.098 448.507 404.843C448.635 404.468 448.652 404.132 448.558 403.833C448.469 403.536 448.289 403.23 448.016 402.915C448.372 402.821 448.663 402.683 448.89 402.501C449.123 402.321 449.297 402.063 449.412 401.728C449.486 401.512 449.51 401.302 449.485 401.097C449.468 400.888 449.404 400.695 449.294 400.517C449.189 400.342 449.043 400.184 448.856 400.044C448.67 399.904 448.449 399.79 448.193 399.703C447.915 399.608 447.652 399.562 447.403 399.566C447.154 399.569 446.926 399.615 446.719 399.702C446.517 399.792 446.34 399.918 446.189 400.082C446.044 400.248 445.933 400.442 445.857 400.663C445.741 401.004 445.722 401.317 445.801 401.605C445.882 401.886 446.032 402.162 446.25 402.434C446.073 402.468 445.902 402.514 445.736 402.572C445.576 402.631 445.426 402.71 445.285 402.807C445.151 402.901 445.032 403.019 444.926 403.16Z" fill="#59BB49"/>
</svg>
