<svg width="920" height="755" viewBox="0 0 920 755" fill="none" xmlns="http://www.w3.org/2000/svg">
<path d="M443.005 384.601C443.629 384.815 443.833 385.24 443.615 385.875C443.518 386.159 443.353 386.363 443.12 386.486C442.894 386.611 442.647 386.628 442.38 386.537C442.215 386.481 442.084 386.401 441.986 386.297C441.891 386.189 441.82 386.069 441.776 385.94C441.739 385.807 441.723 385.668 441.728 385.524C441.735 385.374 441.762 385.231 441.808 385.095L441.855 384.959C441.871 384.913 441.895 384.861 441.927 384.803C442.037 384.688 442.185 384.606 442.373 384.556C442.567 384.508 442.778 384.523 443.005 384.601Z" fill="#59BB49"/>
<path d="M452.551 387.109C452.426 386.882 452.419 386.607 452.529 386.283C452.638 385.965 452.8 385.745 453.013 385.621C453.229 385.492 453.475 385.475 453.753 385.57C453.929 385.631 454.067 385.719 454.167 385.836C454.274 385.948 454.347 386.078 454.386 386.224C454.43 386.373 454.446 386.53 454.433 386.697C454.42 386.864 454.387 387.027 454.332 387.186C454.295 387.294 454.248 387.404 454.19 387.518C454.074 387.598 453.929 387.65 453.756 387.674C453.583 387.697 453.381 387.669 453.148 387.589C452.875 387.496 452.676 387.336 452.551 387.109Z" fill="#59BB49"/>
<path d="M440.5 376.5L460.5 383.5L456 395.5L435.5 388.5L440.5 376.5ZM444.298 386.908C444.476 386.703 444.613 386.461 444.708 386.183C444.809 385.888 444.856 385.612 444.849 385.356C444.841 385.1 444.787 384.869 444.687 384.663C444.588 384.452 444.444 384.269 444.256 384.116C444.067 383.963 443.845 383.842 443.59 383.755C443.317 383.661 443.073 383.635 442.856 383.675C442.641 383.709 442.453 383.778 442.291 383.881C442.423 383.66 442.59 383.46 442.791 383.281C442.999 383.099 443.225 382.948 443.469 382.829C443.719 382.711 443.985 382.628 444.268 382.579C444.551 382.53 444.842 382.532 445.142 382.583L445.195 381.622C444.763 381.55 444.327 381.556 443.886 381.64C443.453 381.72 443.039 381.882 442.644 382.128C442.257 382.369 441.903 382.689 441.583 383.087C441.268 383.486 441.015 383.967 440.823 384.529C440.694 384.904 440.633 385.25 440.638 385.569C440.643 385.888 440.704 386.172 440.821 386.422C440.939 386.671 441.103 386.886 441.314 387.066C441.533 387.243 441.79 387.381 442.085 387.482C442.374 387.581 442.656 387.621 442.929 387.6C443.208 387.582 443.463 387.513 443.694 387.396C443.924 387.278 444.126 387.116 444.298 386.908ZM449.774 385.93C449.983 385.671 450.137 385.397 450.236 385.108C450.326 384.847 450.361 384.605 450.342 384.383C450.325 384.155 450.265 383.951 450.162 383.77C450.059 383.589 449.917 383.429 449.736 383.291C449.555 383.153 449.342 383.042 449.098 382.958C448.718 382.828 448.366 382.771 448.044 382.788C447.729 382.8 447.429 382.859 447.146 382.965L447.32 383.9C447.492 383.826 447.684 383.784 447.896 383.774C448.116 383.761 448.317 383.785 448.499 383.847C448.788 383.946 448.972 384.095 449.05 384.293C449.136 384.487 449.139 384.701 449.059 384.933C448.993 385.126 448.883 385.317 448.73 385.505C448.582 385.696 448.403 385.885 448.193 386.073C447.985 386.256 447.76 386.432 447.517 386.603C447.275 386.773 447.029 386.936 446.779 387.092C446.537 387.244 446.297 387.387 446.061 387.522C445.827 387.651 445.617 387.763 445.432 387.858L445.237 388.428L448.821 389.656L449.142 388.719L447.507 388.159L446.853 388.069L446.868 388.026L447.439 387.832C447.702 387.674 447.975 387.498 448.257 387.303C448.547 387.104 448.82 386.89 449.076 386.661C449.338 386.434 449.571 386.19 449.774 385.93ZM451.838 385.219C451.669 385.434 451.535 385.686 451.436 385.976C451.329 386.288 451.287 386.578 451.31 386.845C451.34 387.109 451.411 387.346 451.523 387.556C451.643 387.762 451.795 387.938 451.98 388.083C452.17 388.231 452.373 388.342 452.589 388.416C452.85 388.505 453.067 388.548 453.24 388.543C453.418 388.541 453.601 388.489 453.787 388.388C453.658 388.617 453.5 388.82 453.313 388.996C453.133 389.169 452.926 389.311 452.692 389.421C452.459 389.525 452.202 389.593 451.919 389.623C451.636 389.652 451.331 389.634 451.006 389.567L450.947 390.517C451.367 390.623 451.791 390.654 452.218 390.61C452.645 390.566 453.052 390.432 453.439 390.21C453.834 389.983 454.195 389.66 454.523 389.24C454.859 388.815 455.139 388.274 455.365 387.616C455.615 386.883 455.621 386.264 455.383 385.757C455.152 385.247 454.715 384.882 454.074 384.662C453.762 384.555 453.466 384.511 453.187 384.53C452.916 384.545 452.665 384.611 452.434 384.729C452.211 384.842 452.012 385.006 451.838 385.219Z" fill="#59BB49"/>
</svg>
