<svg width="920" height="755" viewBox="0 0 920 755" fill="none" xmlns="http://www.w3.org/2000/svg">
<path d="M448.005 371.601C448.629 371.815 448.833 372.24 448.615 372.875C448.518 373.159 448.353 373.363 448.12 373.486C447.894 373.611 447.647 373.628 447.38 373.537C447.215 373.481 447.084 373.401 446.986 373.297C446.891 373.189 446.82 373.069 446.776 372.94C446.739 372.807 446.723 372.668 446.728 372.524C446.735 372.374 446.762 372.231 446.808 372.095L446.855 371.959C446.871 371.913 446.895 371.861 446.927 371.803C447.037 371.688 447.185 371.606 447.373 371.556C447.567 371.508 447.778 371.523 448.005 371.601Z" fill="#59BB49"/>
<path d="M456.792 376.132C456.774 375.701 456.884 375.139 457.122 374.447C457.372 373.715 457.632 373.198 457.9 372.896C458.174 372.597 458.481 372.506 458.821 372.622C459.179 372.745 459.367 373.018 459.387 373.444C459.406 373.869 459.298 374.425 459.063 375.112C458.804 375.867 458.536 376.39 458.259 376.682C457.987 376.976 457.684 377.065 457.349 376.95C457.002 376.832 456.817 376.559 456.792 376.132Z" fill="#59BB49"/>
<path fill-rule="evenodd" clip-rule="evenodd" d="M445 363.5L465 371L460.5 383L440.5 376L445 363.5ZM449.298 373.908C449.476 373.703 449.613 373.461 449.708 373.183C449.809 372.888 449.856 372.612 449.849 372.356C449.841 372.1 449.787 371.869 449.687 371.663C449.588 371.452 449.444 371.269 449.256 371.116C449.067 370.963 448.845 370.842 448.59 370.755C448.317 370.661 448.073 370.635 447.856 370.675C447.641 370.709 447.453 370.778 447.291 370.881C447.423 370.66 447.59 370.46 447.791 370.281C447.999 370.099 448.225 369.948 448.469 369.829C448.719 369.711 448.985 369.628 449.268 369.579C449.551 369.53 449.842 369.532 450.142 369.583L450.195 368.622C449.763 368.55 449.327 368.556 448.886 368.64C448.453 368.72 448.039 368.882 447.644 369.128C447.257 369.369 446.903 369.689 446.583 370.087C446.268 370.486 446.015 370.967 445.823 371.529C445.694 371.904 445.633 372.25 445.638 372.569C445.643 372.888 445.704 373.172 445.821 373.422C445.939 373.671 446.103 373.886 446.314 374.066C446.533 374.243 446.79 374.381 447.085 374.482C447.374 374.581 447.656 374.621 447.929 374.6C448.208 374.582 448.463 374.513 448.694 374.396C448.924 374.278 449.126 374.116 449.298 373.908ZM452.878 375.106C452.632 375.231 452.333 375.233 451.981 375.113C451.76 375.037 451.566 374.945 451.4 374.837C451.24 374.732 451.098 374.617 450.976 374.492L450.363 375.31C450.498 375.451 450.692 375.591 450.943 375.727C451.194 375.864 451.445 375.975 451.695 376.061C451.995 376.164 452.29 376.22 452.578 376.23C452.867 376.24 453.135 376.196 453.385 376.097C453.64 376.001 453.863 375.849 454.055 375.642C454.252 375.437 454.408 375.166 454.522 374.832C454.614 374.565 454.655 374.316 454.645 374.084C454.636 373.852 454.586 373.645 454.496 373.462C454.414 373.276 454.295 373.114 454.139 372.978C453.988 372.844 453.816 372.735 453.624 372.65L453.249 372.578L453.263 372.536L453.716 372.434L455.468 371.236L455.675 370.632L452.423 369.518L452.102 370.454L453.532 370.944L454.231 371.098L453.615 371.315L452.103 372.367L451.902 372.954L452.515 373.164C452.929 373.306 453.207 373.487 453.347 373.706C453.488 373.926 453.503 374.197 453.392 374.521C453.301 374.787 453.129 374.982 452.878 375.106ZM457.347 371.927C456.816 372.31 456.372 373.023 456.015 374.068C455.673 375.067 455.577 375.893 455.727 376.547C455.879 377.196 456.31 377.641 457.019 377.884C457.689 378.114 458.29 378.034 458.823 377.646C459.361 377.259 459.81 376.541 460.17 375.491C460.531 374.435 460.63 373.6 460.466 372.986C460.304 372.366 459.866 371.933 459.151 371.688C458.481 371.459 457.88 371.539 457.347 371.927Z" fill="#59BB49"/>
</svg>
