<svg width="920" height="755" viewBox="0 0 920 755" fill="none" xmlns="http://www.w3.org/2000/svg">
<path d="M452.005 359.601C452.629 359.815 452.833 360.24 452.615 360.875C452.518 361.159 452.353 361.363 452.12 361.486C451.894 361.611 451.647 361.628 451.38 361.537C451.215 361.481 451.084 361.401 450.986 361.297C450.891 361.189 450.82 361.069 450.776 360.94C450.739 360.807 450.723 360.668 450.728 360.524C450.735 360.374 450.762 360.231 450.808 360.095L450.855 359.959C450.871 359.913 450.895 359.861 450.927 359.803C451.037 359.688 451.185 359.606 451.373 359.556C451.567 359.508 451.778 359.523 452.005 359.601Z" fill="#59BB49"/>
<path d="M449.5 351.5L469.5 359L465 370.5L445 363L449.5 351.5ZM453.298 361.908C453.476 361.703 453.613 361.461 453.708 361.183C453.809 360.888 453.856 360.612 453.849 360.356C453.841 360.1 453.787 359.869 453.687 359.663C453.588 359.452 453.444 359.269 453.256 359.116C453.067 358.963 452.845 358.842 452.59 358.755C452.317 358.661 452.073 358.635 451.856 358.675C451.641 358.709 451.453 358.778 451.291 358.881C451.423 358.66 451.59 358.46 451.791 358.281C451.999 358.099 452.225 357.948 452.469 357.829C452.719 357.711 452.985 357.628 453.268 357.579C453.551 357.53 453.842 357.532 454.142 357.583L454.195 356.622C453.763 356.55 453.327 356.556 452.886 356.64C452.453 356.72 452.039 356.882 451.644 357.128C451.257 357.369 450.903 357.689 450.583 358.087C450.268 358.486 450.015 358.967 449.823 359.529C449.694 359.904 449.633 360.25 449.638 360.569C449.643 360.888 449.704 361.172 449.821 361.422C449.939 361.671 450.103 361.886 450.314 362.066C450.533 362.243 450.79 362.381 451.085 362.482C451.374 362.581 451.656 362.621 451.929 362.6C452.208 362.582 452.463 362.513 452.694 362.396C452.924 362.278 453.126 362.116 453.298 361.908ZM456.878 363.106C456.632 363.231 456.333 363.233 455.981 363.113C455.76 363.037 455.566 362.945 455.4 362.837C455.24 362.732 455.098 362.617 454.976 362.492L454.363 363.31C454.498 363.451 454.692 363.591 454.943 363.727C455.194 363.864 455.445 363.975 455.695 364.061C455.995 364.164 456.29 364.22 456.578 364.23C456.867 364.24 457.135 364.196 457.385 364.097C457.64 364.001 457.863 363.849 458.055 363.642C458.252 363.437 458.408 363.166 458.522 362.832C458.614 362.565 458.655 362.316 458.645 362.084C458.636 361.852 458.586 361.645 458.496 361.462C458.414 361.276 458.295 361.114 458.139 360.978C457.988 360.844 457.816 360.735 457.624 360.65L457.249 360.578L457.263 360.536L457.716 360.434L459.468 359.236L459.675 358.632L456.423 357.518L456.102 358.454L457.532 358.944L458.231 359.098L457.615 359.315L456.103 360.367L455.902 360.954L456.515 361.164C456.929 361.306 457.207 361.487 457.347 361.706C457.488 361.926 457.503 362.197 457.392 362.521C457.301 362.787 457.129 362.982 456.878 363.106ZM461.015 364.703L459.831 364.298L459.511 365.234L462.908 366.398L463.229 365.461L462.071 365.065L463.826 359.939L463.204 359.726L460.727 360.628L460.976 361.427L461.912 361.167L462.493 360.804L462.167 361.34L461.015 364.703Z" fill="#59BB49"/>
</svg>
