<svg width="920" height="755" viewBox="0 0 920 755" fill="none" xmlns="http://www.w3.org/2000/svg">
<path d="M457.005 347.601C457.629 347.815 457.833 348.24 457.615 348.875C457.518 349.159 457.353 349.363 457.12 349.486C456.894 349.611 456.647 349.628 456.38 349.537C456.215 349.481 456.084 349.401 455.986 349.297C455.891 349.189 455.82 349.069 455.776 348.94C455.739 348.807 455.723 348.668 455.728 348.524C455.735 348.374 455.762 348.231 455.808 348.095L455.855 347.959C455.871 347.913 455.895 347.861 455.927 347.803C456.037 347.688 456.185 347.606 456.373 347.556C456.567 347.508 456.778 347.523 457.005 347.601Z" fill="#59BB49"/>
<path d="M454 339L474.5 346.5L469.5 358.5L449.5 351L454 339ZM458.298 349.908C458.476 349.703 458.613 349.461 458.708 349.183C458.809 348.888 458.856 348.612 458.849 348.356C458.841 348.1 458.787 347.869 458.687 347.663C458.588 347.452 458.444 347.269 458.256 347.116C458.067 346.963 457.845 346.842 457.59 346.755C457.317 346.661 457.073 346.635 456.856 346.675C456.641 346.709 456.453 346.778 456.291 346.881C456.423 346.66 456.59 346.46 456.791 346.281C456.999 346.099 457.225 345.948 457.469 345.829C457.719 345.711 457.985 345.628 458.268 345.579C458.551 345.53 458.842 345.532 459.142 345.583L459.195 344.622C458.763 344.55 458.327 344.556 457.886 344.64C457.453 344.72 457.039 344.882 456.644 345.128C456.257 345.369 455.903 345.689 455.583 346.087C455.268 346.486 455.015 346.967 454.823 347.529C454.694 347.904 454.633 348.25 454.638 348.569C454.643 348.888 454.704 349.172 454.821 349.422C454.939 349.671 455.103 349.886 455.314 350.066C455.533 350.243 455.79 350.381 456.085 350.482C456.374 350.581 456.656 350.621 456.929 350.6C457.208 350.582 457.463 350.513 457.694 350.396C457.924 350.278 458.126 350.116 458.298 349.908ZM461.878 351.106C461.632 351.231 461.333 351.233 460.981 351.113C460.76 351.037 460.566 350.945 460.4 350.837C460.24 350.732 460.098 350.617 459.976 350.492L459.363 351.31C459.498 351.451 459.692 351.591 459.943 351.727C460.194 351.864 460.445 351.975 460.695 352.061C460.995 352.164 461.29 352.22 461.578 352.23C461.867 352.24 462.135 352.196 462.385 352.097C462.64 352.001 462.863 351.849 463.055 351.642C463.252 351.437 463.408 351.166 463.522 350.832C463.614 350.565 463.655 350.316 463.645 350.084C463.636 349.852 463.586 349.645 463.496 349.462C463.414 349.276 463.295 349.114 463.139 348.978C462.988 348.844 462.816 348.735 462.624 348.65L462.249 348.578L462.263 348.536L462.716 348.434L464.468 347.236L464.675 346.632L461.423 345.518L461.102 346.454L462.532 346.944L463.231 347.098L462.615 347.315L461.103 348.367L460.902 348.954L461.515 349.164C461.929 349.306 462.207 349.487 462.347 349.706C462.488 349.926 462.503 350.197 462.392 350.521C462.301 350.787 462.129 350.982 461.878 351.106ZM468.775 350.642C468.984 350.384 469.138 350.11 469.237 349.821C469.327 349.559 469.362 349.318 469.343 349.096C469.326 348.868 469.266 348.663 469.163 348.482C469.06 348.301 468.918 348.142 468.737 348.003C468.556 347.865 468.344 347.755 468.099 347.671C467.719 347.541 467.368 347.484 467.045 347.5C466.73 347.513 466.431 347.572 466.147 347.678L466.321 348.613C466.493 348.538 466.685 348.496 466.897 348.487C467.118 348.473 467.319 348.498 467.5 348.56C467.79 348.659 467.974 348.807 468.052 349.005C468.137 349.2 468.14 349.413 468.061 349.646C467.995 349.839 467.885 350.03 467.731 350.218C467.584 350.409 467.405 350.598 467.195 350.786C466.986 350.968 466.761 351.145 466.519 351.315C466.276 351.486 466.03 351.649 465.78 351.805C465.538 351.956 465.299 352.099 465.062 352.234C464.828 352.363 464.618 352.475 464.433 352.571L464.238 353.141L467.823 354.369L468.144 353.432L466.509 352.872L465.855 352.781L465.869 352.739L466.44 352.544C466.703 352.387 466.976 352.211 467.259 352.016C467.549 351.817 467.822 351.603 468.078 351.374C468.34 351.146 468.572 350.902 468.775 350.642Z" fill="#59BB49"/>
</svg>
