<svg width="920" height="755" viewBox="0 0 920 755" fill="none" xmlns="http://www.w3.org/2000/svg">
<path d="M461.707 334.549C462.345 334.715 462.58 335.123 462.411 335.774C462.335 336.064 462.186 336.279 461.964 336.42C461.747 336.562 461.502 336.597 461.229 336.526C461.061 336.483 460.924 336.413 460.819 336.317C460.715 336.216 460.636 336.102 460.582 335.977C460.535 335.847 460.509 335.71 460.503 335.566C460.499 335.416 460.514 335.271 460.551 335.132L460.587 334.992C460.599 334.946 460.619 334.892 460.647 334.831C460.748 334.709 460.89 334.615 461.074 334.552C461.263 334.489 461.474 334.489 461.707 334.549Z" fill="#59BB49"/>
<path d="M458.5 326.5L479 332L474.5 346L454 338.5L458.5 326.5ZM463.17 336.752C463.332 336.534 463.45 336.283 463.524 335.998C463.603 335.696 463.629 335.418 463.602 335.163C463.575 334.908 463.504 334.682 463.388 334.484C463.274 334.281 463.117 334.11 462.917 333.971C462.718 333.832 462.487 333.729 462.226 333.661C461.947 333.589 461.701 333.58 461.488 333.637C461.277 333.687 461.094 333.77 460.94 333.885C461.056 333.654 461.207 333.443 461.394 333.249C461.588 333.052 461.802 332.884 462.036 332.747C462.276 332.611 462.535 332.508 462.814 332.438C463.092 332.367 463.383 332.347 463.685 332.376L463.666 331.413C463.23 331.374 462.795 331.413 462.362 331.53C461.936 331.642 461.535 331.835 461.16 332.11C460.792 332.38 460.464 332.725 460.174 333.146C459.891 333.568 459.675 334.067 459.525 334.642C459.425 335.025 459.39 335.375 459.419 335.693C459.448 336.01 459.53 336.289 459.666 336.529C459.802 336.769 459.982 336.971 460.206 337.135C460.438 337.294 460.704 337.413 461.006 337.491C461.303 337.568 461.586 337.586 461.857 337.545C462.134 337.506 462.383 337.419 462.604 337.284C462.825 337.149 463.014 336.972 463.17 336.752ZM466.83 337.676C466.594 337.82 466.296 337.844 465.936 337.751C465.71 337.692 465.51 337.615 465.336 337.52C465.168 337.427 465.018 337.323 464.887 337.208L464.338 338.07C464.483 338.2 464.687 338.325 464.947 338.442C465.208 338.56 465.466 338.651 465.722 338.718C466.03 338.798 466.328 338.832 466.616 338.82C466.904 338.808 467.169 338.744 467.41 338.627C467.657 338.511 467.868 338.343 468.044 338.122C468.225 337.903 468.36 337.622 468.449 337.279C468.52 337.006 468.542 336.755 468.515 336.524C468.488 336.294 468.423 336.091 468.32 335.916C468.224 335.736 468.093 335.584 467.927 335.46C467.767 335.338 467.587 335.241 467.388 335.171L467.009 335.128L467.02 335.085L467.465 334.949L469.121 333.622L469.282 333.004L465.955 332.139L465.705 333.097L467.169 333.477L467.877 333.578L467.279 333.841L465.851 335.004L465.695 335.605L466.322 335.768C466.746 335.878 467.036 336.037 467.193 336.246C467.349 336.454 467.385 336.723 467.298 337.054C467.227 337.327 467.071 337.534 466.83 337.676ZM471.946 339.007C471.71 339.15 471.413 339.175 471.052 339.081C470.826 339.023 470.626 338.946 470.452 338.851C470.284 338.758 470.135 338.654 470.003 338.539L469.454 339.4C469.6 339.531 469.803 339.655 470.064 339.773C470.324 339.89 470.583 339.982 470.838 340.049C471.146 340.129 471.444 340.163 471.732 340.151C472.02 340.139 472.285 340.075 472.526 339.958C472.773 339.842 472.985 339.674 473.16 339.453C473.341 339.233 473.476 338.952 473.565 338.61C473.636 338.337 473.658 338.085 473.631 337.855C473.604 337.625 473.539 337.422 473.436 337.246C473.34 337.066 473.209 336.915 473.043 336.791C472.883 336.668 472.703 336.572 472.505 336.502L472.125 336.459L472.136 336.415L472.581 336.28L474.237 334.953L474.398 334.335L471.071 333.469L470.822 334.427L472.285 334.808L472.993 334.909L472.395 335.171L470.967 336.335L470.811 336.936L471.438 337.099C471.862 337.209 472.152 337.368 472.309 337.576C472.466 337.784 472.501 338.054 472.415 338.385C472.344 338.658 472.187 338.865 471.946 339.007Z" fill="#59BB49"/>
</svg>
