<svg width="920" height="755" viewBox="0 0 920 755" fill="none" xmlns="http://www.w3.org/2000/svg">
<path d="M465.707 321.549C466.345 321.715 466.58 322.123 466.411 322.774C466.335 323.064 466.186 323.279 465.964 323.42C465.747 323.562 465.502 323.597 465.229 323.526C465.061 323.483 464.924 323.413 464.819 323.317C464.715 323.216 464.636 323.102 464.582 322.977C464.535 322.847 464.509 322.71 464.503 322.566C464.499 322.416 464.514 322.271 464.551 322.132L464.587 321.992C464.599 321.946 464.619 321.892 464.647 321.831C464.748 321.709 464.89 321.615 465.074 321.552C465.263 321.489 465.474 321.489 465.707 321.549Z" fill="#59BB49"/>
<path d="M476.833 322.453L476.565 323.164L476.218 324.497L475.181 324.227L474.606 324.152L475.127 323.934L476.339 322.994L476.798 322.444L476.833 322.453Z" fill="#59BB49"/>
<path d="M462 314L482.5 319L479 331.5L458.5 326L462 314ZM467.17 323.752C467.332 323.534 467.45 323.283 467.524 322.998C467.603 322.696 467.629 322.418 467.602 322.163C467.575 321.908 467.504 321.682 467.388 321.484C467.274 321.281 467.117 321.11 466.917 320.971C466.718 320.832 466.487 320.729 466.226 320.661C465.947 320.589 465.701 320.58 465.488 320.637C465.277 320.687 465.094 320.77 464.94 320.885C465.056 320.654 465.207 320.443 465.394 320.249C465.588 320.052 465.802 319.884 466.036 319.747C466.276 319.611 466.535 319.508 466.814 319.438C467.092 319.367 467.383 319.347 467.685 319.376L467.666 318.413C467.23 318.374 466.795 318.413 466.362 318.53C465.936 318.642 465.535 318.835 465.16 319.11C464.792 319.38 464.464 319.725 464.174 320.146C463.891 320.568 463.675 321.067 463.525 321.642C463.425 322.025 463.39 322.375 463.419 322.693C463.448 323.01 463.53 323.289 463.666 323.529C463.802 323.769 463.982 323.971 464.206 324.135C464.438 324.294 464.704 324.413 465.006 324.491C465.303 324.568 465.586 324.586 465.857 324.545C466.134 324.506 466.383 324.419 466.604 324.284C466.825 324.149 467.014 323.972 467.17 323.752ZM470.83 324.676C470.594 324.82 470.296 324.844 469.936 324.751C469.71 324.692 469.51 324.615 469.336 324.52C469.168 324.427 469.018 324.323 468.887 324.208L468.338 325.07C468.483 325.2 468.687 325.325 468.947 325.442C469.208 325.56 469.466 325.651 469.722 325.718C470.03 325.798 470.328 325.832 470.616 325.82C470.904 325.808 471.169 325.744 471.41 325.627C471.657 325.511 471.868 325.343 472.044 325.122C472.225 324.903 472.36 324.622 472.449 324.279C472.52 324.006 472.542 323.755 472.515 323.524C472.488 323.294 472.423 323.091 472.32 322.916C472.224 322.736 472.093 322.584 471.927 322.46C471.767 322.338 471.587 322.241 471.388 322.171L471.009 322.128L471.02 322.085L471.465 321.949L473.121 320.622L473.282 320.004L469.955 319.139L469.705 320.097L471.169 320.477L471.877 320.578L471.279 320.841L469.851 322.004L469.695 322.605L470.322 322.768C470.746 322.878 471.036 323.037 471.193 323.246C471.349 323.454 471.385 323.723 471.298 324.054C471.227 324.327 471.071 324.534 470.83 324.676ZM477.036 325.677L477.994 325.926L478.23 325.02L477.272 324.771L478.192 321.235L477.26 320.992L473.511 324.072L473.343 324.716L475.982 325.403L475.541 327.101L476.594 327.375L477.036 325.677Z" fill="#59BB49"/>
</svg>
