<svg width="920" height="755" viewBox="0 0 920 755" fill="none" xmlns="http://www.w3.org/2000/svg">
<path d="M468.707 308.549C469.345 308.715 469.58 309.123 469.411 309.774C469.335 310.064 469.186 310.279 468.964 310.42C468.747 310.562 468.502 310.597 468.229 310.526C468.061 310.483 467.924 310.413 467.819 310.317C467.715 310.216 467.636 310.102 467.582 309.977C467.535 309.847 467.509 309.71 467.503 309.566C467.499 309.416 467.514 309.271 467.551 309.132L467.587 308.992C467.599 308.946 467.619 308.892 467.647 308.831C467.748 308.709 467.89 308.615 468.074 308.552C468.263 308.489 468.474 308.489 468.707 308.549Z" fill="#59BB49"/>
<path d="M465 301L486 306.5L482.5 318.5L462 313.5L465 301ZM470.17 310.752C470.332 310.534 470.45 310.283 470.524 309.998C470.603 309.696 470.629 309.418 470.602 309.163C470.575 308.908 470.504 308.682 470.388 308.484C470.274 308.281 470.117 308.11 469.917 307.971C469.718 307.832 469.487 307.729 469.226 307.661C468.947 307.589 468.701 307.58 468.488 307.637C468.277 307.687 468.094 307.77 467.94 307.885C468.056 307.654 468.207 307.443 468.394 307.249C468.588 307.052 468.802 306.884 469.036 306.747C469.276 306.611 469.535 306.508 469.814 306.438C470.092 306.367 470.383 306.347 470.685 306.376L470.666 305.413C470.23 305.374 469.795 305.413 469.362 305.53C468.936 305.642 468.535 305.835 468.16 306.11C467.792 306.38 467.464 306.725 467.174 307.146C466.891 307.568 466.675 308.067 466.525 308.642C466.425 309.025 466.39 309.375 466.419 309.693C466.448 310.01 466.53 310.289 466.666 310.529C466.802 310.769 466.982 310.971 467.206 311.135C467.438 311.294 467.704 311.413 468.006 311.491C468.303 311.568 468.586 311.586 468.857 311.545C469.134 311.506 469.383 311.419 469.604 311.284C469.825 311.149 470.014 310.972 470.17 310.752ZM473.83 311.676C473.594 311.82 473.296 311.844 472.936 311.751C472.71 311.692 472.51 311.615 472.336 311.52C472.168 311.427 472.018 311.323 471.887 311.208L471.338 312.07C471.483 312.2 471.687 312.325 471.947 312.442C472.208 312.56 472.466 312.651 472.722 312.718C473.03 312.798 473.328 312.832 473.616 312.82C473.904 312.808 474.169 312.744 474.41 312.627C474.657 312.511 474.868 312.343 475.044 312.122C475.225 311.903 475.36 311.622 475.449 311.279C475.52 311.006 475.542 310.755 475.515 310.524C475.488 310.294 475.423 310.091 475.32 309.916C475.224 309.736 475.093 309.584 474.927 309.46C474.767 309.338 474.587 309.241 474.388 309.171L474.009 309.128L474.02 309.085L474.465 308.949L476.121 307.622L476.282 307.004L472.955 306.139L472.705 307.097L474.169 307.477L474.877 307.578L474.279 307.841L472.851 309.004L472.695 309.605L473.322 309.768C473.746 309.878 474.036 310.037 474.193 310.246C474.349 310.454 474.385 310.723 474.298 311.054C474.227 311.327 474.071 311.534 473.83 311.676ZM478.833 312.94C478.582 313.073 478.264 313.09 477.881 312.99C477.654 312.931 477.464 312.866 477.309 312.795C477.161 312.719 477.028 312.635 476.909 312.542L476.36 313.404C476.503 313.522 476.685 313.631 476.907 313.732C477.133 313.84 477.376 313.929 477.638 313.997C477.969 314.083 478.285 314.118 478.586 314.104C478.888 314.089 479.163 314.021 479.411 313.9C479.666 313.78 479.885 313.605 480.069 313.373C480.253 313.142 480.39 312.855 480.479 312.513C480.554 312.223 480.579 311.95 480.552 311.695C480.527 311.434 480.454 311.201 480.334 310.997C480.215 310.786 480.052 310.604 479.843 310.451C479.641 310.299 479.399 310.18 479.118 310.094L478.752 310.036L479.057 308.86L481.078 309.386L481.355 308.323L478.358 307.544L477.529 310.732L478.224 310.885C478.665 311 478.984 311.169 479.18 311.394C479.375 311.618 479.428 311.905 479.337 312.253C479.253 312.578 479.085 312.807 478.833 312.94Z" fill="#59BB49"/>
</svg>
