<svg width="920" height="755" viewBox="0 0 920 755" fill="none" xmlns="http://www.w3.org/2000/svg">
<path d="M471.707 296.549C472.345 296.715 472.58 297.123 472.411 297.774C472.335 298.064 472.186 298.279 471.964 298.42C471.747 298.562 471.502 298.597 471.229 298.526C471.061 298.483 470.924 298.413 470.819 298.317C470.715 298.216 470.636 298.102 470.582 297.977C470.535 297.847 470.509 297.71 470.503 297.566C470.499 297.416 470.514 297.271 470.551 297.132L470.587 296.992C470.599 296.946 470.619 296.892 470.647 296.831C470.748 296.709 470.89 296.615 471.074 296.552C471.263 296.489 471.474 296.489 471.707 296.549Z" fill="#59BB49"/>
<path d="M481.939 299.21C482.578 299.376 482.813 299.785 482.643 300.435C482.568 300.725 482.419 300.941 482.196 301.081C481.98 301.223 481.735 301.259 481.462 301.188C481.293 301.144 481.157 301.074 481.051 300.979C480.947 300.877 480.869 300.764 480.814 300.638C480.768 300.508 480.741 300.371 480.735 300.227C480.731 300.077 480.747 299.933 480.783 299.793L480.819 299.654C480.831 299.607 480.852 299.554 480.88 299.493C480.98 299.37 481.122 299.277 481.306 299.213C481.496 299.151 481.707 299.15 481.939 299.21Z" fill="#59BB49"/>
<path d="M468.5 288.5L489 293.5L486 306L465 300.5L468.5 288.5ZM473.17 298.752C473.332 298.534 473.45 298.283 473.524 297.998C473.603 297.696 473.629 297.418 473.602 297.163C473.575 296.908 473.504 296.682 473.388 296.484C473.274 296.281 473.117 296.11 472.917 295.971C472.718 295.832 472.487 295.729 472.226 295.661C471.947 295.589 471.701 295.58 471.488 295.637C471.277 295.687 471.094 295.77 470.94 295.885C471.056 295.654 471.207 295.443 471.394 295.249C471.588 295.052 471.802 294.884 472.036 294.747C472.276 294.611 472.535 294.508 472.814 294.438C473.092 294.367 473.383 294.347 473.685 294.376L473.666 293.413C473.23 293.374 472.795 293.413 472.362 293.53C471.936 293.642 471.535 293.835 471.16 294.11C470.792 294.38 470.464 294.725 470.174 295.146C469.891 295.568 469.675 296.067 469.525 296.642C469.425 297.025 469.39 297.375 469.419 297.693C469.448 298.01 469.53 298.289 469.666 298.529C469.802 298.769 469.982 298.971 470.206 299.135C470.438 299.294 470.704 299.413 471.006 299.491C471.303 299.568 471.586 299.586 471.857 299.545C472.134 299.506 472.383 299.419 472.604 299.284C472.825 299.149 473.014 298.972 473.17 298.752ZM476.83 299.676C476.594 299.82 476.296 299.844 475.936 299.751C475.71 299.692 475.51 299.615 475.336 299.52C475.168 299.427 475.018 299.323 474.887 299.208L474.338 300.07C474.483 300.2 474.687 300.325 474.947 300.442C475.208 300.56 475.466 300.651 475.722 300.718C476.03 300.798 476.328 300.832 476.616 300.82C476.904 300.808 477.169 300.744 477.41 300.627C477.657 300.511 477.868 300.343 478.044 300.122C478.225 299.903 478.36 299.622 478.449 299.279C478.52 299.006 478.542 298.755 478.515 298.524C478.488 298.294 478.423 298.091 478.32 297.916C478.224 297.736 478.093 297.584 477.927 297.46C477.767 297.338 477.587 297.241 477.388 297.171L477.009 297.128L477.02 297.085L477.465 296.949L479.121 295.622L479.282 295.004L475.955 294.139L475.705 295.097L477.169 295.477L477.877 295.578L477.279 295.841L475.851 297.004L475.695 297.605L476.322 297.768C476.746 297.878 477.036 298.037 477.193 298.246C477.349 298.454 477.385 298.723 477.298 299.054C477.227 299.327 477.071 299.534 476.83 299.676ZM483.403 301.414C483.565 301.195 483.683 300.944 483.757 300.66C483.835 300.358 483.861 300.079 483.835 299.824C483.808 299.569 483.737 299.343 483.621 299.146C483.506 298.942 483.349 298.771 483.149 298.632C482.95 298.494 482.72 298.39 482.458 298.322C482.18 298.25 481.934 298.242 481.721 298.298C481.509 298.348 481.326 298.431 481.173 298.546C481.288 298.316 481.439 298.104 481.626 297.911C481.82 297.713 482.034 297.546 482.268 297.408C482.508 297.272 482.768 297.169 483.046 297.099C483.325 297.029 483.615 297.008 483.918 297.037L483.898 296.075C483.462 296.036 483.027 296.074 482.594 296.191C482.168 296.303 481.768 296.497 481.392 296.771C481.025 297.041 480.696 297.387 480.407 297.807C480.123 298.23 479.907 298.728 479.757 299.303C479.658 299.686 479.622 300.037 479.651 300.354C479.68 300.672 479.763 300.951 479.899 301.191C480.035 301.431 480.215 301.632 480.439 301.796C480.67 301.955 480.937 302.074 481.239 302.153C481.535 302.23 481.819 302.248 482.09 302.207C482.367 302.167 482.615 302.08 482.836 301.945C483.058 301.811 483.246 301.633 483.403 301.414Z" fill="#59BB49"/>
</svg>
