<svg width="920" height="755" viewBox="0 0 920 755" fill="none" xmlns="http://www.w3.org/2000/svg">
<path d="M475.707 283.549C476.345 283.715 476.58 284.123 476.411 284.774C476.335 285.064 476.186 285.279 475.964 285.42C475.747 285.562 475.502 285.597 475.229 285.526C475.061 285.483 474.924 285.413 474.819 285.317C474.715 285.216 474.636 285.102 474.582 284.977C474.535 284.847 474.509 284.71 474.503 284.566C474.499 284.416 474.514 284.271 474.551 284.132L474.587 283.992C474.599 283.946 474.619 283.892 474.647 283.831C474.748 283.709 474.89 283.615 475.074 283.552C475.263 283.489 475.474 283.489 475.707 283.549Z" fill="#59BB49"/>
<path d="M471.5 275.5L493 281.5L489 293L468.5 288L471.5 275.5ZM477.17 285.752C477.332 285.534 477.45 285.283 477.524 284.998C477.603 284.696 477.629 284.418 477.602 284.163C477.575 283.908 477.504 283.682 477.388 283.484C477.274 283.281 477.117 283.11 476.917 282.971C476.718 282.832 476.487 282.729 476.226 282.661C475.947 282.589 475.701 282.58 475.488 282.637C475.277 282.687 475.094 282.77 474.94 282.885C475.056 282.654 475.207 282.443 475.394 282.249C475.588 282.052 475.802 281.884 476.036 281.747C476.276 281.611 476.535 281.508 476.814 281.438C477.092 281.367 477.383 281.347 477.685 281.376L477.666 280.413C477.23 280.374 476.795 280.413 476.362 280.53C475.936 280.642 475.535 280.835 475.16 281.11C474.792 281.38 474.464 281.725 474.174 282.146C473.891 282.568 473.675 283.067 473.525 283.642C473.425 284.025 473.39 284.375 473.419 284.693C473.448 285.01 473.53 285.289 473.666 285.529C473.802 285.769 473.982 285.971 474.206 286.135C474.438 286.294 474.704 286.413 475.006 286.491C475.303 286.568 475.586 286.586 475.857 286.545C476.134 286.506 476.383 286.419 476.604 286.284C476.825 286.149 477.014 285.972 477.17 285.752ZM480.83 286.676C480.594 286.82 480.296 286.844 479.936 286.751C479.71 286.692 479.51 286.615 479.336 286.52C479.168 286.427 479.018 286.323 478.887 286.208L478.338 287.07C478.483 287.2 478.687 287.325 478.947 287.442C479.208 287.56 479.466 287.651 479.722 287.718C480.03 287.798 480.328 287.832 480.616 287.82C480.904 287.808 481.169 287.744 481.41 287.627C481.657 287.511 481.868 287.343 482.044 287.122C482.225 286.903 482.36 286.622 482.449 286.279C482.52 286.006 482.542 285.755 482.515 285.524C482.488 285.294 482.423 285.091 482.32 284.916C482.224 284.736 482.093 284.584 481.927 284.46C481.767 284.338 481.587 284.241 481.388 284.171L481.009 284.128L481.02 284.085L481.465 283.949L483.121 282.622L483.282 282.004L479.955 281.139L479.705 282.097L481.169 282.477L481.877 282.578L481.279 282.841L479.851 284.004L479.695 284.605L480.322 284.768C480.746 284.878 481.036 285.037 481.193 285.246C481.349 285.454 481.385 285.723 481.298 286.054C481.227 286.327 481.071 286.534 480.83 286.676ZM486.857 284.431L483.642 288.607L484.748 288.895L488.687 283.763L488.773 283.432L484.844 282.41L484.568 283.473L486.806 284.055L487.352 284.104L486.857 284.431Z" fill="#59BB49"/>
</svg>
