<svg width="920" height="755" viewBox="0 0 920 755" fill="none" xmlns="http://www.w3.org/2000/svg">
<path d="M478.707 270.549C479.345 270.715 479.58 271.123 479.411 271.774C479.335 272.064 479.186 272.279 478.964 272.42C478.747 272.562 478.502 272.597 478.229 272.526C478.061 272.483 477.924 272.413 477.819 272.317C477.715 272.216 477.636 272.102 477.582 271.977C477.535 271.847 477.509 271.71 477.503 271.566C477.499 271.416 477.514 271.271 477.551 271.132L477.587 270.992C477.599 270.946 477.619 270.892 477.647 270.831C477.748 270.709 477.89 270.615 478.074 270.552C478.263 270.489 478.474 270.489 478.707 270.549Z" fill="#59BB49"/>
<path d="M489.488 274.246C489.523 274.373 489.523 274.503 489.489 274.637C489.422 274.892 489.291 275.063 489.095 275.148C488.905 275.235 488.68 275.245 488.418 275.177C488.134 275.103 487.931 274.963 487.811 274.758C487.698 274.549 487.672 274.328 487.732 274.096C487.779 273.916 487.875 273.749 488.021 273.595C488.174 273.436 488.407 273.314 488.721 273.228C488.83 273.331 488.936 273.436 489.038 273.543C489.147 273.652 489.238 273.765 489.312 273.884C489.394 273.998 489.453 274.119 489.488 274.246Z" fill="#59BB49"/>
<path d="M488.672 271.625C488.647 271.507 488.653 271.378 488.689 271.239C488.736 271.059 488.835 270.917 488.986 270.814C489.142 270.712 489.349 270.694 489.604 270.761C489.807 270.814 489.962 270.922 490.068 271.086C490.182 271.246 490.207 271.448 490.143 271.692C490.051 272.046 489.792 272.326 489.367 272.531C489.26 272.441 489.157 272.349 489.057 272.255C488.965 272.157 488.882 272.058 488.809 271.958C488.743 271.854 488.698 271.743 488.672 271.625Z" fill="#59BB49"/>
<path d="M475.5 263L496 268.5L493 281L471.5 275L475.5 263ZM480.17 272.752C480.332 272.534 480.45 272.283 480.524 271.998C480.603 271.696 480.629 271.418 480.602 271.163C480.575 270.908 480.504 270.682 480.388 270.484C480.274 270.281 480.117 270.11 479.917 269.971C479.718 269.832 479.487 269.729 479.226 269.661C478.947 269.589 478.701 269.58 478.488 269.637C478.277 269.687 478.094 269.77 477.94 269.885C478.056 269.654 478.207 269.443 478.394 269.249C478.588 269.052 478.802 268.884 479.036 268.747C479.276 268.611 479.535 268.508 479.814 268.438C480.092 268.367 480.383 268.347 480.685 268.376L480.666 267.413C480.23 267.374 479.795 267.413 479.362 267.53C478.936 267.642 478.535 267.835 478.16 268.11C477.792 268.38 477.464 268.725 477.174 269.146C476.891 269.568 476.675 270.067 476.525 270.642C476.425 271.025 476.39 271.375 476.419 271.693C476.448 272.01 476.53 272.289 476.666 272.529C476.802 272.769 476.982 272.971 477.206 273.135C477.438 273.294 477.704 273.413 478.006 273.491C478.303 273.568 478.586 273.586 478.857 273.545C479.134 273.506 479.383 273.419 479.604 273.284C479.825 273.149 480.014 272.972 480.17 272.752ZM483.83 273.676C483.594 273.82 483.296 273.844 482.936 273.751C482.71 273.692 482.51 273.615 482.336 273.52C482.168 273.427 482.018 273.323 481.887 273.208L481.338 274.07C481.483 274.2 481.687 274.325 481.947 274.442C482.208 274.56 482.466 274.651 482.722 274.718C483.03 274.798 483.328 274.832 483.616 274.82C483.904 274.808 484.169 274.744 484.41 274.627C484.657 274.511 484.868 274.343 485.044 274.122C485.225 273.903 485.36 273.622 485.449 273.279C485.52 273.006 485.542 272.755 485.515 272.524C485.488 272.294 485.423 272.091 485.32 271.916C485.224 271.736 485.093 271.584 484.927 271.46C484.767 271.338 484.587 271.241 484.388 271.171L484.009 271.128L484.02 271.085L484.465 270.949L486.121 269.622L486.282 269.004L482.955 268.139L482.705 269.097L484.169 269.477L484.877 269.578L484.279 269.841L482.851 271.004L482.695 271.605L483.322 271.768C483.746 271.878 484.036 272.037 484.193 272.246C484.349 272.454 484.385 272.723 484.298 273.054C484.227 273.327 484.071 273.534 483.83 273.676ZM486.873 273.501C486.78 273.644 486.707 273.817 486.655 274.02C486.591 274.264 486.577 274.496 486.613 274.716C486.655 274.938 486.739 275.14 486.865 275.321C486.997 275.504 487.169 275.664 487.382 275.8C487.599 275.943 487.853 276.052 488.143 276.128C488.433 276.203 488.711 276.232 488.976 276.214C489.243 276.191 489.483 276.126 489.696 276.02C489.91 275.915 490.09 275.769 490.237 275.585C490.392 275.395 490.503 275.17 490.571 274.909C490.671 274.526 490.662 274.189 490.546 273.898C490.435 273.609 490.232 273.317 489.936 273.023C490.284 272.903 490.564 272.743 490.777 272.545C490.996 272.347 491.149 272.077 491.239 271.735C491.296 271.514 491.304 271.302 491.264 271.1C491.231 270.893 491.153 270.705 491.029 270.536C490.912 270.369 490.754 270.223 490.558 270.098C490.361 269.972 490.132 269.875 489.871 269.807C489.586 269.733 489.32 269.707 489.072 269.73C488.825 269.752 488.601 269.815 488.401 269.918C488.206 270.022 488.039 270.162 487.901 270.337C487.768 270.513 487.673 270.714 487.614 270.941C487.523 271.289 487.528 271.603 487.629 271.884C487.731 272.158 487.901 272.423 488.139 272.677C487.965 272.725 487.798 272.783 487.637 272.853C487.482 272.924 487.338 273.014 487.204 273.122C487.078 273.225 486.968 273.352 486.873 273.501Z" fill="#59BB49"/>
</svg>
