<svg width="920" height="755" viewBox="0 0 920 755" fill="none" xmlns="http://www.w3.org/2000/svg">
<path d="M482.482 256.489C483.129 256.621 483.385 257.016 483.251 257.675C483.191 257.969 483.054 258.192 482.839 258.344C482.63 258.497 482.388 258.546 482.112 258.49C481.941 258.455 481.801 258.393 481.69 258.303C481.581 258.207 481.496 258.098 481.436 257.975C481.382 257.848 481.348 257.713 481.335 257.569C481.322 257.42 481.33 257.274 481.359 257.133L481.388 256.992C481.397 256.945 481.415 256.89 481.44 256.828C481.533 256.7 481.67 256.599 481.85 256.526C482.036 256.454 482.247 256.441 482.482 256.489Z" fill="#59BB49"/>
<path d="M492.272 257.749C492.118 257.54 492.076 257.268 492.144 256.933C492.211 256.604 492.343 256.364 492.538 256.214C492.735 256.058 492.978 256.01 493.266 256.068C493.448 256.106 493.596 256.176 493.71 256.278C493.831 256.376 493.92 256.496 493.977 256.636C494.04 256.777 494.076 256.932 494.085 257.099C494.094 257.266 494.081 257.432 494.048 257.596C494.025 257.708 493.992 257.824 493.95 257.944C493.845 258.039 493.708 258.109 493.539 258.154C493.371 258.199 493.166 258.197 492.925 258.148C492.643 258.091 492.425 257.958 492.272 257.749Z" fill="#59BB49"/>
<path d="M478.5 249L499 252L496 268L476 262.5L478.5 249ZM484.061 258.611C484.212 258.385 484.316 258.127 484.375 257.839C484.437 257.534 484.448 257.254 484.408 257.001C484.368 256.748 484.284 256.526 484.158 256.335C484.033 256.138 483.867 255.975 483.66 255.848C483.453 255.72 483.218 255.629 482.953 255.575C482.671 255.518 482.425 255.523 482.215 255.59C482.007 255.652 481.829 255.744 481.681 255.867C481.785 255.631 481.924 255.411 482.1 255.208C482.283 255.001 482.488 254.822 482.715 254.672C482.947 254.524 483.2 254.407 483.475 254.322C483.749 254.237 484.038 254.201 484.342 254.214L484.271 253.253C483.833 253.238 483.401 253.3 482.975 253.439C482.556 253.574 482.166 253.789 481.806 254.083C481.453 254.372 481.144 254.735 480.877 255.17C480.617 255.607 480.427 256.117 480.309 256.699C480.23 257.087 480.213 257.439 480.259 257.754C480.305 258.07 480.402 258.344 480.551 258.576C480.699 258.808 480.89 259 481.122 259.152C481.362 259.298 481.635 259.403 481.94 259.465C482.24 259.526 482.524 259.529 482.793 259.473C483.067 259.419 483.311 259.319 483.525 259.172C483.738 259.026 483.917 258.839 484.061 258.611ZM487.765 259.338C487.538 259.494 487.242 259.535 486.877 259.46C486.648 259.414 486.444 259.348 486.265 259.262C486.093 259.178 485.938 259.082 485.8 258.975L485.298 259.864C485.45 259.987 485.66 260.1 485.927 260.204C486.193 260.307 486.456 260.385 486.715 260.438C487.026 260.501 487.326 260.519 487.613 260.492C487.9 260.465 488.161 260.386 488.396 260.257C488.636 260.128 488.838 259.949 489.001 259.719C489.17 259.49 489.29 259.202 489.361 258.855C489.417 258.579 489.426 258.326 489.387 258.098C489.347 257.87 489.272 257.67 489.159 257.501C489.054 257.326 488.915 257.181 488.742 257.067C488.576 256.953 488.391 256.866 488.189 256.807L487.808 256.784L487.817 256.74L488.253 256.581L489.836 255.168L489.964 254.542L486.595 253.855L486.398 254.825L487.879 255.127L488.592 255.19L488.009 255.484L486.645 256.722L486.521 257.331L487.156 257.46C487.585 257.547 487.884 257.691 488.051 257.89C488.219 258.09 488.268 258.357 488.2 258.692C488.144 258.968 487.999 259.184 487.765 259.338ZM491.321 255.966C491.182 256.201 491.081 256.468 491.02 256.768C490.954 257.092 490.95 257.385 491.007 257.647C491.07 257.905 491.171 258.131 491.309 258.324C491.455 258.513 491.628 258.668 491.83 258.789C492.038 258.911 492.254 258.994 492.477 259.04C492.748 259.095 492.968 259.109 493.139 259.083C493.316 259.058 493.49 258.983 493.662 258.859C493.564 259.102 493.433 259.323 493.27 259.523C493.114 259.718 492.927 259.885 492.708 260.024C492.491 260.157 492.245 260.257 491.968 260.323C491.691 260.389 491.387 260.41 491.055 260.385L491.119 261.335C491.549 261.386 491.974 261.362 492.392 261.263C492.81 261.165 493.196 260.98 493.551 260.71C493.914 260.435 494.23 260.067 494.501 259.608C494.78 259.144 494.988 258.572 495.127 257.89C495.282 257.131 495.208 256.516 494.906 256.044C494.611 255.568 494.132 255.262 493.467 255.127C493.144 255.061 492.845 255.055 492.571 255.109C492.303 255.159 492.063 255.257 491.849 255.403C491.643 255.545 491.467 255.733 491.321 255.966Z" fill="#59BB49"/>
</svg>
