<svg width="920" height="755" viewBox="0 0 920 755" fill="none" xmlns="http://www.w3.org/2000/svg">
<path d="M484.258 242.415C484.911 242.513 485.187 242.895 485.087 243.559C485.042 243.856 484.916 244.086 484.71 244.249C484.509 244.413 484.269 244.474 483.99 244.432C483.818 244.406 483.675 244.351 483.56 244.267C483.446 244.177 483.356 244.072 483.289 243.953C483.229 243.828 483.188 243.695 483.167 243.552C483.147 243.403 483.148 243.258 483.169 243.115L483.191 242.973C483.198 242.926 483.212 242.87 483.234 242.807C483.321 242.674 483.452 242.567 483.629 242.484C483.811 242.402 484.021 242.379 484.258 242.415Z" fill="#59BB49"/>
<path d="M490.191 241.362L489.998 242.098L489.793 243.459L488.734 243.3L488.153 243.285L488.649 243.014L489.756 241.952L490.155 241.357L490.191 241.362Z" fill="#59BB49"/>
<path d="M493.715 245.298C493.62 244.877 493.628 244.305 493.737 243.581C493.853 242.816 494.015 242.261 494.225 241.916C494.441 241.573 494.726 241.428 495.082 241.481C495.456 241.538 495.691 241.773 495.786 242.188C495.881 242.603 495.874 243.169 495.766 243.887C495.647 244.676 495.477 245.239 495.256 245.576C495.042 245.914 494.759 246.056 494.409 246.004C494.047 245.949 493.816 245.714 493.715 245.298Z" fill="#59BB49"/>
<path d="M480 236L501 239L499 251.5L478 248.5L480 236ZM485.944 244.453C486.082 244.219 486.173 243.957 486.217 243.666C486.264 243.358 486.261 243.078 486.207 242.827C486.154 242.577 486.06 242.359 485.924 242.175C485.788 241.985 485.614 241.831 485.401 241.714C485.189 241.597 484.949 241.518 484.682 241.478C484.397 241.435 484.151 241.452 483.946 241.531C483.74 241.603 483.567 241.704 483.426 241.834C483.517 241.593 483.646 241.367 483.811 241.155C483.983 240.939 484.179 240.75 484.397 240.588C484.622 240.428 484.869 240.298 485.138 240.2C485.408 240.101 485.695 240.05 485.999 240.047L485.879 239.092C485.441 239.098 485.013 239.182 484.594 239.344C484.182 239.5 483.804 239.734 483.459 240.046C483.122 240.353 482.831 240.731 482.588 241.18C482.35 241.63 482.187 242.148 482.098 242.735C482.039 243.127 482.04 243.479 482.103 243.792C482.165 244.105 482.276 244.373 482.436 244.598C482.596 244.822 482.796 245.004 483.036 245.143C483.283 245.278 483.561 245.368 483.869 245.415C484.172 245.46 484.456 245.448 484.721 245.379C484.992 245.311 485.231 245.198 485.436 245.041C485.642 244.884 485.811 244.688 485.944 244.453ZM490.73 244.547L491.709 244.695L491.848 243.77L490.869 243.622L491.415 240.009L490.462 239.865L487.056 243.32L486.957 243.978L489.653 244.385L489.391 246.12L490.468 246.283L490.73 244.547ZM493.507 241.062C493.054 241.533 492.745 242.315 492.58 243.407C492.423 244.451 492.476 245.281 492.741 245.898C493.007 246.508 493.511 246.869 494.253 246.981C494.953 247.087 495.53 246.901 495.984 246.423C496.444 245.947 496.757 245.159 496.923 244.062C497.089 242.958 497.037 242.119 496.766 241.544C496.495 240.963 495.986 240.617 495.239 240.504C494.539 240.398 493.962 240.584 493.507 241.062Z" fill="#59BB49"/>
</svg>
