<svg width="920" height="755" viewBox="0 0 920 755" fill="none" xmlns="http://www.w3.org/2000/svg">
<path d="M486.258 230.415C486.911 230.513 487.187 230.895 487.087 231.559C487.042 231.856 486.916 232.086 486.71 232.249C486.509 232.413 486.269 232.474 485.99 232.432C485.818 232.406 485.675 232.351 485.56 232.267C485.446 232.177 485.356 232.072 485.289 231.953C485.229 231.828 485.188 231.695 485.167 231.552C485.147 231.403 485.148 231.258 485.169 231.115L485.191 230.973C485.198 230.926 485.212 230.87 485.234 230.807C485.321 230.674 485.452 230.567 485.629 230.484C485.811 230.402 486.021 230.379 486.258 230.415Z" fill="#59BB49"/>
<path d="M492.191 229.362L491.998 230.098L491.793 231.459L490.734 231.3L490.153 231.285L490.649 231.014L491.756 229.952L492.155 229.357L492.191 229.362Z" fill="#59BB49"/>
<path d="M482 223L503 226L501 238.5L480 235.5L482 223ZM487.944 232.453C488.082 232.219 488.173 231.957 488.217 231.666C488.264 231.358 488.261 231.078 488.207 230.827C488.154 230.577 488.06 230.359 487.924 230.175C487.788 229.985 487.614 229.831 487.401 229.714C487.189 229.597 486.949 229.518 486.682 229.478C486.397 229.435 486.151 229.452 485.946 229.531C485.74 229.603 485.567 229.704 485.426 229.834C485.517 229.593 485.646 229.367 485.811 229.155C485.983 228.939 486.179 228.75 486.397 228.588C486.622 228.428 486.869 228.298 487.138 228.2C487.408 228.101 487.695 228.05 487.999 228.047L487.879 227.092C487.441 227.098 487.013 227.182 486.594 227.344C486.182 227.5 485.804 227.734 485.459 228.046C485.122 228.353 484.831 228.731 484.588 229.18C484.35 229.63 484.187 230.148 484.098 230.735C484.039 231.127 484.04 231.479 484.103 231.792C484.165 232.105 484.276 232.373 484.436 232.598C484.596 232.822 484.796 233.004 485.036 233.143C485.283 233.278 485.561 233.368 485.869 233.415C486.172 233.46 486.456 233.448 486.721 233.379C486.992 233.311 487.231 233.198 487.436 233.041C487.642 232.884 487.811 232.688 487.944 232.453ZM492.73 232.547L493.709 232.695L493.848 231.77L492.869 231.622L493.415 228.009L492.462 227.865L489.056 231.32L488.957 231.978L491.653 232.385L491.391 234.12L492.468 234.283L492.73 232.547ZM496.036 233.82L494.799 233.633L494.652 234.612L498.203 235.148L498.35 234.169L497.14 233.986L497.948 228.629L497.299 228.531L495.022 229.862L495.411 230.604L496.285 230.18L496.792 229.72L496.567 230.305L496.036 233.82Z" fill="#59BB49"/>
</svg>
