<svg width="920" height="755" viewBox="0 0 920 755" fill="none" xmlns="http://www.w3.org/2000/svg">
<path d="M466.483 236.306C466.636 236.52 466.683 236.773 466.623 237.064C466.588 237.238 466.519 237.382 466.416 237.496C466.313 237.611 466.19 237.699 466.048 237.76C465.902 237.821 465.75 237.858 465.591 237.871C465.431 237.883 465.278 237.875 465.13 237.845C464.984 237.815 464.85 237.743 464.727 237.627C464.605 237.51 464.514 237.361 464.455 237.182C464.396 237.002 464.388 236.805 464.432 236.591C464.495 236.277 464.636 236.061 464.854 235.943C465.073 235.823 465.341 235.795 465.66 235.86C466.053 235.94 466.327 236.088 466.483 236.306Z" fill="#59BB49"/>
<path d="M464.939 231.525L466.328 231.807L465.981 233.518L464.262 231.734C464.176 231.648 464.087 231.565 463.994 231.485C463.899 231.404 463.805 231.329 463.713 231.26L463.719 231.229C463.78 231.244 463.857 231.264 463.95 231.288C464.041 231.312 464.141 231.338 464.25 231.365C464.358 231.393 464.472 231.421 464.591 231.45C464.708 231.477 464.824 231.502 464.939 231.525Z" fill="#59BB49"/>
<path d="M460 219.5L475.5 221.5L472 243L456 240.5L460 219.5ZM463.55 238.401C463.859 238.511 464.179 238.6 464.508 238.667C464.921 238.751 465.293 238.775 465.622 238.738C465.948 238.701 466.232 238.613 466.472 238.476C466.713 238.339 466.908 238.162 467.058 237.946C467.209 237.726 467.313 237.478 467.369 237.2C467.446 236.822 467.435 236.481 467.338 236.177C467.241 235.87 467.064 235.614 466.809 235.408C466.553 235.199 466.228 235.054 465.832 234.974C465.465 234.899 465.139 234.902 464.854 234.983C464.57 235.06 464.335 235.207 464.151 235.422C463.964 235.636 463.837 235.907 463.771 236.233C463.726 236.453 463.718 236.652 463.745 236.83C463.77 237.008 463.821 237.164 463.897 237.299C463.973 237.434 464.067 237.553 464.179 237.656L464.17 237.702C463.778 237.603 463.44 237.467 463.157 237.293C462.871 237.118 462.667 236.881 462.544 236.582C462.419 236.283 462.404 235.899 462.499 235.429C462.523 235.312 462.555 235.196 462.594 235.081C462.633 234.965 462.677 234.859 462.726 234.765L461.979 234.614C461.938 234.701 461.897 234.814 461.859 234.952C461.82 235.09 461.789 235.216 461.766 235.328C461.678 235.762 461.664 236.146 461.724 236.479C461.781 236.812 461.895 237.103 462.065 237.35C462.236 237.594 462.449 237.802 462.704 237.974C462.959 238.145 463.241 238.287 463.55 238.401ZM467.255 231.071L467.409 230.313L466.663 230.161L466.509 230.919L462.872 230.18L462.694 231.057L465.876 234.366L466.557 234.505L467.075 231.959L468.303 232.209L468.484 231.32L467.255 231.071ZM468.762 229.951L469.532 226.161L468.743 226.001L468.205 228.65L468.163 228.642L467.414 227.481C467.186 227.116 466.97 226.797 466.768 226.525C466.563 226.252 466.345 226.029 466.114 225.858C465.883 225.686 465.617 225.569 465.316 225.508C465.017 225.447 464.741 225.465 464.488 225.559C464.236 225.651 464.021 225.814 463.843 226.046C463.663 226.278 463.537 226.571 463.465 226.926C463.408 227.207 463.391 227.463 463.412 227.696C463.432 227.929 463.478 228.146 463.551 228.347C463.625 228.545 463.713 228.735 463.814 228.918L464.508 228.545C464.376 228.29 464.284 228.05 464.231 227.827C464.176 227.6 464.173 227.366 464.222 227.124C464.274 226.868 464.386 226.677 464.558 226.55C464.728 226.422 464.948 226.386 465.218 226.441C465.437 226.486 465.631 226.571 465.799 226.699C465.968 226.823 466.139 226.997 466.311 227.221C466.481 227.444 466.68 227.725 466.909 228.064L468.084 229.813L468.762 229.951Z" fill="#59BB49"/>
</svg>
