<svg width="920" height="755" viewBox="0 0 920 755" fill="none" xmlns="http://www.w3.org/2000/svg">
<path d="M452.399 233.998C452.563 234.204 452.623 234.454 452.579 234.748C452.552 234.923 452.491 235.07 452.394 235.19C452.297 235.31 452.178 235.404 452.039 235.472C451.897 235.541 451.747 235.585 451.588 235.606C451.43 235.627 451.276 235.626 451.127 235.604C450.98 235.582 450.842 235.516 450.714 235.408C450.586 235.296 450.487 235.152 450.419 234.976C450.351 234.8 450.333 234.604 450.365 234.387C450.413 234.071 450.542 233.848 450.754 233.719C450.966 233.588 451.233 233.546 451.555 233.594C451.952 233.654 452.233 233.788 452.399 233.998Z" fill="#59BB49"/>
<path d="M450.612 229.302L452.014 229.513L451.755 231.24L449.947 229.546C449.857 229.464 449.763 229.385 449.667 229.31C449.567 229.235 449.47 229.165 449.374 229.101L449.379 229.07C449.44 229.081 449.518 229.097 449.613 229.117C449.705 229.136 449.806 229.156 449.916 229.178C450.026 229.2 450.141 229.222 450.261 229.246C450.379 229.266 450.496 229.285 450.612 229.302Z" fill="#59BB49"/>
<path d="M446 218L459.5 219.5L455.5 240.5L442.5 238.5L446 218ZM449.577 236.24C449.892 236.335 450.216 236.407 450.548 236.457C450.965 236.52 451.337 236.524 451.664 236.471C451.988 236.417 452.267 236.315 452.5 236.166C452.733 236.016 452.919 235.83 453.058 235.606C453.197 235.379 453.288 235.125 453.33 234.845C453.388 234.464 453.36 234.124 453.246 233.825C453.134 233.524 452.944 233.277 452.678 233.084C452.413 232.889 452.08 232.761 451.681 232.701C451.31 232.645 450.985 232.665 450.705 232.76C450.425 232.852 450.198 233.01 450.025 233.234C449.849 233.458 449.737 233.735 449.687 234.064C449.654 234.286 449.655 234.485 449.692 234.662C449.726 234.838 449.785 234.991 449.868 235.122C449.951 235.253 450.051 235.367 450.168 235.464L450.161 235.51C449.765 235.432 449.42 235.313 449.128 235.154C448.834 234.993 448.618 234.767 448.48 234.475C448.339 234.183 448.305 233.8 448.376 233.326C448.394 233.208 448.419 233.09 448.452 232.974C448.486 232.856 448.525 232.748 448.568 232.652L447.815 232.539C447.778 232.628 447.743 232.743 447.712 232.883C447.68 233.023 447.656 233.149 447.639 233.263C447.573 233.701 447.579 234.085 447.655 234.415C447.73 234.745 447.858 235.028 448.041 235.267C448.224 235.502 448.447 235.699 448.711 235.857C448.974 236.015 449.263 236.143 449.577 236.24ZM452.902 228.73L453.017 227.965L452.264 227.852L452.149 228.617L448.479 228.065L448.346 228.95L451.694 232.092L452.381 232.195L452.767 229.626L454.007 229.812L454.142 228.916L452.902 228.73ZM451.176 223.526C451.003 223.395 450.789 223.31 450.534 223.272C450.117 223.209 449.761 223.316 449.467 223.593C449.17 223.87 448.978 224.298 448.891 224.877C448.832 225.271 448.835 225.625 448.901 225.938C448.968 226.25 449.065 226.526 449.192 226.763L449.887 226.422C449.828 226.291 449.775 226.156 449.727 226.014C449.68 225.873 449.646 225.722 449.626 225.561C449.606 225.397 449.61 225.22 449.638 225.029C449.685 224.72 449.788 224.497 449.948 224.361C450.106 224.224 450.305 224.174 450.548 224.21C450.733 224.238 450.888 224.307 451.014 224.418C451.14 224.527 451.228 224.686 451.278 224.896C451.325 225.106 451.325 225.375 451.275 225.702L451.2 226.204L451.93 226.314L452.005 225.815C452.056 225.473 452.131 225.198 452.227 224.992C452.325 224.782 452.445 224.636 452.59 224.552C452.734 224.466 452.907 224.438 453.108 224.468C453.42 224.515 453.649 224.652 453.797 224.88C453.942 225.107 453.979 225.456 453.908 225.928C453.871 226.17 453.801 226.421 453.696 226.682C453.591 226.942 453.461 227.184 453.307 227.405L454.114 227.527C454.257 227.309 454.373 227.073 454.461 226.82C454.549 226.565 454.617 226.284 454.663 225.978C454.739 225.468 454.729 225.04 454.63 224.693C454.532 224.347 454.368 224.076 454.136 223.88C453.902 223.684 453.622 223.562 453.295 223.513C452.922 223.457 452.604 223.527 452.343 223.725C452.082 223.92 451.889 224.239 451.764 224.681L451.737 224.677C451.721 224.435 451.667 224.216 451.575 224.021C451.481 223.822 451.348 223.657 451.176 223.526Z" fill="#59BB49"/>
</svg>
