<svg width="920" height="755" viewBox="0 0 920 755" fill="none" xmlns="http://www.w3.org/2000/svg">
<path d="M438.399 231.998C438.563 232.204 438.623 232.454 438.579 232.748C438.552 232.923 438.491 233.07 438.394 233.19C438.297 233.31 438.178 233.404 438.039 233.472C437.897 233.541 437.747 233.585 437.588 233.606C437.43 233.627 437.276 233.626 437.127 233.604C436.98 233.582 436.842 233.516 436.714 233.408C436.586 233.296 436.487 233.152 436.419 232.976C436.351 232.8 436.333 232.604 436.365 232.387C436.413 232.071 436.542 231.848 436.754 231.719C436.966 231.588 437.233 231.546 437.555 231.594C437.952 231.654 438.233 231.788 438.399 231.998Z" fill="#59BB49"/>
<path d="M436.612 227.302L438.014 227.513L437.755 229.24L435.947 227.546C435.857 227.464 435.763 227.385 435.667 227.31C435.567 227.235 435.47 227.165 435.374 227.101L435.379 227.07C435.44 227.081 435.518 227.097 435.613 227.117C435.705 227.136 435.806 227.156 435.916 227.178C436.026 227.2 436.141 227.222 436.261 227.246C436.379 227.266 436.496 227.285 436.612 227.302Z" fill="#59BB49"/>
<path d="M437.31 222.656L438.712 222.867L438.453 224.594L436.645 222.9C436.555 222.818 436.461 222.739 436.365 222.664C436.265 222.589 436.168 222.519 436.072 222.455L436.077 222.424C436.138 222.436 436.216 222.451 436.311 222.471C436.403 222.49 436.504 222.51 436.614 222.532C436.724 222.554 436.839 222.576 436.959 222.6C437.077 222.62 437.194 222.639 437.31 222.656Z" fill="#59BB49"/>
<path d="M433 215.5L445.5 217.5L442 238.5L429.5 236.5L433 215.5ZM435.577 234.24C435.892 234.335 436.216 234.407 436.548 234.457C436.965 234.52 437.337 234.524 437.664 234.471C437.988 234.417 438.267 234.315 438.5 234.166C438.733 234.016 438.919 233.83 439.058 233.606C439.197 233.379 439.288 233.125 439.33 232.845C439.388 232.464 439.36 232.124 439.246 231.825C439.134 231.524 438.944 231.277 438.678 231.084C438.413 230.889 438.08 230.761 437.681 230.701C437.31 230.645 436.985 230.665 436.705 230.76C436.425 230.852 436.198 231.01 436.025 231.234C435.849 231.458 435.737 231.735 435.687 232.064C435.654 232.286 435.655 232.485 435.692 232.662C435.726 232.838 435.785 232.991 435.868 233.122C435.951 233.253 436.051 233.367 436.168 233.464L436.161 233.51C435.765 233.432 435.42 233.313 435.128 233.154C434.834 232.993 434.618 232.767 434.48 232.475C434.339 232.183 434.305 231.8 434.376 231.326C434.394 231.208 434.419 231.09 434.452 230.974C434.486 230.856 434.525 230.748 434.568 230.652L433.815 230.539C433.778 230.628 433.743 230.743 433.712 230.883C433.68 231.023 433.656 231.149 433.639 231.263C433.573 231.701 433.579 232.085 433.655 232.415C433.73 232.745 433.858 233.028 434.041 233.267C434.224 233.502 434.447 233.699 434.711 233.857C434.974 234.015 435.263 234.143 435.577 234.24ZM438.902 226.73L439.017 225.965L438.264 225.852L438.149 226.617L434.479 226.065L434.346 226.95L437.694 230.092L438.381 230.195L438.767 227.626L440.007 227.812L440.142 226.916L438.902 226.73ZM439.6 222.084L439.715 221.319L438.962 221.206L438.847 221.971L435.177 221.419L435.044 222.304L438.392 225.446L439.08 225.549L439.465 222.98L440.705 223.167L440.84 222.27L439.6 222.084Z" fill="#59BB49"/>
</svg>
