<svg width="920" height="755" viewBox="0 0 920 755" fill="none" xmlns="http://www.w3.org/2000/svg">
<path d="M425.399 228.998C425.563 229.204 425.623 229.454 425.579 229.748C425.552 229.923 425.491 230.07 425.394 230.19C425.297 230.31 425.178 230.404 425.039 230.472C424.897 230.541 424.747 230.585 424.588 230.606C424.43 230.627 424.276 230.626 424.127 230.604C423.98 230.582 423.842 230.516 423.714 230.408C423.586 230.296 423.487 230.152 423.419 229.976C423.351 229.8 423.333 229.604 423.365 229.387C423.413 229.071 423.542 228.848 423.754 228.719C423.966 228.588 424.233 228.546 424.555 228.594C424.952 228.654 425.233 228.788 425.399 228.998Z" fill="#59BB49"/>
<path d="M423.612 224.302L425.014 224.513L424.755 226.24L422.947 224.546C422.857 224.464 422.763 224.385 422.667 224.31C422.567 224.235 422.47 224.165 422.374 224.101L422.379 224.07C422.44 224.081 422.518 224.097 422.613 224.117C422.705 224.136 422.806 224.156 422.916 224.178C423.026 224.2 423.141 224.222 423.261 224.246C423.379 224.266 423.496 224.285 423.612 224.302Z" fill="#59BB49"/>
<path d="M418.5 213.5L432.5 215.5L429 236.5L416 234.5L418.5 213.5ZM422.577 231.24C422.892 231.335 423.216 231.407 423.548 231.457C423.965 231.52 424.337 231.524 424.664 231.471C424.988 231.417 425.267 231.315 425.5 231.166C425.733 231.016 425.919 230.83 426.058 230.606C426.197 230.379 426.288 230.125 426.33 229.845C426.388 229.464 426.36 229.124 426.246 228.825C426.134 228.524 425.944 228.277 425.678 228.084C425.413 227.889 425.08 227.761 424.681 227.701C424.31 227.645 423.985 227.665 423.705 227.76C423.425 227.852 423.198 228.01 423.025 228.234C422.849 228.458 422.737 228.735 422.687 229.064C422.654 229.286 422.655 229.485 422.692 229.662C422.726 229.838 422.785 229.991 422.868 230.122C422.951 230.253 423.051 230.367 423.168 230.464L423.161 230.51C422.765 230.432 422.42 230.313 422.128 230.154C421.834 229.993 421.618 229.767 421.48 229.475C421.339 229.183 421.305 228.8 421.376 228.326C421.394 228.208 421.419 228.09 421.452 227.974C421.486 227.856 421.525 227.748 421.568 227.652L420.815 227.539C420.778 227.628 420.743 227.743 420.712 227.883C420.68 228.023 420.656 228.149 420.639 228.263C420.573 228.701 420.579 229.085 420.655 229.415C420.73 229.745 420.858 230.028 421.041 230.267C421.224 230.502 421.447 230.699 421.711 230.857C421.974 231.015 422.263 231.143 422.577 231.24ZM425.902 223.73L426.017 222.965L425.264 222.852L425.149 223.617L421.479 223.065L421.346 223.95L424.694 227.092L425.381 227.195L425.767 224.626L427.007 224.812L427.142 223.916L425.902 223.73ZM424.448 219.156C424.276 219.412 424.162 219.721 424.107 220.084C424.079 220.275 424.065 220.436 424.066 220.568C424.065 220.699 424.068 220.813 424.074 220.909L422.687 220.574L423.008 218.438L422.208 218.317L421.767 221.253L424.497 221.881L424.793 221.518C424.779 221.398 424.772 221.249 424.773 221.073C424.771 220.893 424.781 220.727 424.804 220.572C424.871 220.132 425.008 219.822 425.217 219.642C425.423 219.46 425.689 219.393 426.013 219.442C426.258 219.479 426.452 219.561 426.596 219.688C426.741 219.812 426.838 219.974 426.887 220.174C426.936 220.373 426.94 220.605 426.901 220.867C426.864 221.114 426.792 221.368 426.684 221.629C426.574 221.889 426.45 222.107 426.313 222.284L427.132 222.407C427.263 222.237 427.373 222.028 427.463 221.781C427.553 221.531 427.62 221.258 427.665 220.962C427.735 220.496 427.717 220.089 427.611 219.742C427.506 219.394 427.322 219.115 427.062 218.904C426.798 218.694 426.468 218.559 426.072 218.499C425.709 218.444 425.391 218.476 425.118 218.593C424.842 218.709 424.619 218.897 424.448 219.156Z" fill="#59BB49"/>
</svg>
