<svg width="920" height="755" viewBox="0 0 920 755" fill="none" xmlns="http://www.w3.org/2000/svg">
<path d="M411.399 226.998C411.563 227.204 411.623 227.454 411.579 227.748C411.552 227.923 411.491 228.07 411.394 228.19C411.297 228.31 411.178 228.404 411.039 228.472C410.897 228.541 410.747 228.585 410.588 228.606C410.43 228.627 410.276 228.626 410.127 228.604C409.98 228.582 409.842 228.516 409.714 228.408C409.586 228.296 409.487 228.152 409.419 227.976C409.351 227.8 409.333 227.604 409.365 227.387C409.413 227.071 409.542 226.848 409.754 226.719C409.966 226.588 410.233 226.546 410.555 226.594C410.952 226.654 411.233 226.788 411.399 226.998Z" fill="#59BB49"/>
<path d="M409.612 222.302L411.014 222.513L410.755 224.24L408.947 222.546C408.857 222.464 408.763 222.385 408.667 222.31C408.567 222.235 408.47 222.165 408.374 222.101L408.379 222.07C408.44 222.081 408.518 222.097 408.613 222.117C408.705 222.136 408.806 222.156 408.916 222.178C409.026 222.2 409.141 222.222 409.261 222.246C409.379 222.266 409.496 222.285 409.612 222.302Z" fill="#59BB49"/>
<path d="M412.795 217.706C412.959 217.912 413.019 218.162 412.975 218.456C412.948 218.631 412.887 218.778 412.79 218.898C412.693 219.018 412.575 219.112 412.435 219.18C412.293 219.249 412.143 219.293 411.985 219.314C411.826 219.335 411.672 219.334 411.523 219.312C411.376 219.29 411.238 219.224 411.11 219.116C410.982 219.004 410.884 218.86 410.815 218.684C410.747 218.508 410.729 218.312 410.761 218.095C410.809 217.779 410.939 217.556 411.15 217.427C411.362 217.296 411.629 217.254 411.951 217.302C412.348 217.362 412.629 217.497 412.795 217.706Z" fill="#59BB49"/>
<path d="M405 211.5L418 213.5L415.5 234.5L402.5 232L405 211.5ZM408.577 229.24C408.892 229.335 409.216 229.407 409.548 229.457C409.965 229.52 410.337 229.524 410.664 229.471C410.988 229.417 411.267 229.315 411.5 229.166C411.733 229.016 411.919 228.83 412.058 228.606C412.197 228.379 412.288 228.125 412.33 227.845C412.388 227.464 412.36 227.124 412.246 226.825C412.134 226.524 411.944 226.277 411.678 226.084C411.413 225.889 411.08 225.761 410.681 225.701C410.31 225.645 409.985 225.665 409.705 225.76C409.425 225.852 409.198 226.01 409.025 226.234C408.849 226.458 408.737 226.735 408.687 227.064C408.654 227.286 408.655 227.485 408.692 227.662C408.726 227.838 408.785 227.991 408.868 228.122C408.951 228.253 409.051 228.367 409.168 228.464L409.161 228.51C408.765 228.432 408.42 228.313 408.128 228.154C407.834 227.993 407.618 227.767 407.48 227.475C407.339 227.183 407.305 226.8 407.376 226.326C407.394 226.208 407.419 226.09 407.452 225.974C407.486 225.856 407.525 225.748 407.568 225.652L406.815 225.539C406.778 225.628 406.743 225.743 406.712 225.883C406.68 226.023 406.656 226.149 406.639 226.263C406.573 226.701 406.579 227.085 406.655 227.415C406.73 227.745 406.858 228.028 407.041 228.267C407.224 228.502 407.447 228.699 407.711 228.857C407.974 229.015 408.263 229.143 408.577 229.24ZM411.902 221.73L412.017 220.965L411.264 220.852L411.149 221.617L407.479 221.065L407.346 221.95L410.694 225.092L411.381 225.195L411.767 222.626L413.007 222.812L413.142 221.916L411.902 221.73ZM409.974 219.948C410.288 220.043 410.612 220.115 410.944 220.165C411.361 220.228 411.733 220.232 412.06 220.179C412.384 220.125 412.663 220.023 412.896 219.874C413.129 219.724 413.315 219.538 413.454 219.314C413.593 219.087 413.684 218.834 413.726 218.553C413.784 218.172 413.756 217.832 413.643 217.533C413.53 217.232 413.341 216.985 413.075 216.792C412.809 216.597 412.477 216.469 412.077 216.409C411.707 216.353 411.381 216.373 411.101 216.468C410.821 216.56 410.595 216.718 410.421 216.942C410.245 217.166 410.133 217.443 410.083 217.772C410.05 217.994 410.052 218.193 410.088 218.37C410.122 218.546 410.181 218.7 410.264 218.83C410.347 218.961 410.447 219.075 410.564 219.172L410.557 219.218C410.161 219.14 409.817 219.021 409.525 218.862C409.23 218.701 409.014 218.475 408.876 218.183C408.736 217.891 408.701 217.508 408.772 217.034C408.79 216.916 408.815 216.798 408.849 216.682C408.882 216.564 408.921 216.456 408.964 216.36L408.211 216.247C408.174 216.336 408.14 216.451 408.108 216.591C408.076 216.731 408.052 216.858 408.035 216.971C407.969 217.409 407.975 217.793 408.052 218.123C408.126 218.453 408.254 218.737 408.437 218.975C408.62 219.21 408.843 219.407 409.107 219.565C409.37 219.723 409.659 219.851 409.974 219.948Z" fill="#59BB49"/>
</svg>
