<svg width="920" height="755" viewBox="0 0 920 755" fill="none" xmlns="http://www.w3.org/2000/svg">
<path d="M394.399 224.998C394.563 225.204 394.623 225.454 394.579 225.748C394.552 225.923 394.491 226.07 394.394 226.19C394.297 226.31 394.178 226.404 394.039 226.472C393.897 226.541 393.747 226.585 393.588 226.606C393.43 226.627 393.276 226.626 393.127 226.604C392.98 226.582 392.842 226.516 392.714 226.408C392.586 226.296 392.487 226.152 392.419 225.976C392.351 225.8 392.333 225.604 392.365 225.387C392.413 225.071 392.542 224.848 392.754 224.719C392.966 224.588 393.233 224.546 393.555 224.594C393.952 224.654 394.233 224.788 394.399 224.998Z" fill="#59BB49"/>
<path d="M392.612 220.302L394.014 220.513L393.755 222.24L391.947 220.546C391.857 220.464 391.763 220.385 391.667 220.31C391.567 220.235 391.47 220.165 391.374 220.101L391.379 220.07C391.44 220.081 391.518 220.097 391.613 220.117C391.705 220.136 391.806 220.156 391.916 220.178C392.026 220.2 392.141 220.222 392.261 220.246C392.379 220.266 392.496 220.285 392.612 220.302Z" fill="#59BB49"/>
<path d="M376 228.5L385 222.5L375.5 207.5L404.5 211.5L402 232L376 228.5ZM391.577 227.24C391.892 227.335 392.216 227.407 392.548 227.457C392.965 227.52 393.337 227.524 393.664 227.471C393.988 227.417 394.267 227.315 394.5 227.166C394.733 227.016 394.919 226.83 395.058 226.606C395.197 226.379 395.288 226.125 395.33 225.845C395.388 225.464 395.36 225.124 395.246 224.825C395.134 224.524 394.944 224.277 394.678 224.084C394.413 223.889 394.08 223.761 393.681 223.701C393.31 223.645 392.985 223.665 392.705 223.76C392.425 223.852 392.198 224.01 392.025 224.234C391.849 224.458 391.737 224.735 391.687 225.064C391.654 225.286 391.655 225.485 391.692 225.662C391.726 225.838 391.785 225.991 391.868 226.122C391.951 226.253 392.051 226.367 392.168 226.464L392.161 226.51C391.765 226.432 391.42 226.313 391.128 226.154C390.834 225.993 390.618 225.767 390.48 225.475C390.339 225.183 390.305 224.8 390.376 224.326C390.394 224.208 390.419 224.09 390.452 223.974C390.486 223.855 390.525 223.748 390.568 223.652L389.815 223.539C389.778 223.628 389.743 223.743 389.712 223.883C389.68 224.023 389.656 224.149 389.639 224.263C389.573 224.701 389.579 225.085 389.655 225.415C389.73 225.745 389.858 226.028 390.041 226.267C390.224 226.502 390.447 226.699 390.711 226.857C390.974 227.015 391.263 227.143 391.577 227.24ZM394.902 219.73L395.017 218.965L394.264 218.852L394.149 219.617L390.479 219.065L390.346 219.95L393.694 223.092L394.381 223.195L394.767 220.626L396.007 220.812L396.142 219.916L394.902 219.73ZM391.928 214.943L396.447 217.889L396.593 216.912L391.901 213.94L391.279 213.846L390.692 217.755L391.487 217.875L391.928 214.943Z" fill="#59BB49"/>
</svg>
