<svg width="920" height="755" viewBox="0 0 920 755" fill="none" xmlns="http://www.w3.org/2000/svg">
<path d="M393.535 244.934C393.706 245.135 393.774 245.382 393.739 245.677C393.718 245.853 393.661 246.003 393.568 246.125C393.475 246.248 393.36 246.346 393.223 246.419C393.084 246.492 392.935 246.541 392.777 246.567C392.619 246.593 392.465 246.598 392.315 246.58C392.168 246.563 392.028 246.502 391.896 246.397C391.765 246.29 391.662 246.149 391.588 245.975C391.514 245.802 391.49 245.606 391.515 245.389C391.553 245.071 391.675 244.844 391.882 244.708C392.09 244.57 392.355 244.52 392.679 244.558C393.077 244.605 393.363 244.73 393.535 244.934Z" fill="#59BB49"/>
<path d="M391.598 240.298L393.006 240.464L392.802 242.198L390.941 240.563C390.848 240.484 390.752 240.409 390.653 240.337C390.552 240.265 390.452 240.198 390.354 240.137L390.358 240.105C390.42 240.115 390.498 240.128 390.593 240.145C390.686 240.161 390.787 240.178 390.898 240.196C391.008 240.215 391.124 240.233 391.245 240.253C391.364 240.269 391.481 240.285 391.598 240.298Z" fill="#59BB49"/>
<path d="M394.547 237.192C394.366 237.349 394.151 237.413 393.903 237.384C393.729 237.364 393.58 237.307 393.455 237.214C393.329 237.118 393.222 236.991 393.133 236.834C393.042 236.676 392.965 236.491 392.903 236.28L392.968 236.161C393.076 235.985 393.189 235.827 393.307 235.686C393.424 235.542 393.551 235.433 393.688 235.357C393.826 235.279 393.978 235.249 394.143 235.269C394.402 235.299 394.599 235.414 394.736 235.614C394.872 235.813 394.92 236.086 394.88 236.433C394.839 236.782 394.728 237.035 394.547 237.192Z" fill="#59BB49"/>
<path d="M390.566 236.556C390.461 236.378 390.423 236.164 390.453 235.913C390.483 235.655 390.57 235.452 390.713 235.307C390.854 235.158 391.038 235.097 391.265 235.124C391.431 235.143 391.569 235.199 391.678 235.29C391.786 235.379 391.875 235.493 391.945 235.632C392.013 235.769 392.073 235.92 392.124 236.086C392.032 236.24 391.937 236.38 391.839 236.505C391.738 236.629 391.624 236.725 391.498 236.791C391.373 236.855 391.229 236.877 391.066 236.858C390.835 236.831 390.669 236.73 390.566 236.556Z" fill="#59BB49"/>
<path d="M399 253L402 232.5L376.5 229L389.5 252L399 253ZM390.788 247.266C390.47 247.179 390.177 247.06 389.909 246.911C389.641 246.761 389.411 246.572 389.22 246.342C389.03 246.11 388.892 245.831 388.808 245.503C388.72 245.176 388.702 244.792 388.754 244.353C388.767 244.239 388.788 244.111 388.815 243.97C388.842 243.829 388.872 243.714 388.907 243.623L389.663 243.712C389.623 243.81 389.588 243.918 389.558 244.038C389.528 244.155 389.507 244.273 389.493 244.392C389.437 244.868 389.484 245.25 389.634 245.537C389.781 245.825 390.004 246.044 390.304 246.194C390.601 246.345 390.949 246.452 391.347 246.517L391.353 246.471C391.233 246.378 391.129 246.268 391.042 246.139C390.955 246.011 390.891 245.859 390.851 245.684C390.809 245.509 390.801 245.31 390.827 245.088C390.866 244.757 390.97 244.476 391.138 244.247C391.304 244.017 391.525 243.852 391.802 243.751C392.079 243.647 392.404 243.617 392.776 243.661C393.177 243.708 393.513 243.825 393.785 244.011C394.057 244.195 394.254 244.436 394.377 244.734C394.5 245.029 394.538 245.367 394.493 245.75C394.46 246.032 394.378 246.289 394.246 246.52C394.114 246.748 393.934 246.94 393.706 247.097C393.478 247.254 393.203 247.365 392.88 247.429C392.556 247.493 392.184 247.501 391.765 247.451C391.431 247.412 391.105 247.35 390.788 247.266ZM393.868 239.652L395.114 239.799L395.008 240.699L393.763 240.552L393.46 243.132L392.769 243.051L389.322 240.019L389.426 239.131L393.112 239.564L393.202 238.795L393.958 238.884L393.868 239.652ZM390.011 234.953C390.143 234.701 390.319 234.509 390.539 234.378C390.759 234.246 391.017 234.198 391.315 234.233C391.545 234.26 391.74 234.331 391.899 234.447C392.059 234.56 392.194 234.704 392.305 234.88C392.413 235.055 392.504 235.248 392.579 235.459C392.714 235.249 392.863 235.06 393.027 234.89C393.189 234.718 393.371 234.586 393.573 234.494C393.776 234.4 394.004 234.368 394.257 234.397C394.575 234.435 394.841 234.549 395.055 234.739C395.266 234.926 395.418 235.171 395.511 235.473C395.602 235.774 395.625 236.117 395.58 236.5C395.531 236.911 395.429 237.254 395.274 237.529C395.118 237.805 394.919 238.004 394.677 238.128C394.431 238.251 394.151 238.294 393.835 238.257C393.574 238.227 393.354 238.148 393.175 238.022C392.995 237.896 392.846 237.739 392.727 237.549C392.608 237.357 392.513 237.15 392.442 236.929C392.315 237.095 392.177 237.244 392.027 237.376C391.876 237.508 391.708 237.608 391.524 237.675C391.338 237.74 391.13 237.759 390.9 237.732C390.605 237.697 390.368 237.589 390.187 237.408C390.004 237.227 389.876 236.998 389.803 236.722C389.731 236.443 389.714 236.144 389.752 235.823C389.79 235.495 389.877 235.205 390.011 234.953Z" fill="#59BB49"/>
</svg>
