<svg width="920" height="755" viewBox="0 0 920 755" fill="none" xmlns="http://www.w3.org/2000/svg">
<path d="M409.399 247.998C409.563 248.204 409.623 248.454 409.579 248.748C409.552 248.923 409.491 249.07 409.394 249.19C409.297 249.31 409.178 249.404 409.039 249.472C408.897 249.541 408.747 249.585 408.588 249.606C408.43 249.627 408.276 249.626 408.127 249.604C407.98 249.582 407.842 249.516 407.714 249.408C407.586 249.296 407.487 249.152 407.419 248.976C407.351 248.8 407.333 248.604 407.365 248.387C407.413 248.071 407.542 247.848 407.754 247.719C407.966 247.588 408.233 247.546 408.555 247.594C408.952 247.654 409.233 247.788 409.399 247.998Z" fill="#59BB49"/>
<path d="M407.612 243.302L409.014 243.513L408.755 245.24L406.947 243.546C406.857 243.464 406.763 243.385 406.667 243.31C406.567 243.235 406.47 243.165 406.374 243.101L406.379 243.07C406.44 243.081 406.518 243.097 406.613 243.117C406.705 243.136 406.806 243.156 406.916 243.178C407.026 243.2 407.141 243.222 407.261 243.246C407.379 243.266 407.496 243.285 407.612 243.302Z" fill="#59BB49"/>
<path d="M406.839 239.691C406.673 239.482 406.611 239.235 406.654 238.949C406.681 238.771 406.744 238.623 406.844 238.503C406.941 238.381 407.06 238.285 407.199 238.217C407.338 238.148 407.487 238.105 407.645 238.086C407.804 238.065 407.959 238.066 408.111 238.089C408.258 238.111 408.395 238.178 408.523 238.289C408.652 238.398 408.75 238.541 408.818 238.717C408.885 238.89 408.901 239.087 408.868 239.309C408.82 239.628 408.69 239.851 408.479 239.977C408.268 240.104 408.001 240.143 407.679 240.094C407.283 240.035 407.003 239.9 406.839 239.691Z" fill="#59BB49"/>
<path d="M399.5 253L412.5 255L415.5 235L402.5 232.5L399.5 253ZM406.577 250.24C406.263 250.143 405.974 250.015 405.711 249.857C405.447 249.699 405.224 249.502 405.041 249.267C404.858 249.028 404.73 248.745 404.655 248.415C404.579 248.085 404.573 247.701 404.639 247.263C404.656 247.149 404.68 247.023 404.712 246.883C404.743 246.743 404.778 246.628 404.815 246.539L405.568 246.652C405.525 246.748 405.486 246.856 405.452 246.974C405.419 247.09 405.394 247.208 405.376 247.326C405.305 247.8 405.339 248.183 405.48 248.475C405.618 248.767 405.834 248.993 406.128 249.154C406.42 249.313 406.765 249.432 407.161 249.51L407.168 249.464C407.051 249.367 406.951 249.253 406.868 249.122C406.785 248.991 406.726 248.838 406.692 248.662C406.655 248.485 406.654 248.286 406.687 248.064C406.737 247.735 406.849 247.458 407.025 247.234C407.198 247.01 407.425 246.852 407.705 246.76C407.985 246.665 408.31 246.645 408.681 246.701C409.08 246.761 409.413 246.889 409.678 247.084C409.944 247.277 410.134 247.524 410.246 247.825C410.36 248.124 410.388 248.464 410.33 248.845C410.288 249.125 410.197 249.379 410.058 249.606C409.919 249.83 409.733 250.016 409.5 250.166C409.267 250.315 408.988 250.417 408.664 250.471C408.337 250.524 407.965 250.52 407.548 250.457C407.216 250.407 406.892 250.335 406.577 250.24ZM409.902 242.73L411.142 242.916L411.007 243.812L409.767 243.626L409.381 246.195L408.694 246.092L405.346 242.95L405.479 242.065L409.149 242.617L409.264 241.852L410.017 241.965L409.902 242.73ZM409.656 237.452C409.971 237.547 410.26 237.675 410.523 237.835C410.786 237.993 411.011 238.192 411.196 238.43C411.379 238.666 411.508 238.949 411.582 239.278C411.656 239.608 411.66 239.993 411.594 240.434C411.577 240.544 411.552 240.672 411.517 240.817C411.485 240.96 411.452 241.076 411.417 241.165L410.66 241.052C410.703 240.958 410.743 240.852 410.779 240.734C410.813 240.612 410.839 240.491 410.857 240.37C410.929 239.894 410.896 239.51 410.758 239.218C410.62 238.923 410.404 238.697 410.109 238.54C409.814 238.379 409.47 238.262 409.076 238.187L409.069 238.233C409.181 238.326 409.28 238.437 409.366 238.566C409.45 238.695 409.51 238.847 409.546 239.024C409.581 239.2 409.58 239.408 409.544 239.648C409.495 239.972 409.384 240.245 409.211 240.467C409.039 240.686 408.812 240.842 408.532 240.937C408.25 241.029 407.924 241.047 407.556 240.992C407.157 240.932 406.825 240.805 406.559 240.609C406.293 240.414 406.104 240.166 405.991 239.864C405.876 239.563 405.847 239.224 405.903 238.848C405.946 238.564 406.037 238.311 406.176 238.087C406.312 237.86 406.499 237.672 406.734 237.523C406.967 237.374 407.247 237.272 407.574 237.219C407.898 237.165 408.268 237.169 408.682 237.231C409.017 237.281 409.342 237.355 409.656 237.452Z" fill="#59BB49"/>
</svg>
