<svg width="920" height="755" viewBox="0 0 920 755" fill="none" xmlns="http://www.w3.org/2000/svg">
<path d="M422.399 249.998C422.563 250.204 422.623 250.454 422.579 250.748C422.552 250.923 422.491 251.07 422.394 251.19C422.297 251.31 422.178 251.404 422.039 251.472C421.897 251.541 421.747 251.585 421.588 251.606C421.43 251.627 421.276 251.626 421.127 251.604C420.98 251.582 420.842 251.516 420.714 251.408C420.586 251.296 420.487 251.152 420.419 250.976C420.351 250.8 420.333 250.604 420.365 250.387C420.413 250.071 420.542 249.848 420.754 249.719C420.966 249.588 421.233 249.546 421.555 249.594C421.952 249.654 422.233 249.788 422.399 249.998Z" fill="#59BB49"/>
<path d="M422.865 242.292C422.537 242.306 422.134 242.277 421.658 242.206C421.184 242.134 420.792 242.044 420.482 241.934C420.172 241.822 419.949 241.682 419.811 241.513C419.67 241.342 419.619 241.133 419.656 240.886C419.693 240.639 419.804 240.454 419.988 240.331C420.17 240.209 420.425 240.139 420.754 240.123C421.083 240.106 421.485 240.134 421.959 240.205C422.438 240.277 422.832 240.37 423.141 240.485C423.451 240.597 423.673 240.739 423.808 240.909C423.943 241.08 423.992 241.287 423.955 241.532C423.919 241.776 423.811 241.96 423.632 242.084C423.45 242.206 423.194 242.276 422.865 242.292Z" fill="#59BB49"/>
<path d="M416 235L429 237L426 257L413 255L416 235ZM419.577 252.24C419.892 252.335 420.216 252.407 420.548 252.457C420.965 252.52 421.337 252.524 421.664 252.471C421.988 252.417 422.267 252.315 422.5 252.166C422.733 252.016 422.919 251.83 423.058 251.606C423.197 251.379 423.288 251.125 423.33 250.845C423.388 250.464 423.36 250.124 423.246 249.825C423.134 249.524 422.944 249.277 422.678 249.084C422.413 248.889 422.08 248.761 421.681 248.701C421.31 248.645 420.985 248.665 420.705 248.76C420.425 248.852 420.198 249.01 420.025 249.234C419.849 249.458 419.737 249.735 419.687 250.064C419.654 250.286 419.655 250.485 419.692 250.662C419.726 250.838 419.785 250.991 419.868 251.122C419.951 251.253 420.051 251.367 420.168 251.464L420.161 251.51C419.765 251.432 419.42 251.313 419.128 251.154C418.834 250.993 418.618 250.767 418.48 250.475C418.339 250.183 418.305 249.8 418.376 249.326C418.394 249.208 418.419 249.09 418.452 248.974C418.486 248.856 418.525 248.748 418.568 248.652L417.815 248.539C417.778 248.628 417.743 248.743 417.712 248.883C417.68 249.023 417.656 249.149 417.639 249.263C417.573 249.701 417.579 250.085 417.655 250.415C417.73 250.745 417.858 251.028 418.041 251.267C418.224 251.502 418.447 251.699 418.711 251.857C418.974 252.015 419.263 252.143 419.577 252.24ZM420.75 244.802C420.578 245.057 420.464 245.367 420.409 245.73C420.381 245.921 420.367 246.082 420.368 246.214C420.367 246.345 420.37 246.459 420.376 246.555L418.989 246.22L419.31 244.084L418.51 243.963L418.069 246.899L420.799 247.527L421.095 247.164C421.081 247.044 421.074 246.895 421.075 246.719C421.073 246.539 421.083 246.372 421.106 246.218C421.173 245.778 421.31 245.468 421.519 245.288C421.725 245.106 421.991 245.039 422.315 245.088C422.56 245.125 422.754 245.207 422.898 245.334C423.043 245.458 423.14 245.62 423.189 245.82C423.238 246.019 423.242 246.251 423.203 246.513C423.166 246.76 423.093 247.014 422.986 247.275C422.876 247.535 422.752 247.753 422.615 247.93L423.434 248.053C423.565 247.883 423.675 247.674 423.765 247.427C423.855 247.177 423.922 246.904 423.967 246.608C424.037 246.142 424.019 245.735 423.913 245.388C423.807 245.04 423.624 244.761 423.364 244.55C423.1 244.34 422.77 244.205 422.374 244.145C422.011 244.09 421.693 244.122 421.42 244.239C421.144 244.355 420.921 244.543 420.75 244.802ZM423.305 239.577C422.955 239.451 422.552 239.354 422.097 239.285C421.486 239.194 420.954 239.185 420.501 239.259C420.045 239.33 419.681 239.491 419.409 239.743C419.135 239.991 418.965 240.334 418.899 240.772C418.829 241.236 418.889 241.625 419.079 241.941C419.268 242.256 419.571 242.51 419.988 242.701C420.402 242.89 420.913 243.03 421.52 243.121C422.128 243.213 422.66 243.223 423.116 243.152C423.569 243.08 423.932 242.92 424.207 242.672C424.479 242.423 424.647 242.081 424.713 241.646C424.765 241.298 424.744 240.992 424.649 240.727C424.554 240.463 424.394 240.236 424.167 240.047C423.94 239.857 423.652 239.701 423.305 239.577Z" fill="#59BB49"/>
</svg>
