<svg width="920" height="755" viewBox="0 0 920 755" fill="none" xmlns="http://www.w3.org/2000/svg">
<path d="M435.399 251.998C435.563 252.204 435.623 252.454 435.579 252.748C435.552 252.923 435.491 253.07 435.394 253.19C435.297 253.31 435.178 253.404 435.039 253.472C434.897 253.541 434.747 253.585 434.588 253.606C434.43 253.627 434.276 253.626 434.127 253.604C433.98 253.582 433.842 253.516 433.714 253.408C433.586 253.296 433.487 253.152 433.419 252.976C433.351 252.8 433.333 252.604 433.365 252.387C433.413 252.071 433.542 251.848 433.754 251.719C433.966 251.588 434.233 251.546 434.555 251.594C434.952 251.654 435.233 251.788 435.399 251.998Z" fill="#59BB49"/>
<path d="M429.5 237L442 239L439 259L426.5 257L429.5 237ZM432.577 254.24C432.892 254.335 433.216 254.407 433.548 254.457C433.965 254.52 434.337 254.524 434.664 254.471C434.988 254.417 435.267 254.315 435.5 254.166C435.733 254.016 435.919 253.83 436.058 253.606C436.197 253.379 436.288 253.125 436.33 252.845C436.388 252.464 436.36 252.124 436.246 251.825C436.134 251.524 435.944 251.277 435.678 251.084C435.413 250.889 435.08 250.761 434.681 250.701C434.31 250.645 433.985 250.665 433.705 250.76C433.425 250.852 433.198 251.01 433.025 251.234C432.849 251.458 432.737 251.735 432.687 252.064C432.654 252.286 432.655 252.485 432.692 252.662C432.726 252.838 432.785 252.991 432.868 253.122C432.951 253.253 433.051 253.367 433.168 253.464L433.161 253.51C432.765 253.432 432.42 253.313 432.128 253.154C431.834 252.993 431.618 252.767 431.48 252.475C431.339 252.183 431.305 251.8 431.376 251.326C431.394 251.208 431.419 251.09 431.452 250.974C431.486 250.856 431.525 250.748 431.568 250.652L430.815 250.539C430.778 250.628 430.743 250.743 430.712 250.883C430.68 251.023 430.656 251.149 430.639 251.263C430.573 251.701 430.579 252.085 430.655 252.415C430.73 252.745 430.858 253.028 431.041 253.267C431.224 253.502 431.447 253.699 431.711 253.857C431.974 254.015 432.263 254.143 432.577 254.24ZM433.75 246.802C433.578 247.057 433.464 247.367 433.409 247.73C433.381 247.921 433.367 248.082 433.368 248.214C433.367 248.345 433.37 248.459 433.376 248.555L431.989 248.22L432.31 246.084L431.51 245.963L431.069 248.899L433.799 249.527L434.095 249.164C434.081 249.044 434.074 248.895 434.075 248.719C434.073 248.539 434.083 248.372 434.106 248.218C434.173 247.778 434.31 247.468 434.519 247.288C434.725 247.106 434.991 247.039 435.315 247.088C435.56 247.125 435.754 247.207 435.898 247.334C436.043 247.458 436.14 247.62 436.189 247.82C436.238 248.019 436.242 248.251 436.203 248.513C436.166 248.76 436.093 249.014 435.986 249.275C435.876 249.535 435.752 249.753 435.615 249.93L436.434 250.053C436.565 249.883 436.675 249.674 436.765 249.427C436.855 249.177 436.922 248.904 436.967 248.608C437.037 248.142 437.019 247.735 436.913 247.388C436.807 247.04 436.624 246.761 436.364 246.55C436.1 246.34 435.77 246.205 435.374 246.145C435.011 246.09 434.693 246.122 434.42 246.239C434.144 246.355 433.921 246.543 433.75 246.802ZM437.614 243.777L437.751 242.865L432.103 242.017L431.989 242.774L433.051 244.648L433.695 244.278L433.275 243.552C433.213 243.453 433.154 243.359 433.096 243.272C433.038 243.182 432.984 243.105 432.933 243.042C433.037 243.065 433.147 243.089 433.262 243.111L433.616 243.172C433.737 243.193 433.858 243.212 433.979 243.231L437.614 243.777Z" fill="#59BB49"/>
</svg>
