<svg width="920" height="755" viewBox="0 0 920 755" fill="none" xmlns="http://www.w3.org/2000/svg">
<path d="M449.399 253.998C449.563 254.204 449.623 254.454 449.579 254.748C449.552 254.923 449.491 255.07 449.394 255.19C449.297 255.31 449.178 255.404 449.039 255.472C448.897 255.541 448.747 255.585 448.588 255.606C448.43 255.627 448.276 255.626 448.127 255.604C447.98 255.582 447.842 255.516 447.714 255.408C447.586 255.296 447.487 255.152 447.419 254.976C447.351 254.8 447.333 254.604 447.365 254.387C447.413 254.071 447.542 253.848 447.754 253.719C447.966 253.588 448.233 253.546 448.555 253.594C448.952 253.654 449.233 253.788 449.399 253.998Z" fill="#59BB49"/>
<path d="M442.5 239L455.5 241L453 261L439.5 259L442.5 239ZM446.577 256.24C446.892 256.335 447.216 256.407 447.548 256.457C447.965 256.52 448.337 256.524 448.664 256.471C448.988 256.417 449.267 256.315 449.5 256.166C449.733 256.016 449.919 255.83 450.058 255.606C450.197 255.379 450.288 255.125 450.33 254.845C450.388 254.464 450.36 254.124 450.246 253.825C450.134 253.524 449.944 253.277 449.678 253.084C449.413 252.889 449.08 252.761 448.681 252.701C448.31 252.645 447.985 252.665 447.705 252.76C447.425 252.852 447.198 253.01 447.025 253.234C446.849 253.458 446.737 253.735 446.687 254.064C446.654 254.286 446.655 254.485 446.692 254.662C446.726 254.838 446.785 254.991 446.868 255.122C446.951 255.253 447.051 255.367 447.168 255.464L447.161 255.51C446.765 255.432 446.42 255.313 446.128 255.154C445.834 254.993 445.618 254.767 445.48 254.475C445.339 254.183 445.305 253.8 445.376 253.326C445.394 253.208 445.419 253.09 445.452 252.974C445.486 252.856 445.525 252.748 445.568 252.652L444.815 252.539C444.778 252.628 444.743 252.743 444.712 252.883C444.68 253.023 444.656 253.149 444.639 253.263C444.573 253.701 444.579 254.085 444.655 254.415C444.73 254.745 444.858 255.028 445.041 255.267C445.224 255.502 445.447 255.699 445.711 255.857C445.974 256.015 446.263 256.143 446.577 256.24ZM447.75 248.802C447.578 249.057 447.464 249.367 447.409 249.73C447.381 249.921 447.367 250.082 447.368 250.214C447.367 250.345 447.37 250.459 447.376 250.555L445.989 250.22L446.31 248.084L445.51 247.963L445.069 250.899L447.799 251.527L448.095 251.164C448.081 251.044 448.074 250.895 448.075 250.719C448.073 250.539 448.083 250.372 448.106 250.218C448.173 249.778 448.31 249.468 448.519 249.288C448.725 249.106 448.991 249.039 449.315 249.088C449.56 249.125 449.754 249.207 449.898 249.334C450.043 249.458 450.14 249.62 450.189 249.82C450.238 250.019 450.242 250.251 450.203 250.513C450.166 250.76 450.093 251.014 449.986 251.275C449.876 251.535 449.752 251.753 449.615 251.93L450.434 252.053C450.565 251.883 450.675 251.674 450.765 251.427C450.855 251.177 450.922 250.904 450.967 250.608C451.037 250.142 451.019 249.735 450.913 249.388C450.807 249.04 450.624 248.761 450.364 248.55C450.1 248.34 449.77 248.205 449.374 248.145C449.011 248.09 448.693 248.122 448.42 248.239C448.144 248.355 447.921 248.543 447.75 248.802ZM451.35 247.534L451.924 243.71L451.129 243.591L450.727 246.264L450.684 246.257L449.877 245.137C449.63 244.784 449.398 244.476 449.182 244.215C448.963 243.953 448.734 243.742 448.495 243.582C448.256 243.422 447.984 243.32 447.68 243.274C447.379 243.229 447.104 243.26 446.856 243.367C446.609 243.472 446.403 243.646 446.237 243.887C446.069 244.127 445.959 244.427 445.905 244.785C445.862 245.068 445.858 245.325 445.892 245.557C445.923 245.788 445.98 246.002 446.064 246.199C446.148 246.393 446.245 246.579 446.355 246.756L447.029 246.348C446.884 246.1 446.78 245.866 446.716 245.645C446.649 245.422 446.634 245.188 446.671 244.943C446.71 244.686 446.812 244.489 446.977 244.353C447.14 244.217 447.357 244.17 447.63 244.211C447.852 244.244 448.05 244.32 448.224 244.438C448.399 244.554 448.578 244.719 448.762 244.934C448.943 245.148 449.157 245.418 449.403 245.745L450.666 247.432L451.35 247.534Z" fill="#59BB49"/>
</svg>
