<svg width="920" height="755" viewBox="0 0 920 755" fill="none" xmlns="http://www.w3.org/2000/svg">
<path d="M463.483 256.306C463.636 256.52 463.683 256.773 463.623 257.064C463.588 257.238 463.519 257.382 463.416 257.496C463.313 257.611 463.19 257.699 463.048 257.76C462.902 257.821 462.75 257.858 462.591 257.871C462.431 257.883 462.278 257.875 462.13 257.845C461.984 257.815 461.85 257.743 461.727 257.627C461.605 257.51 461.514 257.361 461.455 257.182C461.396 257.002 461.388 256.805 461.432 256.591C461.495 256.277 461.636 256.061 461.854 255.943C462.073 255.823 462.341 255.795 462.66 255.86C463.053 255.94 463.327 256.088 463.483 256.306Z" fill="#59BB49"/>
<path d="M456 241L472 243.5L468.5 263.5L453.5 261.5L456 241ZM460.55 258.401C460.859 258.511 461.179 258.6 461.508 258.667C461.921 258.751 462.293 258.775 462.622 258.738C462.948 258.701 463.232 258.613 463.472 258.476C463.713 258.339 463.908 258.162 464.058 257.946C464.209 257.726 464.313 257.478 464.369 257.2C464.446 256.822 464.435 256.481 464.338 256.177C464.241 255.87 464.064 255.614 463.809 255.408C463.553 255.199 463.228 255.054 462.832 254.974C462.465 254.899 462.139 254.902 461.854 254.983C461.57 255.06 461.335 255.207 461.151 255.422C460.964 255.636 460.837 255.907 460.771 256.233C460.726 256.453 460.718 256.652 460.745 256.83C460.77 257.008 460.821 257.164 460.897 257.299C460.973 257.434 461.067 257.553 461.179 257.656L461.17 257.702C460.778 257.603 460.44 257.467 460.157 257.293C459.871 257.118 459.667 256.881 459.544 256.582C459.419 256.283 459.404 255.899 459.499 255.429C459.523 255.312 459.555 255.196 459.594 255.081C459.633 254.965 459.677 254.859 459.726 254.765L458.979 254.614C458.938 254.701 458.897 254.814 458.859 254.952C458.82 255.09 458.789 255.216 458.766 255.328C458.678 255.762 458.664 256.146 458.724 256.479C458.781 256.812 458.895 257.103 459.065 257.35C459.236 257.594 459.449 257.802 459.704 257.974C459.959 258.145 460.241 258.287 460.55 258.401ZM462.102 251.032C461.917 251.279 461.787 251.582 461.714 251.942C461.676 252.131 461.654 252.291 461.649 252.423C461.64 252.554 461.637 252.668 461.639 252.764L460.271 252.358L460.701 250.241L459.908 250.08L459.317 252.99L462.011 253.756L462.325 253.409C462.318 253.288 462.319 253.14 462.328 252.963C462.335 252.784 462.354 252.618 462.385 252.465C462.474 252.028 462.627 251.726 462.845 251.558C463.06 251.386 463.329 251.333 463.65 251.398C463.893 251.448 464.083 251.539 464.22 251.674C464.358 251.805 464.447 251.972 464.485 252.174C464.524 252.376 464.517 252.607 464.464 252.867C464.414 253.112 464.329 253.362 464.208 253.616C464.085 253.87 463.95 254.082 463.804 254.252L464.616 254.417C464.755 254.254 464.876 254.051 464.978 253.809C465.081 253.564 465.162 253.295 465.222 253.001C465.316 252.539 465.319 252.132 465.231 251.779C465.143 251.427 464.975 251.139 464.725 250.915C464.473 250.691 464.15 250.539 463.757 250.46C463.398 250.386 463.078 250.401 462.8 250.504C462.518 250.606 462.286 250.782 462.102 251.032ZM462.798 245.785C462.632 245.645 462.423 245.55 462.17 245.499C461.757 245.415 461.396 245.503 461.088 245.765C460.777 246.026 460.563 246.444 460.447 247.018C460.367 247.408 460.353 247.761 460.403 248.077C460.453 248.393 460.536 248.673 460.651 248.917L461.363 248.611C461.31 248.478 461.264 248.34 461.224 248.196C461.184 248.052 461.158 247.9 461.145 247.738C461.134 247.573 461.147 247.397 461.185 247.208C461.248 246.901 461.362 246.684 461.529 246.556C461.693 246.427 461.895 246.387 462.135 246.436C462.319 246.473 462.471 246.551 462.59 246.668C462.711 246.783 462.79 246.946 462.829 247.159C462.866 247.371 462.852 247.639 462.786 247.963L462.685 248.461L463.408 248.608L463.508 248.114C463.577 247.775 463.666 247.504 463.773 247.303C463.881 247.099 464.009 246.959 464.157 246.883C464.306 246.804 464.48 246.785 464.679 246.825C464.988 246.888 465.21 247.037 465.346 247.272C465.479 247.506 465.498 247.857 465.403 248.324C465.354 248.564 465.271 248.811 465.153 249.066C465.034 249.321 464.892 249.555 464.727 249.769L465.527 249.931C465.681 249.721 465.809 249.492 465.91 249.244C466.011 248.993 466.093 248.716 466.154 248.412C466.257 247.907 466.268 247.479 466.188 247.128C466.108 246.777 465.957 246.498 465.736 246.291C465.513 246.083 465.239 245.947 464.915 245.881C464.545 245.805 464.224 245.86 463.953 246.044C463.682 246.226 463.473 246.534 463.326 246.969L463.3 246.964C463.296 246.721 463.253 246.5 463.171 246.3C463.088 246.097 462.963 245.925 462.798 245.785Z" fill="#59BB49"/>
</svg>
