<svg width="920" height="755" viewBox="0 0 920 755" fill="none" xmlns="http://www.w3.org/2000/svg">
<path d="M455.473 284.133C455.589 283.483 455.978 283.217 456.639 283.336C456.935 283.389 457.161 283.521 457.318 283.732C457.476 283.937 457.531 284.178 457.481 284.456C457.45 284.627 457.392 284.769 457.304 284.881C457.211 284.993 457.104 285.08 456.983 285.144C456.857 285.2 456.723 285.237 456.579 285.254C456.43 285.27 456.285 285.266 456.143 285.24L456.001 285.215C455.954 285.206 455.899 285.19 455.836 285.167C455.706 285.077 455.602 284.942 455.524 284.764C455.448 284.579 455.43 284.369 455.473 284.133Z" fill="#59BB49"/>
<path d="M455.515 272.969L456.245 273.182L457.6 273.425L457.411 274.479L457.381 275.059L457.123 274.556L456.092 273.42L455.508 273.005L455.515 272.969Z" fill="#59BB49"/>
<path d="M450.5 267L466.5 269.5L461.5 289.5L447.5 287.5L450.5 267ZM457.556 282.503C457.326 282.359 457.067 282.26 456.777 282.208C456.47 282.153 456.19 282.149 455.938 282.195C455.686 282.242 455.466 282.33 455.278 282.461C455.084 282.591 454.926 282.761 454.803 282.97C454.68 283.18 454.595 283.418 454.547 283.684C454.497 283.967 454.507 284.213 454.58 284.421C454.646 284.628 454.743 284.804 454.869 284.948C454.631 284.851 454.408 284.716 454.201 284.545C453.989 284.367 453.806 284.166 453.65 283.944C453.496 283.715 453.374 283.464 453.282 283.192C453.191 282.92 453.148 282.631 453.153 282.328L452.195 282.421C452.19 282.859 452.262 283.29 452.412 283.713C452.557 284.129 452.78 284.513 453.083 284.866C453.381 285.212 453.75 285.513 454.192 285.769C454.635 286.019 455.149 286.196 455.734 286.301C456.123 286.37 456.475 286.379 456.79 286.325C457.104 286.272 457.376 286.168 457.604 286.014C457.833 285.86 458.02 285.665 458.166 285.429C458.307 285.186 458.405 284.911 458.46 284.604C458.514 284.302 458.51 284.018 458.448 283.751C458.388 283.478 458.281 283.237 458.13 283.027C457.979 282.817 457.787 282.642 457.556 282.503ZM458.137 278.901C458.289 279.142 458.33 279.457 458.261 279.847C458.219 280.077 458.169 280.272 458.11 280.432C458.046 280.585 457.972 280.724 457.889 280.85L458.79 281.331C458.897 281.179 458.992 280.989 459.075 280.76C459.166 280.527 459.235 280.277 459.283 280.011C459.343 279.675 459.354 279.357 459.316 279.057C459.278 278.758 459.189 278.489 459.049 278.251C458.91 278.006 458.718 277.801 458.474 277.635C458.229 277.47 457.932 277.356 457.584 277.293C457.289 277.24 457.015 277.237 456.763 277.283C456.505 277.329 456.278 277.419 456.083 277.555C455.883 277.69 455.714 277.867 455.577 278.086C455.441 278.299 455.341 278.55 455.278 278.837L455.248 279.207L454.052 278.992L454.42 276.937L453.339 276.744L452.794 279.791L456.036 280.372L456.135 279.667C456.215 279.218 456.36 278.888 456.569 278.675C456.777 278.462 457.059 278.388 457.413 278.451C457.744 278.511 457.985 278.66 458.137 278.901ZM458.713 272.518L458.888 271.544L457.966 271.379L457.792 272.353L454.195 271.709L454.025 272.657L457.385 276.157L458.041 276.274L458.521 273.59L460.249 273.899L460.441 272.827L458.713 272.518Z" fill="#59BB49"/>
</svg>
