<svg width="920" height="755" viewBox="0 0 920 755" fill="none" xmlns="http://www.w3.org/2000/svg">
<path d="M441.473 282.133C441.589 281.483 441.978 281.217 442.639 281.336C442.935 281.389 443.161 281.521 443.318 281.732C443.476 281.937 443.531 282.178 443.481 282.456C443.45 282.627 443.392 282.769 443.304 282.881C443.211 282.993 443.104 283.08 442.983 283.144C442.857 283.2 442.723 283.237 442.579 283.254C442.43 283.27 442.285 283.266 442.143 283.24L442.001 283.215C441.954 283.206 441.899 283.19 441.836 283.167C441.706 283.077 441.602 282.942 441.524 282.764C441.448 282.579 441.43 282.369 441.473 282.133Z" fill="#59BB49"/>
<path d="M437 265L450 267L447 287.5L434.5 285.5L437 265ZM443.556 280.503C443.326 280.359 443.067 280.26 442.777 280.208C442.47 280.153 442.19 280.149 441.938 280.195C441.686 280.242 441.466 280.33 441.278 280.461C441.084 280.591 440.926 280.761 440.803 280.97C440.68 281.18 440.595 281.418 440.547 281.684C440.497 281.967 440.507 282.213 440.58 282.421C440.646 282.628 440.743 282.804 440.869 282.948C440.631 282.851 440.408 282.716 440.201 282.545C439.989 282.367 439.806 282.166 439.65 281.944C439.496 281.715 439.374 281.464 439.282 281.192C439.191 280.92 439.148 280.631 439.153 280.328L438.195 280.421C438.19 280.859 438.262 281.29 438.412 281.713C438.557 282.129 438.78 282.513 439.083 282.866C439.381 283.212 439.75 283.513 440.192 283.769C440.635 284.019 441.149 284.196 441.734 284.301C442.123 284.37 442.475 284.379 442.79 284.325C443.104 284.272 443.376 284.168 443.604 284.014C443.833 283.86 444.02 283.665 444.166 283.429C444.307 283.186 444.405 282.911 444.46 282.604C444.514 282.302 444.51 282.018 444.448 281.751C444.388 281.478 444.281 281.237 444.13 281.027C443.979 280.817 443.787 280.642 443.556 280.503ZM444.137 276.901C444.289 277.142 444.33 277.457 444.261 277.847C444.219 278.077 444.169 278.272 444.11 278.432C444.046 278.585 443.972 278.724 443.889 278.85L444.79 279.331C444.897 279.179 444.992 278.989 445.075 278.76C445.166 278.527 445.235 278.277 445.283 278.011C445.343 277.675 445.354 277.357 445.316 277.057C445.278 276.758 445.189 276.489 445.049 276.251C444.91 276.006 444.718 275.801 444.474 275.635C444.229 275.47 443.932 275.356 443.584 275.293C443.289 275.24 443.015 275.237 442.763 275.283C442.505 275.329 442.278 275.419 442.083 275.555C441.883 275.69 441.714 275.867 441.577 276.086C441.441 276.299 441.341 276.55 441.278 276.837L441.248 277.207L440.052 276.992L440.42 274.937L439.339 274.744L438.794 277.791L442.036 278.372L442.135 277.667C442.215 277.218 442.36 276.888 442.569 276.675C442.777 276.462 443.059 276.388 443.413 276.451C443.744 276.511 443.985 276.66 444.137 276.901ZM445.069 271.697C445.221 271.938 445.262 272.253 445.192 272.643C445.151 272.873 445.101 273.068 445.042 273.228C444.978 273.382 444.904 273.521 444.821 273.646L445.722 274.127C445.828 273.976 445.923 273.786 446.007 273.557C446.098 273.323 446.167 273.073 446.214 272.808C446.275 272.471 446.286 272.153 446.248 271.854C446.21 271.554 446.121 271.285 445.981 271.047C445.842 270.802 445.65 270.597 445.405 270.432C445.161 270.266 444.864 270.152 444.516 270.09C444.22 270.037 443.947 270.033 443.695 270.08C443.437 270.125 443.21 270.215 443.015 270.351C442.814 270.486 442.645 270.663 442.509 270.882C442.373 271.096 442.273 271.346 442.21 271.633L442.18 272.003L440.984 271.789L441.352 269.733L440.271 269.54L439.725 272.587L442.968 273.168L443.067 272.463C443.147 272.015 443.292 271.684 443.5 271.471C443.709 271.259 443.991 271.184 444.345 271.248C444.676 271.307 444.917 271.457 445.069 271.697Z" fill="#59BB49"/>
</svg>
