<svg width="920" height="755" viewBox="0 0 920 755" fill="none" xmlns="http://www.w3.org/2000/svg">
<path d="M427.473 280.133C427.589 279.483 427.978 279.217 428.639 279.336C428.935 279.389 429.161 279.521 429.318 279.732C429.476 279.937 429.531 280.178 429.481 280.456C429.45 280.627 429.392 280.769 429.304 280.881C429.211 280.993 429.104 281.08 428.983 281.144C428.857 281.2 428.723 281.237 428.579 281.254C428.43 281.27 428.285 281.266 428.143 281.24L428.001 281.215C427.954 281.206 427.899 281.19 427.836 281.167C427.706 281.077 427.602 280.942 427.524 280.764C427.448 280.579 427.43 280.369 427.473 280.133Z" fill="#59BB49"/>
<path d="M429.336 269.725C429.452 269.076 429.841 268.81 430.503 268.928C430.798 268.981 431.024 269.113 431.182 269.324C431.34 269.529 431.394 269.771 431.344 270.048C431.314 270.22 431.255 270.361 431.168 270.474C431.075 270.585 430.968 270.673 430.846 270.736C430.72 270.793 430.586 270.83 430.443 270.847C430.293 270.863 430.148 270.858 430.006 270.833L429.865 270.807C429.817 270.799 429.762 270.783 429.699 270.76C429.569 270.669 429.465 270.535 429.388 270.356C429.311 270.172 429.294 269.962 429.336 269.725Z" fill="#59BB49"/>
<path d="M424 263.5L436.5 265L434 285.5L421 284L424 263.5ZM429.556 278.503C429.326 278.359 429.067 278.26 428.777 278.208C428.47 278.153 428.19 278.149 427.938 278.195C427.686 278.242 427.466 278.33 427.278 278.461C427.084 278.591 426.926 278.761 426.803 278.97C426.68 279.18 426.595 279.418 426.547 279.684C426.497 279.967 426.507 280.213 426.58 280.421C426.646 280.628 426.743 280.804 426.869 280.948C426.631 280.851 426.408 280.716 426.201 280.545C425.989 280.367 425.806 280.166 425.65 279.944C425.496 279.715 425.374 279.464 425.282 279.192C425.191 278.92 425.148 278.631 425.153 278.328L424.195 278.421C424.19 278.859 424.262 279.29 424.412 279.713C424.557 280.129 424.78 280.513 425.083 280.866C425.381 281.212 425.75 281.513 426.192 281.769C426.635 282.019 427.149 282.196 427.734 282.301C428.123 282.37 428.475 282.379 428.79 282.325C429.104 282.272 429.376 282.168 429.604 282.014C429.833 281.86 430.02 281.665 430.166 281.429C430.307 281.186 430.405 280.911 430.46 280.604C430.514 280.302 430.51 280.018 430.448 279.751C430.388 279.478 430.281 279.237 430.13 279.027C429.979 278.817 429.787 278.642 429.556 278.503ZM430.137 274.901C430.289 275.142 430.33 275.457 430.261 275.847C430.219 276.077 430.169 276.272 430.11 276.432C430.046 276.585 429.972 276.724 429.889 276.85L430.79 277.331C430.897 277.179 430.992 276.989 431.075 276.76C431.166 276.527 431.235 276.277 431.283 276.011C431.343 275.675 431.354 275.357 431.316 275.057C431.278 274.758 431.189 274.489 431.049 274.251C430.91 274.006 430.718 273.801 430.474 273.635C430.229 273.47 429.932 273.356 429.584 273.293C429.289 273.24 429.015 273.237 428.763 273.283C428.505 273.329 428.278 273.419 428.083 273.555C427.883 273.69 427.714 273.867 427.577 274.086C427.441 274.299 427.341 274.55 427.278 274.837L427.248 275.207L426.052 274.992L426.42 272.937L425.339 272.744L424.794 275.791L428.036 276.372L428.135 275.667C428.215 275.218 428.36 274.888 428.569 274.675C428.777 274.462 429.059 274.388 429.413 274.451C429.744 274.511 429.985 274.66 430.137 274.901ZM431.42 268.096C431.19 267.951 430.93 267.853 430.641 267.801C430.333 267.746 430.054 267.742 429.802 267.788C429.55 267.834 429.33 267.923 429.141 268.054C428.948 268.184 428.789 268.353 428.666 268.563C428.543 268.773 428.458 269.01 428.411 269.276C428.36 269.56 428.371 269.805 428.443 270.013C428.51 270.22 428.606 270.396 428.733 270.541C428.494 270.443 428.271 270.309 428.064 270.138C427.852 269.96 427.669 269.759 427.514 269.536C427.36 269.307 427.237 269.057 427.145 268.785C427.054 268.512 427.011 268.224 427.017 267.92L426.058 268.014C426.053 268.452 426.125 268.882 426.275 269.305C426.42 269.721 426.644 270.106 426.946 270.459C427.244 270.805 427.614 271.105 428.056 271.361C428.498 271.611 429.012 271.789 429.597 271.893C429.987 271.963 430.339 271.971 430.653 271.918C430.968 271.864 431.239 271.761 431.468 271.606C431.697 271.452 431.884 271.257 432.03 271.021C432.171 270.778 432.269 270.503 432.324 270.196C432.378 269.895 432.374 269.611 432.312 269.344C432.251 269.071 432.145 268.829 431.993 268.619C431.842 268.409 431.651 268.235 431.42 268.096Z" fill="#59BB49"/>
</svg>
