<svg width="920" height="755" viewBox="0 0 920 755" fill="none" xmlns="http://www.w3.org/2000/svg">
<path d="M411.473 277.133C411.589 276.483 411.978 276.217 412.639 276.336C412.935 276.389 413.161 276.521 413.318 276.732C413.476 276.937 413.531 277.178 413.481 277.456C413.45 277.627 413.392 277.769 413.304 277.881C413.211 277.993 413.104 278.08 412.983 278.144C412.857 278.2 412.723 278.237 412.579 278.254C412.43 278.27 412.285 278.266 412.143 278.24L412.001 278.215C411.954 278.206 411.899 278.19 411.836 278.167C411.706 278.077 411.602 277.942 411.524 277.764C411.448 277.579 411.43 277.369 411.473 277.133Z" fill="#59BB49"/>
<path d="M400.5 260L423.5 263.5L420.5 284L408 282.5L397 264.5L400.5 260ZM413.556 275.503C413.326 275.359 413.067 275.26 412.777 275.208C412.47 275.153 412.19 275.149 411.938 275.195C411.686 275.242 411.466 275.33 411.278 275.461C411.084 275.591 410.926 275.761 410.803 275.97C410.68 276.18 410.595 276.418 410.547 276.684C410.497 276.967 410.507 277.213 410.58 277.421C410.646 277.628 410.743 277.804 410.869 277.948C410.631 277.851 410.408 277.716 410.201 277.545C409.989 277.367 409.806 277.166 409.65 276.944C409.496 276.715 409.374 276.464 409.282 276.192C409.191 275.92 409.148 275.631 409.153 275.328L408.195 275.421C408.19 275.859 408.262 276.29 408.412 276.713C408.557 277.129 408.78 277.513 409.083 277.866C409.381 278.212 409.75 278.513 410.192 278.769C410.635 279.019 411.149 279.196 411.734 279.301C412.123 279.37 412.475 279.379 412.79 279.325C413.104 279.272 413.376 279.168 413.604 279.014C413.833 278.86 414.02 278.665 414.166 278.429C414.307 278.186 414.405 277.911 414.46 277.604C414.514 277.302 414.51 277.018 414.448 276.751C414.388 276.478 414.281 276.237 414.13 276.027C413.979 275.817 413.788 275.642 413.556 275.503ZM414.137 271.901C414.289 272.142 414.33 272.457 414.261 272.847C414.219 273.077 414.169 273.272 414.11 273.432C414.046 273.585 413.972 273.724 413.889 273.85L414.79 274.331C414.897 274.179 414.992 273.989 415.075 273.76C415.166 273.527 415.235 273.277 415.283 273.011C415.343 272.675 415.354 272.357 415.316 272.057C415.278 271.758 415.189 271.489 415.049 271.251C414.91 271.006 414.718 270.801 414.474 270.635C414.229 270.47 413.932 270.356 413.584 270.293C413.289 270.24 413.015 270.237 412.763 270.283C412.505 270.329 412.278 270.419 412.083 270.555C411.883 270.69 411.714 270.867 411.577 271.086C411.441 271.299 411.341 271.55 411.278 271.837L411.248 272.207L410.052 271.992L410.42 269.937L409.339 269.744L408.794 272.791L412.036 273.372L412.135 272.667C412.215 272.218 412.36 271.888 412.569 271.675C412.777 271.462 413.059 271.388 413.413 271.451C413.744 271.511 413.985 271.66 414.137 271.901ZM411.491 265.947L415.903 268.831L416.105 267.706L410.684 264.175L410.347 264.115L409.632 268.11L410.713 268.304L411.12 266.027L411.127 265.479L411.491 265.947Z" fill="#59BB49"/>
</svg>
