<svg width="920" height="755" viewBox="0 0 920 755" fill="none" xmlns="http://www.w3.org/2000/svg">
<path d="M425.345 301.91C425.415 301.254 425.784 300.961 426.452 301.033C426.751 301.065 426.986 301.18 427.157 301.38C427.33 301.573 427.401 301.81 427.371 302.09C427.353 302.263 427.304 302.409 427.225 302.527C427.14 302.645 427.039 302.74 426.923 302.812C426.801 302.877 426.67 302.924 426.528 302.951C426.38 302.977 426.235 302.983 426.092 302.967L425.948 302.952C425.901 302.947 425.845 302.935 425.78 302.916C425.644 302.835 425.531 302.708 425.441 302.536C425.351 302.357 425.319 302.149 425.345 301.91Z" fill="#59BB49"/>
<path d="M427.412 290.701C427.532 290.648 427.661 290.628 427.798 290.643C428.06 290.671 428.248 290.776 428.362 290.957C428.476 291.132 428.518 291.354 428.49 291.622C428.459 291.914 428.35 292.135 428.166 292.284C427.975 292.427 427.761 292.486 427.522 292.46C427.337 292.44 427.158 292.37 426.984 292.249C426.804 292.121 426.649 291.908 426.518 291.611C426.603 291.487 426.692 291.367 426.783 291.25C426.874 291.127 426.973 291.02 427.08 290.928C427.18 290.831 427.291 290.755 427.412 290.701Z" fill="#59BB49"/>
<path d="M424.94 291.894C424.827 291.937 424.698 291.95 424.555 291.935C424.37 291.915 424.216 291.838 424.091 291.704C423.967 291.564 423.919 291.363 423.947 291.1C423.97 290.892 424.054 290.723 424.201 290.594C424.342 290.458 424.538 290.403 424.789 290.43C425.152 290.469 425.467 290.684 425.733 291.074C425.66 291.193 425.585 291.309 425.506 291.421C425.423 291.527 425.337 291.623 425.249 291.71C425.156 291.791 425.053 291.852 424.94 291.894Z" fill="#59BB49"/>
<path d="M408.5 283L433.5 286L430 312L423.5 311.5L419.5 302L408.5 283ZM427.308 300.138C427.068 300.009 426.802 299.93 426.51 299.899C426.2 299.865 425.921 299.881 425.672 299.945C425.424 300.009 425.211 300.113 425.033 300.257C424.848 300.4 424.702 300.58 424.595 300.798C424.487 301.016 424.419 301.259 424.39 301.527C424.359 301.814 424.388 302.058 424.475 302.261C424.556 302.462 424.664 302.631 424.801 302.766C424.556 302.686 424.324 302.567 424.105 302.411C423.881 302.248 423.684 302.061 423.514 301.85C423.344 301.633 423.204 301.392 423.093 301.126C422.983 300.861 422.92 300.577 422.904 300.273L421.954 300.434C421.98 300.872 422.083 301.296 422.262 301.707C422.436 302.112 422.686 302.48 423.013 302.81C423.334 303.134 423.724 303.408 424.183 303.632C424.643 303.85 425.168 303.991 425.758 304.054C426.152 304.096 426.504 304.08 426.814 304.004C427.123 303.928 427.387 303.806 427.604 303.636C427.821 303.466 427.994 303.258 428.123 303.013C428.247 302.76 428.325 302.479 428.358 302.169C428.391 301.864 428.367 301.581 428.286 301.319C428.206 301.051 428.083 300.818 427.917 300.619C427.752 300.42 427.549 300.26 427.308 300.138ZM427.633 296.503C427.802 296.732 427.865 297.044 427.823 297.438C427.798 297.67 427.762 297.869 427.714 298.032C427.661 298.19 427.598 298.334 427.523 298.465L428.456 298.881C428.552 298.722 428.633 298.526 428.7 298.292C428.774 298.052 428.825 297.798 428.854 297.53C428.89 297.19 428.879 296.872 428.82 296.576C428.761 296.28 428.654 296.018 428.497 295.79C428.341 295.556 428.135 295.365 427.879 295.217C427.624 295.069 427.32 294.976 426.968 294.939C426.669 294.907 426.396 294.923 426.148 294.987C425.894 295.05 425.674 295.156 425.489 295.306C425.299 295.454 425.143 295.643 425.022 295.871C424.901 296.094 424.82 296.35 424.776 296.641L424.773 297.012L423.565 296.883L423.787 294.807L422.695 294.69L422.366 297.769L425.641 298.119L425.69 297.409C425.738 296.955 425.859 296.615 426.052 296.389C426.246 296.162 426.521 296.068 426.879 296.106C427.213 296.142 427.465 296.274 427.633 296.503ZM427.06 293.397C427.215 293.468 427.397 293.515 427.606 293.537C427.857 293.564 428.088 293.543 428.301 293.476C428.514 293.402 428.701 293.289 428.862 293.137C429.024 292.98 429.156 292.786 429.259 292.555C429.369 292.319 429.439 292.052 429.471 291.754C429.503 291.456 429.491 291.177 429.434 290.917C429.371 290.657 429.272 290.429 429.136 290.234C429 290.038 428.83 289.881 428.625 289.763C428.415 289.638 428.176 289.561 427.908 289.532C427.514 289.49 427.182 289.548 426.911 289.707C426.642 289.859 426.383 290.103 426.136 290.438C425.966 290.112 425.767 289.859 425.539 289.678C425.311 289.49 425.022 289.378 424.67 289.34C424.443 289.316 424.232 289.339 424.038 289.409C423.838 289.472 423.664 289.577 423.515 289.724C423.368 289.865 423.246 290.042 423.151 290.255C423.056 290.468 422.994 290.709 422.965 290.977C422.934 291.27 422.947 291.537 423.006 291.778C423.065 292.02 423.16 292.232 423.291 292.415C423.423 292.592 423.586 292.736 423.779 292.847C423.973 292.953 424.186 293.018 424.419 293.043C424.777 293.081 425.087 293.029 425.349 292.889C425.606 292.747 425.842 292.54 426.058 292.267C426.131 292.432 426.214 292.589 426.307 292.737C426.4 292.88 426.51 293.01 426.637 293.126C426.758 293.235 426.899 293.326 427.06 293.397Z" fill="#59BB49"/>
</svg>
