<svg width="920" height="755" viewBox="0 0 920 755" fill="none" xmlns="http://www.w3.org/2000/svg">
<path d="M438.473 304.133C438.589 303.483 438.978 303.217 439.639 303.336C439.935 303.389 440.161 303.521 440.318 303.732C440.476 303.937 440.531 304.178 440.481 304.456C440.45 304.627 440.392 304.769 440.304 304.881C440.211 304.993 440.104 305.08 439.983 305.144C439.857 305.2 439.723 305.237 439.579 305.254C439.43 305.27 439.285 305.266 439.143 305.24L439.001 305.215C438.954 305.206 438.899 305.19 438.836 305.167C438.706 305.077 438.602 304.942 438.524 304.764C438.448 304.579 438.43 304.369 438.473 304.133Z" fill="#59BB49"/>
<path d="M439.499 294.316C439.294 294.474 439.023 294.523 438.686 294.463C438.355 294.404 438.113 294.278 437.958 294.086C437.798 293.893 437.743 293.651 437.795 293.362C437.828 293.179 437.894 293.029 437.994 292.913C438.09 292.79 438.207 292.698 438.346 292.637C438.485 292.571 438.639 292.532 438.806 292.519C438.973 292.506 439.139 292.514 439.304 292.544C439.416 292.564 439.533 292.594 439.654 292.634C439.751 292.737 439.824 292.872 439.874 293.039C439.923 293.206 439.926 293.411 439.883 293.653C439.832 293.937 439.704 294.158 439.499 294.316Z" fill="#59BB49"/>
<path d="M434 286L447 288L443.5 314L430.5 312L434 286ZM440.556 302.503C440.326 302.359 440.067 302.26 439.777 302.208C439.47 302.153 439.19 302.149 438.938 302.195C438.686 302.242 438.466 302.33 438.278 302.461C438.084 302.591 437.926 302.761 437.803 302.97C437.68 303.18 437.595 303.418 437.547 303.684C437.497 303.967 437.507 304.213 437.58 304.421C437.646 304.628 437.743 304.804 437.869 304.948C437.631 304.851 437.408 304.716 437.201 304.545C436.989 304.367 436.806 304.166 436.65 303.944C436.496 303.715 436.374 303.464 436.282 303.192C436.191 302.92 436.148 302.631 436.153 302.328L435.195 302.421C435.19 302.859 435.262 303.29 435.412 303.713C435.557 304.129 435.78 304.513 436.083 304.866C436.381 305.212 436.75 305.513 437.192 305.769C437.635 306.019 438.149 306.196 438.734 306.301C439.123 306.37 439.475 306.379 439.79 306.325C440.104 306.272 440.376 306.168 440.604 306.014C440.833 305.86 441.02 305.665 441.166 305.429C441.307 305.186 441.405 304.911 441.46 304.604C441.514 304.302 441.51 304.018 441.448 303.751C441.388 303.478 441.281 303.237 441.13 303.027C440.979 302.817 440.787 302.642 440.556 302.503ZM441.137 298.901C441.289 299.142 441.33 299.457 441.261 299.847C441.219 300.077 441.169 300.272 441.11 300.432C441.046 300.585 440.972 300.724 440.889 300.85L441.79 301.331C441.897 301.179 441.992 300.989 442.075 300.76C442.166 300.527 442.235 300.277 442.283 300.011C442.343 299.675 442.354 299.357 442.316 299.057C442.278 298.758 442.189 298.489 442.049 298.251C441.91 298.006 441.718 297.801 441.474 297.635C441.229 297.47 440.932 297.356 440.584 297.293C440.289 297.24 440.015 297.237 439.763 297.283C439.505 297.329 439.278 297.419 439.083 297.555C438.883 297.69 438.714 297.867 438.577 298.086C438.441 298.299 438.341 298.55 438.278 298.837L438.248 299.207L437.052 298.992L437.42 296.937L436.339 296.744L435.794 299.791L439.036 300.372L439.135 299.667C439.215 299.218 439.36 298.888 439.569 298.675C439.777 298.462 440.059 298.388 440.413 298.451C440.744 298.511 440.985 298.66 441.137 298.901ZM437.739 295.308C437.977 295.443 438.247 295.536 438.548 295.59C438.873 295.649 439.166 295.646 439.427 295.583C439.684 295.513 439.907 295.407 440.097 295.264C440.282 295.115 440.433 294.937 440.549 294.733C440.666 294.522 440.744 294.304 440.784 294.08C440.833 293.808 440.842 293.587 440.812 293.417C440.782 293.241 440.703 293.069 440.575 292.9C440.821 292.992 441.045 293.118 441.248 293.276C441.447 293.427 441.618 293.61 441.763 293.825C441.901 294.039 442.007 294.283 442.079 294.559C442.152 294.834 442.18 295.137 442.163 295.47L443.111 295.383C443.152 294.952 443.118 294.528 443.01 294.113C442.901 293.697 442.707 293.315 442.428 292.966C442.145 292.611 441.77 292.303 441.305 292.043C440.834 291.776 440.257 291.581 439.572 291.458C438.81 291.322 438.197 291.41 437.732 291.723C437.263 292.029 436.968 292.516 436.849 293.183C436.791 293.508 436.792 293.807 436.853 294.08C436.909 294.346 437.013 294.584 437.164 294.794C437.31 294.997 437.502 295.168 437.739 295.308Z" fill="#59BB49"/>
</svg>
