<svg width="920" height="755" viewBox="0 0 920 755" fill="none" xmlns="http://www.w3.org/2000/svg">
<path d="M451.473 306.133C451.589 305.483 451.978 305.217 452.639 305.336C452.935 305.389 453.161 305.521 453.318 305.732C453.476 305.937 453.531 306.178 453.481 306.456C453.45 306.627 453.392 306.769 453.304 306.881C453.211 306.993 453.104 307.08 452.983 307.144C452.857 307.2 452.723 307.237 452.579 307.254C452.43 307.27 452.285 307.266 452.143 307.24L452.001 307.215C451.954 307.206 451.899 307.19 451.836 307.167C451.706 307.077 451.602 306.942 451.524 306.764C451.448 306.579 451.43 306.369 451.473 306.133Z" fill="#59BB49"/>
<path d="M452.404 300.929C452.521 300.279 452.91 300.014 453.571 300.132C453.866 300.185 454.093 300.317 454.25 300.528C454.408 300.733 454.462 300.974 454.413 301.252C454.382 301.423 454.323 301.565 454.236 301.678C454.143 301.789 454.036 301.876 453.915 301.94C453.789 301.997 453.654 302.034 453.511 302.051C453.362 302.067 453.216 302.062 453.075 302.036L452.933 302.011C452.886 302.003 452.831 301.987 452.768 301.963C452.638 301.873 452.534 301.738 452.456 301.56C452.379 301.376 452.362 301.165 452.404 300.929Z" fill="#59BB49"/>
<path d="M454.614 296.759C454.191 296.841 453.619 296.818 452.898 296.689C452.136 296.553 451.586 296.375 451.247 296.156C450.91 295.931 450.773 295.641 450.836 295.287C450.903 294.915 451.145 294.687 451.562 294.603C451.979 294.519 452.545 294.541 453.26 294.669C454.045 294.81 454.603 294.995 454.934 295.225C455.266 295.449 455.401 295.735 455.338 296.084C455.274 296.444 455.032 296.669 454.614 296.759Z" fill="#59BB49"/>
<path d="M447.5 288L461 290L454.5 315.5L444 314L447.5 288ZM453.556 304.503C453.326 304.359 453.067 304.26 452.777 304.208C452.47 304.153 452.19 304.149 451.938 304.195C451.686 304.242 451.466 304.33 451.278 304.461C451.084 304.591 450.926 304.761 450.803 304.97C450.68 305.18 450.595 305.418 450.547 305.684C450.497 305.967 450.507 306.213 450.58 306.421C450.646 306.628 450.743 306.804 450.869 306.948C450.631 306.851 450.408 306.716 450.201 306.545C449.989 306.367 449.806 306.166 449.65 305.944C449.496 305.715 449.374 305.464 449.282 305.192C449.191 304.92 449.148 304.631 449.153 304.328L448.195 304.421C448.19 304.859 448.262 305.29 448.412 305.713C448.557 306.129 448.78 306.513 449.083 306.866C449.381 307.212 449.75 307.513 450.192 307.769C450.635 308.019 451.149 308.196 451.734 308.301C452.123 308.37 452.475 308.379 452.79 308.325C453.104 308.272 453.376 308.168 453.604 308.014C453.833 307.86 454.02 307.665 454.166 307.429C454.307 307.186 454.405 306.911 454.46 306.604C454.514 306.302 454.51 306.018 454.448 305.751C454.388 305.478 454.281 305.237 454.13 305.027C453.979 304.817 453.787 304.642 453.556 304.503ZM454.488 299.3C454.258 299.155 453.998 299.057 453.709 299.005C453.402 298.95 453.122 298.945 452.87 298.992C452.618 299.038 452.398 299.127 452.21 299.258C452.016 299.387 451.857 299.557 451.735 299.767C451.612 299.976 451.527 300.214 451.479 300.48C451.428 300.763 451.439 301.009 451.512 301.217C451.578 301.424 451.675 301.6 451.801 301.744C451.563 301.647 451.34 301.513 451.133 301.341C450.921 301.163 450.737 300.963 450.582 300.74C450.428 300.511 450.305 300.261 450.214 299.988C450.122 299.716 450.079 299.428 450.085 299.124L449.127 299.218C449.121 299.655 449.194 300.086 449.343 300.509C449.488 300.925 449.712 301.309 450.015 301.662C450.312 302.008 450.682 302.309 451.124 302.565C451.567 302.815 452.081 302.992 452.665 303.097C453.055 303.167 453.407 303.175 453.722 303.121C454.036 303.068 454.307 302.964 454.536 302.81C454.765 302.656 454.952 302.461 455.098 302.225C455.239 301.982 455.337 301.707 455.392 301.4C455.446 301.099 455.442 300.815 455.38 300.547C455.319 300.274 455.213 300.033 455.062 299.823C454.91 299.613 454.719 299.439 454.488 299.3ZM450.373 296.85C450.832 297.316 451.605 297.646 452.692 297.841C453.731 298.027 454.563 297.996 455.186 297.748C455.804 297.499 456.179 297.005 456.311 296.267C456.436 295.57 456.266 294.988 455.801 294.521C455.337 294.048 454.559 293.713 453.466 293.518C452.368 293.321 451.527 293.35 450.945 293.606C450.357 293.86 449.996 294.359 449.863 295.104C449.738 295.8 449.908 296.383 450.373 296.85Z" fill="#59BB49"/>
</svg>
