<svg width="920" height="755" viewBox="0 0 920 755" fill="none" xmlns="http://www.w3.org/2000/svg">
<path d="M431.551 323.533C432.195 323.675 432.445 324.074 432.3 324.73C432.236 325.023 432.095 325.244 431.878 325.393C431.667 325.543 431.423 325.587 431.148 325.527C430.978 325.489 430.839 325.425 430.73 325.333C430.622 325.236 430.539 325.125 430.48 325.002C430.429 324.874 430.397 324.738 430.386 324.594C430.376 324.444 430.386 324.299 430.417 324.158L430.448 324.018C430.459 323.971 430.477 323.916 430.503 323.855C430.598 323.728 430.737 323.63 430.918 323.559C431.105 323.49 431.316 323.481 431.551 323.533Z" fill="#59BB49"/>
<path d="M436.713 324.671C437.358 324.813 437.608 325.212 437.463 325.868C437.398 326.161 437.257 326.382 437.04 326.531C436.829 326.681 436.586 326.726 436.31 326.665C436.14 326.628 436.001 326.563 435.892 326.471C435.785 326.374 435.702 326.263 435.643 326.14C435.591 326.012 435.56 325.876 435.548 325.732C435.538 325.582 435.549 325.437 435.58 325.297L435.611 325.156C435.621 325.109 435.639 325.055 435.665 324.993C435.761 324.866 435.899 324.768 436.081 324.697C436.268 324.628 436.479 324.619 436.713 324.671Z" fill="#59BB49"/>
<path d="M423.5 317.5L452.5 322L448.5 334.5L422 326L423.5 317.5ZM433.096 325.68C433.25 325.456 433.358 325.2 433.421 324.913C433.489 324.608 433.504 324.329 433.468 324.075C433.432 323.821 433.352 323.598 433.229 323.405C433.107 323.206 432.943 323.041 432.739 322.91C432.534 322.779 432.3 322.684 432.036 322.626C431.755 322.564 431.509 322.565 431.298 322.629C431.089 322.687 430.909 322.777 430.76 322.898C430.867 322.663 431.01 322.446 431.189 322.246C431.376 322.041 431.583 321.866 431.812 321.719C432.047 321.575 432.302 321.462 432.578 321.381C432.854 321.301 433.143 321.27 433.447 321.287L433.391 320.326C432.954 320.303 432.521 320.358 432.092 320.491C431.671 320.619 431.278 320.827 430.913 321.116C430.556 321.399 430.24 321.757 429.967 322.188C429.7 322.621 429.502 323.127 429.374 323.707C429.289 324.094 429.267 324.445 429.307 324.762C429.348 325.078 429.441 325.353 429.586 325.588C429.731 325.823 429.918 326.017 430.148 326.173C430.386 326.323 430.656 326.432 430.961 326.499C431.26 326.565 431.544 326.573 431.813 326.521C432.089 326.471 432.334 326.375 432.55 326.232C432.766 326.089 432.948 325.905 433.096 325.68ZM438.258 326.818C438.412 326.594 438.521 326.338 438.584 326.051C438.651 325.746 438.667 325.467 438.63 325.213C438.594 324.96 438.514 324.736 438.391 324.543C438.269 324.344 438.106 324.179 437.901 324.048C437.697 323.917 437.462 323.822 437.199 323.764C436.918 323.702 436.672 323.703 436.461 323.767C436.251 323.826 436.072 323.915 435.922 324.036C436.029 323.801 436.172 323.584 436.352 323.384C436.538 323.179 436.746 323.004 436.975 322.858C437.209 322.713 437.465 322.6 437.74 322.52C438.016 322.439 438.306 322.408 438.609 322.426L438.554 321.464C438.116 321.441 437.683 321.496 437.255 321.629C436.833 321.757 436.44 321.966 436.076 322.254C435.718 322.538 435.403 322.895 435.129 323.326C434.862 323.759 434.664 324.265 434.537 324.845C434.451 325.232 434.429 325.584 434.47 325.9C434.511 326.216 434.604 326.491 434.749 326.726C434.893 326.961 435.081 327.156 435.311 327.311C435.548 327.462 435.819 327.57 436.124 327.638C436.422 327.703 436.706 327.711 436.976 327.66C437.251 327.61 437.497 327.513 437.712 327.37C437.928 327.228 438.11 327.043 438.258 326.818ZM441.078 327.587L439.856 327.318L439.643 328.285L443.15 329.058L443.363 328.091L442.168 327.827L443.334 322.537L442.693 322.395L440.332 323.57L440.67 324.336L441.571 323.973L442.107 323.547L441.844 324.116L441.078 327.587Z" fill="#59BB49"/>
</svg>
