<svg width="920" height="755" viewBox="0 0 920 755" fill="none" xmlns="http://www.w3.org/2000/svg">
<path d="M427.865 335.624C428.497 335.815 428.715 336.232 428.521 336.875C428.434 337.162 428.276 337.372 428.048 337.503C427.826 337.637 427.58 337.663 427.31 337.581C427.144 337.53 427.01 337.455 426.908 337.356C426.808 337.25 426.734 337.134 426.685 337.006C426.643 336.874 426.622 336.736 426.622 336.592C426.624 336.442 426.645 336.298 426.687 336.16L426.729 336.023C426.742 335.977 426.765 335.924 426.795 335.864C426.9 335.745 427.046 335.658 427.232 335.601C427.424 335.547 427.635 335.554 427.865 335.624Z" fill="#59BB49"/>
<path d="M432.925 337.154C433.556 337.346 433.775 337.763 433.58 338.406C433.494 338.693 433.336 338.902 433.108 339.034C432.886 339.167 432.64 339.193 432.37 339.112C432.204 339.061 432.07 338.986 431.968 338.887C431.868 338.781 431.794 338.665 431.745 338.537C431.703 338.405 431.682 338.267 431.682 338.123C431.684 337.973 431.705 337.829 431.747 337.691L431.789 337.553C431.802 337.508 431.825 337.455 431.855 337.395C431.96 337.276 432.106 337.189 432.292 337.132C432.484 337.078 432.695 337.085 432.925 337.154Z" fill="#59BB49"/>
<path d="M422 326.5L448 335L444 347L418.5 338L422 326.5ZM429.241 337.883C429.411 337.671 429.539 337.425 429.624 337.143C429.715 336.845 429.751 336.567 429.735 336.312C429.718 336.056 429.656 335.827 429.548 335.625C429.441 335.417 429.291 335.24 429.097 335.094C428.903 334.947 428.677 334.835 428.419 334.757C428.143 334.673 427.898 334.656 427.682 334.703C427.469 334.745 427.283 334.821 427.125 334.93C427.25 334.704 427.409 334.498 427.603 334.313C427.805 334.123 428.025 333.964 428.265 333.836C428.51 333.709 428.773 333.617 429.054 333.557C429.335 333.498 429.626 333.489 429.927 333.53L429.946 332.567C429.512 332.511 429.076 332.533 428.638 332.632C428.208 332.728 427.8 332.905 427.415 333.165C427.036 333.42 426.694 333.752 426.389 334.162C426.089 334.572 425.853 335.062 425.681 335.631C425.567 336.01 425.517 336.358 425.534 336.677C425.55 336.995 425.622 337.277 425.748 337.522C425.875 337.767 426.047 337.976 426.264 338.148C426.489 338.317 426.751 338.446 427.049 338.536C427.342 338.625 427.625 338.654 427.897 338.624C428.176 338.595 428.428 338.518 428.654 338.392C428.88 338.266 429.076 338.096 429.241 337.883ZM434.3 339.414C434.471 339.202 434.599 338.955 434.684 338.674C434.774 338.375 434.811 338.098 434.795 337.842C434.778 337.587 434.716 337.358 434.607 337.156C434.501 336.948 434.351 336.771 434.157 336.625C433.963 336.478 433.737 336.366 433.478 336.288C433.203 336.204 432.957 336.186 432.742 336.234C432.529 336.276 432.343 336.352 432.185 336.46C432.31 336.235 432.469 336.029 432.663 335.843C432.865 335.654 433.085 335.495 433.325 335.367C433.57 335.24 433.833 335.147 434.114 335.088C434.395 335.029 434.686 335.02 434.987 335.061L435.006 334.098C434.572 334.042 434.136 334.064 433.698 334.163C433.268 334.259 432.86 334.436 432.474 334.696C432.096 334.951 431.754 335.283 431.449 335.692C431.149 336.103 430.913 336.593 430.741 337.161C430.627 337.54 430.577 337.889 430.594 338.208C430.61 338.526 430.682 338.808 430.808 339.053C430.935 339.298 431.107 339.507 431.324 339.679C431.549 339.847 431.811 339.977 432.109 340.067C432.402 340.156 432.685 340.185 432.957 340.154C433.236 340.126 433.488 340.048 433.714 339.923C433.94 339.797 434.136 339.627 434.3 339.414ZM439.737 338.238C439.937 337.972 440.081 337.693 440.17 337.4C440.249 337.136 440.276 336.893 440.249 336.672C440.223 336.445 440.156 336.242 440.047 336.065C439.937 335.888 439.79 335.733 439.604 335.602C439.418 335.471 439.202 335.367 438.955 335.293C438.57 335.176 438.217 335.132 437.895 335.16C437.58 335.184 437.283 335.254 437.004 335.37L437.212 336.298C437.38 336.218 437.571 336.169 437.783 336.151C438.002 336.13 438.204 336.147 438.388 336.203C438.681 336.291 438.87 336.433 438.955 336.628C439.048 336.819 439.058 337.032 438.987 337.268C438.928 337.463 438.825 337.658 438.679 337.852C438.538 338.047 438.366 338.243 438.163 338.438C437.961 338.628 437.742 338.813 437.506 338.992C437.27 339.171 437.03 339.343 436.786 339.507C436.55 339.668 436.316 339.82 436.084 339.963C435.855 340.1 435.649 340.22 435.468 340.322L435.293 340.899L438.92 341.996L439.207 341.048L437.553 340.548L436.896 340.481L436.909 340.438L437.473 340.223C437.73 340.056 437.996 339.87 438.271 339.665C438.554 339.456 438.819 339.232 439.067 338.994C439.32 338.757 439.544 338.505 439.737 338.238Z" fill="#59BB49"/>
</svg>
