<svg width="920" height="755" viewBox="0 0 920 755" fill="none" xmlns="http://www.w3.org/2000/svg">
<path d="M423.865 347.624C424.497 347.815 424.715 348.232 424.521 348.875C424.434 349.162 424.276 349.372 424.048 349.503C423.826 349.637 423.58 349.663 423.31 349.581C423.144 349.53 423.01 349.455 422.908 349.356C422.808 349.25 422.734 349.134 422.685 349.006C422.643 348.874 422.622 348.736 422.622 348.592C422.624 348.442 422.645 348.298 422.687 348.16L422.729 348.023C422.742 347.977 422.765 347.924 422.795 347.864C422.9 347.745 423.046 347.658 423.232 347.601C423.424 347.547 423.635 347.554 423.865 347.624Z" fill="#59BB49"/>
<path d="M428.925 349.154C429.556 349.346 429.775 349.763 429.58 350.406C429.494 350.693 429.336 350.902 429.108 351.034C428.886 351.167 428.64 351.193 428.37 351.112C428.204 351.061 428.07 350.986 427.968 350.887C427.868 350.781 427.794 350.665 427.745 350.537C427.703 350.405 427.682 350.267 427.682 350.123C427.684 349.973 427.705 349.829 427.747 349.691L427.789 349.553C427.802 349.508 427.825 349.455 427.855 349.395C427.96 349.276 428.106 349.189 428.292 349.132C428.484 349.078 428.695 349.085 428.925 349.154Z" fill="#59BB49"/>
<path d="M418.5 338.5L443.5 347.5L439.5 359.5L415 350.5L418.5 338.5ZM425.241 349.883C425.411 349.671 425.539 349.425 425.624 349.143C425.715 348.845 425.751 348.567 425.735 348.312C425.718 348.056 425.656 347.827 425.548 347.625C425.441 347.417 425.291 347.24 425.097 347.094C424.903 346.947 424.677 346.835 424.419 346.757C424.143 346.673 423.898 346.656 423.682 346.703C423.469 346.745 423.283 346.821 423.125 346.93C423.25 346.704 423.409 346.498 423.603 346.313C423.805 346.123 424.025 345.964 424.265 345.836C424.51 345.709 424.773 345.617 425.054 345.557C425.335 345.498 425.626 345.489 425.927 345.53L425.946 344.567C425.512 344.511 425.076 344.533 424.638 344.632C424.208 344.728 423.8 344.905 423.415 345.165C423.036 345.42 422.694 345.752 422.389 346.162C422.089 346.572 421.853 347.062 421.681 347.631C421.567 348.01 421.517 348.358 421.534 348.677C421.55 348.995 421.622 349.277 421.748 349.522C421.875 349.767 422.047 349.976 422.264 350.148C422.489 350.317 422.751 350.446 423.049 350.536C423.342 350.625 423.625 350.654 423.897 350.624C424.176 350.595 424.428 350.518 424.654 350.392C424.88 350.266 425.076 350.096 425.241 349.883ZM430.3 351.414C430.471 351.202 430.599 350.955 430.684 350.674C430.774 350.375 430.811 350.098 430.795 349.842C430.778 349.587 430.716 349.358 430.607 349.156C430.501 348.948 430.351 348.771 430.157 348.625C429.963 348.478 429.737 348.366 429.478 348.288C429.203 348.204 428.957 348.186 428.742 348.234C428.529 348.276 428.343 348.352 428.185 348.46C428.31 348.235 428.469 348.029 428.663 347.843C428.865 347.654 429.085 347.495 429.325 347.367C429.57 347.24 429.833 347.147 430.114 347.088C430.395 347.029 430.686 347.02 430.987 347.061L431.006 346.098C430.572 346.042 430.136 346.064 429.698 346.163C429.268 346.259 428.86 346.436 428.474 346.696C428.096 346.951 427.754 347.283 427.449 347.692C427.149 348.103 426.913 348.593 426.741 349.161C426.627 349.54 426.577 349.889 426.594 350.208C426.61 350.526 426.682 350.808 426.808 351.053C426.935 351.298 427.107 351.507 427.324 351.679C427.549 351.847 427.811 351.977 428.109 352.067C428.402 352.156 428.685 352.185 428.957 352.154C429.236 352.126 429.488 352.048 429.714 351.923C429.94 351.797 430.136 351.627 430.3 351.414ZM433.921 352.481C433.68 352.615 433.381 352.628 433.025 352.52C432.801 352.452 432.604 352.368 432.435 352.266C432.27 352.166 432.125 352.056 431.998 351.937L431.415 352.776C431.556 352.912 431.754 353.044 432.01 353.172C432.266 353.3 432.52 353.402 432.773 353.478C433.077 353.57 433.374 353.616 433.662 353.615C433.951 353.615 434.218 353.561 434.464 353.454C434.715 353.348 434.933 353.188 435.116 352.974C435.306 352.762 435.452 352.486 435.555 352.147C435.636 351.878 435.668 351.627 435.65 351.396C435.632 351.165 435.575 350.96 435.479 350.78C435.391 350.597 435.266 350.44 435.105 350.309C434.949 350.181 434.773 350.078 434.578 350L434.2 349.942L434.213 349.899L434.663 349.781L436.37 348.52L436.555 347.909L433.264 346.913L432.978 347.861L434.425 348.298L435.129 348.427L434.52 348.666L433.048 349.772L432.868 350.366L433.488 350.554C433.908 350.681 434.191 350.851 434.34 351.065C434.488 351.279 434.513 351.55 434.414 351.878C434.332 352.148 434.168 352.349 433.921 352.481Z" fill="#59BB49"/>
</svg>
