<svg width="920" height="755" viewBox="0 0 920 755" fill="none" xmlns="http://www.w3.org/2000/svg">
<path d="M419.865 360.624C420.497 360.815 420.715 361.232 420.521 361.875C420.434 362.162 420.276 362.372 420.048 362.503C419.826 362.637 419.58 362.663 419.31 362.581C419.144 362.53 419.01 362.455 418.908 362.356C418.808 362.25 418.734 362.134 418.685 362.006C418.643 361.874 418.622 361.736 418.622 361.592C418.624 361.442 418.645 361.298 418.687 361.16L418.729 361.023C418.742 360.977 418.765 360.924 418.795 360.864C418.9 360.745 419.046 360.658 419.232 360.601C419.424 360.547 419.635 360.554 419.865 360.624Z" fill="#59BB49"/>
<path d="M424.925 362.154C425.556 362.346 425.775 362.763 425.58 363.406C425.494 363.693 425.336 363.902 425.108 364.034C424.886 364.167 424.64 364.193 424.37 364.112C424.204 364.061 424.07 363.986 423.968 363.887C423.868 363.781 423.794 363.665 423.745 363.537C423.703 363.405 423.682 363.267 423.682 363.123C423.684 362.973 423.705 362.829 423.747 362.691L423.789 362.553C423.802 362.508 423.825 362.455 423.855 362.395C423.96 362.276 424.106 362.189 424.292 362.132C424.484 362.078 424.695 362.085 424.925 362.154Z" fill="#59BB49"/>
<path d="M430.947 361.964L430.651 362.664L430.252 363.982L429.227 363.672L428.655 363.574L429.185 363.377L430.432 362.485L430.913 361.954L430.947 361.964Z" fill="#59BB49"/>
<path d="M415 351L439 360L435 372L411 363.5L415 351ZM421.241 362.883C421.411 362.671 421.539 362.425 421.624 362.143C421.715 361.845 421.751 361.567 421.735 361.312C421.718 361.056 421.656 360.827 421.548 360.625C421.441 360.417 421.291 360.24 421.097 360.094C420.903 359.947 420.677 359.835 420.419 359.757C420.143 359.673 419.898 359.656 419.682 359.703C419.469 359.745 419.283 359.821 419.125 359.93C419.25 359.704 419.409 359.498 419.603 359.313C419.805 359.123 420.025 358.964 420.265 358.836C420.51 358.709 420.773 358.617 421.054 358.557C421.335 358.498 421.626 358.489 421.927 358.53L421.946 357.567C421.512 357.511 421.076 357.533 420.638 357.632C420.208 357.728 419.8 357.905 419.415 358.165C419.036 358.42 418.694 358.752 418.389 359.162C418.089 359.572 417.853 360.062 417.681 360.631C417.567 361.01 417.517 361.358 417.534 361.677C417.55 361.995 417.622 362.277 417.748 362.522C417.875 362.767 418.047 362.976 418.264 363.148C418.489 363.317 418.751 363.446 419.049 363.536C419.342 363.625 419.625 363.654 419.897 363.624C420.176 363.595 420.428 363.518 420.654 363.392C420.88 363.266 421.076 363.096 421.241 362.883ZM426.3 364.414C426.471 364.202 426.599 363.955 426.684 363.674C426.774 363.375 426.811 363.098 426.795 362.842C426.778 362.587 426.716 362.358 426.607 362.156C426.501 361.948 426.351 361.771 426.157 361.625C425.963 361.478 425.737 361.366 425.478 361.288C425.203 361.204 424.957 361.186 424.742 361.234C424.529 361.276 424.343 361.352 424.185 361.46C424.31 361.235 424.469 361.029 424.663 360.843C424.865 360.654 425.085 360.495 425.325 360.367C425.57 360.24 425.833 360.147 426.114 360.088C426.395 360.029 426.686 360.02 426.987 360.061L427.006 359.098C426.572 359.042 426.136 359.064 425.698 359.163C425.268 359.259 424.86 359.436 424.474 359.696C424.096 359.951 423.754 360.283 423.449 360.692C423.149 361.103 422.913 361.593 422.741 362.161C422.627 362.54 422.577 362.889 422.594 363.208C422.61 363.526 422.682 363.808 422.808 364.053C422.935 364.298 423.107 364.507 423.324 364.679C423.549 364.847 423.811 364.977 424.109 365.067C424.402 365.156 424.685 365.185 424.957 365.154C425.236 365.126 425.488 365.048 425.714 364.923C425.94 364.797 426.136 364.627 426.3 364.414ZM431.023 365.194L431.971 365.48L432.242 364.584L431.294 364.298L432.353 360.8L431.431 360.521L427.564 363.451L427.371 364.089L429.981 364.878L429.473 366.558L430.515 366.873L431.023 365.194Z" fill="#59BB49"/>
</svg>
