<svg width="920" height="755" viewBox="0 0 920 755" fill="none" xmlns="http://www.w3.org/2000/svg">
<path d="M415.865 372.624C416.497 372.815 416.715 373.232 416.521 373.875C416.434 374.162 416.276 374.372 416.048 374.503C415.826 374.637 415.58 374.663 415.31 374.581C415.144 374.53 415.01 374.455 414.908 374.356C414.808 374.25 414.734 374.134 414.685 374.006C414.643 373.874 414.622 373.736 414.622 373.592C414.624 373.442 414.645 373.298 414.687 373.16L414.729 373.023C414.742 372.977 414.765 372.924 414.795 372.864C414.9 372.745 415.046 372.658 415.232 372.601C415.424 372.547 415.635 372.554 415.865 372.624Z" fill="#59BB49"/>
<path d="M420.925 374.154C421.556 374.346 421.775 374.763 421.58 375.406C421.494 375.693 421.336 375.902 421.108 376.034C420.886 376.167 420.64 376.193 420.37 376.112C420.204 376.061 420.07 375.986 419.968 375.887C419.868 375.781 419.794 375.665 419.745 375.537C419.703 375.405 419.682 375.267 419.682 375.123C419.684 374.973 419.705 374.829 419.747 374.691L419.789 374.553C419.802 374.508 419.825 374.455 419.855 374.395C419.96 374.276 420.106 374.189 420.292 374.132C420.484 374.078 420.695 374.085 420.925 374.154Z" fill="#59BB49"/>
<path d="M411 364L435 372.5L430.5 384L407.5 376.5L411 364ZM417.241 374.883C417.411 374.671 417.539 374.425 417.624 374.143C417.715 373.845 417.751 373.567 417.735 373.312C417.718 373.056 417.656 372.827 417.548 372.625C417.441 372.417 417.291 372.24 417.097 372.094C416.903 371.947 416.677 371.835 416.419 371.757C416.143 371.673 415.898 371.656 415.682 371.703C415.469 371.745 415.283 371.821 415.125 371.93C415.25 371.704 415.409 371.498 415.603 371.313C415.805 371.123 416.025 370.964 416.265 370.836C416.51 370.709 416.773 370.617 417.054 370.557C417.335 370.498 417.626 370.489 417.927 370.53L417.946 369.567C417.512 369.511 417.076 369.533 416.638 369.632C416.208 369.728 415.8 369.905 415.415 370.165C415.036 370.42 414.694 370.752 414.389 371.162C414.089 371.572 413.853 372.062 413.681 372.631C413.567 373.01 413.517 373.358 413.534 373.677C413.55 373.995 413.622 374.277 413.748 374.522C413.875 374.767 414.047 374.976 414.264 375.148C414.489 375.317 414.751 375.446 415.049 375.536C415.342 375.625 415.625 375.654 415.897 375.624C416.176 375.595 416.428 375.518 416.654 375.392C416.88 375.266 417.076 375.096 417.241 374.883ZM422.3 376.414C422.471 376.202 422.599 375.955 422.684 375.674C422.774 375.375 422.811 375.098 422.795 374.842C422.778 374.587 422.716 374.358 422.607 374.156C422.501 373.948 422.351 373.771 422.157 373.625C421.963 373.478 421.737 373.366 421.478 373.288C421.203 373.204 420.957 373.186 420.742 373.234C420.529 373.276 420.343 373.352 420.185 373.46C420.31 373.235 420.469 373.029 420.663 372.843C420.865 372.654 421.085 372.495 421.325 372.367C421.57 372.24 421.833 372.147 422.114 372.088C422.395 372.029 422.686 372.02 422.987 372.061L423.006 371.098C422.572 371.042 422.136 371.064 421.698 371.163C421.268 371.259 420.86 371.436 420.474 371.696C420.096 371.951 419.754 372.283 419.449 372.692C419.149 373.103 418.913 373.593 418.741 374.161C418.627 374.54 418.577 374.889 418.594 375.208C418.61 375.526 418.682 375.808 418.808 376.053C418.935 376.298 419.107 376.507 419.324 376.679C419.549 376.847 419.811 376.977 420.109 377.067C420.402 377.156 420.685 377.185 420.957 377.154C421.236 377.126 421.488 377.048 421.714 376.923C421.94 376.797 422.136 376.627 422.3 376.414ZM425.811 377.41C425.554 377.533 425.236 377.537 424.857 377.422C424.633 377.354 424.445 377.282 424.293 377.205C424.149 377.123 424.019 377.034 423.904 376.936L423.321 377.776C423.46 377.899 423.637 378.015 423.855 378.125C424.077 378.242 424.316 378.34 424.575 378.418C424.902 378.517 425.217 378.565 425.519 378.563C425.82 378.56 426.098 378.503 426.351 378.391C426.61 378.281 426.836 378.115 427.029 377.891C427.222 377.667 427.369 377.386 427.472 377.047C427.559 376.76 427.594 376.489 427.577 376.233C427.562 375.971 427.499 375.736 427.387 375.526C427.276 375.311 427.12 375.123 426.918 374.962C426.722 374.802 426.485 374.674 426.207 374.577L425.843 374.505L426.195 373.342L428.194 373.946L428.512 372.896L425.548 371.999L424.595 375.152L425.283 375.332C425.719 375.464 426.031 375.646 426.218 375.878C426.405 376.11 426.446 376.398 426.342 376.743C426.244 377.065 426.067 377.287 425.811 377.41Z" fill="#59BB49"/>
</svg>
