<svg width="920" height="755" viewBox="0 0 920 755" fill="none" xmlns="http://www.w3.org/2000/svg">
<path d="M410.865 385.624C411.497 385.815 411.715 386.232 411.521 386.875C411.434 387.162 411.276 387.372 411.048 387.503C410.826 387.637 410.58 387.663 410.31 387.581C410.144 387.53 410.01 387.455 409.908 387.356C409.808 387.25 409.734 387.134 409.685 387.006C409.643 386.874 409.622 386.736 409.622 386.592C409.624 386.442 409.645 386.298 409.687 386.16L409.729 386.023C409.742 385.977 409.765 385.924 409.795 385.864C409.9 385.745 410.046 385.658 410.232 385.601C410.424 385.547 410.635 385.554 410.865 385.624Z" fill="#59BB49"/>
<path d="M415.925 387.154C416.556 387.346 416.775 387.763 416.58 388.406C416.494 388.693 416.336 388.902 416.108 389.034C415.886 389.167 415.64 389.193 415.37 389.112C415.204 389.061 415.07 388.986 414.968 388.887C414.868 388.781 414.794 388.665 414.745 388.537C414.703 388.405 414.682 388.267 414.682 388.123C414.684 387.973 414.705 387.829 414.747 387.691L414.789 387.553C414.802 387.508 414.825 387.455 414.855 387.395C414.96 387.276 415.106 387.189 415.292 387.132C415.484 387.078 415.695 387.085 415.925 387.154Z" fill="#59BB49"/>
<path d="M420.985 388.685C421.616 388.876 421.835 389.294 421.64 389.937C421.554 390.224 421.396 390.433 421.168 390.565C420.946 390.698 420.7 390.724 420.43 390.643C420.264 390.592 420.13 390.517 420.028 390.417C419.928 390.312 419.854 390.195 419.805 390.068C419.763 389.936 419.742 389.798 419.742 389.654C419.743 389.504 419.765 389.36 419.807 389.222L419.848 389.084C419.862 389.038 419.885 388.986 419.915 388.926C420.02 388.807 420.166 388.72 420.352 388.663C420.544 388.608 420.755 388.616 420.985 388.685Z" fill="#59BB49"/>
<path d="M407.5 377L430 384.5L425.5 397L404 389L407.5 377ZM412.241 387.883C412.411 387.671 412.539 387.425 412.624 387.143C412.715 386.845 412.751 386.567 412.735 386.312C412.718 386.056 412.656 385.827 412.548 385.625C412.441 385.417 412.291 385.24 412.097 385.094C411.903 384.947 411.677 384.835 411.419 384.757C411.143 384.673 410.898 384.656 410.682 384.703C410.469 384.745 410.283 384.821 410.125 384.93C410.25 384.704 410.409 384.498 410.603 384.313C410.805 384.123 411.025 383.964 411.265 383.836C411.51 383.709 411.773 383.617 412.054 383.557C412.335 383.498 412.626 383.489 412.927 383.53L412.946 382.567C412.512 382.511 412.076 382.533 411.638 382.632C411.208 382.728 410.8 382.905 410.415 383.165C410.036 383.42 409.694 383.752 409.389 384.162C409.089 384.572 408.853 385.062 408.681 385.631C408.567 386.01 408.517 386.358 408.534 386.677C408.55 386.995 408.622 387.277 408.748 387.522C408.875 387.767 409.047 387.976 409.264 388.148C409.489 388.317 409.751 388.446 410.049 388.536C410.342 388.625 410.625 388.654 410.897 388.624C411.176 388.595 411.428 388.518 411.654 388.392C411.88 388.266 412.076 388.096 412.241 387.883ZM417.3 389.414C417.471 389.202 417.599 388.955 417.684 388.674C417.774 388.375 417.811 388.098 417.795 387.842C417.778 387.587 417.716 387.358 417.607 387.156C417.501 386.948 417.351 386.771 417.157 386.625C416.963 386.478 416.737 386.366 416.478 386.288C416.203 386.204 415.957 386.186 415.742 386.234C415.529 386.276 415.343 386.352 415.185 386.46C415.31 386.235 415.469 386.029 415.663 385.843C415.865 385.654 416.085 385.495 416.325 385.367C416.57 385.24 416.833 385.147 417.114 385.088C417.395 385.029 417.686 385.02 417.987 385.061L418.006 384.098C417.572 384.042 417.136 384.064 416.698 384.163C416.268 384.259 415.86 384.436 415.474 384.696C415.096 384.951 414.754 385.283 414.449 385.692C414.149 386.103 413.913 386.593 413.741 387.161C413.627 387.54 413.577 387.889 413.594 388.208C413.61 388.526 413.682 388.808 413.808 389.053C413.935 389.298 414.107 389.507 414.324 389.679C414.549 389.847 414.811 389.977 415.109 390.067C415.402 390.156 415.685 390.185 415.957 390.154C416.236 390.126 416.488 390.048 416.714 389.923C416.94 389.797 417.136 389.627 417.3 389.414ZM422.36 390.944C422.531 390.733 422.659 390.486 422.744 390.205C422.834 389.906 422.871 389.629 422.855 389.373C422.838 389.117 422.776 388.889 422.667 388.687C422.561 388.479 422.411 388.302 422.217 388.155C422.023 388.009 421.797 387.897 421.538 387.818C421.263 387.735 421.017 387.717 420.802 387.765C420.589 387.807 420.403 387.882 420.245 387.991C420.37 387.766 420.529 387.56 420.723 387.374C420.925 387.185 421.145 387.026 421.385 386.897C421.63 386.771 421.893 386.678 422.174 386.619C422.455 386.56 422.746 386.551 423.047 386.592L423.066 385.629C422.632 385.573 422.196 385.594 421.758 385.694C421.328 385.79 420.92 385.967 420.534 386.226C420.156 386.482 419.814 386.814 419.509 387.223C419.209 387.634 418.973 388.124 418.801 388.692C418.686 389.071 418.637 389.42 418.654 389.738C418.67 390.057 418.742 390.339 418.868 390.584C418.995 390.829 419.167 391.038 419.384 391.21C419.609 391.378 419.871 391.508 420.169 391.598C420.462 391.687 420.745 391.716 421.017 391.685C421.296 391.657 421.548 391.579 421.774 391.453C422 391.327 422.196 391.158 422.36 390.944Z" fill="#59BB49"/>
</svg>
