<svg width="920" height="755" viewBox="0 0 920 755" fill="none" xmlns="http://www.w3.org/2000/svg">
<path d="M407.865 397.624C408.497 397.815 408.715 398.232 408.521 398.875C408.434 399.162 408.276 399.372 408.048 399.503C407.826 399.637 407.58 399.663 407.31 399.581C407.144 399.53 407.01 399.455 406.908 399.356C406.808 399.25 406.734 399.134 406.685 399.006C406.643 398.874 406.622 398.736 406.622 398.592C406.624 398.442 406.645 398.298 406.687 398.16L406.729 398.023C406.742 397.977 406.765 397.924 406.795 397.864C406.9 397.745 407.046 397.658 407.232 397.601C407.424 397.547 407.635 397.554 407.865 397.624Z" fill="#59BB49"/>
<path d="M412.925 399.154C413.556 399.346 413.775 399.763 413.58 400.406C413.494 400.693 413.336 400.902 413.108 401.034C412.886 401.167 412.64 401.193 412.37 401.112C412.204 401.061 412.07 400.986 411.968 400.887C411.868 400.781 411.794 400.665 411.745 400.537C411.703 400.405 411.682 400.267 411.682 400.123C411.684 399.973 411.705 399.829 411.747 399.691L411.789 399.553C411.802 399.508 411.825 399.455 411.855 399.395C411.96 399.276 412.106 399.189 412.292 399.132C412.484 399.078 412.695 399.085 412.925 399.154Z" fill="#59BB49"/>
<path d="M404 389.5L425.5 397.5L421 409L400.5 402L404 389.5ZM409.241 399.883C409.411 399.671 409.539 399.425 409.624 399.143C409.715 398.845 409.751 398.567 409.735 398.312C409.718 398.056 409.656 397.827 409.548 397.625C409.441 397.417 409.291 397.24 409.097 397.094C408.903 396.947 408.677 396.835 408.419 396.757C408.143 396.673 407.898 396.656 407.682 396.703C407.469 396.745 407.283 396.821 407.125 396.93C407.25 396.704 407.409 396.498 407.603 396.313C407.805 396.123 408.025 395.964 408.265 395.836C408.51 395.709 408.773 395.617 409.054 395.557C409.335 395.498 409.626 395.489 409.927 395.53L409.946 394.567C409.512 394.511 409.076 394.533 408.638 394.632C408.208 394.728 407.8 394.905 407.415 395.165C407.036 395.42 406.694 395.752 406.389 396.162C406.089 396.572 405.853 397.062 405.681 397.631C405.567 398.01 405.517 398.358 405.534 398.677C405.55 398.995 405.622 399.277 405.748 399.522C405.875 399.767 406.047 399.976 406.264 400.148C406.489 400.317 406.751 400.446 407.049 400.536C407.342 400.625 407.625 400.654 407.897 400.624C408.176 400.595 408.428 400.518 408.654 400.392C408.88 400.266 409.076 400.096 409.241 399.883ZM414.3 401.414C414.471 401.202 414.599 400.955 414.684 400.674C414.774 400.375 414.811 400.098 414.795 399.842C414.778 399.587 414.716 399.358 414.607 399.156C414.501 398.948 414.351 398.771 414.157 398.625C413.963 398.478 413.737 398.366 413.478 398.288C413.203 398.204 412.957 398.186 412.742 398.234C412.529 398.276 412.343 398.352 412.185 398.46C412.31 398.235 412.469 398.029 412.663 397.843C412.865 397.654 413.085 397.495 413.325 397.367C413.57 397.24 413.833 397.147 414.114 397.088C414.395 397.029 414.686 397.02 414.987 397.061L415.006 396.098C414.572 396.042 414.136 396.064 413.698 396.163C413.268 396.259 412.86 396.436 412.474 396.696C412.096 396.951 411.754 397.283 411.449 397.692C411.149 398.103 410.913 398.593 410.741 399.161C410.627 399.54 410.577 399.889 410.594 400.208C410.61 400.526 410.682 400.808 410.808 401.053C410.935 401.298 411.107 401.507 411.324 401.679C411.549 401.847 411.811 401.977 412.109 402.067C412.402 402.156 412.685 402.185 412.957 402.154C413.236 402.126 413.488 402.048 413.714 401.923C413.94 401.797 414.136 401.627 414.3 401.414ZM418.972 398.944L415.595 402.99L416.689 403.321L420.826 398.348L420.925 398.021L417.04 396.845L416.722 397.896L418.936 398.566L419.479 398.636L418.972 398.944Z" fill="#59BB49"/>
</svg>
