<svg width="920" height="755" viewBox="0 0 920 755" fill="none" xmlns="http://www.w3.org/2000/svg">
<path d="M402.865 411.624C403.497 411.815 403.715 412.232 403.521 412.875C403.434 413.162 403.276 413.372 403.048 413.503C402.826 413.637 402.58 413.663 402.31 413.581C402.144 413.53 402.01 413.455 401.908 413.356C401.808 413.25 401.734 413.134 401.685 413.006C401.643 412.874 401.622 412.736 401.622 412.592C401.624 412.442 401.645 412.298 401.687 412.16L401.729 412.023C401.742 411.977 401.765 411.924 401.795 411.864C401.9 411.745 402.046 411.658 402.232 411.601C402.424 411.547 402.635 411.554 402.865 411.624Z" fill="#59BB49"/>
<path d="M407.925 413.154C408.556 413.346 408.775 413.763 408.58 414.406C408.494 414.693 408.336 414.902 408.108 415.034C407.886 415.167 407.64 415.193 407.37 415.112C407.204 415.061 407.07 414.986 406.968 414.887C406.868 414.781 406.794 414.665 406.745 414.537C406.703 414.405 406.682 414.267 406.682 414.123C406.684 413.973 406.705 413.829 406.747 413.691L406.789 413.553C406.802 413.508 406.825 413.455 406.855 413.395C406.96 413.276 407.106 413.189 407.292 413.132C407.484 413.078 407.695 413.085 407.925 413.154Z" fill="#59BB49"/>
<path d="M413.493 415.742C413.523 415.87 413.518 416 413.478 416.132C413.401 416.385 413.264 416.55 413.065 416.628C412.871 416.707 412.646 416.708 412.387 416.629C412.106 416.544 411.909 416.397 411.797 416.188C411.692 415.974 411.674 415.753 411.744 415.523C411.798 415.345 411.901 415.182 412.052 415.033C412.211 414.881 412.449 414.768 412.766 414.694C412.871 414.801 412.973 414.91 413.071 415.022C413.175 415.135 413.262 415.252 413.331 415.373C413.409 415.491 413.462 415.613 413.493 415.742Z" fill="#59BB49"/>
<path d="M412.781 413.091C412.76 412.972 412.771 412.843 412.813 412.706C412.866 412.528 412.971 412.39 413.126 412.293C413.286 412.197 413.493 412.187 413.745 412.264C413.946 412.325 414.097 412.439 414.196 412.607C414.303 412.771 414.321 412.974 414.248 413.215C414.142 413.565 413.872 413.835 413.439 414.023C413.336 413.929 413.236 413.834 413.14 413.736C413.052 413.634 412.973 413.532 412.904 413.429C412.842 413.323 412.801 413.21 412.781 413.091Z" fill="#59BB49"/>
<path d="M400.5 402.5L421 409.5L415 424L396.5 417.5L400.5 402.5ZM404.241 413.883C404.411 413.671 404.539 413.425 404.624 413.143C404.715 412.845 404.751 412.567 404.735 412.312C404.718 412.056 404.656 411.827 404.548 411.625C404.441 411.417 404.291 411.24 404.097 411.094C403.903 410.947 403.677 410.835 403.419 410.757C403.143 410.673 402.898 410.656 402.682 410.703C402.469 410.745 402.283 410.821 402.125 410.93C402.25 410.704 402.409 410.498 402.603 410.313C402.805 410.123 403.025 409.964 403.265 409.836C403.51 409.709 403.773 409.617 404.054 409.557C404.335 409.498 404.626 409.489 404.927 409.53L404.946 408.567C404.512 408.511 404.076 408.533 403.638 408.632C403.208 408.728 402.8 408.905 402.415 409.165C402.036 409.42 401.694 409.752 401.389 410.162C401.089 410.572 400.853 411.062 400.681 411.631C400.567 412.01 400.517 412.358 400.534 412.677C400.55 412.995 400.622 413.277 400.748 413.522C400.875 413.767 401.047 413.976 401.264 414.148C401.489 414.317 401.751 414.446 402.049 414.536C402.342 414.625 402.625 414.654 402.897 414.624C403.176 414.595 403.428 414.518 403.654 414.392C403.88 414.266 404.076 414.096 404.241 413.883ZM409.3 415.414C409.471 415.202 409.599 414.955 409.684 414.674C409.774 414.375 409.811 414.098 409.795 413.842C409.778 413.587 409.716 413.358 409.607 413.156C409.501 412.948 409.351 412.771 409.157 412.625C408.963 412.478 408.737 412.366 408.478 412.288C408.203 412.204 407.957 412.186 407.742 412.234C407.529 412.276 407.343 412.352 407.185 412.46C407.31 412.235 407.469 412.029 407.663 411.843C407.865 411.654 408.085 411.495 408.325 411.367C408.57 411.24 408.833 411.147 409.114 411.088C409.395 411.029 409.686 411.02 409.987 411.061L410.006 410.098C409.572 410.042 409.136 410.064 408.698 410.163C408.268 410.259 407.86 410.436 407.474 410.696C407.096 410.951 406.754 411.283 406.449 411.692C406.149 412.103 405.913 412.593 405.741 413.161C405.627 413.54 405.577 413.889 405.594 414.208C405.61 414.526 405.682 414.808 405.808 415.053C405.935 415.298 406.107 415.507 406.324 415.679C406.549 415.847 406.811 415.977 407.109 416.067C407.402 416.156 407.685 416.185 407.957 416.154C408.236 416.126 408.488 416.048 408.714 415.923C408.94 415.797 409.136 415.627 409.3 415.414ZM410.909 414.894C410.811 415.034 410.731 415.204 410.67 415.405C410.597 415.646 410.574 415.877 410.601 416.099C410.634 416.322 410.71 416.526 410.829 416.713C410.954 416.901 411.12 417.067 411.327 417.211C411.538 417.363 411.787 417.482 412.075 417.569C412.362 417.656 412.638 417.696 412.904 417.688C413.171 417.675 413.413 417.62 413.631 417.523C413.848 417.426 414.034 417.288 414.189 417.109C414.35 416.926 414.47 416.705 414.549 416.447C414.663 416.068 414.668 415.731 414.563 415.435C414.464 415.142 414.272 414.843 413.988 414.538C414.34 414.431 414.627 414.282 414.847 414.092C415.074 413.904 415.238 413.64 415.34 413.301C415.406 413.083 415.423 412.872 415.391 412.668C415.366 412.46 415.295 412.269 415.179 412.096C415.068 411.924 414.916 411.772 414.725 411.639C414.533 411.505 414.308 411.4 414.049 411.321C413.768 411.236 413.503 411.2 413.255 411.213C413.007 411.225 412.78 411.279 412.576 411.374C412.378 411.471 412.206 411.604 412.06 411.773C411.921 411.944 411.817 412.141 411.75 412.365C411.645 412.71 411.638 413.024 411.728 413.308C411.819 413.587 411.978 413.857 412.206 414.121C412.03 414.161 411.861 414.214 411.698 414.277C411.54 414.342 411.393 414.426 411.255 414.529C411.125 414.627 411.01 414.749 410.909 414.894Z" fill="#59BB49"/>
</svg>
