<svg width="920" height="755" viewBox="0 0 920 755" fill="none" xmlns="http://www.w3.org/2000/svg">
<path d="M397.865 427.624C398.497 427.815 398.715 428.232 398.521 428.875C398.434 429.162 398.276 429.372 398.048 429.503C397.826 429.637 397.58 429.663 397.31 429.581C397.144 429.53 397.01 429.455 396.908 429.356C396.808 429.25 396.734 429.134 396.685 429.006C396.643 428.874 396.622 428.736 396.622 428.592C396.624 428.442 396.645 428.298 396.687 428.16L396.729 428.023C396.742 427.977 396.765 427.924 396.795 427.864C396.9 427.745 397.046 427.658 397.232 427.601C397.424 427.547 397.635 427.554 397.865 427.624Z" fill="#59BB49"/>
<path d="M402.925 429.154C403.556 429.346 403.775 429.763 403.58 430.406C403.494 430.693 403.336 430.902 403.108 431.034C402.886 431.167 402.64 431.193 402.37 431.112C402.204 431.061 402.07 430.986 401.968 430.887C401.868 430.781 401.794 430.665 401.745 430.537C401.703 430.405 401.682 430.267 401.682 430.123C401.684 429.973 401.705 429.829 401.747 429.691L401.789 429.553C401.802 429.508 401.825 429.455 401.855 429.395C401.96 429.276 402.106 429.189 402.292 429.132C402.484 429.078 402.695 429.085 402.925 429.154Z" fill="#59BB49"/>
<path d="M407.495 429.785C407.362 429.563 407.345 429.288 407.444 428.961C407.541 428.639 407.694 428.413 407.903 428.282C408.114 428.145 408.36 428.119 408.641 428.204C408.819 428.258 408.96 428.341 409.064 428.454C409.175 428.563 409.253 428.69 409.297 428.835C409.346 428.982 409.368 429.138 409.361 429.306C409.354 429.473 409.327 429.637 409.278 429.798C409.245 429.907 409.202 430.019 409.148 430.135C409.035 430.219 408.892 430.276 408.72 430.306C408.548 430.335 408.344 430.315 408.109 430.243C407.833 430.16 407.629 430.007 407.495 429.785Z" fill="#59BB49"/>
<path d="M396.5 418L415 424.5L409.5 439.5L392 433L396.5 418ZM399.241 429.883C399.411 429.671 399.539 429.425 399.624 429.143C399.715 428.845 399.751 428.567 399.735 428.312C399.718 428.056 399.656 427.827 399.548 427.625C399.441 427.417 399.291 427.24 399.097 427.094C398.903 426.947 398.677 426.835 398.419 426.757C398.143 426.673 397.898 426.656 397.682 426.703C397.469 426.745 397.283 426.821 397.125 426.93C397.25 426.704 397.409 426.498 397.603 426.313C397.805 426.123 398.025 425.964 398.265 425.836C398.51 425.709 398.773 425.617 399.054 425.557C399.335 425.498 399.626 425.489 399.927 425.53L399.946 424.567C399.512 424.511 399.076 424.533 398.638 424.632C398.208 424.728 397.8 424.905 397.415 425.165C397.036 425.42 396.694 425.752 396.389 426.162C396.089 426.572 395.853 427.062 395.681 427.631C395.567 428.01 395.517 428.358 395.534 428.677C395.55 428.995 395.622 429.277 395.748 429.522C395.875 429.767 396.047 429.976 396.264 430.148C396.489 430.317 396.751 430.446 397.049 430.536C397.342 430.625 397.625 430.654 397.897 430.624C398.176 430.595 398.428 430.518 398.654 430.392C398.88 430.266 399.076 430.096 399.241 429.883ZM404.3 431.414C404.471 431.202 404.599 430.955 404.684 430.674C404.774 430.375 404.811 430.098 404.795 429.842C404.778 429.587 404.716 429.358 404.607 429.156C404.501 428.948 404.351 428.771 404.157 428.625C403.963 428.478 403.737 428.366 403.478 428.288C403.203 428.204 402.957 428.186 402.742 428.234C402.529 428.276 402.343 428.352 402.185 428.46C402.31 428.235 402.469 428.029 402.663 427.843C402.865 427.654 403.085 427.495 403.325 427.367C403.57 427.24 403.833 427.147 404.114 427.088C404.395 427.029 404.686 427.02 404.987 427.061L405.006 426.098C404.572 426.042 404.136 426.064 403.698 426.163C403.268 426.259 402.86 426.436 402.474 426.696C402.096 426.951 401.754 427.283 401.449 427.692C401.149 428.103 400.913 428.593 400.741 429.161C400.627 429.54 400.577 429.889 400.594 430.208C400.61 430.526 400.682 430.808 400.808 431.053C400.935 431.298 401.107 431.507 401.324 431.679C401.549 431.847 401.811 431.977 402.109 432.067C402.402 432.156 402.685 432.185 402.957 432.154C403.236 432.126 403.488 432.048 403.714 431.923C403.94 431.797 404.136 431.627 404.3 431.414ZM406.714 427.922C406.554 428.143 406.429 428.4 406.34 428.693C406.245 429.009 406.213 429.3 406.245 429.567C406.285 429.829 406.364 430.063 406.484 430.269C406.611 430.47 406.77 430.64 406.96 430.779C407.155 430.92 407.362 431.023 407.58 431.089C407.845 431.169 408.063 431.204 408.235 431.194C408.413 431.185 408.594 431.127 408.777 431.019C408.656 431.252 408.506 431.46 408.325 431.644C408.151 431.823 407.95 431.972 407.719 432.091C407.491 432.203 407.236 432.28 406.954 432.32C406.673 432.36 406.368 432.352 406.04 432.297L406.015 433.249C406.439 433.339 406.864 433.355 407.289 433.296C407.714 433.236 408.116 433.088 408.495 432.852C408.881 432.611 409.231 432.275 409.543 431.843C409.863 431.407 410.124 430.856 410.325 430.19C410.55 429.449 410.533 428.83 410.276 428.332C410.027 427.83 409.578 427.481 408.929 427.285C408.613 427.189 408.316 427.156 408.038 427.185C407.767 427.209 407.518 427.285 407.292 427.41C407.074 427.532 406.881 427.703 406.714 427.922Z" fill="#59BB49"/>
</svg>
