<svg width="920" height="755" viewBox="0 0 920 755" fill="none" xmlns="http://www.w3.org/2000/svg">
<path d="M392.865 442.624C393.497 442.815 393.715 443.232 393.521 443.875C393.434 444.162 393.276 444.372 393.048 444.503C392.826 444.637 392.58 444.663 392.31 444.581C392.144 444.53 392.01 444.455 391.908 444.356C391.808 444.25 391.734 444.134 391.685 444.006C391.643 443.874 391.622 443.736 391.622 443.592C391.624 443.442 391.645 443.298 391.687 443.16L391.729 443.023C391.742 442.977 391.765 442.924 391.795 442.864C391.9 442.745 392.046 442.658 392.232 442.601C392.424 442.547 392.635 442.554 392.865 442.624Z" fill="#59BB49"/>
<path d="M401.81 446.834C401.777 446.404 401.866 445.839 402.078 445.138C402.302 444.397 402.543 443.872 402.8 443.561C403.063 443.252 403.366 443.149 403.711 443.253C404.073 443.363 404.271 443.63 404.306 444.054C404.34 444.478 404.253 445.038 404.042 445.733C403.811 446.496 403.562 447.029 403.296 447.331C403.034 447.634 402.735 447.735 402.396 447.632C402.045 447.526 401.85 447.26 401.81 446.834Z" fill="#59BB49"/>
<path d="M392 433.5L409.5 440L403.5 454L388 448.5L392 433.5ZM394.241 444.883C394.411 444.671 394.539 444.425 394.624 444.143C394.715 443.845 394.751 443.567 394.735 443.312C394.718 443.056 394.656 442.827 394.548 442.625C394.441 442.417 394.291 442.24 394.097 442.094C393.903 441.947 393.677 441.835 393.419 441.757C393.143 441.673 392.898 441.656 392.682 441.703C392.469 441.745 392.283 441.821 392.125 441.93C392.25 441.704 392.409 441.498 392.603 441.313C392.805 441.123 393.025 440.964 393.265 440.836C393.51 440.709 393.773 440.617 394.054 440.557C394.335 440.498 394.626 440.489 394.927 440.53L394.946 439.567C394.512 439.511 394.076 439.533 393.638 439.632C393.208 439.728 392.8 439.905 392.415 440.165C392.036 440.42 391.694 440.752 391.389 441.162C391.089 441.572 390.853 442.062 390.681 442.631C390.567 443.01 390.517 443.358 390.534 443.677C390.55 443.995 390.622 444.277 390.748 444.522C390.875 444.767 391.047 444.976 391.264 445.148C391.489 445.317 391.751 445.446 392.049 445.536C392.342 445.625 392.625 445.654 392.897 445.624C393.176 445.595 393.428 445.518 393.654 445.392C393.88 445.266 394.076 445.096 394.241 444.883ZM398.912 442.413L395.535 446.459L396.629 446.79L400.766 441.817L400.865 441.49L396.98 440.314L396.662 441.365L398.876 442.035L399.419 442.105L398.912 442.413ZM402.213 442.612C401.696 443.014 401.278 443.743 400.958 444.8C400.653 445.81 400.587 446.64 400.76 447.288C400.936 447.93 401.383 448.36 402.1 448.577C402.778 448.782 403.376 448.681 403.894 448.273C404.418 447.868 404.841 447.134 405.162 446.071C405.485 445.003 405.554 444.165 405.368 443.557C405.184 442.944 404.73 442.527 404.006 442.308C403.329 442.103 402.731 442.205 402.213 442.612Z" fill="#59BB49"/>
</svg>
