<svg width="920" height="755" viewBox="0 0 920 755" fill="none" xmlns="http://www.w3.org/2000/svg">
<path d="M388.865 458.624C389.497 458.815 389.715 459.232 389.521 459.875C389.434 460.162 389.276 460.372 389.048 460.503C388.826 460.637 388.58 460.663 388.31 460.581C388.144 460.53 388.01 460.455 387.908 460.356C387.808 460.25 387.734 460.134 387.685 460.006C387.643 459.874 387.622 459.736 387.622 459.592C387.624 459.442 387.645 459.298 387.687 459.16L387.729 459.023C387.742 458.977 387.765 458.924 387.795 458.864C387.9 458.745 388.046 458.658 388.232 458.601C388.424 458.547 388.635 458.554 388.865 458.624Z" fill="#59BB49"/>
<path d="M388 449L403.5 454.5L397 474L383.5 469.5L388 449ZM390.241 460.883C390.411 460.671 390.539 460.425 390.624 460.143C390.715 459.845 390.751 459.567 390.735 459.312C390.718 459.056 390.656 458.827 390.548 458.625C390.441 458.417 390.291 458.24 390.097 458.094C389.903 457.947 389.677 457.835 389.419 457.757C389.143 457.673 388.898 457.656 388.682 457.703C388.469 457.745 388.283 457.821 388.125 457.93C388.25 457.704 388.409 457.498 388.603 457.313C388.805 457.123 389.025 456.964 389.265 456.836C389.51 456.709 389.773 456.617 390.054 456.557C390.335 456.498 390.626 456.489 390.927 456.53L390.946 455.567C390.512 455.511 390.076 455.533 389.638 455.632C389.208 455.728 388.8 455.905 388.415 456.165C388.036 456.42 387.694 456.752 387.389 457.162C387.089 457.572 386.853 458.062 386.681 458.631C386.567 459.01 386.517 459.358 386.534 459.677C386.55 459.995 386.622 460.277 386.748 460.522C386.875 460.767 387.047 460.976 387.264 461.148C387.489 461.317 387.751 461.446 388.049 461.536C388.342 461.625 388.625 461.654 388.897 461.624C389.176 461.595 389.428 461.518 389.654 461.392C389.88 461.266 390.076 461.096 390.241 460.883ZM394.266 458.217L390.889 462.264L391.983 462.595L396.12 457.622L396.219 457.294L392.334 456.119L392.016 457.17L394.23 457.84L394.773 457.91L394.266 458.217ZM396.761 463.006L395.564 462.644L395.277 463.591L398.714 464.631L399.001 463.683L397.829 463.329L399.398 458.143L398.769 457.953L396.326 458.944L396.604 459.733L397.53 459.44L398.097 459.057L397.79 459.603L396.761 463.006Z" fill="#59BB49"/>
</svg>
