<svg width="920" height="755" viewBox="0 0 920 755" fill="none" xmlns="http://www.w3.org/2000/svg">
<path d="M386.609 487.329C386.79 486.695 387.204 486.47 387.85 486.655C388.139 486.738 388.35 486.892 388.485 487.118C388.622 487.338 388.652 487.584 388.574 487.855C388.526 488.022 388.453 488.157 388.355 488.26C388.251 488.361 388.135 488.437 388.008 488.488C387.877 488.532 387.74 488.555 387.596 488.557C387.446 488.558 387.301 488.539 387.163 488.499L387.024 488.459C386.978 488.446 386.925 488.425 386.865 488.395C386.745 488.292 386.655 488.148 386.596 487.962C386.538 487.771 386.543 487.56 386.609 487.329Z" fill="#59BB49"/>
<path d="M383.5 470L397 474.5L384.5 506.5H381V490L381.5 474.5L383.5 470ZM388.847 485.92C388.633 485.753 388.385 485.628 388.102 485.548C387.802 485.462 387.524 485.429 387.269 485.449C387.013 485.47 386.785 485.535 386.585 485.647C386.379 485.756 386.204 485.909 386.061 486.105C385.917 486.301 385.808 486.529 385.734 486.788C385.654 487.065 385.64 487.311 385.691 487.525C385.736 487.738 385.815 487.922 385.926 488.079C385.698 487.958 385.49 487.801 385.302 487.61C385.109 487.411 384.947 487.193 384.815 486.956C384.685 486.713 384.588 486.451 384.525 486.171C384.462 485.89 384.448 485.599 384.485 485.298L383.522 485.293C383.472 485.729 383.5 486.164 383.606 486.6C383.708 487.029 383.892 487.434 384.157 487.816C384.418 488.19 384.755 488.527 385.169 488.827C385.584 489.12 386.077 489.349 386.648 489.512C387.029 489.621 387.378 489.665 387.696 489.644C388.014 489.623 388.295 489.547 388.538 489.417C388.781 489.287 388.988 489.112 389.157 488.892C389.322 488.665 389.447 488.401 389.533 488.101C389.617 487.807 389.642 487.524 389.608 487.252C389.575 486.974 389.494 486.723 389.365 486.499C389.236 486.275 389.063 486.082 388.847 485.92ZM386.308 481.285L390.404 484.603L390.719 483.504L385.685 479.44L385.357 479.346L384.239 483.248L385.294 483.551L385.931 481.327L385.993 480.783L386.308 481.285ZM389.047 475.419C388.778 475.224 388.497 475.084 388.203 475C387.937 474.923 387.694 474.901 387.473 474.931C387.247 474.96 387.045 475.03 386.87 475.142C386.694 475.254 386.542 475.404 386.413 475.592C386.285 475.779 386.185 475.997 386.114 476.245C386.003 476.632 385.964 476.986 385.997 477.307C386.025 477.621 386.1 477.917 386.22 478.195L387.145 477.973C387.062 477.806 387.01 477.616 386.989 477.404C386.965 477.185 386.979 476.983 387.032 476.799C387.116 476.505 387.255 476.313 387.449 476.225C387.638 476.13 387.852 476.116 388.088 476.184C388.284 476.24 388.48 476.34 388.676 476.483C388.874 476.621 389.072 476.79 389.271 476.991C389.463 477.189 389.651 477.405 389.834 477.639C390.017 477.872 390.192 478.11 390.36 478.351C390.524 478.585 390.679 478.817 390.826 479.046C390.966 479.274 391.089 479.478 391.194 479.657L391.773 479.823L392.817 476.181L391.865 475.908L391.389 477.569L391.332 478.227L391.289 478.215L391.065 477.654C390.895 477.4 390.705 477.136 390.496 476.864C390.283 476.585 390.055 476.323 389.813 476.079C389.572 475.829 389.317 475.609 389.047 475.419Z" fill="#59BB49"/>
</svg>
