<svg width="920" height="755" viewBox="0 0 920 755" fill="none" xmlns="http://www.w3.org/2000/svg">
<path d="M385.21 544.474C385.693 544.925 385.705 545.395 385.246 545.887C385.042 546.106 384.808 546.225 384.546 546.242C384.287 546.264 384.055 546.179 383.849 545.986C383.722 545.868 383.634 545.741 383.587 545.607C383.544 545.468 383.529 545.331 383.541 545.195C383.562 545.058 383.604 544.925 383.667 544.795C383.735 544.661 383.818 544.542 383.916 544.437L384.014 544.331C384.047 544.296 384.09 544.259 384.144 544.218C384.29 544.158 384.46 544.144 384.652 544.175C384.848 544.211 385.034 544.311 385.21 544.474Z" fill="#59BB49"/>
<path d="M381.5 537.5L400 544.5L394 558.5L381.5 554V537.5ZM385.448 547.109C385.695 546.994 385.918 546.829 386.119 546.614C386.331 546.386 386.487 546.153 386.585 545.917C386.683 545.68 386.727 545.447 386.72 545.218C386.716 544.984 386.659 544.759 386.55 544.542C386.44 544.325 386.287 544.125 386.089 543.941C385.879 543.744 385.666 543.62 385.452 543.568C385.242 543.512 385.042 543.497 384.852 543.525C385.064 543.378 385.297 543.264 385.553 543.182C385.818 543.101 386.086 543.056 386.357 543.046C386.633 543.041 386.91 543.074 387.189 543.145C387.467 543.216 387.732 543.336 387.984 543.505L388.426 542.65C388.061 542.408 387.66 542.235 387.223 542.131C386.795 542.027 386.351 542.006 385.89 542.069C385.438 542.132 384.985 542.279 384.53 542.511C384.08 542.748 383.652 543.083 383.247 543.517C382.977 543.807 382.779 544.098 382.654 544.391C382.528 544.684 382.468 544.969 382.473 545.245C382.478 545.52 382.541 545.783 382.66 546.034C382.787 546.284 382.965 546.516 383.193 546.729C383.417 546.937 383.658 547.088 383.916 547.181C384.178 547.278 384.439 547.32 384.697 547.307C384.956 547.294 385.206 547.227 385.448 547.109ZM390.73 546.953L385.914 549.094L386.75 549.874L392.657 547.236L392.89 546.986L389.922 544.217L389.173 545.02L390.864 546.598L391.321 546.9L390.73 546.953ZM392.092 553.269C391.817 553.283 391.543 553.163 391.271 552.909C391.1 552.75 390.961 552.587 390.853 552.421C390.75 552.259 390.668 552.096 390.607 551.933L389.713 552.429C389.779 552.613 389.899 552.819 390.072 553.047C390.246 553.274 390.429 553.478 390.622 553.658C390.855 553.875 391.101 554.047 391.36 554.174C391.619 554.3 391.882 554.37 392.15 554.382C392.422 554.398 392.688 554.35 392.948 554.239C393.211 554.133 393.464 553.95 393.705 553.691C393.898 553.485 394.037 553.274 394.123 553.059C394.209 552.843 394.248 552.634 394.241 552.43C394.242 552.227 394.199 552.031 394.112 551.843C394.029 551.659 393.917 551.489 393.776 551.332L393.463 551.114L393.494 551.081L393.949 551.173L396.037 550.795L396.473 550.328L393.959 547.983L393.284 548.707L394.389 549.738L394.964 550.164L394.313 550.11L392.504 550.453L392.08 550.907L392.554 551.349C392.874 551.648 393.054 551.926 393.093 552.184C393.131 552.441 393.034 552.695 392.801 552.945C392.608 553.152 392.372 553.26 392.092 553.269Z" fill="#59BB49"/>
</svg>
