<svg width="920" height="755" viewBox="0 0 920 755" fill="none" xmlns="http://www.w3.org/2000/svg">
<path d="M388.163 532.682C388.778 532.922 388.963 533.356 388.718 533.981C388.609 534.261 388.436 534.457 388.198 534.571C387.966 534.686 387.719 534.693 387.457 534.59C387.294 534.527 387.167 534.441 387.073 534.334C386.982 534.221 386.917 534.099 386.878 533.968C386.847 533.833 386.837 533.694 386.848 533.55C386.861 533.401 386.894 533.259 386.947 533.125L386.999 532.991C387.016 532.946 387.043 532.895 387.078 532.838C387.192 532.728 387.344 532.652 387.534 532.611C387.73 532.571 387.94 532.595 388.163 532.682Z" fill="#59BB49"/>
<path d="M399.106 534.889L398.755 535.564L398.254 536.847L397.257 536.457L396.694 536.315L397.238 536.16L398.552 535.369L399.072 534.876L399.106 534.889Z" fill="#59BB49"/>
<path d="M385 524L405 531L400 544L381.5 537V532.5L385 524ZM389.357 535.043C389.544 534.845 389.691 534.609 389.798 534.335C389.911 534.045 389.97 533.771 389.973 533.515C389.977 533.259 389.932 533.026 389.84 532.816C389.751 532.6 389.615 532.412 389.433 532.251C389.251 532.09 389.035 531.96 388.783 531.862C388.515 531.757 388.272 531.72 388.054 531.751C387.838 531.776 387.647 531.836 387.48 531.932C387.622 531.717 387.797 531.525 388.005 531.355C388.221 531.182 388.453 531.04 388.702 530.931C388.956 530.825 389.226 530.753 389.511 530.716C389.796 530.679 390.087 530.693 390.384 530.757L390.478 529.799C390.049 529.709 389.613 529.696 389.169 529.761C388.733 529.823 388.312 529.967 387.907 530.196C387.51 530.421 387.143 530.725 386.807 531.109C386.475 531.495 386.202 531.964 385.986 532.518C385.842 532.887 385.765 533.23 385.757 533.549C385.748 533.868 385.797 534.154 385.904 534.409C386.011 534.663 386.166 534.885 386.369 535.073C386.58 535.259 386.831 535.408 387.121 535.522C387.406 535.633 387.686 535.685 387.96 535.676C388.24 535.669 388.497 535.612 388.732 535.504C388.968 535.396 389.176 535.242 389.357 535.043ZM394.209 532.947L390.524 536.716L391.588 537.132L396.104 532.499L396.228 532.181L392.447 530.704L392.048 531.726L394.202 532.568L394.738 532.681L394.209 532.947ZM398.928 538.115L399.85 538.475L400.191 537.603L399.269 537.243L400.598 533.84L399.701 533.489L395.616 536.106L395.374 536.726L397.914 537.719L397.275 539.353L398.29 539.75L398.928 538.115Z" fill="#59BB49"/>
</svg>
