<svg width="920" height="755" viewBox="0 0 920 755" fill="none" xmlns="http://www.w3.org/2000/svg">
<path d="M393.163 519.682C393.778 519.922 393.963 520.356 393.718 520.981C393.609 521.261 393.436 521.457 393.198 521.571C392.966 521.686 392.719 521.693 392.457 521.59C392.294 521.527 392.167 521.441 392.073 521.334C391.982 521.221 391.917 521.099 391.878 520.968C391.847 520.833 391.837 520.694 391.848 520.55C391.861 520.401 391.894 520.259 391.947 520.125L391.999 519.991C392.016 519.946 392.043 519.895 392.078 519.838C392.192 519.728 392.344 519.652 392.534 519.611C392.73 519.571 392.94 519.595 393.163 519.682Z" fill="#59BB49"/>
<path d="M389.5 511.5L410 518.5L405 530.5L385.5 523.5L389.5 511.5ZM394.357 522.043C394.544 521.845 394.691 521.609 394.798 521.335C394.911 521.045 394.97 520.771 394.973 520.515C394.977 520.259 394.932 520.026 394.84 519.816C394.751 519.6 394.615 519.412 394.433 519.251C394.251 519.09 394.035 518.96 393.783 518.862C393.515 518.757 393.272 518.72 393.054 518.751C392.838 518.776 392.647 518.836 392.48 518.932C392.622 518.717 392.797 518.525 393.005 518.355C393.221 518.182 393.453 518.04 393.702 517.931C393.956 517.825 394.226 517.753 394.511 517.716C394.796 517.679 395.087 517.693 395.384 517.757L395.478 516.799C395.049 516.709 394.613 516.696 394.169 516.761C393.733 516.823 393.312 516.967 392.907 517.196C392.51 517.421 392.143 517.725 391.807 518.109C391.475 518.495 391.202 518.964 390.986 519.518C390.842 519.887 390.765 520.23 390.757 520.549C390.748 520.868 390.797 521.154 390.904 521.409C391.011 521.663 391.166 521.885 391.369 522.073C391.58 522.259 391.831 522.408 392.121 522.522C392.406 522.633 392.686 522.685 392.96 522.676C393.24 522.669 393.497 522.612 393.732 522.504C393.968 522.396 394.176 522.242 394.357 522.043ZM399.209 519.947L395.524 523.716L396.588 524.132L401.104 519.499L401.228 519.181L397.447 517.704L397.048 518.726L399.202 519.568L399.738 519.681L399.209 519.947ZM402.702 525.235C402.437 525.337 402.12 525.317 401.751 525.173C401.533 525.087 401.351 525 401.206 524.911C401.068 524.819 400.946 524.719 400.839 524.613L400.192 525.404C400.32 525.538 400.488 525.668 400.696 525.794C400.908 525.929 401.14 526.045 401.391 526.143C401.71 526.268 402.019 526.34 402.32 526.361C402.621 526.382 402.902 526.347 403.164 526.256C403.43 526.167 403.669 526.018 403.879 525.811C404.089 525.603 404.258 525.334 404.387 525.004C404.496 524.725 404.552 524.457 404.556 524.201C404.562 523.939 404.517 523.699 404.421 523.481C404.328 523.258 404.187 523.058 403.999 522.881C403.816 522.707 403.589 522.56 403.32 522.442L402.963 522.342L403.405 521.21L405.35 521.97L405.75 520.947L402.866 519.82L401.667 522.889L402.339 523.122C402.764 523.288 403.06 523.494 403.228 523.74C403.396 523.986 403.415 524.277 403.284 524.612C403.162 524.925 402.968 525.133 402.702 525.235Z" fill="#59BB49"/>
</svg>
