<svg width="920" height="755" viewBox="0 0 920 755" fill="none" xmlns="http://www.w3.org/2000/svg">
<path d="M398.163 507.682C398.778 507.922 398.963 508.356 398.718 508.981C398.609 509.261 398.436 509.457 398.198 509.571C397.966 509.686 397.719 509.693 397.457 509.59C397.294 509.527 397.167 509.441 397.073 509.334C396.982 509.221 396.917 509.099 396.878 508.968C396.847 508.833 396.837 508.694 396.848 508.55C396.861 508.401 396.894 508.259 396.947 508.125L396.999 507.991C397.016 507.946 397.043 507.895 397.078 507.838C397.192 507.728 397.344 507.652 397.534 507.611C397.73 507.571 397.94 507.595 398.163 507.682Z" fill="#59BB49"/>
<path d="M408.011 511.53C408.626 511.77 408.811 512.203 408.567 512.829C408.457 513.108 408.284 513.304 408.047 513.418C407.815 513.533 407.567 513.54 407.305 513.437C407.143 513.374 407.015 513.289 406.921 513.181C406.83 513.068 406.765 512.946 406.726 512.815C406.695 512.681 406.685 512.541 406.696 512.398C406.709 512.248 406.742 512.106 406.795 511.972L406.847 511.838C406.865 511.793 406.891 511.742 406.926 511.685C407.04 511.575 407.192 511.499 407.382 511.458C407.578 511.418 407.788 511.442 408.011 511.53Z" fill="#59BB49"/>
<path d="M395 499L415 506L410.5 518L390 511L395 499ZM399.357 510.043C399.544 509.845 399.691 509.609 399.798 509.335C399.911 509.045 399.97 508.771 399.973 508.515C399.977 508.259 399.932 508.026 399.84 507.816C399.751 507.6 399.615 507.412 399.433 507.251C399.251 507.09 399.035 506.96 398.783 506.862C398.515 506.757 398.272 506.72 398.054 506.751C397.838 506.776 397.647 506.836 397.48 506.932C397.622 506.717 397.797 506.525 398.005 506.355C398.221 506.182 398.453 506.04 398.702 505.931C398.956 505.825 399.226 505.753 399.511 505.716C399.796 505.679 400.087 505.693 400.384 505.757L400.478 504.799C400.049 504.709 399.613 504.696 399.169 504.761C398.733 504.823 398.312 504.967 397.907 505.196C397.51 505.421 397.143 505.725 396.807 506.109C396.475 506.495 396.202 506.964 395.986 507.518C395.842 507.887 395.765 508.23 395.757 508.549C395.748 508.868 395.797 509.154 395.904 509.409C396.011 509.663 396.166 509.885 396.369 510.073C396.58 510.259 396.831 510.408 397.121 510.522C397.406 510.633 397.686 510.685 397.96 510.676C398.24 510.669 398.497 510.612 398.732 510.504C398.968 510.396 399.176 510.242 399.357 510.043ZM404.209 507.947L400.524 511.716L401.588 512.132L406.104 507.499L406.228 507.181L402.447 505.704L402.048 506.726L404.202 507.568L404.738 507.681L404.209 507.947ZM409.205 513.89C409.392 513.692 409.539 513.456 409.646 513.183C409.759 512.892 409.818 512.619 409.821 512.362C409.825 512.106 409.781 511.873 409.689 511.663C409.599 511.448 409.463 511.259 409.281 511.098C409.099 510.937 408.883 510.807 408.631 510.709C408.363 510.604 408.12 510.567 407.902 510.598C407.686 510.623 407.495 510.684 407.328 510.78C407.47 510.565 407.645 510.372 407.853 510.202C408.069 510.029 408.302 509.888 408.55 509.779C408.805 509.672 409.074 509.6 409.359 509.563C409.644 509.526 409.935 509.54 410.232 509.605L410.326 508.646C409.897 508.556 409.461 508.543 409.017 508.608C408.581 508.67 408.16 508.815 407.755 509.043C407.358 509.268 406.991 509.572 406.655 509.956C406.324 510.342 406.05 510.812 405.834 511.365C405.69 511.734 405.613 512.078 405.605 512.396C405.596 512.715 405.645 513.002 405.752 513.256C405.859 513.51 406.014 513.732 406.217 513.921C406.428 514.106 406.679 514.256 406.97 514.369C407.255 514.48 407.534 514.532 407.808 514.523C408.088 514.516 408.345 514.459 408.581 514.351C408.816 514.243 409.024 514.09 409.205 513.89Z" fill="#59BB49"/>
</svg>
