<svg width="920" height="755" viewBox="0 0 920 755" fill="none" xmlns="http://www.w3.org/2000/svg">
<path d="M402.163 495.682C402.778 495.922 402.963 496.356 402.718 496.981C402.609 497.261 402.436 497.457 402.198 497.571C401.966 497.686 401.719 497.693 401.457 497.59C401.294 497.527 401.167 497.441 401.073 497.334C400.982 497.221 400.917 497.099 400.878 496.968C400.847 496.833 400.837 496.694 400.848 496.55C400.861 496.401 400.894 496.259 400.947 496.125L400.999 495.991C401.016 495.946 401.043 495.895 401.078 495.838C401.192 495.728 401.344 495.652 401.534 495.611C401.73 495.571 401.94 495.595 402.163 495.682Z" fill="#59BB49"/>
<path d="M399 487L419.5 494L415 505.5L395 498.5L399 487ZM403.357 498.043C403.544 497.845 403.691 497.609 403.798 497.335C403.911 497.045 403.97 496.771 403.973 496.515C403.977 496.259 403.932 496.026 403.84 495.816C403.751 495.6 403.615 495.412 403.433 495.251C403.251 495.09 403.035 494.96 402.783 494.862C402.515 494.757 402.272 494.72 402.054 494.751C401.838 494.776 401.647 494.836 401.48 494.932C401.622 494.717 401.797 494.525 402.005 494.355C402.221 494.182 402.453 494.04 402.702 493.931C402.956 493.825 403.226 493.753 403.511 493.716C403.796 493.679 404.087 493.693 404.384 493.757L404.478 492.799C404.049 492.709 403.613 492.696 403.169 492.761C402.733 492.823 402.312 492.967 401.907 493.196C401.51 493.421 401.143 493.725 400.807 494.109C400.475 494.495 400.202 494.964 399.986 495.518C399.842 495.887 399.765 496.23 399.757 496.549C399.748 496.868 399.797 497.154 399.904 497.409C400.011 497.663 400.166 497.885 400.369 498.073C400.58 498.259 400.831 498.408 401.121 498.522C401.406 498.633 401.686 498.685 401.96 498.676C402.24 498.669 402.497 498.612 402.732 498.504C402.968 498.396 403.176 498.242 403.357 498.043ZM408.209 495.947L404.524 499.716L405.588 500.132L410.104 495.499L410.228 495.181L406.447 493.704L406.048 494.726L408.202 495.568L408.738 495.681L408.209 495.947ZM413.133 497.871L409.448 501.639L410.512 502.055L415.028 497.423L415.152 497.104L411.371 495.627L410.972 496.65L413.126 497.492L413.662 497.604L413.133 497.871Z" fill="#59BB49"/>
</svg>
