<svg width="920" height="755" viewBox="0 0 920 755" fill="none" xmlns="http://www.w3.org/2000/svg">
<path d="M407.163 482.682C407.778 482.922 407.963 483.356 407.718 483.981C407.609 484.261 407.436 484.457 407.198 484.571C406.966 484.686 406.719 484.693 406.457 484.59C406.294 484.527 406.167 484.441 406.073 484.334C405.982 484.221 405.917 484.099 405.878 483.968C405.847 483.833 405.837 483.694 405.848 483.55C405.861 483.401 405.894 483.259 405.947 483.125L405.999 482.991C406.016 482.946 406.043 482.895 406.078 482.838C406.192 482.728 406.344 482.652 406.534 482.611C406.73 482.571 406.94 482.595 407.163 482.682Z" fill="#59BB49"/>
<path d="M417.435 487.622C417.455 487.753 417.439 487.882 417.389 488.011C417.293 488.256 417.143 488.41 416.938 488.472C416.739 488.536 416.514 488.519 416.263 488.421C415.989 488.314 415.804 488.152 415.709 487.934C415.621 487.713 415.621 487.491 415.709 487.267C415.776 487.094 415.891 486.939 416.054 486.803C416.225 486.663 416.471 486.57 416.792 486.521C416.889 486.636 416.982 486.753 417.071 486.872C417.165 486.992 417.243 487.116 417.303 487.242C417.371 487.366 417.415 487.492 417.435 487.622Z" fill="#59BB49"/>
<path d="M416.933 484.924C416.922 484.804 416.943 484.677 416.995 484.542C417.063 484.369 417.178 484.24 417.34 484.155C417.507 484.073 417.714 484.079 417.96 484.175C418.155 484.252 418.296 484.378 418.382 484.553C418.476 484.725 418.477 484.928 418.386 485.163C418.252 485.504 417.963 485.751 417.516 485.905C417.42 485.804 417.329 485.7 417.241 485.595C417.161 485.487 417.09 485.378 417.029 485.271C416.976 485.16 416.944 485.044 416.933 484.924Z" fill="#59BB49"/>
<path d="M404 474.5L424 481.5L419.5 493.5L399 486.5L404 474.5ZM408.357 485.043C408.544 484.845 408.691 484.609 408.798 484.335C408.911 484.045 408.97 483.771 408.973 483.515C408.977 483.259 408.932 483.026 408.84 482.816C408.751 482.6 408.615 482.412 408.433 482.251C408.251 482.09 408.035 481.96 407.783 481.862C407.515 481.757 407.272 481.72 407.054 481.751C406.838 481.776 406.647 481.836 406.48 481.932C406.622 481.717 406.797 481.525 407.005 481.355C407.221 481.182 407.453 481.04 407.702 480.931C407.956 480.825 408.226 480.753 408.511 480.716C408.796 480.679 409.087 480.693 409.384 480.757L409.478 479.799C409.049 479.709 408.613 479.696 408.169 479.761C407.733 479.823 407.312 479.967 406.907 480.196C406.51 480.421 406.143 480.725 405.807 481.109C405.475 481.495 405.202 481.964 404.986 482.518C404.842 482.887 404.765 483.23 404.757 483.549C404.748 483.868 404.797 484.154 404.904 484.409C405.011 484.663 405.166 484.885 405.369 485.073C405.58 485.259 405.831 485.408 406.121 485.522C406.406 485.633 406.686 485.685 406.96 485.676C407.24 485.669 407.497 485.612 407.732 485.504C407.968 485.396 408.176 485.242 408.357 485.043ZM413.209 482.947L409.524 486.716L410.588 487.132L415.104 482.499L415.228 482.181L411.447 480.704L411.048 481.726L413.202 482.568L413.738 482.681L413.209 482.947ZM414.926 486.575C414.817 486.706 414.724 486.869 414.647 487.065C414.556 487.3 414.515 487.529 414.524 487.751C414.539 487.976 414.599 488.186 414.703 488.382C414.813 488.579 414.965 488.758 415.16 488.918C415.359 489.085 415.598 489.224 415.877 489.333C416.157 489.442 416.429 489.504 416.694 489.517C416.962 489.525 417.208 489.489 417.432 489.409C417.657 489.329 417.853 489.206 418.021 489.04C418.197 488.87 418.334 488.66 418.432 488.408C418.576 488.039 418.607 487.704 418.526 487.401C418.45 487.101 418.282 486.788 418.023 486.461C418.383 486.382 418.68 486.257 418.915 486.085C419.155 485.914 419.34 485.664 419.468 485.335C419.551 485.122 419.585 484.913 419.569 484.707C419.56 484.498 419.505 484.302 419.402 484.12C419.304 483.94 419.166 483.777 418.985 483.629C418.804 483.481 418.588 483.358 418.337 483.26C418.063 483.153 417.802 483.096 417.553 483.089C417.305 483.082 417.075 483.118 416.864 483.196C416.658 483.277 416.477 483.396 416.319 483.553C416.166 483.713 416.047 483.902 415.962 484.12C415.831 484.455 415.799 484.768 415.866 485.058C415.935 485.343 416.073 485.625 416.279 485.905C416.101 485.932 415.928 485.971 415.76 486.022C415.598 486.074 415.444 486.146 415.299 486.237C415.162 486.326 415.037 486.438 414.926 486.575Z" fill="#59BB49"/>
</svg>
