<svg width="920" height="755" viewBox="0 0 920 755" fill="none" xmlns="http://www.w3.org/2000/svg">
<path d="M411.163 469.682C411.778 469.922 411.963 470.356 411.718 470.981C411.609 471.261 411.436 471.457 411.198 471.571C410.966 471.686 410.719 471.693 410.457 471.59C410.294 471.527 410.167 471.441 410.073 471.334C409.982 471.221 409.917 471.099 409.878 470.968C409.847 470.833 409.837 470.694 409.848 470.55C409.861 470.401 409.894 470.259 409.947 470.125L409.999 469.991C410.016 469.946 410.043 469.895 410.078 469.838C410.192 469.728 410.344 469.652 410.534 469.611C410.73 469.571 410.94 469.595 411.163 469.682Z" fill="#59BB49"/>
<path d="M420.594 472.594C420.479 472.362 420.483 472.086 420.608 471.768C420.73 471.455 420.9 471.241 421.119 471.127C421.34 471.007 421.587 471.001 421.861 471.108C422.034 471.175 422.168 471.269 422.262 471.39C422.365 471.507 422.432 471.64 422.465 471.788C422.503 471.938 422.512 472.096 422.492 472.262C422.472 472.429 422.431 472.59 422.37 472.746C422.329 472.853 422.277 472.961 422.214 473.072C422.094 473.147 421.948 473.193 421.774 473.209C421.6 473.225 421.399 473.188 421.17 473.099C420.902 472.994 420.71 472.826 420.594 472.594Z" fill="#59BB49"/>
<path d="M408.5 462L428.5 469L424 481L404 474L408.5 462ZM412.357 472.043C412.544 471.845 412.691 471.609 412.798 471.335C412.911 471.045 412.97 470.771 412.973 470.515C412.977 470.259 412.932 470.026 412.84 469.816C412.751 469.6 412.615 469.412 412.433 469.251C412.251 469.09 412.035 468.96 411.783 468.862C411.515 468.757 411.272 468.72 411.054 468.751C410.838 468.776 410.647 468.836 410.48 468.932C410.622 468.717 410.797 468.525 411.005 468.355C411.221 468.182 411.453 468.04 411.702 467.931C411.956 467.825 412.226 467.753 412.511 467.716C412.796 467.679 413.087 467.693 413.384 467.757L413.478 466.799C413.049 466.709 412.613 466.696 412.169 466.761C411.733 466.823 411.312 466.967 410.907 467.196C410.51 467.421 410.143 467.725 409.807 468.109C409.475 468.495 409.202 468.964 408.986 469.518C408.842 469.887 408.765 470.23 408.757 470.549C408.748 470.868 408.797 471.154 408.904 471.409C409.011 471.663 409.166 471.885 409.369 472.073C409.58 472.259 409.831 472.408 410.121 472.522C410.406 472.633 410.686 472.685 410.96 472.676C411.24 472.669 411.497 472.612 411.732 472.504C411.968 472.396 412.176 472.242 412.357 472.043ZM417.209 469.947L413.524 473.716L414.588 474.132L419.104 469.499L419.228 469.181L415.447 467.704L415.048 468.726L417.202 469.568L417.738 469.681L417.209 469.947ZM419.962 470.675C419.784 470.883 419.64 471.129 419.528 471.414C419.408 471.721 419.354 472.009 419.365 472.278C419.384 472.543 419.445 472.782 419.548 472.996C419.659 473.207 419.803 473.389 419.982 473.543C420.166 473.698 420.364 473.818 420.576 473.901C420.833 474.001 421.048 474.053 421.221 474.056C421.399 474.061 421.584 474.017 421.775 473.924C421.636 474.147 421.47 474.343 421.275 474.512C421.088 474.677 420.875 474.81 420.636 474.91C420.4 475.004 420.139 475.06 419.855 475.078C419.571 475.096 419.268 475.064 418.946 474.984L418.846 475.93C419.262 476.054 419.684 476.103 420.113 476.077C420.541 476.051 420.954 475.936 421.35 475.73C421.754 475.52 422.128 475.212 422.474 474.806C422.827 474.397 423.13 473.868 423.384 473.22C423.665 472.499 423.698 471.88 423.481 471.364C423.271 470.844 422.851 470.461 422.219 470.214C421.912 470.094 421.619 470.037 421.339 470.044C421.067 470.047 420.814 470.103 420.578 470.21C420.351 470.315 420.145 470.47 419.962 470.675Z" fill="#59BB49"/>
</svg>
