<svg width="920" height="755" viewBox="0 0 920 755" fill="none" xmlns="http://www.w3.org/2000/svg">
<path d="M416.163 457.682C416.778 457.922 416.963 458.356 416.718 458.981C416.609 459.261 416.436 459.457 416.198 459.571C415.966 459.686 415.719 459.693 415.457 459.59C415.294 459.527 415.167 459.441 415.073 459.334C414.982 459.221 414.917 459.099 414.878 458.968C414.847 458.833 414.837 458.694 414.848 458.55C414.861 458.401 414.894 458.259 414.947 458.125L414.999 457.991C415.016 457.946 415.043 457.895 415.078 457.838C415.192 457.728 415.344 457.652 415.534 457.611C415.73 457.571 415.94 457.595 416.163 457.682Z" fill="#59BB49"/>
<path d="M421.51 460.699C421.53 460.829 421.515 460.958 421.465 461.087C421.369 461.333 421.219 461.487 421.014 461.549C420.815 461.613 420.59 461.595 420.339 461.497C420.065 461.39 419.88 461.228 419.785 461.01C419.697 460.789 419.697 460.567 419.784 460.343C419.852 460.17 419.967 460.016 420.13 459.879C420.3 459.74 420.547 459.646 420.868 459.598C420.965 459.713 421.058 459.83 421.147 459.948C421.241 460.069 421.319 460.192 421.379 460.319C421.447 460.442 421.49 460.569 421.51 460.699Z" fill="#59BB49"/>
<path d="M421.009 458C420.998 457.88 421.019 457.753 421.071 457.619C421.139 457.446 421.254 457.317 421.416 457.232C421.583 457.149 421.79 457.156 422.036 457.252C422.231 457.328 422.372 457.454 422.458 457.629C422.552 457.801 422.553 458.005 422.462 458.239C422.328 458.58 422.039 458.828 421.592 458.982C421.496 458.88 421.405 458.777 421.317 458.671C421.237 458.563 421.166 458.455 421.105 458.347C421.052 458.236 421.02 458.121 421.009 458Z" fill="#59BB49"/>
<path d="M424.75 462.583C424.75 462.151 424.884 461.595 425.15 460.913C425.432 460.192 425.713 459.687 425.994 459.397C426.28 459.11 426.591 459.031 426.926 459.162C427.278 459.3 427.455 459.581 427.456 460.007C427.457 460.433 427.326 460.984 427.062 461.66C426.771 462.403 426.481 462.915 426.192 463.194C425.908 463.476 425.601 463.553 425.271 463.424C424.93 463.291 424.756 463.01 424.75 462.583Z" fill="#59BB49"/>
<path d="M413 449.5L433 456.5L428.5 468.5L408 461.5L413 449.5ZM417.357 460.043C417.544 459.845 417.691 459.609 417.798 459.335C417.911 459.045 417.97 458.771 417.973 458.515C417.977 458.259 417.932 458.026 417.84 457.816C417.751 457.6 417.615 457.412 417.433 457.251C417.251 457.09 417.035 456.96 416.783 456.862C416.515 456.757 416.272 456.72 416.054 456.751C415.838 456.776 415.647 456.836 415.48 456.932C415.622 456.717 415.797 456.525 416.005 456.355C416.221 456.182 416.453 456.04 416.702 455.931C416.956 455.825 417.226 455.753 417.511 455.716C417.796 455.679 418.087 455.693 418.384 455.757L418.478 454.799C418.049 454.709 417.613 454.696 417.169 454.761C416.733 454.823 416.312 454.967 415.907 455.196C415.51 455.421 415.143 455.725 414.807 456.109C414.475 456.495 414.202 456.964 413.986 457.518C413.842 457.887 413.765 458.23 413.757 458.549C413.748 458.868 413.797 459.154 413.904 459.409C414.011 459.663 414.166 459.885 414.369 460.073C414.58 460.259 414.831 460.408 415.121 460.522C415.406 460.633 415.686 460.685 415.96 460.676C416.24 460.669 416.497 460.612 416.732 460.504C416.968 460.396 417.176 460.242 417.357 460.043ZM419.002 459.651C418.892 459.782 418.8 459.946 418.723 460.141C418.632 460.376 418.59 460.605 418.6 460.828C418.615 461.053 418.675 461.263 418.779 461.458C418.889 461.655 419.041 461.834 419.236 461.994C419.435 462.162 419.674 462.3 419.953 462.41C420.233 462.519 420.505 462.58 420.77 462.593C421.038 462.601 421.284 462.565 421.508 462.486C421.733 462.406 421.929 462.283 422.097 462.116C422.273 461.947 422.41 461.736 422.508 461.485C422.652 461.116 422.683 460.78 422.602 460.478C422.526 460.178 422.358 459.864 422.099 459.538C422.459 459.459 422.756 459.333 422.991 459.161C423.231 458.991 423.416 458.741 423.544 458.411C423.627 458.199 423.661 457.99 423.645 457.784C423.636 457.574 423.581 457.379 423.478 457.197C423.38 457.017 423.241 456.853 423.061 456.705C422.88 456.557 422.664 456.434 422.413 456.336C422.139 456.229 421.878 456.172 421.629 456.165C421.381 456.158 421.151 456.194 420.94 456.273C420.734 456.354 420.553 456.473 420.395 456.63C420.242 456.789 420.123 456.978 420.038 457.196C419.907 457.531 419.875 457.844 419.942 458.134C420.011 458.419 420.149 458.702 420.355 458.982C420.177 459.009 420.004 459.048 419.836 459.098C419.674 459.15 419.52 459.222 419.375 459.314C419.238 459.402 419.113 459.514 419.002 459.651ZM425.483 458.405C424.936 458.765 424.462 459.459 424.061 460.487C423.676 461.471 423.545 462.293 423.668 462.952C423.792 463.607 424.204 464.07 424.902 464.343C425.562 464.601 426.166 464.547 426.715 464.181C427.269 463.818 427.748 463.119 428.152 462.085C428.558 461.046 428.692 460.216 428.554 459.595C428.419 458.969 427.999 458.518 427.295 458.243C426.635 457.986 426.031 458.04 425.483 458.405Z" fill="#59BB49"/>
</svg>
