<svg width="920" height="755" viewBox="0 0 920 755" fill="none" xmlns="http://www.w3.org/2000/svg">
<path d="M420.163 445.682C420.778 445.922 420.963 446.356 420.718 446.981C420.609 447.261 420.436 447.457 420.198 447.571C419.966 447.686 419.719 447.693 419.457 447.59C419.294 447.527 419.167 447.441 419.073 447.334C418.982 447.221 418.917 447.099 418.878 446.968C418.847 446.833 418.837 446.694 418.848 446.55C418.861 446.401 418.894 446.259 418.947 446.125L418.999 445.991C419.016 445.946 419.043 445.895 419.078 445.838C419.192 445.728 419.344 445.652 419.534 445.611C419.73 445.571 419.94 445.595 420.163 445.682Z" fill="#59BB49"/>
<path d="M425.51 448.699C425.53 448.829 425.515 448.958 425.465 449.087C425.369 449.333 425.219 449.487 425.014 449.549C424.815 449.613 424.59 449.595 424.339 449.497C424.065 449.39 423.88 449.228 423.785 449.01C423.697 448.789 423.697 448.567 423.784 448.343C423.852 448.17 423.967 448.016 424.13 447.879C424.3 447.74 424.547 447.646 424.868 447.598C424.965 447.713 425.058 447.83 425.147 447.948C425.241 448.069 425.319 448.192 425.379 448.319C425.447 448.442 425.49 448.569 425.51 448.699Z" fill="#59BB49"/>
<path d="M425.009 446C424.998 445.88 425.019 445.753 425.071 445.619C425.139 445.446 425.254 445.317 425.416 445.232C425.583 445.149 425.79 445.156 426.036 445.252C426.231 445.328 426.372 445.454 426.458 445.629C426.552 445.801 426.553 446.005 426.462 446.239C426.328 446.58 426.039 446.828 425.592 446.982C425.496 446.88 425.405 446.777 425.317 446.671C425.237 446.563 425.166 446.455 425.105 446.347C425.052 446.236 425.02 446.121 425.009 446Z" fill="#59BB49"/>
<path d="M417 437.5L437.5 444.5L433 456L413 449L417 437.5ZM421.357 448.043C421.544 447.845 421.691 447.609 421.798 447.335C421.911 447.045 421.97 446.771 421.973 446.515C421.977 446.259 421.932 446.026 421.84 445.816C421.751 445.6 421.615 445.412 421.433 445.251C421.251 445.09 421.035 444.96 420.783 444.862C420.515 444.757 420.272 444.72 420.054 444.751C419.838 444.776 419.647 444.836 419.48 444.932C419.622 444.717 419.797 444.525 420.005 444.355C420.221 444.182 420.453 444.04 420.702 443.931C420.956 443.825 421.226 443.753 421.511 443.716C421.796 443.679 422.087 443.693 422.384 443.757L422.478 442.799C422.049 442.709 421.613 442.696 421.169 442.761C420.733 442.823 420.312 442.967 419.907 443.196C419.51 443.421 419.143 443.725 418.807 444.109C418.475 444.495 418.202 444.964 417.986 445.518C417.842 445.887 417.765 446.23 417.757 446.549C417.748 446.868 417.797 447.154 417.904 447.409C418.011 447.663 418.166 447.885 418.369 448.073C418.58 448.259 418.831 448.408 419.121 448.522C419.406 448.633 419.686 448.685 419.96 448.676C420.24 448.669 420.497 448.612 420.732 448.504C420.968 448.396 421.176 448.242 421.357 448.043ZM423.002 447.651C422.892 447.782 422.8 447.946 422.723 448.141C422.632 448.376 422.59 448.605 422.6 448.828C422.615 449.053 422.675 449.263 422.779 449.458C422.889 449.655 423.041 449.834 423.236 449.994C423.435 450.162 423.674 450.3 423.953 450.41C424.233 450.519 424.505 450.58 424.77 450.593C425.038 450.601 425.284 450.565 425.508 450.486C425.733 450.406 425.929 450.283 426.097 450.116C426.273 449.947 426.41 449.736 426.508 449.485C426.652 449.116 426.683 448.78 426.602 448.478C426.526 448.178 426.358 447.864 426.099 447.538C426.459 447.459 426.756 447.333 426.991 447.161C427.231 446.991 427.416 446.741 427.544 446.411C427.627 446.199 427.661 445.99 427.645 445.784C427.636 445.574 427.581 445.379 427.478 445.197C427.38 445.017 427.241 444.853 427.061 444.705C426.88 444.557 426.664 444.434 426.413 444.336C426.139 444.229 425.878 444.172 425.629 444.165C425.381 444.158 425.151 444.194 424.94 444.273C424.734 444.354 424.553 444.473 424.395 444.63C424.242 444.789 424.123 444.978 424.038 445.196C423.907 445.531 423.875 445.844 423.942 446.134C424.011 446.419 424.149 446.702 424.355 446.982C424.177 447.009 424.004 447.048 423.836 447.098C423.674 447.15 423.52 447.222 423.375 447.314C423.238 447.402 423.113 447.514 423.002 447.651ZM428.948 451.163L427.783 450.707L427.423 451.63L430.767 452.936L431.128 452.014L429.988 451.569L431.959 446.522L431.347 446.283L428.833 447.079L429.049 447.888L429.994 447.668L430.59 447.33L430.242 447.851L428.948 451.163Z" fill="#59BB49"/>
</svg>
