<svg width="920" height="755" viewBox="0 0 920 755" fill="none" xmlns="http://www.w3.org/2000/svg">
<path d="M424.163 432.682C424.778 432.922 424.963 433.356 424.718 433.981C424.609 434.261 424.436 434.457 424.198 434.571C423.966 434.686 423.719 434.693 423.457 434.59C423.294 434.527 423.167 434.441 423.073 434.334C422.982 434.221 422.917 434.099 422.878 433.968C422.847 433.833 422.837 433.694 422.848 433.55C422.861 433.401 422.894 433.259 422.947 433.125L422.999 432.991C423.016 432.946 423.043 432.895 423.078 432.838C423.192 432.728 423.344 432.652 423.534 432.611C423.73 432.571 423.94 432.595 424.163 432.682Z" fill="#59BB49"/>
<path d="M429.51 435.699C429.53 435.829 429.515 435.958 429.465 436.087C429.369 436.333 429.219 436.487 429.014 436.549C428.815 436.613 428.59 436.595 428.339 436.497C428.065 436.39 427.88 436.228 427.785 436.01C427.697 435.789 427.697 435.567 427.784 435.343C427.852 435.17 427.967 435.016 428.13 434.879C428.3 434.74 428.547 434.646 428.868 434.598C428.965 434.713 429.058 434.83 429.147 434.948C429.241 435.069 429.319 435.192 429.379 435.319C429.447 435.442 429.49 435.569 429.51 435.699Z" fill="#59BB49"/>
<path d="M429.009 433C428.998 432.88 429.019 432.753 429.071 432.619C429.139 432.446 429.254 432.317 429.416 432.232C429.583 432.149 429.79 432.156 430.036 432.252C430.231 432.328 430.372 432.454 430.458 432.629C430.552 432.801 430.553 433.005 430.462 433.239C430.328 433.58 430.039 433.828 429.592 433.982C429.496 433.88 429.405 433.777 429.317 433.671C429.237 433.563 429.166 433.455 429.105 433.347C429.052 433.236 429.02 433.121 429.009 433Z" fill="#59BB49"/>
<path d="M422 425L442 432L437.5 444L417 437L422 425ZM425.357 435.043C425.544 434.845 425.691 434.609 425.798 434.335C425.911 434.045 425.97 433.771 425.973 433.515C425.977 433.259 425.932 433.026 425.84 432.816C425.751 432.6 425.615 432.412 425.433 432.251C425.251 432.09 425.035 431.96 424.783 431.862C424.515 431.757 424.272 431.72 424.054 431.751C423.838 431.776 423.647 431.836 423.48 431.932C423.622 431.717 423.797 431.525 424.005 431.355C424.221 431.182 424.453 431.04 424.702 430.931C424.956 430.825 425.226 430.753 425.511 430.716C425.796 430.679 426.087 430.693 426.384 430.757L426.478 429.799C426.049 429.709 425.613 429.696 425.169 429.761C424.733 429.823 424.312 429.967 423.907 430.196C423.51 430.421 423.143 430.725 422.807 431.109C422.475 431.495 422.202 431.964 421.986 432.518C421.842 432.887 421.765 433.23 421.757 433.549C421.748 433.868 421.797 434.154 421.904 434.409C422.011 434.663 422.166 434.885 422.369 435.073C422.58 435.259 422.831 435.408 423.121 435.522C423.406 435.633 423.686 435.685 423.96 435.676C424.24 435.669 424.497 435.612 424.732 435.504C424.968 435.396 425.176 435.242 425.357 435.043ZM427.002 434.651C426.892 434.782 426.8 434.946 426.723 435.141C426.632 435.376 426.59 435.605 426.6 435.828C426.615 436.053 426.675 436.263 426.779 436.458C426.889 436.655 427.041 436.834 427.236 436.994C427.435 437.162 427.674 437.3 427.953 437.41C428.233 437.519 428.505 437.58 428.77 437.593C429.038 437.601 429.284 437.565 429.508 437.486C429.733 437.406 429.929 437.283 430.097 437.116C430.273 436.947 430.41 436.736 430.508 436.485C430.652 436.116 430.683 435.78 430.602 435.478C430.526 435.178 430.358 434.864 430.099 434.538C430.459 434.459 430.756 434.333 430.991 434.161C431.231 433.991 431.416 433.741 431.544 433.411C431.627 433.199 431.661 432.99 431.645 432.784C431.636 432.574 431.581 432.379 431.478 432.197C431.38 432.017 431.241 431.853 431.061 431.705C430.88 431.557 430.664 431.434 430.413 431.336C430.139 431.229 429.878 431.172 429.629 431.165C429.381 431.158 429.151 431.194 428.94 431.273C428.734 431.354 428.553 431.473 428.395 431.63C428.242 431.789 428.123 431.978 428.038 432.196C427.907 432.531 427.875 432.844 427.942 433.134C428.011 433.419 428.149 433.702 428.355 433.982C428.177 434.009 428.004 434.048 427.836 434.098C427.674 434.15 427.52 434.222 427.375 434.314C427.238 434.402 427.113 434.514 427.002 434.651ZM435.794 436.221C436.013 435.972 436.179 435.705 436.29 435.42C436.391 435.163 436.436 434.923 436.426 434.7C436.419 434.472 436.368 434.265 436.273 434.079C436.178 433.894 436.043 433.729 435.868 433.583C435.693 433.437 435.485 433.318 435.245 433.224C434.87 433.077 434.521 433.006 434.198 433.008C433.883 433.007 433.581 433.054 433.294 433.148L433.428 434.089C433.603 434.022 433.796 433.988 434.009 433.987C434.23 433.983 434.429 434.016 434.608 434.086C434.893 434.198 435.07 434.354 435.14 434.555C435.217 434.753 435.211 434.966 435.122 435.195C435.048 435.385 434.93 435.571 434.769 435.753C434.613 435.937 434.426 436.118 434.208 436.297C433.992 436.471 433.76 436.637 433.51 436.798C433.261 436.958 433.008 437.11 432.752 437.255C432.503 437.396 432.258 437.529 432.016 437.654C431.777 437.773 431.562 437.876 431.374 437.963L431.154 438.525L434.684 439.903L435.044 438.981L433.434 438.353L432.785 438.234L432.801 438.192L433.38 438.022C433.649 437.876 433.929 437.712 434.22 437.529C434.518 437.343 434.8 437.14 435.066 436.922C435.337 436.706 435.58 436.472 435.794 436.221Z" fill="#59BB49"/>
</svg>
