<svg width="920" height="755" viewBox="0 0 920 755" fill="none" xmlns="http://www.w3.org/2000/svg">
<path d="M429.163 420.682C429.778 420.922 429.963 421.356 429.718 421.981C429.609 422.261 429.436 422.457 429.198 422.571C428.966 422.686 428.719 422.693 428.457 422.59C428.294 422.527 428.167 422.441 428.073 422.334C427.982 422.221 427.917 422.099 427.878 421.968C427.847 421.833 427.837 421.694 427.848 421.55C427.861 421.401 427.894 421.259 427.947 421.125L427.999 420.991C428.016 420.946 428.043 420.895 428.078 420.838C428.192 420.728 428.344 420.652 428.534 420.611C428.73 420.571 428.94 420.595 429.163 420.682Z" fill="#59BB49"/>
<path d="M434.51 423.699C434.53 423.829 434.515 423.958 434.465 424.087C434.369 424.333 434.219 424.487 434.014 424.549C433.815 424.613 433.59 424.595 433.339 424.497C433.065 424.39 432.88 424.228 432.785 424.01C432.697 423.789 432.697 423.567 432.784 423.343C432.852 423.17 432.967 423.016 433.13 422.879C433.3 422.74 433.547 422.646 433.868 422.598C433.965 422.713 434.058 422.83 434.147 422.948C434.241 423.069 434.319 423.192 434.379 423.319C434.447 423.442 434.49 423.569 434.51 423.699Z" fill="#59BB49"/>
<path d="M434.009 421C433.998 420.88 434.019 420.753 434.071 420.619C434.139 420.446 434.254 420.317 434.416 420.232C434.583 420.149 434.79 420.156 435.036 420.252C435.231 420.328 435.372 420.454 435.458 420.629C435.552 420.801 435.553 421.005 435.462 421.239C435.328 421.58 435.039 421.828 434.592 421.982C434.496 421.88 434.405 421.777 434.317 421.671C434.237 421.563 434.166 421.455 434.105 421.347C434.052 421.236 434.02 421.121 434.009 421Z" fill="#59BB49"/>
<path d="M426.5 412.5L446.5 419.5L442 431.5L422 424.5L426.5 412.5ZM430.357 423.043C430.544 422.845 430.691 422.609 430.798 422.335C430.911 422.045 430.97 421.771 430.973 421.515C430.977 421.259 430.932 421.026 430.84 420.816C430.751 420.6 430.615 420.412 430.433 420.251C430.251 420.09 430.035 419.96 429.783 419.862C429.515 419.757 429.272 419.72 429.054 419.751C428.838 419.776 428.647 419.836 428.48 419.932C428.622 419.717 428.797 419.525 429.005 419.355C429.221 419.182 429.453 419.04 429.702 418.931C429.956 418.825 430.226 418.753 430.511 418.716C430.796 418.679 431.087 418.693 431.384 418.757L431.478 417.799C431.049 417.709 430.613 417.696 430.169 417.761C429.733 417.823 429.312 417.967 428.907 418.196C428.51 418.421 428.143 418.725 427.807 419.109C427.475 419.495 427.202 419.964 426.986 420.518C426.842 420.887 426.765 421.23 426.757 421.549C426.748 421.868 426.797 422.154 426.904 422.409C427.011 422.663 427.166 422.885 427.369 423.073C427.58 423.259 427.831 423.408 428.121 423.522C428.406 423.633 428.686 423.685 428.96 423.676C429.24 423.669 429.497 423.612 429.732 423.504C429.968 423.396 430.176 423.242 430.357 423.043ZM432.002 422.651C431.892 422.782 431.8 422.946 431.723 423.141C431.632 423.376 431.59 423.605 431.6 423.828C431.615 424.053 431.675 424.263 431.779 424.458C431.889 424.655 432.041 424.834 432.236 424.994C432.435 425.162 432.674 425.3 432.953 425.41C433.233 425.519 433.505 425.58 433.77 425.593C434.038 425.601 434.284 425.565 434.508 425.486C434.733 425.406 434.929 425.283 435.097 425.116C435.273 424.947 435.41 424.736 435.508 424.485C435.652 424.116 435.683 423.78 435.602 423.478C435.526 423.178 435.358 422.864 435.099 422.538C435.459 422.459 435.756 422.333 435.991 422.161C436.231 421.991 436.416 421.741 436.544 421.411C436.627 421.199 436.661 420.99 436.645 420.784C436.636 420.574 436.581 420.379 436.478 420.197C436.38 420.017 436.241 419.853 436.061 419.705C435.88 419.557 435.664 419.434 435.413 419.336C435.139 419.229 434.878 419.172 434.629 419.165C434.381 419.158 434.151 419.194 433.94 419.273C433.734 419.354 433.553 419.473 433.395 419.63C433.242 419.789 433.123 419.978 433.038 420.196C432.907 420.531 432.875 420.844 432.942 421.134C433.011 421.419 433.149 421.702 433.355 421.982C433.177 422.009 433.004 422.048 432.836 422.098C432.674 422.15 432.52 422.222 432.375 422.314C432.238 422.402 432.113 422.514 432.002 422.651ZM438.807 426.314C438.556 426.429 438.257 426.419 437.911 426.283C437.693 426.198 437.503 426.098 437.342 425.984C437.186 425.871 437.049 425.75 436.933 425.621L436.285 426.412C436.415 426.559 436.602 426.706 436.847 426.853C437.092 427.001 437.338 427.122 437.584 427.218C437.88 427.334 438.172 427.403 438.46 427.425C438.747 427.448 439.018 427.415 439.271 427.327C439.53 427.241 439.76 427.099 439.96 426.9C440.165 426.703 440.332 426.44 440.461 426.111C440.564 425.848 440.615 425.601 440.616 425.369C440.616 425.137 440.575 424.928 440.494 424.741C440.42 424.552 440.308 424.385 440.157 424.243C440.012 424.102 439.845 423.986 439.656 423.893L439.284 423.805L439.301 423.763L439.758 423.681L441.559 422.558L441.792 421.963L438.589 420.712L438.229 421.634L439.637 422.185L440.329 422.368L439.704 422.558L438.149 423.545L437.923 424.124L438.527 424.36C438.935 424.519 439.204 424.711 439.335 424.936C439.466 425.161 439.47 425.433 439.345 425.752C439.243 426.015 439.063 426.202 438.807 426.314Z" fill="#59BB49"/>
</svg>
