<svg width="920" height="755" viewBox="0 0 920 755" fill="none" xmlns="http://www.w3.org/2000/svg">
<path d="M450.163 427.682C450.778 427.922 450.963 428.356 450.718 428.981C450.609 429.261 450.436 429.457 450.198 429.571C449.966 429.686 449.719 429.693 449.457 429.59C449.294 429.527 449.167 429.441 449.073 429.334C448.982 429.221 448.917 429.099 448.878 428.968C448.847 428.833 448.837 428.694 448.848 428.55C448.861 428.401 448.894 428.259 448.947 428.125L448.999 427.991C449.016 427.946 449.043 427.895 449.078 427.838C449.192 427.728 449.344 427.652 449.534 427.611C449.73 427.571 449.94 427.595 450.163 427.682Z" fill="#59BB49"/>
<path d="M455.51 430.699C455.53 430.829 455.515 430.958 455.465 431.087C455.369 431.333 455.219 431.487 455.014 431.549C454.815 431.613 454.59 431.595 454.339 431.497C454.065 431.39 453.88 431.228 453.785 431.01C453.697 430.789 453.697 430.567 453.784 430.343C453.852 430.17 453.967 430.016 454.13 429.879C454.3 429.74 454.547 429.646 454.868 429.598C454.965 429.713 455.058 429.83 455.147 429.948C455.241 430.069 455.319 430.192 455.379 430.319C455.447 430.442 455.49 430.569 455.51 430.699Z" fill="#59BB49"/>
<path d="M455.009 428C454.998 427.88 455.019 427.753 455.071 427.619C455.139 427.446 455.254 427.317 455.416 427.232C455.583 427.149 455.79 427.156 456.036 427.252C456.231 427.328 456.372 427.454 456.458 427.629C456.552 427.801 456.553 428.005 456.462 428.239C456.328 428.58 456.039 428.828 455.592 428.982C455.496 428.88 455.405 428.777 455.317 428.671C455.237 428.563 455.166 428.455 455.105 428.347C455.052 428.236 455.02 428.121 455.009 428Z" fill="#59BB49"/>
<path d="M461.106 429.889L460.755 430.564L460.254 431.847L459.257 431.457L458.694 431.315L459.238 431.16L460.552 430.369L461.072 429.876L461.106 429.889Z" fill="#59BB49"/>
<path d="M447 419.5L466.5 427L462.5 439L442.5 431.5L447 419.5ZM451.357 430.043C451.544 429.845 451.691 429.609 451.798 429.335C451.911 429.045 451.97 428.771 451.973 428.515C451.977 428.259 451.932 428.026 451.84 427.816C451.751 427.6 451.615 427.412 451.433 427.251C451.251 427.09 451.035 426.96 450.783 426.862C450.515 426.757 450.272 426.72 450.054 426.751C449.838 426.776 449.647 426.836 449.48 426.932C449.622 426.717 449.797 426.525 450.005 426.355C450.221 426.182 450.453 426.04 450.702 425.931C450.956 425.825 451.226 425.753 451.511 425.716C451.796 425.679 452.087 425.693 452.384 425.757L452.478 424.799C452.049 424.709 451.613 424.696 451.169 424.761C450.733 424.823 450.312 424.967 449.907 425.196C449.51 425.421 449.143 425.725 448.807 426.109C448.475 426.495 448.202 426.964 447.986 427.518C447.842 427.887 447.765 428.23 447.757 428.549C447.748 428.868 447.797 429.154 447.904 429.409C448.011 429.663 448.166 429.885 448.369 430.073C448.58 430.259 448.831 430.408 449.121 430.522C449.406 430.633 449.686 430.685 449.96 430.676C450.24 430.669 450.497 430.612 450.732 430.504C450.968 430.396 451.176 430.242 451.357 430.043ZM453.002 429.651C452.892 429.782 452.8 429.946 452.723 430.141C452.632 430.376 452.59 430.605 452.6 430.828C452.615 431.053 452.675 431.263 452.779 431.458C452.889 431.655 453.041 431.834 453.236 431.994C453.435 432.162 453.674 432.3 453.953 432.41C454.233 432.519 454.505 432.58 454.77 432.593C455.038 432.601 455.284 432.565 455.508 432.486C455.733 432.406 455.929 432.283 456.097 432.116C456.273 431.947 456.41 431.736 456.508 431.485C456.652 431.116 456.683 430.78 456.602 430.478C456.526 430.178 456.358 429.864 456.099 429.538C456.459 429.459 456.756 429.333 456.991 429.161C457.231 428.991 457.416 428.741 457.544 428.411C457.627 428.199 457.661 427.99 457.645 427.784C457.636 427.574 457.581 427.379 457.478 427.197C457.38 427.017 457.241 426.853 457.061 426.705C456.88 426.557 456.664 426.434 456.413 426.336C456.139 426.229 455.878 426.172 455.629 426.165C455.381 426.158 455.151 426.194 454.94 426.273C454.734 426.354 454.553 426.473 454.395 426.63C454.242 426.789 454.123 426.978 454.038 427.196C453.907 427.531 453.875 427.844 453.942 428.134C454.011 428.419 454.149 428.702 454.355 428.982C454.177 429.009 454.004 429.048 453.836 429.098C453.674 429.15 453.52 429.222 453.375 429.314C453.238 429.402 453.113 429.514 453.002 429.651ZM460.928 433.115L461.85 433.475L462.191 432.603L461.269 432.243L462.598 428.84L461.701 428.489L457.616 431.106L457.374 431.726L459.914 432.719L459.275 434.353L460.29 434.75L460.928 433.115Z" fill="#59BB49"/>
</svg>
