<svg width="920" height="755" viewBox="0 0 920 755" fill="none" xmlns="http://www.w3.org/2000/svg">
<path d="M446.163 439.682C446.778 439.922 446.963 440.356 446.718 440.981C446.609 441.261 446.436 441.457 446.198 441.571C445.966 441.686 445.719 441.693 445.457 441.59C445.294 441.527 445.167 441.441 445.073 441.334C444.982 441.221 444.917 441.099 444.878 440.968C444.847 440.833 444.837 440.694 444.848 440.55C444.861 440.401 444.894 440.259 444.947 440.125L444.999 439.991C445.016 439.946 445.043 439.895 445.078 439.838C445.192 439.728 445.344 439.652 445.534 439.611C445.73 439.571 445.94 439.595 446.163 439.682Z" fill="#59BB49"/>
<path d="M451.51 442.699C451.53 442.829 451.515 442.958 451.465 443.087C451.369 443.333 451.219 443.487 451.014 443.549C450.815 443.613 450.59 443.595 450.339 443.497C450.065 443.39 449.88 443.228 449.785 443.01C449.697 442.789 449.697 442.567 449.784 442.343C449.852 442.17 449.967 442.016 450.13 441.879C450.3 441.74 450.547 441.646 450.868 441.598C450.965 441.713 451.058 441.83 451.147 441.948C451.241 442.069 451.319 442.192 451.379 442.319C451.447 442.442 451.49 442.569 451.51 442.699Z" fill="#59BB49"/>
<path d="M451.009 440C450.998 439.88 451.019 439.753 451.071 439.619C451.139 439.446 451.254 439.317 451.416 439.232C451.583 439.149 451.79 439.156 452.036 439.252C452.231 439.328 452.372 439.454 452.458 439.629C452.552 439.801 452.553 440.005 452.462 440.239C452.328 440.58 452.039 440.828 451.592 440.982C451.496 440.88 451.405 440.777 451.317 440.671C451.237 440.563 451.166 440.455 451.105 440.347C451.052 440.236 451.02 440.121 451.009 440Z" fill="#59BB49"/>
<path d="M442.5 432L462.5 439.5L458.5 451.5L438 444L442.5 432ZM447.357 442.043C447.544 441.845 447.691 441.609 447.798 441.335C447.911 441.045 447.97 440.771 447.973 440.515C447.977 440.259 447.932 440.026 447.84 439.816C447.751 439.6 447.615 439.412 447.433 439.251C447.251 439.09 447.035 438.96 446.783 438.862C446.515 438.757 446.272 438.72 446.054 438.751C445.838 438.776 445.647 438.836 445.48 438.932C445.622 438.717 445.797 438.525 446.005 438.355C446.221 438.182 446.453 438.04 446.702 437.931C446.956 437.825 447.226 437.753 447.511 437.716C447.796 437.679 448.087 437.693 448.384 437.757L448.478 436.799C448.049 436.709 447.613 436.696 447.169 436.761C446.733 436.823 446.312 436.967 445.907 437.196C445.51 437.421 445.143 437.725 444.807 438.109C444.475 438.495 444.202 438.964 443.986 439.518C443.842 439.887 443.765 440.23 443.757 440.549C443.748 440.868 443.797 441.154 443.904 441.409C444.011 441.663 444.166 441.885 444.369 442.073C444.58 442.259 444.831 442.408 445.121 442.522C445.406 442.633 445.686 442.685 445.96 442.676C446.24 442.669 446.497 442.612 446.732 442.504C446.968 442.396 447.176 442.242 447.357 442.043ZM449.002 441.651C448.892 441.782 448.8 441.946 448.723 442.141C448.632 442.376 448.59 442.605 448.6 442.828C448.615 443.053 448.675 443.263 448.779 443.458C448.889 443.655 449.041 443.834 449.236 443.994C449.435 444.162 449.674 444.3 449.953 444.41C450.233 444.519 450.505 444.58 450.77 444.593C451.038 444.601 451.284 444.565 451.508 444.486C451.733 444.406 451.929 444.283 452.097 444.116C452.273 443.947 452.41 443.736 452.508 443.485C452.652 443.116 452.683 442.78 452.602 442.478C452.526 442.178 452.358 441.864 452.099 441.538C452.459 441.459 452.756 441.333 452.991 441.161C453.231 440.991 453.416 440.741 453.544 440.411C453.627 440.199 453.661 439.99 453.645 439.784C453.636 439.574 453.581 439.379 453.478 439.197C453.38 439.017 453.241 438.853 453.061 438.705C452.88 438.557 452.664 438.434 452.413 438.336C452.139 438.229 451.878 438.172 451.629 438.165C451.381 438.158 451.151 438.194 450.94 438.273C450.734 438.354 450.553 438.473 450.395 438.63C450.242 438.789 450.123 438.978 450.038 439.196C449.907 439.531 449.875 439.844 449.942 440.134C450.011 440.419 450.149 440.702 450.355 440.982C450.177 441.009 450.004 441.048 449.836 441.098C449.674 441.15 449.52 441.222 449.375 441.314C449.238 441.402 449.113 441.514 449.002 441.651ZM455.702 445.235C455.437 445.337 455.12 445.317 454.751 445.173C454.533 445.087 454.351 445 454.206 444.911C454.068 444.819 453.946 444.719 453.839 444.613L453.192 445.404C453.32 445.538 453.488 445.668 453.696 445.794C453.908 445.929 454.14 446.045 454.391 446.143C454.71 446.268 455.019 446.34 455.32 446.361C455.621 446.382 455.902 446.347 456.164 446.256C456.43 446.167 456.669 446.018 456.879 445.811C457.089 445.603 457.258 445.334 457.387 445.004C457.496 444.725 457.552 444.457 457.556 444.201C457.562 443.939 457.517 443.699 457.421 443.481C457.328 443.258 457.187 443.058 456.999 442.881C456.816 442.707 456.589 442.56 456.32 442.442L455.963 442.342L456.405 441.21L458.35 441.97L458.75 440.947L455.866 439.82L454.667 442.889L455.339 443.122C455.764 443.288 456.06 443.494 456.228 443.74C456.396 443.986 456.415 444.277 456.284 444.612C456.162 444.925 455.968 445.133 455.702 445.235Z" fill="#59BB49"/>
</svg>
