<svg width="920" height="755" viewBox="0 0 920 755" fill="none" xmlns="http://www.w3.org/2000/svg">
<path d="M441.163 452.682C441.778 452.922 441.963 453.356 441.718 453.981C441.609 454.261 441.436 454.457 441.198 454.571C440.966 454.686 440.719 454.693 440.457 454.59C440.294 454.527 440.167 454.441 440.073 454.334C439.982 454.221 439.917 454.099 439.878 453.968C439.847 453.833 439.837 453.694 439.848 453.55C439.861 453.401 439.894 453.259 439.947 453.125L439.999 452.991C440.016 452.946 440.043 452.895 440.078 452.838C440.192 452.728 440.344 452.652 440.534 452.611C440.73 452.571 440.94 452.595 441.163 452.682Z" fill="#59BB49"/>
<path d="M446.51 455.699C446.53 455.829 446.515 455.958 446.465 456.087C446.369 456.333 446.219 456.487 446.014 456.549C445.815 456.613 445.59 456.595 445.339 456.497C445.065 456.39 444.88 456.228 444.785 456.01C444.697 455.789 444.697 455.567 444.784 455.343C444.852 455.17 444.967 455.016 445.13 454.879C445.3 454.74 445.547 454.646 445.868 454.598C445.965 454.713 446.058 454.83 446.147 454.948C446.241 455.069 446.319 455.192 446.379 455.319C446.447 455.442 446.49 455.569 446.51 455.699Z" fill="#59BB49"/>
<path d="M446.009 453C445.998 452.88 446.019 452.753 446.071 452.619C446.139 452.446 446.254 452.317 446.416 452.232C446.583 452.149 446.79 452.156 447.036 452.252C447.231 452.328 447.372 452.454 447.458 452.629C447.552 452.801 447.553 453.005 447.462 453.239C447.328 453.58 447.039 453.828 446.592 453.982C446.496 453.88 446.405 453.777 446.317 453.671C446.237 453.563 446.166 453.455 446.105 453.347C446.052 453.236 446.02 453.121 446.009 453Z" fill="#59BB49"/>
<path d="M451.011 456.53C451.626 456.77 451.811 457.203 451.567 457.829C451.457 458.108 451.284 458.304 451.047 458.418C450.815 458.533 450.567 458.54 450.305 458.437C450.143 458.374 450.015 458.289 449.921 458.181C449.83 458.068 449.765 457.946 449.726 457.815C449.695 457.681 449.685 457.541 449.696 457.398C449.709 457.248 449.742 457.106 449.795 456.972L449.847 456.838C449.865 456.793 449.891 456.742 449.926 456.685C450.04 456.575 450.192 456.499 450.382 456.458C450.578 456.418 450.788 456.442 451.011 456.53Z" fill="#59BB49"/>
<path d="M438 444.5L458.5 452L453.5 463.5L433.5 456L438 444.5ZM442.357 455.043C442.544 454.845 442.691 454.609 442.798 454.335C442.911 454.045 442.97 453.771 442.973 453.515C442.977 453.259 442.932 453.026 442.84 452.816C442.751 452.6 442.615 452.412 442.433 452.251C442.251 452.09 442.035 451.96 441.783 451.862C441.515 451.757 441.272 451.72 441.054 451.751C440.838 451.776 440.647 451.836 440.48 451.932C440.622 451.717 440.797 451.525 441.005 451.355C441.221 451.182 441.453 451.04 441.702 450.931C441.956 450.825 442.226 450.753 442.511 450.716C442.796 450.679 443.087 450.693 443.384 450.757L443.478 449.799C443.049 449.709 442.613 449.696 442.169 449.761C441.733 449.823 441.312 449.967 440.907 450.196C440.51 450.421 440.143 450.725 439.807 451.109C439.475 451.495 439.202 451.964 438.986 452.518C438.842 452.887 438.765 453.23 438.757 453.549C438.748 453.868 438.797 454.154 438.904 454.409C439.011 454.663 439.166 454.885 439.369 455.073C439.58 455.259 439.831 455.408 440.121 455.522C440.406 455.633 440.686 455.685 440.96 455.676C441.24 455.669 441.497 455.612 441.732 455.504C441.968 455.396 442.176 455.242 442.357 455.043ZM444.002 454.651C443.892 454.782 443.8 454.946 443.723 455.141C443.632 455.376 443.59 455.605 443.6 455.828C443.615 456.053 443.675 456.263 443.779 456.458C443.889 456.655 444.041 456.834 444.236 456.994C444.435 457.162 444.674 457.3 444.953 457.41C445.233 457.519 445.505 457.58 445.77 457.593C446.038 457.601 446.284 457.565 446.508 457.486C446.733 457.406 446.929 457.283 447.097 457.116C447.273 456.947 447.41 456.736 447.508 456.485C447.652 456.116 447.683 455.78 447.602 455.478C447.526 455.178 447.358 454.864 447.099 454.538C447.459 454.459 447.756 454.333 447.991 454.161C448.231 453.991 448.416 453.741 448.544 453.411C448.627 453.199 448.661 452.99 448.645 452.784C448.636 452.574 448.581 452.379 448.478 452.197C448.38 452.017 448.241 451.853 448.061 451.705C447.88 451.557 447.664 451.434 447.413 451.336C447.139 451.229 446.878 451.172 446.629 451.165C446.381 451.158 446.151 451.194 445.94 451.273C445.734 451.354 445.553 451.473 445.395 451.63C445.242 451.789 445.123 451.978 445.038 452.196C444.907 452.531 444.875 452.844 444.942 453.134C445.011 453.419 445.149 453.702 445.355 453.982C445.177 454.009 445.004 454.048 444.836 454.098C444.674 454.15 444.52 454.222 444.375 454.314C444.238 454.402 444.113 454.514 444.002 454.651ZM452.205 458.89C452.392 458.692 452.539 458.456 452.646 458.183C452.759 457.892 452.818 457.619 452.821 457.362C452.825 457.106 452.781 456.873 452.689 456.663C452.599 456.448 452.463 456.259 452.281 456.098C452.099 455.937 451.883 455.807 451.631 455.709C451.363 455.604 451.12 455.567 450.902 455.598C450.686 455.623 450.495 455.684 450.328 455.78C450.47 455.565 450.645 455.372 450.853 455.202C451.069 455.029 451.302 454.888 451.55 454.779C451.805 454.672 452.074 454.6 452.359 454.563C452.644 454.526 452.935 454.54 453.232 454.605L453.326 453.646C452.897 453.556 452.461 453.543 452.017 453.608C451.581 453.67 451.16 453.815 450.755 454.043C450.358 454.268 449.991 454.572 449.655 454.956C449.324 455.342 449.05 455.812 448.834 456.365C448.69 456.734 448.613 457.078 448.605 457.396C448.596 457.715 448.645 458.002 448.752 458.256C448.859 458.51 449.014 458.732 449.217 458.921C449.428 459.106 449.679 459.256 449.97 459.369C450.255 459.48 450.534 459.532 450.808 459.523C451.088 459.516 451.345 459.459 451.581 459.351C451.816 459.243 452.024 459.09 452.205 458.89Z" fill="#59BB49"/>
</svg>
