<svg width="920" height="755" viewBox="0 0 920 755" fill="none" xmlns="http://www.w3.org/2000/svg">
<path d="M436.163 465.682C436.778 465.922 436.963 466.356 436.718 466.981C436.609 467.261 436.436 467.457 436.198 467.571C435.966 467.686 435.719 467.693 435.457 467.59C435.294 467.527 435.167 467.441 435.073 467.334C434.982 467.221 434.917 467.099 434.878 466.968C434.847 466.833 434.837 466.694 434.848 466.55C434.861 466.401 434.894 466.259 434.947 466.125L434.999 465.991C435.016 465.946 435.043 465.895 435.078 465.838C435.192 465.728 435.344 465.652 435.534 465.611C435.73 465.571 435.94 465.595 436.163 465.682Z" fill="#59BB49"/>
<path d="M441.51 468.699C441.53 468.829 441.515 468.958 441.465 469.087C441.369 469.333 441.219 469.487 441.014 469.549C440.815 469.613 440.59 469.595 440.339 469.497C440.065 469.39 439.88 469.228 439.785 469.01C439.697 468.789 439.697 468.567 439.784 468.343C439.852 468.17 439.967 468.016 440.13 467.879C440.3 467.74 440.547 467.646 440.868 467.598C440.965 467.713 441.058 467.83 441.147 467.948C441.241 468.069 441.319 468.192 441.379 468.319C441.447 468.442 441.49 468.569 441.51 468.699Z" fill="#59BB49"/>
<path d="M441.009 466C440.998 465.88 441.019 465.753 441.071 465.619C441.139 465.446 441.254 465.317 441.416 465.232C441.583 465.149 441.79 465.156 442.036 465.252C442.231 465.328 442.372 465.454 442.458 465.629C442.552 465.801 442.553 466.005 442.462 466.239C442.328 466.58 442.039 466.828 441.592 466.982C441.496 466.88 441.405 466.777 441.317 466.671C441.237 466.563 441.166 466.455 441.105 466.347C441.052 466.236 441.02 466.121 441.009 466Z" fill="#59BB49"/>
<path d="M433.5 456.5L453.5 464L449.5 476L429 468.5L433.5 456.5ZM437.357 468.043C437.544 467.845 437.691 467.609 437.798 467.335C437.911 467.045 437.97 466.771 437.973 466.515C437.977 466.259 437.932 466.026 437.84 465.816C437.751 465.6 437.615 465.412 437.433 465.251C437.251 465.09 437.035 464.96 436.783 464.862C436.515 464.757 436.272 464.72 436.054 464.751C435.838 464.776 435.647 464.836 435.48 464.932C435.622 464.717 435.797 464.525 436.005 464.355C436.221 464.182 436.453 464.04 436.702 463.931C436.956 463.825 437.226 463.753 437.511 463.716C437.796 463.679 438.087 463.693 438.384 463.757L438.478 462.799C438.049 462.709 437.613 462.696 437.169 462.761C436.733 462.823 436.312 462.967 435.907 463.196C435.51 463.421 435.143 463.725 434.807 464.109C434.475 464.495 434.202 464.964 433.986 465.518C433.842 465.887 433.765 466.23 433.757 466.549C433.748 466.868 433.797 467.154 433.904 467.409C434.011 467.663 434.166 467.885 434.369 468.073C434.58 468.259 434.831 468.408 435.121 468.522C435.406 468.633 435.686 468.685 435.96 468.676C436.24 468.669 436.497 468.612 436.732 468.504C436.968 468.396 437.176 468.242 437.357 468.043ZM439.002 467.651C438.892 467.782 438.8 467.946 438.723 468.141C438.632 468.376 438.59 468.605 438.6 468.828C438.615 469.053 438.675 469.263 438.779 469.458C438.889 469.655 439.041 469.834 439.236 469.994C439.435 470.162 439.674 470.3 439.953 470.41C440.233 470.519 440.505 470.58 440.77 470.593C441.038 470.601 441.284 470.565 441.508 470.486C441.733 470.406 441.929 470.283 442.097 470.116C442.273 469.947 442.41 469.736 442.508 469.485C442.652 469.116 442.683 468.78 442.602 468.478C442.526 468.178 442.358 467.864 442.099 467.538C442.459 467.459 442.756 467.333 442.991 467.161C443.231 466.991 443.416 466.741 443.544 466.411C443.627 466.199 443.661 465.99 443.645 465.784C443.636 465.574 443.581 465.379 443.478 465.197C443.38 465.017 443.241 464.853 443.061 464.705C442.88 464.557 442.664 464.434 442.413 464.336C442.139 464.229 441.878 464.172 441.629 464.165C441.381 464.158 441.151 464.194 440.94 464.273C440.734 464.354 440.553 464.473 440.395 464.63C440.242 464.789 440.123 464.978 440.038 465.196C439.907 465.531 439.875 465.844 439.942 466.134C440.011 466.419 440.149 466.702 440.355 466.982C440.177 467.009 440.004 467.048 439.836 467.098C439.674 467.15 439.52 467.222 439.375 467.314C439.238 467.402 439.113 467.514 439.002 467.651ZM447.133 467.871L443.448 471.639L444.512 472.055L449.028 467.423L449.152 467.104L445.371 465.627L444.972 466.65L447.126 467.492L447.662 467.604L447.133 467.871Z" fill="#59BB49"/>
</svg>
