<svg width="920" height="755" viewBox="0 0 920 755" fill="none" xmlns="http://www.w3.org/2000/svg">
<path d="M432.163 477.682C432.778 477.922 432.963 478.356 432.718 478.981C432.609 479.261 432.436 479.457 432.198 479.571C431.966 479.686 431.719 479.693 431.457 479.59C431.294 479.527 431.167 479.441 431.073 479.334C430.982 479.221 430.917 479.099 430.878 478.968C430.847 478.833 430.837 478.694 430.848 478.55C430.861 478.401 430.894 478.259 430.947 478.125L430.999 477.991C431.016 477.946 431.043 477.895 431.078 477.838C431.192 477.728 431.344 477.652 431.534 477.611C431.73 477.571 431.94 477.595 432.163 477.682Z" fill="#59BB49"/>
<path d="M437.51 480.699C437.53 480.829 437.515 480.958 437.465 481.087C437.369 481.333 437.219 481.487 437.014 481.549C436.815 481.613 436.59 481.595 436.339 481.497C436.065 481.39 435.88 481.228 435.785 481.01C435.697 480.789 435.697 480.567 435.784 480.343C435.852 480.17 435.967 480.016 436.13 479.879C436.3 479.74 436.547 479.646 436.868 479.598C436.965 479.713 437.058 479.83 437.147 479.948C437.241 480.069 437.319 480.192 437.379 480.319C437.447 480.442 437.49 480.569 437.51 480.699Z" fill="#59BB49"/>
<path d="M437.009 478C436.998 477.88 437.019 477.753 437.071 477.619C437.139 477.446 437.254 477.317 437.416 477.232C437.583 477.149 437.79 477.156 438.036 477.252C438.231 477.328 438.372 477.454 438.458 477.629C438.552 477.801 438.553 478.005 438.462 478.239C438.328 478.58 438.039 478.828 437.592 478.982C437.496 478.88 437.405 478.777 437.317 478.671C437.237 478.563 437.166 478.455 437.105 478.347C437.052 478.236 437.02 478.121 437.009 478Z" fill="#59BB49"/>
<path d="M442.435 482.622C442.455 482.753 442.439 482.882 442.389 483.011C442.293 483.256 442.143 483.41 441.938 483.472C441.739 483.536 441.514 483.519 441.263 483.421C440.989 483.314 440.804 483.152 440.709 482.934C440.621 482.713 440.621 482.491 440.709 482.267C440.776 482.094 440.891 481.939 441.054 481.803C441.225 481.663 441.471 481.57 441.792 481.521C441.889 481.636 441.982 481.753 442.071 481.872C442.165 481.992 442.243 482.116 442.303 482.242C442.371 482.366 442.415 482.492 442.435 482.622Z" fill="#59BB49"/>
<path d="M441.933 479.924C441.922 479.804 441.943 479.677 441.995 479.542C442.063 479.369 442.178 479.24 442.34 479.155C442.507 479.073 442.714 479.079 442.96 479.175C443.155 479.252 443.296 479.378 443.382 479.553C443.476 479.725 443.477 479.928 443.386 480.163C443.252 480.504 442.963 480.751 442.516 480.905C442.42 480.804 442.329 480.7 442.241 480.595C442.161 480.487 442.09 480.378 442.029 480.271C441.976 480.16 441.944 480.044 441.933 479.924Z" fill="#59BB49"/>
<path d="M429 469L449 476.5L444.5 488.5L424.5 481L429 469ZM433.357 480.043C433.544 479.845 433.691 479.609 433.798 479.335C433.911 479.045 433.97 478.771 433.973 478.515C433.977 478.259 433.932 478.026 433.84 477.816C433.751 477.6 433.615 477.412 433.433 477.251C433.251 477.09 433.035 476.96 432.783 476.862C432.515 476.757 432.272 476.72 432.054 476.751C431.838 476.776 431.647 476.836 431.48 476.932C431.622 476.717 431.797 476.525 432.005 476.355C432.221 476.182 432.453 476.04 432.702 475.931C432.956 475.825 433.226 475.753 433.511 475.716C433.796 475.679 434.087 475.693 434.384 475.757L434.478 474.799C434.049 474.709 433.613 474.696 433.169 474.761C432.733 474.823 432.312 474.967 431.907 475.196C431.51 475.421 431.143 475.725 430.807 476.109C430.475 476.495 430.202 476.964 429.986 477.518C429.842 477.887 429.765 478.23 429.757 478.549C429.748 478.868 429.797 479.154 429.904 479.409C430.011 479.663 430.166 479.885 430.369 480.073C430.58 480.259 430.831 480.408 431.121 480.522C431.406 480.633 431.686 480.685 431.96 480.676C432.24 480.669 432.497 480.612 432.732 480.504C432.968 480.396 433.176 480.242 433.357 480.043ZM435.002 479.651C434.892 479.782 434.8 479.946 434.723 480.141C434.632 480.376 434.59 480.605 434.6 480.828C434.615 481.053 434.675 481.263 434.779 481.458C434.889 481.655 435.041 481.834 435.236 481.994C435.435 482.162 435.674 482.3 435.953 482.41C436.233 482.519 436.505 482.58 436.77 482.593C437.038 482.601 437.284 482.565 437.508 482.486C437.733 482.406 437.929 482.283 438.097 482.116C438.273 481.947 438.41 481.736 438.508 481.485C438.652 481.116 438.683 480.78 438.602 480.478C438.526 480.178 438.358 479.864 438.099 479.538C438.459 479.459 438.756 479.333 438.991 479.161C439.231 478.991 439.416 478.741 439.544 478.411C439.627 478.199 439.661 477.99 439.645 477.784C439.636 477.574 439.581 477.379 439.478 477.197C439.38 477.017 439.241 476.853 439.061 476.705C438.88 476.557 438.664 476.434 438.413 476.336C438.139 476.229 437.878 476.172 437.629 476.165C437.381 476.158 437.151 476.194 436.94 476.273C436.734 476.354 436.553 476.473 436.395 476.63C436.242 476.789 436.123 476.978 436.038 477.196C435.907 477.531 435.875 477.844 435.942 478.134C436.011 478.419 436.149 478.702 436.355 478.982C436.177 479.009 436.004 479.048 435.836 479.098C435.674 479.15 435.52 479.222 435.375 479.314C435.238 479.402 435.113 479.514 435.002 479.651ZM439.926 481.575C439.817 481.706 439.724 481.869 439.647 482.065C439.556 482.3 439.515 482.529 439.524 482.751C439.539 482.976 439.599 483.186 439.703 483.382C439.813 483.579 439.965 483.758 440.16 483.918C440.359 484.085 440.598 484.224 440.877 484.333C441.157 484.442 441.429 484.504 441.694 484.517C441.962 484.525 442.208 484.489 442.432 484.409C442.657 484.329 442.853 484.206 443.021 484.04C443.197 483.87 443.334 483.66 443.432 483.408C443.576 483.039 443.607 482.704 443.526 482.401C443.45 482.101 443.282 481.788 443.023 481.461C443.383 481.382 443.68 481.257 443.915 481.085C444.155 480.914 444.34 480.664 444.468 480.335C444.551 480.122 444.585 479.913 444.569 479.707C444.56 479.498 444.505 479.302 444.402 479.12C444.304 478.94 444.166 478.777 443.985 478.629C443.804 478.481 443.588 478.358 443.337 478.26C443.063 478.153 442.802 478.096 442.553 478.089C442.305 478.082 442.075 478.118 441.864 478.196C441.658 478.277 441.477 478.396 441.319 478.553C441.166 478.713 441.047 478.902 440.962 479.12C440.831 479.455 440.799 479.768 440.866 480.058C440.935 480.343 441.073 480.625 441.279 480.905C441.101 480.932 440.928 480.971 440.76 481.022C440.598 481.074 440.444 481.146 440.299 481.237C440.162 481.326 440.037 481.438 439.926 481.575Z" fill="#59BB49"/>
</svg>
