<svg width="920" height="755" viewBox="0 0 920 755" fill="none" xmlns="http://www.w3.org/2000/svg">
<path d="M427.163 490.682C427.778 490.922 427.963 491.356 427.718 491.981C427.609 492.261 427.436 492.457 427.198 492.571C426.966 492.686 426.719 492.693 426.457 492.59C426.294 492.527 426.167 492.441 426.073 492.334C425.982 492.221 425.917 492.099 425.878 491.968C425.847 491.833 425.837 491.694 425.848 491.55C425.861 491.401 425.894 491.259 425.947 491.125L425.999 490.991C426.016 490.946 426.043 490.895 426.078 490.838C426.192 490.728 426.344 490.652 426.534 490.611C426.73 490.571 426.94 490.595 427.163 490.682Z" fill="#59BB49"/>
<path d="M432.51 493.699C432.53 493.829 432.515 493.958 432.465 494.087C432.369 494.333 432.219 494.487 432.014 494.549C431.815 494.613 431.59 494.595 431.339 494.497C431.065 494.39 430.88 494.228 430.785 494.01C430.697 493.789 430.697 493.567 430.784 493.343C430.852 493.17 430.967 493.016 431.13 492.879C431.3 492.74 431.547 492.646 431.868 492.598C431.965 492.713 432.058 492.83 432.147 492.948C432.241 493.069 432.319 493.192 432.379 493.319C432.447 493.442 432.49 493.569 432.51 493.699Z" fill="#59BB49"/>
<path d="M432.009 491C431.998 490.88 432.019 490.753 432.071 490.619C432.139 490.446 432.254 490.317 432.416 490.232C432.583 490.149 432.79 490.156 433.036 490.252C433.231 490.328 433.372 490.454 433.458 490.629C433.552 490.801 433.553 491.005 433.462 491.239C433.328 491.58 433.039 491.828 432.592 491.982C432.496 491.88 432.405 491.777 432.317 491.671C432.237 491.563 432.166 491.455 432.105 491.347C432.052 491.236 432.02 491.121 432.009 491Z" fill="#59BB49"/>
<path d="M436.594 493.594C436.479 493.362 436.483 493.086 436.608 492.768C436.73 492.455 436.9 492.241 437.119 492.127C437.34 492.007 437.587 492.001 437.861 492.108C438.034 492.175 438.168 492.269 438.262 492.39C438.365 492.507 438.432 492.64 438.465 492.788C438.503 492.938 438.512 493.096 438.492 493.262C438.472 493.429 438.431 493.59 438.37 493.746C438.329 493.853 438.277 493.961 438.214 494.072C438.094 494.147 437.948 494.193 437.774 494.209C437.6 494.225 437.399 494.188 437.17 494.099C436.902 493.994 436.71 493.826 436.594 493.594Z" fill="#59BB49"/>
<path d="M424.5 481.5L444.5 489L440.5 501L420 493.5L424.5 481.5ZM428.357 493.043C428.544 492.845 428.691 492.609 428.798 492.335C428.911 492.045 428.97 491.771 428.973 491.515C428.977 491.259 428.932 491.026 428.84 490.816C428.751 490.6 428.615 490.412 428.433 490.251C428.251 490.09 428.035 489.96 427.783 489.862C427.515 489.757 427.272 489.72 427.054 489.751C426.838 489.776 426.647 489.836 426.48 489.932C426.622 489.717 426.797 489.525 427.005 489.355C427.221 489.182 427.453 489.04 427.702 488.931C427.956 488.825 428.226 488.753 428.511 488.716C428.796 488.679 429.087 488.693 429.384 488.757L429.478 487.799C429.049 487.709 428.613 487.696 428.169 487.761C427.733 487.823 427.312 487.967 426.907 488.196C426.51 488.421 426.143 488.725 425.807 489.109C425.475 489.495 425.202 489.964 424.986 490.518C424.842 490.887 424.765 491.23 424.757 491.549C424.748 491.868 424.797 492.154 424.904 492.409C425.011 492.663 425.166 492.885 425.369 493.073C425.58 493.259 425.831 493.408 426.121 493.522C426.406 493.633 426.686 493.685 426.96 493.676C427.24 493.669 427.497 493.612 427.732 493.504C427.968 493.396 428.176 493.242 428.357 493.043ZM430.002 492.651C429.892 492.782 429.8 492.946 429.723 493.141C429.632 493.376 429.59 493.605 429.6 493.828C429.615 494.053 429.675 494.263 429.779 494.458C429.889 494.655 430.041 494.834 430.236 494.994C430.435 495.162 430.674 495.3 430.953 495.41C431.233 495.519 431.505 495.58 431.77 495.593C432.038 495.601 432.284 495.565 432.508 495.486C432.733 495.406 432.929 495.283 433.097 495.116C433.273 494.947 433.41 494.736 433.508 494.485C433.652 494.116 433.683 493.78 433.602 493.478C433.526 493.178 433.358 492.864 433.099 492.538C433.459 492.459 433.756 492.333 433.991 492.161C434.231 491.991 434.416 491.741 434.544 491.411C434.627 491.199 434.661 490.99 434.645 490.784C434.636 490.574 434.581 490.379 434.478 490.197C434.38 490.017 434.241 489.853 434.061 489.705C433.88 489.557 433.664 489.434 433.413 489.336C433.139 489.229 432.878 489.172 432.629 489.165C432.381 489.158 432.151 489.194 431.94 489.273C431.734 489.354 431.553 489.473 431.395 489.63C431.242 489.789 431.123 489.978 431.038 490.196C430.907 490.531 430.875 490.844 430.942 491.134C431.011 491.419 431.149 491.702 431.355 491.982C431.177 492.009 431.004 492.048 430.836 492.098C430.674 492.15 430.52 492.222 430.375 492.314C430.238 492.402 430.113 492.514 430.002 492.651ZM435.962 491.675C435.784 491.883 435.64 492.129 435.528 492.414C435.408 492.721 435.354 493.009 435.365 493.278C435.384 493.543 435.445 493.782 435.548 493.996C435.659 494.207 435.803 494.389 435.982 494.543C436.166 494.698 436.364 494.818 436.576 494.901C436.833 495.001 437.048 495.053 437.221 495.056C437.399 495.061 437.584 495.017 437.775 494.924C437.636 495.147 437.47 495.343 437.275 495.512C437.088 495.677 436.875 495.81 436.636 495.91C436.4 496.004 436.139 496.06 435.855 496.078C435.571 496.096 435.268 496.064 434.946 495.984L434.846 496.93C435.262 497.054 435.684 497.103 436.113 497.077C436.541 497.051 436.954 496.936 437.35 496.73C437.754 496.52 438.128 496.212 438.474 495.806C438.827 495.397 439.13 494.868 439.384 494.22C439.665 493.499 439.698 492.88 439.481 492.364C439.271 491.844 438.851 491.461 438.219 491.214C437.912 491.094 437.619 491.037 437.339 491.044C437.067 491.047 436.814 491.103 436.578 491.21C436.351 491.315 436.145 491.47 435.962 491.675Z" fill="#59BB49"/>
</svg>
