<svg width="920" height="755" viewBox="0 0 920 755" fill="none" xmlns="http://www.w3.org/2000/svg">
<path d="M422.163 502.682C422.778 502.922 422.963 503.356 422.718 503.981C422.609 504.261 422.436 504.457 422.198 504.571C421.966 504.686 421.719 504.693 421.457 504.59C421.294 504.527 421.167 504.441 421.073 504.334C420.982 504.221 420.917 504.099 420.878 503.968C420.847 503.833 420.837 503.694 420.848 503.55C420.861 503.401 420.894 503.259 420.947 503.125L420.999 502.991C421.016 502.946 421.043 502.895 421.078 502.838C421.192 502.728 421.344 502.652 421.534 502.611C421.73 502.571 421.94 502.595 422.163 502.682Z" fill="#59BB49"/>
<path d="M426.67 503.67C426.555 503.438 426.559 503.163 426.683 502.844C426.806 502.531 426.976 502.318 427.195 502.203C427.415 502.083 427.663 502.077 427.937 502.184C428.11 502.252 428.244 502.346 428.338 502.467C428.441 502.584 428.508 502.716 428.54 502.864C428.578 503.014 428.588 503.173 428.568 503.339C428.548 503.505 428.507 503.666 428.446 503.823C428.405 503.929 428.353 504.037 428.29 504.148C428.17 504.224 428.024 504.27 427.85 504.286C427.676 504.301 427.475 504.265 427.246 504.175C426.978 504.07 426.786 503.902 426.67 503.67Z" fill="#59BB49"/>
<path d="M430.75 507.583C430.75 507.151 430.884 506.595 431.15 505.913C431.432 505.192 431.713 504.687 431.994 504.397C432.28 504.11 432.591 504.031 432.926 504.162C433.278 504.3 433.455 504.581 433.456 505.007C433.457 505.433 433.326 505.984 433.062 506.66C432.771 507.403 432.481 507.915 432.192 508.194C431.908 508.476 431.601 508.553 431.271 508.424C430.93 508.291 430.756 508.01 430.75 507.583Z" fill="#59BB49"/>
<path d="M420 494L440 501.5L435.5 513L415.5 505.5L420 494ZM423.357 505.043C423.544 504.845 423.691 504.609 423.798 504.335C423.911 504.045 423.97 503.771 423.973 503.515C423.977 503.259 423.932 503.026 423.84 502.816C423.751 502.6 423.615 502.412 423.433 502.251C423.251 502.09 423.035 501.96 422.783 501.862C422.515 501.757 422.272 501.72 422.054 501.751C421.838 501.776 421.647 501.836 421.48 501.932C421.622 501.717 421.797 501.525 422.005 501.355C422.221 501.182 422.453 501.04 422.702 500.931C422.956 500.825 423.226 500.753 423.511 500.716C423.796 500.679 424.087 500.693 424.384 500.757L424.478 499.799C424.049 499.709 423.613 499.696 423.169 499.761C422.733 499.823 422.312 499.967 421.907 500.196C421.51 500.421 421.143 500.725 420.807 501.109C420.475 501.495 420.202 501.964 419.986 502.518C419.842 502.887 419.765 503.23 419.757 503.549C419.748 503.868 419.797 504.154 419.904 504.409C420.011 504.663 420.166 504.885 420.369 505.073C420.58 505.259 420.831 505.408 421.121 505.522C421.406 505.633 421.686 505.685 421.96 505.676C422.24 505.669 422.497 505.612 422.732 505.504C422.968 505.396 423.176 505.242 423.357 505.043ZM426.038 501.751C425.86 501.959 425.716 502.205 425.604 502.49C425.484 502.798 425.43 503.086 425.441 503.354C425.46 503.619 425.521 503.859 425.624 504.073C425.735 504.284 425.879 504.466 426.058 504.619C426.242 504.775 426.44 504.894 426.652 504.977C426.909 505.078 427.124 505.129 427.297 505.132C427.475 505.138 427.66 505.094 427.851 505.001C427.712 505.224 427.546 505.419 427.351 505.588C427.164 505.753 426.951 505.886 426.712 505.986C426.476 506.08 426.215 506.137 425.931 506.155C425.647 506.172 425.344 506.141 425.021 506.06L424.922 507.007C425.338 507.13 425.76 507.179 426.189 507.154C426.617 507.128 427.03 507.012 427.426 506.806C427.83 506.597 428.204 506.289 428.55 505.883C428.903 505.473 429.206 504.944 429.46 504.296C429.741 503.575 429.774 502.956 429.557 502.44C429.347 501.92 428.927 501.537 428.295 501.29C427.988 501.17 427.695 501.114 427.415 501.12C427.143 501.124 426.89 501.179 426.654 501.287C426.427 501.391 426.221 501.546 426.038 501.751ZM431.483 503.405C430.936 503.765 430.462 504.459 430.061 505.487C429.676 506.471 429.545 507.293 429.668 507.952C429.792 508.607 430.204 509.07 430.902 509.343C431.562 509.601 432.166 509.547 432.715 509.181C433.269 508.818 433.748 508.119 434.152 507.085C434.558 506.046 434.692 505.216 434.554 504.595C434.419 503.969 433.999 503.518 433.295 503.243C432.635 502.986 432.031 503.04 431.483 503.405Z" fill="#59BB49"/>
</svg>
