<svg width="920" height="755" viewBox="0 0 920 755" fill="none" xmlns="http://www.w3.org/2000/svg">
<path d="M418.163 514.682C418.778 514.922 418.963 515.356 418.718 515.981C418.609 516.261 418.436 516.457 418.198 516.571C417.966 516.686 417.719 516.693 417.457 516.59C417.294 516.527 417.167 516.441 417.073 516.334C416.982 516.221 416.917 516.099 416.878 515.968C416.847 515.833 416.837 515.694 416.848 515.55C416.861 515.401 416.894 515.259 416.947 515.125L416.999 514.991C417.016 514.946 417.043 514.895 417.078 514.838C417.192 514.728 417.344 514.652 417.534 514.611C417.73 514.571 417.94 514.595 418.163 514.682Z" fill="#59BB49"/>
<path d="M422.67 515.67C422.555 515.438 422.559 515.163 422.683 514.844C422.806 514.531 422.976 514.318 423.195 514.203C423.415 514.083 423.663 514.077 423.937 514.184C424.11 514.252 424.244 514.346 424.338 514.467C424.441 514.584 424.508 514.716 424.54 514.864C424.578 515.014 424.588 515.173 424.568 515.339C424.548 515.505 424.507 515.666 424.446 515.823C424.405 515.929 424.353 516.037 424.29 516.148C424.17 516.224 424.024 516.27 423.85 516.286C423.676 516.301 423.475 516.265 423.246 516.175C422.978 516.07 422.786 515.902 422.67 515.67Z" fill="#59BB49"/>
<path d="M415.5 506L435.5 513.5L431 525.5L411 518L415.5 506ZM419.357 517.043C419.544 516.845 419.691 516.609 419.798 516.335C419.911 516.045 419.97 515.771 419.973 515.515C419.977 515.259 419.932 515.026 419.84 514.816C419.751 514.6 419.615 514.412 419.433 514.251C419.251 514.09 419.035 513.96 418.783 513.862C418.515 513.757 418.272 513.72 418.054 513.751C417.838 513.776 417.647 513.836 417.48 513.932C417.622 513.717 417.797 513.525 418.005 513.355C418.221 513.182 418.453 513.04 418.702 512.931C418.956 512.825 419.226 512.753 419.511 512.716C419.796 512.679 420.087 512.693 420.384 512.757L420.478 511.799C420.049 511.709 419.613 511.696 419.169 511.761C418.733 511.823 418.312 511.967 417.907 512.196C417.51 512.421 417.143 512.725 416.807 513.109C416.475 513.495 416.202 513.964 415.986 514.518C415.842 514.887 415.765 515.23 415.757 515.549C415.748 515.868 415.797 516.154 415.904 516.409C416.011 516.663 416.166 516.885 416.369 517.073C416.58 517.259 416.831 517.408 417.121 517.522C417.406 517.633 417.686 517.685 417.96 517.676C418.24 517.669 418.497 517.612 418.732 517.504C418.968 517.396 419.176 517.242 419.357 517.043ZM422.038 513.751C421.86 513.959 421.716 514.205 421.604 514.49C421.484 514.798 421.43 515.086 421.441 515.354C421.46 515.619 421.521 515.859 421.624 516.073C421.735 516.284 421.879 516.466 422.058 516.619C422.242 516.775 422.44 516.894 422.652 516.977C422.909 517.078 423.124 517.129 423.297 517.132C423.475 517.138 423.66 517.094 423.851 517.001C423.712 517.224 423.546 517.419 423.351 517.588C423.164 517.753 422.951 517.886 422.712 517.986C422.476 518.08 422.215 518.137 421.931 518.155C421.647 518.172 421.344 518.141 421.021 518.06L420.922 519.007C421.338 519.13 421.76 519.179 422.189 519.154C422.617 519.128 423.03 519.012 423.426 518.806C423.83 518.597 424.204 518.289 424.55 517.883C424.903 517.473 425.206 516.944 425.46 516.296C425.741 515.575 425.774 514.956 425.557 514.44C425.347 513.92 424.927 513.537 424.295 513.29C423.988 513.17 423.695 513.114 423.415 513.12C423.143 513.124 422.89 513.179 422.654 513.287C422.427 513.391 422.221 513.546 422.038 513.751ZM426.948 520.163L425.783 519.707L425.423 520.63L428.767 521.936L429.128 521.014L427.988 520.569L429.959 515.522L429.347 515.283L426.833 516.079L427.049 516.888L427.994 516.668L428.59 516.33L428.242 516.851L426.948 520.163Z" fill="#59BB49"/>
</svg>
