<svg width="920" height="755" viewBox="0 0 920 755" fill="none" xmlns="http://www.w3.org/2000/svg">
<path d="M413.163 526.682C413.778 526.922 413.963 527.356 413.718 527.981C413.609 528.261 413.436 528.457 413.198 528.571C412.966 528.686 412.719 528.693 412.457 528.59C412.294 528.527 412.167 528.441 412.073 528.334C411.982 528.221 411.917 528.099 411.878 527.968C411.847 527.833 411.837 527.694 411.848 527.55C411.861 527.401 411.894 527.259 411.947 527.125L411.999 526.991C412.016 526.946 412.043 526.895 412.078 526.838C412.192 526.728 412.344 526.652 412.534 526.611C412.73 526.571 412.94 526.595 413.163 526.682Z" fill="#59BB49"/>
<path d="M417.67 527.67C417.555 527.438 417.559 527.163 417.683 526.844C417.806 526.531 417.976 526.318 418.195 526.203C418.415 526.083 418.663 526.077 418.937 526.184C419.11 526.252 419.244 526.346 419.338 526.467C419.441 526.584 419.508 526.716 419.54 526.864C419.578 527.014 419.588 527.173 419.568 527.339C419.548 527.505 419.507 527.666 419.446 527.823C419.405 527.929 419.353 528.037 419.29 528.148C419.17 528.224 419.024 528.27 418.85 528.286C418.676 528.301 418.475 528.265 418.246 528.175C417.978 528.07 417.786 527.902 417.67 527.67Z" fill="#59BB49"/>
<path d="M410.5 518.5L431 526L425.5 538L405.5 530.5L410.5 518.5ZM414.357 529.043C414.544 528.845 414.691 528.609 414.798 528.335C414.911 528.045 414.97 527.771 414.973 527.515C414.977 527.259 414.932 527.026 414.84 526.816C414.751 526.6 414.615 526.412 414.433 526.251C414.251 526.09 414.035 525.96 413.783 525.862C413.515 525.757 413.272 525.72 413.054 525.751C412.838 525.776 412.647 525.836 412.48 525.932C412.622 525.717 412.797 525.525 413.005 525.355C413.221 525.182 413.453 525.04 413.702 524.931C413.956 524.825 414.226 524.753 414.511 524.716C414.796 524.679 415.087 524.693 415.384 524.757L415.478 523.799C415.049 523.709 414.613 523.696 414.169 523.761C413.733 523.823 413.312 523.967 412.907 524.196C412.51 524.421 412.143 524.725 411.807 525.109C411.475 525.495 411.202 525.964 410.986 526.518C410.842 526.887 410.765 527.23 410.757 527.549C410.748 527.868 410.797 528.154 410.904 528.409C411.011 528.663 411.166 528.885 411.369 529.073C411.58 529.259 411.831 529.408 412.121 529.522C412.406 529.633 412.686 529.685 412.96 529.676C413.24 529.669 413.497 529.612 413.732 529.504C413.968 529.396 414.176 529.242 414.357 529.043ZM417.038 525.751C416.86 525.959 416.716 526.205 416.604 526.49C416.484 526.798 416.43 527.086 416.441 527.354C416.46 527.619 416.521 527.859 416.624 528.073C416.735 528.284 416.879 528.466 417.058 528.619C417.242 528.775 417.44 528.894 417.652 528.977C417.909 529.078 418.124 529.129 418.297 529.132C418.475 529.138 418.66 529.094 418.851 529.001C418.712 529.224 418.546 529.419 418.351 529.588C418.164 529.753 417.951 529.886 417.712 529.986C417.476 530.08 417.215 530.137 416.931 530.155C416.647 530.172 416.344 530.141 416.021 530.06L415.922 531.007C416.338 531.13 416.76 531.179 417.189 531.154C417.617 531.128 418.03 531.012 418.426 530.806C418.83 530.597 419.204 530.289 419.55 529.883C419.903 529.473 420.206 528.944 420.46 528.296C420.741 527.575 420.774 526.956 420.557 526.44C420.347 525.92 419.927 525.537 419.295 525.29C418.988 525.17 418.695 525.114 418.415 525.12C418.143 525.124 417.89 525.179 417.654 525.287C417.427 525.391 417.221 525.546 417.038 525.751ZM424.794 530.221C425.013 529.972 425.179 529.705 425.29 529.42C425.391 529.163 425.436 528.923 425.426 528.7C425.419 528.472 425.368 528.265 425.273 528.079C425.178 527.894 425.043 527.729 424.868 527.583C424.693 527.437 424.485 527.318 424.245 527.224C423.87 527.077 423.521 527.006 423.198 527.008C422.883 527.007 422.581 527.054 422.294 527.148L422.428 528.089C422.603 528.022 422.796 527.988 423.009 527.987C423.23 527.983 423.429 528.016 423.608 528.086C423.893 528.198 424.07 528.354 424.14 528.555C424.217 528.753 424.211 528.966 424.122 529.195C424.048 529.385 423.93 529.571 423.769 529.753C423.613 529.937 423.426 530.118 423.208 530.297C422.992 530.471 422.76 530.637 422.51 530.798C422.261 530.958 422.008 531.11 421.752 531.255C421.503 531.396 421.258 531.529 421.016 531.654C420.777 531.773 420.562 531.876 420.374 531.963L420.154 532.525L423.684 533.903L424.044 532.981L422.434 532.353L421.785 532.234L421.801 532.192L422.38 532.022C422.649 531.876 422.929 531.712 423.22 531.529C423.518 531.343 423.8 531.14 424.066 530.922C424.337 530.706 424.58 530.472 424.794 530.221Z" fill="#59BB49"/>
</svg>
