<svg width="920" height="755" viewBox="0 0 920 755" fill="none" xmlns="http://www.w3.org/2000/svg">
<path d="M407.163 540.682C407.778 540.922 407.963 541.356 407.718 541.981C407.609 542.261 407.436 542.457 407.198 542.571C406.966 542.686 406.719 542.693 406.457 542.59C406.294 542.527 406.167 542.441 406.073 542.334C405.982 542.221 405.917 542.099 405.878 541.968C405.847 541.833 405.837 541.694 405.848 541.55C405.861 541.401 405.894 541.259 405.947 541.125L405.999 540.991C406.016 540.946 406.043 540.895 406.078 540.838C406.192 540.728 406.344 540.652 406.534 540.611C406.73 540.571 406.94 540.595 407.163 540.682Z" fill="#59BB49"/>
<path d="M411.67 541.67C411.555 541.438 411.559 541.163 411.683 540.844C411.806 540.531 411.976 540.318 412.195 540.203C412.415 540.083 412.663 540.077 412.937 540.184C413.11 540.252 413.244 540.346 413.338 540.467C413.441 540.584 413.508 540.716 413.54 540.864C413.578 541.014 413.588 541.173 413.568 541.339C413.548 541.505 413.507 541.666 413.446 541.823C413.405 541.929 413.353 542.037 413.29 542.148C413.17 542.224 413.024 542.27 412.85 542.286C412.676 542.301 412.475 542.265 412.246 542.175C411.978 542.07 411.786 541.902 411.67 541.67Z" fill="#59BB49"/>
<path d="M405.5 531L425.5 538.5L420 552L400.5 544.5L405.5 531ZM408.357 543.043C408.544 542.845 408.691 542.609 408.798 542.335C408.911 542.045 408.97 541.771 408.973 541.515C408.977 541.259 408.932 541.026 408.84 540.816C408.751 540.6 408.615 540.412 408.433 540.251C408.251 540.09 408.035 539.96 407.783 539.862C407.515 539.757 407.272 539.72 407.054 539.751C406.838 539.776 406.647 539.836 406.48 539.932C406.622 539.717 406.797 539.525 407.005 539.355C407.221 539.182 407.453 539.04 407.702 538.931C407.956 538.825 408.226 538.753 408.511 538.716C408.796 538.679 409.087 538.693 409.384 538.757L409.478 537.799C409.049 537.709 408.613 537.696 408.169 537.761C407.733 537.823 407.312 537.967 406.907 538.196C406.51 538.421 406.143 538.725 405.807 539.109C405.475 539.495 405.202 539.964 404.986 540.518C404.842 540.887 404.765 541.23 404.757 541.549C404.748 541.868 404.797 542.154 404.904 542.409C405.011 542.663 405.166 542.885 405.369 543.073C405.58 543.259 405.831 543.408 406.121 543.522C406.406 543.633 406.686 543.685 406.96 543.676C407.24 543.669 407.497 543.612 407.732 543.504C407.968 543.396 408.176 543.242 408.357 543.043ZM411.038 539.751C410.86 539.959 410.716 540.205 410.604 540.49C410.484 540.798 410.43 541.086 410.441 541.354C410.46 541.619 410.521 541.859 410.624 542.073C410.735 542.284 410.879 542.466 411.058 542.619C411.242 542.775 411.44 542.894 411.652 542.977C411.909 543.078 412.124 543.129 412.297 543.132C412.475 543.138 412.66 543.094 412.851 543.001C412.712 543.224 412.546 543.419 412.351 543.588C412.164 543.753 411.951 543.886 411.712 543.986C411.476 544.08 411.215 544.137 410.931 544.155C410.647 544.172 410.344 544.141 410.021 544.06L409.922 545.007C410.338 545.13 410.76 545.179 411.189 545.154C411.617 545.128 412.03 545.012 412.426 544.806C412.83 544.597 413.204 544.289 413.55 543.883C413.903 543.473 414.206 542.944 414.46 542.296C414.741 541.575 414.774 540.956 414.557 540.44C414.347 539.92 413.927 539.537 413.295 539.29C412.988 539.17 412.695 539.114 412.415 539.12C412.143 539.124 411.89 539.179 411.654 539.287C411.427 539.391 411.221 539.546 411.038 539.751ZM416.807 546.314C416.556 546.429 416.257 546.419 415.911 546.283C415.693 546.198 415.503 546.098 415.342 545.984C415.186 545.871 415.049 545.75 414.933 545.621L414.285 546.412C414.415 546.559 414.602 546.706 414.847 546.853C415.092 547.001 415.338 547.122 415.584 547.218C415.88 547.334 416.172 547.403 416.46 547.425C416.747 547.448 417.018 547.415 417.271 547.327C417.53 547.241 417.76 547.099 417.96 546.9C418.165 546.703 418.332 546.44 418.461 546.111C418.564 545.848 418.615 545.601 418.616 545.369C418.616 545.137 418.575 544.928 418.494 544.741C418.42 544.552 418.308 544.385 418.157 544.243C418.012 544.102 417.845 543.986 417.656 543.893L417.284 543.805L417.301 543.763L417.758 543.681L419.559 542.558L419.792 541.963L416.589 540.712L416.229 541.634L417.637 542.185L418.329 542.368L417.704 542.558L416.149 543.545L415.923 544.124L416.527 544.36C416.935 544.519 417.204 544.711 417.335 544.936C417.466 545.161 417.47 545.433 417.345 545.752C417.243 546.015 417.063 546.202 416.807 546.314Z" fill="#59BB49"/>
</svg>
