<svg width="920" height="755" viewBox="0 0 920 755" fill="none" xmlns="http://www.w3.org/2000/svg">
<path d="M402.163 553.682C402.778 553.922 402.963 554.356 402.718 554.981C402.609 555.261 402.436 555.457 402.198 555.571C401.966 555.686 401.719 555.693 401.457 555.59C401.294 555.527 401.167 555.441 401.073 555.334C400.982 555.221 400.917 555.099 400.878 554.968C400.847 554.833 400.837 554.694 400.848 554.55C400.861 554.401 400.894 554.259 400.947 554.125L400.999 553.991C401.016 553.946 401.043 553.895 401.078 553.838C401.192 553.728 401.344 553.652 401.534 553.611C401.73 553.571 401.94 553.595 402.163 553.682Z" fill="#59BB49"/>
<path d="M406.67 554.67C406.555 554.438 406.559 554.163 406.683 553.844C406.806 553.531 406.976 553.318 407.195 553.203C407.415 553.083 407.663 553.077 407.937 553.184C408.11 553.252 408.244 553.346 408.338 553.467C408.441 553.584 408.508 553.716 408.54 553.864C408.578 554.014 408.588 554.173 408.568 554.339C408.548 554.505 408.507 554.666 408.446 554.823C408.405 554.929 408.353 555.037 408.29 555.148C408.17 555.224 408.024 555.27 407.85 555.286C407.676 555.301 407.475 555.265 407.246 555.175C406.978 555.07 406.786 554.902 406.67 554.67Z" fill="#59BB49"/>
<path d="M413.106 555.889L412.755 556.564L412.254 557.847L411.257 557.457L410.694 557.315L411.238 557.16L412.552 556.369L413.072 555.876L413.106 555.889Z" fill="#59BB49"/>
<path d="M400.5 545L420 552.5L414 566.5L394.5 559L400.5 545ZM403.357 556.043C403.544 555.845 403.691 555.609 403.798 555.335C403.911 555.045 403.97 554.771 403.973 554.515C403.977 554.259 403.932 554.026 403.84 553.816C403.751 553.6 403.615 553.412 403.433 553.251C403.251 553.09 403.035 552.96 402.783 552.862C402.515 552.757 402.272 552.72 402.054 552.751C401.838 552.776 401.647 552.836 401.48 552.932C401.622 552.717 401.797 552.525 402.005 552.355C402.221 552.182 402.453 552.04 402.702 551.931C402.956 551.825 403.226 551.753 403.511 551.716C403.796 551.679 404.087 551.693 404.384 551.757L404.478 550.799C404.049 550.709 403.613 550.696 403.169 550.761C402.733 550.823 402.312 550.967 401.907 551.196C401.51 551.421 401.143 551.725 400.807 552.109C400.475 552.495 400.202 552.964 399.986 553.518C399.842 553.887 399.765 554.23 399.757 554.549C399.748 554.868 399.797 555.154 399.904 555.409C400.011 555.663 400.166 555.885 400.369 556.073C400.58 556.259 400.831 556.408 401.121 556.522C401.406 556.633 401.686 556.685 401.96 556.676C402.24 556.669 402.497 556.612 402.732 556.504C402.968 556.396 403.176 556.242 403.357 556.043ZM406.038 552.751C405.86 552.959 405.716 553.205 405.604 553.49C405.484 553.798 405.43 554.086 405.441 554.354C405.46 554.619 405.521 554.859 405.624 555.073C405.735 555.284 405.879 555.466 406.058 555.619C406.242 555.775 406.44 555.894 406.652 555.977C406.909 556.078 407.124 556.129 407.297 556.132C407.475 556.138 407.66 556.094 407.851 556.001C407.712 556.224 407.546 556.419 407.351 556.588C407.164 556.753 406.951 556.886 406.712 556.986C406.476 557.08 406.215 557.137 405.931 557.155C405.647 557.172 405.344 557.141 405.021 557.06L404.922 558.007C405.338 558.13 405.76 558.179 406.189 558.154C406.617 558.128 407.03 558.012 407.426 557.806C407.83 557.597 408.204 557.289 408.55 556.883C408.903 556.473 409.206 555.944 409.46 555.296C409.741 554.575 409.774 553.956 409.557 553.44C409.347 552.92 408.927 552.537 408.295 552.29C407.988 552.17 407.695 552.114 407.415 552.12C407.143 552.124 406.89 552.179 406.654 552.287C406.427 552.391 406.221 552.546 406.038 552.751ZM412.928 559.115L413.85 559.475L414.191 558.603L413.269 558.243L414.598 554.84L413.701 554.489L409.616 557.106L409.374 557.726L411.914 558.719L411.275 560.353L412.29 560.75L412.928 559.115Z" fill="#59BB49"/>
</svg>
