<svg width="920" height="755" viewBox="0 0 920 755" fill="none" xmlns="http://www.w3.org/2000/svg">
<path d="M390.135 564.706C390.752 564.94 390.941 565.371 390.703 566C390.597 566.28 390.426 566.478 390.19 566.594C389.959 566.712 389.712 566.721 389.448 566.621C389.285 566.56 389.157 566.476 389.062 566.369C388.97 566.257 388.903 566.136 388.863 566.005C388.831 565.871 388.819 565.732 388.829 565.588C388.84 565.438 388.872 565.296 388.923 565.162L388.974 565.027C388.991 564.982 389.017 564.931 389.051 564.873C389.164 564.762 389.315 564.685 389.505 564.641C389.7 564.6 389.91 564.621 390.135 564.706Z" fill="#59BB49"/>
<path d="M394.652 565.647C394.534 565.416 394.535 565.141 394.656 564.821C394.775 564.507 394.944 564.292 395.161 564.175C395.38 564.053 395.628 564.044 395.903 564.148C396.077 564.214 396.211 564.307 396.307 564.426C396.411 564.542 396.48 564.674 396.513 564.822C396.553 564.972 396.564 565.13 396.546 565.296C396.528 565.462 396.489 565.624 396.429 565.781C396.389 565.888 396.338 565.997 396.277 566.108C396.158 566.185 396.011 566.232 395.838 566.25C395.664 566.268 395.463 566.233 395.232 566.146C394.963 566.044 394.77 565.878 394.652 565.647Z" fill="#59BB49"/>
<path d="M381.5 554.5L414 567L408.5 579L379.5 567.5L381.5 554.5ZM391.353 567.054C391.538 566.854 391.682 566.617 391.786 566.342C391.897 566.051 391.952 565.776 391.953 565.52C391.954 565.264 391.907 565.031 391.813 564.822C391.721 564.608 391.583 564.421 391.4 564.262C391.217 564.102 390.999 563.975 390.746 563.879C390.477 563.777 390.233 563.743 390.015 563.776C389.8 563.803 389.609 563.866 389.444 563.964C389.584 563.747 389.757 563.553 389.963 563.381C390.177 563.205 390.408 563.061 390.655 562.95C390.908 562.84 391.177 562.766 391.462 562.726C391.746 562.686 392.037 562.697 392.335 562.758L392.419 561.799C391.99 561.713 391.553 561.705 391.11 561.775C390.674 561.841 390.255 561.99 389.853 562.223C389.458 562.452 389.094 562.76 388.762 563.147C388.435 563.536 388.166 564.009 387.956 564.564C387.815 564.935 387.743 565.279 387.737 565.598C387.732 565.917 387.784 566.203 387.894 566.456C388.003 566.709 388.16 566.929 388.365 567.116C388.578 567.299 388.831 567.446 389.122 567.557C389.409 567.665 389.689 567.713 389.963 567.702C390.242 567.692 390.499 567.632 390.733 567.522C390.967 567.412 391.174 567.256 391.353 567.054ZM393.999 563.735C393.824 563.945 393.682 564.192 393.574 564.478C393.457 564.787 393.405 565.076 393.419 565.344C393.441 565.609 393.504 565.848 393.61 566.061C393.723 566.27 393.869 566.451 394.049 566.603C394.235 566.756 394.434 566.873 394.647 566.954C394.905 567.052 395.121 567.101 395.294 567.103C395.472 567.106 395.656 567.06 395.846 566.965C395.71 567.19 395.545 567.387 395.352 567.558C395.167 567.725 394.956 567.86 394.718 567.963C394.482 568.059 394.223 568.118 393.939 568.139C393.655 568.16 393.351 568.132 393.028 568.054L392.938 569.002C393.355 569.121 393.778 569.166 394.206 569.135C394.635 569.105 395.046 568.985 395.44 568.775C395.842 568.561 396.213 568.25 396.554 567.84C396.903 567.427 397.201 566.895 397.447 566.244C397.722 565.52 397.747 564.901 397.525 564.387C397.31 563.869 396.886 563.491 396.252 563.25C395.943 563.134 395.649 563.08 395.37 563.09C395.098 563.096 394.845 563.154 394.611 563.264C394.384 563.371 394.181 563.528 393.999 563.735ZM399.731 570.159C399.467 570.265 399.149 570.247 398.779 570.107C398.56 570.024 398.378 569.939 398.231 569.851C398.092 569.76 397.969 569.662 397.861 569.557L397.222 570.355C397.352 570.487 397.521 570.615 397.731 570.74C397.944 570.872 398.177 570.985 398.429 571.081C398.749 571.202 399.06 571.272 399.361 571.289C399.662 571.307 399.943 571.269 400.203 571.175C400.469 571.083 400.706 570.933 400.913 570.723C401.121 570.513 401.288 570.242 401.413 569.911C401.519 569.63 401.573 569.362 401.574 569.106C401.577 568.844 401.529 568.604 401.432 568.388C401.336 568.166 401.193 567.967 401.003 567.792C400.818 567.62 400.59 567.476 400.32 567.36L399.962 567.263L400.392 566.127L402.345 566.867L402.734 565.84L399.838 564.743L398.672 567.824L399.346 568.05C399.773 568.212 400.071 568.415 400.242 568.659C400.412 568.903 400.434 569.194 400.306 569.53C400.187 569.844 399.996 570.054 399.731 570.159Z" fill="#59BB49"/>
</svg>
