<svg width="920" height="755" viewBox="0 0 920 755" fill="none" xmlns="http://www.w3.org/2000/svg">
<path d="M386.125 577.677C386.742 577.91 386.932 578.341 386.694 578.97C386.588 579.25 386.416 579.449 386.18 579.564C385.949 579.682 385.702 579.691 385.438 579.591C385.276 579.53 385.147 579.446 385.053 579.34C384.96 579.228 384.894 579.106 384.854 578.975C384.821 578.841 384.81 578.702 384.819 578.558C384.831 578.409 384.862 578.267 384.913 578.132L384.964 577.997C384.981 577.952 385.007 577.901 385.042 577.844C385.154 577.732 385.306 577.655 385.495 577.611C385.691 577.57 385.901 577.592 386.125 577.677Z" fill="#59BB49"/>
<path d="M390.642 578.617C390.524 578.386 390.526 578.111 390.647 577.791C390.766 577.477 390.934 577.262 391.151 577.145C391.371 577.023 391.618 577.014 391.893 577.118C392.067 577.184 392.202 577.277 392.298 577.396C392.401 577.513 392.47 577.645 392.504 577.792C392.543 577.942 392.554 578.1 392.536 578.266C392.518 578.433 392.479 578.594 392.42 578.751C392.379 578.858 392.328 578.967 392.267 579.079C392.148 579.155 392.002 579.203 391.828 579.22C391.655 579.238 391.453 579.203 391.223 579.116C390.954 579.014 390.76 578.848 390.642 578.617Z" fill="#59BB49"/>
<path d="M396.013 581.421C396.63 581.655 396.82 582.086 396.582 582.714C396.475 582.995 396.304 583.193 396.068 583.309C395.837 583.427 395.59 583.436 395.326 583.336C395.163 583.274 395.035 583.19 394.94 583.084C394.848 582.972 394.782 582.851 394.741 582.72C394.709 582.586 394.697 582.446 394.707 582.303C394.719 582.153 394.75 582.011 394.801 581.876L394.852 581.742C394.869 581.697 394.895 581.646 394.929 581.588C395.042 581.477 395.193 581.399 395.383 581.356C395.578 581.314 395.788 581.336 396.013 581.421Z" fill="#59BB49"/>
<path d="M379.5 568L408.5 579.5L403.5 591L378 581L379.5 568ZM387.344 580.024C387.528 579.825 387.673 579.587 387.777 579.312C387.887 579.021 387.943 578.747 387.944 578.49C387.944 578.234 387.898 578.001 387.804 577.793C387.712 577.578 387.574 577.391 387.39 577.232C387.207 577.073 386.989 576.945 386.737 576.85C386.467 576.748 386.224 576.713 386.006 576.746C385.79 576.773 385.6 576.836 385.434 576.934C385.574 576.717 385.747 576.523 385.953 576.351C386.167 576.175 386.398 576.032 386.646 575.92C386.899 575.811 387.168 575.736 387.452 575.696C387.737 575.656 388.028 575.667 388.325 575.729L388.41 574.769C387.98 574.684 387.544 574.675 387.1 574.745C386.665 574.811 386.246 574.96 385.843 575.193C385.449 575.422 385.085 575.73 384.752 576.117C384.425 576.507 384.156 576.979 383.946 577.535C383.806 577.905 383.733 578.25 383.728 578.568C383.723 578.887 383.775 579.173 383.884 579.426C383.994 579.679 384.151 579.899 384.356 580.086C384.569 580.269 384.821 580.416 385.113 580.527C385.399 580.635 385.679 580.684 385.953 580.672C386.233 580.662 386.489 580.602 386.724 580.492C386.958 580.382 387.165 580.226 387.344 580.024ZM389.99 576.705C389.814 576.915 389.672 577.163 389.564 577.449C389.447 577.757 389.396 578.046 389.41 578.314C389.431 578.579 389.495 578.818 389.6 579.031C389.713 579.241 389.86 579.421 390.04 579.573C390.225 579.726 390.425 579.844 390.638 579.924C390.896 580.022 391.111 580.072 391.284 580.073C391.462 580.076 391.647 580.031 391.837 579.936C391.7 580.16 391.536 580.357 391.343 580.528C391.157 580.695 390.946 580.83 390.708 580.933C390.473 581.03 390.213 581.088 389.929 581.109C389.646 581.13 389.342 581.102 389.018 581.024L388.929 581.972C389.346 582.091 389.768 582.136 390.197 582.106C390.625 582.075 391.036 581.955 391.43 581.745C391.832 581.532 392.204 581.22 392.545 580.81C392.894 580.397 393.191 579.865 393.438 579.214C393.712 578.49 393.738 577.871 393.516 577.357C393.301 576.84 392.877 576.461 392.243 576.221C391.934 576.104 391.64 576.05 391.36 576.06C391.089 576.066 390.836 576.124 390.601 576.234C390.375 576.341 390.171 576.498 389.99 576.705ZM397.231 583.769C397.416 583.569 397.56 583.332 397.664 583.057C397.775 582.765 397.83 582.491 397.831 582.235C397.832 581.978 397.785 581.746 397.691 581.537C397.599 581.322 397.462 581.136 397.278 580.976C397.095 580.817 396.877 580.689 396.624 580.594C396.355 580.492 396.111 580.457 395.893 580.49C395.678 580.518 395.487 580.58 395.322 580.678C395.462 580.462 395.635 580.267 395.841 580.095C396.055 579.92 396.286 579.776 396.533 579.664C396.787 579.555 397.055 579.48 397.34 579.441C397.625 579.401 397.916 579.412 398.213 579.473L398.297 578.514C397.868 578.428 397.431 578.42 396.988 578.489C396.552 578.555 396.133 578.705 395.731 578.937C395.336 579.166 394.973 579.474 394.64 579.862C394.313 580.251 394.044 580.724 393.834 581.279C393.693 581.649 393.621 581.994 393.615 582.313C393.61 582.632 393.662 582.918 393.772 583.171C393.881 583.424 394.038 583.644 394.244 583.831C394.457 584.014 394.709 584.161 395.001 584.271C395.287 584.38 395.567 584.428 395.841 584.416C396.12 584.406 396.377 584.347 396.611 584.236C396.846 584.126 397.052 583.97 397.231 583.769Z" fill="#59BB49"/>
</svg>
