<svg width="920" height="755" viewBox="0 0 920 755" fill="none" xmlns="http://www.w3.org/2000/svg">
<path d="M383.125 590.677C383.742 590.91 383.932 591.341 383.694 591.97C383.588 592.25 383.416 592.449 383.18 592.564C382.949 592.682 382.702 592.691 382.438 592.591C382.276 592.53 382.147 592.446 382.053 592.34C381.96 592.228 381.894 592.106 381.854 591.975C381.821 591.841 381.81 591.702 381.819 591.558C381.831 591.409 381.862 591.267 381.913 591.132L381.964 590.997C381.981 590.952 382.007 590.901 382.042 590.844C382.154 590.732 382.306 590.655 382.495 590.611C382.691 590.57 382.901 590.592 383.125 590.677Z" fill="#59BB49"/>
<path d="M387.642 591.617C387.524 591.386 387.526 591.111 387.647 590.791C387.766 590.477 387.934 590.262 388.151 590.145C388.371 590.023 388.618 590.014 388.893 590.118C389.067 590.184 389.202 590.277 389.298 590.396C389.401 590.513 389.47 590.645 389.504 590.792C389.543 590.942 389.554 591.1 389.536 591.266C389.518 591.433 389.479 591.594 389.42 591.751C389.379 591.858 389.328 591.967 389.267 592.079C389.148 592.155 389.002 592.203 388.828 592.22C388.655 592.238 388.453 592.203 388.223 592.116C387.954 592.014 387.76 591.848 387.642 591.617Z" fill="#59BB49"/>
<path d="M378 581.5L403.5 591.5L398.5 603L376 594.5L378 581.5ZM384.344 593.024C384.528 592.825 384.673 592.587 384.777 592.312C384.887 592.021 384.943 591.747 384.944 591.49C384.944 591.234 384.898 591.001 384.804 590.793C384.712 590.578 384.574 590.391 384.39 590.232C384.207 590.073 383.989 589.945 383.737 589.85C383.467 589.748 383.224 589.713 383.006 589.746C382.79 589.773 382.6 589.836 382.434 589.934C382.574 589.717 382.747 589.523 382.953 589.351C383.167 589.175 383.398 589.032 383.646 588.92C383.899 588.811 384.168 588.736 384.452 588.696C384.737 588.656 385.028 588.667 385.325 588.729L385.41 587.769C384.98 587.684 384.544 587.675 384.1 587.745C383.665 587.811 383.246 587.96 382.843 588.193C382.449 588.422 382.085 588.73 381.752 589.117C381.425 589.507 381.156 589.979 380.946 590.535C380.806 590.905 380.733 591.25 380.728 591.568C380.723 591.887 380.775 592.173 380.884 592.426C380.994 592.679 381.151 592.899 381.356 593.086C381.569 593.269 381.821 593.416 382.113 593.527C382.399 593.635 382.679 593.684 382.953 593.672C383.233 593.662 383.489 593.602 383.724 593.492C383.958 593.382 384.165 593.226 384.344 593.024ZM386.99 589.705C386.814 589.915 386.672 590.163 386.564 590.449C386.447 590.757 386.396 591.046 386.41 591.314C386.431 591.579 386.495 591.818 386.6 592.031C386.713 592.241 386.86 592.421 387.04 592.573C387.225 592.726 387.425 592.844 387.638 592.924C387.896 593.022 388.111 593.072 388.284 593.073C388.462 593.076 388.647 593.031 388.837 592.936C388.7 593.16 388.536 593.357 388.343 593.528C388.157 593.695 387.946 593.83 387.708 593.933C387.473 594.03 387.213 594.088 386.929 594.109C386.646 594.13 386.342 594.102 386.018 594.024L385.929 594.972C386.346 595.091 386.768 595.136 387.197 595.106C387.625 595.075 388.036 594.955 388.43 594.745C388.832 594.532 389.204 594.22 389.545 593.81C389.894 593.397 390.191 592.865 390.438 592.214C390.712 591.49 390.738 590.871 390.516 590.357C390.301 589.84 389.877 589.461 389.243 589.221C388.934 589.104 388.64 589.05 388.36 589.06C388.089 589.066 387.836 589.124 387.601 589.234C387.375 589.341 387.171 589.498 386.99 589.705ZM394.117 592.751L390.471 596.557L391.54 596.962L396.007 592.283L396.128 591.963L392.332 590.525L391.943 591.552L394.106 592.371L394.643 592.478L394.117 592.751Z" fill="#59BB49"/>
</svg>
