<svg width="920" height="755" viewBox="0 0 920 755" fill="none" xmlns="http://www.w3.org/2000/svg">
<path d="M380.125 603.677C380.742 603.91 380.932 604.341 380.694 604.97C380.588 605.25 380.416 605.449 380.18 605.564C379.949 605.682 379.702 605.691 379.438 605.591C379.276 605.53 379.147 605.446 379.053 605.34C378.96 605.228 378.894 605.106 378.854 604.975C378.821 604.841 378.81 604.702 378.819 604.558C378.831 604.409 378.862 604.267 378.913 604.132L378.964 603.997C378.981 603.952 379.007 603.901 379.042 603.844C379.154 603.732 379.306 603.655 379.495 603.611C379.691 603.57 379.901 603.592 380.125 603.677Z" fill="#59BB49"/>
<path d="M384.642 604.617C384.524 604.386 384.526 604.111 384.647 603.791C384.766 603.477 384.934 603.262 385.151 603.145C385.371 603.023 385.618 603.014 385.893 603.118C386.067 603.184 386.202 603.277 386.298 603.396C386.401 603.513 386.47 603.645 386.504 603.792C386.543 603.942 386.554 604.1 386.536 604.266C386.518 604.433 386.479 604.594 386.42 604.751C386.379 604.858 386.328 604.967 386.267 605.079C386.148 605.155 386.002 605.203 385.828 605.22C385.655 605.238 385.453 605.203 385.223 605.116C384.954 605.014 384.76 604.848 384.642 604.617Z" fill="#59BB49"/>
<path d="M390.447 608.509C390.469 608.639 390.455 608.769 390.406 608.898C390.313 609.145 390.164 609.3 389.96 609.364C389.762 609.43 389.536 609.415 389.284 609.32C389.009 609.216 388.823 609.055 388.725 608.839C388.635 608.619 388.633 608.396 388.718 608.172C388.784 607.998 388.897 607.842 389.058 607.704C389.227 607.563 389.472 607.467 389.794 607.415C389.892 607.529 389.986 607.645 390.076 607.762C390.172 607.882 390.25 608.005 390.312 608.131C390.381 608.253 390.426 608.379 390.447 608.509Z" fill="#59BB49"/>
<path d="M389.918 605.816C389.906 605.696 389.925 605.569 389.976 605.434C390.042 605.26 390.155 605.13 390.316 605.043C390.483 604.959 390.69 604.963 390.937 605.057C391.133 605.131 391.275 605.256 391.363 605.43C391.459 605.601 391.462 605.804 391.373 606.04C391.243 606.382 390.956 606.633 390.511 606.792C390.414 606.691 390.322 606.588 390.233 606.484C390.152 606.376 390.08 606.269 390.018 606.162C389.963 606.052 389.93 605.936 389.918 605.816Z" fill="#59BB49"/>
<path d="M375.5 595L398.5 603.5L393.5 615.5L373.5 607.5L375.5 595ZM381.344 606.024C381.528 605.825 381.673 605.587 381.777 605.312C381.887 605.021 381.943 604.747 381.944 604.49C381.944 604.234 381.898 604.001 381.804 603.793C381.712 603.578 381.574 603.391 381.39 603.232C381.207 603.073 380.989 602.945 380.737 602.85C380.467 602.748 380.224 602.713 380.006 602.746C379.79 602.773 379.6 602.836 379.434 602.934C379.574 602.717 379.747 602.523 379.953 602.351C380.167 602.175 380.398 602.032 380.646 601.92C380.899 601.811 381.168 601.736 381.452 601.696C381.737 601.656 382.028 601.667 382.325 601.729L382.41 600.769C381.98 600.684 381.544 600.675 381.1 600.745C380.665 600.811 380.246 600.96 379.843 601.193C379.449 601.422 379.085 601.73 378.752 602.117C378.425 602.507 378.156 602.979 377.946 603.535C377.806 603.905 377.733 604.25 377.728 604.568C377.723 604.887 377.775 605.173 377.884 605.426C377.994 605.679 378.151 605.899 378.356 606.086C378.569 606.269 378.821 606.416 379.113 606.527C379.399 606.635 379.679 606.684 379.953 606.672C380.233 606.662 380.489 606.602 380.724 606.492C380.958 606.382 381.165 606.226 381.344 606.024ZM383.99 602.705C383.814 602.915 383.672 603.163 383.564 603.449C383.447 603.757 383.396 604.046 383.41 604.314C383.431 604.579 383.495 604.818 383.6 605.031C383.713 605.241 383.86 605.421 384.04 605.573C384.225 605.726 384.425 605.844 384.638 605.924C384.896 606.022 385.111 606.072 385.284 606.073C385.462 606.076 385.647 606.031 385.837 605.936C385.7 606.16 385.536 606.357 385.343 606.528C385.157 606.695 384.946 606.83 384.708 606.933C384.473 607.03 384.213 607.088 383.929 607.109C383.646 607.13 383.342 607.102 383.018 607.024L382.929 607.972C383.346 608.091 383.768 608.136 384.197 608.106C384.625 608.075 385.036 607.955 385.43 607.745C385.832 607.532 386.204 607.22 386.545 606.81C386.894 606.397 387.191 605.865 387.438 605.214C387.712 604.49 387.738 603.871 387.516 603.357C387.301 602.84 386.877 602.461 386.243 602.221C385.934 602.104 385.64 602.05 385.36 602.06C385.089 602.066 384.836 602.124 384.601 602.234C384.375 602.341 384.171 602.498 383.99 602.705ZM387.928 607.488C387.82 607.62 387.729 607.785 387.654 607.981C387.565 608.217 387.527 608.446 387.538 608.669C387.556 608.893 387.618 609.103 387.724 609.297C387.836 609.493 387.99 609.67 388.187 609.828C388.387 609.994 388.627 610.13 388.908 610.236C389.189 610.342 389.462 610.401 389.727 610.412C389.995 610.417 390.24 610.378 390.464 610.296C390.687 610.214 390.882 610.089 391.048 609.921C391.222 609.749 391.357 609.537 391.453 609.285C391.593 608.914 391.621 608.578 391.536 608.277C391.457 607.978 391.286 607.666 391.024 607.342C391.383 607.26 391.678 607.131 391.911 606.956C392.15 606.783 392.332 606.532 392.457 606.201C392.538 605.987 392.569 605.778 392.551 605.572C392.54 605.363 392.483 605.168 392.378 604.987C392.279 604.808 392.138 604.646 391.956 604.5C391.774 604.354 391.557 604.233 391.304 604.137C391.029 604.033 390.767 603.979 390.519 603.975C390.27 603.971 390.041 604.009 389.831 604.09C389.626 604.172 389.446 604.293 389.289 604.452C389.138 604.613 389.021 604.803 388.939 605.022C388.811 605.359 388.782 605.672 388.852 605.961C388.924 606.245 389.065 606.526 389.274 606.804C389.096 606.833 388.924 606.874 388.757 606.926C388.595 606.98 388.442 607.054 388.298 607.147C388.161 607.236 388.038 607.35 387.928 607.488Z" fill="#59BB49"/>
</svg>
