<svg width="920" height="755" viewBox="0 0 920 755" fill="none" xmlns="http://www.w3.org/2000/svg">
<path d="M375.125 617.677C375.742 617.91 375.932 618.341 375.694 618.97C375.588 619.25 375.416 619.449 375.18 619.564C374.949 619.682 374.702 619.691 374.438 619.591C374.276 619.53 374.147 619.446 374.053 619.34C373.96 619.228 373.894 619.106 373.854 618.975C373.821 618.841 373.81 618.702 373.819 618.558C373.831 618.409 373.862 618.267 373.913 618.132L373.964 617.997C373.981 617.952 374.007 617.901 374.042 617.844C374.154 617.732 374.306 617.655 374.495 617.611C374.691 617.57 374.901 617.592 375.125 617.677Z" fill="#59BB49"/>
<path d="M379.642 618.617C379.524 618.386 379.526 618.111 379.647 617.791C379.766 617.477 379.934 617.262 380.151 617.145C380.371 617.023 380.618 617.014 380.893 617.118C381.067 617.184 381.202 617.277 381.298 617.396C381.401 617.513 381.47 617.645 381.504 617.792C381.543 617.942 381.554 618.1 381.536 618.266C381.518 618.433 381.479 618.594 381.42 618.751C381.379 618.858 381.328 618.967 381.267 619.079C381.148 619.155 381.002 619.203 380.828 619.22C380.655 619.238 380.453 619.203 380.223 619.116C379.954 619.014 379.76 618.848 379.642 618.617Z" fill="#59BB49"/>
<path d="M384.586 620.489C384.468 620.259 384.47 619.983 384.591 619.664C384.71 619.349 384.878 619.134 385.095 619.017C385.315 618.895 385.562 618.886 385.837 618.99C386.011 619.056 386.146 619.149 386.242 619.269C386.345 619.385 386.414 619.517 386.448 619.664C386.487 619.814 386.498 619.972 386.48 620.138C386.462 620.305 386.423 620.467 386.364 620.624C386.323 620.73 386.272 620.839 386.211 620.951C386.092 621.028 385.946 621.075 385.772 621.093C385.599 621.11 385.397 621.076 385.167 620.988C384.897 620.886 384.704 620.72 384.586 620.489Z" fill="#59BB49"/>
<path d="M373 608L393 616L388 629L370 622L373 608ZM376.344 620.024C376.528 619.825 376.673 619.587 376.777 619.312C376.887 619.021 376.943 618.747 376.944 618.49C376.944 618.234 376.898 618.001 376.804 617.793C376.712 617.578 376.574 617.391 376.39 617.232C376.207 617.073 375.989 616.945 375.737 616.85C375.467 616.748 375.224 616.713 375.006 616.746C374.79 616.773 374.6 616.836 374.434 616.934C374.574 616.717 374.747 616.523 374.953 616.351C375.167 616.175 375.398 616.032 375.646 615.92C375.899 615.811 376.168 615.736 376.452 615.696C376.737 615.656 377.028 615.667 377.325 615.729L377.41 614.769C376.98 614.684 376.544 614.675 376.1 614.745C375.665 614.811 375.246 614.96 374.843 615.193C374.449 615.422 374.085 615.73 373.752 616.117C373.425 616.507 373.156 616.979 372.946 617.535C372.806 617.905 372.733 618.25 372.728 618.568C372.723 618.887 372.775 619.173 372.884 619.426C372.994 619.679 373.151 619.899 373.356 620.086C373.569 620.269 373.821 620.416 374.113 620.527C374.399 620.635 374.679 620.684 374.953 620.672C375.233 620.662 375.489 620.602 375.724 620.492C375.958 620.382 376.165 620.226 376.344 620.024ZM378.99 616.705C378.814 616.915 378.672 617.163 378.564 617.449C378.447 617.757 378.396 618.046 378.41 618.314C378.431 618.579 378.495 618.818 378.6 619.031C378.713 619.241 378.86 619.421 379.04 619.573C379.225 619.726 379.425 619.844 379.638 619.924C379.896 620.022 380.111 620.072 380.284 620.073C380.462 620.076 380.647 620.031 380.837 619.936C380.7 620.16 380.536 620.357 380.343 620.528C380.157 620.695 379.946 620.83 379.708 620.933C379.473 621.03 379.213 621.088 378.929 621.109C378.646 621.13 378.342 621.102 378.018 621.024L377.929 621.972C378.346 622.091 378.768 622.136 379.197 622.106C379.625 622.075 380.036 621.955 380.43 621.745C380.832 621.532 381.204 621.22 381.545 620.81C381.894 620.397 382.191 619.865 382.438 619.214C382.712 618.49 382.738 617.871 382.516 617.357C382.301 616.84 381.877 616.461 381.243 616.221C380.934 616.104 380.64 616.05 380.36 616.06C380.089 616.066 379.836 616.124 379.601 616.234C379.375 616.341 379.171 616.498 378.99 616.705ZM383.934 618.577C383.758 618.787 383.616 619.035 383.508 619.321C383.391 619.629 383.339 619.918 383.353 620.186C383.375 620.451 383.438 620.69 383.544 620.903C383.657 621.113 383.803 621.293 383.983 621.445C384.169 621.599 384.368 621.716 384.582 621.797C384.84 621.894 385.055 621.944 385.228 621.945C385.406 621.948 385.59 621.903 385.78 621.808C385.644 622.032 385.48 622.23 385.287 622.4C385.101 622.568 384.89 622.702 384.652 622.805C384.417 622.902 384.157 622.961 383.873 622.981C383.589 623.002 383.286 622.974 382.962 622.896L382.873 623.844C383.29 623.963 383.712 624.008 384.141 623.978C384.569 623.948 384.98 623.827 385.374 623.617C385.776 623.404 386.147 623.092 386.489 622.682C386.838 622.269 387.135 621.737 387.382 621.086C387.656 620.362 387.682 619.743 387.459 619.229C387.245 618.712 386.82 618.333 386.186 618.093C385.878 617.976 385.584 617.922 385.304 617.932C385.032 617.938 384.779 617.996 384.545 618.107C384.319 618.213 384.115 618.37 383.934 618.577Z" fill="#59BB49"/>
</svg>
