<svg width="920" height="755" viewBox="0 0 920 755" fill="none" xmlns="http://www.w3.org/2000/svg">
<path d="M374.818 635.615C374.815 635.184 374.943 634.626 375.202 633.941C375.476 633.217 375.752 632.709 376.029 632.417C376.313 632.126 376.623 632.045 376.959 632.172C377.313 632.306 377.492 632.586 377.498 633.011C377.504 633.437 377.378 633.989 377.121 634.668C376.838 635.414 376.553 635.929 376.267 636.212C375.986 636.496 375.68 636.576 375.348 636.451C375.006 636.321 374.829 636.043 374.818 635.615Z" fill="#59BB49"/>
<path d="M379.762 637.487C379.758 637.056 379.886 636.498 380.146 635.813C380.42 635.09 380.696 634.581 380.973 634.289C381.256 633.998 381.566 633.917 381.903 634.044C382.257 634.178 382.436 634.458 382.442 634.883C382.447 635.309 382.322 635.861 382.065 636.54C381.782 637.286 381.497 637.801 381.211 638.084C380.929 638.369 380.623 638.448 380.292 638.323C379.95 638.193 379.773 637.915 379.762 637.487Z" fill="#59BB49"/>
<path d="M370 622.5L387.5 629.5L381.5 643.5L366 638L370 622.5ZM372.229 631.006L368.584 634.813L369.653 635.218L374.119 630.538L374.24 630.219L370.444 628.781L370.056 629.808L372.219 630.627L372.756 630.734L372.229 631.006ZM375.508 631.43C374.965 631.795 374.499 632.494 374.108 633.527C373.734 634.514 373.611 635.337 373.74 635.996C373.872 636.649 374.288 637.108 374.989 637.374C375.652 637.624 376.255 637.564 376.8 637.193C377.35 636.824 377.822 636.12 378.215 635.082C378.61 634.039 378.736 633.207 378.592 632.588C378.45 631.963 378.025 631.517 377.318 631.249C376.656 630.999 376.053 631.059 375.508 631.43ZM380.452 633.302C379.909 633.668 379.442 634.367 379.051 635.399C378.677 636.387 378.555 637.21 378.684 637.868C378.816 638.521 379.232 638.98 379.933 639.246C380.595 639.496 381.199 639.436 381.744 639.065C382.294 638.696 382.766 637.993 383.159 636.955C383.554 635.911 383.68 635.079 383.536 634.46C383.394 633.836 382.969 633.389 382.262 633.122C381.6 632.871 380.997 632.931 380.452 633.302Z" fill="#59BB49"/>
</svg>
