<svg width="920" height="755" viewBox="0 0 920 755" fill="none" xmlns="http://www.w3.org/2000/svg">
<path d="M372.406 651.537C371.975 651.561 371.412 651.459 370.716 651.232C369.98 650.992 369.46 650.74 369.155 650.477C368.851 650.207 368.755 649.901 368.867 649.559C368.984 649.2 369.255 649.007 369.68 648.982C370.105 648.956 370.662 649.056 371.353 649.281C372.111 649.529 372.639 649.789 372.934 650.062C373.232 650.33 373.326 650.632 373.216 650.968C373.103 651.316 372.833 651.506 372.406 651.537Z" fill="#59BB49"/>
<path d="M366 638.5L381.5 644L374 661L361.5 657L366 638.5ZM367.923 654.339L371.896 657.802L372.25 656.716L367.368 652.472L367.042 652.366L365.784 656.225L366.828 656.566L367.545 654.367L367.627 653.825L367.923 654.339ZM368.193 651.043C368.584 651.568 369.304 652.002 370.353 652.344C371.357 652.672 372.185 652.756 372.837 652.596C373.483 652.434 373.922 651.997 374.155 651.284C374.374 650.611 374.286 650.011 373.89 649.484C373.496 648.952 372.771 648.513 371.715 648.169C370.655 647.823 369.818 647.736 369.206 647.909C368.589 648.08 368.163 648.525 367.929 649.244C367.709 649.917 367.797 650.517 368.193 651.043ZM374.613 646.28L374.225 647.469L375.166 647.776L376.28 644.362L375.339 644.055L374.959 645.219L369.808 643.539L369.605 644.163L370.543 646.628L371.338 646.367L371.064 645.435L370.693 644.859L371.233 645.178L374.613 646.28Z" fill="#59BB49"/>
</svg>
