<svg width="920" height="755" viewBox="0 0 920 755" fill="none" xmlns="http://www.w3.org/2000/svg">
<path d="M364.406 673.537C363.975 673.561 363.412 673.459 362.716 673.232C361.98 672.992 361.46 672.74 361.155 672.477C360.851 672.207 360.755 671.901 360.867 671.559C360.984 671.2 361.255 671.007 361.68 670.982C362.105 670.956 362.662 671.056 363.353 671.281C364.111 671.529 364.639 671.789 364.934 672.062C365.232 672.33 365.326 672.632 365.216 672.968C365.103 673.316 364.833 673.506 364.406 673.537Z" fill="#59BB49"/>
<path d="M361.5 657.5L374 661.5L365 682.5L361.5 687.5L355.5 685L356.5 679L361.5 657.5ZM359.923 676.339L363.896 679.802L364.25 678.716L359.368 674.472L359.042 674.366L357.784 678.225L358.828 678.566L359.545 676.367L359.627 675.825L359.923 676.339ZM360.193 673.043C360.584 673.568 361.304 674.002 362.353 674.344C363.357 674.672 364.185 674.756 364.837 674.596C365.483 674.434 365.922 673.997 366.155 673.284C366.374 672.611 366.286 672.011 365.89 671.484C365.496 670.952 364.771 670.513 363.715 670.169C362.655 669.823 361.818 669.736 361.206 669.909C360.589 670.08 360.163 670.525 359.929 671.244C359.709 671.917 359.797 672.517 360.193 673.043ZM364.512 665.55C364.251 665.345 363.975 665.195 363.684 665.1C363.422 665.014 363.179 664.983 362.958 665.005C362.73 665.025 362.527 665.088 362.347 665.194C362.167 665.299 362.01 665.444 361.874 665.627C361.739 665.81 361.631 666.024 361.551 666.269C361.427 666.651 361.375 667.004 361.396 667.326C361.413 667.641 361.477 667.939 361.587 668.221L362.519 668.033C362.442 667.863 362.397 667.672 362.384 667.459C362.368 667.239 362.389 667.038 362.449 666.855C362.544 666.564 362.689 666.378 362.886 666.297C363.079 666.209 363.293 666.203 363.527 666.279C363.72 666.342 363.913 666.449 364.103 666.6C364.296 666.745 364.488 666.921 364.679 667.128C364.864 667.334 365.044 667.557 365.218 667.797C365.393 668.036 365.559 668.28 365.718 668.528C365.873 668.768 366.02 669.005 366.158 669.239C366.291 669.472 366.406 669.68 366.504 669.863L367.077 670.05L368.252 666.448L367.311 666.141L366.775 667.784L366.694 668.439L366.651 668.425L366.448 667.857C366.287 667.596 366.107 667.326 365.908 667.047C365.705 666.759 365.487 666.489 365.254 666.237C365.023 665.978 364.775 665.749 364.512 665.55Z" fill="#59BB49"/>
</svg>
