<svg width="920" height="755" viewBox="0 0 920 755" fill="none" xmlns="http://www.w3.org/2000/svg">
<path d="M357.654 719.463C357.778 719.05 358.064 718.554 358.512 717.976C358.987 717.365 359.4 716.96 359.751 716.762C360.107 716.567 360.428 716.58 360.712 716.801C361.011 717.033 361.1 717.353 360.981 717.761C360.861 718.17 360.579 718.661 360.133 719.234C359.644 719.865 359.221 720.273 358.864 720.459C358.511 720.649 358.195 720.635 357.916 720.418C357.627 720.194 357.54 719.875 357.654 719.463Z" fill="#59BB49"/>
<path d="M359.5 700L377.5 713.5L356 741L345.5 732L349 713.5L359.5 700ZM356.568 714.325L351.966 716.894L352.869 717.595L358.512 714.433L358.722 714.163L355.516 711.674L354.842 712.541L356.67 713.96L357.151 714.22L356.568 714.325ZM359.543 715.665C358.916 715.855 358.265 716.387 357.588 717.259C356.941 718.093 356.582 718.844 356.512 719.511C356.446 720.174 356.709 720.735 357.302 721.195C357.861 721.629 358.456 721.748 359.085 721.554C359.72 721.362 360.377 720.828 361.058 719.952C361.742 719.07 362.106 718.312 362.15 717.678C362.198 717.039 361.923 716.488 361.326 716.024C360.767 715.59 360.172 715.471 359.543 715.665ZM362.601 723.679C362.328 723.717 362.045 723.623 361.751 723.395C361.566 723.251 361.412 723.102 361.29 722.946C361.173 722.794 361.076 722.639 361.001 722.482L360.156 723.057C360.238 723.235 360.376 723.429 360.569 723.64C360.763 723.85 360.964 724.037 361.172 724.199C361.423 724.394 361.684 724.543 361.953 724.645C362.223 724.748 362.492 724.794 362.759 724.781C363.032 724.772 363.292 724.701 363.541 724.567C363.794 724.437 364.029 724.232 364.246 723.952C364.419 723.73 364.538 723.507 364.604 723.285C364.67 723.063 364.691 722.851 364.665 722.649C364.648 722.446 364.588 722.254 364.484 722.075C364.385 721.899 364.258 721.74 364.103 721.597L363.771 721.408L363.799 721.372L364.26 721.423L366.306 720.858L366.698 720.353L363.982 718.245L363.375 719.027L364.569 719.954L365.18 720.326L364.527 720.331L362.756 720.837L362.375 721.327L362.887 721.725C363.233 721.993 363.437 722.254 363.499 722.507C363.561 722.76 363.487 723.022 363.277 723.292C363.104 723.515 362.879 723.644 362.601 723.679Z" fill="#59BB49"/>
</svg>
