<svg width="920" height="755" viewBox="0 0 920 755" fill="none" xmlns="http://www.w3.org/2000/svg">
<path d="M371.675 702.749C371.799 702.336 372.085 701.84 372.534 701.262C373.008 700.65 373.421 700.245 373.772 700.047C374.128 699.853 374.449 699.866 374.733 700.086C375.032 700.318 375.121 700.638 375.002 701.047C374.882 701.455 374.6 701.946 374.155 702.52C373.665 703.15 373.242 703.559 372.885 703.745C372.533 703.934 372.217 703.921 371.937 703.704C371.648 703.479 371.561 703.161 371.675 702.749Z" fill="#59BB49"/>
<path d="M378.84 704.048L378.312 704.596L377.468 705.684L376.622 705.027L376.123 704.731L376.688 704.737L378.172 704.351L378.811 704.026L378.84 704.048Z" fill="#59BB49"/>
<path d="M368 689.5L386.5 702.5L378 713L360 699.5L368 689.5ZM370.589 697.611L365.987 700.179L366.89 700.88L372.533 697.719L372.743 697.448L369.537 694.96L368.863 695.827L370.691 697.245L371.172 697.505L370.589 697.611ZM373.564 698.951C372.938 699.141 372.286 699.672 371.609 700.544C370.962 701.379 370.603 702.129 370.533 702.797C370.467 703.459 370.73 704.021 371.323 704.48C371.882 704.914 372.477 705.034 373.106 704.839C373.741 704.648 374.398 704.114 375.079 703.237C375.763 702.356 376.127 701.598 376.171 700.964C376.219 700.325 375.944 699.773 375.347 699.31C374.788 698.876 374.193 698.756 373.564 698.951ZM377.754 707.091L378.536 707.698L379.11 706.959L378.328 706.352L380.569 703.465L379.808 702.874L375.148 704.225L374.74 704.751L376.894 706.423L375.818 707.81L376.678 708.477L377.754 707.091Z" fill="#59BB49"/>
</svg>
