<svg width="920" height="755" viewBox="0 0 920 755" fill="none" xmlns="http://www.w3.org/2000/svg">
<path d="M380.643 689.374C380.691 688.945 380.885 688.407 381.224 687.758C381.584 687.073 381.918 686.601 382.229 686.344C382.545 686.09 382.863 686.046 383.182 686.213C383.517 686.388 383.661 686.687 383.616 687.111C383.57 687.534 383.379 688.067 383.042 688.71C382.672 689.417 382.328 689.894 382.009 690.14C381.696 690.389 381.382 690.432 381.069 690.267C380.745 690.098 380.603 689.8 380.643 689.374Z" fill="#59BB49"/>
<path d="M374 678L394.5 686L391 695L387 702L368.5 689L374 678ZM378.666 684.509L374.589 687.85L375.602 688.38L380.598 684.271L380.757 683.968L377.161 682.085L376.652 683.058L378.701 684.131L379.221 684.302L378.666 684.509ZM381.83 685.302C381.247 685.6 380.7 686.238 380.188 687.216C379.698 688.151 379.478 688.953 379.527 689.623C379.579 690.286 379.937 690.792 380.602 691.14C381.229 691.469 381.835 691.481 382.421 691.178C383.011 690.878 383.564 690.236 384.079 689.253C384.597 688.264 384.821 687.454 384.752 686.822C384.686 686.185 384.319 685.691 383.649 685.34C383.022 685.012 382.415 684.999 381.83 685.302ZM386.162 692.558C385.887 692.631 385.574 692.575 385.223 692.392C385.016 692.283 384.844 692.177 384.71 692.072C384.583 691.965 384.472 691.853 384.378 691.736L383.648 692.451C383.76 692.598 383.913 692.746 384.106 692.894C384.302 693.051 384.52 693.192 384.759 693.317C385.062 693.476 385.362 693.582 385.659 693.636C385.955 693.69 386.239 693.685 386.508 693.623C386.783 693.564 387.036 693.443 387.268 693.259C387.499 693.076 387.697 692.827 387.861 692.513C388.001 692.248 388.086 691.988 388.118 691.733C388.152 691.474 388.134 691.23 388.063 691.004C387.995 690.772 387.877 690.557 387.708 690.361C387.546 690.167 387.337 689.997 387.082 689.85L386.738 689.711L387.302 688.634L389.152 689.603L389.661 688.63L386.918 687.194L385.39 690.112L386.033 690.418C386.437 690.63 386.709 690.867 386.849 691.13C386.989 691.393 386.975 691.684 386.808 692.003C386.652 692.3 386.437 692.485 386.162 692.558Z" fill="#59BB49"/>
</svg>
