<svg width="920" height="755" viewBox="0 0 920 755" fill="none" xmlns="http://www.w3.org/2000/svg">
<path d="M385.771 676.569C385.764 676.138 385.888 675.579 386.142 674.893C386.411 674.167 386.684 673.657 386.959 673.362C387.241 673.07 387.55 672.986 387.887 673.111C388.242 673.243 388.423 673.521 388.432 673.947C388.441 674.372 388.319 674.925 388.066 675.606C387.789 676.354 387.508 676.871 387.223 677.156C386.944 677.443 386.639 677.524 386.307 677.401C385.964 677.274 385.785 676.997 385.771 676.569Z" fill="#59BB49"/>
<path d="M391.928 677.316C392.547 677.546 392.74 677.975 392.506 678.605C392.402 678.887 392.232 679.086 391.997 679.204C391.767 679.323 391.519 679.334 391.255 679.236C391.092 679.175 390.963 679.092 390.868 678.987C390.774 678.875 390.707 678.754 390.666 678.624C390.633 678.49 390.62 678.351 390.629 678.207C390.639 678.057 390.67 677.915 390.72 677.78L390.77 677.645C390.786 677.6 390.812 677.549 390.846 677.491C390.958 677.379 391.109 677.3 391.298 677.255C391.493 677.212 391.703 677.233 391.928 677.316Z" fill="#59BB49"/>
<path d="M379.5 664.5L400 672L395 685.5L374.5 677.5L379.5 664.5ZM383.191 671.994L379.573 675.826L380.645 676.224L385.078 671.513L385.197 671.193L381.391 669.782L381.01 670.811L383.178 671.615L383.716 671.719L383.191 671.994ZM386.431 672.379C385.891 672.749 385.429 673.451 385.045 674.486C384.678 675.476 384.562 676.3 384.695 676.958C384.831 677.61 385.251 678.066 385.954 678.327C386.618 678.573 387.221 678.508 387.763 678.133C388.311 677.76 388.778 677.054 389.164 676.013C389.551 674.966 389.671 674.134 389.523 673.516C389.376 672.892 388.949 672.449 388.24 672.186C387.576 671.94 386.973 672.005 386.431 672.379ZM393.163 679.655C393.346 679.454 393.489 679.216 393.591 678.941C393.7 678.648 393.754 678.374 393.753 678.117C393.752 677.861 393.703 677.629 393.608 677.42C393.514 677.207 393.375 677.021 393.191 676.863C393.006 676.705 392.787 676.579 392.534 676.485C392.264 676.385 392.02 676.352 391.803 676.387C391.587 676.415 391.397 676.479 391.232 676.578C391.371 676.361 391.542 676.165 391.747 675.992C391.96 675.815 392.19 675.669 392.437 675.556C392.689 675.445 392.958 675.368 393.242 675.327C393.526 675.285 393.817 675.294 394.115 675.353L394.193 674.393C393.763 674.31 393.326 674.305 392.883 674.378C392.448 674.447 392.03 674.599 391.629 674.834C391.236 675.066 390.875 675.377 390.545 675.767C390.22 676.158 389.955 676.633 389.748 677.19C389.611 677.561 389.54 677.906 389.537 678.225C389.534 678.544 389.588 678.829 389.7 679.082C389.811 679.334 389.97 679.553 390.176 679.738C390.39 679.92 390.644 680.065 390.936 680.174C391.223 680.28 391.504 680.326 391.777 680.313C392.057 680.301 392.313 680.239 392.547 680.127C392.78 680.016 392.986 679.858 393.163 679.655Z" fill="#59BB49"/>
</svg>
