<svg width="920" height="755" viewBox="0 0 920 755" fill="none" xmlns="http://www.w3.org/2000/svg">
<path d="M391.771 663.569C391.764 663.138 391.888 662.579 392.142 661.893C392.411 661.167 392.684 660.657 392.959 660.362C393.241 660.07 393.55 659.986 393.887 660.111C394.242 660.243 394.423 660.521 394.432 660.947C394.441 661.372 394.319 661.925 394.066 662.606C393.789 663.354 393.508 663.871 393.223 664.156C392.944 664.443 392.639 664.524 392.307 664.401C391.964 664.274 391.785 663.997 391.771 663.569Z" fill="#59BB49"/>
<path d="M384.5 652.5L405 660L400 671.5L380 664L384.5 652.5ZM389.191 658.994L385.573 662.826L386.645 663.224L391.078 658.513L391.197 658.193L387.391 656.782L387.01 657.811L389.178 658.615L389.716 658.719L389.191 658.994ZM392.431 659.379C391.891 659.749 391.429 660.451 391.045 661.486C390.678 662.476 390.562 663.3 390.695 663.958C390.831 664.61 391.251 665.066 391.954 665.327C392.618 665.573 393.221 665.508 393.763 665.133C394.311 664.76 394.778 664.054 395.164 663.013C395.551 661.966 395.671 661.134 395.523 660.516C395.376 659.892 394.949 659.449 394.24 659.186C393.576 658.94 392.973 659.005 392.431 659.379ZM399.021 662.638L395.402 666.47L396.474 666.868L400.908 662.157L401.026 661.836L397.221 660.426L396.839 661.455L399.008 662.259L399.545 662.362L399.021 662.638Z" fill="#59BB49"/>
</svg>
