<svg width="920" height="755" viewBox="0 0 920 755" fill="none" xmlns="http://www.w3.org/2000/svg">
<path d="M396.771 651.569C396.764 651.138 396.888 650.579 397.142 649.893C397.411 649.167 397.684 648.657 397.959 648.362C398.241 648.07 398.55 647.986 398.887 648.111C399.242 648.243 399.423 648.521 399.432 648.947C399.441 649.372 399.319 649.925 399.066 650.606C398.789 651.354 398.508 651.871 398.223 652.156C397.944 652.443 397.639 652.524 397.307 652.401C396.964 652.274 396.785 651.997 396.771 651.569Z" fill="#59BB49"/>
<path d="M403.371 653.402C403.393 653.531 403.38 653.661 403.332 653.79C403.24 654.038 403.093 654.194 402.889 654.26C402.692 654.327 402.466 654.314 402.213 654.22C401.937 654.118 401.75 653.959 401.651 653.743C401.559 653.524 401.555 653.301 401.639 653.076C401.703 652.902 401.816 652.745 401.976 652.606C402.144 652.464 402.388 652.366 402.709 652.312C402.808 652.425 402.903 652.54 402.994 652.657C403.091 652.776 403.17 652.898 403.232 653.024C403.302 653.146 403.348 653.272 403.371 653.402Z" fill="#59BB49"/>
<path d="M402.822 650.712C402.809 650.592 402.828 650.465 402.878 650.33C402.942 650.155 403.055 650.024 403.215 649.937C403.381 649.851 403.588 649.854 403.836 649.946C404.033 650.019 404.176 650.142 404.265 650.316C404.362 650.486 404.366 650.69 404.279 650.926C404.152 651.269 403.866 651.522 403.422 651.683C403.325 651.583 403.231 651.481 403.142 651.378C403.06 651.271 402.988 651.164 402.925 651.057C402.869 650.947 402.835 650.832 402.822 650.712Z" fill="#59BB49"/>
<path d="M389.5 640L410 648L405 659.5L385 652L389.5 640ZM394.191 646.994L390.573 650.826L391.645 651.224L396.078 646.513L396.197 646.193L392.391 644.782L392.01 645.811L394.178 646.615L394.716 646.719L394.191 646.994ZM397.431 647.379C396.891 647.749 396.429 648.451 396.045 649.486C395.678 650.476 395.562 651.3 395.695 651.958C395.831 652.61 396.251 653.066 396.954 653.327C397.618 653.573 398.221 653.508 398.763 653.133C399.311 652.76 399.778 652.054 400.164 651.013C400.551 649.966 400.671 649.134 400.523 648.516C400.376 647.892 399.949 647.449 399.24 647.186C398.576 646.94 397.973 647.005 397.431 647.379ZM400.844 652.398C400.737 652.531 400.647 652.696 400.574 652.893C400.486 653.129 400.449 653.359 400.463 653.581C400.482 653.806 400.545 654.015 400.653 654.208C400.766 654.404 400.921 654.58 401.119 654.736C401.321 654.901 401.562 655.035 401.843 655.139C402.125 655.243 402.398 655.3 402.664 655.309C402.931 655.312 403.176 655.272 403.399 655.188C403.622 655.104 403.816 654.978 403.982 654.809C404.154 654.636 404.288 654.423 404.382 654.17C404.519 653.799 404.545 653.462 404.458 653.162C404.377 652.863 404.204 652.552 403.939 652.23C404.297 652.145 404.592 652.015 404.824 651.838C405.061 651.664 405.241 651.411 405.364 651.079C405.444 650.865 405.473 650.655 405.454 650.45C405.442 650.24 405.383 650.046 405.277 649.866C405.176 649.688 405.034 649.526 404.851 649.382C404.668 649.237 404.45 649.118 404.197 649.024C403.921 648.922 403.659 648.869 403.41 648.867C403.162 648.864 402.933 648.904 402.723 648.986C402.519 649.07 402.339 649.193 402.184 649.353C402.034 649.515 401.919 649.705 401.838 649.925C401.712 650.262 401.686 650.576 401.758 650.865C401.832 651.148 401.974 651.428 402.185 651.705C402.008 651.735 401.836 651.777 401.669 651.83C401.507 651.885 401.355 651.96 401.211 652.054C401.075 652.144 400.953 652.259 400.844 652.398Z" fill="#59BB49"/>
</svg>
