<svg width="920" height="755" viewBox="0 0 920 755" fill="none" xmlns="http://www.w3.org/2000/svg">
<path d="M401.771 639.569C401.764 639.138 401.888 638.579 402.142 637.893C402.411 637.167 402.684 636.657 402.959 636.362C403.241 636.07 403.55 635.986 403.887 636.111C404.242 636.243 404.423 636.521 404.432 636.947C404.441 637.372 404.319 637.925 404.066 638.606C403.789 639.354 403.508 639.871 403.223 640.156C402.944 640.443 402.639 640.524 402.307 640.401C401.964 640.274 401.785 639.997 401.771 639.569Z" fill="#59BB49"/>
<path d="M407.495 639.388C407.376 639.158 407.375 638.882 407.494 638.562C407.611 638.247 407.778 638.03 407.994 637.912C408.213 637.788 408.46 637.778 408.736 637.88C408.91 637.944 409.045 638.036 409.142 638.155C409.246 638.271 409.316 638.402 409.351 638.55C409.392 638.699 409.404 638.857 409.387 639.023C409.37 639.19 409.332 639.352 409.274 639.509C409.234 639.616 409.184 639.726 409.123 639.838C409.005 639.915 408.859 639.964 408.685 639.983C408.512 640.001 408.31 639.968 408.079 639.883C407.809 639.783 407.615 639.618 407.495 639.388Z" fill="#59BB49"/>
<path d="M395.5 628.5L416 636.5L410.5 647.5L390 639.5L395.5 628.5ZM399.191 634.994L395.573 638.826L396.645 639.224L401.078 634.513L401.197 634.193L397.391 632.782L397.01 633.811L399.178 634.615L399.716 634.719L399.191 634.994ZM402.431 635.379C401.891 635.749 401.429 636.451 401.045 637.486C400.678 638.476 400.562 639.3 400.695 639.958C400.831 640.61 401.251 641.066 401.954 641.327C402.618 641.573 403.221 641.508 403.763 641.133C404.311 640.76 404.778 640.054 405.164 639.013C405.551 637.966 405.671 637.134 405.523 636.516C405.376 635.892 404.949 635.449 404.24 635.186C403.576 634.94 402.973 635.005 402.431 635.379ZM406.83 637.48C406.655 637.691 406.515 637.94 406.409 638.227C406.294 638.536 406.245 638.825 406.26 639.093C406.284 639.358 406.349 639.596 406.456 639.809C406.57 640.018 406.718 640.197 406.899 640.347C407.086 640.5 407.286 640.616 407.5 640.695C407.759 640.791 407.975 640.839 408.147 640.839C408.326 640.841 408.509 640.794 408.699 640.698C408.564 640.923 408.401 641.122 408.209 641.294C408.025 641.462 407.814 641.599 407.577 641.703C407.343 641.801 407.083 641.862 406.8 641.885C406.516 641.908 406.212 641.881 405.888 641.806L405.805 642.754C406.223 642.871 406.646 642.912 407.074 642.879C407.502 642.846 407.913 642.723 408.305 642.51C408.705 642.294 409.075 641.979 409.413 641.567C409.759 641.152 410.053 640.618 410.295 639.965C410.564 639.239 410.586 638.62 410.36 638.108C410.141 637.592 409.714 637.216 409.079 636.98C408.769 636.865 408.475 636.814 408.195 636.825C407.924 636.833 407.671 636.893 407.438 637.005C407.212 637.113 407.009 637.272 406.83 637.48Z" fill="#59BB49"/>
</svg>
