<svg width="920" height="755" viewBox="0 0 920 755" fill="none" xmlns="http://www.w3.org/2000/svg">
<path d="M412.685 629.391C412.679 628.96 412.803 628.401 413.057 627.715C413.326 626.989 413.598 626.479 413.874 626.184C414.155 625.892 414.465 625.808 414.802 625.933C415.157 626.065 415.338 626.343 415.347 626.769C415.355 627.194 415.233 627.747 414.981 628.428C414.704 629.176 414.423 629.693 414.138 629.978C413.859 630.264 413.553 630.346 413.221 630.223C412.878 630.096 412.699 629.819 412.685 629.391Z" fill="#59BB49"/>
<path d="M400.5 616L421 624L416.5 636L396 628L400.5 616ZM405.191 622.994L401.573 626.826L402.645 627.224L407.078 622.513L407.197 622.193L403.391 620.782L403.01 621.811L405.178 622.615L405.716 622.719L405.191 622.994ZM407.979 628.146L406.806 627.711L406.462 628.639L409.829 629.887L410.173 628.959L409.026 628.534L410.909 623.453L410.293 623.225L407.793 624.064L408.023 624.869L408.965 624.633L409.554 624.285L409.215 624.812L407.979 628.146ZM413.346 625.201C412.806 625.571 412.344 626.273 411.96 627.308C411.593 628.298 411.476 629.122 411.61 629.78C411.746 630.431 412.166 630.888 412.869 631.148C413.533 631.395 414.136 631.33 414.678 630.955C415.225 630.582 415.692 629.876 416.078 628.835C416.466 627.788 416.586 626.956 416.437 626.338C416.291 625.714 415.864 625.271 415.155 625.008C414.491 624.762 413.888 624.826 413.346 625.201Z" fill="#59BB49"/>
</svg>
