<svg width="920" height="755" viewBox="0 0 920 755" fill="none" xmlns="http://www.w3.org/2000/svg">
<path d="M405.5 604.5L426 612L421.5 623.5L401 615.5L405.5 604.5ZM409.191 610.994L405.573 614.826L406.645 615.224L411.078 610.513L411.197 610.193L407.391 608.782L407.01 609.811L409.178 610.615L409.716 610.719L409.191 610.994ZM411.979 616.146L410.806 615.711L410.462 616.639L413.829 617.887L414.173 616.959L413.026 616.534L414.909 611.453L414.293 611.225L411.793 612.064L412.023 612.869L412.965 612.633L413.554 612.285L413.215 612.812L411.979 616.146ZM416.894 617.968L415.721 617.533L415.377 618.461L418.744 619.709L419.088 618.781L417.94 618.355L419.823 613.275L419.207 613.047L416.708 613.886L416.937 614.691L417.879 614.455L418.469 614.107L418.13 614.634L416.894 617.968Z" fill="#59BB49"/>
</svg>
