<svg width="920" height="755" viewBox="0 0 920 755" fill="none" xmlns="http://www.w3.org/2000/svg">
<path d="M410.5 591.5L431.5 600L426.5 611.5L405.5 604L410.5 591.5ZM415.191 597.994L411.573 601.826L412.645 602.224L417.078 597.513L417.197 597.193L413.391 595.782L413.01 596.811L415.178 597.615L415.716 597.719L415.191 597.994ZM417.979 603.146L416.806 602.711L416.462 603.639L419.829 604.887L420.173 603.959L419.026 603.534L420.909 598.453L420.293 598.225L417.793 599.064L418.023 599.869L418.965 599.633L419.554 599.285L419.215 599.812L417.979 603.146ZM425.705 602.977C425.92 602.724 426.081 602.454 426.188 602.167C426.284 601.908 426.325 601.667 426.311 601.445C426.3 601.217 426.245 601.011 426.147 600.827C426.049 600.644 425.911 600.48 425.733 600.338C425.556 600.195 425.346 600.079 425.104 599.989C424.727 599.85 424.377 599.784 424.054 599.792C423.739 599.797 423.438 599.849 423.152 599.947L423.303 600.886C423.476 600.816 423.669 600.779 423.882 600.775C424.102 600.767 424.303 600.796 424.483 600.863C424.77 600.969 424.95 601.122 425.023 601.322C425.103 601.519 425.101 601.732 425.016 601.963C424.945 602.154 424.83 602.342 424.672 602.526C424.52 602.713 424.336 602.898 424.121 603.081C423.908 603.258 423.679 603.428 423.432 603.593C423.186 603.758 422.935 603.914 422.682 604.063C422.436 604.209 422.193 604.346 421.953 604.475C421.716 604.598 421.503 604.705 421.316 604.795L421.107 605.361L424.659 606.678L425.003 605.75L423.383 605.149L422.732 605.042L422.747 605L423.323 604.82C423.59 604.669 423.867 604.5 424.154 604.312C424.449 604.12 424.728 603.913 424.989 603.69C425.257 603.47 425.495 603.232 425.705 602.977Z" fill="#59BB49"/>
</svg>
