<svg width="920" height="755" viewBox="0 0 920 755" fill="none" xmlns="http://www.w3.org/2000/svg">
<path d="M416 579.5L436 587.5L432 599.5L410.5 591L416 579.5ZM420.191 585.994L416.573 589.826L417.645 590.224L422.078 585.513L422.197 585.193L418.391 583.782L418.01 584.811L420.178 585.615L420.716 585.719L420.191 585.994ZM422.979 591.146L421.806 590.711L421.462 591.639L424.829 592.887L425.173 591.959L424.026 591.534L425.909 586.453L425.293 586.225L422.793 587.064L423.023 587.869L423.965 587.633L424.554 587.285L424.215 587.812L422.979 591.146ZM428.755 593.104C428.506 593.223 428.207 593.218 427.858 593.089C427.639 593.007 427.448 592.911 427.284 592.799C427.127 592.69 426.988 592.571 426.869 592.444L426.236 593.246C426.368 593.39 426.557 593.534 426.805 593.677C427.053 593.82 427.301 593.938 427.548 594.03C427.846 594.14 428.139 594.204 428.427 594.221C428.715 594.238 428.985 594.201 429.237 594.109C429.494 594.018 429.721 593.872 429.918 593.67C430.12 593.47 430.283 593.204 430.406 592.872C430.504 592.607 430.551 592.359 430.547 592.128C430.544 591.896 430.499 591.687 430.414 591.502C430.337 591.314 430.222 591.149 430.069 591.01C429.922 590.872 429.753 590.758 429.562 590.668L429.189 590.587L429.205 590.545L429.66 590.455L431.441 589.301L431.664 588.702L428.44 587.507L428.096 588.435L429.514 588.961L430.208 589.132L429.587 589.333L428.049 590.347L427.833 590.929L428.441 591.155C428.852 591.307 429.125 591.495 429.26 591.717C429.395 591.94 429.403 592.212 429.284 592.533C429.186 592.797 429.009 592.988 428.755 593.104Z" fill="#59BB49"/>
</svg>
