<svg width="920" height="755" viewBox="0 0 920 755" fill="none" xmlns="http://www.w3.org/2000/svg">
<path d="M434.994 577.657L434.656 578.338L434.177 579.629L433.173 579.257L432.608 579.124L433.149 578.96L434.449 578.146L434.961 577.645L434.994 577.657Z" fill="#59BB49"/>
<path d="M421 567L441.5 575L436.5 587L416 579L421 567ZM425.191 573.994L421.573 577.826L422.645 578.224L427.078 573.513L427.197 573.193L423.391 571.782L423.01 572.811L425.178 573.615L425.716 573.719L425.191 573.994ZM427.979 579.146L426.806 578.711L426.462 579.639L429.829 580.887L430.173 579.959L429.026 579.534L430.909 574.453L430.293 574.225L427.793 575.064L428.023 575.869L428.965 575.633L429.554 575.285L429.215 575.812L427.979 579.146ZM434.873 580.885L435.801 581.229L436.126 580.352L435.198 580.008L436.468 576.582L435.565 576.247L431.526 578.934L431.295 579.559L433.852 580.507L433.242 582.152L434.263 582.531L434.873 580.885Z" fill="#59BB49"/>
</svg>
