<svg width="920" height="755" viewBox="0 0 920 755" fill="none" xmlns="http://www.w3.org/2000/svg">
<path d="M426 555.5L446.5 563L442 574.5L421.5 566.5L426 555.5ZM430.191 561.994L426.573 565.826L427.645 566.224L432.078 561.513L432.197 561.193L428.391 559.782L428.01 560.811L430.178 561.615L430.716 561.719L430.191 561.994ZM432.979 567.146L431.806 566.711L431.462 567.639L434.829 568.887L435.173 567.959L434.026 567.534L435.909 562.453L435.293 562.225L432.793 563.064L433.023 563.869L433.965 563.633L434.554 563.285L434.215 563.812L432.979 567.146ZM438.649 569.027C438.386 569.134 438.068 569.119 437.697 568.981C437.477 568.9 437.294 568.816 437.147 568.729C437.008 568.639 436.884 568.542 436.775 568.438L436.142 569.24C436.272 569.371 436.443 569.498 436.653 569.621C436.867 569.752 437.101 569.864 437.354 569.958C437.675 570.077 437.986 570.144 438.287 570.16C438.588 570.175 438.869 570.135 439.128 570.039C439.393 569.946 439.629 569.793 439.835 569.582C440.042 569.37 440.206 569.099 440.33 568.767C440.434 568.485 440.485 568.217 440.484 567.96C440.486 567.698 440.437 567.459 440.337 567.243C440.24 567.022 440.096 566.824 439.904 566.651C439.718 566.48 439.49 566.337 439.218 566.224L438.86 566.129L439.282 564.99L441.24 565.716L441.621 564.686L438.718 563.61L437.573 566.699L438.25 566.921C438.677 567.079 438.977 567.28 439.149 567.523C439.322 567.766 439.345 568.056 439.22 568.394C439.103 568.709 438.913 568.92 438.649 569.027Z" fill="#59BB49"/>
</svg>
