<svg width="920" height="755" viewBox="0 0 920 755" fill="none" xmlns="http://www.w3.org/2000/svg">
<path d="M443.928 555.316C444.547 555.546 444.74 555.975 444.506 556.605C444.402 556.887 444.232 557.086 443.997 557.204C443.767 557.323 443.519 557.334 443.255 557.236C443.092 557.175 442.963 557.092 442.868 556.987C442.774 556.875 442.707 556.754 442.666 556.624C442.633 556.49 442.62 556.351 442.629 556.207C442.639 556.057 442.67 555.915 442.72 555.78L442.77 555.645C442.786 555.6 442.812 555.549 442.846 555.491C442.958 555.379 443.109 555.3 443.298 555.255C443.493 555.212 443.703 555.233 443.928 555.316Z" fill="#59BB49"/>
<path d="M431 543L451.5 550.5L446.5 562.5L426.5 555L431 543ZM435.191 549.994L431.573 553.826L432.645 554.224L437.078 549.513L437.197 549.193L433.391 547.782L433.01 548.811L435.178 549.615L435.716 549.719L435.191 549.994ZM437.979 555.146L436.806 554.711L436.462 555.639L439.829 556.887L440.173 555.959L439.026 555.534L440.909 550.453L440.293 550.225L437.793 551.064L438.023 551.869L438.965 551.633L439.554 551.285L439.215 551.812L437.979 555.146ZM445.163 557.655C445.346 557.454 445.489 557.216 445.591 556.941C445.7 556.648 445.754 556.374 445.753 556.117C445.752 555.861 445.703 555.629 445.608 555.42C445.514 555.207 445.375 555.021 445.191 554.863C445.006 554.705 444.787 554.579 444.534 554.485C444.264 554.385 444.02 554.352 443.803 554.387C443.587 554.415 443.397 554.479 443.232 554.578C443.371 554.361 443.542 554.165 443.747 553.992C443.96 553.815 444.19 553.669 444.437 553.556C444.689 553.445 444.958 553.368 445.242 553.327C445.526 553.285 445.817 553.294 446.115 553.353L446.193 552.393C445.763 552.31 445.326 552.305 444.883 552.378C444.448 552.447 444.03 552.599 443.629 552.834C443.236 553.066 442.875 553.377 442.545 553.767C442.22 554.158 441.955 554.633 441.748 555.19C441.611 555.561 441.54 555.906 441.537 556.225C441.534 556.544 441.588 556.829 441.7 557.082C441.811 557.334 441.97 557.553 442.176 557.738C442.39 557.92 442.644 558.065 442.936 558.174C443.223 558.28 443.504 558.326 443.777 558.313C444.057 558.301 444.313 558.239 444.547 558.127C444.78 558.016 444.986 557.858 445.163 557.655Z" fill="#59BB49"/>
</svg>
