<svg width="920" height="755" viewBox="0 0 920 755" fill="none" xmlns="http://www.w3.org/2000/svg">
<path d="M436 530.5L457 537.5L452 550L431 542.5L436 530.5ZM440.191 536.994L436.573 540.826L437.645 541.224L442.078 536.513L442.197 536.193L438.391 534.782L438.01 535.811L440.178 536.615L440.716 536.719L440.191 536.994ZM442.979 542.146L441.806 541.711L441.462 542.639L444.829 543.887L445.173 542.959L444.026 542.534L445.909 537.453L445.293 537.225L442.793 538.064L443.023 538.869L443.965 538.633L444.554 538.285L444.215 538.812L442.979 542.146ZM450.021 540.638L446.402 544.47L447.474 544.868L451.908 540.157L452.026 539.836L448.221 538.426L447.839 539.455L450.008 540.259L450.545 540.362L450.021 540.638Z" fill="#59BB49"/>
</svg>
