<svg width="920" height="755" viewBox="0 0 920 755" fill="none" xmlns="http://www.w3.org/2000/svg">
<path d="M453.371 531.402C453.393 531.531 453.38 531.661 453.332 531.79C453.24 532.038 453.093 532.194 452.889 532.26C452.692 532.327 452.466 532.314 452.213 532.22C451.937 532.118 451.75 531.959 451.651 531.743C451.559 531.524 451.555 531.301 451.639 531.076C451.703 530.902 451.816 530.745 451.976 530.606C452.144 530.464 452.388 530.366 452.709 530.312C452.808 530.425 452.903 530.54 452.994 530.657C453.091 530.776 453.17 530.898 453.232 531.024C453.302 531.146 453.348 531.272 453.371 531.402Z" fill="#59BB49"/>
<path d="M452.822 528.712C452.809 528.592 452.828 528.465 452.878 528.33C452.942 528.155 453.055 528.024 453.215 527.937C453.381 527.851 453.588 527.854 453.836 527.946C454.033 528.019 454.176 528.142 454.265 528.316C454.362 528.486 454.366 528.69 454.279 528.926C454.152 529.269 453.866 529.522 453.422 529.683C453.325 529.583 453.231 529.481 453.142 529.378C453.06 529.271 452.988 529.164 452.925 529.057C452.869 528.947 452.835 528.832 452.822 528.712Z" fill="#59BB49"/>
<path d="M440.5 518L461 525L457 537L436 530L440.5 518ZM444.191 524.994L440.573 528.826L441.645 529.224L446.078 524.513L446.197 524.193L442.391 522.782L442.01 523.811L444.178 524.615L444.716 524.719L444.191 524.994ZM446.979 530.146L445.806 529.711L445.462 530.639L448.829 531.887L449.173 530.959L448.026 530.534L449.909 525.453L449.293 525.225L446.793 526.064L447.023 526.869L447.965 526.633L448.554 526.285L448.215 526.812L446.979 530.146ZM450.844 530.398C450.737 530.531 450.647 530.696 450.574 530.893C450.486 531.129 450.449 531.359 450.463 531.581C450.482 531.806 450.545 532.015 450.653 532.208C450.766 532.404 450.921 532.58 451.119 532.736C451.321 532.901 451.562 533.035 451.843 533.139C452.125 533.243 452.398 533.3 452.664 533.309C452.931 533.312 453.176 533.272 453.399 533.188C453.622 533.104 453.816 532.978 453.982 532.809C454.154 532.636 454.288 532.423 454.382 532.17C454.519 531.799 454.545 531.462 454.458 531.162C454.377 530.863 454.204 530.552 453.939 530.23C454.297 530.145 454.592 530.015 454.824 529.838C455.061 529.664 455.241 529.411 455.364 529.079C455.444 528.865 455.473 528.655 455.454 528.45C455.442 528.24 455.383 528.046 455.277 527.866C455.176 527.688 455.034 527.526 454.851 527.382C454.668 527.237 454.45 527.118 454.197 527.024C453.921 526.922 453.659 526.869 453.41 526.867C453.162 526.864 452.933 526.904 452.723 526.986C452.519 527.07 452.339 527.193 452.184 527.353C452.034 527.515 451.919 527.705 451.838 527.925C451.712 528.262 451.686 528.576 451.758 528.865C451.832 529.148 451.974 529.428 452.185 529.705C452.008 529.735 451.836 529.777 451.669 529.83C451.507 529.885 451.355 529.96 451.211 530.054C451.075 530.144 450.953 530.259 450.844 530.398Z" fill="#59BB49"/>
</svg>
