<svg width="920" height="755" viewBox="0 0 920 755" fill="none" xmlns="http://www.w3.org/2000/svg">
<path d="M457.495 516.388C457.376 516.158 457.375 515.882 457.494 515.562C457.611 515.247 457.778 515.03 457.994 514.912C458.213 514.788 458.46 514.778 458.736 514.88C458.91 514.944 459.045 515.036 459.142 515.155C459.246 515.271 459.316 515.402 459.351 515.55C459.392 515.699 459.404 515.857 459.387 516.023C459.37 516.19 459.332 516.352 459.274 516.509C459.234 516.616 459.184 516.726 459.123 516.838C459.005 516.915 458.859 516.964 458.685 516.983C458.512 517.001 458.31 516.968 458.079 516.883C457.809 516.783 457.615 516.618 457.495 516.388Z" fill="#59BB49"/>
<path d="M445 505.5L465.5 512.5L461.5 524.5L440.5 517.5L445 505.5ZM449.191 511.994L445.573 515.826L446.645 516.224L451.078 511.513L451.197 511.193L447.391 509.782L447.01 510.811L449.178 511.615L449.716 511.719L449.191 511.994ZM451.979 517.146L450.806 516.711L450.462 517.639L453.829 518.887L454.173 517.959L453.026 517.534L454.909 512.453L454.293 512.225L451.793 513.064L452.023 513.869L452.965 513.633L453.554 513.285L453.215 513.812L451.979 517.146ZM456.83 514.48C456.655 514.691 456.515 514.94 456.409 515.227C456.294 515.536 456.245 515.825 456.26 516.093C456.284 516.358 456.349 516.596 456.456 516.809C456.57 517.018 456.718 517.197 456.899 517.347C457.086 517.5 457.286 517.616 457.5 517.695C457.759 517.791 457.975 517.839 458.147 517.839C458.326 517.841 458.509 517.794 458.699 517.698C458.564 517.923 458.401 518.122 458.209 518.294C458.025 518.462 457.814 518.599 457.577 518.703C457.343 518.801 457.083 518.862 456.8 518.885C456.516 518.908 456.212 518.881 455.888 518.806L455.805 519.754C456.223 519.871 456.646 519.912 457.074 519.879C457.502 519.846 457.913 519.723 458.305 519.51C458.705 519.294 459.075 518.979 459.413 518.567C459.759 518.152 460.053 517.618 460.295 516.965C460.564 516.239 460.586 515.62 460.36 515.108C460.141 514.592 459.714 514.216 459.079 513.98C458.769 513.865 458.475 513.814 458.195 513.825C457.924 513.833 457.671 513.893 457.438 514.005C457.212 514.113 457.009 514.272 456.83 514.48Z" fill="#59BB49"/>
</svg>
