<svg width="920" height="755" viewBox="0 0 920 755" fill="none" xmlns="http://www.w3.org/2000/svg">
<path d="M460.772 505.679C460.765 505.248 460.889 504.689 461.143 504.003C461.412 503.277 461.685 502.767 461.96 502.473C462.242 502.18 462.551 502.096 462.889 502.222C463.243 502.353 463.424 502.631 463.433 503.057C463.442 503.483 463.32 504.036 463.067 504.716C462.79 505.465 462.509 505.981 462.224 506.266C461.945 506.553 461.64 506.635 461.308 506.512C460.965 506.384 460.786 506.107 460.772 505.679Z" fill="#59BB49"/>
<path d="M449.5 493L470 500L465.5 512L445 505L449.5 493ZM453.278 499.283L449.659 503.115L450.731 503.512L455.165 498.802L455.284 498.481L451.478 497.07L451.096 498.1L453.265 498.904L453.802 499.007L453.278 499.283ZM458.877 502.443C459.092 502.19 459.253 501.92 459.36 501.633C459.455 501.374 459.497 501.134 459.483 500.911C459.472 500.683 459.417 500.477 459.319 500.294C459.22 500.11 459.082 499.947 458.905 499.804C458.727 499.662 458.518 499.545 458.276 499.456C457.899 499.316 457.549 499.25 457.226 499.259C456.911 499.263 456.61 499.315 456.324 499.414L456.475 500.353C456.648 500.283 456.841 500.245 457.054 500.241C457.274 500.233 457.474 500.263 457.654 500.329C457.941 500.436 458.121 500.589 458.194 500.789C458.275 500.985 458.273 501.198 458.187 501.429C458.116 501.62 458.002 501.808 457.844 501.993C457.692 502.18 457.508 502.364 457.293 502.547C457.08 502.724 456.851 502.895 456.604 503.059C456.357 503.224 456.107 503.381 455.854 503.53C455.608 503.675 455.365 503.813 455.125 503.941C454.888 504.064 454.675 504.171 454.488 504.262L454.278 504.827L457.831 506.144L458.175 505.216L456.555 504.615L455.904 504.508L455.919 504.466L456.495 504.286C456.762 504.135 457.039 503.966 457.326 503.778C457.621 503.587 457.899 503.38 458.161 503.157C458.429 502.936 458.667 502.698 458.877 502.443ZM461.432 501.49C460.892 501.859 460.43 502.561 460.046 503.596C459.679 504.587 459.563 505.41 459.696 506.068C459.832 506.72 460.252 507.176 460.955 507.437C461.619 507.683 462.222 507.618 462.764 507.244C463.312 506.871 463.779 506.164 464.165 505.123C464.552 504.077 464.672 503.244 464.524 502.626C464.378 502.003 463.95 501.559 463.241 501.296C462.577 501.05 461.974 501.115 461.432 501.49Z" fill="#59BB49"/>
</svg>
