<svg width="920" height="755" viewBox="0 0 920 755" fill="none" xmlns="http://www.w3.org/2000/svg">
<path d="M412 338.5L381.426 442L380.5 441.5L376 417.5L385.5 403L400 352.5L412 338.5ZM381.817 422.375L385.97 425.621L386.265 424.517L381.163 420.541L380.832 420.453L379.782 424.373L380.842 424.657L381.441 422.423L381.494 421.878L381.817 422.375ZM384.443 416.506C384.171 416.315 383.887 416.18 383.592 416.101C383.325 416.03 383.082 416.011 382.861 416.045C382.635 416.078 382.435 416.151 382.262 416.266C382.088 416.381 381.938 416.534 381.813 416.724C381.687 416.914 381.591 417.133 381.525 417.383C381.42 417.771 381.388 418.125 381.426 418.446C381.46 418.76 381.539 419.054 381.664 419.33L382.585 419.092C382.499 418.926 382.444 418.738 382.42 418.526C382.392 418.308 382.402 418.105 382.452 417.92C382.531 417.624 382.667 417.431 382.859 417.34C383.047 417.241 383.26 417.223 383.497 417.287C383.695 417.34 383.892 417.436 384.091 417.576C384.291 417.711 384.492 417.876 384.694 418.073C384.89 418.269 385.081 418.482 385.268 418.712C385.455 418.942 385.634 419.176 385.806 419.415C385.974 419.646 386.133 419.875 386.284 420.102C386.429 420.327 386.555 420.529 386.662 420.707L387.245 420.863L388.225 417.203L387.269 416.947L386.822 418.616L386.776 419.274L386.732 419.263L386.499 418.706C386.325 418.455 386.13 418.194 385.917 417.926C385.699 417.65 385.466 417.392 385.22 417.152C384.975 416.907 384.716 416.691 384.443 416.506ZM388.043 414.057L387.72 415.265L388.676 415.522L389.605 412.053L388.649 411.797L388.332 412.979L383.099 411.577L382.929 412.211L383.997 414.622L384.777 414.319L384.454 413.403L384.053 412.848L384.609 413.137L388.043 414.057Z" fill="#59BB49"/>
</svg>
